<?xml version="1.0" encoding="UTF-8"?><svg xmlns="http://www.w3.org/2000/svg" width="730" height="770" viewBox="0 0 730 770"><defs><style>.cls-1{fill:#fff;}.cls-1,.cls-2{stroke-width:0px;}.cls-2{fill:#00a94e;}</style></defs><g id="Layer_2"><path class="cls-2" d="m385.42,5.49l319.95,170.95c15.13,8.08,24.57,23.82,24.57,40.96l.06,335.28c0,17.12-9.42,32.86-24.53,40.95l-318.89,170.85c-13.76,7.37-30.3,7.36-44.04-.04L24.46,593.32C9.35,585.19-.04,569.43,0,552.29L.88,216.66c.04-17.03,9.42-32.68,24.43-40.77L341.39,5.57c13.73-7.4,30.27-7.43,44.02-.08Z"/></g><g id="Layer_3"><path class="cls-1" d="m87.89,207.75h34.6l41.04,109.25,41.04-109.25h34.17l-56.52,151.33h-37.61l-56.73-151.33Z"/><path class="cls-2" d="m273.77,207.75h32.23v151.33h-32.23v-151.33Z"/><path class="cls-1" d="m356.93,207.75h32.23v119.13h64.47v32.2h-96.7v-151.33Z"/><path class="cls-1" d="m491.88,207.75h60.6c43.62,0,79.08,33.48,79.08,75.77s-35.46,75.56-79.08,75.56h-60.6v-151.33Zm32.23,32.2v86.93h28.15c25.79,0,46.85-18.89,46.85-43.36s-21.06-43.57-46.85-43.57h-28.15Z"/></g><g id="Layer_5"><path class="cls-1" d="m291.28,213.01c-9.68,9.39-18.63,19.92-24.09,32.19-4.63,9.83-7.37,20.35-8.41,31.06-1.43,10.63.07,21.5,3.51,31.58,4.76,13.67,12.53,26.2,22.85,36.49,6.94,6.72,14.65,13.1,23.66,17.01-2.71-4.48-3.49-7.45-5.54-12.84-5.3-14.71-8.93-29.98-11.25-45.44-2.02-15.96-2.34-32.15-1.94-48.25.7-14.49,1.59-17.59,4.46-33.4.86-4.56,1.68-9.13,2.69-13.66-2.05,1.67-4.02,3.43-5.93,5.25Z"/></g><g id="Layer_3_copy"><path class="cls-1" d="m102.93,403.66h45.99l39.32,108.61,39.75-108.61h45.77v151.33h-32.23v-94.44l-34.38,94.44h-37.61l-34.38-93.8v93.8h-32.23v-151.33Z"/><path class="cls-1" d="m363.16,403.66h37.61l53.08,151.33h-34.6l-11.17-32.2h-52.43l-11.17,32.2h-34.17l52.86-151.33Zm3.87,86.93h29.87l-14.83-43.14-15.04,43.14Z"/><path class="cls-1" d="m489.95,403.66h60.6c43.62,0,79.08,33.48,79.08,75.77s-35.46,75.56-79.08,75.56h-60.6v-151.33Zm32.23,32.2v86.93h28.15c25.79,0,46.85-18.89,46.85-43.36s-21.06-43.57-46.85-43.57h-28.15Z"/></g><g id="Layer_6"><path class="cls-1" d="m301.78,199.59c3.15-3.27,4.44-7.68,5.6-11.96.6-2.22,1.17-4.45,2-6.6.95-2.48,2.21-4.83,3.63-7.06s2.92-4.29,4.75-6.14c1.64-1.66,3.51-3.02,5.55-4.15,3.82-2.11,8.01-3.39,12.09-4.86,4.49-1.62,8.97-3.52,12.51-6.82.47-.44-.24-1.15-.71-.71-6.44,6.02-15.7,7.1-23.34,10.97-1.92.97-3.74,2.12-5.37,3.52-1.95,1.67-3.59,3.66-5.06,5.75-2.9,4.14-5.02,8.6-6.38,13.47s-2.37,10.14-5.98,13.88c-.45.46.26,1.17.71.71h0Z"/><path class="cls-1" d="m302.35,198.4c2.44-4,6.97-6.24,11.44-7.67s9.18-2.27,13.32-4.48c1.81-.96,3.48-2.18,4.96-3.6,4.28-4.11,6.75-9.73,8.79-15.3s3.8-11.33,7.05-16.3c-1.94,2.76-4.5,5.03-7,7.3-13.09,11.83-25.49,24.41-37.15,37.65"/><path class="cls-1" d="m302.78,198.65c2.24-3.61,6.14-5.7,10.04-7.07,4.45-1.56,9.15-2.34,13.44-4.35s7.5-5.09,9.99-8.91,4.08-7.99,5.58-12.2c1.82-5.08,3.55-10.26,6.51-14.82.36-.55-.5-1.02-.86-.5-2.28,3.21-5.35,5.75-8.24,8.39-3.06,2.78-6.08,5.61-9.06,8.48-5.96,5.73-11.77,11.62-17.41,17.66-3.17,3.39-6.29,6.84-9.36,10.32-.42.48.28,1.19.71.71,5.49-6.24,11.14-12.33,16.96-18.26,5.84-5.96,11.85-11.77,18-17.4,3.24-2.96,6.71-5.78,9.27-9.38l-.86-.5c-5.13,7.89-6.51,17.5-11.22,25.6-2.34,4.02-5.53,7.43-9.7,9.58s-9.04,2.97-13.55,4.49-8.62,3.7-11.09,7.69c-.34.55.52,1.05.86.5h0Z"/></g></svg>