<?xml version="1.0" encoding="UTF-8"?><svg id="Layer_2" xmlns="http://www.w3.org/2000/svg" width="185" height="370" xmlns:xlink="http://www.w3.org/1999/xlink" viewBox="0 0 185 370"><defs><style>.cls-1{fill:url(#linear-gradient);}.cls-1,.cls-2,.cls-3,.cls-4,.cls-5{stroke-width:0px;}.cls-3{fill:#418c46;}.cls-6{fill:#fa9f37;stroke:#fa9f37;}.cls-6,.cls-7,.cls-8,.cls-9{stroke-miterlimit:10;}.cls-7{fill:#ed8713;stroke:#ed8713;}.cls-4{fill:#ffefe1;}.cls-5{fill:#206925;}.cls-8{fill:#de830b;stroke:#de830b;}.cls-9{fill:#fac337;stroke:#fac337;}</style><linearGradient id="linear-gradient" x1="167.3" y1="673.54" x2="192.68" y2="765.44" gradientTransform="translate(289.62 -656.49) rotate(30.11)" gradientUnits="userSpaceOnUse"><stop offset="0" stop-color="#8fad71"/><stop offset="1" stop-color="#9c6"/></linearGradient></defs><path class="cls-1" d="m.02.41l-.02,369.59L185,50.05S89.92-5.25.02.41Z"/><path class="cls-4" d="m.34,93.74l-.34,276.26,138.37-239.31S67.45,89.44.34,93.74Z"/><path class="cls-3" d="m85.33,86.11c1.34-.68,2.66-1,4.13-1.24,2.13-.35,4.29-.62,6.44-.84,4.15-.43,8.39-.53,12.55-.24,1.89.13,3.79.37,5.65.75s3.77,1.07,5.66,1.53c1.67.4,3.24.79,4.84,1.44,1.1.45,2,.99,3.04,1.55,1.38.75,5.04,2.49,3.89,4.68-.22.42-.65.48-1.06.6-.56.15-1.08.38-1.66.46-2.02.28-4.14-.41-6.16-.52-2.43-.13-4.77-.65-7.17-.97-1.53-.2-3-.58-4.51-.86-1.34-.25-2.7-.43-4.04-.7-1.2-.25-2.37-.62-3.57-.86-1.14-.22-2.29-.27-3.43-.43-.98-.14-1.9-.5-2.88-.69-.78-.15-1.57-.27-2.36-.41-2.52-.45-5.05-.96-7.46-1.83-.62-.22-1.33-.38-1.99-.45-.55-.06-1.07.09-1.64,0,.04-.5.78-.59,1.13-.77.74-.37,1.2-.83,2.08-.71"/><path class="cls-3" d="m84.46,86.61c2.03-.97,4.21-1.28,6.42-1.58,2.33-.32,4.68-.59,7.03-.74,4.85-.32,9.82-.26,14.61.62,2.24.41,4.38,1.18,6.59,1.72s4.34,1.14,6.34,2.21c1.3.7,2.69,1.35,3.86,2.25.94.72,2.5,2.56.91,3.54l1.7-.98c-2,.68-3.71.77-5.79.46s-4.32-.45-6.47-.79c-4.11-.65-8.28-1.26-12.34-2.18-1.99-.45-3.88-.87-5.91-1.11s-3.92-.83-5.88-1.18c-2.08-.37-4.16-.78-6.18-1.4-.95-.29-1.88-.69-2.88-.83-.41-.06-.8-.04-1.22-.04s-1.13.15-.59-.4l-.86.51.22-.12-.87.49c.91-.37,1.75-1.01,2.76-.97.57.02,1.18-1.02,1.73-1-.98-.04-1.92.58-2.79.99-.43.2-1.89.78-2.07,1.27-.16.43.64.23.96.22.42,0,.81.02,1.22.09.99.18,1.93.57,2.89.86,1.88.56,3.81.95,5.74,1.3s3.77.9,5.67,1.16,3.77.52,5.67,1c3.94.99,8.05,1.54,12.06,2.19,2.03.33,4.06.46,6.09.74,1.9.26,3.79.73,5.69.19,1.64-.47,4.93-1.58,3.45-3.83-.66-1-1.81-1.65-2.83-2.22-1.35-.75-2.7-1.55-4.14-2.11-1.85-.73-3.8-1.11-5.71-1.64s-3.93-1.17-5.97-1.5c-4.57-.76-9.29-.8-13.91-.5-2.35.15-4.7.42-7.03.74-2.2.3-4.39.61-6.42,1.58-.6.29-1.13.71-1.73,1h0Z"/><path class="cls-3" d="m95.4,73.74c1.05-.97,2.15-1.6,3.41-2.18,1.83-.84,3.7-1.61,5.57-2.34,3.61-1.4,7.39-2.49,11.17-3.2,1.72-.32,3.47-.54,5.22-.61s3.62.15,5.42.15c1.59,0,3.08,0,4.66.25,1.09.17,2.02.49,3.07.79,1.4.4,5.07,1.23,4.54,3.62-.1.46-.47.62-.81.83-.46.28-.88.62-1.38.84-1.75.75-3.8.58-5.63.95-2.2.45-4.41.5-6.64.75-1.41.16-2.82.15-4.23.23-1.26.07-2.51.22-3.77.27-1.13.04-2.26-.04-3.39.01-1.07.05-2.11.28-3.17.39-.91.09-1.81-.03-2.73.01-.73.04-1.47.11-2.2.16-2.36.16-4.74.26-7.09-.01-.61-.07-1.28-.06-1.89.03-.51.07-.94.35-1.47.38-.08-.49.56-.76.84-1.02.58-.54.88-1.08,1.7-1.18"/><path class="cls-3" d="m96.26,73.24c1.54-1.38,3.61-2.06,5.53-2.83,2.02-.82,4.05-1.57,6.13-2.21,4.17-1.28,8.6-2.32,12.98-2.29,2.25.02,4.52.09,6.77.19,2,.09,3.83.56,5.74,1.1,1.09.31,2.26.62,3.19,1.3s1.62,2.09.45,2.9l.25-.15c-.28.16-.55.33-.82.5l-.34.22c.76-.45.84-.55.23-.32-.93.07-1.9.33-2.84.42-1.95.18-3.86.57-5.81.75-4.24.37-8.54.8-12.8.76-2.01-.02-3.97.46-5.98.43-2.14-.03-4.27.24-6.41.29-1.91.05-3.88-.36-5.77-.17-.45.05-.84.19-1.28.3-.49.13-.76.15-.38-.38s1.18-1.1,1.68-1.47l-1.73,1c.21-.13.43-.2.67-.23.62-.14,1.12-.86,1.73-1-.82.18-1.69.73-2.38,1.21-.47.32-.83.76-1.26,1.13-.18.15-.56.33-.61.59-.1.55.76.05,1.07-.03,1.7-.44,3.6.05,5.33.05,2.01,0,4-.2,6.01-.31.91-.05,1.81.05,2.72-.01,1.06-.07,2.1-.31,3.17-.39,1.99-.14,3.98-.03,5.98-.2,4.1-.34,8.22-.37,12.28-1.09,1.73-.3,3.58-.2,5.25-.8.85-.3,1.64-.82,2.4-1.28.93-.57,2.21-1.07,1.91-2.39-.24-1.06-1.34-1.66-2.26-2.04-2.85-1.19-5.99-1.74-9.07-1.77-2.12-.02-4.24-.22-6.36-.15s-4.11.38-6.13.79c-4.35.88-8.54,2.28-12.64,3.97-2.87,1.18-5.99,2.47-8.34,4.57.48-.43,1.24-.56,1.73-1h0Z"/><path class="cls-3" d="m107.99,60.97c.6-1.37,1.41-2.45,2.38-3.56,1.41-1.61,2.9-3.18,4.41-4.71,2.91-2.95,6.09-5.69,9.46-8.09,1.53-1.09,3.14-2.1,4.8-2.98s3.56-1.54,5.3-2.38c1.54-.74,2.98-1.43,4.61-1.93,1.12-.35,2.16-.49,3.3-.71,1.53-.29,5.43-1.24,5.93,1.17.1.47-.19.78-.44,1.13-.33.47-.59.98-.98,1.4-1.37,1.49-3.43,2.29-5.05,3.47-1.94,1.43-4.06,2.5-6.1,3.77-1.3.8-2.66,1.44-4,2.17-1.19.65-2.34,1.37-3.54,2-1.08.57-2.21,1.01-3.28,1.59-1.01.54-1.92,1.23-2.9,1.82-.84.51-1.77.81-2.63,1.28-.69.38-1.37.78-2.06,1.17-2.22,1.24-4.48,2.44-6.87,3.28-.62.22-1.26.54-1.81.9-.46.3-.76.75-1.26,1.03-.28-.41.22-.95.38-1.31.33-.76.4-1.39,1.15-1.86"/><path class="cls-3" d="m108.85,60.47c1.48-3.21,4.34-5.79,6.79-8.27,2.6-2.63,5.38-5.07,8.35-7.28,1.7-1.27,3.45-2.49,5.38-3.38,1.77-.81,3.57-1.56,5.34-2.39,2.69-1.25,5.49-1.96,8.43-2.37,1.61-.22,5.42.06,3.73,2.62-1.08,1.64-2.3,2.59-4,3.59-1.2.71-2.32,1.52-3.49,2.28-2.7,1.73-5.56,3.16-8.34,4.75-2.55,1.46-5.24,2.61-7.74,4.14-.27.17-.54.34-.81.52-.24.16-.48.32-.71.47-.43.3-.48.31-.14.05-.7.31-1.38.63-2.05,1-1.82,1.01-3.62,2.07-5.5,2.96-1.53.72-3.15,1.2-4.62,2.03-1.1.62-2.01,1.39-3.05,2.08l1.7-.98c-.19-.59.28-1.1.51-1.63.27-.64.44-1.11,1.02-1.54-.53.39-1.2.61-1.73,1-.57.42-.75.91-1.02,1.54-.23.53-.7,1.04-.51,1.63-.02-.05,1.55-.88,1.7-.98.44-.29.85-.72,1.19-.88.86-.42,1.8-.69,2.67-1.08,1.54-.7,3.03-1.51,4.5-2.33,2.65-1.49,5.31-2.8,7.9-4.41.39-.24.1-.07.02-.02.32-.18.66-.32.99-.48.35-.17.71-.33,1.06-.49.69-.33,1.36-.7,2.03-1.07,1.64-.92,3.29-1.82,4.94-2.71,2.73-1.48,5.46-3.05,8.05-4.75,1.45-.95,2.93-1.85,4.38-2.8,1.22-.8,2.59-1.98,3.13-3.38.45-1.16-.74-1.96-1.72-2.14-1.13-.21-2.33.02-3.44.23-1.56.3-3.13.54-4.63,1.06-1.85.65-3.58,1.58-5.38,2.36-2.79,1.2-5.45,2.52-8.03,4.13-3.67,2.29-7.07,5.08-10.2,8.06-1.67,1.59-3.27,3.25-4.82,4.95-1.39,1.52-2.74,3.04-3.61,4.93.22-.49,1.5-.5,1.73-1h0Z"/><path class="cls-3" d="m103.79,66.08c.78-1.01,1.3-2.07,1.8-3.29.72-1.77,1.39-3.58,2.03-5.39,1.23-3.5,2.23-7.15,2.94-10.82.32-1.67.57-3.37.71-5.07.14-1.75.06-3.52.15-5.26.08-1.54.15-2.99.03-4.53-.08-1.06-.27-1.97-.45-2.99-.23-1.37-.68-4.94-2.51-4.45-.35.09-.49.45-.66.78-.23.45-.51.85-.7,1.33-.65,1.69-.61,3.68-.98,5.46-.44,2.14-.59,4.28-.88,6.44-.19,1.37-.25,2.74-.37,4.11-.11,1.22-.29,2.44-.38,3.66-.09,1.1-.07,2.2-.17,3.29-.09,1.04-.31,2.04-.45,3.07-.11.89-.06,1.76-.14,2.65-.06.71-.15,1.43-.23,2.14-.23,2.29-.42,4.6-.33,6.89.02.59-.02,1.24-.11,1.83-.08.49-.31.91-.36,1.43.37.08.6-.53.81-.8.43-.56.86-.85.97-1.64"/><path class="cls-3" d="m104.66,65.58c2.12-2.85,3.17-6.66,4.28-10,1.17-3.55,2.12-7.19,2.74-10.88s.59-7.17.69-10.78c.07-2.7-.21-5.65-1.02-8.25-.22-.7-.57-1.7-1.38-1.91-.72-.19-1.76.59-2.31.97-.77.54-1.23,1.67-1.52,2.55-.53,1.62-.54,3.39-.84,5.06-.66,3.65-.93,7.33-1.3,11.01-.17,1.7-.36,3.38-.43,5.09-.08,1.95-.54,3.86-.61,5.81s-.36,3.95-.51,5.93.17,4.26-.22,6.26c-.06.32-.29.74-.29,1.05,0,.58-.11.34.26.28s.89-.5,1.19-.68c.88-.53,1.77-1.66,1.99-2.67-.1.43-1.63.55-1.73,1-.18.81-.92,1.89-1.57,2.41l1.73-1c-.44.06-.1-.43-.04-.69.12-.47.23-.9.27-1.39.08-.95,0-1.91.01-2.87.03-2.02.23-4.02.44-6.03.4-3.66.59-7.33.95-10.99s.7-7.5,1.2-11.23c.24-1.76.55-3.51.79-5.27.21-1.53.62-3.31,1.7-4.48l-1.7.98c2.21-1.12,2.65,4.03,2.86,5.21.36,2.07.38,4.1.29,6.2s-.02,4.29-.23,6.42c-.41,4.18-1.4,8.32-2.64,12.32-.63,2.03-1.34,4.04-2.09,6.03s-1.44,3.86-2.68,5.52c.36-.49,1.36-.5,1.73-1h0Z"/><path class="cls-3" d="m90.15,79.04c.77-1.14,1.27-2.33,1.75-3.69.7-1.98,1.34-4,1.95-6.02,1.17-3.9,2.12-7.97,2.78-12.05.3-1.85.52-3.74.63-5.62.11-1.93,0-3.88.07-5.82.06-1.71.1-3.31-.03-5-.09-1.16-.3-2.16-.49-3.29-.25-1.5-.76-5.44-2.58-4.83-.35.12-.48.51-.65.89-.23.5-.5.96-.68,1.5-.62,1.89-.56,4.09-.9,6.06-.41,2.37-.52,4.75-.79,7.14-.17,1.52-.21,3.03-.31,4.55-.09,1.35-.25,2.7-.33,4.06-.07,1.22-.04,2.43-.12,3.64-.08,1.15-.28,2.27-.4,3.41-.1.98-.03,1.95-.1,2.93-.05.79-.13,1.58-.19,2.37-.2,2.54-.36,5.1-.23,7.62.03.65,0,1.37-.09,2.03-.07.55-.29,1.01-.34,1.59.37.08.59-.61.8-.91.42-.63.85-.96.94-1.84"/><path class="cls-3" d="m91.02,78.54c2.07-3.18,2.99-7.23,4.03-10.84,1.12-3.89,2-7.85,2.59-11.85s.53-8.05.6-12.11c.06-3.04-.27-6.15-1.03-9.1-.21-.79-.54-2.14-1.45-2.43-.73-.23-1.57.51-2.15.86-1.06.63-1.54,2.21-1.81,3.36-.42,1.79-.43,3.66-.71,5.47-.62,3.94-.79,7.94-1.1,11.91-.15,1.97-.31,3.91-.36,5.88-.05,1.85-.42,3.66-.5,5.51-.1,2.32-.28,4.63-.41,6.95-.12,2.15.06,4.31-.07,6.46-.03.48-.1.94-.2,1.4-.04.19-.13.39-.15.58-.03.35-.16.35.14.38.27.03.99-.56,1.2-.68.99-.58,1.85-1.91,2.06-3.03-.08.41-1.65.56-1.73,1-.16.89-.87,2.09-1.53,2.72l1.73-1c-.46.08,0-.86.06-1.15.08-.4.13-.8.15-1.21.06-1.04-.04-2.08-.04-3.12,0-2.07.14-4.14.31-6.2.34-4.11.53-8.22.81-12.33s.6-8.31,1.02-12.45c.21-1.98.52-3.94.72-5.91.1-1,.22-2.04.56-3,.23-.65.61-1.95,1.21-2.31l-1.62.93c2.34-.57,2.64,5.07,2.86,6.46.33,2.05.32,4.12.26,6.19-.07,2.41.04,4.82-.15,7.22-.36,4.57-1.28,9.12-2.45,13.54-.61,2.32-1.32,4.62-2.06,6.91-.68,2.07-1.34,4.15-2.53,5.99.32-.49,1.4-.5,1.73-1h0Z"/><path class="cls-5" d="m106.81,60.68c-3.26,2.99-6.3,6.2-9.61,9.14s-6.39,5.99-9.34,9.24-5.61,6.38-7.92,9.88c-1.12,1.7-2.07,3.56-2.98,5.38-.46.92-.82,1.88-1.13,2.86-.23.74-.37,1.73-.79,2.36l.9-.72-.17.06,1.87,1.79.03-.1-1.42,1.15h.12c1.93-.05,1.86-3.05-.07-3h-.12c-.69.02-1.24.51-1.42,1.15l-.03.1c-.3,1.06.83,2.15,1.87,1.79,1.63-.55,1.81-2.9,2.28-4.31.64-1.92,1.77-3.79,2.76-5.55,2.13-3.77,5.15-7.17,8.03-10.38s6.14-6.49,9.48-9.44,6.47-6.25,9.78-9.3c1.43-1.31-.73-3.4-2.15-2.1h0Z"/><path class="cls-5" d="m49.47,28.55c3.49,3.54,6.32,7.67,9,11.84s5.17,8.64,7.3,13.19c4.46,9.55,7.16,19.83,8.27,30.31.32,2.98.36,5.97.41,8.96.03,1.46.06,2.91.03,4.37-.03,1.31-.28,2.63.3,3.85.83,1.75,3.4.19,2.58-1.54.1.21.06-.73.07-.97.02-.63.05-1.26.06-1.89,0-1.46-.01-2.91-.05-4.37-.06-2.75-.1-5.5-.38-8.23-.54-5.27-1.48-10.58-2.79-15.71-2.57-10.04-7.01-19.57-12.49-28.34-3-4.79-6.23-9.57-10.21-13.61-1.36-1.38-3.45.77-2.1,2.15h0Z"/><ellipse class="cls-7" cx="59.33" cy="70.64" rx="6.85" ry="7.92" transform="translate(-29.9 94.04) rotate(-64.66)"/><ellipse class="cls-8" cx="70.33" cy="62.6" rx="6.85" ry="7.92" transform="translate(-16.34 99.38) rotate(-64.66)"/><ellipse class="cls-8" cx="70.33" cy="62.6" rx="6.85" ry="7.92" transform="translate(-16.34 99.38) rotate(-64.66)"/><ellipse class="cls-8" cx="58.38" cy="29.46" rx="6.85" ry="7.92" transform="translate(6.77 69.61) rotate(-64.66)"/><ellipse class="cls-8" cx="70.08" cy="47.13" rx="8.27" ry="8.47" transform="translate(-4.09 87.51) rotate(-62.49)"/><ellipse class="cls-8" cx="70.08" cy="47.13" rx="8.27" ry="8.47" transform="translate(-4.09 87.51) rotate(-62.49)"/><ellipse class="cls-7" cx="80.7" cy="51.04" rx="7.93" ry="6.83" transform="translate(8.72 113.79) rotate(-73.39)"/><ellipse class="cls-7" cx="71.86" cy="24.6" rx="6.87" ry="5.39" transform="translate(27.63 86.35) rotate(-73.28)"/><ellipse class="cls-7" cx="51.94" cy="44.04" rx="5.4" ry="6.04" transform="translate(-14.14 60.47) rotate(-54.26)"/><ellipse class="cls-7" cx="80.86" cy="71.76" rx="6.05" ry="5.39" transform="translate(-19.07 113.02) rotate(-64.02)"/><ellipse class="cls-7" cx="42.36" cy="28.95" rx="5.4" ry="6.04" transform="translate(-5.61 47.17) rotate(-55.15)"/><ellipse class="cls-8" cx="54.26" cy="35.3" rx="4.06" ry="4.96" transform="translate(-3.21 5.51) rotate(-5.64)"/><ellipse class="cls-8" cx="46.39" cy="50.79" rx="4.88" ry="6.85" transform="translate(-22.38 52.37) rotate(-48.9)"/><ellipse class="cls-8" cx="54.26" cy="35.3" rx="4.06" ry="4.96" transform="translate(-3.21 5.51) rotate(-5.64)"/><ellipse class="cls-6" cx="67.4" cy="33.41" rx="5.55" ry="7.53" transform="translate(-2.98 6.84) rotate(-5.68)"/><ellipse class="cls-6" cx="80.97" cy="63.5" rx="5.55" ry="7.53" transform="translate(-5.89 8.33) rotate(-5.68)"/><ellipse class="cls-6" cx="51.85" cy="59.66" rx="5.55" ry="7.52" transform="translate(-21.83 31.04) rotate(-27.78)"/><ellipse class="cls-6" cx="71.43" cy="76.94" rx="5.55" ry="7.52" transform="translate(-27.63 42.15) rotate(-27.78)"/><ellipse class="cls-6" cx="70.02" cy="74.48" rx="5.68" ry="7.52" transform="translate(-26.63 41.18) rotate(-27.76)"/><ellipse class="cls-6" cx="48.16" cy="20.38" rx="5.68" ry="7.52" transform="translate(-3.95 24.77) rotate(-27.76)"/><ellipse class="cls-6" cx="44.74" cy="39.67" rx="5.69" ry="7.51" transform="translate(-13.18 54.51) rotate(-55.93)"/><ellipse class="cls-6" cx="58.88" cy="53.01" rx="5.69" ry="7.51" transform="translate(-18.02 72.09) rotate(-55.93)"/><ellipse class="cls-6" cx="78.83" cy="39.67" rx="5.2" ry="6.12" transform="translate(-7.62 21.94) rotate(-15.12)"/><ellipse class="cls-6" cx="78.83" cy="39.67" rx="5.2" ry="6.12" transform="translate(-7.62 21.94) rotate(-15.12)"/><ellipse class="cls-9" cx="59.89" cy="22.47" rx="5.54" ry="6.92" transform="translate(10 62.5) rotate(-59.31)"/><ellipse class="cls-9" cx="60.13" cy="63.33" rx="5.54" ry="6.92" transform="translate(-25.02 82.71) rotate(-59.31)"/><ellipse class="cls-9" cx="71.16" cy="54.82" rx="7.56" ry="6.1" transform="translate(-5.38 101.83) rotate(-69.17)"/><ellipse class="cls-9" cx="61.25" cy="41.81" rx="6.93" ry="5.53" transform="translate(.38 84.17) rotate(-69.15)"/><ellipse class="cls-9" cx="48.03" cy="30.85" rx="5.53" ry="6.93" transform="translate(-9.04 29.61) rotate(-31.46)"/><ellipse class="cls-9" cx="76.81" cy="68.15" rx="5.53" ry="6.93" transform="translate(-16.24 24.72) rotate(-16.56)"/><ellipse class="cls-9" cx="73.34" cy="35.35" rx="5.53" ry="6.93" transform="translate(-7.03 22.37) rotate(-16.56)"/><ellipse class="cls-9" cx="73.34" cy="35.35" rx="5.53" ry="6.93" transform="translate(-7.03 22.37) rotate(-16.56)"/><path class="cls-2" d="m68.57,119.36c3.86.96,6.28,4.57,5.42,8.04-.86,3.45-4.68,5.52-8.55,4.56l-9.77-2.44.87-3.5,3.49.87,1.39-5.6-3.49-.87.87-3.5,9.77,2.44Zm-3.66,2.8l-1.39,5.6,2.79.7c1.93.48,3.81-.39,4.19-1.93s-.86-3.19-2.8-3.67l-2.79-.7Z"/><path class="cls-2" d="m70.45,140.15l-9.78-2.44c-1.93-.48-3.88.69-4.36,2.63-.48,1.94.69,3.89,2.62,4.37l9.78,2.44-.87,3.5-9.78-2.44c-3.86-.96-6.2-4.87-5.24-8.75.96-3.87,4.86-6.22,8.72-5.26l9.78,2.44-.87,3.5Z"/><path class="cls-2" d="m48.23,161.55c-.26-1.25-.25-2.59.08-3.92,1.18-4.74,5.94-7.61,10.67-6.43,4.72,1.18,7.61,5.97,6.44,10.7-.6,2.4-2.14,4.32-4.11,5.49l-2.07-3c1.3-.67,2.32-1.87,2.7-3.39.7-2.8-1.02-5.63-3.82-6.33s-5.61,1-6.31,3.8c-.36,1.45-.08,2.93.66,4.11l1.56.39.78-3.15,3.49.87-1.65,6.65-8.94-2.23.7-2.8-.18-.76Z"/><path class="cls-2" d="m61.64,175.61l-9.78-2.44c-1.93-.48-3.88.69-4.36,2.63-.48,1.94.69,3.89,2.62,4.37l9.78,2.44-.87,3.5-9.78-2.44c-3.86-.96-6.2-4.87-5.24-8.74.96-3.87,4.86-6.22,8.72-5.26l9.78,2.44-.87,3.5Z"/><path class="cls-2" d="m45.3,188.24c-.5.34-1.16,1.17-1.4,2.15-.34,1.38.04,2.54,1.01,2.78.63.16,1.33-.09,1.62-.66l1.56-2.71c1.03-1.97,3.4-2.65,5.45-2.13,3.09.77,4.48,3.87,3.76,6.74-.46,1.87-1.66,3.3-3,4.01l-1.59-3.27c.43-.22.91-.86,1.1-1.63.28-1.14-.19-2.11-1.17-2.35-.63-.16-1.33.09-1.6.67l-1.57,2.73c-1.03,1.97-3.42,2.64-5.47,2.13-3.05-.76-4.4-4-3.63-7.08.54-2.19,1.92-3.93,3.44-4.69l1.47,3.32Z"/><path class="cls-2" d="m55.23,201.4l-3.13,12.6-3.49-.87,1.13-4.55-12.92-3.23.87-3.5,12.92,3.23,1.13-4.55,3.49.87Z"/></svg>