<?xml version="1.0" encoding="UTF-8"?><svg id="Layer_2" xmlns="http://www.w3.org/2000/svg" width="185" height="370" xmlns:xlink="http://www.w3.org/1999/xlink" viewBox="0 0 185 370"><defs><style>.cls-1{fill:#e61c1c;stroke:#e61c1c;}.cls-1,.cls-2,.cls-3,.cls-4,.cls-5{stroke-miterlimit:10;}.cls-2{fill:#db3d3d;stroke:#db3d3d;}.cls-6{fill:url(#linear-gradient);}.cls-6,.cls-7,.cls-8,.cls-9,.cls-10,.cls-11{stroke-width:0px;}.cls-3{fill:red;stroke:red;}.cls-8{fill:#366139;}.cls-9{fill:#588c5c;}.cls-10{fill:#5bab60;}.cls-11{fill:#ffefe1;}.cls-4{fill:#c1272d;stroke:#c1272d;}.cls-5{fill:#c41b1b;stroke:#c41b1b;}</style><linearGradient id="linear-gradient" x1="35.66" y1="899.37" x2="61.04" y2="991.25" gradientTransform="translate(518.22 -785.07) rotate(30.19)" gradientUnits="userSpaceOnUse"><stop offset="0" stop-color="#fc0"/><stop offset="1" stop-color="#ff6"/></linearGradient></defs><path class="cls-6" d="m.52.39l-.52,369.61L185,50.32S90.22-5.13.52.39Z"/><path class="cls-11" d="m.71,93.73l-.71,276.27,138.37-239.11S67.67,89.53.71,93.73Z"/><path class="cls-10" d="m45.38,19.43c-1.35,1.53-2.88,2.98-3.88,4.78-.65,1.17-1.22,2.39-1.62,3.67-.43,1.37-.7,2.97-.7,4.4s.47,2.69.87,3.99c.2.65.37,1.3.61,1.94s.52,1.2.68,1.83c.12.47.19.92.32,1.39.1.34.09.63.08.98-.02.46-.03.93-.05,1.39,0-1.21.07-1.75.26-2.33.29-.86.82-1.09,1.28-1.87.35-.6.78-1.13,1.14-1.71.4-.66.73-1.39.94-2.14.43-1.54.65-3.25.55-4.85-.07-1.17-.22-2.35-.38-3.5-.09-.67-.19-1.33-.24-2-.03-.49-.14-.95-.19-1.44-.03-.32,0-.63.02-.95.02-.38-.04-.75,0-1.13.05-.41.14-.83.17-1.25.02-.21-.05-1.05.13-1.21"/><path class="cls-10" d="m44.51,19.93c-1.47,1.65-3.04,3.2-4.09,5.17s-1.79,4.06-2.02,6.28.46,4.39,1.14,6.57c.33,1.04.78,2.01,1.05,3.07.28,1.15.28,2.12.25,3.3l1.73-1c0-.84,0-1.71.33-2.49.36-.85,1.14-1.63,1.66-2.4,1.39-2.05,2.09-4.19,2.19-6.68.09-2.34-.39-4.7-.65-7.01-.12-1.11-.24-2.21-.15-3.33.04-.51.14-1,.17-1.51.02-.32-.03-.65.13-.95-.26.49-1.46.49-1.73,1-.3.56-.19,1.62-.26,2.25-.13,1.12-.04,2.24.1,3.36.29,2.37.77,4.81.67,7.2s-.72,4.55-2.07,6.51c-.53.77-1.29,1.57-1.71,2.4s-.4,1.78-.4,2.66c0-.33,1.72-.64,1.73-1,.03-1.18.04-2.15-.25-3.3-.26-1.06-.72-2.03-1.05-3.07-.68-2.17-1.39-4.26-1.14-6.57s.98-4.32,2.02-6.28,2.62-3.52,4.09-5.17c-.42.47-1.31.52-1.73,1h0Z"/><path class="cls-10" d="m22.58,48.29c1.91-1.08,3.84-2.41,5.83-2.98,1.3-.37,2.6-.63,3.88-.66,1.37-.04,2.87.18,4.1.68s2.11,1.48,3.06,2.41c.47.46.96.88,1.4,1.39.42.48.8,1.03,1.28,1.44.35.3.71.54,1.05.86.25.23.5.33.81.43.41.13.82.28,1.22.42-1.04-.42-1.54-.52-2.12-.48-.87.05-1.3.6-2.18.88-.67.21-1.32.55-1.98.77-.75.25-1.52.39-2.26.38-1.52-.02-3.09-.34-4.43-1.01-.97-.49-1.93-1.06-2.85-1.66-.54-.34-1.06-.69-1.62-.97-.41-.21-.76-.5-1.16-.72-.26-.15-.55-.21-.82-.3-.34-.11-.63-.3-.98-.38-.38-.08-.78-.12-1.15-.23-.19-.05-.88-.42-1.1-.26"/><path class="cls-10" d="m22.36,48.43c1.89-1.08,3.7-2.25,5.84-2.79s4.47-.72,6.64-.05c1.9.58,3.23,2.11,4.61,3.47.77.76,1.37,1.65,2.23,2.33s1.62,1.02,2.69,1.39c.41.15,1.35-1.15,1.73-1-.73-.29-1.5-.58-2.3-.46-1.02.15-2.07.85-3,1.24-2.19.9-4.38.98-6.63.2-2.07-.72-3.95-2.11-5.81-3.24-.85-.51-1.69-.97-2.66-1.24-.42-.12-.86-.14-1.28-.28-.32-.1-.62-.31-.97-.21-.63.16-1.11.84-1.73,1,.31-.08.58.08.87.18.45.15.92.19,1.37.32.89.25,1.73.65,2.52,1.14,1.93,1.21,3.96,2.68,6.13,3.39,2.33.76,4.41.55,6.65-.34.81-.32,1.65-.83,2.47-1.08.9-.27,1.79.06,2.63.39l1.73-1c-1.12-.4-1.9-.74-2.82-1.5s-1.64-1.79-2.52-2.63c-.79-.75-1.53-1.58-2.42-2.22-.96-.68-2.1-1.01-3.25-1.17-4.66-.67-8.42,1.69-12.27,3.89-.35.2-.75.37-1.06.62.04-.03.48-.26.61-.34h0Z"/><path class="cls-10" d="m59.41,30.38c-1.89.67-3.91,1.18-5.62,2.25-1.11.7-2.18,1.47-3.12,2.38-1.01.97-1.99,2.22-2.65,3.45s-.83,2.54-1.08,3.85c-.12.65-.28,1.3-.36,1.96s-.1,1.28-.25,1.9c-.11.46-.26.89-.36,1.35-.07.34-.21.59-.39.88-.23.39-.46.78-.69,1.18.55-1.04.87-1.47,1.31-1.87.65-.6,1.22-.54,1.99-1,.58-.35,1.21-.59,1.8-.93.66-.37,1.28-.85,1.81-1.39,1.09-1.12,2.08-2.48,2.73-3.91.47-1.04.89-2.12,1.29-3.19.23-.62.44-1.23.72-1.84.2-.44.32-.89.5-1.33.12-.29.3-.54.45-.81.19-.32.31-.66.53-.97.24-.33.5-.65.72-.99.11-.17.44-.92.67-.98"/><path class="cls-10" d="m60.27,29.88c-2.15.75-4.22,1.43-6.2,2.57-1.86,1.07-3.64,2.29-5.07,3.91-.81.92-1.57,1.94-2.06,3.07s-.68,2.47-.93,3.72c-.23,1.17-.28,2.38-.55,3.53-.3,1.3-.77,2.26-1.43,3.41l1.73-1c.25-.46.5-.93.82-1.34.11-.14.26-.27.36-.41.39-.54-1.1.45-.53.28.95-.27,1.89-.88,2.75-1.34,1.8-.98,3.35-2.02,4.63-3.66,1.64-2.11,2.37-4.61,3.36-7.05.45-1.12.89-2.17,1.46-3.23.28-.53.68-.96,1-1.47.15-.24.29-.75.55-.9.33-.2-.29.15-.32.17-.4.22-.79.45-1.18.69-.59.35-.93,1.24-1.33,1.79-.71.98-1.15,2.07-1.59,3.18-.99,2.45-1.73,5.08-3.27,7.26-.39.56-.83,1.1-1.3,1.6-.19.2-.38.4-.58.58-.12.11-.24.22-.37.32-.36.25-.35.27.03.05.39-.2.39-.19-.01,0-.15.07-.3.15-.45.22-.18.09-.36.18-.54.28-.49.26-.98.43-1.48.66-.73.33-1.5.76-2.14,1.23-.73.53-1.16,1.32-1.58,2.09.27-.49,1.44-.5,1.73-1,.46-.8.92-1.51,1.15-2.4.27-1.03.4-2.02.55-3.07.28-1.96.59-4.19,1.58-5.93s2.4-3.24,3.99-4.44c.26-.19.52-.38.79-.56.13-.09.26-.18.39-.26.3-.2.18-.13-.38.21.01-.16,1.5-.64,1.67-.71,1-.37,2.03-.68,3.04-1.03.62-.22,1.12-.79,1.73-1h0Z"/><path class="cls-10" d="m65.21,40.72c-1.97.73-4.12,1.31-5.82,2.44-1.1.73-2.14,1.55-3.01,2.49-.94,1.01-1.79,2.28-2.28,3.54-.48,1.22-.44,2.56-.47,3.89-.01.66-.07,1.31-.03,1.97s.14,1.29.08,1.91c-.04.46-.12.89-.14,1.36-.02.34-.12.59-.26.89-.19.4-.36.8-.54,1.2.42-1.06.69-1.5,1.1-1.92.61-.62,1.26-.58,2.02-1.07.58-.37,1.23-.64,1.82-.99.66-.4,1.26-.89,1.75-1.45,1-1.16,1.84-2.55,2.29-4,.33-1.05.59-2.15.82-3.24.13-.63.26-1.25.45-1.86.14-.44.18-.9.3-1.34.08-.29.23-.55.35-.82.15-.33.22-.67.4-.99.2-.34.44-.67.61-1.02.09-.17.32-.94.56-1"/><path class="cls-10" d="m66.08,40.22c-4.02,1.47-8.15,3.03-10.99,6.42-.76.91-1.44,1.94-1.86,3.06-.47,1.24-.44,2.58-.47,3.89-.03,1.19.09,2.38.06,3.56-.03,1.41-.4,2.5-.96,3.77l1.73-1c.2-.5.41-1.02.72-1.47.03-.04.37-.41.37-.45-.83.4-1.05.52-.65.37.13-.05.26-.1.39-.15.34-.15.66-.34.99-.52.25-.14,1.63-.94.62-.36s.13-.04.34-.15c.16-.08.31-.17.47-.26.42-.24.84-.48,1.26-.72.91-.53,1.71-1.14,2.38-1.96,1.78-2.16,2.4-4.69,2.98-7.36.3-1.36.62-2.69,1.15-3.98.25-.6.61-1.09.89-1.67.15-.31.22-.78.53-.98-.4.26-1.16.63-1.67.96-.38.24-.46.76-.66,1.15-.42.81-.87,1.55-1.2,2.41-.35.9-.52,1.98-.72,2.92-.23,1.04-.44,2.07-.73,3.09-.5,1.79-1.35,3.45-2.61,4.82-.17.19-1.07.77-1.09.97,0-.09.95-.5.24-.13-.2.11-.41.21-.61.32-.24.13-.48.27-.72.41-.33.19-1.47.83-.08.05l.26-.14c-.96.44-1.85.85-2.76,1.39-.97.58-1.4,1.4-1.81,2.43.06-.15.72-.4.87-.49.18-.11.77-.31.86-.51.42-.95.75-1.74.87-2.77s0-1.92-.02-2.92c-.03-2.07-.1-4.35.84-6.25.88-1.77,2.21-3.25,3.77-4.44.17-.13.35-.26.53-.39,1.29-.93.13-.09.11-.13,0,0,1.5-.65,1.65-.71,1-.38,2.01-.71,3.01-1.07.62-.23,1.12-.78,1.73-1h0Z"/><path class="cls-10" d="m30.72,64.87c1.23-1.81,2.38-3.86,3.86-5.2.96-.87,1.97-1.64,3.04-2.18,1.14-.58,2.48-.96,3.7-.95,1.18,0,2.3.61,3.43,1.14.56.26,1.12.48,1.67.8.53.3,1.04.69,1.59.9.4.15.79.25,1.19.42.3.13.54.12.84.1.39-.03.79-.05,1.18-.07-1.03,0-1.48.1-1.96.37-.72.39-.88,1.1-1.53,1.72-.49.47-.92,1.05-1.4,1.53-.54.54-1.14.98-1.77,1.26-1.29.58-2.73.89-4.09.77-.99-.09-2-.27-2.99-.49-.57-.12-1.14-.25-1.71-.31-.42-.04-.82-.18-1.23-.25-.27-.04-.54,0-.8.03-.32.02-.64-.05-.96.02-.35.07-.7.19-1.05.23-.18.02-.89-.06-1.02.18"/><path class="cls-10" d="m31.59,64.37c1.06-1.57,2-3.25,3.3-4.64.65-.7,1.4-1.33,2.18-1.88l.53-.36-.81.47c.16-.19.69-.32.94-.41.5-.19,1.02-.33,1.54-.42,2.07-.36,3.81.62,5.63,1.48.87.42,1.64,1.01,2.55,1.34.42.15.87.37,1.31.41.52.06,1.08-.05,1.6-.07.59-.03,1.16-.99,1.73-1-1.5.02-3.33.73-4.32,1.92-.82.99-1.58,2.05-2.53,2.93l-.24.21c-.37.28-.33.27.12-.04-.06.14-.71.26-.83.29-.67.2-1.37.33-2.07.35-2.63.09-5.14-1.08-7.75-1.03-1.64.03-3.31.3-4.6,1.42.49-.43,1.24-.57,1.73-1l.11-.09-1.73,1c.31-.09.6-.05.91-.08.58-.06,1.1-.23,1.69-.25,1.05-.02,2,.13,3.04.31,2.49.43,4.8,1.11,7.28.25,1.37-.47,2.87-1.29,3.97-2.25.8-.7,1.62-1.6,2.25-2.46.13-.18.3-.37.41-.57l.18-.21c-.97.45-1.25.6-.82.45.51-.06.97-.16,1.5-.17l1.73-1c-.56.03-1.18.16-1.74.06s-1.15-.36-1.64-.58c-1.17-.52-2.27-1.23-3.44-1.78-1.1-.52-2.18-1.02-3.43-.97-1.12.05-2.23.4-3.24.88-1.54.74-3.06,1.67-4.37,2.78-1.86,1.57-3.05,3.67-4.39,5.67.33-.49,1.39-.5,1.73-1h0Z"/><path class="cls-10" d="m69.86,51.06c-1.51.82-3.18,1.54-4.42,2.64-.81.72-1.55,1.49-2.14,2.36-.64.92-1.18,2.05-1.43,3.12s-.05,2.11.09,3.18c.07.53.1,1.06.21,1.59s.27,1.02.3,1.53c.02.38,0,.73.05,1.11.03.28-.03.49-.1.75-.1.34-.2.69-.29,1.03.21-.9.38-1.29.66-1.67.42-.57.95-.62,1.51-1.09.43-.36.92-.65,1.36-1.01.49-.4.92-.86,1.24-1.37.67-1.05,1.18-2.27,1.37-3.48.14-.89.22-1.8.27-2.7.03-.52.06-1.04.14-1.55.06-.37.04-.74.08-1.12.03-.24.12-.47.19-.7.08-.28.1-.57.21-.84.12-.3.27-.59.38-.89.05-.15.14-.79.33-.87"/><path class="cls-10" d="m70.69,50.58c-3.16,1.69-6.51,3.19-8.5,6.34-.51.81-.93,1.7-1.16,2.63-.27,1.1-.08,2.21.06,3.32.13,1.04.43,2.08.51,3.12s-.07,1.87-.35,2.89l1.73-1c.09-.38.18-.76.34-1.11.12-.27.41-.52.51-.77-.78.41-1.01.52-.69.35.08-.05.16-.09.24-.14.18-.1.37-.21.55-.32.28-.16.56-.32.83-.49,1.59-1.03,2.88-2.18,3.68-3.93.85-1.86.83-3.85,1.02-5.84.09-.98.2-1.9.43-2.86.12-.48.36-.9.5-1.36.09-.28.09-.6.32-.81-.47.44-1.25.56-1.73,1-.21.2-.23.49-.3.76-.14.49-.4.92-.52,1.42-.24.95-.34,1.88-.43,2.86-.19,2.05-.19,4.07-1.08,5.98-.39.84-.89,1.62-1.57,2.25-.38.35-.8.63-1.22.93-.23.17-.96.62.01.1s.28-.14.1-.04c-.56.31-1.18.6-1.68,1-.65.51-.86,1.29-1.04,2.06.03-.12.75-.42.87-.49.15-.09.81-.34.86-.51.21-.76.41-1.4.37-2.2s-.21-1.57-.35-2.38c-.3-1.7-.64-3.61-.08-5.28.51-1.52,1.41-2.85,2.53-3.99.2-.21,1.68-1.77,1.94-1.63-.12-.06-.8.43-.04.03.17-.09.34-.18.52-.27.39-.2.77-.4,1.16-.6.53-.28,1.25-.75,1.67-.97h0Z"/><path class="cls-10" d="m40.74,69.5c1.57,1.01,3.15,2.24,4.78,2.81,1.06.37,2.12.64,3.16.72,1.11.08,2.33-.06,3.33-.45.96-.38,1.7-1.22,2.46-2,.38-.39.77-.74,1.13-1.16.34-.41.64-.88,1.02-1.21.28-.25.57-.45.85-.71.2-.2.41-.27.66-.35.33-.1.66-.22.99-.33-.84.33-1.25.4-1.72.35-.71-.07-1.06-.57-1.78-.85-.54-.21-1.08-.52-1.62-.75-.61-.25-1.24-.39-1.84-.41-1.23-.04-2.51.19-3.59.72-.79.39-1.55.86-2.3,1.35-.43.28-.85.56-1.31.79-.33.17-.61.41-.93.59-.21.12-.44.17-.67.24-.27.09-.51.24-.79.3-.31.06-.63.08-.93.16-.15.04-.71.33-.89.19"/><path class="cls-10" d="m39.87,70c1.74,1.14,3.39,2.4,5.41,3.02,1.87.57,4,.82,5.85.06,1.14-.47,2.35-1.2,3.25-2.05,1.44-1.35,2.58-2.98,4.14-4.2l-1.7.98c.44-.22.94-.34,1.41-.5l1.73-1c-.67.25-1.37.5-2.08.26-.75-.25-1.51-.78-2.23-1.13-1.83-.88-3.75-1.05-5.68-.31-1.35.52-2.63,1.36-3.85,2.12-.24.15-.47.3-.71.45-.22.14-1.06.65-.08.08s.06-.04-.17.09c-.68.39-1.33.8-1.99,1.21l1.7-.98c-.61.28-1.27.49-1.92.61-.39.07-.97.4-1.35.28-.13-.04-.74.42-.87.49s-.73.55-.86.51c.3.1.56-.09.83-.17.51-.15,1.01-.19,1.51-.37.69-.26,1.27-.53,1.91-.9.32-.18.64-.37.95-.57.83-.54-1.46.81-.3.15.78-.44,1.55-.9,2.31-1.39.07-.04.81-.51.45-.3-.44.26.55-.26.7-.31.53-.2,1.08-.33,1.64-.41,1.1-.15,2.19-.08,3.23.34.95.38,1.82.9,2.72,1.36.81.42,1.6.19,2.41-.12.61-.23,1.12-.79,1.73-1-1.35.46-2.59,1.02-3.69,1.95-.76.64-1.31,1.42-2,2.13-.17.18-2.17,2.1-2.17,2.11-.07-.11,1.31-.53.48-.33-.25.06-.48.14-.73.2-.51.11-1.03.16-1.55.17-1.01.02-2.01-.16-2.98-.44-2.15-.61-3.88-1.91-5.73-3.12-.26-.17-1.49,1.16-1.73,1h0Z"/><path class="cls-10" d="m65.14,73.76c-1.5-.64-3.07-1.46-4.52-1.7-.94-.16-1.85-.23-2.71-.13-.91.11-1.85.42-2.55.92s-1.06,1.34-1.47,2.14c-.21.4-.44.77-.61,1.2s-.3.87-.52,1.22c-.16.26-.35.48-.5.76-.11.2-.26.3-.44.41-.24.14-.48.29-.71.44.59-.43.9-.55,1.29-.58.58-.05.99.33,1.64.46.49.09.99.29,1.48.39.55.12,1.09.15,1.57.07,1-.16,1.96-.56,2.69-1.2.53-.47,1.03-1,1.51-1.54.28-.31.54-.63.85-.9.22-.2.39-.45.6-.66.14-.14.31-.22.47-.31.2-.12.35-.29.56-.39.23-.1.48-.17.7-.29.11-.06.49-.4.66-.31"/><path class="cls-10" d="m66,73.26c-1.73-.74-3.38-1.6-5.28-1.81-1.65-.18-3.12.09-4.56.91-.61.35-1.3.66-1.83,1.12-.61.53-.94,1.31-1.31,2.01s-.65,1.42-.98,2.14c-.17.35-.4.74-.65,1.05-.29.36-.73.58-1.12.83l1.7-.98c-1.34.94-.9.38-.25.42.31.02.58.16.87.27.71.28,1.54.5,2.3.63,1.39.24,2.65-.28,3.83-.96.53-.3,1.08-.59,1.58-.95.64-.46,1.18-1.06,1.7-1.64.14-.15,1.66-1.67,1.61-1.75-.01-.02-1.02.57-.39.2.17-.1.35-.2.52-.3.25-.15.47-.3.7-.48l-.42.26.2-.11-1.31.74c.56-.22,1.05-.48,1.58-.78.25-.14.5-.29.75-.44.06-.04.12-.07.18-.11,0,0-1.46.68-1.13.73.18.03.71-.4.87-.49s.67-.54.86-.51c-.35-.05-.84.36-1.11.52-.43.25-.84.5-1.25.77l1.7-.98c-1.05.48-2.05,1-2.99,1.67l1.09-.64c-.51.29-1.12.55-1.57.95-.54.49-1.04,1.1-1.53,1.66-.24.27-.48.54-.74.8s-.66.51-.86.8c.6-.31.75-.4.45-.28-.07.03-.14.06-.22.08-.18.06-.37.12-.56.16-.36.09-.73.14-1.1.14-.79-.01-1.52-.3-2.28-.48-.57-.14-1.16-.52-1.76-.49-.49.03-.91.32-1.33.55-.57.33-1.15.65-1.69,1.02.53-.37,1.15-.63,1.7-.98s.95-.55,1.3-1.07c.41-.62.65-1.22.95-1.89.27-.61.61-1.21.93-1.8.16-.29.32-.58.52-.84.1-.13.26-.26.35-.39.19-.17.08-.12-.32.14-.47.24-.54.28-.19.13,1.42-.47,2.8-.53,4.28-.27,1.59.28,3.05,1.07,4.52,1.7.11.05.76-.43.87-.49s.75-.56.86-.51h0Z"/><path class="cls-10" d="m66.51,72.89c.78-1.44,1.49-3.05,2.49-4.16.65-.72,1.34-1.36,2.1-1.85.81-.51,1.78-.9,2.68-.99s1.76.28,2.63.59c.43.15.87.27,1.3.47.41.19.83.43,1.25.55.31.08.61.12.92.22.23.07.41.05.63,0,.29-.05.58-.1.87-.14-.76.08-1.09.19-1.43.42-.5.34-.57.88-1.01,1.39-.33.38-.6.85-.93,1.24-.36.44-.78.81-1.22,1.07-.91.53-1.96.87-2.98.87-.74,0-1.51-.05-2.26-.14-.43-.05-.86-.1-1.29-.1-.31,0-.62-.07-.93-.09-.2-.01-.4.05-.59.08-.24.04-.48.01-.71.08-.25.08-.51.19-.76.25-.13.03-.67.02-.74.21"/><path class="cls-10" d="m67.38,72.39c.66-1.22,1.23-2.51,2.05-3.62.42-.56.92-1.08,1.44-1.54.16-.14,1.01-.64,1.06-.81-.04.14-1.32.62-.63.42.19-.06.38-.15.57-.21,1.54-.48,2.86.09,4.32.59.73.25,1.38.67,2.13.85.29.07.61.19.9.21.41.03.88-.11,1.28-.18.27-.04.64-.36.87-.49s.6-.48.86-.51c-.68.08-1.17.26-1.75.59s-1.37.65-1.78,1.21c-.54.74-.98,1.55-1.57,2.26-.15.19-.32.36-.49.53-.08.08-.17.15-.27.23-.29.22-.1.12.56-.32-.5.09-.98.37-1.51.45-1.94.31-3.92-.44-5.85-.18-.52.07-.96.23-1.47.33-.24.05-.47.05-.7.15-.55.23-1.36.62-1.77,1.06.43-.46,1.29-.53,1.73-1l.07-.08-1.73,1c.22-.09.44-.08.67-.13.43-.09.8-.26,1.24-.31.82-.1,1.59-.05,2.41.02,1.88.16,3.65.42,5.42-.42,1.12-.54,2.42-1.19,3.26-2.13.56-.62,1.1-1.37,1.51-2.09.09-.15.18-.29.27-.44l.14-.15c-1.26.62-1.64.83-1.14.64.34-.09.66-.16,1.01-.2l1.73-1c-.45.07-.94.22-1.39.15-.42-.06-.88-.18-1.28-.33-.86-.31-1.69-.72-2.56-1.03-.94-.33-1.83-.62-2.83-.43-.71.14-1.37.43-2,.77-1.39.76-2.69,1.54-3.78,2.7-1.22,1.28-1.93,2.9-2.75,4.44.09-.17.69-.39.87-.49.2-.12.75-.3.86-.51h0Z"/><path class="cls-9" d="m40.16,43.45c1.17,3.89,2.6,7.75,4.95,11.1s5.32,6.14,8.22,8.86c3.08,2.89,6.56,5.32,9.66,8.19s5.59,5.91,7.52,9.49c1.14,2.11,1.9,4.39,2.58,6.68.63,2.11,1.67,4.58,1.64,6.8-.03,1.93,2.97,1.86,3-.07s-.71-3.93-1.23-5.74c-.61-2.15-1.24-4.3-2.08-6.38-1.51-3.74-3.78-7.21-6.62-10.08-1.47-1.48-2.83-3.02-4.4-4.41s-3.27-2.64-4.89-3.98c-3.27-2.7-6.34-5.69-9.16-8.86-3.17-3.58-4.94-7.9-6.31-12.43-.56-1.85-3.44-1.02-2.88.83h0Z"/><path class="cls-9" d="m87.93,67.45c-4.43,2.89-7.84,6.92-10.02,11.74-1.09,2.42-1.87,4.98-2.35,7.58-.24,1.3-.44,2.61-.59,3.93-.14,1.16,0,2.33-.15,3.49-.25,1.89,2.66,2.62,2.92.7.29-2.17.19-4.33.57-6.51.44-2.51,1.04-4.98,2.05-7.33,1.94-4.52,4.99-8.34,9.11-11.03,1.62-1.05.08-3.63-1.54-2.58h0Z"/><path class="cls-8" d="m90.11,67.99c-.17-1.4-.32-2.74-.26-4.15.05-1.16.58-2.24,1.2-3.21s1.57-1.83,2.53-2.38,2.12-.8,3.16-1.24c1.16-.49,2.24-1.11,3.29-1.81.99-.65,2.04-1.31,2.85-2.19,1.07-1.17,3.27-3.87,2.09-5.53-1.11-1.57-3.7-.04-2.58,1.54-.43-.6.06-.48-.22-.23-.14.13-.22.39-.33.56-.27.42-.54.86-.85,1.25-.67.86-1.6,1.43-2.51,2.03-.98.64-1.97,1.26-3.06,1.7s-2.12.69-3.12,1.21c-2,1.03-3.55,2.88-4.53,4.87-1.23,2.48-.99,4.99-.67,7.66.1.81.67,1.47,1.54,1.46.75,0,1.56-.73,1.46-1.54h0Z"/><path class="cls-8" d="m96.24,55.78c-.14-1.15-.17-2.29-.08-3.45.03-.35-.04.21.01-.1.02-.16.04-.33.07-.49.05-.28.13-.55.22-.82.18-.53.39-1.11.38-1.67-.01-.79-.73-1.52-1.54-1.46s-1.47.7-1.46,1.54c.04-.25.04-.3,0-.13-.02.06-.04.13-.06.19-.03.09-.05.17-.08.26-.08.28-.17.55-.25.82-.2.63-.25,1.3-.31,1.96-.11,1.15-.06,2.3.08,3.45.05.4.15.75.45,1.04.27.26.71.45,1.08.43.74-.05,1.57-.7,1.46-1.54h0Z"/><path class="cls-8" d="m91.8,59.72c1.58-1.16,3.56-.64,5.25.1,2.09.91,4.09,1.97,6.25,2.72s4.18.94,6.5.85c1.84-.07,3.98.28,5.48-1.06s-.71-3.37-2.15-2.1c.36-.18.38-.21.05-.09-.19.07-.38.13-.57.2-.53.12-1.1.07-1.64.06-1.1-.02-2.19.11-3.28.08-2.17-.05-4.37-1.05-6.32-1.93-3.39-1.53-7.59-3.99-11.11-1.41-1.55,1.13-.02,3.72,1.54,2.58h0Z"/><path class="cls-8" d="m89.11,69.97c2.06-.25,4.08-.36,6.14-.08,1.9.25,3.66.85,5.46,1.5s3.46,1.45,5.28,1.92,3.54,1.27,5.46,1.39,1.85-2.88-.07-3c-1.04-.06-1.94-.48-2.92-.81-.82-.27-1.66-.44-2.49-.68-1.81-.53-3.54-1.37-5.33-2-3.83-1.34-7.58-1.72-11.61-1.23-1.9.23-1.85,3.23.07,3h0Z"/><path class="cls-8" d="m100.64,71.35c.89.49,1.54,1.82,2.09,2.7.73,1.16,1.18,2.47,1.88,3.65.62,1.05,1.32,2.02,2.02,3.02.39.56.8,1.13,1.29,1.61.21.2.42.38.63.59.07.08.14.15.22.22.06.04.11.09.17.13.15.13.1.04-.14-.28.16.79,1.12,1.24,1.86,1.03.83-.24,1.19-1.06,1.03-1.86-.14-.67-.71-1.07-1.17-1.52-.43-.42-.84-.79-1.19-1.29-.79-1.11-1.58-2.18-2.25-3.37-.71-1.27-1.21-2.61-2.01-3.83s-1.62-2.66-2.98-3.41c-1.69-.94-3.14,1.69-1.45,2.63h0Z"/><path class="cls-8" d="m75.8,50.85c.6.72,1.39,1.36,2.26,1.72.61.25,1.16.4,1.82.45.52.05,1.03-.09,1.55-.08.79.01,1.52-.75,1.46-1.54-.06-.84-.7-1.45-1.54-1.46-.53,0-1.05.13-1.59.07l.39.04c-.33-.04-.65-.12-.96-.24l.37.15c-.37-.15-.71-.34-1.03-.58l.32.24c-.36-.27-.68-.58-.97-.92-.24-.28-.73-.44-1.08-.43s-.79.18-1.04.45c-.26.29-.45.68-.43,1.08s.19.72.45,1.04h0Z"/><path class="cls-8" d="m82.74,43.48c-.77,1.78-1.61,3.56-2.12,5.44-.54,2-.58,3.9.11,5.87.61,1.77,1.74,3.48,3.11,4.76.64.6,1.33,1.21,2.11,1.63.44.24.92.43,1.37.66.18.09.35.19.52.29.04.02.79.45.5.28,1.64,1.03,3.08-1.6,1.45-2.63-1.2-.75-2.55-1.19-3.64-2.18s-2.06-2.25-2.54-3.64c-.54-1.57-.48-2.9-.03-4.49s1.14-3.04,1.79-4.54c.32-.74.17-1.62-.59-2.04-.66-.36-1.72-.16-2.04.59h0Z"/><ellipse class="cls-3" cx="71.12" cy="47.18" rx="4.81" ry="5.89" transform="translate(4.19 100.14) rotate(-71.92)"/><ellipse class="cls-3" cx="85.9" cy="39.92" rx="5.35" ry="4.84" transform="translate(43.33 124.54) rotate(-88.22)"/><ellipse class="cls-3" cx="101.17" cy="29.71" rx="7.27" ry="7.31"/><ellipse class="cls-1" cx="107.92" cy="45.61" rx="6.54" ry="7.75" transform="translate(58.68 151.93) rotate(-88.06)"/><ellipse class="cls-1" cx="127.88" cy="65.05" rx="7.18" ry="6.78" transform="translate(59.05 190.93) rotate(-88.29)"/><ellipse class="cls-1" cx="116.25" cy="76.65" rx="6.08" ry="5.81" transform="translate(36.26 190.62) rotate(-88.33)"/><ellipse class="cls-2" cx="129.64" cy="53.04" rx="7.53" ry="6.64" transform="translate(72.55 180.95) rotate(-88.2)"/><ellipse class="cls-2" cx="125.49" cy="84.72" rx="5.71" ry="7.11" transform="translate(36.59 207.29) rotate(-88.07)"/><ellipse class="cls-3" cx="119.3" cy="58" rx="6.72" ry="5.63" transform="translate(-13.35 58.61) rotate(-26.19)"/><ellipse class="cls-4" cx="127.44" cy="76.54" rx="7.27" ry="6.94" transform="translate(-12.84 27.35) rotate(-11.67)"/><ellipse class="cls-4" cx="119.63" cy="47.93" rx="6.15" ry="7.06" transform="translate(67.64 165.86) rotate(-88.04)"/><ellipse class="cls-4" cx="113.69" cy="87.36" rx="6.02" ry="6.05"/><ellipse class="cls-4" cx="96.52" cy="42.87" rx="6.4" ry="7.19" transform="translate(50.35 137.86) rotate(-88.03)"/><ellipse class="cls-4" cx="68.97" cy="37.2" rx="6.47" ry="6.5"/><ellipse class="cls-1" cx="78.29" cy="32.77" rx="6.77" ry="6.38" transform="translate(43.19 110.04) rotate(-88.29)"/><ellipse class="cls-2" cx="120.24" cy="71.29" rx="6.63" ry="6.09" transform="translate(45.28 189.28) rotate(-88.23)"/><ellipse class="cls-2" cx="116.01" cy="35.57" rx="7.62" ry="7.08" transform="translate(14.19 101.57) rotate(-50)"/><ellipse class="cls-2" cx="88.11" cy="25.76" rx="6.44" ry="7.45" transform="translate(-3.52 31.29) rotate(-19.75)"/><ellipse class="cls-5" cx="92.56" cy="34.79" rx="6.25" ry="5.93" transform="translate(55.05 126.29) rotate(-88.31)"/><ellipse class="cls-5" cx="112.35" cy="55.02" rx="4.07" ry="4.67" transform="translate(53.53 165.42) rotate(-88.04)"/><ellipse class="cls-5" cx="108.23" cy="38.16" rx="6.3" ry="5.37" transform="translate(27.71 119.93) rotate(-64.87)"/><ellipse class="cls-5" cx="138.27" cy="67.52" rx="7.53" ry="6.36" transform="translate(18.35 163.95) rotate(-64.83)"/><path class="cls-9" d="m42.07,35.5c.09-1.52.19-3.04.39-4.55.61-3.57,1.87-8.08,3.32-11.8-2.53,4.62-4.21,9.82-4.4,15.21-.2,2.78-.36,5.61.25,8.35.15.53.28,1.08.48,1.58-.14-.64-.22-1.3-.3-1.96-.13-2.14.03-4.6.27-6.84Z"/><path class="cls-9" d="m55.88,31.97c-1.57,1.05-2.87,2.49-4.05,3.96-1.32,1.74-2.56,3.57-3.46,5.56-.86,1.87-1.37,3.88-2.07,5.82-.14.44-.43,1.2-.58,1.43.44-.54.69-1.2,1-1.81.95-1.96,1.6-3.83,2.54-5.59,1.15-2.22,2.81-4.59,4.22-6.24.93-1.02,1.79-2.12,2.91-2.95.75-.51,2.14-1.22,3.12-1.77-1.2.51-2.5.88-3.62,1.58Z"/><path class="cls-9" d="m41.84,50.58c-3.3-2.51-7.44-4.57-11.68-3.92-1.13.22-2.2.66-3.29,1-1.49.38-3.01.77-4.53.86,1.63.1,2.96-.11,4.41-.3,1.11-.21,2.17-.58,3.28-.79,3.87-.65,7.9,1.22,11.52,3.28.62.38,1.33.79,1.9,1.16-.53-.44-1.06-.87-1.61-1.29Z"/><path class="cls-9" d="m63.97,41.74c-1.16,1.1-2.69,2.36-3.76,3.12-.85.66-1.43.93-2.21,1.71-3.29,2.97-4.28,7.6-4.37,11.87.19-1.56.53-3.03,1.05-4.54.69-2.4,1.75-4.68,3.4-6.33.74-.82,1.64-1.46,2.49-2.15,1.18-.97,2.29-2.03,3.27-3.21.48-.53.9-1.12,1.36-1.63-.43.36-.81.77-1.23,1.15Z"/><path class="cls-9" d="m40.73,58.61c-3.29.49-6.03,2.65-8.39,4.88-.42.39-.85.79-1.23,1.21.65-.53,1.29-.96,1.97-1.47,2.24-1.6,4.76-3.29,7.46-3.8,1.29-.28,2.74-.23,4.29-.12,1.66.06,3.11.46,4.71,1.06-2.58-1.5-5.85-2.1-8.81-1.76Z"/><path class="cls-9" d="m49.33,67.81c-2.4,1.2-4.47,2.32-7.12,1.99-.44-.02-.88-.14-1.3-.23.62.28,1.26.45,1.85.53,2.73.66,5.53-1.02,8.07-2.11,1.75-.73,4.43-1.13,6.68-.7-2.67-.92-5.64-.67-8.19.52Z"/><path class="cls-9" d="m64.14,73.44c-1.07-.16-2.16-.25-3.23-.39-1.49-.08-3.25-.13-4.39.98-1.25,1.25-2.4,2.9-3.76,3.83-.5.3-1.04.69-1.48.98.74-.35,1.51-.66,2.22-1.08,1.44-.98,2.55-2.35,3.87-3.48,1.84-1.06,5.42-.46,8.2-.65-.51.01-.93-.11-1.42-.19Z"/><path class="cls-9" d="m79.39,68.13c-2.39-.09-4.82-.45-7.16.27-2.18.67-4.43,2.28-5.32,4.44.84-1.46,2.17-2.29,3.63-3.05,2.6-1.29,5.41-1.24,8.25-1.46.41-.03.94-.12,1.25-.28-.22.06-.45.09-.66.1Z"/><path class="cls-9" d="m69.11,52.6c-1.24,1.48-2.86,2.61-4.04,4.14-2.31,3.23-1.68,7.41-2.67,11.01,1.36-3.74,1.28-7.89,3.53-11,.92-1.2,2.37-2.56,3.32-4.06.21-.3.57-.72.62-.99-.18.36-.5.6-.76.89Z"/><path class="cls-7" d="m66.57,120.73c3.86.94,6.29,4.52,5.46,8.01-.83,3.46-4.63,5.56-8.49,4.62l-9.76-2.38.84-3.51,3.49.85,1.35-5.61-3.49-.85.84-3.51,9.76,2.38Zm-3.63,2.83l-1.35,5.61,2.79.68c1.93.47,3.79-.41,4.16-1.96.37-1.54-.88-3.18-2.81-3.65l-2.79-.68Z"/><path class="cls-7" d="m69.43,138l-1.73,7.2c-.67,2.81-3.51,4.54-6.3,3.86-2.79-.68-4.49-3.52-3.82-6.32l.89-3.7-6.28-1.53.84-3.51,16.39,3.99Zm-4.33,2.66l-3.14-.76-.89,3.69c-.21.89.29,1.75,1.17,1.97.88.21,1.75-.32,1.96-1.21l.89-3.69Z"/><path class="cls-7" d="m64.15,159.93c-.67,2.81-3.5,4.54-6.29,3.86-2.21-.54-3.74-2.44-3.94-4.6l-2.97.81c-.87.23-1.35,1.11-1.12,2l-3.47.94c-.73-2.8.9-5.67,3.67-6.43l4.55-1.22.37-1.52-6.28-1.53.84-3.51,16.39,3.99-1.73,7.2Zm-2.6-4.54l-3.14-.76-.89,3.69c-.21.89.29,1.75,1.18,1.97.88.21,1.75-.32,1.96-1.21l.89-3.69Z"/><path class="cls-7" d="m62.24,167.88l-.84,3.51-16.39-3.99.84-3.51,16.39,3.99Z"/><path class="cls-7" d="m60.58,174.8l-.84,3.51-12.9-3.14-1.69,7.01-3.49-.85,2.53-10.52,16.39,3.99Z"/></svg>