<?xml version="1.0" encoding="UTF-8"?><svg id="Layer_2" xmlns="http://www.w3.org/2000/svg" width="185" height="370" xmlns:xlink="http://www.w3.org/1999/xlink" viewBox="0 0 185 370"><defs><style>.cls-1{fill:url(#linear-gradient);}.cls-1,.cls-2,.cls-3,.cls-4,.cls-5,.cls-6,.cls-7,.cls-8,.cls-9,.cls-10{stroke-width:0px;}.cls-2,.cls-11{fill:#3d2e40;}.cls-3,.cls-12{fill:#7a5580;}.cls-13{stroke:#703e78;}.cls-13,.cls-12,.cls-11,.cls-14{stroke-miterlimit:10;}.cls-13,.cls-10{fill:#703e78;}.cls-12{stroke:#7a5580;}.cls-11{stroke:#3d2e40;}.cls-5{fill:#4f2e54;}.cls-14{stroke:#29162b;}.cls-14,.cls-9{fill:#29162b;}.cls-6{fill:#418c46;}.cls-7{fill:#ffefe1;}.cls-8{fill:#206925;}</style><linearGradient id="linear-gradient" x1="74.29" y1="847.81" x2="99.67" y2="939.68" gradientTransform="translate(459.58 -759.6) rotate(30.23)" gradientUnits="userSpaceOnUse"><stop offset="0" stop-color="#d33"/><stop offset="1" stop-color="#f66"/></linearGradient></defs><path class="cls-1" d="m.74.37l-.74,369.63L185,50.47S90.35-5.06.74.37Z"/><path class="cls-7" d="m.88,93.72l-.88,276.28,138.37-239S67.77,89.58.88,93.72Z"/><path class="cls-6" d="m94.25,19.76c-.77,4.48-1.67,9.42-4.12,13.33-2.3,3.67-5.86,6.52-9.7,8.42-2.1,1.04-4.29,1.79-6.53,2.44s-4.57,1.02-6.84,1.63c-2.05.55-4.1,1.37-5.81,2.63-.92.67-1.78,1.47-2.55,2.31-.6.66-.96,1.65-1.59,2.22-1.44,1.29.71,3.38,2.15,2.1.69-.62.98-1.53,1.59-2.22.77-.87,1.68-1.7,2.66-2.32,2.03-1.29,4.36-1.87,6.69-2.35,4.67-.96,9.19-2.41,13.4-4.68,3.73-2.02,7.23-5.42,9.4-9.07,2.42-4.08,3.4-9.1,4.19-13.72.33-1.89-2.59-2.61-2.92-.7h0Z"/><path class="cls-6" d="m90.68,31.9c-2.64,5.2-3.17,11-2.19,16.71.52,3.02,1.1,5.99,1.53,9.03.21,1.49.31,2.98.25,4.49-.06,1.39-.1,3.03-.65,4.33-.75,1.76,1.87,3.23,2.63,1.45,1.07-2.52,1.17-5.64,1-8.34-.19-2.97-.65-6.06-1.29-8.97-1.28-5.86-1.42-11.78,1.35-17.25.87-1.72-1.75-3.18-2.63-1.45h0Z"/><path class="cls-6" d="m97.12,29.63c1.38,1.05,2.86,1.82,4.63,1.33,1.33-.36,2.61-1.01,3.88-1.53,1.49-.6,2.92-1.33,4.41-1.91,2.49-.97,5.31-.63,7.87-.06,1.14.26,2.26.56,3.39.84.41.1.82.17,1.24.24.19.03.46.03.62.13-.6.13-1.21.15-1.82.17-.32.01-1.41,0-1.59.34.45.38.99.63,1.48.95.63.41,1.25.78,1.99.94.7.15,1.46.3,2.17.35.55.04,1.13-.05,1.68.03-.7.55-1.61.72-2.34,1.24-.09.06-.67.46-.65.67.03.3.77.39.9.42,1.3.22,2.53,0,3.81-.17.18-.02,1.57-.41,1.69-.27-.33.27-.67.35-1.05.54-.42.21-.86.59-1.17.95s-.88.88-.4,1.27c.6.48,1.55.59,2.27.77.63.16,1.28.19,1.92.31.57.11,1.14.07,1.7.18.42.08.82.09,1.25.1.32,0,.69.03,1-.06.24-.07.67-.35.91-.14-.31.18-.67.19-1.01.28-.57.16-1.08.3-1.68.36-1.45.16-2.86.39-4.28.7-1.92.41-3.89.4-5.84.47-1.33.04-2.67.2-4,.19-1.6,0-3.21-.19-4.79-.44-2.73-.42-5.45-1.08-8.09-1.88-1.76-.53-3.29-1.4-4.71-2.54-1.21-.97-2.24-2.09-3.35-3.16-.36-.35-.72-.72-1.11-1.04-.19-.16-.46-.46-.7-.53"/><path class="cls-6" d="m96.25,30.13c1.96,1.45,3.64,1.77,5.94.89s4.48-2.01,6.76-2.9,4.5-.81,6.79-.41c1.15.2,2.28.49,3.42.78,1.03.26,2.12.39,3.13.69l1.73-1c-1.06.18-2.32-.03-3.32.4-.36.15-1.51.63-1.68.97-.15.29-.38-.11.21.4.27.23.64.39.94.57.59.36,1.16.74,1.82.95s1.41.33,2.1.41c.43.05.84.04,1.27.04.33,0,1.21-.23.52.24l1.61-.94c-.89.49-1.81.87-2.69,1.38-.3.17-1.68.81-1.61,1.24.15.9,3.27.44,3.76.38s.97-.14,1.45-.24c.22-.05,1.51-.36.89.05l1.7-.98c-.94.43-5.64,2.79-3.59,3.8,1.27.63,3,.76,4.4.89.83.08,1.64.21,2.48.21.52,0,1.28-.37,1.74-.21l1.73-1c-1.58.65-3.4.7-5.07.98-1.84.31-3.61.68-5.48.76-3.72.16-7.34.4-11.04-.18-3.43-.53-7.29-1.19-10.39-2.82-1.48-.78-2.77-1.83-3.96-2.98-1.12-1.08-2.24-2.6-3.62-3.35-.32-.17-1.44,1.16-1.73,1,1.32.71,2.39,2.16,3.45,3.19,1.25,1.21,2.58,2.33,4.13,3.14,3.1,1.63,6.95,2.29,10.39,2.82,3.7.58,7.32.34,11.04.18,1.79-.08,3.48-.41,5.24-.72s3.66-.34,5.31-1.02c.31-.13,1.47-1.09,1.73-1-.37-.13-.56.06-.91.14-.52.12-1.1.08-1.63.04-1.16-.09-2.33-.24-3.48-.42-.86-.13-2.01-.25-2.76-.72-1.06-.67.34-1.75.97-2.22l-.25.15.32-.19-1.48.85c.96-.43,1.87-.95,2.75-1.52l.03-.02c-.45-.17-1.13.16-1.58.25-1.11.21-2.3.36-3.43.25-.23-.02-.88-.05-1.1-.21-.41-.3-.2-.2-.09-.57.11-.1.23-.2.35-.29-.75.43-.84.51-.28.24.22-.1.42-.2.63-.31.52-.28,1.03-.57,1.53-.87.1-.06.56-.31.56-.37,0-.03-1.55-.02-1.68-.03-1.07-.06-2.24-.26-3.21-.73-.46-.22-.89-.52-1.33-.79-.25-.15-1.26-.56-.97-.85l-1.73,1c.98-.42,2.25-.21,3.29-.39.43-.07,1.36-1.11,1.73-1-1.01-.3-2.1-.43-3.13-.69-1.13-.29-2.27-.58-3.42-.78-2.29-.4-4.6-.45-6.79.41s-4.47,2.02-6.76,2.9-3.98.56-5.94-.89c-.22-.17-1.53,1.15-1.73,1h0Z"/><path class="cls-6" d="m94.37,22.75c-.39,7.4,1.46,15.32,5.37,21.64,1.91,3.09,4.32,5.61,6.87,8.15,2.72,2.71,4.57,6.07,5.86,9.68.65,1.81,3.53.99,2.88-.83-1.2-3.36-2.82-6.62-5.13-9.37-1.19-1.42-2.61-2.63-3.89-3.95s-2.35-2.67-3.34-4.15c-4.12-6.16-6.02-13.86-5.63-21.24.1-1.93-2.9-1.85-3,.07h0Z"/><path class="cls-6" d="m96.96,30.77c.58,0,1.16-1,1.73-1-.58,0-1.16,1-1.73,1h0Z"/><path class="cls-8" d="m136.26,37.36c-1.32.5-2.7.72-4.11.82-.93.06-1.86.08-2.79.11s-1.8.11-2.7.07c-2.46-.11-4.93-.16-7.39-.18s-4.64-.06-6.96-.37c-1.68-.22-3.33-.65-4.96-1.12-1.5-.44-2.98-.91-4.38-1.62-1.58-.81-2.89-1.91-4.15-3.16-.52-.52-1.11-.96-1.62-1.49-.07-.08-.28-.42-.41-.26.28.19.38.32.56.62.22.38.56.7.83,1.03,1.23,1.52,2.1,3.24,3.09,4.91.91,1.55,1.97,3,2.91,4.53s1.76,2.92,2.77,4.3c1.19,1.63,3.38,5.1,5.41,6.24.21-.1-2.55-3.22-2.65-3.41-.28-.54-.43-1.28-.71-1.8.63.42,1.2.91,1.78,1.41.41.35.79.75,1.21,1.08.59.47,1.27.85,1.91,1.24,1.28.79,2.72,1.28,4.15,1.71.77.23,1.57.3,2.34.52-.91-.25-1.8-.92-2.53-1.49-.43-.34-.88-.67-1.29-1.04-.11-.1-.6-.43-.55-.57.91-.04,1.8.22,2.7.32.57.07,1.16.11,1.74.04.51-.06.99-.23,1.48-.37.57-.17,1.13-.29,1.69-.51.22-.08.74-.14.76-.44-.47-.04-.93.02-1.4-.04-.5-.06-1.05-.21-1.53-.36s-.97-.34-1.41-.6c-.18-.11-.49-.23-.56-.44.63-.21,1.36-.09,2.01-.05,1.14.07,2.22.11,3.35-.08,1.81-.3,3.34-1.3,5.06-1.85-.39.02-.77,0-1.15-.04-.48-.05-1.04-.04-1.51-.18s-.89-.4-1.31-.63c-.33-.18-.77-.34-1.06-.6.14-.21.47-.09.69-.08.35.02.69,0,1.04-.01.8-.03,1.6-.11,2.37-.32s1.46-.52,2.11-1.03c.75-.58,1.51-1.17,2.19-1.84.43-.42.88-.81,1.24-1.29.23-.31.53-.64.87-.83.14-.07.19-.07.27-.17.05-.06.09-.22.13-.28.13-.19.33-.29.51-.42"/><path class="cls-8" d="m137.12,36.86c-3.29,1.15-7.13,1.1-10.58.96-3.76-.15-7.53-.02-11.28-.29-3.51-.26-7.11-1.09-10.36-2.46-1.48-.63-2.81-1.49-4.02-2.55-.63-.55-1.21-1.14-1.83-1.7-.27-.24-1.03-1.2-1.38-1.15-.28.03-1.59,1.11-1.73,1,.69.54,1.27,1.48,1.8,2.19.75,1.02,1.38,2.12,2.01,3.21,1.27,2.22,2.73,4.31,4.07,6.49,1.13,1.84,2.35,3.6,3.6,5.36,1.15,1.6,2.38,3.35,4.1,4.39.09.05,1.67-.87,1.73-1,.17-.36-1.38-1.87-1.6-2.14-.3-.36-.66-.71-.92-1.1-.4-.59-.55-1.32-.84-1.97l-1.73,1c1.83,1.28,3.31,2.87,5.29,3.96s4,1.47,6.11,2c.45.11,1.32-1.14,1.73-1-1.02-.35-1.85-.96-2.69-1.62-.46-.36-1.48-.91-1.67-1.49l-1.73,1c1.77.01,3.43.66,5.19.2,1.12-.29,2.33-.55,3.35-1.12.4-.22.86-.43,1.22-.71.61-.47.01-.31-.58-.35-1.15-.07-3.24-.43-3.97-1.43l-1.73,1c1.8-.42,3.72.2,5.57-.17,1.7-.34,3.22-1.26,4.86-1.81.52-.18,1.2-.99,1.73-1-1.87.04-3.49-.35-5.04-1.45l-.25.15.19-.11-1.48.85c1.38.03,2.76.05,4.11-.35.85-.25,1.6-.71,2.36-1.15.8-.47,1.53-.99,2.25-1.58.6-.49,1.16-1.01,1.71-1.55s.98-1.2,1.63-1.65l-1.7.98c.52-.25,1.03-.55,1.52-.86.46-.29.64-.69,1.09-1-.54.38-1.19.62-1.73,1-.33.23-.47.57-.76.8l1.7-.98c-.63.31-1.28.66-1.86,1.06-.7.49-1.18,1.21-1.79,1.8-.65.63-1.32,1.21-2.03,1.77-.16.13-.32.25-.48.38.45-.23.51-.28.2-.15-.42.05-.86.25-1.28.33-.83.15-1.7.21-2.54.19-.96-.02-1.51.43-2.35.92.04-.02-.25.16-.25.15,1.54,1.1,3.16,1.48,5.04,1.45l1.73-1c-1.64.55-3.15,1.47-4.86,1.81-1.85.37-3.77-.25-5.57.17-.2.05-1.7,1.04-1.73,1,.45.61,1.46.89,2.16,1.1.44.13.89.25,1.35.31.32.04,1.5-.16,1.3.22l1.61-.94c-1.01.56-2.58.92-3.72,1.07-1.49.19-2.95-.35-4.44-.36-.17,0-1.74.98-1.73,1,.2.58,1.22,1.13,1.67,1.49.84.66,1.67,1.27,2.69,1.62l1.73-1c-2.11-.53-4.17-.93-6.11-2s-3.46-2.68-5.29-3.96c-.1-.07-1.72,1.03-1.73,1,.3.65.44,1.38.84,1.97.27.39.62.74.92,1.1.22.27,1.77,1.78,1.6,2.14l1.73-1c-1.66-1.01-2.87-2.7-3.99-4.25-1.29-1.8-2.55-3.61-3.7-5.5-1.29-2.12-2.72-4.15-3.96-6.3-.63-1.1-1.25-2.2-1.98-3.23-.55-.76-1.19-1.79-1.93-2.37l-1.73,1c.37-.05,1.1.9,1.38,1.15.62.56,1.2,1.15,1.83,1.7,1.15,1,2.41,1.84,3.81,2.46,3.29,1.45,7,2.29,10.57,2.55s7.36.15,11.04.28,7.46.23,10.83-.95c.62-.22,1.12-.78,1.73-1h0Z"/><ellipse class="cls-9" cx="54.34" cy="46.08" rx="3.36" ry="3.57" transform="translate(-1.33 90.55) rotate(-78.91)"/><ellipse class="cls-9" cx="51.95" cy="56.08" rx="3.36" ry="3.57" transform="translate(-13.08 96.28) rotate(-78.91)"/><ellipse class="cls-9" cx="63.79" cy="52.92" rx="3.36" ry="3.57" transform="translate(-.41 105.34) rotate(-78.91)"/><ellipse class="cls-9" cx="60.99" cy="68.97" rx="2.88" ry="2.62" transform="translate(-16.87 118.11) rotate(-80.78)"/><ellipse class="cls-9" cx="50.04" cy="68.9" rx="3.76" ry="3.26" transform="translate(-26.17 106.9) rotate(-80.51)"/><ellipse class="cls-9" cx="36.51" cy="67.4" rx="3.6" ry="3.34" transform="translate(-35.79 92.86) rotate(-80.96)"/><ellipse class="cls-9" cx="43.37" cy="77.05" rx="3.6" ry="3.34" transform="translate(-39.54 107.77) rotate(-80.96)"/><ellipse class="cls-9" cx="40.68" cy="58.28" rx="3.68" ry="3.81" transform="translate(-24.73 86.08) rotate(-78.11)"/><ellipse class="cls-2" cx="49.57" cy="48.97" rx="3.68" ry="3.81" transform="translate(-8.56 87.38) rotate(-78.11)"/><ellipse class="cls-2" cx="68.59" cy="57.18" rx="3.68" ry="3.81" transform="translate(-1.49 112.51) rotate(-78.11)"/><ellipse class="cls-2" cx="57.33" cy="57.04" rx="3.36" ry="3.03" transform="translate(-8.21 104.41) rotate(-80.71)"/><ellipse class="cls-2" cx="58.22" cy="65.64" rx="3.44" ry="3.3" transform="translate(-15.06 113.89) rotate(-81.79)"/><ellipse class="cls-2" cx="47.48" cy="64.63" rx="3.44" ry="3.3" transform="translate(-23.27 102.4) rotate(-81.79)"/><ellipse class="cls-2" cx="37.88" cy="63.26" rx="3.44" ry="3.3" transform="translate(-30.14 91.72) rotate(-81.79)"/><ellipse class="cls-2" cx="40.12" cy="71.69" rx="3.44" ry="3.3" transform="translate(-36.56 101.16) rotate(-81.79)"/><ellipse class="cls-2" cx="66.19" cy="65.5" rx="3.44" ry="3.3" transform="translate(-8.09 121.67) rotate(-81.79)"/><ellipse class="cls-5" cx="44.34" cy="52.15" rx="3.44" ry="3.3" transform="translate(-13.61 88.59) rotate(-81.79)"/><ellipse class="cls-5" cx="55.24" cy="51.4" rx="3.44" ry="3.3" transform="translate(-3.52 98.74) rotate(-81.79)"/><ellipse class="cls-5" cx="62.82" cy="58.47" rx="3.44" ry="3.3" transform="translate(-4.01 112.3) rotate(-81.79)"/><ellipse class="cls-5" cx="63.06" cy="66.65" rx="3.44" ry="3.3" transform="translate(-11.91 119.56) rotate(-81.79)"/><ellipse class="cls-5" cx="55.41" cy="69.53" rx="3.44" ry="3.3" transform="translate(-21.31 114.45) rotate(-81.79)"/><ellipse class="cls-5" cx="38.37" cy="76.16" rx="3.44" ry="3.3" transform="translate(-42.49 103.27) rotate(-81.79)"/><ellipse class="cls-5" cx="45.67" cy="71.29" rx="3.04" ry="3.3" transform="translate(-32.92 102.77) rotate(-79.19)"/><ellipse class="cls-5" cx="51.59" cy="61.87" rx="3.04" ry="3.3" transform="translate(-18.86 100.93) rotate(-79.19)"/><ellipse class="cls-5" cx="46.83" cy="57.05" rx="3.04" ry="3.3" transform="translate(-17.99 92.35) rotate(-79.19)"/><ellipse class="cls-5" cx="35.36" cy="69.55" rx="3.04" ry="3.3" transform="translate(-39.59 91.24) rotate(-79.19)"/><ellipse class="cls-5" cx="51.05" cy="75.33" rx="3.04" ry="3.3" transform="translate(-32.52 111.34) rotate(-79.19)"/><ellipse class="cls-5" cx="66.81" cy="61.97" rx="3.04" ry="3.3" transform="translate(-6.6 115.97) rotate(-79.19)"/><ellipse class="cls-5" cx="58.04" cy="73.66" rx="3.2" ry="3.3" transform="translate(-26.15 114.97) rotate(-77.9)"/><ellipse class="cls-5" cx="42.36" cy="63.48" rx="3.2" ry="3.3" transform="translate(-28.6 91.59) rotate(-77.9)"/><ellipse class="cls-5" cx="49.36" cy="80.06" rx="3.2" ry="3.3" transform="translate(-39.27 111.54) rotate(-77.9)"/><ellipse class="cls-10" cx="49.76" cy="53.11" rx="3.2" ry="3.3" transform="translate(-12.6 90.63) rotate(-77.9)"/><ellipse class="cls-10" cx="59.96" cy="54.1" rx="3.2" ry="3.3" transform="translate(-5.51 101.38) rotate(-77.9)"/><ellipse class="cls-10" cx="61.09" cy="62.81" rx="3.2" ry="3.3" transform="translate(-13.14 109.37) rotate(-77.9)"/><ellipse class="cls-10" cx="52.81" cy="65.33" rx="3.2" ry="3.3" transform="translate(-22.15 103.27) rotate(-77.9)"/><ellipse class="cls-10" cx="41.64" cy="67.58" rx="3.2" ry="3.3" transform="translate(-33.17 94.13) rotate(-77.9)"/><ellipse class="cls-10" cx="45.94" cy="60.87" rx="3.2" ry="3.3" transform="translate(-23.21 93.03) rotate(-77.9)"/><ellipse class="cls-10" cx="47.77" cy="75" rx="3.2" ry="3.3" transform="translate(-35.58 105.98) rotate(-77.9)"/><ellipse class="cls-10" cx="54.79" cy="73.16" rx="3.2" ry="3.3" transform="translate(-28.23 111.4) rotate(-77.9)"/><ellipse class="cls-13" cx="56.75" cy="60.35" rx="3.2" ry="3.3" transform="translate(-14.16 103.19) rotate(-77.9)"/><ellipse class="cls-3" cx="49.54" cy="59.85" rx="3.2" ry="3.3" transform="translate(-19.36 95.74) rotate(-77.9)"/><ellipse class="cls-3" cx="45.12" cy="68.26" rx="2.63" ry="2.84" transform="translate(-30.43 99.69) rotate(-79.13)"/><ellipse class="cls-3" cx="42.73" cy="74.19" rx="2.63" ry="2.84" transform="translate(-38.19 102.15) rotate(-79.13)"/><ellipse class="cls-3" cx="52.6" cy="73.17" rx="2.63" ry="2.84" transform="translate(-29.18 111.01) rotate(-79.13)"/><ellipse class="cls-3" cx="55.91" cy="59.63" rx="2.63" ry="2.84" transform="translate(-13.2 103.29) rotate(-79.13)"/><ellipse class="cls-12" cx="55.91" cy="59.63" rx="2.63" ry="2.84" transform="translate(-13.2 103.29) rotate(-79.13)"/><ellipse class="cls-9" cx="115.04" cy="58.15" rx="2.97" ry="3.25" transform="translate(-1.29 2.62) rotate(-1.3)"/><ellipse class="cls-9" cx="115.8" cy="68.08" rx="2.97" ry="3.25" transform="translate(-1.51 2.64) rotate(-1.3)"/><ellipse class="cls-9" cx="106.45" cy="63.27" rx="2.97" ry="3.25" transform="translate(-1.4 2.42) rotate(-1.3)"/><ellipse class="cls-9" cx="106.81" cy="79.06" rx="2.18" ry="2.79" transform="translate(-1.77 2.45) rotate(-1.3)"/><ellipse class="cls-9" cx="115.82" cy="80.63" rx="2.7" ry="3.64" transform="translate(-1.81 2.66) rotate(-1.3)"/><ellipse class="cls-9" cx="127.11" cy="81.22" rx="2.77" ry="3.48" transform="translate(-1.81 2.91) rotate(-1.3)"/><ellipse class="cls-9" cx="120.31" cy="89.43" rx="2.77" ry="3.48" transform="translate(-2 2.76) rotate(-1.3)"/><ellipse class="cls-9" cx="124.79" cy="71.87" rx="3.17" ry="3.56" transform="translate(-1.6 2.85) rotate(-1.3)"/><ellipse class="cls-2" cx="118.62" cy="61.63" rx="3.17" ry="3.56" transform="translate(-1.37 2.7) rotate(-1.3)"/><ellipse class="cls-2" cx="101.99" cy="66.62" rx="3.17" ry="3.56" transform="translate(-1.48 2.33) rotate(-1.3)"/><ellipse class="cls-2" cx="111.26" cy="68.18" rx="2.52" ry="3.25" transform="translate(-1.52 2.55) rotate(-1.3)"/><ellipse class="cls-2" cx="109.49" cy="76.28" rx="2.74" ry="3.33" transform="translate(-1.71 2.51) rotate(-1.3)"/><ellipse class="cls-2" cx="118.44" cy="76.93" rx="2.74" ry="3.33" transform="translate(-1.72 2.71) rotate(-1.3)"/><ellipse class="cls-2" cx="126.49" cy="77.06" rx="2.74" ry="3.33" transform="translate(-1.72 2.89) rotate(-1.3)"/><ellipse class="cls-2" cx="123.63" cy="84.79" rx="2.74" ry="3.33" transform="translate(-1.9 2.83) rotate(-1.3)"/><ellipse class="cls-2" cx="102.96" cy="74.95" rx="2.74" ry="3.33" transform="translate(-1.68 2.36) rotate(-1.3)"/><ellipse class="cls-5" cx="122.53" cy="65.46" rx="2.74" ry="3.33" transform="translate(-1.46 2.8) rotate(-1.3)"/><ellipse class="cls-5" cx="113.66" cy="63.1" rx="2.74" ry="3.33" transform="translate(-1.4 2.6) rotate(-1.3)"/><ellipse class="cls-5" cx="106.57" cy="68.73" rx="2.74" ry="3.33" transform="translate(-1.53 2.44) rotate(-1.3)"/><ellipse class="cls-5" cx="105.39" cy="76.52" rx="2.74" ry="3.33" transform="translate(-1.71 2.42) rotate(-1.3)"/><ellipse class="cls-5" cx="111.32" cy="80.42" rx="2.74" ry="3.33" transform="translate(-1.8 2.55) rotate(-1.3)"/><ellipse class="cls-5" cx="124.53" cy="89.34" rx="2.74" ry="3.33" transform="translate(-2 2.85) rotate(-1.3)"/><ellipse class="cls-5" cx="119.12" cy="83.57" rx="2.74" ry="2.94" transform="translate(-1.85 2.71) rotate(-1.29)"/><ellipse class="cls-5" cx="115.4" cy="73.67" rx="2.74" ry="2.94" transform="translate(-1.63 2.62) rotate(-1.29)"/><ellipse class="cls-5" cx="119.89" cy="69.77" rx="2.74" ry="2.94" transform="translate(-1.54 2.72) rotate(-1.29)"/><ellipse class="cls-5" cx="127.8" cy="83.46" rx="2.74" ry="2.94" transform="translate(-1.85 2.9) rotate(-1.29)"/><ellipse class="cls-5" cx="114.21" cy="86.63" rx="2.74" ry="2.94" transform="translate(-1.92 2.6) rotate(-1.29)"/><ellipse class="cls-5" cx="102.88" cy="71.48" rx="2.74" ry="2.94" transform="translate(-1.59 2.34) rotate(-1.29)"/><ellipse class="cls-5" cx="108.66" cy="83.98" rx="2.74" ry="3.1" transform="translate(-1.88 2.48) rotate(-1.3)"/><ellipse class="cls-5" cx="122.79" cy="76.6" rx="2.74" ry="3.1" transform="translate(-1.7 2.8) rotate(-1.3)"/><ellipse class="cls-5" cx="115.02" cy="91.41" rx="2.74" ry="3.1" transform="translate(-2.04 2.63) rotate(-1.3)"/><ellipse class="cls-10" cx="117.95" cy="65.56" rx="2.74" ry="3.1" transform="translate(-1.46 2.69) rotate(-1.3)"/><ellipse class="cls-10" cx="109.46" cy="64.97" rx="2.74" ry="3.1" transform="translate(-1.44 2.5) rotate(-1.3)"/><ellipse class="cls-10" cx="107.47" cy="73.14" rx="2.74" ry="3.1" transform="translate(-1.63 2.45) rotate(-1.3)"/><ellipse class="cls-10" cx="113.97" cy="76.8" rx="2.74" ry="3.1" transform="translate(-1.71 2.6) rotate(-1.3)"/><ellipse class="cls-10" cx="122.88" cy="80.63" rx="2.74" ry="3.1" transform="translate(-1.8 2.81) rotate(-1.3)"/><ellipse class="cls-10" cx="120.15" cy="73.56" rx="2.74" ry="3.1" transform="translate(-1.64 2.74) rotate(-1.3)"/><ellipse class="cls-10" cx="116.94" cy="86.81" rx="2.74" ry="3.1" transform="translate(-1.94 2.67) rotate(-1.3)"/><ellipse class="cls-10" cx="111.39" cy="83.99" rx="2.74" ry="3.1" transform="translate(-1.88 2.55) rotate(-1.3)"/><ellipse class="cls-13" cx="111.33" cy="71.44" rx="2.74" ry="3.1" transform="translate(-1.59 2.54) rotate(-1.3)"/><ellipse class="cls-3" cx="117.32" cy="72.04" rx="2.74" ry="3.1" transform="translate(-1.6 2.68) rotate(-1.3)"/><ellipse class="cls-3" cx="119.93" cy="80.76" rx="2.36" ry="2.54" transform="translate(-1.79 2.73) rotate(-1.29)"/><ellipse class="cls-3" cx="121.18" cy="86.79" rx="2.36" ry="2.54" transform="translate(-1.93 2.76) rotate(-1.29)"/><ellipse class="cls-3" cx="113.2" cy="84.33" rx="2.36" ry="2.54" transform="translate(-1.87 2.58) rotate(-1.29)"/><ellipse class="cls-3" cx="112.11" cy="70.88" rx="2.36" ry="2.54" transform="translate(-1.57 2.55) rotate(-1.29)"/><ellipse class="cls-12" cx="112.11" cy="70.88" rx="2.36" ry="2.54" transform="translate(-1.57 2.55) rotate(-1.29)"/><ellipse class="cls-14" cx="102.05" cy="69.34" rx="2.36" ry="2.54" transform="translate(-1.54 2.32) rotate(-1.29)"/><ellipse class="cls-14" cx="103.6" cy="77.58" rx="2.36" ry="2.54" transform="translate(-1.72 2.36) rotate(-1.29)"/><ellipse class="cls-11" cx="103.25" cy="73.24" rx="2.36" ry="2.54" transform="translate(-1.63 2.35) rotate(-1.29)"/><ellipse class="cls-9" cx="98.83" cy="65.9" rx="3.85" ry="3.65" transform="translate(-14.86 100.34) rotate(-50.55)"/><ellipse class="cls-9" cx="91.31" cy="74.98" rx="3.85" ry="3.65" transform="translate(-24.61 97.84) rotate(-50.55)"/><ellipse class="cls-9" cx="87.06" cy="62.85" rx="3.85" ry="3.65" transform="translate(-16.79 90.14) rotate(-50.55)"/><ellipse class="cls-9" cx="74.36" cy="76.57" rx="3.3" ry="2.68" transform="translate(-32.3 80.47) rotate(-47.93)"/><ellipse class="cls-9" cx="80.98" cy="85.66" rx="4.31" ry="3.33" transform="translate(-36.88 88.04) rotate(-47.77)"/><ellipse class="cls-9" cx="90.42" cy="95.89" rx="4.12" ry="3.41" transform="translate(-41.34 98.96) rotate(-48.02)"/><ellipse class="cls-9" cx="77.67" cy="97" rx="4.12" ry="3.41" transform="translate(-46.39 89.85) rotate(-48.02)"/><ellipse class="cls-9" cx="96.09" cy="85.95" rx="4.21" ry="3.89" transform="translate(-31.71 102.92) rotate(-49.38)"/><ellipse class="cls-2" cx="99.1" cy="71.93" rx="4.21" ry="3.89" transform="translate(-20.02 100.32) rotate(-49.38)"/><ellipse class="cls-2" cx="80.38" cy="61.86" rx="4.21" ry="3.89" transform="translate(-18.91 82.6) rotate(-49.38)"/><ellipse class="cls-2" cx="87.23" cy="71.16" rx="3.85" ry="3.1" transform="translate(-24.05 88.18) rotate(-47.9)"/><ellipse class="cls-2" cx="79" cy="76.52" rx="3.94" ry="3.37" transform="translate(-30.7 84.48) rotate(-48.24)"/><ellipse class="cls-2" cx="86.33" cy="84.78" rx="3.94" ry="3.37" transform="translate(-34.4 92.71) rotate(-48.24)"/><ellipse class="cls-2" cx="93.31" cy="91.82" rx="3.94" ry="3.37" transform="translate(-37.33 100.26) rotate(-48.24)"/><ellipse class="cls-2" cx="84.42" cy="95.92" rx="3.94" ry="3.37" transform="translate(-43.35 95) rotate(-48.24)"/><ellipse class="cls-2" cx="74.36" cy="69.77" rx="3.94" ry="3.37" transform="translate(-27.21 78.76) rotate(-48.24)"/><ellipse class="cls-5" cx="99.39" cy="78.56" rx="3.94" ry="3.37" transform="translate(-25.4 100.37) rotate(-48.24)"/><ellipse class="cls-5" cx="93.53" cy="68.92" rx="3.94" ry="3.37" transform="translate(-20.17 92.78) rotate(-48.24)"/><ellipse class="cls-5" cx="82.67" cy="67.59" rx="3.94" ry="3.37" transform="translate(-22.81 84.24) rotate(-48.24)"/><ellipse class="cls-5" cx="75.2" cy="73.19" rx="3.94" ry="3.37" transform="translate(-29.48 80.53) rotate(-48.24)"/><ellipse class="cls-5" cx="77.2" cy="81.62" rx="3.94" ry="3.37" transform="translate(-35.1 84.84) rotate(-48.24)"/><ellipse class="cls-5" cx="81.46" cy="100.55" rx="3.94" ry="3.37" transform="translate(-47.8 94.34) rotate(-48.24)"/><ellipse class="cls-5" cx="81.46" cy="91" rx="3.48" ry="3.37" transform="translate(-40.27 101.03) rotate(-52.88)"/><ellipse class="cls-5" cx="86.35" cy="79.39" rx="3.48" ry="3.37" transform="translate(-29.07 100.33) rotate(-52.88)"/><ellipse class="cls-5" cx="93.5" cy="79.95" rx="3.48" ry="3.37" transform="translate(-26.67 106.26) rotate(-52.88)"/><ellipse class="cls-5" cx="89.18" cy="98.38" rx="3.48" ry="3.37" transform="translate(-43.09 110.11) rotate(-52.88)"/><ellipse class="cls-5" cx="74.62" cy="89.37" rx="3.48" ry="3.37" transform="translate(-41.67 94.94) rotate(-52.88)"/><ellipse class="cls-5" cx="77.15" cy="66.75" rx="3.48" ry="3.37" transform="translate(-22.63 87.98) rotate(-52.88)"/><ellipse class="cls-5" cx="71.93" cy="82.35" rx="3.66" ry="3.37" transform="translate(-37.41 83.13) rotate(-49.28)"/><ellipse class="cls-5" cx="90.43" cy="88.24" rx="3.66" ry="3.37" transform="translate(-35.44 99.2) rotate(-49.28)"/><ellipse class="cls-5" cx="71.4" cy="94.13" rx="3.66" ry="3.37" transform="translate(-46.52 86.83) rotate(-49.28)"/><ellipse class="cls-10" cx="95.28" cy="74.7" rx="3.66" ry="3.37" transform="translate(-23.5 98.17) rotate(-49.28)"/><ellipse class="cls-10" cx="88.3" cy="66.89" rx="3.66" ry="3.37" transform="translate(-20 90.17) rotate(-49.28)"/><ellipse class="cls-10" cx="79.82" cy="72.12" rx="3.66" ry="3.37" transform="translate(-26.91 85.56) rotate(-49.28)"/><ellipse class="cls-10" cx="82.52" cy="80.82" rx="3.66" ry="3.37" transform="translate(-32.57 90.63) rotate(-49.28)"/><ellipse class="cls-10" cx="87.19" cy="91.74" rx="3.66" ry="3.37" transform="translate(-39.22 97.96) rotate(-49.28)"/><ellipse class="cls-10" cx="90.62" cy="83.39" rx="3.66" ry="3.37" transform="translate(-31.7 97.66) rotate(-49.28)"/><ellipse class="cls-10" cx="76.88" cy="91.88" rx="3.66" ry="3.37" transform="translate(-42.91 90.2) rotate(-49.28)"/><ellipse class="cls-10" cx="74.32" cy="84.71" rx="3.66" ry="3.37" transform="translate(-38.36 85.77) rotate(-49.28)"/><ellipse class="cls-13" cx="84.61" cy="74" rx="3.66" ry="3.37" transform="translate(-26.67 89.84) rotate(-49.28)"/><ellipse class="cls-3" cx="89.38" cy="79.66" rx="3.66" ry="3.37" transform="translate(-29.31 95.43) rotate(-49.28)"/><ellipse class="cls-3" cx="84.49" cy="89.32" rx="3.01" ry="2.9" transform="translate(-37.91 100.83) rotate(-51.96)"/><ellipse class="cls-3" cx="80.62" cy="95.52" rx="3.01" ry="2.9" transform="translate(-44.29 100.16) rotate(-51.96)"/><ellipse class="cls-3" cx="75.63" cy="86.55" rx="3.01" ry="2.9" transform="translate(-39.14 92.79) rotate(-51.96)"/><ellipse class="cls-3" cx="85.76" cy="74.19" rx="3.01" ry="2.9" transform="translate(-25.51 96.02) rotate(-51.96)"/><ellipse class="cls-12" cx="85.76" cy="74.19" rx="3.01" ry="2.9" transform="translate(-25.51 96.02) rotate(-51.96)"/><path class="cls-4" d="m59.47,123.72c-.83-.12-1.56.4-1.76,1.25-.2.89.31,1.75,1.2,1.96l11.88,2.76-.8,3.52-11.88-2.76c-2.79-.65-4.53-3.47-3.88-6.28.56-2.46,2.78-4.12,5.2-4.05l.05,3.62Z"/><path class="cls-4" d="m68.42,139.99l-9.78-2.27c-1.93-.45-3.85.76-4.3,2.71s.76,3.88,2.69,4.33l9.78,2.27-.8,3.52-9.78-2.27c-3.87-.9-6.27-4.76-5.38-8.65.89-3.89,4.73-6.31,8.6-5.41l9.78,2.27-.8,3.52Z"/><path class="cls-4" d="m65.25,153.85l-.8,3.52-12.93-3-1.61,7.03-3.49-.81,2.41-10.55,16.42,3.81Z"/><path class="cls-4" d="m51.78,165.68c1.45-2.58,4.62-3.99,7.83-3.24l3.49.81-.8,3.52-3.49-.81c-1.93-.45-3.81.55-4.19,2.24-.38,1.66.86,3.41,2.8,3.86l3.49.81-.8,3.52-3.49-.81c-3.21-.75-5.45-3.41-5.63-6.37l-6.2-1.44.81-3.52,6.2,1.44Z"/></svg>