<?xml version="1.0" encoding="UTF-8"?><svg id="Layer_2" xmlns="http://www.w3.org/2000/svg" width="185.62" height="370.27" xmlns:xlink="http://www.w3.org/1999/xlink" viewBox="0 0 185.62 370.27"><defs><style>.cls-1{fill:url(#linear-gradient);}.cls-1,.cls-2,.cls-3,.cls-4,.cls-5,.cls-6,.cls-7,.cls-8,.cls-9,.cls-10,.cls-11,.cls-12,.cls-13,.cls-14,.cls-15{stroke-width:0px;}.cls-2{fill:url(#linear-gradient-6);}.cls-4{fill:#e0e0e0;}.cls-5{fill:url(#linear-gradient-5);}.cls-6{fill:#d9e021;}.cls-6,.cls-14{opacity:.71;}.cls-7{fill:#418c46;}.cls-8{fill:#588c5c;}.cls-9{fill:#5bab60;}.cls-10{fill:url(#linear-gradient-2);}.cls-11{fill:url(#linear-gradient-3);}.cls-12{fill:#ffefe1;}.cls-13{fill:#dbdbdb;}.cls-14{fill:#8cc63f;}.cls-15{fill:url(#linear-gradient-4);}</style><linearGradient id="linear-gradient" x1="112.31" y1="752.48" x2="137.69" y2="844.37" gradientTransform="translate(375.01 -698.11) rotate(29.94)" gradientUnits="userSpaceOnUse"><stop offset="0" stop-color="#6c9"/><stop offset="1" stop-color="#9fc"/></linearGradient><linearGradient id="linear-gradient-2" x1="-2.76" y1="909.04" x2="-39.23" y2="869.69" gradientTransform="translate(248.51 -861.69) rotate(10.07)" gradientUnits="userSpaceOnUse"><stop offset="0" stop-color="#f5f5f5"/><stop offset="1" stop-color="#703e78"/></linearGradient><linearGradient id="linear-gradient-3" x1="6.26" y1="910.57" x2="40.23" y2="861.27" xlink:href="#linear-gradient-2"/><linearGradient id="linear-gradient-4" x1="12.16" y1="917.17" x2="49.22" y2="934.93" gradientTransform="translate(248.51 -861.69) rotate(10.07)" gradientUnits="userSpaceOnUse"><stop offset="0" stop-color="#f7f7f7"/><stop offset="1" stop-color="#703e78"/></linearGradient><linearGradient id="linear-gradient-5" x1="3.85" y1="921.04" x2="10.61" y2="967.77" gradientTransform="translate(248.51 -861.69) rotate(10.07)" gradientUnits="userSpaceOnUse"><stop offset="0" stop-color="#ededed"/><stop offset="1" stop-color="#703e78"/></linearGradient><linearGradient id="linear-gradient-6" x1="-41.63" y1="926.96" x2="3.17" y2="914.01" gradientTransform="translate(248.51 -861.69) rotate(10.07)" gradientUnits="userSpaceOnUse"><stop offset="0" stop-color="#703e78"/><stop offset="1" stop-color="#fff"/></linearGradient></defs><path class="cls-1" d="m.31.58l.98,369.55L185.31,49.65S90.14-5.34.31.58Z"/><path class="cls-12" d="m.88,93.91l.41,276.23,137.64-239.71S67.94,89.4.88,93.91Z"/><path class="cls-8" d="m72.37,97.24c-.44-3.76-.67-7.55-1.44-11.26-1.06-4.86-2.71-9.56-4.7-14.11-3.03-7.78-6.47-13.63-13.67-18.19-1.02-.68-1.19-.79-2.09-1.38-.26-.14-.49-.37-.79-.36-.4-.04-.76.28-.83.66-.12.92,1.16,1.18,1.24,1.37,1.06.69,1.83,1.18,3.12,2.14,5.56,3.84,8.47,8.81,10.91,14.88,2.08,4.63,4.34,10.91,5.21,15.11.74,3.58.99,7.24,1.4,10.86.04.35.03.74.33.98.51.46,1.41.01,1.32-.69Z"/><path class="cls-8" d="m93.04,38.45c-1.39,1.02-2.41,2.44-3.52,3.74-1.38,1.58-2.71,3.2-3.81,4.98-1.32,2.1-2.29,4.38-3.35,6.62-1.35,2.68-2.55,5.44-3.66,8.23-1.72,3.72-3.47,7.44-5.01,11.24-1.77,5.08-3,10.32-3.57,15.67.07,1.07-.68,4.74.77,4.75,1.19-.13.75-1.02.73-1.67.02-1.41.04-2.43.15-3.34.55-5.03,1.96-10.73,3.41-14.83,1.33-3.18,2.7-6.34,4.18-9.45,1.33-2.81,2.33-5.76,3.74-8.53,1.57-3.3,3.18-7.06,4.69-9.13,1.6-2.21,4.05-5.18,5.48-6.67.3-.3.78-.48.86-.92.12-.59-.61-1.08-1.1-.7Z"/><path class="cls-8" d="m122.57,70.78c-11.02-3.26-23.14-2.42-33.78,1.85-1.23.53-2.36,1.24-3.51,1.91-1.22.57-3.14,1.76-4.66,2.98-3.06,2.52-5.72,5.55-8.05,8.75-1.05,1.62-1.99,3.35-2.32,5.28-.1.5-.33,1.15.23,1.46.45.33,1.15.02,1.23-.53.16-.68.26-1.38.49-2.04.17-.62,1.47-3.02,2.04-3.75,3.64-4.68,7.43-8.68,12.23-10.95,2.11-1.38,4.62-2.41,7.52-3.15,5.51-1.72,11.93-2.48,17.51-2.04,2.82.1,5.6.47,8.32,1.18.83.2,1.65.44,2.47.66.21.04.43-.01.6-.13.57-.38.38-1.37-.32-1.47Z"/><path class="cls-9" d="m120.86,70.64c-.82-.74-1.63-1.47-2.35-2.31-.36-.42-.73-.84-1.12-1.23-.54-.54-1.05-1.09-1.6-1.62s-.98-1.08-1.47-1.63c-.22-.25-.49-.45-.7-.71s-.39-.56-.56-.85c-.91-1.43-.73-3.27.22-4.65.4-.58,1.06-1.1,1.68-1.41.34-.17.69-.35,1.07-.42s.81.03,1.19.12c.31.08.66.16.95.31.38.2.58.56.88.87.52.54.87,1.04,1.17,1.73s.6,1.33.74,2.05c.16.78.39,1.55.44,2.35.02.41.11.81.14,1.23s0,.8.03,1.2c.05.75.1,1.51.04,2.26-.05.62-.07,1.2-.05,1.82.01.37.08.74,0,1.1"/><path class="cls-9" d="m121.91,69.56c-1.76-1.6-3.28-3.4-4.97-5.06-.75-.73-1.52-1.53-2.18-2.34-.57-.69-.92-1.55-.76-2.45s.65-1.57,1.41-2.02c.66-.39,1.44-.6,2.11-.06,1.51,1.21,2.12,3.55,2.35,5.37.15,1.18.19,2.36.24,3.54.03.69-.02,1.38-.05,2.07-.03.61.11,1.29.04,1.89-.09.8.25,1.6,1.11,1.81.71.17,1.72-.3,1.81-1.11.09-.77.01-1.51.03-2.27.01-.73.09-1.45.07-2.17-.04-1.36-.1-2.73-.28-4.09-.36-2.69-1.3-5.46-3.37-7.32-1.01-.91-2.91-1.32-4.19-.88s-2.52,1.29-3.32,2.45c-1.68,2.47-1.07,5.6.96,7.65,2.33,2.35,4.44,4.92,6.9,7.14,1.43,1.3,3.53-.85,2.1-2.15h0Z"/><path class="cls-7" d="m121.53,70.23c-.14-1.07-.03-2.14-.06-3.21-.01-.47.03-.92.06-1.38.03-.39-.01-.78,0-1.18.03-.95.04-1.91.12-2.86.06-.7.14-1.44.33-2.11.25-.88.88-1.59,1.68-2.01.74-.38,1.5-.55,2.32-.65,1.39-.16,2.94.49,3.54,1.82.38.84.6,1.71.59,2.64,0,1.04-.19,2.1-.55,3.07-.28.76-.71,1.56-1.28,2.14-.48.49-.99.93-1.55,1.32s-1.18.8-1.81,1.15c-.56.31-1.1.71-1.63,1.08-.18.13-.34.27-.52.39s-.26.27-.4.42c-.16.16-.37.32-.38.57"/><path class="cls-7" d="m123.03,70.19c-.14-1.19-.08-2.43-.05-3.63s.05-2.38.09-3.57c.04-1.03.01-2.31.42-3.27.33-.79,1.17-1.11,1.96-1.3s1.58-.21,2.24.26c.61.44.85,1.39.92,2.13.19,2.14-.64,4.17-2.32,5.49-1.02.8-2.19,1.35-3.24,2.1-.96.68-2.19,1.46-2.49,2.68-.45,1.87,2.46,2.58,2.92.7-.09.37-.19.28,0,.13.1-.08.16-.2.25-.29.17-.16.37-.29.56-.43.54-.39,1.09-.74,1.67-1.07,1.22-.71,2.45-1.55,3.43-2.58,1.92-2.02,2.67-5.34,2.04-8.03-.31-1.35-.96-2.54-2.11-3.34-.99-.69-2.28-.97-3.47-.83-1.4.16-2.75.56-3.84,1.48s-1.51,2.16-1.7,3.49c-.23,1.66-.26,3.33-.26,5s-.2,3.31,0,4.95c.09.8.68,1.48,1.54,1.46.76-.02,1.55-.73,1.46-1.54h0Z"/><path class="cls-9" d="m122.66,71.67c.47-.16.95-.27,1.44-.33.59-.07,1.18-.17,1.77-.23.99-.09,1.98-.14,2.97-.05,1.35.13,2.7.27,4.02.6,1.13.29,2.26.63,3.35,1.04,1.75.65,3.6,1.91,4.26,3.75.24.68.5,1.57.21,2.27-.2.5-.46.92-.94,1.18-1.11.6-2.57.72-3.76.29-.8-.28-1.61-.57-2.35-.99-.82-.47-1.62-.96-2.42-1.47-.95-.6-1.95-1.14-2.9-1.74-1.11-.7-2.25-1.33-3.36-2.02-.35-.22-.69-.47-1.05-.69-.28-.17-.58-.3-.84-.49-.16-.12-.31-.19-.47-.3-.1-.07-.17-.17-.31-.17"/><path class="cls-9" d="m123.07,73.11c3.21-1.01,6.91-.68,10.11.19,1.51.41,3.14.85,4.41,1.81.81.61,1.91,1.87,1.71,2.98-.24,1.29-2.47.81-3.28.53-1.69-.6-3.15-1.64-4.67-2.56s-2.97-1.79-4.46-2.67c-1.38-.82-2.76-2-4.26-2.53-.76-.27-1.63.38-1.81,1.11-.21.86.34,1.54,1.11,1.81l.17.06-.7-.39c1.24.97,2.69,1.77,4.04,2.57,1.49.88,2.98,1.78,4.46,2.67,2.71,1.63,5.64,3.8,8.99,3.09,1.55-.33,2.86-1.28,3.28-2.85.38-1.41-.16-3.13-.96-4.31-1.75-2.57-4.79-3.58-7.67-4.34-3.56-.94-7.75-1.18-11.3-.07-1.84.58-1.01,3.46.83,2.88h0Z"/><path class="cls-7" d="m122.71,72.87c1.66.74,3.16,1.71,4.75,2.59.67.37,1.37.7,2.04,1.07s1.32.77,1.98,1.15c1.32.77,2.63,1.52,3.86,2.43,1.02.75,2.07,1.51,2.88,2.5.57.7,1.01,1.57,1.31,2.43.19.52.3,1.12.23,1.67-.06.52-.35,1.15-.71,1.53-.54.58-1.19,1.09-1.9,1.45s-1.38.56-2.17.6c-1.25.06-2.34-.6-3.32-1.29-.56-.39-1.03-.8-1.44-1.35s-.78-1.1-1.14-1.65c-.64-.99-1.24-2.03-1.77-3.08-.65-1.29-1.16-2.63-1.86-3.89-.74-1.35-1.55-2.66-2.3-4-.39-.7-.73-1.43-1.16-2.11-.18-.27-.29-.57-.55-.78"/><path class="cls-7" d="m121.98,74.18c1.54.71,2.98,1.6,4.45,2.42s2.9,1.55,4.32,2.38c2.51,1.46,5.77,3.06,7.08,5.81.25.53.56,1.21.43,1.81s-.74,1.06-1.23,1.39c-1.22.83-2.46.99-3.75.24s-2.1-1.77-2.91-3.03c-.88-1.37-1.66-2.8-2.34-4.28-.81-1.78-1.72-3.47-2.7-5.15-.89-1.52-1.59-3.47-2.84-4.74-1.36-1.37-3.46.78-2.1,2.15.54.54.87,1.46,1.23,2.13.5.94,1.04,1.84,1.58,2.76,1,1.72,1.8,3.5,2.68,5.29,1.6,3.27,3.66,6.83,7.28,8.11,3.21,1.13,8.12-1.43,8.13-5.1,0-3.86-3.53-6.54-6.43-8.42-1.78-1.15-3.63-2.24-5.51-3.2-1.99-1.02-3.88-2.26-5.92-3.2-1.74-.8-3.21,1.82-1.45,2.63h0Z"/><path class="cls-9" d="m120.48,72.31c-.63.79-1.4,1.45-2.07,2.21s-1.39,1.54-2.09,2.31c-.42.46-.76.96-1.16,1.44-.31.38-.64.73-.93,1.12-.61.8-1.24,1.66-1.7,2.56-.5.99-1.03,2.1-1.08,3.22-.03.8.07,1.7.48,2.4.45.76,1.21,1.26,1.98,1.67.87.46,1.81.86,2.82.82,1.17-.05,2.27-.44,3.22-1.11,1.15-.81,1.86-2.07,2.33-3.37.38-1.03.73-2.05.87-3.14.15-1.2.05-2.5-.24-3.67-.46-1.85-1.13-3.65-1.62-5.49-.04-.13-.07-.26-.11-.4s-.08-.23-.12-.35c-.05-.14-.14-.39-.13-.54"/><path class="cls-9" d="m119.41,71.26c-1.11,1.35-2.4,2.58-3.58,3.88-1.11,1.23-2.18,2.52-3.16,3.85-1.87,2.52-3.86,6.28-2.02,9.35.87,1.46,2.57,2.38,4.13,2.91s3.27.31,4.76-.36c3.07-1.37,4.65-4.92,5.07-8.1.26-1.97-.06-3.85-.61-5.74-.3-1.03-.64-2.04-.94-3.06-.18-.6-.56-1.45-.63-2.03-.21-1.9-3.22-1.85-3,.07.13,1.14.6,2.34.94,3.44.43,1.37.92,2.75,1.2,4.16s.17,2.73-.22,4.06c-.34,1.16-.76,2.43-1.55,3.38-1.62,1.93-4.52,1.88-6.27.12s.55-5.13,1.68-6.63c.94-1.24,1.96-2.43,3-3.58,1.1-1.21,2.31-2.36,3.34-3.62,1.22-1.48-.92-3.59-2.15-2.1h0Z"/><path class="cls-7" d="m120.51,72.19c-.8,1.02-1.7,1.95-2.62,2.86s-1.72,1.81-2.57,2.73c-.7.76-1.42,1.51-2.13,2.27-.37.4-.74.79-1.09,1.21s-.67.86-1.05,1.24c-.69.69-1.43,1.41-2.42,1.59-.62.11-1.23.21-1.86.22-.7.01-1.33-.18-2.01-.32-.75-.15-1.49-.51-2.08-.99-.67-.55-1.15-1.39-1.24-2.26-.07-.59.13-1.23.29-1.79.17-.6.48-1.12.82-1.63.39-.59.82-1.14,1.35-1.61.69-.61,1.52-1.08,2.32-1.52s1.6-.83,2.44-1.14,1.65-.49,2.49-.69c1.38-.33,2.76-.63,4.16-.84.56-.08,1.13-.15,1.69-.22.45-.06.89-.15,1.34-.18s.97-.09,1.44-.04c.24.02.48,0,.72.06"/><path class="cls-7" d="m119.43,71.14c-.96,1.19-2.04,2.25-3.1,3.34s-2.09,2.26-3.15,3.38c-.99,1.05-1.92,2.14-2.87,3.23s-1.72,1.58-3.11,1.69c-1.19.09-2.96-.2-3.79-1.16s-.34-2.33.28-3.32c1.38-2.22,4.17-3.53,6.62-4.18,1.66-.45,3.37-.84,5.07-1.1s3.44-.56,5.16-.39c.81.08,1.48-.8,1.46-1.54-.02-.89-.73-1.38-1.54-1.46-1.86-.19-3.74.16-5.57.45s-3.64.67-5.42,1.15c-3.32.89-6.68,2.74-8.49,5.75-.85,1.41-1.37,3.28-.82,4.88.59,1.74,2.05,2.91,3.77,3.45s3.52.63,5.26.18,2.84-1.79,3.89-3.06c2.66-3.22,5.9-5.94,8.51-9.2.51-.63.59-1.52-.03-2.12-.54-.52-1.61-.61-2.12.03h0Z"/><path class="cls-7" d="m51.38,52.39c.85-.64,1.58-1.41,2.42-2.07.64-.5,1.31-.97,1.95-1.47,1.32-1.04,2.55-2.2,3.89-3.22,1.69-1.29,3.25-2.73,4.83-4.15.63-.57,1.27-1.12,1.87-1.71.49-.48,1.05-.81,1.66-1.12,1.24-.63,2.43-1.1,3.81-1.26.85-.1,1.73.14,2.37.74.18.17.24.38.35.6.18.36.34.66.39,1.08.11.89.15,1.95-.06,2.83s-.44,1.83-.78,2.69c-.47,1.2-1.19,2.18-2.08,3.1-.71.73-1.39,1.38-2.37,1.72-1.29.46-2.63.74-4,.81-3.2.17-6.38.49-9.55.99-1.3.21-2.59.42-3.86.78-.43.12-1.01.17-1.36.47"/><path class="cls-7" d="m52.15,53.68c2.92-2.29,5.7-4.75,8.62-7.04,1.6-1.25,3.1-2.6,4.61-3.96s2.7-2.55,4.53-3.26c.7-.27,1.56-.59,2.32-.55,1.02.05,1.21.89,1.27,1.77.12,1.7-.43,3.69-1.3,5.15s-2.13,2.7-3.75,3.18c-1.89.56-3.85.54-5.8.7-2.25.19-4.5.46-6.73.81-1.08.17-2.17.34-3.24.59-.86.2-1.81.35-2.56.84-1.62,1.06-.08,3.64,1.54,2.58.7-.46,1.9-.55,2.71-.72,1.19-.24,2.39-.42,3.59-.58,2.34-.32,4.69-.54,7.05-.69,2.08-.13,4.43-.35,6.25-1.47,1.58-.97,3.01-2.64,3.84-4.29,1.55-3.08,2.83-9.43-1.66-10.7-2-.57-4.23.34-6,1.23-1.94.97-3.45,2.64-5.04,4.08-1.97,1.78-4.07,3.39-6.09,5.11-1.85,1.58-3.77,3.14-5.69,4.64-.64.5-.96,1.29-.52,2.06.37.63,1.42,1.02,2.06.52h0Z"/><path class="cls-9" d="m50.97,52.68c.46-1.15.91-2.26,1.15-3.49.27-1.35.48-2.7.72-4.05.5-2.83.99-5.7,2.37-8.27.77-1.44,1.73-2.79,2.81-4.01,1.14-1.29,2.52-2.26,4.13-2.88,1.13-.43,2.52-.61,3.7-.24.7.22,1.65.76,1.96,1.47.26.59.47,1.3.39,1.94-.12,1.02-.58,2.03-1,2.96-.58,1.3-1.35,2.56-2.16,3.74-1.15,1.68-2.61,3.09-4.07,4.5-1.12,1.08-2.28,2.13-3.44,3.16s-2.52,2.01-3.73,3.08c-.62.54-1.18,1.11-1.86,1.58-.22.15-.42.34-.64.49-.12.08-.26.12-.37.22"/><path class="cls-9" d="m52.29,53.41c.72-1.8,1.25-3.53,1.59-5.44s.63-3.83,1.05-5.72c.78-3.52,2.42-6.99,5.21-9.37,1.2-1.02,2.85-1.91,4.46-1.84.6.03,1.45.21,1.84.74.54.73.22,1.77-.06,2.53-1.33,3.56-3.76,6.38-6.45,8.98-1.59,1.54-3.24,3.03-4.96,4.42-1.58,1.27-3.05,2.8-4.78,3.86s-.11,3.59,1.54,2.58c1.84-1.13,3.37-2.73,5.05-4.07,1.79-1.43,3.5-2.96,5.16-4.55,3.21-3.08,6.15-6.57,7.5-10.9.62-1.98.22-4.28-1.55-5.54-1.63-1.16-3.73-1.28-5.6-.73-4,1.17-7.04,4.86-8.73,8.52-2.21,4.79-1.93,10.22-3.87,15.08-.3.76-.18,1.6.59,2.04.64.36,1.74.16,2.04-.59h0Z"/><path class="cls-13" d="m51.15,55.34c1.93,0,1.86-3-.07-3s-1.86,3,.07,3h0Z"/><path class="cls-7" d="m50.47,53.55c-.98-.61-1.94-1.31-3-1.77-.67-.29-1.3-.6-2-.81-.83-.26-1.64-.59-2.46-.86s-1.58-.51-2.38-.77c-.95-.3-1.87-.66-2.83-.93-.89-.25-1.83-.28-2.72-.56-.97-.31-1.89-.72-2.66-1.41-.98-.87-1.27-2.29-.81-3.5.49-1.33,1.5-2.74,2.87-3.23.92-.33,1.86-.54,2.83-.65.61-.07,1.22-.08,1.83-.02.86.09,1.64.42,2.4.82,1.47.75,2.84,1.75,3.98,2.95.5.52.93,1.11,1.37,1.69.42.54.81,1.07,1.13,1.67s.63,1.26.92,1.9c.32.71.54,1.43.79,2.16.3.87.62,1.73.97,2.58.16.39.27.59.61.82"/><path class="cls-7" d="m51.19,52.24c-1.41-.89-2.77-1.72-4.32-2.34s-3.24-1.17-4.87-1.69-3.31-1.21-5.04-1.5c-1.22-.21-2.95-.51-3.74-1.6-.71-.98-.1-2.22.56-3.04.95-1.19,2.67-1.47,4.11-1.55,3.13-.18,5.95,2.42,7.71,4.74,1.06,1.4,1.86,2.94,2.43,4.6.29.86.59,1.71.92,2.56s.6,1.71,1.33,2.28c.64.5,1.51.59,2.12-.03.52-.53.61-1.62-.03-2.12-.55-.43-.73-1.45-.96-2.09-.34-.96-.64-1.93-1.04-2.86-.78-1.8-1.75-3.35-2.96-4.89-2.26-2.86-5.98-5.46-9.77-5.18-1.87.14-3.92.56-5.37,1.81-1.25,1.08-2.24,2.79-2.36,4.45s.71,3.24,2.09,4.24c1.56,1.13,3.28,1.35,5.1,1.77,2.22.51,4.46,1.38,6.6,2.16,1.02.37,2.04.7,3.03,1.15,1.06.49,2.02,1.15,3,1.77,1.63,1.03,3.08-1.6,1.45-2.63h0Z"/><path class="cls-9" d="m50.39,53.01c-1.45-.72-2.85-1.5-4.32-2.18-.68-.31-1.37-.63-2.06-.9-.87-.34-1.77-.58-2.67-.82-1.79-.48-3.61-.92-5.46-1.09-1.75-.16-3.58-.24-5.32.13-1.38.29-2.75,1.02-3.57,2.19s-.82,2.65-.15,3.86c.31.56.73,1.06,1.14,1.55.35.42.71.79,1.17,1.1,1.47.98,2.98,1.7,4.7,2.16,1.39.37,2.87.47,4.31.36,1.2-.09,2.33-.54,3.44-.96.88-.34,1.72-.72,2.53-1.21.68-.42,1.33-.87,2.04-1.23,1.03-.53,1.97-1.23,3.09-1.56.4-.11.69-.42,1.1-.52.12-.03.25-.03.36-.07s.24-.17.37-.15"/><path class="cls-9" d="m51.11,51.7c-1.98-.99-3.92-2.06-5.97-2.91s-4.39-1.46-6.63-1.89c-3.75-.73-8.64-1.2-11.76,1.48-3.34,2.87-1.66,7.42,1.49,9.66s7.7,3.55,11.63,2.53c2.31-.6,4.32-1.74,6.34-2.94,1.63-.97,3.43-2.07,5.27-2.52s1.04-3.35-.83-2.88c-3.74.93-6.72,3.75-10.33,5.05-3.87,1.4-9.09.32-11.67-3.05-1.34-1.75-.72-3.51,1.29-4.34s4.46-.58,6.5-.3c2.27.31,4.61.88,6.77,1.65s4.33,2.03,6.45,3.1c1.72.86,3.18-1.76,1.45-2.63h0Z"/><path class="cls-7" d="m51.25,54.37c.05.26-.03.46-.11.72-.14.41-.32.72-.58,1.06-.31.4-.61.79-.99,1.13-.29.26-.59.52-.89.78s-.57.49-.87.72c-.4.3-.75.64-1.1.98-.69.67-1.39,1.32-2.02,2.05s-1.13,1.47-1.43,2.34c-.26.76-.42,1.55-.41,2.35.03,2.25,1.37,4.59,3.43,5.56.88.41,1.89.63,2.85.46.54-.1,1.18-.25,1.67-.51s.94-.6,1.34-.99c.91-.87,1.42-2.15,1.77-3.35s.48-2.37.43-3.57-.32-2.41-.51-3.61c-.15-.98-.41-1.94-.75-2.87-.15-.4-.22-.8-.33-1.21-.09-.33-.22-.67-.33-.99-.08-.22-.19-.42-.28-.64-.04-.1-.06-.19-.14-.27"/><path class="cls-7" d="m49.75,54.41c.03.49-.53,1.06-.83,1.39-.56.62-1.23,1.16-1.88,1.68-1.33,1.07-2.66,2.28-3.73,3.63-2.16,2.72-2.64,6.37-.81,9.41s5.24,4.32,8.45,3.04,4.62-4.93,4.86-8.19c.15-2.07-.27-4.25-.73-6.27-.22-.95-.56-1.86-.81-2.8-.23-.86-.51-1.8-.98-2.56-1.01-1.65-3.59-.11-2.58,1.54.15.25.46,1.05.6,1.55.2.72.43,1.43.64,2.15.42,1.44.7,3,.84,4.5.22,2.35-.23,5.65-2.41,7.03s-4.77-.02-5.68-2.24c-1.14-2.79.57-5.04,2.49-6.91,1.1-1.07,2.32-1.99,3.44-3.04,1.04-.99,2.2-2.47,2.11-3.99-.11-1.92-3.11-1.86-3,.07h0Z"/><path class="cls-9" d="m52.18,54.66c.5,1.21.64,2.51.99,3.76.14.52.38,1,.54,1.51.18.54.33,1.09.46,1.64.27,1.21.58,2.44,1.02,3.61.31.84.58,1.75.97,2.56.18.38.38.77.65,1.08.23.27.55.53.84.75.59.44,1.36.65,2.09.73.67.07,1.38,0,1.97-.35.75-.44,1.27-1.19,1.59-1.98.2-.5.41-1,.5-1.54s.06-1.06.06-1.59c0-1.29-.08-2.6-.67-3.78-.3-.6-.66-1.2-1.07-1.72-.38-.49-.82-.9-1.3-1.3-.76-.64-1.46-1.37-2.27-1.94-1.53-1.06-3.34-1.52-5.1-2.03-.47-.14-.99-.17-1.45-.35-.14-.06-.27-.11-.4-.19-.08-.04-.15-.11-.23-.14"/><path class="cls-9" d="m50.74,55.08c.6,1.55.77,3.21,1.35,4.77s.82,3.16,1.3,4.72.96,3.26,1.83,4.62c.92,1.45,2.47,2.37,4.16,2.58s3.19-.24,4.26-1.52,1.64-2.89,1.71-4.48c.07-1.67-.01-3.46-.68-5.02s-1.6-2.72-2.8-3.78c-1.46-1.28-2.82-2.51-4.65-3.25-.85-.34-1.71-.61-2.58-.86s-1.79-.32-2.55-.77c-1.66-.99-3.1,1.63-1.45,2.63,1.16.69,2.58.84,3.86,1.22,1.2.36,2.4.78,3.41,1.54,1.94,1.45,4.12,3.36,4.39,5.91.18,1.71.22,5.66-2.41,5.42-1.18-.11-1.96-.8-2.43-1.84-.58-1.26-1.02-2.66-1.39-3.99-.39-1.41-.66-2.84-1.18-4.21-.56-1.47-.68-3.05-1.26-4.52-.29-.75-1.03-1.26-1.86-1.03-.72.21-1.32,1.1-1.03,1.86h0Z"/><path class="cls-10" d="m91.85,39.42c-.77-.4-1.57-.72-2.31-1.18-.59-.37-1.19-.7-1.82-.99-.72-.33-1.44-.68-2.11-1.1-.35-.22-.73-.38-1.09-.57-.63-.34-1.24-.73-1.83-1.13-2.1-1.41-3.56-3.54-4.77-5.74-.44-.8-.69-1.71-.9-2.59-.17-.72-.33-1.52-.12-2.25.09-.3.17-.71.39-.94.15-.16.35-.17.51-.3.49-.39.13-1.2.81-1.42.23-.07.49-.09.72-.19.15-.06.22-.16.36-.25.55-.34,1.04.02,1.59.06.44.03.86-.14,1.29-.07.53.09,1.02.27,1.54.37.62.12,1.19.53,1.69.89.88.65,1.61,1.69,2.13,2.65.69,1.28,1.09,2.67,1.51,4.06s.72,2.91,1.04,4.35c.28,1.2.51,2.42.79,3.62.12.52.29,1.03.38,1.56.05.28.07.62.25.85"/><path class="cls-13" d="m91.88,39.37c-.8-.42-1.63-.77-2.4-1.24-.39-.24-.79-.47-1.19-.67s-.82-.39-1.23-.59-.81-.41-1.21-.64c-.2-.12-.39-.24-.59-.34s-.41-.2-.61-.31c-.41-.21-.81-.45-1.21-.7-.37-.24-.74-.48-1.1-.74-1.3-.96-2.35-2.21-3.23-3.55-.44-.66-.87-1.35-1.23-2.06-.4-.78-.62-1.65-.82-2.5-.1-.43-.19-.87-.2-1.32,0-.42.09-.82.21-1.22.06-.18.13-.38.26-.52s.33-.17.48-.28c.22-.16.3-.42.35-.67s.08-.54.31-.69c.16-.11.38-.13.56-.17s.36-.09.51-.21c.17-.14.35-.25.58-.27.2-.01.39.03.58.09s.37.1.56.12c.21.02.42-.01.63-.04.23-.03.46-.06.68-.02s.44.09.66.15.43.12.65.17.41.09.62.16c.4.15.76.39,1.11.64s.64.49.91.79c1.18,1.26,1.89,2.86,2.41,4.48.28.86.54,1.74.77,2.61s.42,1.81.62,2.71.41,1.85.61,2.78c.1.47.2.93.31,1.4s.24.89.34,1.35c.07.36.07.77.3,1.08.04.05.12,0,.09-.05-.12-.16-.17-.36-.2-.56-.04-.21-.07-.42-.12-.63-.1-.46-.24-.91-.35-1.37-.22-.95-.41-1.9-.62-2.85s-.41-1.85-.62-2.78-.45-1.81-.72-2.71-.53-1.73-.88-2.56c-.33-.78-.75-1.54-1.26-2.23-.24-.33-.5-.64-.79-.93s-.6-.52-.93-.75c-.35-.24-.72-.46-1.13-.58-.21-.06-.42-.1-.64-.15s-.43-.12-.65-.17-.43-.11-.65-.12-.44.03-.66.06-.44.04-.67,0c-.2-.04-.39-.11-.59-.15-.18-.04-.36-.05-.54,0-.19.05-.34.15-.49.27-.32.25-.77.15-1.09.39-.45.35-.17,1.11-.72,1.39-.17.09-.33.14-.45.29-.11.14-.17.31-.23.47-.12.38-.22.77-.22,1.18,0,.45.08.9.18,1.33s.21.87.34,1.3.27.82.46,1.21.4.74.61,1.1c.82,1.39,1.76,2.73,2.95,3.84.62.58,1.3,1.07,2.02,1.52.39.25.79.49,1.2.71.21.11.42.21.63.32s.41.23.61.35c.79.48,1.65.83,2.47,1.25.42.21.82.44,1.22.69s.79.45,1.2.65.8.38,1.2.59c.06.03.11-.06.05-.09h0Z"/><path class="cls-11" d="m91.39,38.66c-.27-.9-.4-1.82-.5-2.75-.12-1.16.02-2.35.27-3.48.13-.59.39-1.21.71-1.73.63-1.02,1.41-1.98,2.22-2.86.71-.77,1.59-1.44,2.45-2.04.74-.51,1.53-.87,2.38-1.17.41-.14.82-.28,1.25-.37.33-.07.65-.19.98-.23.24-.03.48,0,.72,0,.31,0,.68-.03.97.11.19.09.32.27.53.33.34.1.72.08,1.08.11.24.02.52.05.74.17.28.16.41.49.58.75.12.17.38.27.4.48.02.25-.05.35.2.5.47.28.98.6,1.3,1.06.16.23.21.37.18.65-.02.16,0,.32-.03.48-.03.14-.09.28-.05.43.04.16.16.19.27.31.39.46.11,1.38-.06,1.86-.27.77-.54,1.61-1.04,2.26-.73.96-1.38,1.97-2.38,2.69-.78.57-1.65,1.02-2.48,1.48-.79.44-1.58.83-2.42,1.16-1.46.59-2.95.96-4.51,1.13-.77.08-1.53.01-2.31-.03-.19-.01-.42.02-.61-.03"/><path class="cls-13" d="m91.44,38.64c-.26-.87-.4-1.77-.49-2.67s-.04-1.84.11-2.75c.07-.43.15-.86.29-1.27s.31-.8.53-1.16c.46-.76.99-1.46,1.56-2.14s1.15-1.28,1.82-1.83c.33-.27.68-.53,1.03-.78s.7-.48,1.08-.68c.75-.41,1.57-.72,2.4-.95.21-.06.43-.1.65-.16s.43-.12.65-.16c.23-.04.47-.02.7,0,.2,0,.4,0,.61,0s.4.06.57.18c.14.1.26.22.43.26.41.11.84.07,1.25.12.2.02.42.06.58.19.15.11.24.27.34.42.08.14.15.28.27.39s.27.19.28.36c0,.11-.02.24.04.34.07.13.22.19.34.26.33.2.66.42.93.7.13.14.25.29.33.46s.04.34.04.52c0,.11,0,.22-.02.34-.02.1-.06.2-.06.3-.02.18.05.3.19.41.26.21.3.55.27.86s-.11.62-.21.92c-.25.74-.5,1.51-.92,2.16-.22.34-.48.66-.72.98s-.48.64-.75.94-.56.59-.88.84c-.34.27-.71.5-1.09.73s-.77.44-1.16.66-.78.43-1.17.63c-.8.41-1.62.77-2.47,1.06s-1.68.5-2.54.65c-.44.08-.89.15-1.34.18s-.94.02-1.4-.01c-.22-.01-.43-.03-.65-.04-.2-.01-.41.02-.61-.03-.06-.02-.09.08-.03.1.2.05.41.02.62.03.23.01.47.03.7.04.47.03.94.04,1.4,0,.89-.07,1.78-.24,2.65-.47s1.72-.52,2.54-.88,1.64-.8,2.44-1.24,1.58-.86,2.27-1.42c.63-.52,1.14-1.17,1.62-1.82.24-.33.51-.65.72-1s.38-.73.52-1.11c.13-.35.26-.7.37-1.06.1-.31.18-.63.19-.95,0-.29-.04-.62-.27-.82-.05-.05-.12-.09-.16-.15-.07-.11-.04-.24,0-.36.03-.1.05-.2.05-.31,0-.12,0-.23.02-.34.01-.16,0-.31-.08-.46-.08-.16-.2-.31-.32-.44-.27-.28-.59-.5-.92-.7-.12-.07-.32-.14-.34-.3-.02-.13.02-.26-.04-.38-.07-.13-.21-.21-.31-.32-.12-.12-.2-.3-.29-.44s-.2-.28-.35-.37c-.16-.1-.35-.14-.54-.16-.43-.06-.88,0-1.3-.13-.19-.05-.32-.21-.48-.31s-.35-.13-.53-.14c-.2-.01-.4,0-.61,0-.23,0-.45-.03-.68,0s-.46.1-.68.16-.44.1-.66.16c-.44.12-.87.27-1.29.44-.39.15-.76.32-1.13.52-.38.21-.75.45-1.1.7-.71.51-1.4,1.05-2.01,1.68s-1.18,1.32-1.71,2.04-.99,1.43-1.26,2.27c-.14.42-.22.86-.29,1.29-.08.46-.13.92-.15,1.38-.04.92.07,1.84.23,2.74.08.44.18.87.3,1.3.02.06.12.04.1-.03h0Z"/><path class="cls-15" d="m92.75,39.57c3.03-.64,6.14-.44,9.16.17,1.14.23,2.21.65,3.31,1.02s2.09.85,3.05,1.44c.64.39,1.24.85,1.75,1.4.41.44.78.91.91,1.51.05.24.08.49.13.73.05.21.08.44.04.66-.04.2-.14.37-.24.54-.13.22-.1.39-.08.63.01.19.02.39-.1.55-.13.17-.35.23-.46.42-.1.17-.1.38-.13.57-.05.26-.17.39-.37.56-.12.09-.26.16-.34.29-.11.17-.16.37-.27.55-.2.32-.42.66-.69.92-.59.58-1.53.56-2.3.58-1.32.04-2.7-.14-3.93-.61-.61-.24-1.18-.57-1.78-.84-.67-.3-1.24-.68-1.82-1.13-.54-.41-1.1-.83-1.58-1.3s-.99-1.07-1.39-1.65c-.53-.76-.95-1.63-1.41-2.44-.32-.57-.64-1.13-1-1.67-.49-.73-.84-1.54-1.35-2.26"/><path class="cls-13" d="m92.77,39.61c1.7-.36,3.44-.45,5.16-.36.86.05,1.72.14,2.57.28s1.69.28,2.51.53,1.6.53,2.39.81,1.53.62,2.26,1.02,1.38.84,1.97,1.39c.53.5,1.08,1.1,1.24,1.84.05.2.07.41.11.62.04.22.1.45.07.68-.02.21-.12.38-.23.56-.09.14-.12.29-.12.46,0,.19.04.38,0,.56s-.18.29-.33.4c-.13.09-.22.2-.27.36-.06.18-.04.37-.1.55-.04.14-.14.26-.25.35-.13.11-.29.19-.4.32-.11.14-.16.32-.24.48-.08.17-.2.33-.3.49-.21.31-.46.62-.8.8-.3.16-.63.23-.96.26s-.65.04-.98.04c-.41.01-.81,0-1.21-.03-.81-.06-1.61-.21-2.38-.48-.4-.14-.78-.31-1.16-.5s-.74-.36-1.1-.54c-.72-.35-1.35-.82-1.98-1.31-.33-.25-.66-.51-.96-.79s-.59-.57-.86-.88c-.55-.63-1.02-1.32-1.43-2.05s-.79-1.46-1.21-2.17c-.21-.36-.45-.71-.67-1.06s-.41-.7-.6-1.05-.39-.69-.62-1.02c-.04-.05-.12,0-.09.05.48.68.82,1.44,1.27,2.14s.91,1.46,1.32,2.21.79,1.48,1.28,2.16,1.05,1.32,1.68,1.87c.32.27.65.53.98.78s.64.49.97.71.7.42,1.07.59.75.37,1.13.55c.75.36,1.53.61,2.34.75s1.6.17,2.41.16c.64-.02,1.35-.02,1.92-.37.32-.2.55-.5.76-.81.11-.16.22-.32.3-.5s.13-.37.27-.49c.13-.11.28-.19.4-.32.1-.1.17-.22.21-.35.05-.18.04-.37.1-.55s.22-.26.36-.37.22-.24.25-.42,0-.36-.01-.54c0-.08,0-.16.03-.23.03-.1.1-.19.15-.29.09-.16.16-.33.17-.52.02-.21-.03-.42-.07-.63s-.07-.44-.12-.65c-.08-.35-.24-.68-.45-.97-.45-.62-1.04-1.15-1.66-1.6-.68-.49-1.42-.89-2.18-1.24s-1.57-.62-2.36-.9-1.64-.56-2.48-.72-1.72-.31-2.59-.4c-1.74-.19-3.5-.21-5.24.03-.43.06-.85.13-1.27.22-.06.01-.04.11.03.1h0Z"/><path class="cls-5" d="m91.76,38.92c-1.28.96-2.62,1.98-3.63,3.23-.81,1-1.5,2.15-2.06,3.3s-1.03,2.37-1.33,3.61c-.25,1.04-.49,2.42.19,3.34.61.83,1.69,1.59,2.76,1.58.29,0,.51-.08.78-.17.13-.04.31-.15.44-.16.36-.02.67.43.97.57.25.12.52.21.8.22.13,0,.26,0,.39.07s.11.11.27.1c.25-.01.4-.24.64-.29.2-.04.44.07.63.13.36.12.7.27,1.08.31.86.1,2.02-.17,2.66-.77.46-.43.76-1,1.02-1.57.24-.53.41-1.07.44-1.65.02-.45-.08-.84-.15-1.27-.09-.55-.33-1.02-.55-1.52-.6-1.35-1.24-2.65-2.02-3.9s-1.57-2.48-2.43-3.67c-.23-.31-.35-.56-.5-.91-.05-.11-.27-.37-.24-.49"/><path class="cls-13" d="m91.74,38.88c-1.24.93-2.5,1.88-3.5,3.07s-1.86,2.66-2.51,4.13c-.33.75-.62,1.51-.85,2.29-.2.67-.37,1.36-.43,2.06-.05.64,0,1.33.36,1.89.18.29.42.54.67.77.26.24.56.45.87.61s.64.28.99.32c.18.02.36.03.55,0s.35-.08.52-.13c.15-.05.3-.15.46-.17.15-.02.29.06.41.14.13.09.24.2.37.3s.26.16.41.22c.18.07.38.12.57.13.1,0,.2,0,.29.03.08.02.14.06.21.11.11.06.26.03.38-.02.13-.06.24-.17.38-.22.17-.06.36,0,.53.06.18.06.36.13.55.19.34.12.69.19,1.05.19.64,0,1.3-.15,1.85-.46.62-.34,1.02-.94,1.33-1.56.35-.7.65-1.46.62-2.25-.01-.39-.1-.78-.17-1.16s-.23-.75-.39-1.1c-.34-.75-.67-1.49-1.04-2.22s-.79-1.47-1.23-2.17-.9-1.43-1.37-2.14c-.24-.36-.48-.71-.73-1.06-.22-.31-.45-.62-.61-.97-.06-.13-.11-.26-.19-.39-.05-.08-.18-.22-.16-.33.01-.06-.08-.09-.1-.03-.02.11.05.23.11.32.07.11.13.22.19.34.07.16.15.33.24.48.1.16.21.32.32.47.49.68.95,1.37,1.41,2.08s.9,1.39,1.32,2.11.78,1.42,1.12,2.15c.17.37.34.74.51,1.11s.33.71.44,1.09c.05.19.08.38.12.57.04.2.08.41.1.61.04.4,0,.8-.1,1.19s-.25.74-.42,1.09c-.16.33-.33.65-.55.94-.21.27-.45.51-.74.69-.28.17-.59.28-.9.36s-.64.12-.96.13c-.36,0-.7-.07-1.04-.18-.18-.06-.36-.12-.55-.19-.15-.05-.32-.11-.48-.09-.15.02-.26.11-.39.19-.11.07-.28.16-.41.08-.06-.03-.11-.07-.17-.09-.09-.03-.19-.04-.29-.04-.2,0-.39-.04-.58-.11-.17-.06-.32-.13-.46-.24-.11-.09-.22-.19-.34-.27s-.24-.15-.37-.17c-.15-.02-.28.05-.41.11-.34.15-.71.23-1.07.21-.71-.05-1.39-.42-1.91-.89-.26-.23-.5-.48-.68-.77-.17-.27-.27-.59-.32-.9-.1-.66,0-1.33.15-1.98.17-.76.4-1.51.67-2.23.56-1.49,1.31-2.93,2.23-4.24.45-.64.95-1.23,1.52-1.78s1.15-1.02,1.76-1.5c.3-.23.6-.46.9-.68.05-.04,0-.12-.05-.09h0Z"/><path class="cls-2" d="m91.51,39.44c-1.25,1.12-2.45,2.31-3.72,3.42-.56.49-1.12.98-1.76,1.36-.76.46-1.65.74-2.49,1-.61.19-1.16.33-1.81.28-.6-.04-1.23-.2-1.81-.35-.97-.25-2-.69-2.81-1.3-.48-.37-1.27-.81-1.18-1.53.05-.38.22-.75.32-1.12s0-.6-.13-.94c-.17-.43-.34-.92-.67-1.26-.22-.23-.46-.43-.66-.68-.31-.39-.38-.84-.24-1.32.31-1.03,1.46-1.47,2.36-1.86.79-.34,1.6-.63,2.46-.73s1.74-.05,2.57.04c1.27.13,2.54.57,3.75.96,1.14.37,2.29.79,3.33,1.39.74.43,1.42.95,2.16,1.37.29.17.59.31.83.55.07.07.24.19.21.31"/><path class="cls-4" d="m91.47,39.41c-1.18,1.06-2.31,2.17-3.5,3.23-.57.5-1.14,1.02-1.77,1.43s-1.32.68-2.03.91-1.43.49-2.17.49c-.39,0-.78-.06-1.16-.14s-.73-.17-1.1-.27c-.69-.2-1.36-.47-1.98-.83-.27-.16-.53-.35-.78-.53-.22-.16-.44-.32-.63-.51s-.34-.42-.36-.69c-.02-.35.14-.71.25-1.04.06-.17.12-.34.12-.51,0-.15-.04-.3-.09-.45-.11-.32-.23-.64-.38-.94-.07-.15-.16-.29-.26-.42-.11-.14-.23-.26-.36-.38-.26-.25-.54-.51-.67-.86-.2-.59.06-1.23.48-1.65.4-.39.92-.64,1.43-.86.64-.28,1.28-.55,1.96-.73.75-.2,1.52-.25,2.29-.23s1.57.11,2.33.28,1.5.41,2.24.65,1.46.48,2.17.77,1.4.65,2.05,1.07c.32.21.64.42.96.63s.64.39.97.58c.15.09.3.18.44.3.07.06.29.21.26.32-.01.06.08.09.1.03.03-.13-.07-.22-.16-.3-.12-.11-.24-.21-.38-.3-.32-.21-.66-.38-.98-.58-.67-.42-1.31-.89-2.02-1.27s-1.41-.66-2.14-.92-1.51-.51-2.27-.74-1.55-.43-2.35-.52-1.59-.13-2.38-.06-1.52.28-2.23.56c-.3.12-.59.24-.88.37-.26.12-.53.24-.78.38-.48.27-.93.64-1.14,1.16-.12.3-.17.63-.11.94.07.34.28.61.52.85.26.26.54.49.73.82.18.31.29.65.42.98.06.16.12.32.12.49,0,.19-.07.38-.13.56-.11.33-.27.69-.24,1.04.05.55.55.91.95,1.2.26.19.51.38.78.54.31.19.64.36.97.5.68.29,1.4.49,2.12.65.38.08.77.15,1.16.16s.75-.04,1.12-.13.74-.21,1.11-.33.72-.24,1.08-.39c.7-.29,1.32-.7,1.91-1.18,1.25-1.02,2.4-2.16,3.58-3.26.29-.27.59-.54.88-.81.05-.04-.02-.11-.07-.07h0Z"/><path class="cls-6" d="m90.92,38.02c.06-.2.53-.2.69,0-.14-.2-.59-.28-.69,0Z"/><path class="cls-6" d="m90.23,37.7c-.37-.08-.48.5-.11.57.37.08.48-.5.11-.57Z"/><path class="cls-6" d="m90.9,38.2c-.37-.08-.48.5-.11.57.37.08.48-.5.11-.57Z"/><path class="cls-6" d="m91.47,38.63c-.37-.08-.48.5-.11.57.37.08.48-.5.11-.57Z"/><path class="cls-6" d="m91.32,39.2c-.37-.08-.48.5-.11.57.37.08.48-.5.11-.57Z"/><path class="cls-6" d="m90.26,38.79c-.37-.08-.48.5-.11.57.37.08.48-.5.11-.57Z"/><path class="cls-6" d="m90.68,37.94c-.37-.08-.48.5-.11.57.37.08.48-.5.11-.57Z"/><path class="cls-6" d="m91.67,37.52c-.37-.08-.48.5-.11.57.37.08.48-.5.11-.57Z"/><path class="cls-6" d="m92.11,38.09c-.37-.08-.48.5-.11.57.37.08.48-.5.11-.57Z"/><path class="cls-6" d="m91.38,38.23c-.37-.08-.48.5-.11.57.37.08.48-.5.11-.57Z"/><path class="cls-6" d="m90.87,38.09c-.37-.08-.48.5-.11.57.37.08.48-.5.11-.57Z"/><path class="cls-6" d="m90.52,37.59c-.23-.05-.3.32-.07.36.23.05.3-.32.07-.36Z"/><path class="cls-6" d="m90.82,36.83c-.37-.08-.48.5-.11.57.37.08.48-.5.11-.57Z"/><path class="cls-6" d="m91.78,36.89c-.37-.08-.48.5-.11.57.37.08.48-.5.11-.57Z"/><path class="cls-6" d="m92.49,37.45c-.37-.08-.48.5-.11.57.37.08.48-.5.11-.57Z"/><path class="cls-6" d="m92.45,38.59c-.37-.08-.48.5-.11.57.37.08.48-.5.11-.57Z"/><path class="cls-6" d="m91.22,38.85c-.37-.08-.48.5-.11.57.37.08.48-.5.11-.57Z"/><path class="cls-6" d="m90.62,37.66c-.37-.08-.48.5-.11.57.37.08.48-.5.11-.57Z"/><path class="cls-6" d="m91.68,37.47c-.37-.08-.48.5-.11.57.37.08.48-.5.11-.57Z"/><path class="cls-6" d="m92.41,38.25c-.37-.08-.48.5-.11.57.37.08.48-.5.11-.57Z"/><path class="cls-6" d="m92.09,39.12c-.37-.08-.48.5-.11.57.37.08.48-.5.11-.57Z"/><path class="cls-6" d="m92.58,39.42c-.37-.08-.48.5-.11.57.37.08.48-.5.11-.57Z"/><path class="cls-6" d="m93.14,38.71c-.37-.08-.48.5-.11.57.37.08.48-.5.11-.57Z"/><path class="cls-6" d="m93.13,37.84c-.37-.08-.48.5-.11.57.37.08.48-.5.11-.57Z"/><path class="cls-6" d="m92.6,37.15c-.37-.08-.48.5-.11.57.37.08.48-.5.11-.57Z"/><path class="cls-6" d="m90.86,36.89c-.37-.08-.48.5-.11.57.37.08.48-.5.11-.57Z"/><path class="cls-6" d="m90.33,37.18c-.37-.08-.48.5-.11.57.37.08.48-.5.11-.57Z"/><path class="cls-6" d="m90.81,37.48c-.37-.08-.48.5-.11.57.37.08.48-.5.11-.57Z"/><path class="cls-6" d="m90.9,37.28c-.37-.08-.48.5-.11.57.37.08.48-.5.11-.57Z"/><path class="cls-6" d="m90.86,37.22c-.37-.08-.48.5-.11.57.37.08.48-.5.11-.57Z"/><path class="cls-6" d="m90.51,37.37c-.37-.08-.48.5-.11.57.37.08.48-.5.11-.57Z"/><path class="cls-6" d="m91.19,37.82c-.37-.08-.48.5-.11.57.37.08.48-.5.11-.57Z"/><path class="cls-6" d="m90.66,37.13c-.37-.08-.48.5-.11.57.37.08.48-.5.11-.57Z"/><path class="cls-6" d="m91.38,36.44c-.37-.08-.48.5-.11.57.37.08.48-.5.11-.57Z"/><path class="cls-6" d="m92.2,36.05c-.37-.08-.48.5-.11.57.37.08.48-.5.11-.57Z"/><path class="cls-6" d="m93.2,36.49c-.37-.08-.48.5-.11.57.37.08.48-.5.11-.57Z"/><path class="cls-6" d="m93.86,37.37c-.37-.08-.48.5-.11.57.37.08.48-.5.11-.57Z"/><path class="cls-6" d="m93.93,38.79c-.37-.08-.48.5-.11.57.37.08.48-.5.11-.57Z"/><path class="cls-6" d="m93.28,39.44c-.37-.08-.48.5-.11.57.37.08.48-.5.11-.57Z"/><path class="cls-6" d="m92.48,39.67c-.37-.08-.48.5-.11.57.37.08.48-.5.11-.57Z"/><path class="cls-6" d="m91.37,39.53c-.37-.08-.48.5-.11.57.37.08.48-.5.11-.57Z"/><path class="cls-6" d="m92.44,39.88c-.37-.08-.48.5-.11.57.37.08.48-.5.11-.57Z"/><path class="cls-6" d="m93.18,39.69c-.37-.08-.48.5-.11.57.37.08.48-.5.11-.57Z"/><path class="cls-6" d="m93.66,39.39c-.17.26.26.5.4.23.17-.26-.26-.5-.4-.23Z"/><path class="cls-6" d="m93.58,37.99c-.27-.06-.36.38-.08.43.27.06.36-.38.08-.43Z"/><path class="cls-6" d="m92.6,36.82c-.37-.08-.48.5-.11.57.37.08.48-.5.11-.57Z"/><path class="cls-6" d="m91.7,35.85c-.37-.08-.48.5-.11.57.37.08.48-.5.11-.57Z"/><path class="cls-6" d="m91.46,35.37c-.37-.08-.48.5-.11.57.37.08.48-.5.11-.57Z"/><path class="cls-6" d="m92.51,35.83c-.37-.08-.48.5-.11.57.37.08.48-.5.11-.57Z"/><path class="cls-6" d="m93.57,36.88c-.37-.08-.48.5-.11.57.37.08.48-.5.11-.57Z"/><path class="cls-6" d="m94.12,38.01c-.37-.08-.48.5-.11.57.37.08.48-.5.11-.57Z"/><path class="cls-6" d="m94.42,38.77c-.37-.08-.48.5-.11.57.37.08.48-.5.11-.57Z"/><path class="cls-6" d="m93.92,39.44c-.37-.08-.48.5-.11.57.37.08.48-.5.11-.57Z"/><path class="cls-6" d="m92.77,39.84c-.39,0-.37.61.02.58.39,0,.37-.61-.02-.58Z"/><path class="cls-6" d="m91.2,39.58c-.41-.25-.82-.08-.63.35.14.15.39.26.6.22.25-.08.28-.46.04-.57Z"/><path class="cls-6" d="m89.67,38.57c.02-.33-.5-.33-.48,0-.02.33.5.33.48,0Z"/><path class="cls-6" d="m90.03,36.69c-.37-.08-.48.5-.11.57.37.08.48-.5.11-.57Z"/><path class="cls-6" d="m90.81,35.96c-.37-.08-.48.5-.11.57.37.08.48-.5.11-.57Z"/><path class="cls-6" d="m92.35,36.44c-.38-.08-.5.53-.12.6.38.08.5-.53.12-.6Z"/><path class="cls-6" d="m94.11,37.49c-.34-.07-.45.47-.1.53.34.07.45-.47.1-.53Z"/><path class="cls-6" d="m94.86,38.74c-.37-.08-.48.5-.11.57.37.08.48-.5.11-.57Z"/><path class="cls-6" d="m93.75,39.35c-.4-.12-.56.52-.15.6.4.12.56-.52.15-.6Z"/><path class="cls-6" d="m93.27,39.24c-.13-.47-.86-.24-.7.22.13.47.86.24.7-.22Z"/><path class="cls-6" d="m93.31,38.02c-.51-.11-.67.7-.16.8.51.11.67-.7.16-.8Z"/><path class="cls-6" d="m92.94,37.61c-.21-.33-.73-.19-.62.22.25.59.99.27.62-.22Z"/><path class="cls-6" d="m91.67,36.88c-.15.04-.34.02-.46.14-.22.17-.11.56.16.6.18-.02.34.04.59-.16.21-.22.01-.61-.29-.58Z"/><path class="cls-6" d="m92.74,38.2c-.25-.25-.61-.09-.73-.24-.01,0-.02-.01-.02-.01-.11-.08-.22-.16-.35-.1-.2.07-.26.35-.09.49.28.28,1.47.61,1.2-.13Z"/><path class="cls-6" d="m93.63,37.87c-.35,0-.32.55.02.52.35,0,.32-.55-.02-.52Z"/><path class="cls-6" d="m93.66,37.92c-.01-.35-.55-.32-.53.03.01.35.55.32.53-.03Z"/><path class="cls-6" d="m93.36,36.9c-.4-.19-.26-.2-.61-.52-.14-.1-.3-.23-.48-.17-.2.07-.26.35-.1.49.19.14.1.06.21.19.2.28.46.56.81.61.34.04.47-.47.16-.61Z"/><path class="cls-6" d="m91.57,35.66c-.37-.08-.48.5-.11.57.37.08.48-.5.11-.57Z"/><path class="cls-6" d="m90.45,36.45c-.28-.06-.37.39-.09.44.28.06.37-.39.09-.44Z"/><path class="cls-6" d="m91.2,35.96c-.28.09-.13.54.15.44.31-.08.14-.56-.15-.44Z"/><path class="cls-6" d="m92.78,36.42c-.37-.08-.48.5-.11.57.37.08.48-.5.11-.57Z"/><path class="cls-6" d="m94.42,37.25c-.37-.08-.48.5-.11.57.37.08.48-.5.11-.57Z"/><path class="cls-6" d="m94.8,38.14c-.37-.08-.48.5-.11.57.37.08.48-.5.11-.57Z"/><path class="cls-6" d="m94.44,39.19c-.44.13-.23.81.2.66.44-.13.23-.81-.2-.66Z"/><path class="cls-6" d="m93.09,39.87c-.26-.05-.34.35-.08.4.26.05.34-.35.08-.4Z"/><path class="cls-6" d="m92.1,39.57c-.38-.27-.8.23-.38.5.38.27.8-.23.38-.5Z"/><path class="cls-6" d="m91.4,38.61c-.08-.45-.78-.26-.63.17.08.45.78.26.63-.17Z"/><path class="cls-6" d="m90.51,36.97c-.22.49.56.75.68.23.2-.49-.55-.75-.68-.23Z"/><path class="cls-6" d="m92.74,36.29c-.38-.08-.5.53-.12.6.4.1.52-.54.12-.6Z"/><path class="cls-6" d="m94.01,37.41c-.42-.09-.54.57-.13.65.42.09.54-.57.13-.65Z"/><path class="cls-6" d="m94.62,38.86c-.37-.08-.48.5-.11.57.37.08.48-.5.11-.57Z"/><path class="cls-6" d="m93.83,39.97c-.37-.08-.48.5-.11.57.37.08.48-.5.11-.57Z"/><path class="cls-6" d="m92.78,39.46c-.36-.08-.47.49-.11.56.36.08.47-.49.11-.56Z"/><path class="cls-6" d="m93.84,38.8c-.11.43.56.58.64.15.11-.43-.56-.58-.64-.15Z"/><path class="cls-6" d="m93.98,37.57c-.03-.16-.13-.37-.33-.3-.24.09-.14.46.03.57.17.09.37-.09.31-.27Z"/><path class="cls-6" d="m93.26,36.11c-.47-.28-.88.44-.4.69.47.28.88-.44.4-.69Z"/><path class="cls-6" d="m91.31,35.57c-.35-.08-.46.48-.11.55.35.08.46-.48.11-.55Z"/><path class="cls-6" d="m89.81,37.04c-.13.5.64.65.72.14.1-.47-.64-.61-.72-.14Z"/><path class="cls-6" d="m90.59,39.35c-.35-.07-.45.47-.11.54.35.07.45-.48.11-.54Z"/><path class="cls-6" d="m92.65,39.6c-.37-.08-.48.5-.11.57.37.08.48-.5.11-.57Z"/><path class="cls-6" d="m94.18,39.22c-.37-.08-.48.5-.11.57.37.08.48-.5.11-.57Z"/><path class="cls-6" d="m94.5,38.13c-.29-.28-.73.19-.42.46.29.28.73-.19.42-.46Z"/><path class="cls-6" d="m92.77,36.53c-.37-.08-.48.5-.11.57.37.08.48-.5.11-.57Z"/><path class="cls-6" d="m91.79,37.05c-.24.23.14.59.36.34.24-.23-.14-.59-.36-.34Z"/><path class="cls-6" d="m92.7,38.36c-.32-.16-.56.34-.24.49.32.17.57-.34.24-.49Z"/><path class="cls-6" d="m94.07,38.58c-.32-.07-.42.44-.1.5.32.07.42-.44.1-.5Z"/><path class="cls-14" d="m92.02,37.04c-.37-.08-.48.5-.11.57.37.08.48-.5.11-.57Z"/><path class="cls-14" d="m91.8,37.11c-.37-.08-.48.5-.11.57.37.08.48-.5.11-.57Z"/><path class="cls-14" d="m91.75,37.69c-.24-.05-.32.33-.07.38.24.05.32-.33.07-.38Z"/><path class="cls-14" d="m92.24,38.28c-.37-.08-.48.5-.11.57.37.08.48-.5.11-.57Z"/><path class="cls-14" d="m93.1,38.32c-.37-.08-.48.5-.11.57.37.08.48-.5.11-.57Z"/><path class="cls-14" d="m93.36,37.72c-.37-.08-.48.5-.11.57.37.08.48-.5.11-.57Z"/><path class="cls-14" d="m92.98,37.16c-.37-.08-.48.5-.11.57.37.08.48-.5.11-.57Z"/><path class="cls-14" d="m92.4,37.06c-.37-.08-.48.5-.11.57.37.08.48-.5.11-.57Z"/><path class="cls-14" d="m93.04,37.44c-.37-.08-.48.5-.11.57.37.08.48-.5.11-.57Z"/><path class="cls-14" d="m92.67,37.97c-.37-.08-.48.5-.11.57.37.08.48-.5.11-.57Z"/><path class="cls-14" d="m92.35,37.64c-.37-.08-.48.5-.11.57.37.08.48-.5.11-.57Z"/><path class="cls-14" d="m92.24,37.43c-.18-.19-.45.12-.24.28.18.16.43-.12.24-.28Z"/><path class="cls-14" d="m91.39,36.98c-.37-.08-.48.5-.11.57.37.08.48-.5.11-.57Z"/><path class="cls-14" d="m91.66,37.9c-.37-.08-.48.5-.11.57.37.08.48-.5.11-.57Z"/><path class="cls-14" d="m92.23,38c-.37-.08-.48.5-.11.57.37.08.48-.5.11-.57Z"/><path class="cls-14" d="m91.81,37.94c-.28-.06-.37.39-.09.44.28.06.37-.39.09-.44Z"/><path class="cls-14" d="m91.87,36.69c-.37-.08-.48.5-.11.57.37.08.48-.5.11-.57Z"/><path class="cls-14" d="m92.75,36.63c-.37-.08-.48.5-.11.57.37.08.48-.5.11-.57Z"/><path class="cls-14" d="m93.79,37.47c-.37-.08-.48.5-.11.57.37.08.48-.5.11-.57Z"/><path class="cls-14" d="m93.4,38.43c-.37-.08-.48.5-.11.57.37.08.48-.5.11-.57Z"/><path class="cls-14" d="m92.72,38.63c-.37-.08-.48.5-.11.57.37.08.48-.5.11-.57Z"/><path class="cls-14" d="m92.25,38.32c0-.44-.68-.42-.64.02,0,.44.68.42.64-.02Z"/><path class="cls-14" d="m92.21,37.23c-.37-.08-.49.51-.11.58.37.08.49-.51.11-.58Z"/><path class="cls-14" d="m92.77,37.39c-.37-.08-.48.5-.11.57.37.08.48-.5.11-.57Z"/><path class="cls-14" d="m93.25,38.08c-.37-.08-.48.5-.11.57.37.08.48-.5.11-.57Z"/><path class="cls-14" d="m92.8,38.48c-.37-.08-.48.5-.11.57.37.08.48-.5.11-.57Z"/><path class="cls-14" d="m91.16,37.54c-.29-.34-.78.03-.47.37.29.34.78-.03.47-.37Z"/><path class="cls-14" d="m91.71,36.66c-.37-.08-.48.5-.11.57.37.08.48-.5.11-.57Z"/><path class="cls-14" d="m92.8,36.96c-.37-.08-.48.5-.11.57.37.08.48-.5.11-.57Z"/><path class="cls-14" d="m93.74,37.73c-.37-.08-.48.5-.11.57.37.08.48-.5.11-.57Z"/><path class="cls-14" d="m93.05,38.58c-.37-.08-.48.5-.11.57.37.08.48-.5.11-.57Z"/><path class="cls-14" d="m93.65,38.85c-.37-.08-.48.5-.11.57.37.08.48-.5.11-.57Z"/><path class="cls-3" d="m74.2,120.4l-1.35,4.96-12.86,1.04,10.53,7.5-1.35,4.94-16.3-4.47.95-3.48,10.17,2.79-9.16-6.5,1.11-4.06,11.12-.94-10.1-2.77.95-3.48,16.3,4.47Z"/><path class="cls-3" d="m61.77,140.01c3.84,1.05,6.17,4.71,5.23,8.17-.94,3.43-4.81,5.41-8.64,4.36l-9.71-2.66.95-3.48,3.47.95,1.52-5.57-3.47-.95.95-3.48,9.71,2.66Zm-3.72,2.72l-1.52,5.57,2.77.76c1.92.53,3.81-.3,4.23-1.83.42-1.53-.79-3.21-2.71-3.73l-2.77-.76Z"/><path class="cls-3" d="m62.17,164.51c-.76,2.78-3.64,4.44-6.42,3.68-2.2-.6-3.68-2.55-3.81-4.71l-3,.72c-.88.21-1.38,1.07-1.18,1.97l-3.51.83c-.65-2.82,1.07-5.64,3.86-6.32l4.59-1.08.41-1.51-6.24-1.71.95-3.48,16.3,4.47-1.95,7.15Zm-2.47-4.62l-3.12-.86-1,3.67c-.24.88.24,1.76,1.12,2,.88.24,1.76-.26,2-1.15l1-3.67Z"/><path class="cls-3" d="m53.01,182.04c.83-.67,1.45-1.6,1.76-2.71.76-2.78-.89-5.66-3.67-6.42-2.77-.76-5.63.88-6.39,3.66-.35,1.28-.21,2.59.34,3.68l-2.83,2.34c-1.22-2-1.66-4.49-.99-6.95,1.28-4.71,6.11-7.48,10.81-6.19,4.69,1.29,7.47,6.14,6.18,10.85-.6,2.2-1.97,3.95-3.75,5.11l-1.47-3.37Z"/><path class="cls-3" d="m43.38,196.51l1.99-7.31-6.94-1.9.95-3.48,16.3,4.47-.95,3.48-5.9-1.62-1.99,7.31,5.9,1.62-.95,3.48-16.3-4.47.95-3.48,6.94,1.9Z"/></svg>