<?xml version="1.0" encoding="UTF-8"?><svg id="Layer_2" xmlns="http://www.w3.org/2000/svg" width="185" height="370" xmlns:xlink="http://www.w3.org/1999/xlink" viewBox="0 0 185 370"><defs><style>.cls-1{fill:url(#linear-gradient);}.cls-1,.cls-2,.cls-3,.cls-4,.cls-5,.cls-6,.cls-7,.cls-8,.cls-9,.cls-10{stroke-width:0px;}.cls-2{fill:url(#linear-gradient-6);}.cls-4{fill:url(#linear-gradient-5);}.cls-5{fill:url(#linear-gradient-2);}.cls-6{fill:#946747;}.cls-7{fill:url(#linear-gradient-3);}.cls-8{fill:#ffefe1;}.cls-9{fill:#db8344;}.cls-10{fill:url(#linear-gradient-4);}</style><linearGradient id="linear-gradient" x1="27.08" y1="821.47" x2="52.47" y2="913.35" gradientTransform="translate(483.49 -715.14) rotate(29.98)" gradientUnits="userSpaceOnUse"><stop offset="0" stop-color="#369"/><stop offset="1" stop-color="#69c"/></linearGradient><linearGradient id="linear-gradient-2" x1="-56.97" y1="968.11" x2="-67.94" y2="952.18" gradientTransform="translate(324.69 -847.13) rotate(11.79)" gradientUnits="userSpaceOnUse"><stop offset="0" stop-color="#e0a275"/><stop offset="1" stop-color="#ed8713"/></linearGradient><linearGradient id="linear-gradient-3" x1="-81.85" y1="949.14" x2="-90.84" y2="936.1" xlink:href="#linear-gradient-2"/><linearGradient id="linear-gradient-4" x1="-71.49" y1="929.58" x2="-74.27" y2="911.79" xlink:href="#linear-gradient-2"/><linearGradient id="linear-gradient-5" x1="-42.52" y1="959.8" x2="-44.23" y2="932.18" gradientTransform="translate(324.69 -847.13) rotate(11.79)" gradientUnits="userSpaceOnUse"><stop offset="0" stop-color="#e0a275"/><stop offset="1" stop-color="#ed8713"/></linearGradient><linearGradient id="linear-gradient-6" x1="-23.94" y1="966.62" x2="-16.35" y2="949.95" xlink:href="#linear-gradient-5"/></defs><path class="cls-1" d="m0,.43l.82,369.57L185,49.68S89.84-5.41,0,.43Z"/><path class="cls-8" d="m.53,93.76l.29,276.24,137.76-239.59S67.6,89.32.53,93.76Z"/><path class="cls-9" d="m41.62,38.04c-.59-1.39-1.04-2.64-1.12-4.15-.07-1.42.21-2.76.61-4.1.52-1.76,1.23-3.57,2.3-5.07s2.82-2.43,4.27-3.49c2.71-1.99,5.48-3.78,8.67-4.91,1.77-.63,3.56-.78,5.42-.87,2.55-.13,5.11-.06,7.67-.05,2.12,0,4.15.13,6.24.49,2.42.42,4.67,1.25,6.95,2.12,4.67,1.77,9.04,4.02,13.11,6.93,3.39,2.42,5.98,5.77,7.7,9.57,1.03,2.27,1.67,5.34,1.03,7.78-.33,1.27-.83,2.5-1.46,3.66-.94,1.72-2.46,2.88-4.17,3.77-3.83,2-8.17,3.29-12.44,3.79-3.17.37-6.47,1.05-9.68.76-3.21-.29-6.12-.96-9.1-2.24-1.76-.75-3.54-1.45-5.29-2.2-1.96-.84-3.87-1.78-5.84-2.58-4.02-1.61-8.05-3.51-11.75-5.76-1.56-.95-3.48-2.72-4.08-4.53-.42-1.29-.18-2.63-.36-3.95"/><path class="cls-9" d="m42.58,37.77c-.49-1.18-.96-2.38-1.06-3.66-.13-1.53.23-3.02.68-4.46.78-2.49,1.88-4.66,4.03-6.21,4.19-3.01,8.61-6.41,13.92-6.89,2.76-.25,5.55-.19,8.32-.17s5.7.11,8.49.8c5.01,1.24,9.96,3.47,14.4,6.1s7.98,5.62,10.4,10.1,2.96,10.25-1.13,13.92c-1.82,1.63-4.35,2.61-6.62,3.41-2.63.92-5.33,1.49-8.09,1.84s-5.36.83-8.07.76-5.34-.61-7.86-1.46c-2.93-.99-5.82-2.29-8.63-3.56s-5.52-2.34-8.25-3.58-5.62-2.62-8.18-4.3c-1.14-.75-2.28-1.77-2.96-2.97-.78-1.38-.53-2.94-.68-4.45-.13-1.27-2.13-1.28-2,0,.14,1.4-.04,2.86.39,4.21.37,1.15,1.11,2.16,1.93,3.03,1.94,2.04,4.62,3.33,7.1,4.59,2.78,1.41,5.66,2.56,8.52,3.79s5.54,2.45,8.35,3.61,5.58,2.23,8.61,2.7,5.95.38,8.98-.02c5.84-.77,11.66-1.69,16.83-4.72,4.59-2.69,6.52-8.28,5.29-13.35-1.2-4.96-4.7-9.54-8.74-12.54-4.65-3.46-9.96-5.94-15.39-7.9-5.95-2.15-12.19-2.21-18.45-2-3.31.11-6.29.62-9.29,2.06s-5.57,3.37-8.2,5.25c-2.49,1.78-3.86,4.12-4.82,6.99-1.11,3.35-1.12,6.33.25,9.59.49,1.17,2.43.66,1.93-.53h0Z"/><path class="cls-9" d="m47.11,66.44c-1.88,0-3.75.05-5.55-.61-1.41-.52-2.92-1.23-4.14-2.11-1.13-.82-1.99-1.85-2.72-3.03-.92-1.5-1.02-3.01-.89-4.74s.69-3.75,2.03-5.05c1.23-1.19,2.73-1.68,4.37-2.08,2.2-.53,4.41-.79,6.65-.43,2.14.34,4.21,1.14,6.14,2.11,2.73,1.38,5.66,3.74,6.22,6.97.19,1.07.05,2.36-.42,3.35-.66,1.41-2.01,2.44-3.28,3.26-2.23,1.44-5.1,2.32-7.75,2.39-.43.01-.83.07-1.25.1-.28.02-1.49-.61-1.72-.37"/><path class="cls-9" d="m47.11,65.44c-2.59,0-4.84-.22-7.18-1.39-2.02-1.01-3.99-2.57-4.81-4.76-.72-1.92-.43-4.6.5-6.4,1.02-1.97,3.06-2.69,5.1-3.16,4.73-1.1,9.42-.05,13.46,2.6,3.51,2.3,6.01,6.87,2.02,10.06-1.91,1.53-4.25,2.51-6.66,2.92-.97.16-2.31.4-3.25.17-.73-.18-1.23-.46-1.97-.13-1.18.52-.16,2.24,1.01,1.73-.52.23-.1.11.19.25.13.06.32.12.45.16.5.13.88.06,1.4.02,1.33-.1,2.62-.19,3.92-.52,2.49-.63,4.94-1.85,6.83-3.6,4-3.72,1.87-9.14-1.89-12.04-4.48-3.45-10.29-4.82-15.8-3.59-2.37.53-4.74,1.41-6.15,3.5s-1.74,4.8-1.41,7.16c.38,2.79,2.43,5.18,4.75,6.64,1.26.8,2.71,1.47,4.14,1.9,1.73.52,3.57.5,5.36.5,1.29,0,1.29-2,0-2h0Z"/><path class="cls-9" d="m62.29,84.35c-2.31-.47-4.63-1.02-6.73-2.12-1.6-.84-3.4-2.18-4.03-3.96-.29-.83-.5-1.85-.27-2.72.27-1.01.9-1.93,1.58-2.7.62-.69,1.33-1.31,1.99-1.96.72-.7,1.39-1.4,2.26-1.9,2.37-1.37,5.44-2.23,8.2-2.05.69.04,1.39.1,2.06.28.71.18,1.46.53,2.16.76.98.32,2.19.88,2.87,1.7,1.57,1.89,2.74,4.23,3.3,6.63.26,1.12.42,2.32.45,3.47.04,1.67-.37,2.93-1.57,4.1-1.4,1.37-3.18,1.77-5.09,1.85-1.69.07-3.45,0-5.08-.46-1.24-.34-2.43-.7-3.7-.96"/><path class="cls-9" d="m62.56,83.39c-3.46-.71-8.96-1.82-10.19-5.75-.74-2.38,1.09-4.05,2.67-5.55s3.11-2.72,5.28-3.44c1.95-.64,4.04-.91,6.08-.6s4.41,1.17,5.62,2.77,2.14,3.55,2.64,5.54c.45,1.79.91,4.19-.07,5.88-1.16,1.98-3.47,2.44-5.58,2.49-2.83.07-5.32-.8-8.05-1.4-1.25-.27-1.79,1.65-.53,1.93,2.99.66,5.71,1.57,8.81,1.46,2.27-.08,4.54-.6,6.16-2.29,1.72-1.79,1.89-4.06,1.59-6.42-.32-2.55-1.17-5.01-2.54-7.18-.58-.91-1.23-1.87-2.09-2.54-1.02-.78-2.25-1.16-3.44-1.6-2.44-.89-5-.96-7.53-.42s-4.92,1.65-6.8,3.46c-1.74,1.68-4.04,3.49-4.38,6.05-.82,6.23,7.25,8.58,11.83,9.52,1.26.26,1.79-1.67.53-1.93h0Z"/><path class="cls-9" d="m96.33,78.28c2.13.25,4.29.52,6.44.48,1.81-.04,3.61-.2,5.41-.4,3.46-.38,6.98-1.66,9.45-4.23,1-1.03,2.2-2.34,2.39-3.83.17-1.31-.2-2.46-.8-3.62-1.6-3.1-4.67-5.24-7.53-7.08-2.7-1.74-5.55-2.83-8.56-3.93-2.83-1.03-5.74-1.95-8.73-2.39-2.58-.38-5.18-.73-7.79-.85-2.05-.09-4.1.09-6.14.26-1.93.17-3.7.63-5.3,1.76-.79.55-1.54,1.13-2.17,1.86-.67.77-1.19,1.65-1.69,2.54-1.09,1.95-1.47,3.95-.99,6.15.55,2.52,1.83,4.92,3.74,6.67,2.28,2.1,5.31,2.98,8.23,3.85,1.83.54,3.7,1.02,5.57,1.42,1.44.31,2.9.44,4.35.67,1.27.2,2.5.56,3.78.63.47.03.94.05,1.42.03.22,0,.44-.07.66.01"/><path class="cls-9" d="m96.33,79.28c8,.95,18.08,1.09,23.43-6.07,2.57-3.44.67-7.41-2-10.17-2.84-2.94-6.62-5.18-10.35-6.77-8.71-3.7-18.29-5.71-27.77-4.48-4.16.54-7.38,3.08-9.31,6.75s-1.3,8.01,1,11.46c2.65,3.98,6.97,5.43,11.36,6.69,2.6.75,5.22,1.34,7.91,1.7,1.29.17,2.55.45,3.83.67,1.21.2,2.42.08,3.61.23,1.27.16,1.26-1.84,0-2-.82-.1-1.67.01-2.5-.08-1.04-.11-2.06-.4-3.09-.56-2.09-.34-4.16-.6-6.22-1.1-3.44-.83-7.27-1.68-10.27-3.64s-5.32-6.07-4.79-9.74,3.69-7.23,7.35-8.15,8.12-.71,11.98-.26c4.27.49,8.31,1.41,12.35,2.88,3.65,1.32,7.05,2.88,10.24,5.11,2.52,1.76,6.4,4.89,5.92,8.39-.26,1.85-2.23,3.62-3.69,4.65-1.59,1.12-3.42,1.83-5.31,2.25-4.49,1-9.17.77-13.69.23-1.28-.15-1.26,1.85,0,2h0Z"/><path class="cls-9" d="m96.94,91.86c-2.04-1.47-4.27-3.17-3.91-6.01.13-.99.45-1.97.9-2.85.56-1.08,1.51-1.83,2.51-2.46,1.97-1.25,3.88-2.18,6.15-2.69s4.4-.57,6.65-.29c3.45.42,6.76,1.31,9.81,3.03,1.87,1.05,3.5,2.33,4.85,4.01,1.14,1.42,2.38,3.15,2.9,4.93.55,1.89.83,4.25.03,6.09-1.15,2.66-3.79,3.66-6.38,4.37-1.94.53-3.77,1.05-5.8.94-2.73-.15-5.18-.99-7.76-1.82-2.19-.7-4.35-1.42-6.34-2.61-1.59-.96-2.93-1.99-4.24-3.31-1.32-1.33-3.15-2.61-3.72-4.5-.16-.54-.35-1.19-.24-1.75.17-.88.71-1.76,1.15-2.53"/><path class="cls-9" d="m97.44,90.99c-1.01-.73-2.08-1.49-2.79-2.54-.85-1.26-.75-2.62-.26-4.01,1-2.85,4.52-4.47,7.23-5.3,5.92-1.82,13.21-.28,18.28,3.14,2.45,1.66,4.79,4.28,5.8,7.09s1.02,6.17-1.6,8.02c-1.02.72-2.23,1.14-3.42,1.49-1.59.46-3.23.95-4.89,1.04-3.18.18-6.32-1.02-9.3-1.99-3.44-1.12-6.54-2.63-9.18-5.15-1.08-1.04-2.39-2.02-3.23-3.28-.41-.61-.79-1.46-.77-2.21.03-.84.64-1.68,1.04-2.38.64-1.12-1.09-2.13-1.73-1.01-.84,1.47-1.56,2.83-1.15,4.55.38,1.59,1.34,2.83,2.51,3.94,2.66,2.54,5.31,4.87,8.74,6.31s7.59,2.89,11.45,3.2c1.92.15,3.79-.22,5.63-.71,1.56-.41,3.14-.85,4.56-1.63,3.07-1.68,4.28-4.78,3.83-8.17-.48-3.63-2.66-6.97-5.39-9.37-5.45-4.8-14.33-6.9-21.33-4.94-3.68,1.03-7.87,3.17-9.1,7.02-.55,1.71-.56,3.49.35,5.06.87,1.5,2.31,2.54,3.68,3.54,1.05.75,2.04-.98,1.01-1.73h0Z"/><ellipse class="cls-6" cx="70.13" cy="40.29" rx="9.17" ry="27.27" transform="translate(21.17 104.66) rotate(-82.62)"/><ellipse class="cls-6" cx="44.77" cy="61.6" rx="5.1" ry="9.14" transform="translate(-22.09 98.06) rotate(-82.6)"/><ellipse class="cls-6" cx="93.11" cy="69.36" rx="6.54" ry="20.75" transform="translate(12.36 152.79) rotate(-82.62)"/><ellipse class="cls-6" cx="107.28" cy="91.85" rx="6.54" ry="14.57" transform="translate(-15.04 162.43) rotate(-70.56)"/><ellipse class="cls-6" cx="63.52" cy="80.15" rx="4.29" ry="11.78" transform="translate(-20.73 138.13) rotate(-86.13)"/><path class="cls-5" d="m63.32,77.79c.77-.06,1.49.09,2.17.44.43.37.79.81,1.08,1.32.6.98,1,2.11,1.5,3.16,1.34,2.8,2.83,5.59,4.81,7.86,1.7,1.94,3.7,3.71,5.74,5.18.77.56,1.61,1.08,2.26,1.82.44.51,1.22,1.33,1.27,2.1-.62.85-2.15.67-2.97.63-2.11-.09-4.11-1.19-5.94-2.25-1.22-.71-2.3-1.63-3.33-2.64-.94-.92-1.97-1.82-2.79-2.88-1.28-1.67-2.47-3.61-3.42-5.55-.7-1.43-1.45-2.84-1.79-4.46-.21-1-.35-2.06.19-3.02.45-.79,1.29-1.49,2.09-1.32"/><path class="cls-7" d="m53.32,71.4c.2-.22.39-.44.61-.62.11-.09.21-.18.32-.28-.01-.22.1-.42.3-.54.09-.06.19-.11.29-.16.15-.16.34-.27.57-.32.13-.14.28-.27.45-.37.09-.08.19-.14.3-.2.02-.02.05-.03.07-.05-1.04-.86-2.04-1.79-2.93-2.79-1.66-1.85-2.9-4.11-4.03-6.38-.42-.85-.76-1.77-1.26-2.56-.24-.42-.54-.78-.9-1.07-.56-.29-1.16-.41-1.8-.37l.73.33c-.66-.14-1.36.42-1.73,1.06-.44.77-.32,1.63-.14,2.44.29,1.31.91,2.46,1.5,3.62.8,1.57,1.79,3.14,2.86,4.5.68.86,1.54,1.59,2.32,2.34.68.65,1.39,1.25,2.16,1.76.1-.12.21-.23.31-.35Z"/><path class="cls-10" d="m71.51,67.03c-.2-.42-.42-.81-.53-1.26-.21-.84-.43-1.65-.45-2.53-.04-1.14-.08-2.27.15-3.4.1-.46.26-.87.43-1.31.1-.25.17-.49.3-.73.02-.04.05-.08.07-.12-.14-.7-.26-1.41-.38-2.11-.59-3.6.28-7.07.33-10.63.03-1.9.15-3.85-.02-5.75-.09-1.04-.23-2.11-1.37-2.53-.37-.14-.73-.34-1.13-.39-.56-.07-1.15,0-1.72-.06-1.18-.11-2.29-.36-3.49-.34-.89.02-1.73.19-2.59.32-.76.12-1.19.49-1.64,1.08-2.14,2.83-2.51,6.84-2.52,10.24-.01,6.94,2.94,13.88,7.34,19.5.91.2,1.78.46,2.71.6,1.33.21,3.31.34,4.58-.42-.02-.05-.05-.1-.07-.15Z"/><path class="cls-4" d="m79.72,64.15c-.41,3.58-.91,7.15-1.24,10.74-.28,3.01-.11,5.94-.06,8.96.04,2.65.02,5.26.43,7.89.31,1.97.64,4.14,1.35,6.03,1.13,3.03,3.99,4.91,7.19,5.15,1.58.12,3.18.02,4.76.12.58.03,1.4.19,1.95.03-.25-.87-.85-1.6-1.18-2.45-.64-1.67-.76-3.77-.78-5.53-.05-3.91.58-7.66,1.26-11.5.43-2.43.94-4.85,1.46-7.26.42-1.95,1.05-3.77,1.57-5.69.26-.97.44-1.94.65-2.92.14-.65.31-1.32.1-1.97-.34-1.04-1.12-1.55-2.14-1.78-2-.46-4.21-.66-6.27-.68-2.15-.02-4.12.09-6.23.49-.82.16-1.91.18-2.66.63"/><path class="cls-2" d="m106.88,87.13c3.73.21,7.86.93,10.87,3.41.78.64-.65,2.13-1.08,2.67-1.75,2.23-4.28,3.63-6.68,4.87s-4.79,2.26-7.34,2.98c-1.93.55-3.87,1.25-5.84,1.59-1.25.22-2.46.43-3.72.35-.34-.02-.68-.06-1.01-.07-.22,0-.49.07-.7.03-.57-.12-.94-.71-1.12-1.24-.29-.86-.51-1.77-.66-2.68-.12-.75-.26-1.94.14-2.64.64-1.14,2.47-1.45,3.53-1.91,2.07-.89,4.18-1.89,6.14-3.06,1.44-.86,2.77-1.93,4.16-2.87.79-.53,1.66-.95,2.54-1.26.43-.15.83-.41,1.29-.25"/><path class="cls-3" d="m74.8,126.52l-1.57,6.6c-1.13,4.75-5.69,7.74-10.28,6.64-4.59-1.1-7.29-5.83-6.16-10.58l1.57-6.6,16.43,3.94Zm-4.33,2.67l-9.44-2.26-.73,3.06c-.67,2.81.84,5.59,3.5,6.23,2.66.64,5.28-1.16,5.95-3.97l.73-3.06Z"/><path class="cls-3" d="m70.57,144.27l-2.67,11.23-3.5-.84,1.84-7.72-2.8-.67-1.75,7.37-3.5-.84,1.75-7.37-3.15-.75-1.92,8.07-3.5-.84,2.76-11.58,16.43,3.94Z"/><path class="cls-3" d="m60.38,168.88c.81-.7,1.4-1.64,1.67-2.77.67-2.81-1.08-5.62-3.87-6.29-2.8-.67-5.6,1.06-6.27,3.86-.31,1.29-.12,2.59.46,3.67l-2.75,2.43c-1.28-1.96-1.8-4.44-1.21-6.92,1.13-4.75,5.87-7.67,10.6-6.54,4.73,1.13,7.66,5.89,6.53,10.64-.53,2.22-1.84,4.01-3.58,5.22l-1.58-3.32Z"/><path class="cls-3" d="m63.25,175.04l-2.67,11.23-3.5-.84,1.84-7.72-2.8-.67-1.75,7.37-3.5-.84,1.75-7.37-3.15-.75-1.92,8.07-3.5-.84,2.76-11.58,16.44,3.94Z"/><path class="cls-3" d="m59.74,189.78l-1.19,5.01-12.82,1.45,10.77,7.16-1.19,4.98-16.43-3.94.83-3.51,10.26,2.46-9.37-6.2.97-4.09,11.08-1.3-10.19-2.44.83-3.51,16.43,3.94Z"/><path class="cls-3" d="m54.48,211.86l-1.72,7.21c-.67,2.81-3.41,4.57-6.06,3.94-1-.24-1.83-.79-2.47-1.51-1.2.7-2.71,1.01-4.22.65-2.8-.67-4.51-3.51-3.84-6.31l1.88-7.91,16.43,3.94Zm-11.56,5.59l1.05-4.4-3.26-.78-1.05,4.4c-.21.89.3,1.75,1.18,1.97.91.22,1.87-.32,2.08-1.18Zm7.23-2.92l-2.68-.64-.88,3.7c-.21.89.2,1.73.95,1.91.75.18,1.52-.38,1.73-1.27l.88-3.7Z"/><path class="cls-3" d="m50.87,227.02l-2.67,11.23-3.5-.84,1.84-7.72-2.8-.67-1.75,7.37-3.5-.84,1.75-7.37-3.15-.75-1.92,8.07-3.5-.84,2.76-11.58,16.43,3.94Z"/><path class="cls-3" d="m45.65,248.96c-.67,2.81-3.5,4.55-6.3,3.88-2.21-.53-3.76-2.43-3.96-4.58l-2.98.82c-.87.24-1.35,1.11-1.12,2.01l-3.48.95c-.74-2.8.88-5.67,3.65-6.44l4.56-1.23.36-1.52-6.29-1.51.84-3.51,16.43,3.94-1.72,7.21Zm-2.62-4.53l-3.15-.75-.88,3.7c-.21.89.3,1.75,1.18,1.97.89.21,1.75-.32,1.96-1.21l.88-3.7Z"/></svg>