<?xml version="1.0" encoding="UTF-8"?><svg id="Layer_2" xmlns="http://www.w3.org/2000/svg" width="185" height="370" xmlns:xlink="http://www.w3.org/1999/xlink" viewBox="0 0 185 370"><defs><style>.cls-1{fill:url(#linear-gradient);}.cls-1,.cls-2,.cls-3,.cls-4,.cls-5{stroke-width:0px;}.cls-3{fill:#418c46;}.cls-4{fill:#ffefe1;}.cls-5{fill:#206925;}</style><linearGradient id="linear-gradient" x1="96.66" y1="875.07" x2="122.05" y2="966.97" gradientTransform="translate(452.74 -795.02) rotate(30.16)" gradientUnits="userSpaceOnUse"><stop offset="0" stop-color="#669"/><stop offset="1" stop-color="#99c"/></linearGradient></defs><path class="cls-1" d="m.41.4l-.41,369.6L185,50.17S90.15-5.19.41.4Z"/><path class="cls-4" d="m.63,93.74l-.63,276.26,138.37-239.22S67.62,89.48.63,93.74Z"/><path class="cls-5" d="m78.74,98.46c-.44-16.75,3.35-33.54,10.97-48.47,2.15-4.21,4.6-8.26,7.32-12.13.74-1.05-.99-2.06-1.73-1.01-9.76,13.88-15.91,30.16-17.91,47.01-.58,4.84-.79,9.72-.66,14.59.03,1.28,2.03,1.29,2,0h0Z"/><path class="cls-5" d="m96.31,38.26c.79.03,1.49-.06,2.24-.25.43-.11.89-.16,1.33-.26,1.08-.22,2.13-.71,3.06-1.29.5-.31.91-.72,1.36-1.1.25-.22.52-.42.79-.61.12-.04.2-.11.25-.21-.62.06-1.19.33-1.82.38-.49.04-.88-.1-1.32-.25.06-.11.2-.15.3-.21.32-.18.65-.34.97-.53.67-.39,1.38-.72,2.01-1.16.57-.4,1.13-.85,1.61-1.37.17-.19.34-.39.5-.59.07-.08.16-.16.18-.26-.56.11-1.08.4-1.66.42-.33.01-.67,0-1-.02-.17,0-.47.04-.56-.15.19-.28.51-.45.78-.65.6-.42,1.17-.84,1.68-1.36.33-.34.62-.69.86-1.11.09-.16.19-.31.3-.46-.11-.11-.39.05-.52.09-.32.11-.6.15-.93.14-.12,0-.47.06-.55-.1-.09-.19.11-.53.19-.7.31-.7.58-1.38,1-2.03.21-.33.47-.62.73-.91.09-.1.31-.27.25-.44-.1-.04-.22.07-.31.12-.18.1-.35.17-.51.31-.42.38-.83.74-1.29,1.07s-.93.72-1.41,1.07c-.17.12-.34.27-.53.36-.13.06-.24.07-.37.11-.28.09-.54.46-.7.04-.11-.29-.15-.71-.16-1.02,0-.27.22-.85.06-1.11-.24.39-.3.85-.4,1.3-.06.26-.11.55-.1.82,0,.25.07.47,0,.73-.05.22-.13.44-.23.64-.13.27-.21.53-.47.7-.25.16-.51.35-.81.27-.46-.12-.62-.73-.77-1.12-.11-.31-.2-.62-.19-.95,0-.18.07-.36.05-.55-.23.13-.34.62-.44.84-.23.48-.42.97-.65,1.45-.24.51-.49.97-.54,1.54-.04.45.06.93-.11,1.36-.12.29-.32.71-.66.8-.47.13-.88-.23-1.03-.64-.19-.48-.17-1.11-.21-1.62-.01-.23.06-.57-.08-.77-.31-.11-.6.92-.66,1.1-.22.61-.33,1.22-.42,1.86-.21,1.49-.72,3.03-.36,4.54.06.24.08.49.18.7.09.18.2.25.35.37.34.28.6.34,1.02.15"/><path class="cls-5" d="m95.02,39.01c1.09.03,2.1-.24,3.17-.44,1.01-.18,1.94-.53,2.84-1,1.03-.55,2.05-1.13,3.04-1.75.84-.52,1.52-1.25,2.32-1.82l-2.55,1.48c.59-.32,1.17-.66,1.75-.99.25-.14.54-.28.77-.45.15-.11.37-.15.14-.22-.42-.12-1.23.33-1.69.36-.23.01-.45,0-.68-.06s-.77-.08-.51-.32l-2.55,1.48c2.12-1.14,4.44-2.21,6.33-3.72.48-.39.91-.81,1.31-1.28.04-.04.38-.39.34-.46-.03-.05-.85.26-.94.28-.57.17-1.13.14-1.72.12-.13,0-.42.04-.51-.1-.11-.18.46-.51.6-.61.95-.67,1.9-1.37,2.55-2.36.1-.15.44-.61.37-.68-.1-.1-.36.08-.46.11-.28.09-1.18.34-1.43.09s.28-1.07.39-1.32c.25-.57.52-1.14.88-1.64.09-.12.98-1.01.85-1.15s-1.33.68-1.47.76c-.37.22-.75.43-1.12.65,3.39-2.01,2.65-1.52,1.92-1.11-.21.12-.42.23-.62.35-.64.37-1.33.71-1.94,1.13-1.11.78-2.12,1.73-3.23,2.53l1.29-.76-.19.11,1.31-.74c-.43.14-.76.3-1.16.53-.33.19-.67.38-1,.58-.19.11-.38.22-.57.33-.86.51-.26.17,1.79-1.03l.18-.1c-.75.17-.28-1.98-.4-2.3.06.15-2.45,1.22-2.6,1.5-.64,1.21-.22,2.6-.87,3.78-.26.48-.57.5.75-.27,1.57-.91,1.09-.4.62-.58-.25-.1-.39-.35-.5-.59-.31-.67-.36-1.26-.32-1.98,0,.12-1.16.65-1.31.74-.41.24-.93.45-1.29.76-.34.3-.48.91-.66,1.32-.24.54-.5,1.07-.72,1.61-.39.97.02,2.26-.86,2.99l2.6-1.5c-.73.33-1.19-.38-1.3-1.01-.05-.29.06-1.86-.21-1.95-.11-.04-.42.2-.51.25-.53.3-1.05.6-1.58.91-.57.33-.81.51-1.03,1.14-.51,1.44-.73,3.05-.93,4.56-.13.99-.19,4.06,1.61,3.36.92-.36,1.68-1.15,2.6-1.5-2.05.79-1.68-3.03-1.5-4.03s.29-1.98.53-2.93c.13-.53.3-1.3.69-1.71l-2.55,1.48c.25-.14.22,1.28.23,1.46.04.53.12,1.21.65,1.49.41.22.75-.01,1.1-.21.71-.4,1.52-.77,2.17-1.26.91-.69.49-1.86.82-2.81.22-.62.54-1.22.81-1.83.18-.41.32-1.02.66-1.32l-2.6,1.5c-.04.73-.02,2,.68,2.49.37.26.69.06,1.03-.13.6-.33,1.19-.68,1.78-1.02.78-.46,1.36-.88,1.53-1.85.08-.44-.02-.9.06-1.35.09-.51.2-1.03.44-1.5l-2.6,1.5c.14.37-.04.73-.06,1.11,0,.28,0,1.09.29,1.2.23.09.77-.33.94-.43.64-.36,1.28-.73,1.91-1.11l-2.42,1.39c1.13-.51,2.25-1.08,3.3-1.78,1.13-.76,2.13-1.7,3.21-2.51l-1.29.76c-2,1.16-.26.16.17-.09.48-.28.96-.55,1.44-.84l-2.42,1.39c.39-.06.02.29-.09.41-.2.24-.42.46-.6.72-.34.47-.59,1-.83,1.53-.12.27-.75,1.25-.39,1.47.31.19,1.08-.04,1.38-.13.09-.03.44-.24.52-.09,0,.02-.39.62-.42.66-.36.55-.83,1.03-1.34,1.46-.45.38-.95.68-1.42,1.04-.16.13-.56.32-.34.52.11.1.44.05.58.05.65.02,1.2,0,1.83-.2.2-.06.63-.26.67-.14.03.09-.41.52-.47.59-.46.53-.99.99-1.56,1.41l-.38.26c1.47-.83,1.85-1.06,1.16-.68-.28.15-.55.31-.83.46-.45.25-.91.49-1.35.74s-.88.5-1.31.76c-.13.08-.55.24-.64.38-.2.11-.17.18.09.2l.21.07c.3.08.58.13.89.11.35-.02.7-.13,1.04-.22.16-.04.92-.34.68-.03l2.55-1.48c-.9.48-1.81.97-2.65,1.53-.33.21-.63.47-.93.72-.16.14-.31.28-.47.41-.61.52-.91.41.86-.37-1.74.76-3.77,1.32-5.69,1.27-.33,0-1.02.57-1.31.74-.31.18-.61.35-.92.53-.08.05-.29.23-.38.23h0Z"/><path class="cls-3" d="m76.14,75.12c-1.94.76-3.97,1.16-6.01,1.53-1.04.19-2.07.25-3.12.3-1.27.06-2.54.14-3.82.16-1.14.02-2.28-.05-3.42-.05-.9,0-1.78.04-2.67-.16-.33-.07-.99-.34-1.34-.2s.04.43.06.67c-.25.32-.95.14-1.27.11-.7-.07-1.31-.19-1.97-.42-.76-.27-1.58-.48-2.36-.65-.62-.14-1.38-.32-2.01-.19-.15.32.27.63.45.85-.11.3-1.08.22-1.33.22-.99,0-2-.12-2.99-.17-1.1-.05-2.21-.26-3.27-.56-.84-.24-1.87-.81-2.75-.61-.04.34.14.59.35.86.12.16.46.41.44.62-.25.11-.59.03-.84,0-.43-.07-.86-.16-1.28-.25-.78-.16-1.57-.23-2.36-.34-.59-.09-1.19-.06-1.79-.14-.42-.05-.84-.11-1.26-.12-.17,0-1.24-.05-1.01.24.14.18.67.37.85.49.67.44,1.32.9,1.99,1.33,1.5.95,3.03,1.74,4.73,2.25,1.84.56,3.7,1,5.59,1.36,3.2.61,6.4,1.17,9.66,1.28,3.45.12,6.94-.36,10.3-1.12,2.34-.53,4.64-1.13,6.76-2.28,1.75-.95,3.43-2.01,4.58-3.67.18-.27.36-.54.53-.81.12-.17.45-.33.47-.54-.07-.03-.14-.02-.21.04"/><path class="cls-3" d="m77.44,74.37c-4.47,1.7-9.42,2.07-14.17,1.99-1.18-.02-2.36,0-3.54-.05-.81-.04-1.89-.54-2.67-.35-.65.16-1.39.78-1.96,1.12-.12.07-.56.24-.64.38-.2.37.23.55-.14.8l2.6-1.5c-2.49.46-4.89-1.57-7.42-1.29-.3.03-2.58,1.28-2.6,1.5-.02.32.5.79.35.96l2.6-1.5c-.51.2-1.12.13-1.66.11-1.01-.03-2.03-.1-3.04-.19-1.06-.1-2.11-.3-3.12-.63-.81-.27-1.54-.61-2.42-.51-.28.03-2.61,1.35-2.6,1.5.05.66.58.9.79,1.48l2.6-1.5c-.9.19-1.94-.24-2.83-.37-1.28-.2-2.57-.28-3.86-.41-.55-.06-1.24-.18-1.78,0-.72.23-1.44.81-2.09,1.19-.54.32-.77.35-.17.75.91.61,1.87,1.21,2.81,1.79,2.09,1.28,4.3,2.07,6.66,2.66,4.78,1.2,9.88,2.14,14.82,2.01,4.68-.12,9.88-.96,14.17-2.91,1.7-.78,3.35-1.77,4.94-2.76.9-.56,1.77-1.2,2.5-1.98.39-.41.7-.87,1.02-1.34.06-.09.35-.42.43-.58.08-.14.6-.42.1-.33-.93.17-1.68,1.33-2.6,1.5.51-.09-.14.36-.26.5-.3.34-.5.78-.77,1.14-.56.73-1.24,1.35-1.99,1.9l-.6.42c.64-.36.52-.32-.37.13-.41.18-.82.34-1.24.5-.98.35-1.99.63-3,.88-4.04,1-8.18,1.63-12.35,1.4s-8.56-1.01-12.67-2.09c-1.9-.5-3.72-1.13-5.44-2.09-.94-.53-1.82-1.15-2.73-1.74-.21-.14-1.47-.72-1.18-.93l-2.6,1.5c1.15-.28,2.61.06,3.77.17.86.09,1.73.21,2.58.37.69.13,1.43.4,2.13.25.27-.06,2.62-1.45,2.6-1.5-.21-.58-.74-.8-.79-1.48l-2.6,1.5c1.37-.16,2.79.69,4.13.95,1.61.31,3.32.37,4.95.4.97.02,1.46-.27,2.3-.75.26-.15,1.29-.54,1.42-.83.16-.35-.34-.5-.3-.99l-2.6,1.5c2.36-.26,4.52,1.26,6.86,1.33.77.02,1.39-.5,2.04-.88.29-.17.84-.37,1.07-.63.34-.38-.11-.46.18-.83l-2.6,1.5c.6-.1,1.19.19,1.78.28.89.13,1.81.07,2.72.08,1.86.03,3.7.03,5.56-.06,3.52-.18,7.01-.63,10.33-1.89.93-.35,1.68-1.15,2.6-1.5h0Z"/><path class="cls-3" d="m77.71,61.71c-.76-.6-1.43-1.17-2.07-1.9-.55-.63-1.08-1.23-1.57-1.92-.94-1.32-2.01-2.55-3.11-3.74s-2.4-2.28-3.73-3.21c-.7-.49-1.38-.98-2.18-1.29-.5-.2-1.12-.49-1.62-.16-.16.11-.3.25-.41.42-.05.14-.13.26-.24.35-.28.17-.83-.12-1.08-.23-1.2-.51-2.23-1.24-3.25-2.04-.39-.3-2.87-2.83-3.27-2.01-.05.32-.03.63.06.94.1.49.25.97.45,1.43.18.39.38.78.6,1.14.13.15.17.31.11.49-.26.07-.5-.11-.73-.21-.38-.16-.76-.33-1.13-.51-.96-.47-1.96-.84-2.92-1.31s-1.82-.89-2.61-1.59c-.35-.31-.68-.65-1.03-.97-.31-.27-.62-.6-1.04-.53-.18.67.06,1.37.26,2.02.23.77.61,1.39.99,2.09.16.32.32.65.48.97.13.22.22.46.26.71-.11.37-1.2,0-1.42-.03-.74-.14-1.39-.4-2.09-.69-.31-.13-.94-.55-1.26-.44-.44.16-.21.93-.16,1.23.09.55.13,1.09.28,1.63.05.17.33.71.15.88-.24.24-1.04-.01-1.3-.09-.49-.14-.95-.35-1.44-.5-.61-.18-1.19-.37-1.78-.61-.74-.3-1.4-.61-2.06-1.05-.26-.18-.46-.37-.7-.57-.18-.15-.4-.22-.58-.36-.23.26,1.9,2.39,2.01,2.5.55.57,1.14,1.12,1.7,1.68.81.81,1.59,1.64,2.47,2.39,1.58,1.35,3.33,2.62,5.23,3.47s4.01,1.43,6.1,1.72,4.26.23,6.34-.34c1.11-.3,2.27-.63,3.34-1.04.67-.26,1.28-.67,1.96-.9.6-.21,1.42-.37,2.06-.42.92-.07,1.85,0,2.77-.03.55-.03,1.1,0,1.64.07.88.13,1.79.64,2.61,1,.42.19.86.34,1.28.55.2.1.44.33.67.17"/><path class="cls-3" d="m79.01,60.96c-3.48-2.8-5.56-6.88-9.05-9.7-1.19-.96-3.55-3.15-5.23-2.52-1.26.47-2.37,1.32-3.25,2.26l2.6-1.5c-1.36.28-3.54-1.59-4.49-2.4-.74-.63-1.48-1.55-2.41-1.91s-2.11.72-2.86,1.22c-1.51,1,.86,3.15.77,4.32l2.6-1.5c-.91-.09-1.85-.73-2.68-1.1s-1.76-.75-2.61-1.18c-.75-.38-1.45-.79-2.09-1.34s-1.22-1.45-2.07-1.5c-.27-.02-2.57,1.29-2.6,1.5-.17,1.12.28,2.27.79,3.26.24.46,1.47,2.22,1.1,2.65l2.6-1.5c-.94.23-2.38-.4-3.2-.76-.39-.17-.91-.57-1.36-.53-.37.04-.76.37-1.07.54-.62.36-1.81.73-1.9,1.53-.06.49.17,1.22.25,1.69s.42,1.05.28,1.49l2.55-1.48c-.46.24-1.16-.08-1.61-.23-.73-.25-1.47-.48-2.2-.74-1.52-.55-2.64-1.42-4-2.23-.12-.07-2.54,1.31-2.6,1.5-.17.54,1.37,1.84,1.71,2.2,1.15,1.19,2.33,2.36,3.52,3.5,3.14,3.02,6.87,5.08,11.16,5.88,2.17.4,4.39.5,6.57.06s4-1.3,6-2.08c1.8-.7,3.95-.62,5.85-.54.99.04,1.81.34,2.7.74.68.31,1.95,1.2,2.68,1.06.93-.18,1.68-1.32,2.6-1.5-.73.14-2-.75-2.68-1.06-.88-.4-1.72-.7-2.7-.74-1.83-.08-3.91-.16-5.65.46-1.09.39-2.09.97-3.2,1.33-.98.32-1.99.62-3,.83-2.17.44-4.4.34-6.57-.06-4.22-.78-7.91-2.78-11.01-5.73-1.25-1.19-2.48-2.41-3.67-3.65-.36-.37-1.89-1.65-1.71-2.2l-2.6,1.5c.74.44,1.35,1.02,2.11,1.42s1.53.7,2.33.96c.98.32,2.43,1.13,3.46.77.55-.19,1.1-.62,1.6-.91.3-.17.93-.38,1-.75.05-.22-.15-.48-.21-.69-.1-.4-.16-.81-.22-1.22-.08-.5-.37-1.29.1-1.64l-2.6,1.5c.59-.03,1.14.39,1.68.61.59.24,1.19.41,1.82.55,1.19.27,1.61-.11,2.66-.72.23-.13.97-.41,1.12-.66.24-.41-.35-1.23-.56-1.64-.68-1.32-1.57-2.73-1.33-4.27l-2.6,1.5c.85.05,1.46.98,2.07,1.5.63.55,1.34.96,2.09,1.34.86.43,1.74.79,2.61,1.18s1.77,1.01,2.68,1.1c.25.03,2.59-1.33,2.6-1.5.05-.66-.61-1.36-.84-1.99-.18-.48-.65-1.64-.3-2.11l-.95.56.09-.05-1.65.94c.72-.11,1.57.79,2.06,1.21.85.74,1.66,1.45,2.62,2.07,1.01.65,2.15,1.5,3.29.86.6-.34,1.24-.65,1.81-1.05.39-.27.56-.63.92-.93l-2.6,1.5c1.3-.54,2.99.87,3.98,1.58,1.4,1,2.68,2.14,3.85,3.41,2.2,2.4,3.89,5.18,6.45,7.23.3.24,2.33-1.71,2.6-1.5h0Z"/><path class="cls-3" d="m87,51.54c.38-1.42.67-2.82.75-4.29.04-.75.05-1.5,0-2.25-.05-.69-.05-1.42-.16-2.1-.08-.5-.24-.97-.38-1.45-.13-.45-.21-.92-.37-1.36-.15-.33-.33-.65-.54-.95-.24-.4-.5-.78-.78-1.15-.41-.51-.88-.95-1.39-1.37-1.25-1.04-2.65-1.79-4.14-2.42-.68-.29-1.39-.47-2.07-.76-.49-.21-.99-.41-1.49-.61-.9-.38-1.76-.74-2.69-1.02-.39-.12-.77-.23-1.16-.35-.42-.12-.8-.32-1.21-.45.14.18.52.45.64.55.73.64,1.45,1.26,2.21,1.86,1.86,1.49,3.65,3.06,5.42,4.66,1.55,1.4,3.01,2.92,4.26,4.6.81,1.09,1.57,2.42,1.89,3.75.18.78.48,1.53.75,2.28.12.33.2.66.3.99.08.27.25.53.28.81.05.38.02.78.06,1.17.02.24.11.62,0,.85"/><path class="cls-3" d="m88.3,50.79c1.19-4.58,1.51-10.68-2.14-14.27-1.76-1.73-3.97-2.74-6.26-3.57-1.24-.45-2.44-1.02-3.68-1.49-1.17-.44-2.38-.79-3.56-1.2-.38-.13-2.4,1.71-2.6,1.5,1.53,1.59,3.47,2.88,5.15,4.31,1.85,1.58,3.71,3.18,5.37,4.96,1.56,1.68,3.13,3.57,3.81,5.8.35,1.16.73,2.31,1.09,3.46.29.93.59,2.01.4,3,.03-.17,1.13-.64,1.31-.74.2-.12,1.25-.53,1.29-.76.4-2.05-.9-4.35-1.44-6.28-.65-2.31-2.24-4.25-3.85-5.98s-3.42-3.29-5.21-4.83-3.72-2.8-5.3-4.44l-2.6,1.5c2.38.83,4.71,1.75,7.07,2.63s4.61,1.85,6.43,3.63c3.66,3.58,3.33,9.71,2.14,14.27.05-.19,1.12-.63,1.31-.74.22-.13,1.22-.51,1.29-.76h0Z"/><path class="cls-3" d="m89.28,64.39c1.44.28,2.93.73,4.4.76.89.02,1.84-.13,2.72-.25,1.05-.13,2.09-.29,3.14-.42,1.23-.16,2.43-.44,3.67-.54s2.55,0,3.83.05c1.56.07,3.1.17,4.58.72,1.14.42,2.25.96,3.31,1.56.72.41,1.45.85,2.01,1.47-.1.23-3.19-.87-3.53-.96-1.09-.3-2.89-.48-3.7.52.15.24.47.2.72.24.63.12,1.24.3,1.85.51,1.66.57,3.25,1.16,4.67,2.21,1.52,1.12,2.83,2.46,4.01,3.94.56.7,1.42,1.55,1.62,2.46-.23,0-.42-.25-.6-.38-.36-.27-.76-.5-1.16-.69-.32-.16-.65-.29-.98-.43-.15-.06-.8-.47-1-.26.19.63.54,1.11.96,1.6.81.92,1.78,1.69,2.58,2.64.86,1.01,1.54,2.14,2.26,3.25.22.35,1.13,1.36.78,1.77-.67-.1-1.16-.63-1.81-.8-.75-.2-.51.93-.49,1.38.07,1.16-.17,2.23-.23,3.38-.04.84.12,1.6.38,2.39.12.36.27.77.46,1.1.13.22.35.41.5.61.32.41.66.82,1.01,1.21-.2.1-.49-.17-.68-.29-.72-.47-1.31-1.11-1.95-1.68-2.9-2.54-5.83-5.06-8.82-7.49-1.47-1.2-2.98-2.36-4.45-3.57-1.33-1.1-2.53-2.3-3.78-3.5-2.36-2.27-4.9-4.4-7.5-6.38-1.4-1.06-2.7-2.31-4.15-3.31-.57-.39-1.14-.83-1.73-1.19s-1.27-.57-1.85-.99c-.4-.29-.8-.45-1.27-.6"/><path class="cls-3" d="m87.98,65.14c1.17.24,2.33.56,3.51.7s2.4-.02,3.61-.18c2.33-.31,4.7-.83,7.04-.98s5.01-.09,7.27.51c1.18.31,2.32.84,3.4,1.41.24.12,2.91,1.85,2.82,1.91l2.55-1.47c-1.32.11-2.74-.87-4.04-1.11-1.02-.19-1.97-.13-2.89.36-.76.4-1.95.85-2.53,1.49-.21.22-.44.19-.12.45.14.12.54.09.71.12.71.14,1.39.37,2.07.61,1.43.5,2.83,1.07,4.08,1.94s2.35,1.93,3.35,3.06c.89,1.01,2.05,2.14,2.46,3.46l2.6-1.5c-.72-.23-1.37-.9-2.09-1.22-.44-.2-1.19-.71-1.66-.54-.27.1-2.63,1.42-2.6,1.5.74,2.02,2.83,3.24,4.09,4.92.65.87,1.2,1.8,1.81,2.7.3.44.95,1.06.68,1.63l2.6-1.5c-.6-.15-1.31-.82-1.92-.8-.37,0-.76.33-1.07.5-1.01.58-1.99.76-1.95,2.01.06,1.52-.33,3.07-.18,4.58.19,1.86,1.15,3.12,2.33,4.49l2.6-1.5c-.71,0-1.52-.95-2-1.39-.69-.63-1.38-1.24-2.08-1.85-1.58-1.37-3.17-2.73-4.77-4.08-3.09-2.59-6.38-4.98-9.31-7.76s-5.85-5.39-9.02-7.84c-1.51-1.17-2.93-2.44-4.49-3.55-1.35-.96-2.93-2.01-4.51-2.54-.2-.07-1.12.63-1.31.74s-1.09.83-1.29.76c1.59.53,3.15,1.58,4.51,2.54,1.56,1.11,2.98,2.38,4.49,3.55,3.17,2.45,6.12,5.08,9.02,7.84s6.21,5.17,9.31,7.76c1.6,1.34,3.19,2.7,4.77,4.08.7.61,1.4,1.22,2.08,1.85.49.45,1.29,1.38,2,1.39.35,0,2.48-1.64,2.6-1.5-1.37-1.6-2.42-3.1-2.36-5.3.03-.99.25-1.96.24-2.95,0-.54-.24-1.31.11-1.77l-2.6,1.5c.64-.26,1.55.59,2.18.75.26.07,2.48-1.25,2.6-1.5.27-.57-.38-1.19-.68-1.63-.61-.89-1.16-1.83-1.81-2.7-1.26-1.68-3.35-2.9-4.09-4.92l-2.6,1.5c.45-.16,1.25.35,1.66.54.72.33,1.36.99,2.09,1.22.21.07,2.6-1.5,2.6-1.5-.41-1.32-1.57-2.44-2.46-3.46-1-1.14-2.11-2.2-3.35-3.06s-2.65-1.44-4.08-1.94c-.62-.22-1.24-.43-1.88-.57-.57-.12-1.5-.09-.66-.7l-2.55,1.48c1.67-.86,3.55.02,5.19.52.51.16,1.11.43,1.63.29.82-.22,1.76-.97,2.48-1.43l.04-.03c-3.38-3.44-8.92-4.11-13.48-3.82-2.35.15-4.71.67-7.04.98-1.21.16-2.39.32-3.61.18s-2.35-.46-3.51-.7c-.25-.05-1.08.61-1.31.74s-1.04.81-1.29.76h0Z"/><path class="cls-3" d="m87.12,80.91c.63.71,1.21,1.26,2.01,1.77.56.36,1.1.77,1.66,1.14.81.52,1.68.82,2.55,1.22s1.69.8,2.51,1.26c1.9,1.05,3.83,2.03,5.65,3.21.59.38,1.21.7,1.8,1.06.18.11.61.27.71.49-.52.18-1.18-.03-1.71-.02-.28.41,1.82,1.51,2.11,1.71,1.19.8,2.25,1.89,3.34,2.82.47.41.88.88,1.32,1.33s.89.81,1.33,1.23c.59.55,1.1,1.2,1.66,1.78-.12.23-.93-.33-1.13-.34.04.2.14.36.31.49.17.22.32.46.43.71.22.4.5.79.78,1.15s.59.66.81,1.09c.18.35.36.69.57,1.02.17.26.26.53.42.79s.35.54.53.79c.26.39.54.77.83,1.14-.51-.3-1.05-.52-1.58-.77-1.23-.56-2.46-1.22-3.66-1.83-5.83-2.97-10.87-7.38-15.27-12.19-.79-.86-1.58-1.71-2.26-2.65-.56-.77-1.07-1.57-1.62-2.34s-1.18-1.55-1.71-2.37c-.41-.64-.77-1.33-1.28-1.89-.34-.38-.49-.85-.74-1.3"/><path class="cls-3" d="m85.82,81.66c2.24,2.47,5.23,3.54,8.11,5.05,1.58.83,3.15,1.68,4.68,2.57.78.45,1.53.94,2.3,1.4.58.34,1.34.62,1.79,1.12l2.6-1.5c-.58.12-1.13,0-1.71-.02-.3-.02-2.53,1.25-2.6,1.5-.14.5,1.06,1.08,1.38,1.27.88.53,1.67,1.12,2.45,1.8,2.08,1.83,4.06,3.77,5.95,5.8l2.55-1.48c-.27.14-.81-.28-1.08-.36-.22-.07-2.59,1.53-2.6,1.5.47,1.21,1.57,2.19,2.25,3.29.82,1.31,1.49,2.65,2.43,3.89l2.6-1.5c-2.91-1.58-5.96-2.83-8.76-4.62s-5.21-3.74-7.56-5.92-4.63-4.38-6.47-6.9-3.95-5.13-5.36-7.9c.01.03-2.63,1.43-2.6,1.5,1.38,2.71,3.45,5.23,5.22,7.71s4.27,4.92,6.61,7.09,4.75,4.11,7.38,5.81c2.86,1.84,5.97,3.12,8.94,4.73.28.15,2.47-1.66,2.6-1.5-.94-1.24-1.61-2.58-2.43-3.89-.68-1.09-1.78-2.09-2.25-3.29l-2.6,1.5c.37.11.8.51,1.18.32.23-.12,2.49-1.54,2.55-1.48-1.89-2.03-3.87-3.97-5.95-5.8-.74-.65-1.5-1.23-2.35-1.74-.33-.2-1.62-.81-1.48-1.33l-2.6,1.5c.58.03,1.13.14,1.71.02.33-.07,2.5-1.61,2.6-1.5-.45-.49-1.22-.78-1.79-1.12-.78-.45-1.53-.95-2.3-1.4-1.54-.89-3.11-1.75-4.68-2.57-2.88-1.51-5.87-2.58-8.11-5.05-.16-.17-2.47,1.64-2.6,1.5h0Z"/><path class="cls-5" d="m86.37,56.28c1.07-1.22,2.33-2.28,3.77-3.05,2.02-1.09,4.24-1.9,6.45-2.48,2.05-.54,4.12-.77,6.23-.98,2.56-.25,5.09-.23,7.64.07,1.93.23,3.86.55,5.78.85,1.8.29,3.61.79,5.33,1.37,1.82.61,3.58,1.42,5.31,2.26.43.21.85.41,1.28.61.02.01.56.31.69.25-.58-.64-1.23-1.19-1.89-1.75s-1.36-1.04-2.02-1.58c-.93-.76-1.75-1.66-2.54-2.56-.35-.4-.69-.8-1.01-1.22-.06-.08-.2-.21-.17-.32.56-.08,1.15-.15,1.72-.16.36,0,.77-.02,1.13.04-1.03-.47-2.07-.86-3.19-1.03-1.47-.22-2.91-.46-4.39-.16-.25.05-.5.1-.74.15-.23.06-.47.07-.7.03-.43-.18-.08-.91.05-1.18.28-.61.72-1.06,1.33-1.35.24-.12.57-.18.79-.34-.58.13-1.17.21-1.76.31-.87.15-1.72.38-2.58.59-.94.22-1.92.37-2.84.67-.52.19-1.05.39-1.57.6-.58.21-1.17.42-1.75.63-.17.06-1.57.81-1.74.31-.16-.46.48-1.23.69-1.5.67-.89,1.55-1.56,2.56-2.01.34-.14.67-.27,1.01-.4.17.01.27-.04.31-.16-.96.11-1.87.32-2.79.61-.5.16-1,.34-1.49.51-.53.18-1.07.31-1.6.49-1.01.36-2.01.77-2.92,1.34-.61.38-1.21.77-1.81,1.16-.37.24-.75.59-1.21.56-.1-.23-.08-.45.08-.67.24-.4.51-.77.82-1.11.44-.51.94-.99,1.31-1.55-.33,0-.62.14-.92.28-.54.27-1.08.57-1.6.87-.98.56-1.85,1.27-2.71,1.99-.59.49-1.15,1.02-1.74,1.51-.54.45-1.08.88-1.6,1.35-.95.86-1.88,1.73-2.74,2.68-.72.79-1.41,1.53-1.97,2.45-.16.26-.19.54-.32.8-.07.13-.09.37-.25.42"/><path class="cls-5" d="m87.67,55.53c.54-.61,1.12-1.18,1.75-1.7,1.26-1.03-.08,0-.13-.1-.02-.04,1.37-.65,1.62-.76,1.69-.72,3.46-1.29,5.25-1.69,3.59-.8,7.41-1.1,11.08-.87s7.67.8,11.27,1.85c1.66.48,3.27,1.07,4.85,1.77.82.36,1.62.75,2.43,1.14.5.24,1.18.71,1.75.76.37.03,2.44-1.67,2.6-1.5-1.29-1.38-2.85-2.39-4.25-3.63-.68-.6-1.3-1.26-1.9-1.93-.46-.51-1.28-1.22-1.48-1.88l-2.6,1.5c.95-.13,1.89-.21,2.84-.12.3.03,1.05-.59,1.31-.74.16-.09,1.13-.83,1.29-.76-2.12-.94-4.58-1.54-6.91-1.29-.6.06-2.23.75-2.3-.16-.06-.73.76-1.56,1.28-1.93l-2.55,1.48c.4-.22.82-.36,1.21-.57.49-.27.98-.56,1.47-.84.27-.15.65-.5.95-.56-3.62.75-7.13,1.44-10.58,2.84-.86.35-2.25.79-1.37-.67.34-.56.8-1.07,1.28-1.5,1.32-1.16-1.93.75-.58.29.29-.1.61-.18.88-.29.32-.13,2.76-1.34,2.71-1.63-.05-.27-4.98,1.32-5.49,1.48-2.99.96-5.64,2.79-8.26,4.48l2.55-1.47c-1.45.66.03-1.33.41-1.75.08-.09,1.26-1.26,1.18-1.4-.09-.16-1.01.33-1.17.41-1.71.86-3.45,1.82-5.01,2.93-1.97,1.41-3.84,3.1-5.62,4.74-.95.88-1.86,1.8-2.72,2.77-.39.44-.79.9-1.12,1.39s-.43,1.18-.83,1.6c.65-.7,1.94-.8,2.6-1.5.48-.52.65-1.37,1.09-1.97s.96-1.15,1.46-1.7c1.05-1.14,2.19-2.22,3.37-3.23s2.42-2.13,3.68-3.11c.14-.11,1.03-.79.38-.38-.08.05,1.12-.63,1.27-.47.08.08-1.34,1.59-1.43,1.68-.2.24-1.18,1.29-.79,1.65.17.16.99-.38,1.15-.47,1.07-.61,2.12-1.24,3.15-1.91.3-.19.62-.36.91-.58-1.49.8-1.8.99-.95.58.27-.13.54-.25.82-.36.74-.3,1.5-.51,2.26-.76s1.42-.51,2.15-.72c.46-.13.92-.24,1.39-.33.19-.04,1.13-.35.83-.02l2.6-1.5c-1.49.22-3.11,1.42-4.36,2.19-.46.28-3.6,2.7-2.55,3.39.37.24,1.2-.3,1.54-.43,1.1-.45,2.23-.88,3.36-1.25,2.31-.77,4.8-1.08,7.18-1.57l2.42-1.4c-1.03.57-2.11,1.05-3.12,1.68-.6.37-1.95,1.4-1.67,2.28.21.65,1.16.23,1.65.14.88-.15,1.74-.17,2.63-.08,1.74.16,3.34.56,4.94,1.27l2.6-1.5c-.95-.09-1.9-.01-2.84.12-.27.04-2.62,1.44-2.6,1.5.18.61.92,1.25,1.33,1.71.65.73,1.31,1.45,2.05,2.1,1.41,1.23,2.96,2.25,4.25,3.63l2.6-1.5c-.66-.06-1.38-.58-1.97-.86-.93-.45-1.87-.89-2.82-1.3-1.94-.83-3.96-1.5-6.02-1.97-4.37-1.01-9.06-1.64-13.54-1.4s-8.54.95-12.49,2.68c-2.99,1.31-6.03,3.02-8.23,5.46.63-.7,1.96-.79,2.6-1.5h0Z"/><path class="cls-5" d="m86.13,53.79c.29-1.42.52-2.78.45-4.23-.06-1.25-.24-2.47-.46-3.7-.12-.64-.22-1.29-.38-1.92-.19-.77-.48-1.52-.78-2.25-.59-1.44-1.6-2.68-2.71-3.76-1.29-1.25-2.59-2.47-4.15-3.38-.92-.54-1.89-1.01-2.83-1.51-.76-.41-1.52-.82-2.3-1.19s-1.59-.8-2.39-1.2c-.64-.32-1.32-.58-1.99-.86-.44-.18-.91-.37-1.37-.51-.14-.04-.67-.25-.82-.15.14.42.62.68.96.92s.66.47,1.01.67c.5.28,1.02.52,1.52.8,1.08.6,2.09,1.29,3.02,2.11.35.31.69.63,1.04.93.17.15.59.41.58.69-.71.19-1.48.13-2.21.09-.77-.03-1.54-.1-2.3-.12-.1.13.06.25.14.35.32.39.8.71,1.24.92,1,.49,2.19.32,3.27.54.88.17,1.76.37,2.61.67.5.18.99.41,1.46.68.2.11.47.23.53.46-.88.32-1.88.35-2.79.52-.5.09-.99.2-1.48.33-.23.06-.57.09-.7.31.5.46,1.43.38,2.06.42.95.06,1.87.14,2.8.36s1.9.46,2.76.92c.37.2.71.44,1.02.73.2.11.27.27.21.47-.56.28-1.23.32-1.83.47-.36.08-.72.17-1.07.26-.26,0-.45.12-.58.32.25.35.66.52,1.05.68.49.2.99.36,1.49.56,1,.4,1.98.95,2.66,1.82.48.62.9,1.31,1.19,2.04.21.52.27,1.1.29,1.66.01.5.06,1,.08,1.5,0,.28-.03.56-.04.83,0,.3.02.58-.02.88-.06.41-.13.83-.2,1.24-.03.17-.07.36-.06.53,0,.07.02.12-.01.19"/><path class="cls-5" d="m87.43,53.04c.63-3.18.39-6.12-.26-9.28s-2.3-5.39-4.59-7.5-4.85-3.4-7.54-4.77c-1.37-.7-2.74-1.44-4.15-2.03-.84-.36-2.25-1.22-3.19-1.06-.28.05-2.59,1.52-2.6,1.5.79,1.42,3.07,2.09,4.38,2.91.75.47,1.46,1,2.13,1.59.46.4,1.44,1.02,1.63,1.62l2.6-1.5c-1.47.29-3.02.03-4.51-.03-.26,0-2.6,1.35-2.6,1.5,0,.65,1.23,1.25,1.77,1.43.86.28,1.79.22,2.68.35.94.14,1.91.37,2.81.7.62.23,1.63.55,1.98,1.14l2.6-1.5c-1.55.49-3.27.39-4.79,1-.45.18-.89.49-1.31.74-.22.13-1.28.55-1.38.85-.17.45,1.37.47,1.68.49.88.04,1.76.11,2.62.27,1.04.2,4.39.83,4.45,2.22l2.6-1.5c-.93.38-1.95.43-2.9.73-.72.22-1.34.65-1.99,1.02-.24.14-.73.31-.9.53-.3.37-.35.09-.07.5.43.64,2.02.86,2.69,1.16,1.82.82,3.34,2.51,3.69,4.52s-.08,4-.19,6.01c0-.13,1.16-.65,1.31-.74.17-.1,1.28-.57,1.29-.76.14-2.57.88-5.32-.45-7.72-.68-1.23-1.59-2.13-2.86-2.73-.6-.29-1.24-.49-1.86-.73-.42-.17-1.49-.5-.99-.99l-2.6,1.5c1.07-.27,2.22-.4,3.24-.82.32-.13,2.61-1.26,2.6-1.5-.06-1.39-3.4-2.02-4.45-2.22-.86-.16-1.74-.23-2.62-.27-.31-.01-2.13-.09-1.59-.57l-2.6,1.5c1.56-.53,3.23-.51,4.79-1,.27-.09,2.59-1.51,2.6-1.5-.74-1.23-3.53-1.65-4.79-1.84-.88-.14-1.82-.06-2.68-.35-.54-.18-1.76-.77-1.77-1.43l-2.6,1.5c1.49.06,3.04.32,4.51.03.27-.05,2.62-1.43,2.6-1.5-.19-.61-1.17-1.22-1.63-1.62-.67-.58-1.38-1.11-2.13-1.59-1.33-.83-3.59-1.48-4.38-2.91l-2.6,1.5c.9-.16,2.19.64,2.99.98,1.42.59,2.78,1.33,4.15,2.02,2.75,1.38,5.46,2.76,7.73,4.86s3.88,4.29,4.55,7.31c.71,3.2.94,6.24.3,9.47.03-.17,1.13-.64,1.31-.74.2-.12,1.24-.53,1.29-.76h0Z"/><path class="cls-5" d="m84.6,59.54c.61,1.53,1.4,2.8,2.65,3.89,1.66,1.44,3.38,2.58,5.36,3.52,2.15,1.02,4.4,1.57,6.68,2.2,3.46.96,6.84,2.53,9.8,4.55s5.44,3.85,7.36,6.71c.69,1.03,1.41,2.05,2.07,3.11s1.22,2.2,1.8,3.32c.98,1.92,1.94,3.97,3.59,5.41.8.71,1.65,1.41,2.53,2,.45.3.89.43,1.39.59-1.23-.48-2.53-1.1-3.63-1.84-1.68-1.13-3.26-2.36-5.07-3.28-.35-.18-1.19-.77-1.53-.39-.24.27-.07.64.06.94.18.42.43.81.7,1.17.12.16.47.45.44.64-.57-.35-1.06-.78-1.61-1.15-.65-.45-1.31-.85-1.93-1.36-1.46-1.21-2.4-2.75-3.37-4.36-.15-.26-.35-.74-.73-.55-.45.22-.44,1.23-.42,1.56.03.55.1,1.11.19,1.65.05.29.2.57.1.86-.81-.12-1.44-.94-1.92-1.55-.55-.72-.96-1.52-1.38-2.32-.53-1.01-.95-2.04-1.43-3.07-.12-.25-.54-1.49-.98-1.43-.47.06-.53,1.25-.54,1.53-.03.59.09,1.18.05,1.77-.02.34-.07.59.08.91.2.42,1.07,1.02,1.04,1.48-.91-.61-1.66-1.52-2.47-2.26-.56-.52-1.1-1.05-1.52-1.69s-.66-1.39-.96-2.06c-.55-1.21-1.04-2.49-1.68-3.66-.41-.75-.87-1.46-1.28-2.21-.36-.66-.66-1.25-1.1-1.85-.55-.76-.94-1.61-1.48-2.36-.48-.67-1.19-1.21-1.78-1.78-.23-.22-.47-.37-.73-.54-.19-.13-.31-.29-.47-.44-.23-.2-.49-.32-.74-.51-.18-.14-.33-.38-.55-.46"/><path class="cls-5" d="m83.3,60.29c1.43,3.47,4.51,5.71,7.82,7.31,3.49,1.69,7.4,2.22,10.97,3.73s6.59,3.48,9.42,5.86,5.13,5.76,6.87,9.13c1.9,3.67,3.9,7.88,8.16,9.27.2.07,1.11-.63,1.31-.74.17-.1,1.12-.83,1.29-.76-1.83-.74-3.44-1.69-5.05-2.82-1.36-.95-2.76-1.99-4.29-2.64-.98-.42-2.37.67-3.14,1.24-1.2.9.53,2.03.86,2.97l2.6-1.5c-1.5-.98-3.17-2.03-4.41-3.33-.54-.57-1.01-1.2-1.44-1.85-.37-.55-.78-1.74-1.33-2.13-.43-.31-.86.11-1.25.34-.56.32-1.26.6-1.75,1.02-1.06.92-.15,2.96-.17,4.11l2.6-1.5c-2.03-.55-3.13-3.46-3.93-5.18-.36-.77-.68-1.57-1.04-2.34-.28-.59-.45-.94-1.07-.69-1.21.5-2.63,1.13-2.78,2.52-.09.8-.15,1.95.02,2.73.16.73,1,1.04,1.13,1.77l2.6-1.5c-.91-.66-1.66-1.49-2.47-2.26-.74-.72-1.42-1.42-1.88-2.35-.94-1.92-1.61-3.94-2.7-5.8s-2.07-3.63-3.22-5.36c-1.1-1.63-2.93-2.91-4.49-4.05-.34-.25-2.29,1.73-2.6,1.5,1.57,1.15,3.39,2.42,4.49,4.05,1.16,1.73,2.18,3.56,3.22,5.36s1.76,3.88,2.7,5.8c.46.94,1.14,1.64,1.88,2.35.81.78,1.56,1.6,2.47,2.26.1.07,2.61-1.44,2.6-1.5-.09-.48-.46-.72-.74-1.08-.4-.53-.38-.87-.38-1.52,0-.92-.3-2.22.33-3.01l-2.6,1.5c.78-.36,2.04,3.36,2.24,3.78.75,1.54,1.79,4.02,3.62,4.52.2.05,2.6-1.37,2.6-1.5.01-1.07-.91-3.22.12-4.08l-2.6,1.5c.67-.07,1.05,1.09,1.35,1.58.52.83,1.08,1.64,1.74,2.37,1.25,1.38,2.99,2.47,4.54,3.48.14.09,2.59-1.51,2.6-1.5-.2-.57-2.02-2.25-1.08-2.84l-2.55,1.47c.62-.04,1.21.41,1.74.7.95.52,1.85,1.11,2.73,1.72,1.8,1.25,3.53,2.37,5.58,3.19l2.6-1.5c-3.63-1.18-5.79-4.61-7.42-7.83-1.74-3.43-3.74-6.98-6.57-9.65-2.63-2.48-5.81-4.59-9.06-6.15-3.52-1.69-7.34-2.31-10.94-3.74-3.82-1.51-7.62-4.03-9.23-7.93.04.1-2.66,1.36-2.6,1.5h0Z"/><path class="cls-5" d="m81.63,67.8c-.5-1.43-1.12-2.79-1.92-4.09-.97-1.56-2.78-2.55-4.37-3.39s-3.51-.6-5.29-.95c-1.46-.29-2.89-.68-4.35-.98-1.67-.35-3.33-.41-5.03-.34-3.29.13-6.56.85-9.85.7-1.24-.06-2.44-.2-3.61-.64-.94-.35-1.87-.76-2.77-1.2-2.2-1.06-4.01-2.84-5.64-4.61-.59-.64-1.16-1.3-1.76-1.93-.24-.25-.48-.55-.77-.74.07,1.35.58,2.6,1.31,3.73.99,1.55,1.63,3.07,3.22,4.14.62.41,1.26.77,1.84,1.24.38.31.66.45.37.9-.33.52-1.2.6-1.76.65-.52.05-1.15-.14-1.64.02.16.63.88,1.01,1.41,1.33.88.55,1.8,1.01,2.81,1.24,1.72.39,3.45.48,5.2.54.18,0,.68-.07.83.05.34.26.05.76-.15,1.03-.59.78-1.52,1.3-2.43,1.64-.4.15-1.01.2-1.32.48,1.67,1.14,4.1.69,5.9.21,1.08-.29,2.09-.58,3.05-1.17.31-.19.95-.77,1.36-.76.19.75-.03,1.57-.37,2.25-.18.35-.39.68-.65.98-.19.13-.31.3-.37.51.63-.14,1.1-.51,1.61-.9.76-.59,1.61-1.06,2.4-1.61,1.52-1.05,3-2.17,4.51-3.23s3.17-2.06,5.1-2.4c1.06-.19,2.09-.36,3.16-.45s1.99.11,3.01.24c.4.05.61.29.97.4.56.18,1,.47,1.52.73"/><path class="cls-5" d="m82.93,67.05c-.7-1.94-1.54-4.08-3.13-5.47-1.4-1.22-3.28-2.32-5.13-2.6-1.1-.17-2.22-.15-3.31-.35-1.02-.18-2.03-.45-3.04-.69-2.35-.55-4.63-.75-7.04-.6-4.64.29-9.29,1.49-13.76-.37-2.04-.85-3.83-1.91-5.45-3.42s-2.83-3.32-4.49-4.66c-.07-.06-2.61,1.4-2.6,1.5.19,2.21,1.46,4.19,2.7,5.98.6.88,1.32,1.55,2.21,2.13.65.43,2.77,1.35,1.49,2.22l2.55-1.47c-.99.43-1.98.16-3,.32-.27.04-2.61,1.48-2.6,1.5.57,1.39,2.87,2.24,4.22,2.57,1.07.26,2.2.37,3.3.45.76.05,1.73-.11,2.45.08.79.22.28.96-.1,1.37-.85.91-.76-.02.75-.28-.31.05-.73.22-1.03.33-1.12.39-2.19,1.11-3.18,1.76l-.04.03c2.12,1.3,4.88.59,7.08-.13,1.93-.63,3.59-1.86,5.3-2.91l-2.55,1.47c.73-.33.59.42.48,1-.11.63-.41,1.26-.79,1.77-.12.16-.56.49-.55.68-.12.17-.09.2.11.09.18-.05.35-.12.51-.21.33-.16.64-.36.96-.54,2.04-1.17,3.98-2.51,5.89-3.87,1.19-.85,2.36-1.73,3.56-2.57-.1.07,1.68-1.22.57-.41-.86.63.06.04.35-.06.66-.24,1.34-.39,2.03-.51,1.47-.26,2.94-.49,4.44-.31,1.41.17,2.53.65,3.78,1.31.14.07,1.15-.65,1.31-.74s1.16-.83,1.29-.76c-1.01-.54-2-1.07-3.14-1.23-1.27-.18-2.45-.17-3.72,0-2.15.3-3.97.89-5.85,1.95-4.01,2.28-7.5,5.3-11.42,7.69l2.55-1.47c-.68.32-.76.36-.32-.25.31-.43.61-.83.8-1.33.16-.4.41-1.09.27-1.52-.16-.5-.08-.42-.55-.22-1.22.52-2.38,1.35-3.47,2.1l.95-.56c1.3-.75.08-.2-.21-.11-.39.13-.79.23-1.19.34-.63.16-1.26.31-1.9.4s-1.34.14-2.01.07c-.11-.01-2.15-.58-1.81-.8l-2.55,1.47c1.34-.53,2.51-1,3.77-1.73.54-.31,3.52-1.94,2.52-2.77-.37-.31-1.85-.09-2.26-.11-1.11-.06-2.22-.16-3.3-.38-1.47-.29-4.06-1.15-4.69-2.67l-2.6,1.5c.82-.13,1.65.07,2.47-.13.55-.14,1.02-.45,1.5-.73.56-.32,1.34-.62,1.82-1.08.66-.64.06-.98-.51-1.4-.8-.58-1.68-1.01-2.39-1.72-.61-.61-1.08-1.34-1.52-2.08-.98-1.62-1.94-3.11-2.1-5.05l-2.6,1.5c1.61,1.3,2.82,3.1,4.33,4.52,1.61,1.52,3.38,2.62,5.41,3.48,4.56,1.93,9.22.75,13.96.46,2.33-.14,4.56.02,6.83.55,1.08.25,2.16.54,3.26.74,1.03.18,2.07.19,3.11.32,1.89.24,3.74,1.3,5.19,2.51,1.68,1.4,2.55,3.58,3.28,5.59-.05-.14,2.67-1.31,2.6-1.5h0Z"/><path class="cls-5" d="m81.24,69.21c-.07.48-.02.94.16,1.4l.29.9c.29.96.52,1.9.95,2.81,1.04,2.22,2.38,4.34,3.91,6.25.74.93,1.59,1.78,2.4,2.66s1.57,1.72,2.42,2.54c1.73,1.65,3.42,3.37,5.29,4.86,1.17.93,2.38,1.79,3.58,2.68,1.71,1.27,3.31,2.62,4.83,4.13,1.31,1.31,2.62,2.61,3.99,3.86.98.88,1.92,1.81,2.92,2.66,1.13.96,2.27,1.99,3.55,2.73.52.3,1.06.57,1.61.82.19.09.77.18.84.38-.49-.11-.97-.42-1.44-.59-.92-.34-1.92-.66-2.88-.82-1.05-.18-2.16-.22-3.22-.18-.47.02-.93.05-1.39.11-.2.03-.53.03-.69.19.12.28.7.46.94.6.27.16.6.28.84.48-.5.05-1.06-.2-1.53-.31-.66-.15-1.24-.23-1.83-.59-1.39-.85-2.59-2.3-3.53-3.61-.44-.62-.66-1.37-1.1-1.97-.48-.66-.58.19-.6.57-.03.79-.04,1.61.04,2.39.04.42.12.83.22,1.23.12.18.14.36.06.54-.42-.18-.65-.62-.92-.98-.4-.53-.81-1.05-1.16-1.62s-.7-1.21-.94-1.84c-.21-.54-.19-1.11-.38-1.65-.1-.29-.29-.95-.65-1-.49-.07-.7.96-.74,1.19-.14.77-.1,1.57-.09,2.35,0,.4.13,1-.06,1.37-.39-.12-.7-.48-.97-.77-.49-.52-.83-1.05-1.14-1.7-.62-1.31-1.31-2.58-1.73-3.97-.18-.58-.36-1.16-.55-1.74-.04-.11-.3-1.15-.58-1.2-.32-.05-.38.82-.53,1-.18-.04-.29-.22-.39-.36-.21-.3-.39-.67-.54-1.01-.33-.73-.48-1.47-.56-2.27-.15-1.59-.3-3.17-.61-4.74-.23-1.17-.45-2.37-.75-3.53-.16-.62-.81-.76-.93-1.39"/><path class="cls-5" d="m79.94,69.96c-.09,1.08.38,2.1.69,3.12.33,1.1.75,2.14,1.28,3.16,1.01,1.93,2.22,3.77,3.62,5.43,2.96,3.54,6.39,6.98,10.01,9.85,1.82,1.44,3.76,2.73,5.55,4.22s3.45,3.24,5.16,4.88,3.36,3.17,5.12,4.66c.91.78,1.84,1.54,2.87,2.15.52.3,1.06.59,1.61.82.3.12.6.14.84.38l2.6-1.5c-1.86-.58-3.47-1.39-5.46-1.55-1.46-.12-3.23-.27-4.54.47-.2.11-2.17,1.33-2.21,1.29.43.5,1.23.72,1.78,1.09l2.6-1.5c-1.82-.06-3.59-.86-4.88-2.11-.66-.64-1.25-1.36-1.79-2.1-.44-.61-.76-1.8-1.32-2.28-.49-.42-.79,0-1.33.31-.46.26-1.31.55-1.64.96-.44.55-.27,1.59-.25,2.24.03.86.47,1.92.35,2.73l2.6-1.5c-.64-.4-1.08-1.17-1.52-1.77-.52-.71-1-1.47-1.34-2.28-.3-.72-.36-3.21-1.49-2.93-.6.15-1.32.75-1.85,1.06-.35.21-.71.36-.93.72-.83,1.34,0,3.13-.4,4.54l2.6-1.5c-1.39-.65-2.05-2.35-2.67-3.64-.73-1.51-1.23-3.05-1.74-4.64-.08-.26-.21-1.02-.55-1.1-.24-.06-.95.49-1.1.58-.47.27-1.13.51-1.53.89-.31.29-.32.65-.5,1.03l2.6-1.5c-.78-.5-1.16-1.8-1.34-2.67-.28-1.33-.29-2.71-.48-4.06s-.44-2.59-.71-3.87c-.11-.51-.17-1.14-.43-1.59-.25-.43-.64-.63-.82-1.11.05.14-2.67,1.31-2.6,1.5.16.43.49.63.73,1,.28.43.35.98.46,1.48.3,1.35.57,2.72.76,4.09.18,1.28.21,2.6.44,3.87.17.93.54,2.32,1.38,2.86.12.08,2.5-1.3,2.6-1.5.15-.32.19-.67.39-.96l-2.6,1.5c.61-.19,1.6,3.85,1.8,4.32.71,1.65,1.56,4.2,3.31,5.02.15.07,2.54-1.31,2.6-1.5.39-1.38-.61-3.8.7-4.87l-2.6,1.5c.54-.09.71.55.84.97.26.82.33,1.62.71,2.4.57,1.17,1.55,2.98,2.69,3.68.11.07,2.57-1.35,2.6-1.5.12-.79-.32-1.88-.35-2.73-.02-.63-.19-1.73.25-2.24l-2.6,1.5c.67.07,1.12,1.7,1.46,2.2.51.75,1.1,1.47,1.73,2.13,1.37,1.42,3.16,2.33,5.16,2.4.33,0,1.02-.57,1.31-.74.13-.07,1.19-.83,1.29-.76-.55-.37-1.35-.58-1.78-1.09l-2.21,1.29.2-.11-.39.21c1.56-.32,3.3-.28,4.87-.04s3.01.97,4.55,1.45c.38.12,2.4-1.71,2.6-1.5-.24-.24-.53-.26-.84-.38-.55-.23-1.1-.52-1.61-.82-1.04-.61-1.96-1.37-2.87-2.15-1.7-1.44-3.34-2.96-4.96-4.5-1.77-1.69-3.44-3.47-5.32-5.04s-3.73-2.78-5.55-4.22c-3.57-2.83-6.9-6.22-9.86-9.68-1.46-1.71-2.72-3.61-3.76-5.6-.53-1.02-.95-2.05-1.28-3.16-.31-1.02-.78-2.04-.69-3.12-.01.13-1.16.65-1.31.74-.17.1-1.27.56-1.29.76h0Z"/><path class="cls-5" d="m79.82,72.25c-.73.8-1.44,1.6-2.24,2.32-.7.63-1.41,1.1-2.27,1.5-1.33.61-2.65,1.2-4.04,1.66-1.75.58-3.5,1.22-5.28,1.71-3.86,1.05-7.84,1.86-11.82,2.26-2.22.22-4.4.03-6.6-.26-.94-.12-1.89-.24-2.82-.4s-1.88-.47-2.83-.74c-1.28-.37-2.57-.63-3.81-1.13-1.41-.57-2.83-1.1-4.25-1.65-.54-.21-1.08-.45-1.61-.67-.21-.09-.86-.46-1.1-.38-.33.1-.12.53,0,.72.41.66,1.04,1.13,1.54,1.72.29.34.58.67.92.97.57.5,1.24.83,1.94,1.12,1.47.6,3,1.14,4.51,1.63.95.31,1.91.53,2.9.68.45.07.92.1,1.33.3-.65.63-1.74.85-2.58,1.14-.71.24-1.4.38-2.15.4-.31,0-.78-.08-1.04.14.1.19.27.29.51.31.56.15,1.11.29,1.67.42,1.69.41,3.33.76,5.09.73,1.6-.03,3.2-.2,4.75-.59.53-.13,1.05-.29,1.57-.46.18-.11.35-.11.51,0,.04.34-.3.67-.5.92-.66.84-1.56,1.48-2.45,2.05-.69.44-1.39.86-2.16,1.12-.25.09-1.29.23-1.21.58.95.21,2.01.13,2.97.06,1.48-.11,2.95-.45,4.35-.93.77-.24,1.5-.57,2.19-.99.53-.36,1.05-.74,1.56-1.13.39-.27.76-.56,1.12-.86.1-.24.24-.32.41-.23-.13.83-.59,1.46-1.04,2.14-.36.55-.7,1.11-.98,1.71.42.19,2.01-.58,2.14-.63,1.24-.5,2.56-1.11,3.68-1.85,1.42-.93,2.52-2.14,3.72-3.32.27.15.08.72.02.93-.18.71-.55,1.35-.86,2.01-.41.87-.79,1.75-1.22,2.61-.24.47-.58,1.01-.65,1.54-.16,1.35,2.22-.17,2.65-.4,1.71-.94,3.11-2.43,4.18-4.05.45-.68.9-1.4,1.26-2.13s.64-1.47.95-2.22c.67-1.6,1.68-3.01,2.46-4.55.31-.61.62-1.23.91-1.85.2-.42.38-.85.67-1.21.4-.51.83-.87,1.37-1.22"/><path class="cls-5" d="m78.53,73c-.86.95-1.79,1.81-2.7,2.7-.72.72,2.09-.96.74-.37-.39.17-.77.36-1.15.53-.6.26-1.2.52-1.82.75-2.51.95-5.1,1.78-7.71,2.44-5.43,1.38-10.95,2.38-16.56,1.7-5.23-.64-10.15-2.3-14.99-4.32-.53-.22-1.36-.79-1.95-.7-.67.11-1.85.96-2.38,1.37-.65.51-.04,1.07.44,1.58.81.87,1.59,1.87,2.62,2.48,1.19.71,2.57,1.13,3.87,1.59,1.41.5,2.82.97,4.29,1.23.5.09,1.27.38,1.75.37-.17,0,2.34-1.03,1.03-.68-.34.09-.67.22-1.01.32-.64.2-1.26.35-1.93.39-.48.03-.87-.05-1.31.17-.24.12-2.49,1.54-2.55,1.48.53.57,1.88.66,2.64.84,1.06.25,2.13.47,3.21.57,2.04.18,4.18-.04,6.17-.54.46-.11,2.01-.81,2.04-.29.04.62-1.15,1.51-1.6,1.88-.21.17-.42.33-.65.48-.75.49-.83.55-.23.17.51-.29.52-.32,0-.1-.12.03-.24.06-.36.09-.44.13-.8.29-1.2.52-.61.35-1.35.66-1.91,1.11-.71.57.37.48.93.5,1.9.05,3.82-.3,5.63-.87,1.41-.44,2.65-1.13,3.92-1.87,1.38-.8,3.2-1.73,4.16-3l-2.6,1.5c.63.02-.58,1.8-.81,2.15-.26.4-.66.89-.8,1.35-.17.59-.22.29.16.37.44.1,1.21-.39,1.61-.56.71-.3,1.42-.6,2.11-.94,1.34-.66,2.65-1.43,3.92-2.22,1.59-.98,2.86-2.3,4.17-3.61l-2.6,1.5c.4.56-.21,1.64-.45,2.16-.39.85-.79,1.69-1.19,2.53-.27.59-1.95,3.13-.38,2.93.86-.11,1.81-.82,2.54-1.24.14-.08,1.49-.86.46-.27-.97.56.24-.14.44-.25.59-.34,1.18-.67,1.75-1.04,2.88-1.91,4.43-4.95,5.77-8.02.75-1.71,1.81-3.26,2.65-4.92.77-1.53,1.29-2.91,2.76-3.92-.82.56-1.77.94-2.6,1.5-1.17.8-1.7,1.74-2.3,2.99-.65,1.34-1.39,2.62-2.13,3.92-1.5,2.64-2.34,5.48-4.36,7.83-.43.5-.89.96-1.39,1.38-.26.22-1.13.65-.18.25,1.04-.44.01,0-.22.15-1.25.72,1.64-.68.2-.14-.19.07-.36.17-.55.21-.27.07-.58.17-.8-.05-.56-.54,1.12-3.15,1.37-3.7.37-.81,1.86-2.94,1.24-3.81-.02-.03-2.42,1.32-2.6,1.5-.79.78-1.55,1.59-2.39,2.31-.21.18-.42.36-.64.53-.47.32-.45.33.05.04.62-.32.52-.28-.31.14-.25.12-.5.23-.76.34-.6.26-1.22.55-1.84.77-.2.07-.51.23-.72.2-.53-.08-.21-.29.03-.72.45-.8,1.07-1.53,1.43-2.38.53-1.25-.31-.62-.97-.24-1.62.93-2.95,2.13-4.5,3.19l.95-.56c1.33-.77.13-.18-.16-.07-.4.15-.82.28-1.23.4-.78.23-1.58.41-2.39.54s-1.59.18-2.38.2c-.33,0-2.05.06-1.53-.38l-2.6,1.5c.66-.31,1.37-.42,2.03-.75.78-.4,1.54-.85,2.29-1.3s1.46-.86,2.15-1.34c.54-.38,2.33-1.59,2.25-2.36-.05-.48-2.25.35-2.74.45-1.33.28-2.69.41-4.05.43-1.25.01-2.49-.16-3.71-.41-.92-.19-2.89-.33-3.56-1.04l-2.55,1.48c.42-.21.98-.1,1.43-.14.65-.06,1.25-.23,1.87-.43.78-.25,1.52-.5,2.24-.89.78-.43,1.58-.86,2.32-1.35.4-.27.56-.35-.03-.5-.55-.14-1.13-.18-1.68-.29-2.39-.47-4.87-1.36-7.08-2.4-.7-.33-4.81-3.53-3.89-4.3l-2.6,1.5c.75,0,1.63.62,2.31.89,1.12.46,2.26.87,3.38,1.31,2.19.85,4.42,1.5,6.69,2.1,4.89,1.3,10,1.2,14.94.36s9.82-2.13,14.45-3.99c1.77-.71,3.42-1.57,5.07-2.53,1.75-1.03,3.09-2.34,4.45-3.84-.63.7-1.95.79-2.6,1.5h0Z"/><path class="cls-2" d="m69.56,126.67l-12.49-3.52.97-3.47,16.25,4.57-1.47,5.26-13.88,3.16,12.05,3.39-.97,3.47-16.25-4.57,1.4-5,14.39-3.29Z"/><path class="cls-2" d="m67.18,151.03c-1.31,4.7-6.18,7.45-10.86,6.14s-7.39-6.2-6.08-10.9,6.15-7.44,10.83-6.12c4.68,1.32,7.42,6.19,6.11,10.89Zm-13.47-3.82c-.78,2.78.83,5.68,3.59,6.46,2.76.78,5.66-.86,6.43-3.63s-.86-5.66-3.62-6.44c-2.77-.78-5.63.84-6.4,3.62Z"/><path class="cls-2" d="m64.15,160.52l-1.04,3.73-12.97,1.12,10.5,7.73-1.03,3.68-14.55-10.67,1.13-4.05,17.96-1.54Z"/><path class="cls-2" d="m59.14,178.45l-3.11,11.12-3.46-.97,2.13-7.64-2.77-.78-2.04,7.3-3.46-.97,2.04-7.3-3.11-.88-2.23,7.99-3.46-.97,3.2-11.46,16.25,4.57Z"/><path class="cls-2" d="m55.07,193.04l-1.38,4.96-12.84.96,10.46,7.57-1.38,4.93-16.25-4.57.97-3.47,10.14,2.85-9.11-6.56,1.13-4.05,11.11-.87-10.07-2.83.97-3.47,16.25,4.57Z"/><path class="cls-2" d="m48.96,214.91l-1.99,7.13c-.78,2.78-3.58,4.44-6.21,3.7-.99-.28-1.8-.86-2.41-1.6-1.23.65-2.74.9-4.24.48-2.77-.78-4.37-3.68-3.59-6.46l2.19-7.83,16.25,4.57Zm-11.75,5.14l1.22-4.35-3.23-.91-1.22,4.35c-.25.88.23,1.76,1.1,2.01.9.25,1.88-.24,2.12-1.1Zm7.32-2.64l-2.65-.75-1.02,3.66c-.25.88.14,1.74.87,1.94.74.21,1.53-.32,1.78-1.2l1.02-3.66Z"/><path class="cls-2" d="m44.77,229.92l-3.11,11.12-3.46-.97,2.13-7.64-2.77-.78-2.04,7.3-3.46-.97,2.04-7.3-3.11-.88-2.23,7.99-3.46-.97,3.2-11.46,16.25,4.57Z"/><path class="cls-2" d="m38.7,251.64c-.78,2.78-3.67,4.41-6.43,3.63-2.19-.62-3.66-2.58-3.77-4.73l-3.01.7c-.88.2-1.39,1.06-1.19,1.96l-3.51.81c-.63-2.83,1.1-5.64,3.9-6.3l4.6-1.06.42-1.51-6.22-1.75.97-3.47,16.25,4.57-1.99,7.13Zm-2.44-4.63l-3.11-.88-1.02,3.66c-.25.88.23,1.76,1.1,2.01s1.76-.25,2.01-1.13l1.02-3.66Z"/></svg>