<?xml version="1.0" encoding="UTF-8"?><svg id="Layer_2" xmlns="http://www.w3.org/2000/svg" width="185" height="370" xmlns:xlink="http://www.w3.org/1999/xlink" viewBox="0 0 185 370"><defs><style>.cls-1{fill:#46854a;}.cls-1,.cls-2,.cls-3,.cls-4,.cls-5,.cls-6,.cls-7{stroke-width:0px;}.cls-2{fill:url(#linear-gradient);}.cls-4{fill:#8cc63f;opacity:.42;}.cls-5{fill:#588c5c;}.cls-6{fill:#ffefe1;}.cls-7{fill:#47a64e;}</style><linearGradient id="linear-gradient" x1="43.53" y1="917.24" x2="68.93" y2="1009.18" gradientTransform="translate(520.68 -804.38) rotate(30.21)" gradientUnits="userSpaceOnUse"><stop offset="0" stop-color="#69f"/><stop offset="1" stop-color="#9cf"/></linearGradient></defs><path class="cls-2" d="m.14.35l-.67,369.68L185.53,50.32S90.29-5.15.14.35Z"/><path class="cls-6" d="m.29,93.71l-.82,276.32,139.17-239.14S67.59,89.52.29,93.71Z"/><path class="cls-1" d="m75.56,95.99c.29-1.07.5-2.05.97-3.05.42-.88.78-1.78,1.21-2.66,1.03-2.11,2.28-4.12,3.55-6.09,1.06-1.64,2.07-3.31,3.12-4.96,1.34-2.1,2.37-4.26,3.39-6.53,1.16-2.57,2.23-5.18,3.34-7.77.93-2.16,1.53-4.43,2.28-6.65.48-1.4.86-2.87,1.97-3.91.68-.65,1.35-1.29,2.02-1.95.7-.7,1.54-.99,2.4-1.45,1.17-.61,2.25-1.37,3.4-2.01.52-.29,1.03-.6,1.54-.91.72-.44,1.3-1.09,1.95-1.63.9-.74,1.51-1.7,2.47-2.4.41-.3.73-.66,1.12-.97.54-.44,1.22-.7,1.84-1,.53-.26.96-.31,1.55-.34.79-.05,1.51-.3,2.27-.49,1.01-.25,2-.23,3.03-.23.75,0,1.49-.2,2.24-.16,1.38.06,2.93.49,4.24.9s2.72.35,4.13.34c1.99-.02,3.52.94,5.32,1.58.91.32,1.7.87,2.65,1.09.7.17,1.49.26,2.21.35.25.03.38.03.63,0,.62-.04,1.04.01,1.67.08.69.08,1.41.12,2.11.14.94.04,1.88.07,2.82.09.46.01,1.1.03,1.48.34-.43.21-.99.02-1.45.02-.49,0-.98.04-1.46.11-.65.09-1.3.22-1.94.34-.85.16-1.57.52-2.38.8s-1.5.7-2.29,1.08c-.84.4-1.74.62-2.58,1.03-1.33.65-2.69,1.39-3.88,2.25-1.41,1.01-2.62,2.35-3.73,3.67-.8.95-1.58,1.83-2.13,2.96-.42.86-.59,1.83-1.04,2.66s-.87,1.92-1.47,2.69c-.69.88-1.47,1.48-2.48,1.96-.48.23-.9.48-1.32.81-.52.41-1.06.65-1.63.97-1.06.61-1.79,1.62-2.84,2.27-1.21.74-2.34,1.29-3.69,1.71-.62.19-1.26.26-1.89.43-.83.23-1.57.73-2.29,1.21-2.24,1.49-3.81,3.7-6.3,4.86s-5.59.78-8.25.28c-1.25-.23-2.46-.33-3.69-.05-1.03.24-2.07.51-3.03.97-.71.34-1.36.77-2.04,1.16-.85.48-1.9,1.47-2.25,2.38"/><path class="cls-1" d="m76.43,95.49c1.27-4.7,3.81-8.75,6.39-12.83,1.32-2.08,2.69-4.15,3.85-6.32s2.16-4.45,3.13-6.72,1.98-4.44,2.81-6.71c.78-2.15,1.36-4.37,2.16-6.52.32-.87.72-1.69,1.36-2.38.42-.44.88-.85,1.32-1.27.17-.16.33-.33.5-.49.46-.44,1.19-.78-.05-.25,1.39-.59,2.72-1.43,4-2.21,1.46-.88,3.08-1.66,4.41-2.73,1.83-1.48,3.27-3.38,5.19-4.75l-.63.38c.5-.29,1.31-.4,1.95-.48.86-.1,1.65-.36,2.49-.53.79-.16,1.58-.17,2.38-.18s1.63-.15,2.45-.16c1.72-.01,3.28.64,4.92,1.02s3.28.03,4.9.33c2.99.54,5.47,2.49,8.52,2.85,1.44.17,2.96.2,4.42.27s3.48-.28,4.72.45l1.73-1c-.77.21-1.62-.01-2.42.06s-1.63.22-2.42.4c-1.52.34-2.93,1.02-4.32,1.7-1.51.74-3.08,1.23-4.56,2.04-.93.51-1.85,1.04-2.76,1.6-2.55,1.58-4.79,3.9-6.47,6.39-.84,1.25-1.18,2.71-1.84,4.05-.29.58-.54,1.18-.88,1.74-.43.71-1.01,1.15-1.54,1.75-.44.51,1.05-.56,0,.02-.13.07-.27.15-.4.22-.41.23-.81.46-1.21.7-.29.17-.91.41-1.06.7.02-.04.86-.47-.02.04-.17.1-.35.2-.52.29-.85.49-1.63.97-2.37,1.62-1.41,1.25-2.83,1.86-4.65,2.26-2.06.45-4.1,1.78-5.74,3.09-1.14.91-2.13,2-3.3,2.87-1.29.95-3.05,1.08-4.6,1.04-1.81-.05-3.55-.54-5.35-.68s-3.73.35-5.36,1.14c-2.06,1-4.98,2.36-5.99,4.52.23-.49,1.5-.5,1.73-1,1.25-2.67,4.9-3.81,7.65-3.67,3.08.16,6.03,1.27,9.09.23,1.71-.58,3.46-1.7,4.86-2.84,1.03-.84,1.96-1.79,2.99-2.62.38-.31.86-.74,1.3-.93-.32.14-.23.11.22.01.77-.16,1.54-.31,2.29-.56,1.85-.62,3.74-1.66,5.33-2.79.5-.36.94-.8,1.41-1.21.16-.14.85-.77.1-.23.15-.11.32-.18.48-.27.74-.42,1.49-.83,2.18-1.32-.11.08-.81.43-.05,0,.18-.1.36-.2.54-.3.35-.2.7-.4,1.05-.6.86-.51,1.65-1.07,2.26-1.88,1.71-2.25,2.08-5.16,3.86-7.37,1.07-1.33,2.2-2.67,3.49-3.79,1.62-1.41,3.39-2.09,5.33-2.91,1.56-.66,3.02-1.52,4.68-1.97.84-.23,1.73-.36,2.6-.46s1.83.13,2.67-.09c.29-.08,1.55-1.11,1.73-1-.6-.36-1.27-.33-1.95-.35-1.06-.03-2.13-.06-3.19-.12-1.7-.1-3.44-.11-5.12-.41s-3.37-1.23-4.98-1.89c-1.72-.71-3.19-.87-5.04-.89-2-.02-3.76-.78-5.7-1.11-.89-.15-1.72-.13-2.62-.05-.95.09-1.9.03-2.85.12s-1.91.47-2.88.61-1.7.23-2.59.66-1.73.9-2.55,1.42c-1.2.77-2.24,1.87-3.21,2.89-1.17,1.23-2.49,2.27-3.95,3.12-1.18.68-2.35,1.35-3.55,2-.78.43-1.62.85-2.31,1.4-1.34,1.06-2.85,2.47-3.55,4.05-.74,1.67-1.2,3.48-1.75,5.21-1.22,3.79-2.9,7.45-4.52,11.08-1.85,4.12-4.16,7.91-6.6,11.71s-4.58,7.52-5.73,11.8c.12-.45,1.61-.53,1.73-1h0Z"/><path class="cls-5" d="m76.01,95.67c-.34-.87-.25-1.66-.26-2.59s-.05-1.76-.02-2.65c.04-.98,0-1.98.14-2.95.22-1.49.52-3.03.53-4.54,0-1.11-.1-2.2-.06-3.31s-.31-1.98-.47-3.03c-.33-2.11-1.19-4.04-1.5-6.16-.14-.96-.42-1.9-.46-2.87-.03-.76,0-1.48.03-2.24.1-1.87.39-3.78,1.01-5.56.58-1.65.67-3.37,1.23-5.01.22-.65.54-1.32.65-2.01.16-.97.09-2.01.13-2.98.09-2,.59-4.31.08-6.26s-.61-4.01-1.1-5.98c-.35-1.38-.79-2.73-1.23-4.08-.52-1.58-1.09-3.36-2.11-4.68-.8-1.03-1.67-2.12-2.76-2.86-1.63-1.12-3.53-1.54-5.47-1.75-.57-.06-1.07-.19-1.63-.16s-1.12-.01-1.69-.05-.98-.22-1.52-.36-1.16-.14-1.72-.22c-.72-.11-1.37-.45-2.09-.55-.79-.11-1.51,0-2.29.1-1.42.17-2.46.74-3.69,1.42s-2.54,1.09-3.59,2.08c-.4.37-.61.77-.9,1.21-.24.37-.63.65-.85,1.02,1.09-.22,1.92-1.41,2.72-2.09.41-.34.76-.71,1.13-1.08.71-.72,1.56-.95,2.55-1.07,1.2-.15,1.95.08,2.74,1.02s1.76,1.6,2.17,2.81.67,2.67.7,4c.04,1.44-.47,2.7-.92,4.05-.37,1.1-.97,2.29-.96,3.47,0,.72.1,1.45.19,2.16.09.66.37,1.15.6,1.76.26.7.36,1.48.63,2.17.18.44.42.81.54,1.28.28,1.14-.52,2.38-.85,3.46-.64,2.1.64,4.56,1.8,6.25.75,1.09,1.66,2.1,2.85,2.73.99.53,1.95,1.01,2.86,1.67,1.66,1.2,2.54,3.07,4.15,4.29,1.13.86,2.23,1.7,3.23,2.73.47.48.99.91,1.46,1.39s.76,1.1,1.15,1.66c.78,1.13,1.62,2.37,2.22,3.61.55,1.14,1.66,2.71,1.31,4"/><path class="cls-5" d="m76.87,95.17c-.57-1.78-.3-4.01-.26-5.87s.43-3.8.59-5.72.19-4.26-.21-6.19-.9-3.78-1.39-5.68c-.99-3.82-1.16-7.79-.05-11.61.56-1.93.86-3.95,1.5-5.84.3-.89.64-1.69.72-2.64s.03-1.97.1-2.96c.14-1.9.45-3.76.04-5.65-.43-1.98-.62-4.01-1.1-5.98-.88-3.59-1.97-7.36-4.48-10.15-2.72-3.04-6.42-3.12-10.2-3.43-1.8-.14-3.57-.76-5.34-1.1s-3.63.15-5.16.91-3.03,1.53-4.49,2.37c-.41.24-.82.46-1.21.73-.83.59-1.23,1.38-1.88,2.13-.33.38-.8.79-.06.47.14-.06.27-.14.41-.21.47-.25.95-.53,1.4-.81,1.47-.92,2.47-2.43,3.86-3.43l-1.47.86.3-.17-.26.14c.8-.35,1.78-.57,2.66-.46,1.03.13,1.59.87,2.26,1.58s1.33,1.35,1.68,2.27c.45,1.18.65,2.52.69,3.77.09,2.55-1.44,4.63-1.81,7.07-.16,1.05-.04,2.36.26,3.38.33,1.1.68,2.31,1.1,3.38s.75,1.71.41,2.84-.95,2.16-.88,3.43c.13,2.11,1.44,4.27,2.81,5.82,1.51,1.71,3.77,2.27,5.44,3.78.74.67,1.34,1.47,1.98,2.23.77.92,1.65,1.61,2.59,2.35,1.05.82,1.98,1.74,2.95,2.65s1.65,2,2.4,3.12,1.38,2.26,2.01,3.44c.56,1.07,1.22,2.15.99,3.4.07-.41,1.65-.57,1.73-1,.21-1.18-.37-2.23-.91-3.24-.69-1.3-1.39-2.57-2.23-3.79-.76-1.12-1.43-2.13-2.42-3.07s-2.02-1.91-3.14-2.77c-1.92-1.49-3.16-3.69-5.17-5.05-1.02-.69-2.19-1.14-3.19-1.85-1.07-.76-1.89-1.83-2.58-2.94s-1.26-2.25-1.47-3.51c-.25-1.45.28-2.49.73-3.82.48-1.42-.06-2.15-.48-3.46s-.97-2.63-1.14-3.94c-.19-1.41-.12-2.59.35-3.93s1.05-2.66,1.29-4.06c.44-2.55-.25-5.4-2.04-7.27-.84-.88-1.5-1.82-2.81-1.86-1.05-.03-2.02.29-2.92.79-.71.4-1.43.77-2.03,1.31-1.05.95-2,2.16-3.21,2.91l1.7-.98c-.35.16-.69.52-.43-.03.12-.26.48-.52.66-.76.41-.56.7-1.03,1.22-1.49l-.3.11c.36-.18.72-.35,1.08-.53.26-.13.52-.26.78-.4.8-.43,1.59-.88,2.47-1.15,3.19-.97,6.08.61,9.24.81s6.47.28,8.99,2.42c2.36,2.01,3.46,4.65,4.39,7.51,1.1,3.37,1.87,6.89,2.34,10.4.2,1.47-.03,2.97-.16,4.44-.14,1.6.07,3.27-.42,4.82s-.9,3.19-1.29,4.84c-.41,1.75-1.03,3.39-1.25,5.19-.4,3.25,0,6.34.89,9.49,1.05,3.69,1.71,7.37,1.34,11.22-.18,1.92-.53,3.77-.58,5.71-.04,1.81-.29,3.93.26,5.66-.04-.12,1.78-.85,1.73-1h0Z"/><path class="cls-7" d="m75.17,98.13c.18-2.39.33-4.83.83-7.18.56-2.65.9-5.31,1.96-7.81.32-.77.65-1.55,1.03-2.29s.69-1.57,1.17-2.27c.8-1.18,1.65-2.3,2.55-3.4.98-1.21,1.76-2.56,2.34-4s1.52-2.65,2.01-4.14c.15-.47.3-.89.55-1.32.29-.52.38-1.06.63-1.59.22-.49.53-.89.7-1.42.23-.71.51-1.16,1-1.74,1.42-1.7,3.01-2.98,3.77-5.14.24-.68.39-1.33.42-2.05.02-.44-.1-.85-.09-1.28,0-.25.11-.41.06-.65-.04-.2-.15-.36-.19-.57-.07-.4-.03-.84-.06-1.25-.03-.44-.04-.9.01-1.33.08-.68.05-1.42.25-2.08.15-.48.46-.88.71-1.31.47-.79.66-1.52.72-2.44s-.28-2.03-.61-2.91-.68-1.93-.88-2.9c-.12-.6-.17-1.03-.41-1.62-.26-.63-.6-1.19-.93-1.78-.98-1.77-1.9-3.34-3.52-4.61-.45-.35-.75-.77-1.13-1.18-.48-.52-1.05-.95-1.53-1.46-.67-.71-1.2-1.6-1.8-2.38-.81-1.05-1.68-2.06-2.56-3.06s-1.68-2.21-2.77-2.96c-.64-.44-1.32-.84-1.95-1.3-.47-.34-1.54-.8-1.78-1.34,1.1.56,1.85,1.28,2.75,2.08,1.11.98,2.33,1.85,3.16,3.1s1.42,2.58,1.73,4.01c.12.56.07,1.14.07,1.71,0,.89.01,1.79-.12,2.67-.24,1.59-.79,3-1.8,4.27-.32.41-.75.78-1,1.23-.34.62-.49,1.08-.98,1.61-.8.85-1.35,2.16-1.86,3.21-.63,1.31-.75,2.62-.59,4.06.11,1,.49,1.99.63,2.99.18,1.23.16,2.49.03,3.72-.19,1.89-1.16,3.47-2.11,5.04-.44.73-.75,1.29-.58,2.16.06.32.25.58.34.88.11.37,0,.8-.06,1.2-.15,1.05-.25,1.72.16,2.71.16.38.22.79.41,1.16.41.83.93,1.52,1.16,2.44s.44,1.93.6,2.89c.2,1.19.17,2.4.33,3.6.25,1.91-.12,3.88-.26,5.79-.21,2.83-.1,5.94-1.08,8.65"/><path class="cls-7" d="m76.04,97.63c.49-6.58,1.35-13.85,4.98-19.55.92-1.44,2.07-2.7,3.06-4.07s1.57-2.95,2.36-4.46c1.35-2.6,2.32-5.34,3.59-7.97.57-1.18,1.66-2.11,2.52-3.08,1.03-1.17,1.88-2.44,2.25-3.97.67-2.83-.93-5.97.31-8.75.6-1.35,1.36-2.24,1.3-3.81-.07-1.72-1.01-3.33-1.4-4.98-.65-2.76-2.02-5.59-4.05-7.63-1.25-1.26-2.68-2.4-3.84-3.75s-2.07-2.79-3.21-4.12-2.21-2.92-3.64-3.96c-.69-.5-1.43-.98-2.15-1.43-.56-.36-1.21-.62-1.58-1.21l-1.73,1c1.03.56,1.88,1.31,2.75,2.08s1.89,1.53,2.67,2.46c.83.98,1.44,2.18,1.86,3.39.47,1.36.45,2.67.42,4.09-.06,2.65-.95,4.54-2.56,6.58-.36.46-.56.98-.87,1.47-.26.42-.62.77-.91,1.17-.68.96-1.25,2.14-1.65,3.25-.99,2.69.31,5.16.41,7.86.04,1.26-.01,2.58-.4,3.79-.41,1.29-1.13,2.42-1.81,3.58s-.63,1.68-.3,2.9-.32,2.42,0,3.64c.3,1.13.88,2.06,1.37,3.1.55,1.16.75,2.54.94,3.8.48,3.01.37,5.93.1,8.94s-.12,6.15-1.12,9.09c.16-.47,1.57-.52,1.73-1,.85-2.52.87-5.16,1.02-7.79.08-1.33.26-2.65.35-3.97.1-1.43-.07-2.82-.17-4.25-.08-1.25-.25-2.46-.51-3.68-.28-1.31-.77-2.31-1.36-3.5-.48-.98-.85-2.12-.76-3.22.05-.6.27-1.23.19-1.83s-.44-1.02-.4-1.67c.07-1.1.97-2.09,1.48-3.03.7-1.28,1.17-2.58,1.29-4.04.11-1.3.08-2.62-.2-3.9-.29-1.35-.66-2.62-.55-4.02.09-1.17.53-2.17,1.03-3.22.54-1.12,1.28-1.97,1.93-3,1.26-2,2.8-3.7,3.25-6.1.55-2.93.21-5.87-1.38-8.41-.77-1.24-1.84-2.14-2.94-3.07-1.04-.89-2-1.81-3.21-2.47-.16-.09-1.68,1.08-1.73,1,.58.91,2.06,1.54,2.95,2.13,1.47.97,2.43,2.14,3.56,3.47,1.05,1.23,2.12,2.43,3.06,3.75s2.05,2.29,3.11,3.46c.98,1.08,2.12,1.93,2.96,3.14s1.78,2.7,2.34,4.12.76,3.04,1.29,4.52.84,2.85.35,4.35c-.24.72-.74,1.28-1.04,1.96-.28.64-.3,1.33-.35,2.02-.13,1.59.14,3.08.16,4.64s-.16,2.79-.93,4.14c-.71,1.25-1.75,2.25-2.7,3.32-1.97,2.22-2.58,5.2-3.86,7.82-.64,1.32-1.32,2.62-1.95,3.94-.74,1.53-1.76,2.81-2.8,4.14-4.84,6.25-6.07,14.14-6.65,21.84.03-.36,1.7-.61,1.73-1h0Z"/><path class="cls-4" d="m125.78,46.93c-3.01.65-5.94,1.69-8.67,3.11-2.39,1.2-4.57,2.76-6.88,4.08-3.01,1.67-5.77,3.75-8.48,5.86-2.96,2.25-5.61,4.84-8.18,7.51-3.88,3.69-6.96,7.67-9.6,12.56,1.44-1.95,3.23-4.29,4.64-5.83,2.47-2.68,5.18-5.12,7.74-7.71,4.99-5.03,10.51-9.02,16.35-12.35,3.86-2.58,8.52-4.77,12.49-5.95,1.33-.39,2.63-.88,3.97-1.23,1.83-.45,3.74-.58,5.6-.77-3.02-.24-6.04-.1-8.97.72Z"/><path class="cls-4" d="m107.44,69.37c-2.27-.16-4.53-.58-6.81-.56-.95-.09-1.89-.23-2.85-.06-1.02.04-2.48.62-3.81,1.05-1.35.66-2.55,1.61-3.78,2.48,1.26-.67,2.52-1.39,3.82-1.96,1.08-.26,2.9-.8,3.63-.86.88-.13,1.86-.09,2.95.01,1.97-.12,3.93.2,5.9.09.84,0,1.93.04,2.65-.05-.57.03-1.14-.12-1.71-.14Z"/><path class="cls-4" d="m118.99,61.97c-1.52-.37-3-1-4.58-.98-1.17.08-2.32.43-3.47.44-2.42-.38-4.9-.11-7.28.42-2.5.92-4.95,2.07-7.19,3.53,2.38-1.22,4.88-2.09,7.21-2.87,2.54-.42,4.44-.67,7.11-.35,1.17-.02,2.35-.41,3.53-.6.95-.11,1.92.05,2.85.26,1.08.17,2.45.48,3.39.47-.53-.06-1.04-.19-1.55-.32Z"/><path class="cls-4" d="m123.89,54.57c-.58.08-1.18-.02-1.76.08-.87-.1-1.74-.21-2.62-.29,0,0,0,0,0,0-.13-.02-.22-.13-.37-.23-.81-.44-1.82-.29-2.72-.41-1.58.02-3.18.09-4.67.68,2.24-.47,4.76-.2,6.9.12.13.04.23.12.39.23.41.26.94.15,1.4.18.59.02,1.18.1,1.76.06.58-.17,1.21-.1,1.78-.29.37-.11.77-.2,1.13-.27-.41.02-.82.05-1.23.14Z"/><path class="cls-4" d="m109.65,46.88c-.41.86-1.17,1.46-1.74,2.21-.22.39-.25.86-.38,1.28-.15.64-.58,1.13-.81,1.76-.33.42-.68,1.17-.77,1.8-.19.59-.34,1.28-.46,1.81-.83,1.45-2.02,2.9-2.96,4.36.84-.91,1.55-1.76,2.33-2.6.43-.51.85-1.05,1.18-1.63.1-.32.12-.58.25-.91.22-.6.37-1.42.61-1.9.56-1.02,1.09-2,1.23-3.17.02-.54.35-.97.71-1.36.44-.55.76-1.18,1.01-1.83.07-.2.24-.54.32-.6-.25.21-.36.53-.53.79Z"/><path class="cls-4" d="m101.27,52.79c-.23.44-.56.81-.81,1.23-.19.24-.23.56-.38.82-.52.72-1.05,1.45-1.4,2.27-.16.31-.27.78-.32,1.01-.31.63-.68,1.52-.97,2.28-.09.23-.12.62-.05.74-.16.76-.24,1.72-.49,2.54-.4,1.22-1.33,2.18-2.09,3.19.89-.86,1.88-1.7,2.45-2.82.33-.7.46-1.47.63-2.22.13-.37.17-.73.13-1,.23-.69.7-1.73,1.02-2.53.07-.63.48-1.47.82-2.19.03-.09.54-.88.64-1.23.09-.62.4-1.16.68-1.71.05-.1.22-.56.13-.38Z"/><path class="cls-4" d="m73.43,71.13c-.3-.87-.69-2.4-1.03-3.57-.13-1.03-.23-2.12-.33-2.85-.17-1.39-.19-1.88-.27-3.28-.19-1.53-.21-1.54-.28-2.89-.25-1.68-.58-3.36-.6-4.58-.17-1.82-.49-3.62-.65-5.44-.16-1.44-.51-2.86-.59-4.31-.18-3.33-1.63-8.57-3.41-12.17-1.17-2.55-2.43-4.93-4.2-6.71-.92-.8-1.84-1.71-3.02-2.08-1.23-.24-2.83,0-3.9-.09,1.38.34,2.75.16,4,.73,3.04,2.12,4.27,5.2,5.82,8.56,1.96,4.18,3.18,8.48,3.42,12.81.56,3.54.98,7.13,1.23,10.21.11,1.14.36,2.25.5,3.39,0,.16.03.58.05.71.04.82.23,1.61.3,2.43.01,1.32.44,3.41.77,5.21.47,1.67,1.14,3.31,1.88,4.89.88,1.63,2.03,3.11,3.08,4.64-.95-1.85-2.1-3.63-2.77-5.61Z"/><path class="cls-4" d="m69.56,57.36c-.58-.65-1.3-1.62-2.37-1.81-.18-.03-.35-.03-.53,0-.01,0-.03,0-.04,0-.17.05-1.3-.46-1.36-.51-.31-.17-.71-.48-.76-.58-.65-.99-1.42-2.06-2.57-2.45-.29-.13-.55-.32-.85-.43-.15-.08-.6-.46-.53-.36.47.57,1.09.97,1.72,1.35.26.26.52.54.74.84.39.54.65.97.97,1.57.66.7,1.55,1.22,2.49,1.45.21.04.42-.01.45,0,.05,0,.11,0,.15.02.64.13,1.04.7,1.78,1.24,0,0,.01,0,.01.01.02.02.03.03.04.05.15.26.33.51.5.76.54.92.78,2.43,1.1,3.61-.08-1.63-.1-3.32-.96-4.75Z"/><path class="cls-4" d="m69.38,48.62c-.28-.6-.34-1.15-.38-1.75-.02-.29-.36-.64-.47-.78-.42-.64-.78-1.64-1.49-2.17-.4-.4-.74-.86-1.16-1.24-.3-.24-.66-.41-1-.57.1.05.18.09.03,0-.25-.24-.82-.92-1.64-1.34-.58-.4-1.27-1.37-2.01-2.13-.71-.73-1.31-1.2-1.79-2.17-.22-.28-.45-.55-.56-.9-.4-1.02-1.11-1.93-1.75-2.78.47.83.96,1.67,1.26,2.58.14.42.21.89.51,1.24.26.52.51,1.12.88,1.61.3.36.65.67.91,1.06.69.8,1.1,1.63,1.96,2.34.78.45.9.78,1.63,1.44.62.29.92.5,1.58,1.24.48.54.77.61,1.05,1.03.08.12.9,1.43,1.24,1.66.08.51.36,1.45.74,2.04.51,1.24.84,2.54,1.28,3.8-.27-1.41-.38-2.85-.81-4.22Z"/><path class="cls-4" d="m69.38,33.64c.73-2.16-.16-4.37-.6-6.5-.02-.13-.05-.28-.07-.39,0,.47.05.93.1,1.4.04,1.33.48,3.48.2,4.62-.11.77-.44,1.63-.68,2.51-.19.95-.16,1.93.03,2.87-.12-1.59.44-3.05,1.02-4.5Z"/><path class="cls-4" d="m73.39,45.1c-.05-1.27-.39-2.51-.42-3.77-.07-1.25.13-2.51.38-3.71-.49,1.35-.86,2.77-.87,4.21,0,1.74.27,4.14-.09,5.14-.13.47-.35,1.17-.39,1.5-.17.72-.54,1.37-.75,2.08-.25.63-.56,1.24-.73,1.9-.08.4-.09.81-.17,1.21-.06.53-.17,1.05-.27,1.53.13-.33.26-.66.37-.99.19-.56.32-1.14.52-1.7.35-.72,1.01-1.84,1.18-2.3.79-1.56,1.38-3.33,1.26-5.1Z"/><path class="cls-4" d="m80.58,65.93c-.28,1.38-.44,2.78-.45,4.18.33-1.36.5-2.81.45-4.18Z"/><path class="cls-4" d="m80.14,74.19c.4-1.47.86-2.93,1.31-4.39.46-2.33.63-3.55,1.19-5.46.54-1.52,1.07-3.04,1.58-4.56.37-.9.8-1.78,1.07-2.72.86-2.63,1.12-4.3,1.72-6.8.65-3.62.99-7.28.77-10.96,0-3.12-.44-6.2-1.25-9.22-.62-2.19-1.27-4.28-2.65-6.5-.7-.97-1.62-2.02-2.34-2.83.75,1.15,1.59,2.27,2.18,3.51,1.06,2.52,1.52,4.78,1.95,7.23.44,2.7.73,4.53.74,7.25.09,2.48.07,4.96-.17,7.43-.45,2.99-.85,5.08-1.43,7.47-.32,1.59-.92,3.64-1.73,5.59-.55,1.92-1.3,3.78-1.78,5.72-.21,1.12-.24,1.57-.47,2.58-.06.95-.1,1.92-.36,2.84-.35,1.33-.49,2.36-.74,3.59-.45,1.54-.69,3.12-.83,4.71.3-1.53.65-3.04,1.24-4.49Z"/><path class="cls-4" d="m86.05,47.6c.17-.74.31-2.41.22-3-.04-.75-.25-1.49-.36-2.24-.24-.75-.8-1.53-1.07-1.99-.32-.57-.83-1.11-1.25-1.52-.64-.65-1-1.51-1.36-2.34.22,1.06.52,2.14,1.26,2.96.14.22.39.55.58.81.32.62.88,1.46,1.17,2.21.1.62.36,1.64.45,2.41.03.11.07,1.24.13,1.84.01.52.02,1.35.05,1.95.07-.36.13-.72.2-1.08Z"/><path class="cls-4" d="m80.53,69.72c.12-.64.18-1.66.29-2.12.25-1.12.24-2.86-.37-4.05-.6-.86-1.09-1.83-1.9-2.52-.51-.33-1.14-.43-1.71-.65-.66-.39-1.08-1.06-1.55-1.64.42.75.79,1.67,1.6,2.08.48.2.63.29,1.1.53.1.03.26.2.4.38.31.41.53.91.81,1.35.36.66.63,1.04.8,1.77.17,1.03.25,1.51.16,2.68-.04,1.31.06,2.62-.04,3.93.14-.58.28-1.15.4-1.73Z"/><path class="cls-4" d="m89.57,52.75c-.32.29-.65.57-.97.85-.51.21-1.12.47-1.61.79-.63.38-1.03,1.02-1.45,1.6-.5.72-.99,1.46-1.31,2.28-.22.57-.46,1.14-.65,1.72-.11.92-.09,1.86-.02,2.79.1-.93.18-1.89.45-2.79.84-1.71,1.96-3.6,3.17-4.93.51-.4.98-.68,1.56-1,.29-.19.47-.51.71-.76.41-.45.73-1.04,1.06-1.51-.33.31-.61.66-.94.97Z"/><path class="cls-4" d="m82.9,60.07c.47-1.7.85-3.43.69-5.2-.05-.53-.25-.79-.34-1.26-.09-.69-.39-1.31-.68-1.94-.19-.48-.64-.76-.91-1.18-.64-.92-1.09-2.07-1.5-3.15.29,1.35.58,2.79,1.43,3.92.23.26.41.6.44.77.22.64.4,1.06.49,1.72.1.51.31.79.37,1.25.07.78.19,2.06.07,3.3-.06.79-.22,1.69-.16,2.43.03-.22.05-.45.1-.67Z"/><path class="cls-4" d="m88.51,44.87c.48-1.66.62-3.38.92-4.92.2-.83.4-1.2.91-1.89.56-.84,1.22-1.75,2.14-2.21-.99.29-1.82,1.09-2.48,1.86-.8.77-1.25,1.76-1.47,2.84-.27,1.27-.42,2.72-.7,4.34-.14.55-.52,1.39-.61,2.08-.03.81-.11,1.64-.14,2.43.19-.84.38-1.71.54-2.5.27-.73.67-1.33.88-2.03Z"/><path class="cls-4" d="m84.42,65.89c-.48.71-.84,1.49-1.38,2.16-.54.75-.69,1.01-1.31,1.53,0,0,0,0-.01,0-.31.13-.51.41-.74.65-.58.9-.8,1.53-1.16,2.16-.41,1.27-.5,1.96-.71,3.2-.36,2.05-.69,3.84-1.05,6.18-.1.53-.18,1.11-.22,1.63.19-.84.49-1.66.72-2.49.73-2.44,1.5-4.87,2.19-7.32.34-1.15.64-1.28,1.13-2.52.25-.52.74-.56,1.47-1.82.54-.93,1.01-1.89,1.38-2.9.51-1.05,1.3-1.93,1.91-2.91-.72.83-1.57,1.56-2.22,2.45Z"/><path class="cls-3" d="m61.17,120.64c-.83-.14-1.58.36-1.8,1.2-.23.88.27,1.76,1.15,1.99l11.88,3.05-.9,3.5-11.88-3.06c-2.79-.72-4.47-3.58-3.75-6.38.63-2.45,2.9-4.05,5.33-3.92l-.04,3.62Z"/><path class="cls-3" d="m64.15,131.44c3.87.99,6.26,4.62,5.37,8.09-.89,3.45-4.74,5.49-8.61,4.5l-9.78-2.52.9-3.5,3.49.9,1.44-5.59-3.49-.9.9-3.5,9.78,2.52Zm-3.69,2.78l-1.44,5.59,2.79.72c1.93.5,3.82-.36,4.21-1.9s-.84-3.2-2.77-3.7l-2.79-.72Z"/><path class="cls-3" d="m62.08,151.28l-12.62-3.25.9-3.5,16.42,4.22-1.36,5.29-13.88,3.46,12.18,3.13-.9,3.5-16.42-4.22,1.29-5.03,14.39-3.6Z"/><path class="cls-3" d="m60.99,171.25l-9.78-2.52c-1.93-.5-3.9.66-4.39,2.6-.5,1.93.66,3.9,2.59,4.39l9.78,2.52-.9,3.5-9.78-2.52c-3.87-1-6.18-4.92-5.19-8.79,1-3.87,4.92-6.19,8.79-5.19l9.78,2.52-.9,3.5Z"/><path class="cls-3" d="m50.94,182.82c3.87,1,6.26,4.62,5.37,8.09-.89,3.45-4.74,5.49-8.61,4.5l-9.78-2.52.9-3.5,3.49.9,1.44-5.59-3.49-.9.9-3.5,9.78,2.52Zm-3.69,2.78l-1.44,5.59,2.79.72c1.93.5,3.82-.36,4.21-1.9.4-1.54-.84-3.2-2.77-3.7l-2.79-.72Z"/><path class="cls-3" d="m51.71,207.32c-.72,2.8-3.59,4.49-6.38,3.77-2.21-.57-3.73-2.5-3.89-4.65l-3,.77c-.88.22-1.37,1.09-1.16,1.99l-3.51.89c-.69-2.81.98-5.66,3.78-6.38l4.59-1.15.39-1.51-6.29-1.62.9-3.5,16.42,4.22-1.85,7.18Zm-2.55-4.58l-3.14-.81-.95,3.68c-.23.89.27,1.76,1.15,1.99.88.23,1.76-.29,1.99-1.18l.95-3.68Z"/><path class="cls-3" d="m38.6,215.94c1.52-2.54,4.75-3.87,7.96-3.05l3.49.9-.9,3.5-3.49-.9c-1.93-.5-3.84.45-4.27,2.13-.43,1.66.78,3.43,2.71,3.93l3.49.9-.9,3.5-3.49-.9c-3.21-.83-5.39-3.55-5.5-6.51l-6.2-1.59.9-3.5,6.2,1.59Z"/></svg>