<?xml version="1.0" encoding="UTF-8"?><svg id="Layer_2" xmlns="http://www.w3.org/2000/svg" width="185" height="370" xmlns:xlink="http://www.w3.org/1999/xlink" viewBox="0 0 185 370"><defs><style>.cls-1{fill:#d42222;}.cls-1,.cls-2,.cls-3,.cls-4,.cls-5,.cls-6,.cls-7,.cls-8,.cls-9{stroke-width:0px;}.cls-2{fill:url(#linear-gradient);}.cls-4{fill:#418c46;}.cls-5{fill:#588c5c;}.cls-6{fill:#5bab60;}.cls-7{fill:#c41b1b;}.cls-8{fill:#ffefe1;}.cls-9{fill:#206925;}</style><linearGradient id="linear-gradient" x1="71.62" y1="853.44" x2="97" y2="945.33" gradientTransform="translate(461.86 -764.54) rotate(30.05)" gradientUnits="userSpaceOnUse"><stop offset="0" stop-color="#69c"/><stop offset="1" stop-color="#9cf"/></linearGradient></defs><path class="cls-2" d="m0,.42l.37,369.58L185,49.9S89.88-5.31,0,.42Z"/><path class="cls-8" d="m.42,93.75l-.04,276.25,138.09-239.43S67.51,89.39.42,93.75Z"/><path class="cls-4" d="m67.44,51.5c2.05-2.42,4.1-4.83,6.7-6.69s5.28-3.16,8.2-4.26c2.71-1.02,5.51-1.91,8.03-3.34,1.15-.65,2.24-1.43,3.22-2.33s2.34-2.07,2.87-3.31c.75-1.76-1.86-3.23-2.63-1.45-.46,1.07-1.81,2.17-2.69,2.93-1.01.86-2.17,1.55-3.35,2.13-2.68,1.32-5.58,2.15-8.34,3.29s-5.39,2.62-7.79,4.45-4.41,4.15-6.38,6.48c-1.24,1.47.9,3.57,2.15,2.1h0Z"/><path class="cls-4" d="m92.24,32.79c-1.03,2.56-1.36,5.21-.6,7.89s2.23,5.2,3.69,7.54,3.09,4.58,4.79,6.75c1.58,2.01,3.35,4.25,2.99,6.97-.25,1.89,2.66,2.62,2.92.7.72-5.47-3.53-9.2-6.39-13.33s-6.93-9.72-4.77-15.07c.71-1.77-1.9-3.24-2.63-1.45h0Z"/><path class="cls-1" d="m65.7,50.23c-.78-.84-1.61-1.61-2.46-2.39-.79-.72-1.69-1.05-2.71-1.31s-1.95-.58-2.93-.84-1.99-.33-2.98-.57c-.58-.14-1.01-.27-1.62-.2-1,.11-2.06.51-2.98.91s-1.82.89-2.7,1.44c-.75.47-1.54.87-2.24,1.4-2.21,1.66-4,3.8-5.56,6.06-.63.91-1.23,1.83-1.77,2.8-.68,1.23-1.42,2.4-1.97,3.69-.85,2-1.22,4.2-1.63,6.33-.52,2.73-1.06,5.45-.96,8.24.03.94.18,1.88.29,2.81s.27,1.76.55,2.62.7,1.51,1.24,2.2c.67.87,1.21,1.83,1.88,2.7,1.35,1.77,3.34,2.72,5.39,3.47.71.26,1.43.48,2.15.68s1.39.54,2.1.74c.79.22,1.69.19,2.5.16,1.16-.04,2.28-.48,3.43-.63,3.2-.41,6.34-1.48,9.29-2.79,1.33-.6,2.65-1.2,3.89-1.98,1.63-1.02,3.24-2.12,4.73-3.33,1.35-1.09,2.64-2.26,3.82-3.54.67-.72,1.24-1.47,1.69-2.35.43-.83.73-1.7,1.05-2.58,1.08-3.01,2.28-6.18,2.32-9.43.01-1.24-.23-2.49-.74-3.62-.32-.71-.76-1.37-1.2-2.01s-.84-1.25-1.32-1.81c-1.07-1.24-2.49-2.17-3.79-3.13s-2.79-1.77-4.28-2.54c-.98-.51-1.96-1.01-2.99-1.41"/><path class="cls-1" d="m66.74,49.16c-1.67-1.77-3.29-3.37-5.68-4.04s-4.67-1.34-7.08-1.66-5.04,1.1-7.05,2.29c-2.16,1.28-4.11,2.65-5.81,4.52s-3.2,3.96-4.46,6.13c-1.34,2.3-2.58,4.57-3.23,7.17-1.28,5.08-2.13,10.31-1.41,15.53.16,1.14.39,2.26.86,3.31.54,1.21,1.42,2.25,2.16,3.35,1.31,1.95,2.84,3.43,4.99,4.44,1.04.49,2.13.89,3.22,1.24,1.24.39,2.51.98,3.79,1.18,2.42.37,4.85-.37,7.22-.78,5.04-.89,10.04-3.09,14.26-5.96s8.13-6.09,9.88-10.87c1.89-5.16,4.16-11.11.88-16.19-.72-1.12-1.48-2.26-2.42-3.21s-1.99-1.68-3.04-2.44c-2.45-1.78-5.13-3.29-7.93-4.43-1.77-.72-3.24,1.9-1.45,2.63,2.11.86,4.22,1.95,6.14,3.18,1.67,1.07,3.51,2.3,4.75,3.87s2.51,3.46,2.64,5.59c.13,2.24-.5,4.49-1.19,6.6s-1.31,4.51-2.62,6.32c-1.21,1.66-2.87,3.07-4.45,4.37-3.45,2.82-7.37,4.97-11.58,6.43-2.21.76-4.43,1.1-6.7,1.57-1.02.21-1.97.44-3.02.44-1.23,0-2.23-.52-3.38-.88-1.85-.57-3.77-1.13-5.36-2.3-.79-.58-1.38-1.31-1.93-2.12-.63-.93-1.37-1.82-1.92-2.79-1.07-1.9-1.18-4.64-1.16-6.78.03-2.34.49-4.64.93-6.93.39-2.07.72-4.22,1.58-6.17.93-2.12,2.21-4.18,3.52-6.08,2.74-3.99,6.51-7.44,11.2-8.95,1.28-.41,2.17-.14,3.43.08s2.39.5,3.59.85c.99.29,2.12.45,2.98,1.05,1.01.7,1.91,1.73,2.75,2.62,1.33,1.41,3.42-.75,2.1-2.15h0Z"/><path class="cls-1" d="m103.38,62.68c-.83.44-1.65.9-2.46,1.36-.58.33-1.18.56-1.79.81-.89.37-1.67.96-2.48,1.46-1,.61-2.02,1.21-2.87,2.03-1.74,1.69-2.9,4.01-3.96,6.17-1.35,2.73-2.08,5.65-1.77,8.71.28,2.69,1.46,5.33,2.6,7.75,1.28,2.71,2.43,5.59,4.29,7.96,1.56,1.98,3.38,3.76,5.3,5.39,1.21,1.02,2.53,1.78,3.95,2.46,1.58.75,3.23,1.48,4.89,2.02,1.24.4,2.47.59,3.77.75,1.16.15,2.29.38,3.44.57,2.02.32,3.99.16,6.02-.01,1.24-.11,2.48-.94,3.42-1.72s1.68-1.85,2.36-2.92c.72-1.14,1.37-2.32,2.03-3.49s1.27-2.31,1.71-3.6c.58-1.72,1.11-3.42,1.35-5.23.19-1.47.34-2.97.43-4.45.19-3.14-.04-6.36-.41-9.48-.16-1.35-.34-2.67-.68-3.98-.48-1.82-1.26-3.5-2.06-5.19-1.3-2.74-2.59-5.57-5.03-7.48-1.13-.89-2.37-1.6-3.54-2.42-1.23-.87-2.41-1.8-3.97-1.98-2.94-.33-5.66.71-8.29,1.89-.96.43-1.87.94-2.79,1.46-.74.43-1.52.76-2.28,1.15-.54.27-.98.68-1.53.93-.23.1-.7.18-.81.44"/><path class="cls-1" d="m102.61,61.39c-2.39,1.28-4.81,2.43-7.11,3.86s-4,3.12-5.38,5.45c-2.75,4.64-4.53,9.77-3.1,15.16.71,2.66,2,5.14,3.15,7.63s2.3,4.77,4,6.85,3.78,4.18,6.01,5.81,4.85,2.74,7.41,3.7,5.25,1.21,7.91,1.65c1.35.22,2.69.32,4.06.29,1.44-.04,3.03-.04,4.39-.56,2.49-.97,4.2-3.02,5.57-5.23s2.86-4.71,3.77-7.28c1.9-5.39,2.16-11.3,1.68-16.96-.24-2.78-.5-5.65-1.42-8.3s-2.09-5.06-3.39-7.4c-1.43-2.58-3.31-4.45-5.76-6.07s-4.65-3.47-7.83-3.41c-2.91.05-5.74,1.19-8.32,2.45-1.38.67-2.7,1.44-4.07,2.13-.56.28-1.04.66-1.59.96s-1.02.37-1.43.85c-1.25,1.46.89,3.56,2.15,2.1-.02.02.61-.25.82-.36.41-.24.79-.54,1.21-.77,1.07-.59,2.19-1.11,3.26-1.7,2.03-1.11,4.25-2.11,6.54-2.51,1.1-.19,2.37-.28,3.44.11s2,1.19,2.94,1.84c1.86,1.27,3.71,2.35,5.03,4.24,1.23,1.77,2.12,3.77,3.02,5.72,1.1,2.39,1.79,4.77,2.11,7.37.6,4.97.84,10.17-.18,15.11-.49,2.36-1.29,4.62-2.46,6.73s-2.22,4.41-3.9,6.06c-.76.75-1.78,1.5-2.86,1.7-1.25.23-2.66.22-3.93.19-2.38-.05-4.92-.57-7.25-1.03-4.82-.96-9.16-3.64-12.58-7.08s-5.38-7.71-7.32-12.12c-1.11-2.52-1.92-5.18-1.66-7.96.24-2.58,1.33-4.92,2.52-7.18,1.31-2.47,2.79-4.22,5.18-5.7,2.24-1.38,4.6-2.5,6.92-3.74,1.71-.92.16-3.49-1.54-2.58h0Z"/><path class="cls-7" d="m47.56,46.96c-1.34.62-2.43,1.69-3.42,2.77-.27.29-.44.68-.43,1.08,0,.36.18.79.45,1.04.29.26.68.45,1.08.43.38-.03.77-.16,1.04-.45.54-.59,1.1-1.17,1.74-1.67l-.31.24c.43-.33.88-.62,1.38-.85.33-.15.61-.6.69-.94s.03-.81-.17-1.12c-.22-.33-.54-.61-.94-.69l-.39-.04c-.26,0-.51.08-.73.21h0Z"/><path class="cls-7" d="m41.31,53.08c-.48.56-.87,1.19-1.26,1.81s-.69,1.32-.95,2.02c-.12.33,0,.83.17,1.12.19.32.57.62.94.69s.79.04,1.12-.17l.31-.24c.19-.2.32-.43.39-.7.01-.04.03-.07.04-.11l-.15.37c.37-.96.91-1.85,1.52-2.68l-.24.32c.09-.12.18-.23.28-.35.26-.31.44-.67.43-1.08,0-.36-.18-.79-.45-1.04-.29-.26-.68-.45-1.08-.43-.38.03-.78.16-1.04.45h0Z"/><path class="cls-7" d="m36.88,61.01c-.12.62-.4,1.18-.58,1.78s-.25,1.26-.44,1.87c-.11.34,0,.82.17,1.12.19.32.57.62.94.69s.79.04,1.12-.17c.35-.23.56-.54.69-.94.2-.61.25-1.26.44-1.87s.47-1.16.58-1.78c.07-.38.03-.78-.17-1.12-.19-.32-.57-.62-.94-.69s-.79-.04-1.12.17-.62.54-.69.94h0Z"/><path class="cls-7" d="m34.6,68.64c-.37,1.1-.42,2.29-.53,3.44-.03.35.21.8.45,1.04.27.26.71.45,1.08.43s.78-.16,1.04-.45l.24-.32c.13-.24.19-.49.19-.76.03-.37.07-.75.1-1.12l-.04.39c.07-.65.17-1.31.38-1.93.11-.34,0-.82-.17-1.12-.19-.32-.57-.62-.94-.69s-.79-.04-1.12.17l-.31.24c-.19.2-.32.43-.39.7h0Z"/><path class="cls-7" d="m33.99,76.41c-.11.74-.19,1.49-.17,2.24s.16,1.41.3,2.11l-.06-.38c0,.07.01.12.01.19l.04-.39s-.01.08-.03.12c-.11.34,0,.82.17,1.12.19.32.57.62.94.69s.79.04,1.12-.17c.35-.23.56-.54.69-.94.2-.61-.06-1.27-.16-1.88l.06.38c-.11-.72-.1-1.45-.03-2.18l-.04.39c.02-.2.05-.4.08-.6.06-.39.04-.77-.17-1.12-.19-.32-.57-.62-.94-.69s-.79-.04-1.12.17-.63.54-.69.94h0Z"/><path class="cls-7" d="m39.87,83.2c-.03-.17-.06-.35-.09-.52l.06.38c-.04-.29-.07-.57-.08-.86,0-.2-.04-.38-.13-.56-.06-.19-.17-.35-.32-.48-.14-.15-.31-.26-.51-.31-.18-.09-.37-.13-.57-.11l-.38.06c-.25.07-.47.2-.66.39l-.24.32c-.13.24-.19.49-.19.76,0,.59.12,1.18.22,1.76.05.19.14.36.27.5.11.17.26.3.44.39.18.11.37.16.57.17.19.04.38.02.57-.04l.35-.15c.23-.14.41-.33.55-.56l.15-.37c.06-.26.05-.51-.02-.77h0Z"/><path class="cls-7" d="m40.04,76.31c-.06-.74.04-1.47.06-2.21,0-.37-.19-.79-.45-1.04-.14-.15-.31-.26-.51-.31-.18-.09-.37-.13-.57-.11-.38.03-.78.16-1.04.45-.28.31-.42.67-.43,1.08-.02.74-.11,1.47-.06,2.21.03.39.17.76.45,1.04.14.15.31.26.51.31.18.09.37.13.57.11.38-.03.78-.16,1.04-.45s.46-.68.43-1.08h0Z"/><path class="cls-7" d="m41.62,68.42c.13-.75.35-1.48.56-2.21.1-.35.01-.81-.17-1.12-.1-.18-.23-.32-.4-.43-.15-.14-.33-.22-.54-.27-.37-.07-.79-.04-1.12.17-.35.23-.58.54-.69.94-.21.73-.43,1.46-.56,2.21-.07.39-.03.77.17,1.12.1.18.23.32.4.43.15.14.33.22.54.27.37.07.79.04,1.12-.17s.62-.54.69-.94h0Z"/><path class="cls-7" d="m44.49,61.35c.29-.67.67-1.29.97-1.95.11-.18.16-.37.17-.57.04-.19.02-.38-.04-.57-.05-.19-.14-.36-.27-.5-.11-.17-.26-.3-.44-.39-.35-.17-.76-.26-1.14-.13s-.73.36-.9.72c-.3.66-.68,1.29-.97,1.95-.11.18-.16.37-.17.57-.04.19-.02.38.04.57.05.19.14.36.27.5.11.17.26.3.44.39.35.17.76.26,1.14.13.36-.12.74-.36.9-.72h0Z"/><path class="cls-7" d="m49.19,55c.27-.31.55-.61.85-.88.15-.14.26-.31.31-.51.09-.18.13-.37.11-.57,0-.2-.04-.38-.13-.56-.06-.19-.17-.35-.32-.48l-.32-.24c-.24-.13-.49-.19-.76-.19l-.38.06c-.25.07-.47.2-.66.39-.3.28-.59.57-.85.88-.15.14-.26.31-.31.51-.09.18-.13.37-.11.57,0,.2.04.38.13.56.06.19.17.35.32.48l.32.24c.24.13.49.19.76.19l.38-.06c.25-.07.47-.2.66-.39h0Z"/><path class="cls-7" d="m54.72,50.18c.05-.04.11-.09.17-.13l-.31.24c.69-.54,1.44-1,2.24-1.35.18-.1.32-.23.43-.4.14-.15.22-.33.27-.54.08-.35.03-.81-.17-1.12-.22-.33-.54-.61-.94-.69l-.39-.04c-.26,0-.51.08-.73.21-.99.44-1.87,1.04-2.71,1.73-.15.14-.26.31-.31.51-.09.18-.13.37-.11.57,0,.36.18.79.45,1.04.29.26.68.45,1.08.43l.38-.06c.25-.07.47-.2.66-.39h0Z"/><path class="cls-7" d="m56.95,50.36c-.69.33-1.3.79-1.97,1.15-.18.1-.32.23-.43.4-.14.15-.22.33-.27.54-.05.19-.06.39-.01.58.01.19.07.37.18.54.22.33.54.61.94.69s.76.02,1.12-.17c.67-.37,1.28-.82,1.97-1.15.18-.1.32-.23.43-.4.14-.15.22-.33.27-.54.05-.19.06-.39.01-.58-.01-.19-.07-.37-.18-.54-.22-.33-.54-.61-.94-.69l-.39-.04c-.26,0-.51.08-.73.21h0Z"/><path class="cls-7" d="m50.81,54.39c-1.16,1.35-2.3,2.71-3.27,4.2-.2.31-.23.8-.13,1.14s.38.73.72.9.76.26,1.14.13.67-.37.9-.72c.25-.38.51-.76.79-1.13l-.24.32c.71-.95,1.48-1.85,2.25-2.75.26-.31.44-.67.43-1.08,0-.36-.18-.79-.45-1.04-.29-.26-.68-.45-1.08-.43-.38.03-.78.16-1.04.45h0Z"/><path class="cls-7" d="m45.77,62.35c-.44.45-.89.91-1.18,1.48-.13.26-.24.53-.36.8-.13.28-.26.56-.4.83-.17.36-.24.75-.13,1.14.1.35.38.73.72.9s.76.26,1.14.13.72-.36.9-.72.34-.7.5-1.06c.15-.33.27-.65.49-.94l-.24.32c.21-.28.47-.53.71-.78.27-.28.44-.69.43-1.08,0-.36-.18-.79-.45-1.04-.29-.26-.68-.45-1.08-.43s-.76.16-1.04.45h0Z"/><path class="cls-7" d="m42.02,68.79c-.75,1.27-1.04,2.74-1.33,4.17-.08.38-.03.78.17,1.12s.57.62.94.69c.78.15,1.64-.29,1.81-1.11.2-.97.38-1.95.74-2.88l-.15.37c.13-.32.27-.62.44-.92.4-.68.12-1.69-.59-2.04-.75-.37-1.61-.14-2.04.59h0Z"/><path class="cls-7" d="m40.12,77.81c-.09.55-.14,1.11-.14,1.67,0,.2.04.38.13.56.06.19.17.35.32.48.14.15.31.26.51.31.18.09.37.13.57.11l.38-.06c.25-.07.47-.2.66-.39l.24-.32c.13-.24.19-.49.19-.76,0-.29.01-.59.04-.88l-.04.39c.01-.13.03-.27.05-.4.05-.19.06-.39.01-.58-.01-.19-.07-.37-.18-.54-.1-.18-.23-.32-.4-.43-.15-.14-.33-.22-.54-.27l-.39-.04c-.26,0-.51.08-.73.21l-.31.24c-.19.2-.32.43-.39.7h0Z"/><path class="cls-7" d="m76.69,65.23c-.16.74-.31,1.49-.56,2.21-.05.19-.06.39-.01.58.01.19.07.37.18.54.1.18.23.32.4.43.15.14.33.22.54.27.37.07.79.04,1.12-.17l.31-.24c.19-.2.32-.43.39-.7.25-.72.4-1.47.56-2.21.08-.37.03-.79-.17-1.12-.1-.18-.23-.32-.4-.43-.15-.14-.33-.22-.54-.27-.37-.07-.79-.04-1.12.17s-.61.54-.69.94h0Z"/><path class="cls-7" d="m74.8,71.35c-.55.93-1.16,1.83-1.61,2.82-.17.37-.24.74-.13,1.14.1.35.38.73.72.9s.76.26,1.14.13.73-.36.9-.72c.45-.99,1.06-1.89,1.61-2.82.19-.33.23-.78.13-1.14s-.38-.73-.72-.9-.76-.26-1.14-.13-.69.36-.9.72h0Z"/><path class="cls-7" d="m70.9,77.43c-.24.34-.47.69-.72,1.03l.24-.32c-.65.88-1.48,1.58-2.23,2.38-.27.29-.44.69-.43,1.08,0,.36.18.79.45,1.04.29.26.68.45,1.08.43s.76-.16,1.04-.45c.52-.56,1.1-1.06,1.62-1.63.59-.65,1.08-1.38,1.57-2.1.21-.3.22-.81.13-1.14-.1-.35-.38-.73-.72-.9s-.76-.26-1.14-.13l-.35.15c-.23.14-.41.33-.55.56h0Z"/><path class="cls-7" d="m65.16,83.11c-1.22.79-2.47,1.55-3.73,2.29-.68.4-.96,1.38-.52,2.06s1.33.95,2.06.52c1.26-.74,2.5-1.49,3.73-2.29.33-.22.6-.55.69-.94.08-.35.03-.81-.17-1.12-.43-.66-1.35-.98-2.06-.52h0Z"/><path class="cls-7" d="m56.69,87.18c-.07.03-.14.07-.21.1l.35-.15c-.39.17-.8.28-1.21.4-.52.15-1.02.33-1.51.56-.18.1-.32.23-.43.4-.14.15-.22.33-.27.54-.08.35-.03.81.17,1.12.22.33.54.61.94.69l.39.04c.26,0,.51-.08.73-.21.06-.03.11-.05.17-.08l-.35.15c.4-.17.82-.28,1.23-.41.53-.15,1.04-.34,1.53-.58.18-.1.32-.23.43-.4.14-.15.22-.33.27-.54.08-.35.03-.81-.17-1.12-.22-.33-.54-.61-.94-.69l-.39-.04c-.26,0-.51.08-.73.21h0Z"/><path class="cls-7" d="m50.3,88.12c-.72-.01-1.45-.08-2.17-.14-.2,0-.38.04-.56.13-.19.06-.35.17-.48.32-.15.14-.26.31-.31.51-.09.18-.13.37-.11.57.03.38.16.78.45,1.04l.32.24c.24.13.49.19.76.19.72.07,1.44.13,2.17.14.37,0,.78-.19,1.04-.45.15-.14.26-.31.31-.51.09-.18.13-.37.11-.57-.03-.38-.16-.78-.45-1.04-.31-.28-.67-.42-1.08-.43h0Z"/><path class="cls-7" d="m44.9,87c-.64-.35-1.29-.66-1.95-.97-.18-.11-.37-.16-.57-.17-.19-.04-.38-.02-.57.04-.19.05-.36.14-.5.27-.17.11-.3.26-.39.44-.17.35-.26.76-.13,1.14s.36.73.72.9c.66.31,1.31.62,1.95.97.34.19.77.23,1.14.13.19-.05.36-.14.5-.27.17-.11.3-.26.39-.44.17-.35.26-.76.13-1.14s-.36-.7-.72-.9h0Z"/><path class="cls-7" d="m73.02,65.81c-.28,1.01-.5,2.04-.7,3.07-.07.38-.03.78.17,1.12.19.32.57.62.94.69s.79.04,1.12-.17.62-.54.69-.94c.19-1.03.42-2.06.7-3.07.1-.36.02-.8-.17-1.12s-.57-.62-.94-.69c-.82-.16-1.59.3-1.81,1.11h0Z"/><path class="cls-7" d="m70.4,73.27c-.51.88-1.03,1.76-1.54,2.64-.19.33-.23.78-.13,1.14s.38.73.72.9.76.26,1.14.13.69-.36.9-.72c.51-.88,1.03-1.76,1.54-2.64.19-.33.23-.78.13-1.14s-.38-.73-.72-.9-.76-.26-1.14-.13-.69.36-.9.72h0Z"/><path class="cls-7" d="m65.15,79.25c-.45.35-.89.7-1.33,1.05l.31-.24c-.47.37-.94.73-1.43,1.06-.33.23-.59.54-.69.94-.08.35-.03.81.17,1.12.22.33.54.61.94.69.37.07.8.05,1.12-.17.92-.63,1.77-1.34,2.65-2.03l-.31.24s.07-.06.11-.09c.18-.1.32-.23.43-.4.14-.15.22-.33.27-.54.08-.35.03-.81-.17-1.12-.22-.33-.54-.61-.94-.69l-.39-.04c-.26,0-.51.08-.73.21h0Z"/><path class="cls-7" d="m58.58,83.37c-.6.25-1.21.45-1.85.59-.19.05-.36.14-.5.27-.17.11-.3.26-.39.44-.11.18-.16.37-.17.57-.04.19-.02.38.04.57.12.37.36.72.72.9l.37.15c.26.06.51.05.77-.02.64-.14,1.25-.34,1.85-.59.19-.05.36-.14.5-.27.17-.11.3-.26.39-.44.11-.18.16-.37.17-.57.04-.19.02-.38-.04-.57-.12-.37-.36-.72-.72-.9l-.37-.15c-.26-.06-.51-.05-.77.02h0Z"/><path class="cls-7" d="m51.88,84.58c-.45.02-.9.07-1.35.08-.2,0-.38.04-.56.13-.19.06-.35.17-.48.32-.15.14-.26.31-.31.51-.09.18-.13.37-.11.57l.06.38c.07.25.2.47.39.66l.32.24c.24.13.49.19.76.19.45-.01.9-.06,1.35-.08.2,0,.38-.04.56-.13.19-.06.35-.17.48-.32.15-.14.26-.31.31-.51.09-.18.13-.37.11-.57l-.06-.38c-.07-.25-.2-.47-.39-.66l-.32-.24c-.24-.13-.49-.19-.76-.19h0Z"/><path class="cls-7" d="m46.99,83.66c-.2-.07-.4-.14-.61-.19-.32-.08-.66-.11-.99-.12-.2,0-.38.04-.56.13-.19.06-.35.17-.48.32-.15.14-.26.31-.31.51-.09.18-.13.37-.11.57l.06.38c.07.25.2.47.39.66l.32.24c.24.13.49.19.76.19.07,0,.14,0,.22.01l-.39-.04c.34.04.67.14.99.26.19.05.39.06.58.01.19-.01.37-.07.54-.18.18-.1.32-.23.43-.4.14-.15.22-.33.27-.54l.04-.39c0-.26-.08-.51-.21-.73l-.24-.31c-.2-.19-.43-.32-.7-.39h0Z"/><path class="cls-7" d="m69.84,63.34c-.05.51-.09,1.02-.15,1.53l.04-.39c-.05.49-.13.97-.3,1.44-.12.33,0,.83.17,1.12.19.32.57.62.94.69s.79.04,1.12-.17l.31-.24c.19-.2.32-.43.39-.7.33-.93.34-1.95.44-2.92l-.04.39v-.04c.06-.19.06-.39.02-.58-.01-.19-.07-.37-.18-.54-.19-.32-.57-.62-.94-.69s-.79-.04-1.12.17l-.31.24c-.19.2-.32.43-.39.7h0Z"/><path class="cls-7" d="m68.67,69.45c-.34.68-.68,1.35-1,2.04-.11.18-.16.37-.17.57-.04.19-.02.38.04.57.05.19.14.36.27.5.11.17.26.3.44.39.35.17.76.26,1.14.13s.73-.36.9-.72c.32-.69.66-1.36,1-2.04.18-.35.24-.76.13-1.14-.05-.19-.14-.36-.27-.5-.11-.17-.26-.3-.44-.39-.35-.17-.76-.26-1.14-.13s-.72.36-.9.72h0Z"/><path class="cls-7" d="m64.94,75.08c-.26.42-.54.82-.83,1.21l.24-.32c-.17.23-.35.46-.52.69-.15.14-.26.31-.31.51-.09.18-.13.37-.11.57,0,.2.04.38.13.56.06.19.17.35.32.48.29.26.68.45,1.08.43l.38-.06c.25-.07.47-.2.66-.39.55-.73,1.11-1.45,1.59-2.23.11-.18.16-.37.17-.57.04-.19.02-.38-.04-.57-.05-.19-.14-.36-.27-.5-.11-.17-.26-.3-.44-.39-.35-.17-.76-.26-1.14-.13l-.35.15c-.23.14-.41.33-.55.56h0Z"/><path class="cls-7" d="m60.02,79.46c-.37.18-.74.35-1.12.51l.35-.15c-.32.14-.63.27-.95.39-.19.05-.36.14-.5.27-.17.11-.3.26-.39.44-.11.18-.16.37-.17.57-.04.19-.02.38.04.57.12.37.36.72.72.9.34.17.78.27,1.14.13.82-.32,1.63-.67,2.43-1.06.18-.1.32-.23.43-.4.14-.15.22-.33.27-.54.05-.19.06-.39.01-.58-.01-.19-.07-.37-.18-.54-.22-.33-.54-.61-.94-.69l-.39-.04c-.26,0-.51.08-.73.21h0Z"/><path class="cls-7" d="m54.78,80.55c-.62.04-1.23.06-1.85.08-.38.02-.77.18-1.04.45-.15.14-.26.31-.31.51-.09.18-.13.37-.11.57.03.38.16.78.45,1.04s.68.44,1.08.43c.62-.03,1.24-.04,1.85-.08.39-.02.76-.17,1.04-.45.15-.14.26-.31.31-.51.09-.18.13-.37.11-.57-.03-.38-.16-.78-.45-1.04s-.68-.45-1.08-.43h0Z"/><path class="cls-7" d="m59.51,56.7c-.73.76-1.47,1.52-2.21,2.28-.27.28-.44.69-.43,1.08,0,.36.18.79.45,1.04.29.26.68.45,1.08.43s.76-.17,1.04-.45c.73-.76,1.47-1.52,2.21-2.28.27-.28.44-.69.43-1.08,0-.36-.18-.79-.45-1.04-.29-.26-.68-.45-1.08-.43s-.76.17-1.04.45h0Z"/><path class="cls-7" d="m54.59,62.79c-.31.48-.62.95-.95,1.42s-.61.91-.93,1.34l.24-.32c-.13.17-.26.34-.41.5-.27.29-.44.68-.43,1.08,0,.36.18.79.45,1.04.29.26.68.45,1.08.43.38-.03.77-.16,1.04-.45.52-.57.93-1.23,1.37-1.86.39-.57.79-1.14,1.16-1.72.2-.31.23-.79.13-1.14s-.38-.73-.72-.9-.76-.26-1.14-.13-.67.37-.9.72h0Z"/><path class="cls-7" d="m50.76,68.68c-.31.79-.62,1.58-.93,2.37-.11.18-.16.37-.17.57-.04.19-.02.38.04.57.1.35.38.73.72.9s.76.26,1.14.13l.35-.15c.23-.14.41-.33.55-.56.31-.79.62-1.58.93-2.37.11-.18.16-.37.17-.57.04-.19.02-.38-.04-.57-.1-.35-.38-.73-.72-.9s-.76-.26-1.14-.13l-.35.15c-.23.14-.41.33-.55.56h0Z"/><path class="cls-7" d="m46.53,76.54c.19-.6.36-1.21.51-1.83.09-.37.02-.79-.17-1.12-.1-.18-.23-.32-.4-.43-.15-.14-.33-.22-.54-.27-.37-.07-.79-.04-1.12.17s-.59.54-.69.94c-.15.62-.32,1.22-.51,1.83-.05.19-.06.39-.01.58.01.19.07.37.18.54.1.18.23.32.4.43.15.14.33.22.54.27.37.07.79.04,1.12-.17l.31-.24c.19-.2.32-.43.39-.7h0Z"/><path class="cls-7" d="m49.25,68.3c.41-.75.84-1.49,1.28-2.23.19-.33.23-.78.13-1.14s-.38-.73-.72-.9-.76-.26-1.14-.13-.69.36-.9.72c-.43.74-.87,1.48-1.28,2.23-.19.34-.24.77-.13,1.14s.38.73.72.9.76.26,1.14.13.7-.36.9-.72h0Z"/><path class="cls-7" d="m54.36,60.39c.8-.89,1.63-1.76,2.52-2.56.28-.25.44-.72.43-1.08s-.18-.79-.45-1.04c-.29-.26-.68-.45-1.08-.43s-.73.18-1.04.45c-.89.8-1.72,1.67-2.52,2.56-.27.3-.44.68-.43,1.08,0,.36.18.79.45,1.04.29.26.68.45,1.08.43.38-.03.77-.16,1.04-.45h0Z"/><path class="cls-7" d="m67.2,62.1c-.16.54-.33,1.07-.52,1.6-.05.14-.09.29-.16.42.19-.39-.03.06-.06.14-.1.24-.2.48-.3.72-.45,1.02-.98,2.01-1.55,2.97-.4.67-.12,1.69.59,2.04.75.37,1.6.13,2.04-.59,1.24-2.06,2.21-4.29,2.89-6.6.22-.75-.34-1.66-1.11-1.81-.83-.16-1.57.3-1.81,1.11h0Z"/><path class="cls-7" d="m62.61,70.71c-.13.18-.25.37-.39.55l.24-.32c-.44.6-.94,1.16-1.49,1.66-.15.14-.26.31-.31.51-.09.18-.13.37-.11.57,0,.36.18.79.45,1.04.29.26.68.45,1.08.43l.38-.06c.25-.07.47-.2.66-.39.81-.74,1.5-1.62,2.11-2.53.11-.18.16-.37.17-.57.04-.19.02-.38-.04-.57-.1-.35-.38-.73-.72-.9s-.76-.26-1.14-.13l-.35.15c-.23.14-.41.33-.55.56h0Z"/><path class="cls-7" d="m57.93,75.49c-.32.15-.63.29-.96.43l.35-.15c-.8.35-1.61.66-2.43.98-.38.15-.69.35-.9.72-.18.32-.25.79-.13,1.14s.36.72.72.9c.34.17.77.27,1.14.13,1.26-.48,2.51-.98,3.73-1.56.33-.16.61-.6.69-.94s.03-.81-.17-1.12c-.22-.33-.54-.61-.94-.69l-.39-.04c-.26,0-.51.08-.73.21h0Z"/><path class="cls-7" d="m64.17,58.45c-.58,1.16-1.14,2.33-1.76,3.47-.19.34-.23.77-.13,1.14s.38.73.72.9c.73.36,1.63.15,2.04-.59.62-1.14,1.18-2.3,1.76-3.47.18-.35.24-.76.13-1.14-.1-.35-.38-.73-.72-.9s-.76-.26-1.14-.13-.72.36-.9.72h0Z"/><path class="cls-7" d="m60.29,65.54c-.54.78-1.06,1.57-1.62,2.34l.24-.32c-.31.41-.63.82-.97,1.2-.27.3-.44.68-.43,1.08,0,.36.18.79.45,1.04.29.26.68.45,1.08.43.38-.03.78-.16,1.04-.45,1.07-1.19,1.93-2.55,2.84-3.86.21-.3.22-.81.13-1.14-.1-.35-.38-.73-.72-.9s-.76-.26-1.14-.13l-.35.15c-.23.14-.41.33-.55.56h0Z"/><path class="cls-7" d="m55.69,71.12c-.62.65-1.11,1.41-1.72,2.08s-1.28,1.26-1.94,1.85c-.28.25-.44.72-.43,1.08s.18.79.45,1.04c.29.26.68.45,1.08.43s.73-.18,1.04-.45c.67-.6,1.34-1.19,1.94-1.85s1.1-1.43,1.72-2.08c.54-.57.58-1.58-.03-2.12s-1.54-.58-2.12.03h0Z"/><path class="cls-7" d="m45.6,71.01c-.63,1.1-1.02,2.31-1.64,3.41-.19.33-.23.77-.13,1.14s.38.73.72.9c.73.36,1.63.14,2.04-.59.62-1.1,1.01-2.32,1.64-3.41.19-.33.23-.78.13-1.14s-.38-.73-.72-.9c-.74-.37-1.62-.14-2.04.59h0Z"/><path class="cls-7" d="m48.47,78.5c-.17.15-.35.29-.53.44l.31-.24c-.43.33-.88.58-1.37.79l.35-.15c-.28.12-.57.25-.85.37l.35-.15c-.77.33-1.59.54-2.39.76-.76.21-1.28,1.09-1.03,1.86s1.05,1.25,1.86,1.03c.46-.13.92-.25,1.38-.4.55-.17,1.08-.4,1.61-.63l-.35.15c.51-.22,1.05-.42,1.52-.72s.87-.65,1.29-1c.28-.24.44-.73.43-1.08s-.18-.79-.45-1.04c-.29-.26-.68-.45-1.08-.43s-.72.19-1.04.45h0Z"/><path class="cls-7" d="m47.77,74.47c-.46.83-.94,1.64-1.42,2.45-.19.32-.23.78-.13,1.14s.38.73.72.9.76.26,1.14.13.69-.36.9-.72c.48-.81.96-1.63,1.42-2.45.19-.34.23-.77.13-1.14s-.38-.73-.72-.9-.76-.26-1.14-.13-.7.36-.9.72h0Z"/><path class="cls-7" d="m37.15,83.8c.01.5.05.98.15,1.47.08.37.2.72.26,1.1l-.06-.38v.04c0,.2.05.38.14.56.06.19.17.35.32.48.14.15.31.26.51.31.18.09.37.13.57.11.38-.03.78-.16,1.04-.45l.24-.32c.13-.24.19-.49.19-.76-.05-.34-.1-.68-.19-1.01-.06-.22-.13-.45-.16-.68l.06.38c-.05-.31-.06-.61-.06-.92,0-.38-.18-.77-.45-1.04-.14-.15-.31-.26-.51-.31-.18-.09-.37-.13-.57-.11-.38.03-.78.16-1.04.45s-.44.67-.43,1.08h0Z"/><path class="cls-7" d="m89.07,75.87c-.03.65-.07,1.29-.13,1.94l.04-.39s0,.05,0,.08c-.05.19-.06.39-.01.58.01.19.07.37.18.54.1.18.23.32.4.43.15.14.33.22.54.27.37.07.79.04,1.12-.17l.31-.24c.19-.2.32-.43.39-.7.09-.8.15-1.6.18-2.4,0-.2-.04-.38-.13-.56-.06-.19-.17-.35-.32-.48-.14-.15-.31-.26-.51-.31-.18-.09-.37-.13-.57-.11-.38.03-.78.16-1.04.45l-.24.32c-.13.24-.19.49-.19.76h0Z"/><path class="cls-7" d="m88.75,81.96c.06,1.23.34,2.45.73,3.62.12.37.37.7.72.9.32.18.79.25,1.14.13s.72-.36.9-.72.25-.76.13-1.14c-.25-.74-.45-1.49-.57-2.26l.06.38c-.05-.32-.08-.65-.1-.97-.02-.38-.17-.77-.45-1.04s-.71-.45-1.08-.43-.78.16-1.04.45-.45.68-.43,1.08h0Z"/><path class="cls-7" d="m91.91,90.96c.51,1.06,1.17,2.02,1.93,2.91.24.28.73.44,1.08.43s.79-.18,1.04-.45c.26-.29.45-.68.43-1.08l-.06-.38c-.07-.25-.2-.47-.39-.66-.11-.13-.22-.26-.32-.39l.24.31c-.54-.69-.99-1.43-1.37-2.21-.1-.18-.23-.32-.4-.43-.15-.14-.33-.22-.54-.27-.35-.08-.81-.03-1.12.17-.33.22-.61.54-.69.94l-.04.39c0,.26.08.51.21.73h0Z"/><path class="cls-7" d="m96.74,98.64c.88,1.02,1.68,2.11,2.69,3,.3.27.67.44,1.08.43.36,0,.79-.18,1.04-.45.26-.29.45-.68.43-1.08-.03-.38-.16-.78-.45-1.04-1.02-.89-1.81-1.98-2.69-3-.24-.28-.73-.44-1.08-.43s-.79.18-1.04.45c-.26.29-.45.68-.43,1.08s.18.73.45,1.04h0Z"/><path class="cls-7" d="m103.59,104.94c.64.42,1.28.84,1.96,1.18.77.39,1.6.72,2.46.82.41.04.75.05,1.12-.17.32-.19.62-.57.69-.94s.04-.79-.17-1.12-.55-.65-.94-.69c-.46-.05-.91-.17-1.34-.34l.37.15c-.97-.38-1.84-.95-2.7-1.51-.31-.2-.8-.23-1.14-.13s-.73.38-.9.72-.26.76-.13,1.14.37.67.72.9h0Z"/><path class="cls-7" d="m114.46,108.57c1.08.22,2.16.41,3.24.63.38.08.78.03,1.12-.17s.62-.57.69-.94.04-.79-.17-1.12-.54-.61-.94-.69c-1.08-.22-2.16-.4-3.24-.63-.38-.08-.78-.03-1.12.17s-.62.57-.69.94-.04.79.17,1.12.54.61.94.69h0Z"/><path class="cls-7" d="m122.59,104.57l-2.12-.84c-.18-.11-.37-.16-.57-.17-.19-.04-.38-.02-.57.04-.19.05-.36.14-.5.27-.17.11-.3.26-.39.44-.17.35-.26.76-.13,1.14l.15.35c.14.23.33.41.56.55l2.12.84c.18.11.37.16.57.17.19.04.38.02.57-.04.19-.05.36-.14.5-.27.17-.11.3-.26.39-.44.17-.35.26-.76.13-1.14l-.15-.35c-.14-.23-.33-.41-.56-.55h0Z"/><path class="cls-7" d="m114.22,101.92c-.55-.36-1.1-.7-1.66-1.04-.18-.11-.37-.16-.57-.17-.19-.04-.38-.02-.57.04-.19.05-.36.14-.5.27-.17.11-.3.26-.39.44l-.15.37c-.06.26-.05.51.02.77l.15.35c.14.23.33.41.56.55.56.34,1.11.68,1.66,1.04.18.11.37.16.57.17.19.04.38.02.57-.04.19-.05.36-.14.5-.27.17-.11.3-.26.39-.44l.15-.37c.06-.26.05-.51-.02-.77l-.15-.35c-.14-.23-.33-.41-.56-.55h0Z"/><path class="cls-7" d="m107.42,97.28c-.49-.6-.99-1.19-1.5-1.76-.14-.15-.31-.26-.51-.31-.18-.09-.37-.13-.57-.11-.2,0-.38.04-.56.13-.19.06-.35.17-.48.32-.26.29-.45.68-.43,1.08l.06.38c.07.25.2.47.39.66.52.57,1.02,1.16,1.5,1.76.14.15.31.26.51.31.18.09.37.13.57.11.2,0,.38-.04.56-.13.19-.06.35-.17.48-.32.26-.29.45-.68.43-1.08l-.06-.38c-.07-.25-.2-.47-.39-.66h0Z"/><path class="cls-7" d="m101.91,92.27c-.24-.27-.47-.54-.69-.82l.24.31c-.66-.84-1.24-1.73-1.83-2.63-.22-.33-.55-.6-.94-.69-.35-.08-.81-.03-1.12.17-.33.22-.61.54-.69.94-.07.38-.04.79.17,1.12.85,1.3,1.72,2.6,2.76,3.75.25.28.72.44,1.08.43s.79-.18,1.04-.45c.26-.29.45-.68.43-1.08s-.18-.73-.45-1.04h0Z"/><path class="cls-7" d="m96.99,84.11c-.51-1.26-.84-2.57-1.05-3.91-.06-.35-.42-.73-.72-.9-.32-.18-.79-.25-1.14-.13s-.72.36-.9.72l-.15.37c-.06.26-.05.51.02.77.21,1.34.54,2.65,1.05,3.91.15.38.34.69.72.9.32.18.79.25,1.14.13s.72-.36.9-.72c.17-.33.27-.78.13-1.14h0Z"/><path class="cls-7" d="m96.3,75.8c.26-1.4.53-2.8.86-4.19.18-.76-.31-1.65-1.11-1.81s-1.61.29-1.81,1.11c-.33,1.39-.6,2.78-.86,4.19-.07.38-.03.78.17,1.12.19.32.57.62.94.69.76.15,1.66-.28,1.81-1.11h0Z"/><path class="cls-7" d="m99.03,73.19c-.34,1.03-.48,2.1-.49,3.18,0,.37.19.78.45,1.04s.71.45,1.08.43.78-.16,1.04-.45c.27-.31.42-.67.43-1.08,0-.34.02-.67.05-1.01l-.04.39c.07-.61.2-1.21.4-1.79.11-.34,0-.82-.17-1.12-.19-.32-.57-.62-.94-.69s-.79-.04-1.12.17l-.31.24c-.19.2-.32.43-.39.7h0Z"/><path class="cls-7" d="m99.48,81.75c.43,1.07.85,2.14,1.37,3.16.17.33.59.61.94.69s.81.03,1.12-.17c.33-.22.61-.54.69-.94s.01-.75-.17-1.12c-.2-.39-.38-.79-.56-1.2l.15.35c-.23-.53-.45-1.07-.66-1.61-.05-.19-.14-.36-.27-.5-.11-.17-.26-.3-.44-.39-.32-.18-.79-.25-1.14-.13s-.72.36-.9.72c-.17.34-.27.78-.13,1.14h0Z"/><path class="cls-7" d="m103.32,90.8c.35.62.68,1.26,1.11,1.83.5.67,1.08,1.27,1.6,1.92l-.24-.31c.04.05.08.1.12.16.25.33.52.59.94.69.35.08.81.03,1.12-.17.33-.22.61-.54.69-.94.07-.36.06-.81-.17-1.12-.51-.67-1.08-1.27-1.6-1.93l.24.31c-.48-.61-.85-1.3-1.23-1.98s-1.39-.96-2.06-.52-.93,1.32-.52,2.06h0Z"/><path class="cls-7" d="m110.51,98.37c.78.71,1.67,1.27,2.52,1.88.18.11.37.16.57.17.19.04.38.02.57-.04.35-.1.73-.38.9-.72s.26-.76.13-1.14l-.15-.35c-.14-.23-.33-.41-.56-.55-.45-.32-.91-.62-1.35-.95l.32.24c-.29-.22-.58-.44-.85-.69-.29-.27-.68-.44-1.08-.43-.36,0-.79.18-1.04.45-.26.29-.45.68-.43,1.08.03.38.16.77.45,1.04h0Z"/><path class="cls-7" d="m116.91,102.44c.16.13.32.25.49.36.06.04.12.08.19.12.24.14.5.23.76.33.19.05.39.06.58.01.19-.01.37-.07.54-.18.18-.1.32-.23.43-.4.14-.15.22-.33.27-.54l.04-.39c0-.26-.08-.51-.21-.73l-.24-.31c-.2-.19-.43-.32-.7-.39h-.01c.12.04.25.09.37.14-.24-.09-.46-.22-.66-.37l.32.24s-.04-.03-.06-.05c-.14-.15-.31-.26-.51-.31-.18-.09-.37-.13-.57-.11-.2,0-.38.04-.56.13-.19.06-.35.17-.48.32l-.24.32c-.13.24-.19.49-.19.76l.06.38c.07.25.2.47.39.66h0Z"/><path class="cls-7" d="m103.79,69.74c.16.68.31,1.37.49,2.04.21.78.48,1.53.82,2.26.15.33.6.61.94.69s.81.03,1.12-.17c.33-.22.61-.54.69-.94s0-.74-.17-1.12c-.03-.07-.06-.14-.09-.2l.15.35c-.51-1.2-.77-2.48-1.07-3.75-.18-.77-1.11-1.28-1.86-1.03-.8.27-1.22,1.04-1.03,1.86h0Z"/><path class="cls-7" d="m106.39,78.91c.48,1.51,1.18,2.93,1.81,4.38l-.15-.35s.04.1.06.14c.16.38.34.69.72.9.32.18.79.25,1.14.13s.72-.36.9-.72c.16-.33.28-.78.13-1.14-.36-.83-.74-1.66-1.1-2.49l.15.35c-.29-.67-.56-1.34-.78-2.04-.24-.75-1.08-1.29-1.86-1.03s-1.28,1.06-1.03,1.86h0Z"/><path class="cls-7" d="m110.9,88.87c.5,1.09,1.13,2.11,1.74,3.14.2.33.56.6.94.69.35.08.81.03,1.12-.17.33-.22.61-.54.69-.94s.03-.77-.17-1.12c-.61-1.03-1.24-2.05-1.74-3.14-.15-.33-.6-.61-.94-.69s-.81-.03-1.12.17c-.33.22-.61.54-.69.94l-.04.39c0,.26.08.51.21.73h0Z"/><path class="cls-7" d="m115.77,97.51c.39.54.78,1.08,1.17,1.62.1.18.23.32.4.43.15.14.33.22.54.27.19.05.39.06.58.01.19-.01.37-.07.54-.18.33-.22.61-.54.69-.94l.04-.39c0-.26-.08-.51-.21-.73-.39-.54-.78-1.08-1.17-1.62-.1-.18-.23-.32-.4-.43-.15-.14-.33-.22-.54-.27-.19-.05-.39-.06-.58-.01-.19.01-.37.07-.54.18-.33.22-.61.54-.69.94-.07.37-.05.8.17,1.12h0Z"/><path class="cls-7" d="m108.83,87.7c-.34-.74-.68-1.47-1-2.21l.15.35c-.32-.74-.61-1.5-.85-2.27s-1.08-1.29-1.86-1.03-1.27,1.06-1.03,1.86c.52,1.67,1.28,3.25,2.01,4.83.15.33.6.61.94.69s.81.03,1.12-.17c.33-.22.61-.54.69-.94s0-.74-.17-1.12h0Z"/><path class="cls-7" d="m105.01,76.79c-.09-.39-.17-.78-.23-1.17l.06.38c-.09-.57-.15-1.14-.19-1.71-.03-.39-.17-.76-.45-1.04-.27-.26-.71-.45-1.08-.43s-.78.16-1.04.45-.46.68-.43,1.08c.08,1.09.22,2.19.48,3.26.09.36.4.72.72.9s.79.25,1.14.13.72-.36.9-.72.22-.74.13-1.14h0Z"/><path class="cls-7" d="m108.52,71.9c.53,1.07,1.07,2.13,1.58,3.21.16.33.59.61.94.69s.81.03,1.12-.17c.33-.22.61-.54.69-.94l.04-.39c0-.26-.08-.51-.21-.73-.52-1.08-1.05-2.14-1.58-3.21-.17-.33-.59-.61-.94-.69s-.81-.03-1.12.17c-.33.22-.61.54-.69.94s-.01.75.17,1.12h0Z"/><path class="cls-7" d="m111.87,79.16c-.14-.32.07.17.09.22.05.12.1.23.15.35.11.27.22.54.33.81.21.52.41,1.04.61,1.56.4,1.07.78,2.15,1.14,3.24.24.75,1.07,1.29,1.86,1.03s1.29-1.06,1.03-1.86c-.76-2.34-1.65-4.63-2.62-6.89-.14-.33-.61-.61-.94-.69-.35-.08-.81-.03-1.12.17-.33.22-.61.54-.69.94s0,.74.17,1.12h0Z"/><path class="cls-7" d="m118.9,91.73c.24.77.57,1.52.97,2.22.1.18.23.32.4.43.15.14.33.22.54.27.19.05.39.06.58.01.19-.01.37-.07.54-.18.33-.22.61-.54.69-.94s.03-.77-.17-1.12c-.17-.3-.32-.61-.46-.93l.15.35c-.13-.31-.25-.62-.35-.94-.12-.37-.37-.71-.72-.9-.18-.11-.37-.16-.57-.17-.19-.04-.38-.02-.57.04-.37.12-.72.36-.9.72s-.25.76-.13,1.14h0Z"/><path class="cls-7" d="m122.45,99.47c.18.46.34.94.46,1.42.06.26.12.52.17.79.02.11.04.23.06.34.03.16.03.15,0-.02,0,.06.02.12.02.18.13,1.08.1,2.17.23,3.25.05.4.15.75.45,1.04.27.26.71.45,1.08.43.75-.05,1.57-.7,1.46-1.54-.14-1.12-.1-2.25-.25-3.37s-.38-2.28-.81-3.35c-.15-.38-.34-.69-.72-.9-.32-.18-.79-.25-1.14-.13-.71.24-1.34,1.08-1.03,1.86h0Z"/><path class="cls-7" d="m129.46,100.92c1.93,0,1.86-3-.07-3s-1.86,3,.07,3h0Z"/><path class="cls-7" d="m130.28,98.51c-.29-1.56-.67-3.09-1.17-4.6-.25-.75-1.07-1.29-1.86-1.03s-1.29,1.06-1.03,1.86c.49,1.5.88,3.04,1.17,4.6.07.36.41.73.72.9.32.18.79.25,1.14.13s.72-.36.9-.72.2-.73.13-1.14h0Z"/><path class="cls-7" d="m126.01,89.33c-.54-1.27-1.08-2.54-1.8-3.72-.21-.33-.56-.6-.94-.69-.35-.08-.81-.03-1.12.17-.33.22-.61.54-.69.94s-.04.78.17,1.12c.56.91,1,1.87,1.43,2.85l-.15-.35c.07.17.15.35.22.52.05.19.14.36.27.5.11.17.26.3.44.39.32.18.79.25,1.14.13s.72-.36.9-.72c.16-.33.28-.78.13-1.14h0Z"/><path class="cls-7" d="m120.97,80.72c-.63-1.05-1.15-2.17-1.85-3.18-.23-.33-.53-.59-.94-.69-.35-.08-.81-.03-1.12.17-.33.22-.61.54-.69.94-.07.37-.05.8.17,1.12.7,1.01,1.21,2.13,1.85,3.18.2.33.56.6.94.69.35.08.81.03,1.12-.17.33-.22.61-.54.69-.94s.04-.78-.17-1.12h0Z"/><path class="cls-7" d="m116.95,72.96c-.36-1.06-.81-2.09-1.26-3.12-.1-.18-.23-.32-.4-.43-.15-.14-.33-.22-.54-.27-.35-.08-.81-.03-1.12.17-.33.22-.61.54-.69.94l-.04.39c0,.26.08.51.21.73.09.2.17.39.26.59l-.15-.35c.31.72.61,1.44.85,2.18.13.37.36.7.72.9.32.18.79.25,1.14.13s.72-.36.9-.72.25-.76.13-1.14h0Z"/><path class="cls-7" d="m117.46,72.44c.66,1,1.23,2.07,1.89,3.07.22.33.54.6.94.69.35.08.81.03,1.12-.17.33-.22.61-.54.69-.94.07-.37.05-.79-.17-1.12-.67-1-1.23-2.07-1.89-3.07-.22-.33-.54-.6-.94-.69-.35-.08-.81-.03-1.12.17-.33.22-.61.54-.69.94-.07.37-.05.79.17,1.12h0Z"/><path class="cls-7" d="m122.6,81.06c.4.73.8,1.47,1.13,2.23l-.15-.35c.15.36.29.72.41,1.09s.37.71.72.9c.32.18.79.25,1.14.13s.72-.36.9-.72.25-.76.13-1.14c-.41-1.29-1.05-2.49-1.69-3.67-.37-.69-1.4-.95-2.06-.52-.7.46-.92,1.32-.52,2.06h0Z"/><path class="cls-7" d="m127.26,88.59c.25.5.49,1.01.72,1.52l-.15-.35c.43,1,.79,2.02,1.1,3.07.22.76,1.09,1.28,1.86,1.03s1.26-1.05,1.03-1.86c-.49-1.71-1.16-3.36-1.96-4.95-.36-.7-1.41-.94-2.06-.52-.72.47-.9,1.31-.52,2.06h0Z"/><path class="cls-7" d="m133.19,85.82c-.4-1.74-1.08-3.39-1.81-5.01-.15-.33-.6-.61-.94-.69s-.81-.03-1.12.17c-.33.22-.61.54-.69.94s0,.74.17,1.12c.09.21.19.42.28.63l-.15-.35c.56,1.31,1.06,2.64,1.38,4.03.18.77,1.12,1.27,1.86,1.03.81-.27,1.21-1.04,1.03-1.86h0Z"/><path class="cls-7" d="m128.36,76c-.91-1.62-1.93-3.18-2.91-4.77-.41-.67-1.37-.97-2.06-.52s-.96,1.34-.52,2.06c.97,1.58,1.99,3.14,2.91,4.77.38.69,1.39.96,2.06.52s.93-1.33.52-2.06h0Z"/><path class="cls-7" d="m121.73,66.32c-1.11-1.17-2.25-2.31-3.43-3.42-.29-.27-.69-.44-1.08-.43-.36,0-.79.18-1.04.45-.26.29-.45.68-.43,1.08s.16.77.45,1.04c1.18,1.11,2.32,2.25,3.43,3.42.54.57,1.6.56,2.12-.03.56-.63.55-1.51-.03-2.12h0Z"/><path class="cls-7" d="m113.38,66c.68.76,1.36,1.53,2.09,2.24.28.27.7.44,1.08.43.36,0,.79-.18,1.04-.45.26-.29.45-.68.43-1.08s-.17-.76-.45-1.04c-.73-.72-1.41-1.48-2.09-2.24-.14-.15-.31-.26-.51-.31-.18-.09-.37-.13-.57-.11-.36,0-.79.18-1.04.45-.26.29-.45.68-.43,1.08l.06.38c.07.25.2.47.39.66h0Z"/><path class="cls-7" d="m121.6,65.75c.81.79,1.64,1.56,2.35,2.44.03.04.17.22.03.04s0,0,.03.04c.09.12.18.24.27.36.17.23.33.46.49.69.33.48.64.97.94,1.46.41.67,1.38.97,2.06.52s.96-1.34.52-2.06c-.66-1.09-1.39-2.13-2.18-3.13-.73-.91-1.58-1.71-2.42-2.52-.56-.55-1.58-.58-2.12.03s-.58,1.54.03,2.12h0Z"/><path class="cls-7" d="m129.52,75.48c.32,1.15.67,2.3,1.11,3.41.15.38.34.69.72.9.32.18.79.25,1.14.13s.72-.36.9-.72c.17-.34.27-.78.13-1.14-.44-1.11-.79-2.26-1.11-3.41-.1-.37-.38-.71-.72-.9s-.79-.25-1.14-.13c-.78.26-1.25,1.05-1.03,1.86h0Z"/><path class="cls-7" d="m125.82,65.26c.46.78.87,1.6,1.24,2.43.1.18.23.32.4.43.15.14.33.22.54.27.35.08.81.03,1.12-.17.33-.22.61-.54.69-.94l.04-.39c0-.26-.08-.51-.21-.73-.37-.83-.78-1.64-1.24-2.43-.2-.33-.56-.6-.94-.69-.35-.08-.81-.03-1.12.17-.33.22-.61.54-.69.94s-.03.77.17,1.12h0Z"/><path class="cls-7" d="m117.53,87.09l.27.62c.1.18.23.32.4.43.15.14.33.22.54.27.19.05.39.06.58.01.19-.01.37-.07.54-.18l.31-.24c.19-.2.32-.43.39-.7l.04-.39c0-.26-.08-.51-.21-.73l-.27-.62c-.1-.18-.23-.32-.4-.43-.15-.14-.33-.22-.54-.27-.19-.05-.39-.06-.58-.01-.19.01-.37.07-.54.18l-.31.24c-.19.2-.32.43-.39.7l-.04.39c0,.26.08.51.21.73h0Z"/><path class="cls-5" d="m75.16,53.68c1.11,1.58,2.57,2.93,3.49,4.62.9,1.65,1.42,3.43,1.94,5.2.27.92.45,1.84.83,2.72.3.68.63,1.34,1.01,1.99.42.73.87,1.44,1.27,2.18.07.13.37.53.32.69-.34-.21-.5-.6-.71-.92-.43-.66-.89-1.29-1.27-1.98-.36-.65-.67-1.34-1.09-1.96-.43-.64-.94-1.21-1.5-1.76-.65-.64-1.32-1.26-1.91-1.95-.48-.56-.95-1.14-1.41-1.71-.85-1.06-1.3-2.16-1.68-3.41-.24-.77-.16-1.56-.28-2.35-.05-.3-.29-.83.01-1.07.12-.1.21-.14.38-.15.14-.01.27.05.39.05.1,0,.3-.05.37-.13"/><path class="cls-5" d="m74.3,54.18c.93,1.3,2.06,2.44,2.96,3.76.98,1.43,1.57,3.09,2.07,4.73s.86,3.35,1.63,4.92c.38.76.81,1.49,1.24,2.21.26.45.93,1.23.95,1.78l1.73-1c-.57-.46-.96-1.29-1.36-1.9-.48-.73-.87-1.51-1.29-2.27-.9-1.61-2.3-2.73-3.53-4.06s-2.37-2.69-3.02-4.34c-.31-.8-.52-1.57-.57-2.43-.04-.55-.48-1.85.07-2.19l-1.7.98c.28-.06.54.04.81-.04.2-.06.42-.23.59-.33.4-.22.8-.44,1.18-.69.29-.19-.26.14-.32.17l-.17.1.43-.24c-.3.05-.57-.04-.87.07-.35.13-.7.4-1.02.58-.22.13-.62.28-.79.47-.25.29-.13.57-.06.92.2,1.04.15,2.06.5,3.08s.83,1.98,1.5,2.84,1.44,1.78,2.24,2.6,1.59,1.49,2.25,2.36,1.09,1.88,1.65,2.81c.48.8,1.02,1.93,1.75,2.52.04.04,1.73-.92,1.73-1-.02-.52-.62-1.23-.87-1.65-.43-.73-.87-1.45-1.25-2.21-.81-1.61-1.18-3.35-1.7-5.06-.49-1.6-1.06-3.21-1.99-4.61s-2.09-2.54-3.04-3.88c-.05-.06-1.7,1.04-1.73,1h0Z"/><path class="cls-5" d="m74.24,54.19c-.71.57-1.47,1.06-2.25,1.56-.78.5-1.53,1.01-2.41,1.36-2.03.79-4.42.85-6.59,1.03-2.17.18-4.22.62-6.28,1.25-.63.19-1.24.39-1.84.64-.48.21-.86.53-1.32.77.28-.22.65-.37.95-.57.66-.43,1.26-.91,1.66-1.55.85-1.37,1.08-2.98,1.51-4.48.59-2.01,1.4-4.1,2.68-5.85.88-1.2,1.75-2.49,2.85-3.53.27-.26.74-.74,1.13-.89.43-.17.8.2,1.09.43,1.68,1.29,2.89,2.97,4.48,4.33.63.54,1.36.98,2.03,1.47.67.5,1.26,1.05,1.76,1.69.37.47.71.97.95,1.5.07.15.11.37.25.48"/><path class="cls-5" d="m73.37,54.69c-.71.56-1.46,1.05-2.22,1.54-.16.1-.87.44-.39.24-.39.16-.78.31-1.19.43-1.5.43-3.07.54-4.62.66-3.08.23-6.41.68-9.25,1.99-.8.37-1.61.84-2.34,1.34-.33.23.3-.16.38-.21.22-.13.45-.26.67-.38.41-.24.83-.47,1.21-.74,2.47-1.73,2.55-5.09,3.52-7.71.6-1.61,1.39-3.06,2.4-4.45s2.02-2.83,3.41-3.85l-1.7.98c1.01-.53,2.44,1.3,3.06,1.93.89.92,1.74,1.89,2.72,2.72.91.77,1.97,1.34,2.85,2.15.97.9,1.42,1.95,2.15,3,.04.06,1.71-1.04,1.73-1-.51-.73-.83-1.55-1.43-2.25-.54-.63-1.16-1.15-1.83-1.63-1.51-1.09-2.79-2.23-4.08-3.58-.79-.82-2.27-2.86-3.51-2.3-.94.43-1.85,1.03-2.59,1.75-2.55,2.49-4.41,5.65-5.43,9.05-.51,1.68-.71,3.64-1.8,5.08-.23.3-.59.51-.8.8-.28.39.68-.34-.02.09-.52.32-1.06.6-1.57.94-.11.07.15-.07.09-.04.61-.34,1.2-.69,1.81-1.04.83-.47-.26.1-.25.19,0-.05.85-.3.92-.32.57-.18,1.14-.35,1.72-.51,2.49-.67,4.97-.87,7.53-1.1,2.02-.18,3.89-.58,5.66-1.59s3.38-1.97,4.91-3.17c-.52.41-1.21.59-1.73,1h0Z"/><path class="cls-5" d="m64.04,42.67c-.82.16-1.55.37-2.28.8-.57.33-1.12.68-1.72.96-.54.26-1.09.51-1.64.76-1.09.51-2.22.84-3.42.99-1.24.15-2.52.13-3.77.16-2.18.06-4.44.24-6.52.97-.79.28-1.6.57-2.34.98-.25.14-.49.29-.7.47-.13.11-.27.28-.43.33.28-.4.81-.69,1.19-1,.75-.61,1.48-1.24,2.25-1.83,1.63-1.25,3.08-2.72,4.74-3.94.78-.57,1.63-1.12,2.49-1.55s1.84-.72,2.8-.88c.9-.15,1.87-.21,2.77-.16.94.05,1.88.27,2.79.48,1.18.28,2.33.59,3.31,1.36.27.21.55.42.81.64.14.12.39.28.44.47.1.43-.53.5-.8.56-.91.2-1.71.59-2.55,1.01"/><path class="cls-5" d="m64.91,42.17c-.95.2-1.78.52-2.63.99-.32.18-.64.37-.96.55-.1.06-.87.46-.3.18.76-.38-.71.32-.93.42-1.18.55-2.35,1.05-3.65,1.28s-2.62.21-3.94.24c-2.57.06-5.1.29-7.53,1.19-1.69.63-3.08,1.59-4.57,2.55l1.7-.98c.59-.69,1.45-1.21,2.15-1.79.9-.74,1.83-1.45,2.72-2.21,1.73-1.49,3.41-3.28,5.65-3.92,2.12-.61,4.27-.53,6.4-.05,1.1.25,2.23.51,3.2,1.1.43.27,2.14,1.25,1.59,1.82l1.73-1c-1.05.46-2.17.69-3.22,1.21-.54.27-1.24.76-1.67.97,1.17-.58,2.47-.79,3.59-1.42.32-.18,1.04-.44,1.27-.74.38-.5-.12-.75-.52-1.07-2.62-2.08-6.59-2.7-9.83-2.03-2.48.52-4.94,2.07-6.95,3.6-1.42,1.08-2.7,2.33-4.09,3.44-1.21.97-2.76,1.9-3.76,3.08.36-.42,1.23-.68,1.7-.98.1-.07.88-.6.19-.2.47-.27,1.07-.43,1.58-.61,1.05-.35,2.12-.59,3.22-.73,2.21-.29,4.44-.14,6.65-.35,2.1-.2,4-1.02,5.86-1.98.6-.31,1.17-.65,1.75-.99.13-.07.25-.15.38-.22.48-.29.45-.26-.07.09.07-.22,1.33-.39,1.55-.44.62-.13,1.12-.87,1.73-1h0Z"/><path class="cls-6" d="m75.66,53.26c.84.58,1.47,1.23,1.84,2.13.2.5.34,1.03.36,1.56,0,.46-.1.91-.23,1.35-.62,2.17-2.14,4.05-3.69,5.77-.35.39-.71.77-1.12,1.12-.48.4-1.04.72-1.52,1.13-.73.62-1.36,1.3-1.91,2.06-.42.57-.73,1.18-.88,1.85-.05.22-.06.44-.06.66,0,.1-.02.29.07.38.16-.38.14-.88.2-1.28.11-.73.2-1.45.21-2.2.03-1.38-.25-2.76-.39-4.13-.14-1.45-.04-2.94.09-4.39.08-.88.15-1.76.28-2.64.11-.75.32-1.49.48-2.24.29-1.29.57-2.58.92-3.87.1-.38.3-.96.7-1.19.48-.28,1.16.38,1.46.61.68.53,1.32,1.15,1.92,1.75.52.51.87,1.11,1.35,1.65.26.3.61.51.91.76.08.07.28.17.28.29"/><path class="cls-6" d="m74.79,53.76c1.54,1.1,2.51,2.77,2.05,4.7-.43,1.82-1.52,3.42-2.69,4.85-.6.73-1.21,1.47-1.9,2.1-.74.68-1.62,1.17-2.35,1.86-1.02.98-2.8,2.9-2.24,4.48-.05-.13,1.67-.78,1.73-1,.52-1.72.49-3.78.29-5.55-.23-1.98-.38-3.86-.22-5.86.15-1.87.39-3.65.81-5.47.21-.9.4-1.81.62-2.71.2-.82.31-1.79,1-2.35l-1.73,1c1.03-.31,2.49,1.48,3.12,2.11.51.51.92,1.08,1.38,1.64.41.49,1.09.81,1.42,1.33.03.04,1.72-1.01,1.73-1-.28-.43-.83-.68-1.19-1.06-.49-.51-.86-1.13-1.35-1.65s-1.07-1.05-1.63-1.52c-.35-.29-.84-.81-1.3-.89-.62-.11-1.59.62-2.06.97-.98.72-1.09,2.28-1.34,3.39-.71,3.06-1.26,6.07-1.3,9.22s.98,6.3.04,9.4l1.73-1c-.56-1.58,1.22-3.5,2.24-4.48.73-.7,1.61-1.19,2.35-1.86.69-.64,1.31-1.38,1.9-2.1,1.17-1.43,2.26-3.02,2.69-4.85.46-1.94-.52-3.6-2.05-4.7-.23-.17-1.52,1.15-1.73,1h0Z"/><path class="cls-6" d="m65.73,43.86c.65.73,1.18,1.48,1.72,2.27.23.33.44.58.33.99-.13.47-.54.86-.94,1.17-1.83,1.41-4.53,2.22-6.94,2.08-.92-.06-1.86-.13-2.79-.08-.43.02-.88.07-1.3.15s-.76.24-1.13.41c-.69.32-1.36.62-2,1.04-.19.12-.37.27-.58.37-.11.06-.4.12-.46.25.3-.02.61-.28.83-.43.52-.36.97-.76,1.39-1.2.5-.53.98-1.08,1.45-1.63.5-.59.86-1.23,1.24-1.88.39-.66.8-1.31,1.18-1.97.34-.59.67-1.19,1.09-1.74.61-.8,1.3-1.67,2.28-2.14.3-.14.6-.26.94-.29.35-.03.98.09,1.32.16.65.12,1.12.5,1.55.95.86.91,1.39,2.01,2.02,3.04"/><path class="cls-6" d="m64.86,44.36c.67.77,1.33,1.59,1.86,2.46.49.81-.09,1.46-.74,1.97-.12.1-.25.19-.38.27-.45.3-.24.18.62-.34-.27.09-.52.25-.78.35-.44.18-.89.33-1.35.45-.87.23-1.78.36-2.68.36-1.93.01-3.92-.42-5.74.41-.7.32-1.39.66-2.06,1.04-.37.21-.75.43-1.12.65-.34.2-1.44.87.05.02l.43-.24c-.35.13-.66.31-.98.5-.29.17-.87.36-1.09.64-.18.22-.08.12.13.04s.43-.23.62-.34c.42-.24.86-.48,1.27-.74,2.1-1.34,3.53-3.41,4.79-5.5.67-1.11,1.26-2.28,2.04-3.31.31-.42.64-.83,1.02-1.19.12-.11.24-.22.36-.33.47-.35.24-.23-.68.37.25-.05.45-.17.71-.19,2.61-.23,3.75,2.27,4.89,4.14.02.03,1.73-1,1.73-1-1.01-1.65-1.88-3.72-3.98-4.06-.89-.15-1.54.03-2.32.47-.7.39-1.46.77-2.08,1.28-1.67,1.35-2.65,3.51-3.72,5.32-.58.98-1.2,1.85-1.95,2.71-.39.44-.77.87-1.2,1.27-.19.18-.39.35-.6.51-.8.61.32-.1.7-.45l-1.73,1c.75-.32,1.46-.75,2.16-1.18.1-.06.21-.12.31-.2-.62.33-.72.39-.3.19.16-.08.33-.16.49-.23.45-.21.9-.43,1.39-.53,2.32-.49,4.69.2,7.03-.32,1.82-.41,3.45-1.33,5.01-2.32.66-.41,1.91-1.17,1.67-2.1-.12-.45-.55-.89-.82-1.26-.39-.54-.8-1.07-1.23-1.57-.09-.11-1.66,1.08-1.73,1h0Z"/><path class="cls-5" d="m96.8,63.91c-1.29,1.06-2.9,1.87-4.01,3.05-1.09,1.15-1.83,2.47-2.56,3.77-.38.68-.67,1.38-1.16,2.01-.38.48-.79.95-1.24,1.4-.5.5-1.04.99-1.53,1.5-.08.09-.43.35-.4.49.36-.11.57-.39.81-.6.51-.45,1.04-.87,1.5-1.35.43-.45.83-.94,1.32-1.36.5-.43,1.08-.79,1.7-1.13.72-.39,1.46-.77,2.13-1.21.55-.36,1.08-.73,1.61-1.11.97-.69,1.56-1.48,2.08-2.4.33-.57.35-1.2.57-1.8.08-.23.39-.61.12-.85-.11-.1-.19-.15-.36-.19-.13-.03-.27,0-.39-.03-.1-.02-.29-.09-.35-.17"/><path class="cls-5" d="m95.93,64.41c-1,.81-2.13,1.45-3.14,2.26s-1.83,1.85-2.51,2.97-1.2,2.37-1.96,3.43-1.8,1.98-2.75,2.92c-.13.13-.39.31-.48.47-.11.19-.08.16.13.09.59-.21,1.21-.66,1.73-1,.41-.26.75-.64,1.12-.96.55-.48,1.06-.98,1.56-1.52.47-.51.97-.93,1.53-1.32.68-.48-1.03.56-.48.27.17-.09.33-.18.49-.27.27-.15.54-.3.81-.45,1.13-.64,2.24-1.31,3.3-2.05s2.13-1.71,2.71-2.97c.16-.35.23-.73.32-1.1.08-.32.26-.61.34-.93.18-.75-.79-.52-1.17-.81-.05-.04-.79.44-.87.49s-.81.55-.86.51c.45.36,1.47.06,1.1.96-.29.74-.39,1.54-.79,2.23-.9,1.54-2.23,2.4-3.66,3.39-.29.19-.12.09.53-.3-.13.07-.27.15-.4.22-.18.1-.36.19-.54.29-.35.19-.7.39-1.05.59-.65.37-1.32.74-1.92,1.19-.68.5-1.2,1.15-1.79,1.75s-1.25,1.19-1.92,1.71l.12-.07-.15.09,1.62-.93c-.4.16.03-.23.13-.33.21-.21.42-.42.63-.63.53-.52,1.08-1.03,1.58-1.58,1-1.11,1.59-2.41,2.33-3.69s1.49-2.42,2.55-3.36,2.39-1.66,3.52-2.57c-.51.41-1.22.58-1.73,1h0Z"/><path class="cls-5" d="m97.65,64.47c.63.58,1.32,1.09,2.02,1.62.7.53,1.38,1.06,2.21,1.49,1.9.97,4.25,1.43,6.36,1.94,2.11.51,4.08,1.21,6.03,2.06.59.26,1.17.52,1.73.82.45.25.78.57,1.2.83-.25-.22-.59-.4-.87-.61-.6-.45-1.13-.94-1.44-1.51-.67-1.23-.69-2.54-.93-3.8-.33-1.68-.87-3.48-1.91-5.08-.71-1.1-1.42-2.26-2.37-3.28-.23-.25-.63-.71-1-.9-.4-.21-.81.02-1.13.15-1.81.73-3.21,1.85-4.96,2.65-.69.31-1.46.54-2.18.81-.73.28-1.37.62-1.95,1.03-.43.31-.82.64-1.13,1.02-.09.11-.15.27-.31.33"/><path class="cls-5" d="m96.78,64.97c1.28,1.14,2.71,2.32,4.23,3.11,1.61.84,3.42,1.25,5.17,1.66,3.57.84,7.09,1.95,10.15,4,.24.16,1.53-1.16,1.73-1-1.34-1.02-2.39-1.78-2.82-3.49-.39-1.55-.48-3.14-.99-4.68s-1.34-2.89-2.24-4.22c-.54-.79-1.78-2.92-2.91-2.85-1.06.06-2.32,1.01-3.23,1.53-1.3.75-2.55,1.42-3.97,1.93-1.13.4-2.13.95-3.16,1.55-.39.23-.78.45-1.14.71-.55.4-.93.94-1.44,1.36.51-.42,1.22-.58,1.73-1,.41-.33.81-.79,1.19-1.17.46-.32.33-.27-.39.16l.55-.25c.31-.13.62-.24.93-.35,1.07-.38,2.07-.81,3.07-1.37.45-.26.9-.52,1.35-.78.26-.15.52-.3.77-.45.95-.56-.65.28.37-.2.56-.26,1.43-.86,2.08-.58.49.2.89.77,1.23,1.15,1.78,2.03,3.2,4.51,3.84,7.15.31,1.29.35,2.65.78,3.91.48,1.44,1.52,2.1,2.67,2.97l1.73-1c-3.06-2.05-6.58-3.16-10.15-4-1.7-.4-3.44-.8-5.02-1.59s-3.07-2.01-4.38-3.18c-.17-.15-1.59,1.13-1.73,1h0Z"/><path class="cls-5" d="m109.13,57.13c.79.27,1.48.56,2.15,1.02.52.36,1.02.73,1.57,1.05.5.3,1.01.59,1.52.88,1.01.59,2.09,1.05,3.24,1.37,1.2.33,2.46.53,3.69.77,2.14.43,4.34.95,6.3,1.88.75.36,1.5.73,2.18,1.18.23.15.44.31.63.49.11.11.23.27.38.34-.23-.37-.71-.69-1.05-.99-.66-.61-1.3-1.23-1.98-1.83-1.45-1.27-2.7-2.68-4.18-3.93-.69-.59-1.47-1.16-2.26-1.65s-1.72-.88-2.65-1.18c-.86-.27-1.81-.49-2.71-.6-.93-.12-1.89-.11-2.81-.1-1.2.02-2.37.07-3.43.5-.29.12-.59.24-.88.37-.15.07-.42.15-.49.29-.16.32.46.48.72.58.87.31,1.61.76,2.38,1.23"/><path class="cls-5" d="m108.27,57.63c1.78.62,3.24,1.8,4.86,2.74,1.81,1.04,3.63,1.65,5.67,2.05s4.08.76,6.05,1.43,3.5,1.58,5.09,2.77c.15.11,1.65-1.1,1.73-1-.8-1.05-2.04-1.94-3.03-2.83-1.17-1.05-2.25-2.19-3.4-3.24-2.31-2.12-4.89-3.58-8.01-4.06-2.61-.41-5.53-.32-7.91.9-.39.2-1.69.68-1.82,1.11s.84.62,1.09.72c.71.29,1.36.69,2.02,1.09.28.17,1.47-1.16,1.73-1-.71-.43-1.42-.85-2.2-1.16-.3-.12-1.23-.32-.78-.77l-1.7.98c1.97-1.01,4.07-1.1,6.25-1.02s4.38.63,6.26,1.69,3.53,2.67,5.11,4.22c.81.8,1.66,1.55,2.5,2.32.71.66,1.59,1.28,2.17,2.05l1.73-1c-1.59-1.19-3.2-2.12-5.09-2.77s-4.01-1.03-6.05-1.43-3.86-1.01-5.67-2.05c-1.62-.93-3.08-2.12-4.86-2.74-.42-.15-1.33,1.14-1.73,1h0Z"/><path class="cls-6" d="m96.36,63.5c-.9.31-1.6.72-2.08,1.37-.26.36-.47.75-.55,1.17-.07.36-.01.73.06,1.1.34,1.82,1.6,3.56,2.91,5.19.3.37.6.73.96,1.07.42.4.93.75,1.35,1.15.64.61,1.18,1.26,1.62,1.95.34.52.57,1.06.63,1.61.02.18,0,.36-.02.54-.01.08-.02.24-.12.29-.11-.33-.03-.72-.04-1.05-.01-.6-.02-1.18.06-1.77.15-1.09.59-2.14.9-3.2.32-1.12.41-2.32.47-3.48.03-.71.08-1.42.06-2.13-.02-.61-.12-1.23-.2-1.85-.12-1.07-.24-2.14-.42-3.21-.05-.32-.18-.81-.54-1.06-.44-.3-1.19.1-1.52.23-.74.3-1.44.68-2.11,1.05-.57.32-1,.73-1.53,1.07-.3.19-.66.3-1,.45-.09.04-.3.09-.31.18"/><path class="cls-6" d="m97.23,63c-1.17.43-2.6,1.12-3.5,2-1.46,1.45-.76,3.46.13,5.02,1,1.76,2.3,3.34,3.85,4.63.8.67,1.51,1.46,2.06,2.34.39.62.95,1.73.49,2.44l1.73-1c-.58-2.82,1.05-5.47,1.3-8.22s.13-5.79-.49-8.56c-.27-1.23-1.06-1.16-2.04-.74s-1.94.94-2.87,1.48c-.41.24-.83.46-1.22.72-.14.09-.62.56-.78.57l.74-.4c-.17.07-.34.14-.51.21-.68.31-1.48.68-2.04,1.18.48-.43,1.24-.56,1.73-1l.13-.11-1.73,1c.81-.32,1.53-.71,2.28-1.14.3-.18.6-.35.89-.55.08-.05.65-.57.74-.55l-.66.36c.17-.09.35-.18.52-.27.63-.32,1.96-1.18,2.65-.65.74.57.65,2.27.75,3.08.29,2.46.45,4.87.07,7.34s-1.71,4.73-1.19,7.26c-.03-.16,1.59-.79,1.73-1,.78-1.21-.9-3.12-1.65-3.92-.56-.6-1.22-1.06-1.81-1.62s-1.09-1.21-1.58-1.85c-1-1.31-1.98-2.76-2.3-4.41-.14-.75-.07-1.4.34-2.05.18-.29.41-.49.64-.74.45-.34.23-.23-.66.36.17-.07.34-.14.52-.2.62-.23,1.12-.78,1.73-1h0Z"/><path class="cls-6" d="m107.32,57.77c-.73.47-1.34.97-1.98,1.5-.26.22-.5.38-.45.72.07.39.43.77.78,1.08,1.63,1.43,4.19,2.53,6.58,2.83.92.12,1.85.22,2.76.42.42.09.86.21,1.27.34s.72.32,1.06.52c.64.37,1.26.73,1.84,1.16.17.13.33.28.53.39.11.06.38.16.42.27-.29-.06-.56-.32-.76-.48-.47-.37-.86-.76-1.22-1.19-.43-.5-.83-1.02-1.23-1.54-.42-.55-.69-1.12-.98-1.7-.3-.59-.62-1.17-.91-1.76-.26-.53-.51-1.05-.86-1.56-.5-.74-1.07-1.55-1.98-2.08-.28-.16-.56-.31-.89-.39s-.97-.1-1.32-.1c-.66-.02-1.17.2-1.64.48-.96.57-1.62,1.35-2.37,2.05"/><path class="cls-6" d="m106.49,58.25c-.73.48-1.44,1-2.09,1.58-.69.62-.16,1.23.41,1.74,1.29,1.15,2.94,1.93,4.58,2.41,1.76.52,3.62.52,5.39.99.88.24,1.62.65,2.4,1.12.39.23.76.48,1.12.75.29.22.69.41.95.67l1.73-1c-.86-.32-1.59-1.2-2.17-1.89-.68-.82-1.32-1.64-1.81-2.59-.91-1.77-1.69-3.82-3.16-5.22-2.95-2.8-6.54.32-8.76,2.43.47-.44,1.26-.55,1.73-1,.58-.55,1.16-1.09,1.75-1.63s-.95.37-.46.26c.17-.04.34-.11.52-.14.34-.05.69-.03,1.02-.01,1.66.09,2.76,1.24,3.63,2.56.94,1.42,1.51,3.05,2.4,4.5.47.76,1.07,1.48,1.66,2.15.51.59,1.16,1.3,1.91,1.58.25.09,1.59-1.14,1.73-1-.21-.22-.53-.35-.78-.53-.35-.26-.69-.51-1.06-.74-.76-.47-1.52-.94-2.38-1.19-1.77-.51-3.62-.51-5.4-.99-1.6-.44-3.18-1.16-4.48-2.19-.47-.37-1.43-1.1-1.02-1.78.18-.3.61-.54.87-.76.46-.37.93-.72,1.42-1.04-.4.26-1.17.63-1.67.96h0Z"/><path class="cls-4" d="m94.31,32.57c1.54.78,3.13,1.27,4.78.47,1.24-.6,2.38-1.46,3.54-2.19,1.35-.85,2.63-1.82,3.99-2.66,2.27-1.4,5.11-1.57,7.72-1.47,1.16.05,2.32.14,3.48.21.42.03.84.02,1.26.01.19,0,.45-.06.63.01-.56.23-1.16.36-1.76.49-.32.07-1.39.25-1.5.62.51.29,1.08.44,1.62.66.69.28,1.37.53,2.12.56.71.02,1.49.03,2.2-.05.55-.06,1.1-.25,1.65-.27-.59.67-1.45,1-2.08,1.64-.07.08-.58.57-.53.77.08.29.82.25.96.24,1.31-.02,2.48-.45,3.72-.85.18-.06,1.47-.69,1.61-.56-.28.33-.59.46-.93.72-.38.28-.74.73-.98,1.14-.23.4-.71,1.02-.17,1.32.67.36,1.63.3,2.37.34.64.04,1.29-.05,1.94-.04.58,0,1.13-.13,1.7-.13.43,0,.82-.06,1.25-.13.31-.05.69-.09.97-.24.22-.12.59-.46.87-.3-.27.23-.63.3-.94.46-.53.26-1.01.48-1.58.66-1.39.42-2.74.9-4.08,1.45-1.81.74-3.75,1.09-5.65,1.51-1.3.28-2.58.67-3.9.91-1.57.28-3.19.39-4.78.43-2.75.08-5.54-.07-8.28-.38-1.82-.21-3.48-.78-5.08-1.64-1.36-.73-2.58-1.65-3.86-2.5-.42-.28-.83-.58-1.28-.82-.22-.12-.54-.36-.78-.39"/><path class="cls-4" d="m93.44,33.07c1.21.58,2.53,1.09,3.89.79.78-.18,1.48-.61,2.16-1,1.74-.99,3.42-2.09,5.08-3.22.48-.33.96-.66,1.44-.99.34-.23.7-.54,1.08-.71-.43.2-.05.08.17.02,1.24-.35,2.4-.64,3.7-.72s2.51-.03,3.76.05c1.36.08,2.78.03,4.13.18l1.73-1c-1.33.49-2.61.62-3.84,1.33-.2.11-1.13.49-1.15.78-.02.22,2.55,1.02,2.87,1.09,1.11.26,2.37.19,3.48.01.27-.06.55-.11.82-.16.5-.14.55-.07.15.22-.11.21-.83.61-.92.67-.25.18-1.56,1-1.42,1.47.15.5,1.75.19,2.03.14.93-.16,1.87-.45,2.75-.79.27-.1,1.2-.7,1.47-.53-.06-.04-4.11,2.94-1.23,3.43,1.97.33,4.27.12,6.24-.17,1.23-.18,2.16-.82,3.21-1.45l-1.62.93c.24-.16.3-.12.19.12l1.7-.98c-3.21,1.34-6.58,2.7-9.99,3.46s-6.99,1.66-10.66,1.76c-3.47.1-7.37.14-10.71-.9-1.66-.52-3.17-1.37-4.61-2.33-1.23-.82-2.54-2.04-3.96-2.5-.43-.14-1.32,1.13-1.73,1,1.62.53,3.11,1.97,4.53,2.88,1.61,1.04,3.35,1.87,5.23,2.27,3.94.84,8.4.82,12.39.41,1.98-.2,3.86-.73,5.8-1.17s3.82-.79,5.65-1.51c2.84-1.1,5.73-1.89,8.31-3.54l.03-.02c-.76-.13-1.94.89-2.57,1.28l1.7-.98c-1.34.51-2.99.46-4.41.51-.7.03-3.64.39-4.04-.52-.18-.42.35-1.1.58-1.42.39-.54,1.27-.88,1.57-1.41.21-.37-.51.02-.77.13-.44.18-.86.35-1.31.5-.93.3-2.76,1.07-3.74.62s1.06-1.65,1.4-1.9c.21-.15.64-.35.74-.59.15-.36-.39-.06-.69-.01-.87.15-1.7.23-2.59.21-.76-.02-1.43-.15-2.14-.41-.41-.15-.83-.31-1.23-.47-.33-.13-1.14-.21-.53-.61l-1.7.98c.95-.4,2-.49,2.97-.84.44-.16,1.3-1.05,1.73-1-1.19-.13-2.43-.06-3.64-.14-1.35-.09-2.7-.16-4.04-.09-2.05.11-3.92.6-5.69,1.61s-3.37,2.16-5.05,3.26c-.94.62-1.98,1.56-3.1,1.76-1.39.25-2.64-.18-3.89-.79-.35-.17-1.41,1.16-1.73,1h0Z"/><path class="cls-9" d="m134.14,33.09c-1.21.72-2.53,1.19-3.89,1.54-.9.23-1.81.41-2.72.61-.88.2-1.74.43-2.64.56-2.43.33-4.87.73-7.29,1.15-2.3.4-4.57.78-6.9.89-1.69.08-3.39-.03-5.07-.21-1.55-.16-3.09-.35-4.59-.8-1.7-.51-3.18-1.35-4.63-2.35-.6-.41-1.26-.74-1.86-1.16-.09-.06-.35-.36-.45-.18.31.14.43.25.66.51.28.33.68.58,1,.86,1.48,1.27,2.64,2.79,3.91,4.26,1.17,1.35,2.47,2.58,3.67,3.92,1.13,1.27,2.25,2.55,3.49,3.71,1.46,1.38,4.23,4.38,6.42,5.14.19-.14-3.08-2.7-3.21-2.86-.37-.47-.65-1.17-1.02-1.63.7.3,1.35.68,2,1.06.46.27.91.59,1.38.84.67.36,1.4.6,2.1.87,1.39.54,2.9.76,4.38.93.8.09,1.6,0,2.39.08-.94-.08-1.93-.57-2.75-1-.49-.26-.98-.5-1.45-.79-.13-.08-.67-.31-.64-.46.89-.2,1.81-.11,2.71-.17.58-.04,1.16-.1,1.71-.28.49-.15.93-.4,1.39-.63.53-.27,1.06-.49,1.57-.8.2-.12.7-.27.67-.57-.46.05-.91.18-1.38.21-.5.03-1.07-.02-1.57-.08s-1.01-.16-1.5-.34c-.2-.07-.52-.13-.63-.33.58-.32,1.32-.33,1.97-.41,1.13-.13,2.2-.29,3.28-.68,1.72-.62,3.05-1.88,4.65-2.72-.37.09-.75.13-1.14.16-.48.04-1.03.15-1.51.1s-.94-.23-1.4-.38c-.36-.12-.81-.2-1.15-.39.1-.23.45-.17.67-.2.34-.05.68-.12,1.02-.2.78-.18,1.55-.4,2.28-.74.75-.35,1.34-.77,1.89-1.39.63-.71,1.27-1.42,1.82-2.19.34-.49.73-.95.99-1.48.17-.35.4-.72.71-.97.12-.1.17-.1.24-.22.04-.06.05-.23.08-.3.09-.21.27-.35.42-.51"/><path class="cls-9" d="m134.57,32.83c-1.54.88-3.32,1.29-5.04,1.67s-3.47.75-5.24,1.01c-3.55.52-7.08,1.28-10.65,1.67s-7.01.2-10.39-.5c-1.6-.33-3.11-.93-4.52-1.75-.76-.44-1.47-.95-2.21-1.4-.34-.21-1.18-1-1.56-.88-.29.09-1.53,1.11-1.73,1,.78.41,1.51,1.22,2.16,1.82.92.86,1.73,1.83,2.54,2.79,1.64,1.94,3.45,3.73,5.15,5.63,1.43,1.6,2.95,3.11,4.49,4.6,1.41,1.36,2.94,2.85,4.8,3.56.12.05,1.7-.88,1.73-1,.09-.38-1.72-1.61-1.97-1.82-.35-.29-.75-.56-1.07-.88-.51-.51-.78-1.2-1.19-1.79l-1.73,1c1.96.89,3.64,2.12,5.69,2.85,2.16.76,4.32.8,6.57.94.54.03,1.22-1.08,1.73-1-1.06-.16-1.99-.61-2.93-1.1-.51-.27-1.61-.62-1.91-1.15l-1.73,1c1.74-.31,3.48.02,5.14-.73,1.03-.47,2.04-1,3.02-1.55.39-.22.85-.43,1.2-.7.08-.06.21-.1.28-.19.36-.49-.18-.21-.53-.16-1.2.19-3.42.26-4.39-.65l-1.73,1c1.06-.46,2.29-.41,3.42-.62,1.07-.19,2.08-.52,3.04-1.03.6-.32,1.18-.67,1.76-1.01.31-.18.62-.37.92-.57s.57-.38.86-.58c.23-.16,1.11-.68,0-.07.47-.26,1.09-.83,1.61-.94-.88.18-1.93.37-2.83.23-.42-.07-.82-.22-1.22-.35-.28-.09-1.37-.2-.98-.54l-1.73,1c2.35-.37,4.39-1.12,6.35-2.46,1.21-.83,2.16-2.12,3.01-3.3.49-.68.86-1.52,1.43-2.13.35-.38.51-.79.88-1.16-.45.45-1.28.54-1.73,1-.26.27-.31.54-.5.81-.22.3-.54.51-.76.83-.57.83-1.04,1.69-1.67,2.49-.5.64-1.28,1.73-1.86,2.09-.69.43-1.79.59-2.59.72-.51.08-.83.12-1.27.35-.26.14-1.17.49-1.3.76-.28.16-.22.26.2.31l.4.12c.46.16.95.34,1.43.43.96.19,2.07,0,3.01-.2l1.61-.94c-1.39.77-2.68,1.66-4.03,2.47-.43.29-.46.3-.1.03-.26.11-.52.21-.79.29-.53.17-1.08.28-1.63.37-1.07.18-2.21.14-3.22.58-.2.09-1.67,1.06-1.73,1,.59.56,1.74.64,2.51.71.56.05,1.09.05,1.65-.02.32-.04,1.35-.37.66.19l1.7-.98c-1.08.56-2.19,1.26-3.35,1.63-1.43.46-2.97.19-4.43.45-.19.03-1.72,1.02-1.73,1,.3.53,1.4.89,1.91,1.15.94.49,1.87.94,2.93,1.1l1.73-1c-2.25-.14-4.41-.18-6.57-.94s-3.73-1.95-5.69-2.85c-.18-.08-1.66,1.1-1.73,1,.41.59.68,1.28,1.19,1.79.32.32.72.59,1.07.88.28.23,2.06,1.44,1.97,1.82l1.73-1c-1.81-.69-3.3-2.12-4.68-3.44-1.59-1.53-3.14-3.08-4.62-4.72-1.65-1.84-3.41-3.57-5.01-5.46-.81-.96-1.62-1.93-2.52-2.8-.68-.65-1.49-1.54-2.32-1.97l-1.73,1c.38-.12,1.22.67,1.56.88.74.46,1.46.96,2.21,1.4,1.56.91,3.21,1.51,4.98,1.84,3.74.69,7.55.76,11.31.24s7.64-1.11,11.4-1.82c3.11-.59,6.25-1.26,9.02-2.84.39-.23.8-.44,1.18-.69.29-.19-.26.14-.32.17h0Z"/><path class="cls-3" d="m58.43,126.79c-.83-.13-1.57.39-1.77,1.23-.21.89.3,1.75,1.18,1.97l11.9,2.85-.83,3.51-11.9-2.85c-2.8-.67-4.52-3.5-3.85-6.31.58-2.46,2.82-4.1,5.24-4.01l.03,3.62Z"/><path class="cls-3" d="m67.29,143.13l-9.8-2.35c-1.94-.46-3.87.73-4.33,2.67-.46,1.94.73,3.88,2.66,4.35l9.8,2.35-.83,3.51-9.8-2.35c-3.87-.93-6.25-4.81-5.33-8.69.92-3.88,4.8-6.27,8.67-5.34l9.8,2.35-.83,3.51Z"/><path class="cls-3" d="m59.36,159.55l-12.64-3.03.83-3.51,16.45,3.94-1.26,5.31-13.78,3.7,12.2,2.92-.83,3.51-16.45-3.94,1.2-5.05,14.28-3.85Z"/><path class="cls-3" d="m59.46,176.02l-2.67,11.23-3.5-.84,1.84-7.72-2.8-.67-1.75,7.37-3.5-.84,1.75-7.37-3.15-.75-1.92,8.07-3.5-.84,2.76-11.58,16.45,3.94Z"/></svg>