<?xml version="1.0" encoding="UTF-8"?><svg xmlns="http://www.w3.org/2000/svg" width="186.67" height="369.16" xmlns:xlink="http://www.w3.org/1999/xlink" viewBox="0 0 186.67 369.16"><defs><style>.cls-1{fill:url(#linear-gradient);}.cls-1,.cls-2,.cls-3,.cls-4,.cls-5,.cls-6,.cls-7{stroke-width:0px;}.cls-8{isolation:isolate;}.cls-3{fill:url(#linear-gradient-2);}.cls-4{fill:#a69771;}.cls-5{fill:#ffefe1;}.cls-9{mix-blend-mode:multiply;opacity:.51;}.cls-6{fill:#665322;}.cls-7{fill:#828282;}</style><linearGradient id="linear-gradient" x1="21.84" y1="799.44" x2="47.21" y2="891.29" gradientTransform="translate(483.25 -690.78) rotate(30.36)" gradientUnits="userSpaceOnUse"><stop offset="0" stop-color="#fc0"/><stop offset="1" stop-color="#ff4"/></linearGradient><linearGradient id="linear-gradient-2" x1="-85.75" y1="977.11" x2="-83.59" y2="926.5" gradientTransform="translate(379.84 -860) rotate(12.5)" gradientUnits="userSpaceOnUse"><stop offset="0" stop-color="#d9c38d"/><stop offset="1" stop-color="#665322"/></linearGradient></defs><g class="cls-8"><g id="Layer_2"><path class="cls-1" d="m2.24-.08L.83,369.58,185.83,50.49S91.57-5.29,2.24-.08Z"/><path class="cls-5" d="m2.2,93.28L.83,369.58l138.37-238.67S68.89,89.31,2.2,93.28Z"/><path class="cls-6" d="m105.41,75.05c1.75.39,3.5.82,5.26,1.17,1.57.31,3.15.41,4.74.58,2.08.22,4.06.25,6.13.08,2.72-.23,5.58-.53,8.15-1.52,1.3-.5,2.77-1.05,3.87-1.92,1.38-1.09,2.32-2.83,2.9-4.46,1.8-5.04.32-10.58-1.68-15.33-1.34-3.2-2.88-6.46-4.72-9.4-1.22-1.94-2.58-3.79-3.96-5.62-2.75-3.68-5.87-7.23-9.17-10.41-1.47-1.41-3.33-2.43-5.06-3.48-1.97-1.19-4.14-2.16-6.23-3.09-4.87-2.19-9.99-3.78-15.26-4.67-2.15-.36-4.33-.39-6.5-.47-2.81-.11-5.58-.04-8.38.17-4.79.35-9.49.88-13.9,2.92-3.82,1.76-7.98,3.26-11.3,5.95-2.92,2.37-5.3,5.84-6.74,9.3-.82,1.97-1.5,3.7-1.4,5.89.04.9.25,1.73.42,2.6.19.93.09,1.9.21,2.84.22,1.85,1.43,3.23,2.65,4.53.78.84,1.53,1.74,2.4,2.48,1.82,1.55,3.98,2.62,6.1,3.66,3.08,1.5,6.12,2.94,9.36,4.07,4.76,1.66,9.46,3.41,14.13,5.32,4.24,1.74,8.47,3.52,12.81,5,2.98,1.02,5.96,2.17,9,3.01,2.19.61,4.43,1.06,6.63,1.62,1.21.31,2.36.62,3.62.66.62.02,1.24-.04,1.86-.05.47,0,.99-.22,1.44-.19"/><path class="cls-6" d="m104.54,75.55c4.55,1.03,9.08,1.98,13.78,1.93,4.14-.04,8.35-.62,12.16-2.29,2.63-1.15,4.98-2.67,6.27-5.32,1.86-3.83,1.63-8.18.52-12.2-2.33-8.41-7.22-15.97-12.7-22.65-2.64-3.22-5.51-6.76-9.01-9.08s-7.54-4.28-11.56-5.88-8.23-2.83-12.5-3.56c-4.52-.77-9.32-.69-13.88-.43-4.25.25-8.57.64-12.63,2-1.99.67-3.89,1.61-5.81,2.46-1.68.74-3.34,1.51-4.94,2.41-2.83,1.59-5.45,3.31-7.56,5.82-2.43,2.9-4.68,6.79-5.27,10.58-.32,2.09.38,4.05.46,6.12s.81,3.59,2.2,5.15,2.77,3.09,4.53,4.25,3.8,2.12,5.75,3.07c4.06,1.96,8.23,3.47,12.46,5.01s8.58,3.29,12.84,5.03,8.55,3.31,12.88,4.84,8.72,2.6,13.17,3.71c1.05.26,2.09.48,3.17.49s2.04-.19,3.07-.23c.6-.02,1.15-.98,1.73-1-2.02.07-3.78.33-5.79-.15s-4.23-1-6.34-1.53c-4.14-1.04-8.18-2.57-12.2-4.02-8.23-2.97-16.2-6.56-24.46-9.45-3.94-1.38-7.72-3.12-11.44-5-3.43-1.74-6.51-4.15-8.7-7.36-1.2-1.76-.93-3.47-1.26-5.47s-.6-3.67-.07-5.63c.96-3.54,2.89-6.98,5.29-9.73,1.3-1.5,2.83-2.88,4.55-3.89s3.58-1.74,5.38-2.54,3.59-1.65,5.49-2.22,4.03-.97,6.08-1.23c8.34-1.05,17-1.05,25.15,1.16,3.99,1.08,7.81,2.61,11.56,4.35,3.49,1.62,7.08,3.54,9.84,6.26,5.84,5.74,11.25,12.44,14.92,19.79,3.33,6.68,7.15,15.45,2.9,22.6-.44.75-1.01,1.3-1.56,1.95-.03.04-.46.54-.1.17s-.37.2-.5.26c-.48.22-.97.41-1.47.6-1.84.71-3.73,1.12-5.69,1.37-4.19.53-8.34.42-12.52-.17-2.17-.31-4.31-.89-6.44-1.37-.49-.11-1.26,1.11-1.73,1h0Z"/><ellipse class="cls-4" cx="88.72" cy="55.34" rx="16.37" ry="47.15" transform="translate(11.02 125.33) rotate(-73.96)"/><g class="cls-9"><path class="cls-7" d="m80.25,50.98c-.31.77-.71,1.5-1.14,2.21-.39.63-.76,1.29-1.26,1.84-1.06,1.16-2.16,2.28-3.27,3.38-1.18,1.17-2.42,2.24-3.74,3.24-.63.48-1.26.98-1.94,1.38-.31.19-.64.28-.98.41-.19.08-.85.47-1.05.34-.54-.35-1.04.51-.5.86.63.41,1.26-.02,1.88-.26.84-.33,1.53-.71,2.26-1.25,1.5-1.1,2.95-2.25,4.29-3.55s2.55-2.54,3.77-3.87c1.14-1.25,2.03-2.93,2.66-4.49.24-.6-.73-.86-.96-.27h0Z"/></g><g class="cls-9"><path class="cls-7" d="m77.94,58.06c-.51.79-.94,1.63-1.48,2.41s-1.15,1.43-1.73,2.12-1.28,1.27-2.01,1.77c-.38.26-.77.5-1.17.73-.37.21-.79.31-1.17.51-.57.31-.06,1.17.5.86.39-.21.84-.32,1.23-.55.42-.24.83-.49,1.22-.77.75-.53,1.51-1.13,2.1-1.84s1.25-1.45,1.8-2.22,1.02-1.69,1.55-2.52c.35-.54-.51-1.04-.86-.5h0Z"/></g><g class="cls-9"><path class="cls-7" d="m79.04,52.53c-1.21,1.23-2.5,2.38-3.94,3.34s-2.74,1.98-4.19,2.82-3.01,1.51-4.6,1.99c-.83.25-1.68.43-2.54.47-.77.03-1.72.12-2.48-.04-.63-.13-.9.83-.27.96.8.17,1.71.09,2.53.08.88-.01,1.75-.16,2.59-.38,1.68-.45,3.35-1.15,4.88-1.99,1.61-.88,3.07-2.04,4.59-3.05s2.87-2.2,4.14-3.5c.45-.46-.26-1.17-.71-.71h0Z"/></g><g class="cls-9"><path class="cls-7" d="m79.77,51.4c-1.94.92-3.75,2-5.62,3.04-.88.49-1.79.94-2.73,1.3s-1.98.62-2.97.93c-1.98.62-3.95,1.26-6.01,1.58-1.06.16-2.14.19-3.21.28-.51.04-1.02.05-1.54-.01s-.94-.23-1.43-.35c-.62-.16-.89.81-.27.96.95.24,1.8.47,2.79.43,1.1-.04,2.23-.12,3.32-.26,2.19-.27,4.28-.93,6.38-1.6s3.98-1.22,5.86-2.23c1.99-1.07,3.89-2.24,5.93-3.21.58-.28.07-1.14-.5-.86h0Z"/></g><g class="cls-9"><path class="cls-7" d="m80.84,49.76c-1.93.72-3.93,1.21-5.91,1.79s-3.99,1.32-6,1.9c-4.1,1.2-8.22,1.83-12.5,1.62-1.18-.06-2.31-.19-3.47-.4-.49-.09-.98-.17-1.46-.33-.45-.15-.81-.42-1.24-.59-.6-.24-.86.73-.27.96.32.13.61.36.95.49.46.18.93.29,1.41.37,1.01.18,2,.38,3.02.44,2.15.12,4.29.18,6.44-.06,4.27-.48,8.28-1.85,12.36-3.13,2.31-.73,4.68-1.26,6.95-2.11.6-.22.34-1.19-.27-.96h0Z"/></g><g class="cls-9"><path class="cls-7" d="m81.02,49.32c-2.42.2-4.84.25-7.25.51s-4.9.58-7.36.7-4.93.1-7.4.08-4.79.07-7.15-.22c-1.3-.16-2.62-.45-3.83-.98-.61-.26-1.16-.62-1.71-.99-.44-.3-1.06-.53-1.37-.98-.36-.53-1.23-.03-.86.5.52.76,1.52,1.23,2.29,1.71,1.03.64,2.15,1.06,3.32,1.35,2.32.57,4.72.57,7.09.58,2.59.01,5.18.06,7.77,0s5.2-.3,7.79-.6c2.89-.34,5.78-.42,8.68-.67.64-.05.64-1.05,0-1h0Z"/></g><g class="cls-9"><path class="cls-7" d="m80.28,49.71c-4.87-1-9.9-1.36-14.84-1.78s-9.99-.71-14.74-2.16c-1.24-.38-2.44-.83-3.64-1.33s-2.48-1.08-2.67-2.55c-.08-.63-1.08-.64-1,0,.13.99.49,1.82,1.3,2.43.92.69,2.06,1.08,3.12,1.5,2.37.93,4.84,1.6,7.35,2,5.27.82,10.6,1.05,15.89,1.63,3,.33,6,.62,8.96,1.23.63.13.9-.83.27-.96h0Z"/></g><g class="cls-9"><path class="cls-7" d="m79.94,48.83c-2.26-.17-4.5-.51-6.72-.92s-4.26-.78-6.35-1.3-4.14-1.23-6.15-2.03c-1.9-.75-3.76-1.63-5.45-2.78-.9-.61-1.76-1.31-2.51-2.11-.42-.44-.81-.92-1.15-1.42-.22-.32-.76-.92-.73-1.33.05-.64-.95-.64-1,0-.06.83.8,1.78,1.27,2.39.61.79,1.3,1.51,2.06,2.15,1.62,1.36,3.46,2.41,5.39,3.27,2.11.94,4.3,1.77,6.52,2.41s4.57,1.08,6.88,1.51c2.63.5,5.27.93,7.94,1.13.64.05.64-.95,0-1h0Z"/></g><g class="cls-9"><path class="cls-7" d="m79.91,49.49c-3.75-2.06-7.58-4-11.24-6.22-3.41-2.07-7.33-4.3-8.91-8.16-.24-.59-1.21-.33-.96.27,1.62,3.95,5.28,6.23,8.77,8.39,3.84,2.38,7.87,4.42,11.83,6.59.56.31,1.07-.55.5-.86h0Z"/></g><g class="cls-9"><path class="cls-7" d="m82.29,49.78c-2.95-1.39-5.68-3.44-7.91-5.82-1.14-1.22-2.14-2.57-3.03-3.98-.42-.67-.81-1.37-1.14-2.1-.35-.78-.75-1.62-.95-2.45-.15-.63-1.11-.36-.96.27.19.82.58,1.62.92,2.39s.76,1.57,1.22,2.3c.9,1.45,1.94,2.86,3.1,4.12,2.3,2.51,5.17,4.69,8.26,6.14.58.27,1.09-.59.5-.86h0Z"/></g><g class="cls-9"><path class="cls-7" d="m82.81,49.13c-1.06-.65-2.06-1.36-2.8-2.38-.84-1.16-1.6-2.39-2.35-3.61s-1.48-2.36-2.14-3.58c-.35-.64-.65-1.3-.88-1.99-.2-.59-.33-1.2-.59-1.78s-1.13-.08-.86.5c.29.62.4,1.33.64,1.97s.55,1.29.88,1.9c.72,1.32,1.54,2.59,2.33,3.87s1.5,2.47,2.39,3.59c.78.99,1.81,1.71,2.88,2.36.55.34,1.05-.53.5-.86h0Z"/></g><g class="cls-9"><path class="cls-7" d="m84.26,48.26c-1.12-1.57-2.05-3.37-2.55-5.25-.24-.92-.46-1.9-.51-2.85-.06-1.01.13-2.01.34-2.99.14-.63-.83-.9-.96-.27-.22,1-.41,2.02-.39,3.05s.25,2.12.5,3.13c.5,2.03,1.49,4,2.7,5.69.37.52,1.24.02.86-.5h0Z"/></g><g class="cls-9"><path class="cls-7" d="m85.48,48.64c-.51-1.81-.89-3.71-1-5.59-.05-.88-.01-1.77.2-2.64.11-.44.27-.85.43-1.26.09-.23.16-.7.36-.86.5-.4-.21-1.11-.71-.71-.24.19-.31.48-.41.76-.17.48-.39.95-.54,1.44-.27.92-.37,1.9-.35,2.85.05,2.1.49,4.26,1.06,6.27.17.62,1.14.36.96-.27h0Z"/></g><g class="cls-9"><path class="cls-7" d="m88.73,48.42c-.13-.86-.14-1.74-.12-2.61.02-.81.09-1.62.37-2.39.55-1.56,1.87-2.54,3.03-3.62.47-.44-.24-1.15-.71-.71-.65.6-1.35,1.12-1.92,1.8s-1.08,1.42-1.37,2.26c-.6,1.71-.5,3.77-.25,5.53.09.63,1.06.36.96-.27h0Z"/></g><g class="cls-9"><path class="cls-7" d="m91.13,48.95c-.79-1.39-.21-3.16.28-4.56.54-1.53,1.28-2.96,2.51-4.05.48-.43-.23-1.13-.71-.71-1.4,1.23-2.21,2.88-2.81,4.62s-1.05,3.59-.14,5.21c.32.56,1.18.06.86-.5h0Z"/></g><g class="cls-9"><path class="cls-7" d="m94.33,49.9c-.09-.78-.14-1.52.05-2.29.18-.72.47-1.41.7-2.12s.46-1.48.72-2.21.64-1.48.97-2.21c.27-.58-.6-1.09-.86-.5-.35.76-.72,1.51-1.01,2.29s-.52,1.58-.78,2.37-.57,1.5-.74,2.28-.14,1.58-.05,2.39c.07.63,1.07.64,1,0h0Z"/></g><g class="cls-9"><path class="cls-7" d="m96.47,50.76c.61-1.42,1.43-2.75,2.1-4.15.33-.69.64-1.39.84-2.12.22-.8.26-1.63.38-2.44.09-.63-.87-.9-.96-.27-.11.76-.16,1.54-.34,2.29s-.51,1.48-.84,2.18c-.65,1.35-1.44,2.63-2.03,4-.25.58.61,1.09.86.5h0Z"/></g><g class="cls-9"><path class="cls-7" d="m97.87,51.5c.64-.47,1.28-.94,1.8-1.56.56-.67,1.05-1.4,1.48-2.16s.84-1.47,1.17-2.25c.16-.37.3-.75.37-1.15.08-.46,0-.91.07-1.36.04-.27-.07-.53-.35-.62-.23-.07-.58.08-.62.35-.05.38-.02.76-.04,1.14s-.14.76-.28,1.11c-.3.74-.71,1.45-1.1,2.14s-.82,1.36-1.31,1.97-1.08,1.06-1.69,1.51c-.51.38-.01,1.25.5.86h0Z"/></g><g class="cls-9"><path class="cls-7" d="m97.65,52.87c2.18-.1,4.23-1.42,5.88-2.76s3.05-3.13,3.97-5.08c.27-.58-.59-1.09-.86-.5-.84,1.79-2.06,3.38-3.56,4.67-.8.69-1.69,1.27-2.62,1.78s-1.78.86-2.8.9c-.64.03-.64,1.03,0,1h0Z"/></g><g class="cls-9"><path class="cls-7" d="m98.46,54.01c1.39.13,2.82.23,4.21-.04,1.28-.25,2.48-.82,3.56-1.54,1.15-.77,2.22-1.67,3.2-2.65.89-.89,1.83-1.86,2.16-3.11.17-.62-.8-.89-.96-.27-.3,1.14-1.24,2.02-2.06,2.82-.92.9-1.92,1.74-3,2.45-.96.63-2.02,1.11-3.15,1.33-1.29.25-2.65.13-3.94,0-.64-.06-.64.94,0,1h0Z"/></g><g class="cls-9"><path class="cls-7" d="m100.08,55.68c1.45.06,2.82-.33,4.18-.77s2.71-.94,4.01-1.56c2.55-1.22,4.88-2.71,6.58-5,.38-.52-.48-1.02-.86-.5-1.59,2.14-3.84,3.51-6.22,4.64-1.18.56-2.41,1.02-3.66,1.42-1.32.43-2.62.83-4.02.77-.64-.03-.64.97,0,1h0Z"/></g><g class="cls-9"><path class="cls-7" d="m101.4,57.11c3.66.4,7.4.21,10.95-.83,3.03-.89,6.1-2.19,8.26-4.57.43-.48-.27-1.18-.71-.71-2.09,2.31-5.08,3.53-8.02,4.37-3.4.98-6.98,1.12-10.48.74-.64-.07-.63.93,0,1h0Z"/></g><g class="cls-9"><path class="cls-7" d="m101.09,57.94c4.03,1.56,8.58,1.69,12.85,1.2,2.08-.24,4.17-.6,6.15-1.3.98-.35,1.95-.74,2.9-1.14s1.76-.93,2.67-1.34c.59-.26.08-1.13-.5-.86-.84.38-1.61.89-2.46,1.25-.94.41-1.9.79-2.87,1.13-1.97.7-4.06,1.07-6.13,1.29s-4.21.21-6.31.1-4.06-.52-6.04-1.29c-.6-.23-.86.73-.27.96h0Z"/></g><g class="cls-9"><path class="cls-7" d="m100.56,58.25c1.55,1.28,3.2,2.22,5.09,2.91s3.96,1.2,6,1.56c4.32.75,8.71.54,13-.31,2.21-.44,4.4-.99,6.35-2.16.55-.33.05-1.2-.5-.86-1.64.99-3.48,1.5-5.35,1.9-2.03.43-4.08.74-6.15.85-4.02.22-8.03-.32-11.87-1.54-2.16-.68-4.11-1.61-5.86-3.07-.49-.41-1.2.3-.71.71h0Z"/></g><g class="cls-9"><path class="cls-7" d="m99.82,60.26c1.53,1.47,3.58,2.36,5.52,3.17,2.13.88,4.34,1.54,6.59,2.05,4.59,1.04,9.32,1.38,14,.93,2.6-.25,5.24-.65,7.75-1.38.62-.18.35-1.14-.27-.96-4.28,1.25-8.93,1.7-13.38,1.51s-8.95-1.06-13.14-2.61c-2.19-.81-4.67-1.77-6.37-3.42-.46-.45-1.17.26-.71.71h0Z"/></g><g class="cls-9"><path class="cls-7" d="m100.62,58.59c.92,2.21,1.86,4.3,3.52,6.06s3.6,3.07,5.66,4.16c4.32,2.3,9.39,3,14.24,2.99,2.96,0,5.91-.43,8.72-1.39.61-.21.35-1.17-.27-.96-4.74,1.62-9.75,1.58-14.65.86-4.45-.66-8.71-2.42-12.08-5.48-.94-.85-1.8-1.81-2.46-2.89-.69-1.14-1.19-2.39-1.7-3.61-.24-.59-1.21-.33-.96.27h0Z"/></g><g class="cls-9"><path class="cls-7" d="m100.19,61.84c2.11,3.96,5.21,7.53,9.06,9.87,1.9,1.15,4.04,2.05,6.13,2.78,1.07.37,2.16.63,3.28.84s2.23.33,3.32-.03c.61-.2.35-1.17-.27-.96-1.07.36-2.14.16-3.22-.05s-2.06-.47-3.06-.83c-2.01-.72-4.05-1.59-5.87-2.72-3.63-2.26-6.52-5.64-8.52-9.39-.3-.57-1.17-.06-.86.5h0Z"/></g><g class="cls-9"><path class="cls-7" d="m99.81,63.1c1.25,2.91,2.74,5.93,4.89,8.28,1.02,1.12,2.22,2.02,3.5,2.82.69.43,1.4.82,2.14,1.14s1.41.42,2.17.58c.63.13.9-.84.27-.96-.74-.15-1.42-.24-2.12-.56s-1.32-.67-1.95-1.06c-1.27-.79-2.44-1.7-3.44-2.82-2.01-2.26-3.41-5.16-4.59-7.92-.25-.59-1.11-.08-.86.5h0Z"/></g><g class="cls-9"><path class="cls-7" d="m98.97,67.03c.76,1.86,1.78,3.52,3.03,5.09.63.79,1.31,1.51,2.15,2.07.43.29.88.54,1.34.79.43.23.85.51,1.33.59.63.11.9-.86.27-.96-.42-.07-.79-.33-1.16-.53-.41-.22-.82-.45-1.21-.71-.79-.52-1.42-1.22-2-1.96-1.13-1.42-2.09-2.96-2.77-4.65-.24-.59-1.21-.33-.96.27h0Z"/></g><g class="cls-9"><path class="cls-7" d="m97.73,69.33c.66,1.18,1.31,2.36,2.14,3.42.4.51.85.99,1.35,1.41s1.11.93,1.77,1.05c.27.05.54-.07.62-.35.07-.24-.08-.57-.35-.62-.55-.1-1.07-.56-1.48-.92-.46-.4-.87-.85-1.23-1.33-.75-.99-1.34-2.09-1.95-3.17-.31-.56-1.18-.06-.86.5h0Z"/></g><path class="cls-3" d="m104.79,100.72c-.78-.75-1.48-1.52-2.09-2.42-.96-1.42-1.96-2.88-2.64-4.45-1.51-3.5-1.38-7.75-1.3-11.49.04-2.04.04-4.06,0-6.1-.03-1.75.2-3.47.37-5.21.35-3.54.76-7.08,1.57-10.54.24-1,.39-2,.36-3.04-.04-1.53-.85-2.55-1.87-3.64-1.07-1.15-2.14-2.42-3.39-3.4-1.31-1.03-2.98-1.8-4.55-2.33s-3.14-.47-4.7-.76c-1.04-.2-2.06-.34-3.13-.23-.77.08-1.54.28-2.29.46-1.07.26-1.48.86-2.08,1.74-1.8,2.63-2.4,6.05-3.67,8.94-.72,1.63-1.25,3.32-1.86,4.99-.76,2.11-1.73,4.19-2.77,6.18-2.01,3.83-4.72,7.39-7.55,10.65-1.8,2.07-3.63,4.1-5.62,5.99-.72.68-1.4,1.4-2.08,2.12-.26.28-.52.59-.81.83-.12.1-.44.24-.52.37-.57.89,3.14,2.19,3.75,2.45,1.24.53,2.55.61,3.87.81,1.5.24,3.03.55,4.48,1.01,1.3.41,2.46.71,3.83.78,2.27.11,4.54.32,6.82.43,4.37.2,8.56,1,12.67,2.56,2.74,1.04,5.51,2,8.29,2.95.86.29,1.73.51,2.61.69.63.13,1.15.03,1.79.01.83-.02,1.66-.46,2.49-.36"/><path class="cls-2" d="m61.96,130.49c-.51.33-1.17,1.15-1.43,2.12-.37,1.37-.01,2.54.95,2.8.62.17,1.33-.06,1.62-.63l1.61-2.67c1.06-1.95,3.43-2.57,5.45-2.02,3.06.84,4.37,3.96,3.61,6.82-.5,1.86-1.71,3.27-3.06,3.95l-1.51-3.3c.43-.21.92-.84,1.12-1.61.3-1.14-.15-2.11-1.12-2.37-.62-.17-1.33.06-1.6.63l-1.61,2.7c-1.06,1.95-3.45,2.57-5.48,2.01-3.01-.82-4.29-4.09-3.47-7.15.58-2.18,1.98-3.89,3.51-4.62l1.4,3.35Z"/><path class="cls-2" d="m71.19,145.25l-2.98,11.14-3.45-.94,2.05-7.66-2.76-.76-1.96,7.31-3.45-.94,1.96-7.31-3.11-.85-2.14,8.01-3.45-.94,3.08-11.49,16.22,4.44Z"/><path class="cls-2" d="m67.27,159.88l-1.91,7.15c-.75,2.79-3.61,4.44-6.37,3.69-2.76-.76-4.38-3.64-3.64-6.43l.98-3.67-6.21-1.7.93-3.48,16.22,4.44Zm-4.38,2.54l-3.11-.85-.98,3.67c-.24.88.24,1.76,1.12,2,.87.24,1.75-.27,1.99-1.15l.98-3.67Z"/><path class="cls-2" d="m63.73,173.12l-3.36,12.54-3.45-.94,1.21-4.53-12.77-3.5.93-3.48,12.77,3.5,1.21-4.53,3.45.94Z"/><path class="cls-2" d="m59.79,187.84l-2.98,11.14-3.45-.94,2.05-7.66-2.76-.76-1.96,7.31-3.45-.95,1.96-7.31-3.11-.85-2.14,8.01-3.45-.94,3.08-11.49,16.22,4.44Z"/><path class="cls-2" d="m55.87,202.46l-1.33,4.97-12.78,1.06,10.49,7.48-1.32,4.95-16.22-4.44.93-3.48,10.12,2.77-9.13-6.49,1.09-4.06,11.05-.96-10.05-2.75.93-3.48,16.22,4.44Z"/><path class="cls-2" d="m50,224.38l-1.92,7.15c-.75,2.79-3.52,4.47-6.14,3.75-.99-.27-1.8-.84-2.42-1.58-1.21.66-2.72.93-4.21.52-2.76-.76-4.38-3.64-3.64-6.43l2.1-7.85,16.22,4.44Zm-11.65,5.23l1.17-4.36-3.22-.88-1.17,4.36c-.24.88.25,1.76,1.12,2,.9.25,1.87-.26,2.1-1.12Zm7.27-2.7l-2.65-.72-.98,3.67c-.24.88.15,1.74.89,1.94.73.2,1.52-.33,1.76-1.21l.98-3.67Z"/><path class="cls-2" d="m45.98,239.43l-2.98,11.14-3.45-.94,2.05-7.66-2.76-.76-1.96,7.31-3.45-.94,1.96-7.31-3.11-.85-2.14,8.01-3.45-.94,3.08-11.49,16.22,4.44Z"/><path class="cls-2" d="m40.14,261.21c-.75,2.79-3.61,4.44-6.37,3.69-2.19-.6-3.66-2.55-3.8-4.7l-2.99.73c-.87.21-1.37,1.07-1.17,1.97l-3.48.84c-.65-2.82,1.04-5.65,3.82-6.33l4.56-1.09.4-1.51-6.21-1.7.93-3.48,16.22,4.44-1.92,7.15Zm-2.47-4.61l-3.11-.85-.98,3.67c-.24.88.24,1.76,1.12,2,.87.24,1.75-.27,1.99-1.15l.98-3.67Z"/></g></g></svg>