<?xml version="1.0" encoding="UTF-8"?><svg id="Layer_2" xmlns="http://www.w3.org/2000/svg" width="185" height="370" xmlns:xlink="http://www.w3.org/1999/xlink" viewBox="0 0 185 370"><defs><style>.cls-1{fill:url(#linear-gradient);}.cls-1,.cls-2,.cls-3,.cls-4,.cls-5,.cls-6,.cls-7,.cls-8{stroke-width:0px;}.cls-2{fill:#d9c38d;}.cls-4{fill:#ab8830;}.cls-5{fill:url(#linear-gradient-2);}.cls-6{fill:#ffefe1;}.cls-7{fill:#694e0a;}.cls-8{fill:#6e5518;}</style><linearGradient id="linear-gradient" x1="96.79" y1="723.95" x2="122.17" y2="815.85" gradientTransform="translate(375.82 -664.76) rotate(30.1)" gradientUnits="userSpaceOnUse"><stop offset="0" stop-color="#96c"/><stop offset="1" stop-color="#c9f"/></linearGradient><linearGradient id="linear-gradient-2" x1="21.45" y1="892.11" x2="20.32" y2="860.7" gradientTransform="translate(275.2 -816.04) rotate(14.19)" gradientUnits="userSpaceOnUse"><stop offset="0" stop-color="#d9c38d"/><stop offset="1" stop-color="#694e0a"/></linearGradient></defs><path class="cls-1" d="m0,.41l.06,369.59L185,50.05S89.9-5.25,0,.41Z"/><path class="cls-6" d="m.34,93.74L.06,370l138.33-239.32S67.45,89.44.34,93.74Z"/><path class="cls-5" d="m74.34,33.05c-2.18-.1-4.13-3.42-6.31-3.32s-4.66.71-6.76,1.32c-1.64.47-5.11.47-6.4,1.65-.75.68.21,5.24.14,6.31-.11,1.56.74,3.07.78,4.62.03,1.02.29,3.1-.76,3.73s-2.23.73-3.32,1.17c-.81.32-1.65.58-2.5.77-2.5.56-4.97,1.22-7.49,1.7-1.07.2-2.13.46-3.12.89s-1.94.53-2.84.99c-1.22.62-1.93,1.56-2.43,2.81-.94,2.37-.96,4.94.47,7.1.52.78,1.13,1.39,1.73,2.1.73.87,1.38,1.79,2.14,2.63.88.96,1.84,1.82,2.88,2.61s2.02,1.74,3.05,2.59c.79.65,1.51,1.39,2.31,2.03.53.43,1.06.82,1.51,1.34.28.33.51.68.65,1.09.19.54.08,1.05.12,1.61.11,1.37.4,2.8.71,4.14.44,1.89,1.25,4.16,2.85,5.42,2.31,1.8,5.01,2.66,7.73,3.63.94.34,1.94.55,2.94.54,1.34-.02,2.6.44,3.9.57,1.19.12,2.42.04,3.62.03s2.43.07,3.65.12c1.32.05,2.54.06,3.84.33,2.05.44,4.08.84,6.11,1.37.82.21,1.61.47,2.46.57,1.48.17,3.17-.04,4.65-.17,3.1-.26,6.31-.24,9.34-.98,2.68-.65,5.48-1.76,7.85-3.05.32-.17.62-.36.91-.58,1.17-.91,2.15-2.09,3.18-3.17s1.73-2.25,2.35-3.54c1.25-2.6,1.66-5.48,2.13-8.32.22-1.3.32-2.62.29-3.94s-.14-2.62-.24-3.92c-.08-1.05-.18-2.09-.24-3.14-.07-1.38-.23-2.74-.53-4.09-.35-1.59-20.31.74-.81-6.22.38-.13.64-.48.66-.88.22-3.51.64-8.46-2.58-11.13-2.94-2.44-7.03-3.4-10.46-4.92-5.18-2.3-10.77-4.37-16.44-4.96-4.9-.51-10.38-3.05-15.3-2.91-2.56.07-5.51.23-7.99.93-1.1.31-2.44-.4-3.44.13-.38.21-1.34.13-1.72.34-.28.15,1.11,2.35.75,2.25"/><path class="cls-2" d="m73.52,32.78c1.16.12.36.05-.1-.25-.18-.12-.35-.25-.52-.38-.44-.33-.86-.69-1.29-1.02-.7-.54-1.42-.97-2.26-1.24-2.18-.72-4.33-.29-6.52.22-1.18.28-2.34.68-3.54.88s-2.3.29-3.42.57c-.61.15-1.65.4-2.04.97s-.22,1.58-.17,2.21c.06.89.19,1.78.29,2.67.1.94.04,1.89.22,2.81.25,1.23.61,2.37.67,3.63.04.94.18,2.21-.49,2.98-.76.88-2.51,1.03-3.57,1.41-1.59.56-3.2.93-4.84,1.32-1.4.33-2.8.67-4.21.96-1.7.35-3.24.84-4.89,1.37-1.05.34-2.08.57-2.95,1.29-1.04.86-1.6,2.16-1.93,3.43-.72,2.84.16,5.21,2.01,7.36.89,1.03,1.7,2.14,2.6,3.16,1.01,1.15,2.18,2.09,3.37,3.04,1.09.88,2.15,1.82,3.2,2.75,1.13.99,2.71,1.99,3.55,3.24.75,1.12.51,2.7.71,3.99.23,1.43.52,2.88,1,4.25.86,2.46,2.37,3.96,4.65,5.17s4.76,2.11,7.2,2.76c1.02.27,2.02.41,3.07.46,1.59.08,3.11.57,4.7.63,2.97.11,5.96-.1,8.93.23,3.15.35,6.15,1.53,9.27,2.05,2.66.45,5.48-.11,8.14-.27,3.12-.19,6.12-.54,9.09-1.54,2.55-.86,5.28-1.9,7.25-3.78,2.14-2.04,4-4.29,5.06-7.08s1.61-6.04,1.84-9.03-.24-6.2-.44-9.27c-.04-.69-.1-1.37-.2-2.05-.06-.45-.04-1.46-.33-1.84-.15-.19-.31-.26-.53-.36-.86-.39-1.89-.55-2.82-.67-1.02-.12-2.04-.17-3.07-.23-.92-.06-2-.34-2.91-.28-.31.02.34,0,.3.08,0-.01-.23-.13-.23-.19,0-.28-.08-.33.1-.62.56-.89,2.12-1.41,3.01-1.82,1.05-.47,2.12-.9,3.19-1.3,1.14-.43,2.7-.56,2.85-1.97.22-2.15.28-4.46-.19-6.58-1.11-5.06-6.25-6.67-10.56-8.29-5.35-2.02-10.44-4.42-16.06-5.65-2.98-.65-6-.87-8.95-1.64-2.59-.67-5.16-1.43-7.81-1.8s-5.22-.21-7.78.1c-1.38.16-2.87.77-4.25.69-.51-.03-1.01-.16-1.53-.14-.54.02-.98.24-1.51.34-.81.15-1.44-.08-1.11.83.05.13.75,1.61.67,1.63.3-.05,1.29.64,1.85.55h.05s.03-.02.04-.02c.08-.41-.44-1.08-.59-1.44-.05-.12-.33-.6-.24-.75.17-.3,1.16-.22,1.48-.29.57-.12,1.02-.3,1.64-.26.45.04.9.13,1.35.12,1.32-.04,2.68-.55,4-.71,2.9-.35,5.85-.47,8.72.1,2.64.53,5.21,1.37,7.84,1.95,2.78.61,5.63.77,8.39,1.5,3.18.84,6.25,2.07,9.27,3.39,4.23,1.85,10.73,2.94,12.69,7.7.79,1.92.85,4.06.78,6.11-.03.77.12,2.07-.26,2.76-.32.57-1.22.71-1.81.93-.64.24-1.28.48-1.91.73-.72.29-5.8,1.91-5.3,3.3.19.53,1.35.73,1.78.85.88.24,1.78.39,2.69.49.98.1,1.96.15,2.94.22.45.03.91.06,1.36.1.26.02.87.21,1.11.13l-.75-.22s.03.01.04.02c0,0,.09.06.09.08-.02.26.16.69.21.97.26,1.5.32,3.02.44,4.54.23,2.92.6,5.86.22,8.79-.35,2.73-.81,5.58-1.81,8.15s-2.71,4.61-4.65,6.55-4.8,3.16-7.49,4.07-5.66,1.33-8.62,1.51c-3.14.19-6.36.8-9.44,0-2.53-.66-5.14-1.33-7.73-1.68s-5.18-.35-7.72-.31c-1.66.03-3.19-.17-4.82-.45s-3.17-.33-4.73-.89c-2.62-.94-5.72-2.07-7.26-4.56-1.32-2.14-1.86-4.98-2.1-7.45-.12-1.23,0-2.2-.84-3.2s-2.03-1.77-2.99-2.64c-2.06-1.86-4.37-3.47-6.3-5.45-.89-.92-1.64-1.96-2.45-2.94-.98-1.18-2.06-2.25-2.58-3.73-.79-2.26-.37-5.22,1.12-7.12.81-1.03,1.93-1.49,3.15-1.86,1.46-.44,2.85-1,4.35-1.31,2.85-.58,5.76-1.15,8.55-1.97,1.23-.36,2.48-.77,3.69-1.19.96-.34,1.61-.71,1.83-1.76.49-2.31-.68-4.4-.75-6.66-.05-1.62-.33-3.22-.4-4.85-.02-.53-.12-1.32.2-1.79.52-.76,1.94-.95,2.76-1.11.96-.18,1.94-.27,2.9-.45,1.24-.23,2.44-.65,3.68-.93s2.58-.6,3.85-.56c-.33-.01-.78-.44,0,.12.17.12.35.24.52.36.49.36.94.75,1.42,1.12,1.27.97,2.67,1.55,4.27,1.72.4.04-.27-.21-.31-.23-.42-.16-.89-.27-1.33-.32h0Z"/><path class="cls-8" d="m65.27,48.5c.09,1.26,0,2.57-.3,3.64-.34.98-1.44,3.21-2.14,3.82-1.12.92-2.47,1.47-3.5,2.5-.51.63-1.16,1.16-1.43,1.96-1.02,2.55-.24,5.4,1.11,7.06.34.59.52,1.59.67,2.54.1.41.07.88.23,1.26.14.22.5.18.62-.06.12-.33,0-.33-.02-.76-.18-1.17-.3-2.41-.87-3.43-1.13-1.39-1.75-3.52-1.34-5.32.13-.6.42-1.35.52-1.48.57-.63,1.11-1.36,1.58-1.68,1.41-.95,2.98-1.73,3.98-3.22.58-.81,1.1-1.73,1.39-2.69.22-.87.22-1.76.18-2.64-.03-.31.03-.69-.14-.95-.19-.21-.55-.83-.54-.53"/><path class="cls-8" d="m94.27,79.83c-.98-2.31-3.32-3.96-4.99-5.25-1.21-.98-2.49-2.76-3.32-3.61-.83-1.28-.94-2.42-.57-3.84.36-1.22.75-2.18,1.13-3.18.07-.39-.52-.59-.7-.23-1.2,2.81-2.42,5.95.16,8.41.88.96,1.62,2.05,2.63,2.88,1.56,1.24,3.27,2.44,4.34,4,1.14,1.58,1.19,3.73.96,5.47-.4,2.72-2.26,5.2-4.53,6.52-.91.54-2.05,1.1-2.77,1.38-1.18.32-2.31.78-3.4,1.32-.61.27-1.21.57-1.8.87.18.05.36.11.54.16.18.05.37.09.55.14,1.31-.64,2.5-1.23,3.83-1.61,2.36-.79,4.64-2.09,6.25-4.02.79-1.08,1.43-2.28,1.87-3.55.42-1.91.49-3.98-.19-5.85Z"/><path class="cls-8" d="m72.88,93.59s.08-.09.16-.1c.01,0,.02,0,.03,0,.04-.08.12-.13.25-.12.14.01.27.02.41.03-.63-.7-1.25-1.4-1.97-2-1.47-.99-2.32-2.31-3.51-3.9-.77-1.36-1.07-3.44-.33-4.75.65-1.48,2.32-1.97,3.66-3.27.68-.84,1.52-1.65,1.87-2.7.3-.85.26-1.79.17-2.68-.07-.26,0-.63-.26-.79-.26-.16-.6.11-.51.4.19.86.16,2.51-.21,3.15-.43.81-1.67,2.29-2.37,2.76-1.29.78-2.62,1.67-3.19,3.14-.62,1.53-.3,3.34.35,4.81.6,1,1.39,1.89,2.09,2.83,1,1.16,2,1.58,2.98,2.75.13.15.27.3.4.45Z"/><path class="cls-4" d="m64.4,39.24c-.87-1.32-2-2.5-3.47-3.13-2.08-.74-4.29-1.12-6.5-1.15-.43,0-.42.68.01.67,2.86.14,6.34.53,8.28,2.59.64.72.93,1.14,1.5,1.91.04.06.05.07.05.07.16.19.51.13.57-.13.04-.32-.3-.55-.44-.82Z"/><path class="cls-4" d="m70.6,46.55c-.48-1.87-1.03-3.75-2.03-5.41-.82-1.42-1.86-2.39-2.75-3.62-.61-.79-1.14-1.66-1.93-2.29-.96-.72-2.15-1.05-3.26-1.45-.7-.15-1.88-.67-2.5-.63-.19.11-.15.42.07.47,1.91.54,3.64.95,5.25,1.93.53.4,1.16,1.2,1.62,1.88.87,1.19,1.85,2.23,2.6,3.3.97,1.47,1.5,2.78,2,4.46.16.58.34,1.16.48,1.74.02.07.06.12.12.16.39.15.45-.26.32-.55Z"/><path class="cls-4" d="m69.04,35.85c-1.03-1.78-2.37-3.63-4.04-4.85-.22-.09-.43-.31-.68-.3-.18.05-.21.31-.05.39.81.38,1.37.91,1.96,1.6.9,1.05,1.7,2.06,2.42,3.27.1.18.4.1.39-.11Z"/><path class="cls-4" d="m76.26,52.04c.13-2.74.2-5.51-.13-8.23-.82-3.2-2.15-6.27-3.84-9.1-.68-1.17-1.49-2.31-2.53-3.19-.77-.58-1.65-1.34-2.7-1.78-.25-.04-.37.32-.14.44,1.46.78,2.68,1.66,3.76,3.01,1.46,1.97,2.59,4.18,3.45,6.29.61,1.5,1.2,3.04,1.53,4.63.19,1.86.22,4.52.16,6.65-.03.66-.06,1.31-.09,1.97,0,.07.03.13.07.17.55.33.42-.55.46-.86Z"/><path class="cls-4" d="m75.79,31.91c-.27-.32-.46-.7-.77-.93-.17-.05-.33.16-.23.31,1.67,1.89,2.31,4.55,2.52,7.06,0,.2.29.28.39.1-.09-2.25-.66-4.64-1.91-6.54Z"/><path class="cls-4" d="m81.47,37.31c-.06-.85-.13-1.7-.29-2.54-.1-.3-.03-.72-.25-.96-.15-.09-.36.07-.3.24.25,1.28.37,2.3.44,3.65,0,.13.14.24.27.2.24-.08.12-.39.13-.58Z"/><path class="cls-4" d="m93.28,33.29c-1.99,1.38-3.75,3.1-5.23,5.01-.72,1.12-1.24,2.36-1.83,3.55-2.87,5.9-4.31,12.39-4.88,18.91,0,.49-.15,1.17.03,1.6.65.37.37-.82.44-1.15.54-6.34,2.04-13.21,4.86-18.98.59-1.21,1.13-2.45,1.83-3.59.69-.94,1.89-2.22,2.93-3.17.76-.69,1.5-1.26,2.2-1.76.19-.22-.11-.57-.36-.4Z"/><path class="cls-4" d="m97.19,36.09c-2.19.58-4.07,2.13-5.5,3.85-1.23,1.81-2.46,3.67-3.41,5.65-.03.16.15.3.3.25.21-.1.25-.39.38-.57,1.73-3.03,3.28-6.06,6.29-7.83.67-.42,1.31-.72,2.07-.9.29-.08.16-.55-.13-.46Z"/><path class="cls-4" d="m80.72,41.24c-.05-.58.03-1.22-.13-1.77-.11-.12-.33-.03-.32.14.12,1.72.09,3.44.09,5.17,0,.12.12.21.24.18.08-.02.14-.1.13-.18,0-1.18,0-2.35,0-3.53Z"/><path class="cls-4" d="m103.09,37.22c-2.65.55-4.9,2.2-6.64,4.23-.1.21.2.41.36.24.67-.64,1.47-1.5,2.07-2.02,1.04-.75,2.1-1.34,3.27-1.72.33-.17.98-.19,1.19-.4.1-.17-.07-.39-.26-.33Z"/><path class="cls-4" d="m95.15,42.95c-3.64,2.69-6.09,6.72-7.73,10.88-.03.17.18.31.33.22.13-.1.15-.29.23-.42,1.41-3.41,3.27-6.52,5.9-9.03.53-.52,1.01-.86,1.57-1.31.15-.18-.09-.46-.29-.33Z"/><path class="cls-4" d="m86.54,48.25c-.42.85-.72,1.74-1.02,2.64-.03.16-.17.32-.09.48.05.08.17.11.25.06.31-.58.58-1.68.77-2.1.11-.35.37-.68.42-1.04-.04-.15-.26-.18-.33-.04Z"/><path class="cls-4" d="m112.62,40.32c-2.4,1.09-4.97,2.1-7.03,3.73-.05.19.18.37.35.26,1.51-1,3.11-1.85,4.75-2.61.73-.32,1.45-.64,2.18-.96.05-.03.09-.09.11-.15.06-.2-.18-.38-.36-.27Z"/><path class="cls-4" d="m115.18,42.45c-2.66,1.29-5.89,2.28-8.73,3.62-4.71,2.3-9.15,5.17-13.01,8.73-.11.1-.08.3.05.37.26.12.44-.22.63-.34,4.33-3.9,9.35-6.98,14.68-9.3,1.94-.75,4.53-1.69,6.61-2.69.25-.14.02-.55-.23-.39Z"/><path class="cls-4" d="m107.28,38.13c-2.51,1.86-5.29,3.62-7.19,6.13,0,.19.25.29.38.15,1.11-1.3,2.78-2.75,3.92-3.65,1.06-.76,2.14-1.51,3.18-2.3.16-.18-.09-.47-.3-.33Z"/><path class="cls-4" d="m95.32,48.3c-2.48,2.83-5.83,5.07-7.49,8.51.09.25.37.15.45-.05.68-1.01,1.19-1.85,1.9-2.7,1.54-1.69,3.28-3.18,4.85-4.84.19-.26.53-.47.63-.78,0-.17-.23-.27-.35-.14Z"/><path class="cls-4" d="m98.25,45.93c-.24-.06-.33.31-.09.37.24.06.33-.31.09-.37Z"/><path class="cls-4" d="m98.92,45.26c-.32.29-.71.54-.97.88-.05.1,0,.23.1.29.21.12.36-.13.51-.25.23-.24.55-.4.75-.67.11-.23-.22-.44-.39-.26Z"/><path class="cls-4" d="m103.31,45.42c-.96.54-1.92,1.07-2.86,1.65-.18.07-.18.35.02.4,1.05-.43,2.03-1.17,3.07-1.67.24-.14.02-.52-.22-.37Z"/><path class="cls-4" d="m85.83,59.2c-.62,1.47-.96,3.04-1.42,4.57-.03.12.07.24.19.24.08,0,.16-.06.18-.14.38-1.31.73-2.64,1.16-3.94.05-.18.17-.38.24-.61.03-.2-.26-.29-.35-.12Z"/><path class="cls-4" d="m117.73,47.66c-1.97.24-3.94.49-5.84,1.1-.81.23-1.63.46-2.46.64-.11.02-.23.04-.28.15-.11.19.08.44.29.37,1.91-.4,3.74-1.11,5.68-1.41.57-.11,1.9-.22,2.71-.37.25-.09.16-.5-.1-.48Z"/><path class="cls-4" d="m114.95,46.48c-1.41-.04-2.79.39-4.09.88-.16.04-.19.28-.04.36.92-.17,2.06-.71,2.98-.79.41-.12.94.02,1.3-.12.12-.12.03-.35-.15-.34Z"/><path class="cls-4" d="m106.54,49.3c-2.17,1.17-4.26,2.6-6.15,4.16-.05.18.16.34.32.24,1.49-1.09,2.97-2.21,4.54-3.18.48-.35,1.23-.56,1.61-.98.05-.18-.16-.34-.32-.24Z"/><path class="cls-4" d="m107.68,53.51c-1.7.42-3.35,1.2-4.84,2.13-.66.46-1.45.83-1.99,1.42-.05.17.15.32.3.23,2.02-1.54,4.24-2.7,6.54-3.36.2-.05.2-.36,0-.41Z"/><path class="cls-4" d="m117.43,50.97c-1.13.22-2.24.55-3.34.89-.26.06-.63.2-.33.48.95-.1,1.9-.57,2.86-.75.33-.12.78-.07,1.05-.3.1-.16-.07-.38-.25-.32Z"/><path class="cls-4" d="m73.35,56.09c-.69-2.41-1.48-4.8-2.45-7.12-.09-.33-.6-.18-.5.15.67,1.64,1.3,3.3,1.82,5,.28.68.4,1.69.76,2.27.19.11.43-.08.36-.29Z"/><path class="cls-4" d="m74.88,64.88c-.37-1.99-.8-3.97-1.32-5.92-.04-.11-.04-.25-.15-.32-.15-.09-.34.06-.29.23.62,2.04.9,4.23,1.47,6.24.14.09.34-.06.29-.23Z"/><path class="cls-4" d="m77.23,74.75c-.36-2.17-.89-4.31-1.44-6.43-.12-.28-.12-.64-.32-.87-.14-.08-.32.06-.27.21.7,2.36,1.23,4.78,1.67,7.2.23,2.22.33,5.09.36,7.53.01.1-.02.22.06.3.11.11.32.03.31-.13-.03-2.61-.07-5.22-.36-7.82Z"/><path class="cls-4" d="m65.41,42.74c-.17-.05-.31.15-.22.3.12.16.27.54.51.33.17-.16-.14-.56-.29-.63Z"/><path class="cls-4" d="m68.8,49.45c-.16-.35-.31-.7-.46-1.05,0,0,0,0,.01.02-.18-.35-.25-.78-.49-1.08-.16-.1-.37.07-.31.25.27.67.56,1.34.86,2,.04.16.24.24.36.11.07-.07.08-.18.03-.25Z"/><path class="cls-4" d="m72.99,61.59c-.21-1.05-.54-2.07-.86-3.09-.5-1.53-.7-3.14-1.35-4.62-.37-.92-.69-1.87-1.06-2.79-.11-.16-.39-.02-.33.17.5,1.4,1.08,2.77,1.55,4.18.29,1.19.56,2.38.94,3.54.29.89.56,1.79.75,2.71.03.1.13.16.23.13.1-.03.16-.13.13-.23Z"/><path class="cls-4" d="m73.82,67.65c-.02-.08-.03-.17-.1-.21-.13-.08-.3.06-.25.2.05.18.05.58.33.45.16-.1.05-.29.03-.44Z"/><path class="cls-4" d="m65.8,59.97c-.3-.72-.61-1.43-.94-2.14-.14-.24-.51-.02-.36.22.19.41.54,1.19.63,1.39.17.38.32.78.5,1.15.08.12.27.1.34-.02.08-.2-.11-.4-.16-.6Z"/><path class="cls-4" d="m68.18,65.61c-.25-.72-.51-1.44-.78-2.15-.14-.33-.25-.68-.41-1-.03-.04-.08-.07-.13-.07-.13-.02-.25.12-.21.25.42,1.02.8,2.04,1.16,3.08.03.12.18.18.28.11.07-.04.11-.14.09-.22Z"/><path class="cls-4" d="m68.64,67.29c-.11-.15-.36-.02-.31.16.16.73.31,1.46.47,2.19.04.15.25.17.32.04-.06-.78-.3-1.61-.48-2.38Z"/><path class="cls-4" d="m63.42,61.32c-.15-.12-.36.07-.26.23.11.16.17.54.43.42.22-.16-.07-.49-.17-.65Z"/><path class="cls-4" d="m65.48,65.56c-.18-.34-.37-.68-.56-1.01-.12-.21-.44-.01-.32.19.22.34.38.73.61,1.06.07.06.18.05.24-.02.06-.06.07-.15.03-.22Z"/><path class="cls-4" d="m66.27,67.15c-.34-.09-.48.45-.13.53.34.09.48-.45.13-.53Z"/><path class="cls-4" d="m86.8,34.66c-.04-.16-.28-.19-.35-.04-.53,1.3-1,2.63-1.53,3.94-.05.3-.85,1.6-.16,1.41.73-1.57,1.27-3.28,1.93-4.9.01-.03.02-.06.04-.09.03-.1.11-.2.08-.31Z"/><path class="cls-4" d="m84.06,42.94c.02-.19.15-.4.09-.59-.07-.13-.28-.1-.31.05-.72,3.16-1.69,6.26-2.15,9.48-.05.18.19.32.32.18.53-3.06,1.32-6.09,2.04-9.12Z"/><path class="cls-4" d="m80.83,60.21c.03-.51.13-1.46.17-1.75.1-.93.24-1.86.34-2.78-.02-.19-.32-.21-.36-.02-.18,1.43-.39,2.86-.51,4.3.04.27-.25,1.02.19.97.25-.12.11-.5.17-.72Z"/><path class="cls-4" d="m78.33,45.76c0-.25-.4-.25-.39,0,.32,1.92.19,3.97.36,5.47.12.12.34.03.33-.14,0-1.78-.06-3.57-.3-5.34Z"/><path class="cls-4" d="m78.76,54.56c-.03-.18.05-.41-.06-.56-.11-.12-.33-.02-.32.14.02.52,0,1.05.03,1.56.04.12.22.15.3.06.14-.36.02-.8.05-1.19Z"/><path class="cls-4" d="m78.75,59.67c-.04-.29.05-.63-.08-.88-.11-.11-.32-.02-.31.13.02,1.07.14,2.14.16,3.21,0,.12.12.2.23.17.08-.02.13-.1.13-.18-.01-.82-.08-1.64-.13-2.46Z"/><path class="cls-4" d="m79.22,71.98c-.05-.97,0-1.95-.04-2.92-.06-.99-.09-1.99-.16-2.98-.07-.18-.36-.12-.35.08.13,2.12.16,4.23.18,6.35,0,.21-.14.65.21.6.28-.17.11-.82.15-1.13Z"/><path class="cls-4" d="m79.28,79.05c-.07-.49.03-1.05-.15-1.51-.12-.13-.35-.03-.35.15.1,1.53.22,3.06.29,4.59,0,.13.13.22.25.18.08-.02.14-.11.14-.19-.03-1.07-.13-2.15-.19-3.22Z"/><path class="cls-4" d="m85.58,55.46c-.05-.19-.33-.22-.42-.05-.83,1.77-1.54,3.6-2.13,5.46-.29.94-.74,1.85-.8,2.85,0,.96-.08,1.69-.22,2.57.01.15.22.22.32.1.09-.13.07-.31.11-.46.16-.78.13-1.62.2-2.38.64-2.53,1.73-5.16,2.67-7.42.07-.22.28-.43.26-.67Z"/><path class="cls-4" d="m82.09,69.04c-.06-.16-.32-.11-.31.07-.01.28-.1.57-.07.85.04.12.23.13.29.02.05-.3.11-.63.09-.93Z"/><path class="cls-4" d="m82.61,76.64c.14-1.23.23-2.1.45-3.41.08-.72.32-1.46.28-2.18-.09-.17-.37-.13-.41.06-.27,2.05-.71,4.24-.8,6.08.06.1.2.14.3.08.18-.14.12-.43.18-.63Z"/><path class="cls-4" d="m82.23,82.06c0-.23-.36-.22-.36,0-.05.91-.1,1.82-.14,2.73,0,.15.2.23.31.12.17-.92.1-1.91.2-2.85Z"/><path class="cls-4" d="m91.85,73.64c-.27-.56-.47-1.15-.88-1.63-.43-.42-1.18-1.18-1.4-1.49-.52-.67-.88-1.11-1.35-1.76-.13-.15-.2-.39-.39-.47-.17-.05-.33.16-.23.31.98,1.39,1.83,2.52,3.07,3.7.39.36.62,1.42.98,1.72.22.05.33-.22.2-.38Z"/><path class="cls-4" d="m93.19,72.92c-1.05-1.04-1.98-2.3-3.27-3.04-.2-.03-.3.26-.12.36,1.19.75,2.12,2,3.18,3,.19.09.36-.18.21-.32Z"/><path class="cls-4" d="m96.12,74.64c-.57-.96-1.16-1.93-1.9-2.76-.64-.68-1.29-1.36-2.02-1.93-.19-.09-.37.18-.21.33,1.58,1.31,2.8,2.8,3.79,4.57.13.23.49.02.35-.21Z"/><path class="cls-4" d="m96.85,76.36c-.17-.14-.42.09-.3.27.07.14.12.37.32.34.31-.06.12-.46-.02-.61Z"/><path class="cls-4" d="m99.11,82.28c-.31-1.2-.67-2.41-1.13-3.56-.13-.18-.44-.03-.37.19.84,2.24,1.58,4.41,1.51,6.77.07.18.36.12.35-.08.01-1.12-.03-2.25-.36-3.32Z"/><path class="cls-4" d="m93.81,75.3c-.18-.23-.4-.72-.68-.78-.18,0-.28.24-.14.36.22.26.4.51.63.89.04.07.13.12.21.1.32-.08.1-.4-.01-.57Z"/><path class="cls-4" d="m96.15,80.08c-.21-.58-.46-1.14-.73-1.7-.13-.23-.5-.02-.36.21.29.58.45,1.01.73,1.67.05.07.14.1.22.07.11-.03.17-.15.14-.26Z"/><path class="cls-4" d="m96.61,81.75c0-.27-.43-.27-.42,0,.07.88.07,1.77.08,2.66,0,.18.23.27.35.14.16-.89.01-1.88,0-2.8Z"/><path class="cls-4" d="m86.88,68.67c-.18-.24-.24-.61-.5-.76-.17-.05-.32.15-.22.3.18.3,1.91,3.51,2.12,2.52-.42-.69-1-1.28-1.4-2.05Z"/><path class="cls-4" d="m101.9,72.74c-.08-.22-.42-.07-.3.13.08.22.42.07.3-.13Z"/><path class="cls-4" d="m102.37,75.72c-.33-1.61-.87-3.16-1.35-4.73-.08-.29-.54-.16-.45.13.38,1.2.76,2.41,1.11,3.62.14.37.12.97.36,1.24.17.1.4-.07.33-.26Z"/><path class="cls-4" d="m102.87,78.34c0-.26-.41-.26-.41,0,.13.91.25,1.83.24,2.75.01.16-.07.35.04.48.07.08.21.07.28,0,.23-1.04-.06-2.18-.16-3.23Z"/><path class="cls-4" d="m102.42,83.41c-.56,2.69-1.94,5.08-3.67,7.34-.18.15-.1.47.16.35.99-1.32,1.99-2.67,2.65-4.21.18-.24,1.85-4.36.85-3.48Z"/><path class="cls-4" d="m116.79,76.94c-1.75,1.34-3.86,3.03-4.36,5.04.21.41.52.07.6-.23.39-1.17,1.43-2.31,2.58-3.26.55-.5.99-.81,1.48-1.21.16-.19-.09-.47-.3-.33Z"/><path class="cls-4" d="m111.34,82.97c-.19.22.17.49.32.24.19-.22-.17-.49-.32-.24Z"/><path class="cls-4" d="m110.4,84.62c-.21-.06-.29.28-.08.33.21.06.29-.28.08-.33Z"/><path class="cls-4" d="m109.03,86.96c-.17.42-.36.82-.52,1.24,0,.05,0,.1.04.13.07.1.24.09.3-.02.17-.39.33-.78.5-1.17.12-.2-.2-.38-.31-.18Z"/><path class="cls-4" d="m113.83,77.92c-1.91.78-3.65,1.95-5.08,3.44-.62.52-1.01,1.23-1.44,1.9-.04.05-.05.13-.03.19.11.29.4.11.41.03,1.35-1.99,3.16-3.51,5.4-4.67.37-.24.69-.24,1.03-.52.11-.19-.08-.44-.29-.37Z"/><path class="cls-4" d="m106.73,84.29c-.16.19.15.42.27.2.16-.19-.15-.42-.27-.2Z"/><path class="cls-4" d="m105.78,86.44c-.34-.09-.48.45-.13.53.34.09.48-.45.13-.53Z"/><path class="cls-4" d="m110.79,76.56c-1.02.46-2.07.99-2.89,1.76-.7.64-1.42,1.83-1.72,2.24-.09.19.11.4.3.34.17-.07.26-.27.38-.4.68-.96,1.05-1.6,2.03-2.29.72-.44,1.55-.91,2.14-1.16.24-.17.03-.58-.25-.49Z"/><path class="cls-4" d="m105.91,81.23c-.34-.09-.48.45-.13.53.34.09.48-.45.13-.53Z"/><path class="cls-4" d="m108.75,75.67c0-.21-.28-.33-.43-.17-1.24,1.18-2.72,2.42-3.25,4.08.21.41.5.07.61-.22.5-1.09,1.27-1.83,2.17-2.74.27-.26.54-.52.83-.77.05-.05.07-.11.07-.18Z"/><path class="cls-4" d="m104.65,80.55c-.34-.09-.48.45-.13.53.34.09.48-.45.13-.53Z"/><path class="cls-4" d="m106.47,74.84c-.05-.2-.34-.23-.44-.05-.52.77-1.06,1.55-1.37,2.42-.18.7-.68,1.93-.67,2.16.03.13.18.2.3.17.25-.12.25-.47.37-.69.34-.96.44-1.7.96-2.51.26-.44.53-.88.83-1.3.03-.06.04-.12.02-.18Z"/><path class="cls-4" d="m104.77,80.42c-.03-.29-.47-.31-.53-.03-.18.77-.38,1.53-.62,2.29-.03.13-.12.26-.1.4.02.19.25.29.41.19.23-.22.23-.6.35-.88.17-.65.4-1.31.49-1.97Z"/><path class="cls-4" d="m98.86,73.59c-.37-.81-.77-1.63-1.26-2.36-.2-.17-.51.1-.37.33.51.9,1.08,1.92,1.35,2.72.1.19.09.47.27.6.12.07.28.02.35-.1.09-.34-.23-.85-.34-1.19Z"/><path class="cls-4" d="m100.89,80.71c.06-.7.16-1.41-.04-2.09-.24-.67-.38-1.57-.75-2.16-.18-.11-.42.08-.35.28.27.79.64,1.83.72,2.45.08.54-.08,1.09-.03,1.62.09.24.46.15.45-.1Z"/><path class="cls-4" d="m100.64,82.47c-.1-.11-.3-.02-.29.13-.06,1.39-.62,3.21-1.16,4.42-.07.22-.48.76-.02.75.62-.98.95-2.23,1.27-3.37.08-.54.32-1.44.2-1.93Z"/><path class="cls-4" d="m51.16,81.51c-.59-.91-1.33-1.77-2.33-2.24-.9-.49-1.75-1.1-2.63-1.6-.3-.05-.45.4-.18.54.97.71,2.45,1.48,3.21,2,.71.55,1.03,1.03,1.52,1.67.24.2.59-.14.4-.38Z"/><path class="cls-4" d="m51.68,80.2c-.05-.22-.29-.33-.43-.5-.48-.49-1.02-.95-1.6-1.32-.12-.06-.26-.18-.39-.07-.11.08-.1.27.02.33.69.38,1.27.93,1.86,1.51.11.09.19.25.34.25.1,0,.2-.1.19-.2Z"/><path class="cls-4" d="m55.42,84.81c-.01-.12-.11-.2-.16-.3-.43-.73-1.09-1.39-1.43-1.89-.48-.64-.98-1.29-1.52-1.87-.19-.09-.38.19-.22.33.87,1.02,1.66,2.1,2.53,3.1.21.25.33.62.59.81.11.03.22-.06.22-.18Z"/><path class="cls-4" d="m56.7,86.6c-.12-.2-.43-.01-.31.19.22.26.33.65.59.85.57,0-.19-.8-.28-1.03Z"/><path class="cls-4" d="m54.86,80.29c-.02-.17-.2-.27-.29-.41-.9-.8-1.73-1.71-2.74-2.37-.24-.14-.45.24-.21.37.96.63,2.04,1.75,2.95,2.61.13.07.3-.06.29-.2Z"/><path class="cls-4" d="m56.97,83.55c-.28-.39-.52-.8-.78-1.21-.2-.28-.39-.58-.61-.85-.03-.03-.08-.04-.13-.03-.12.01-.18.16-.12.26.53.69.94,1.46,1.45,2.16.1.18.31.43.45.14.02-.18-.18-.31-.26-.46Z"/><path class="cls-4" d="m58.08,85.01c-.34-.09-.48.45-.13.53.34.09.48-.45.13-.53Z"/><path class="cls-4" d="m58.77,86.32c-.04-.24-.39-.21-.34.04.04.24.39.21.34-.04Z"/><path class="cls-4" d="m68.98,78.73c-.79.48-1.29.95-1.93,1.43-.29.17-1.16.87-1.31,1.5-.04.08-.04.18.02.25.18.22.41,0,.46-.21.13-.29.21-.4.43-.62.41-.36,1.38-1.06,1.7-1.33.27-.26.85-.49.98-.75.06-.2-.18-.39-.36-.27Z"/><path class="cls-4" d="m65.69,82.24c-.34-.09-.48.45-.13.53.34.09.48-.45.13-.53Z"/><path class="cls-4" d="m65.53,82.82c-.07-.12-.27-.09-.3.04-.2.58-.38,1.17-.5,1.77-.03.11.06.23.18.23.08,0,.15-.06.17-.14.08-.4.18-.79.29-1.19.04-.24.22-.49.16-.72Z"/><path class="cls-4" d="m64.74,88.58c-.11-.55.14-1.16-.02-1.68-.11-.12-.33-.03-.32.14-.08.81-.08,1.71.08,2.36.04.31.05.62.1.92.05.15.28.16.35.02.05-.57-.14-1.26-.2-1.76Z"/><path class="cls-4" d="m64.91,78.81c-.97.95-1.73,2.08-2.18,3.36-.02.09.04.18.11.23.25.13.36-.16.43-.35.19-.42.31-.8.47-1.13.41-.65.68-.97,1.17-1.53.1-.15.32-.25.34-.44,0-.18-.23-.27-.35-.14Z"/><path class="cls-4" d="m62.78,82.82c-.34-.09-.48.45-.13.53.34.09.48-.45.13-.53Z"/><path class="cls-4" d="m62.67,83.87c-.34-.09-.48.45-.13.53.34.09.48-.45.13-.53Z"/><path class="cls-4" d="m62.69,85.86c.01-.29.12-.63-.01-.89-.11-.11-.31-.02-.31.13.05.43-.12.89-.06,1.21.05.08.16.11.24.06.15-.12.09-.35.14-.51Z"/><path class="cls-4" d="m62.18,80.17c.22-.46.38-.66.63-.96.12-.26-.25-.5-.44-.29-.83.8-1.12,2.25-1.21,3.11-.05.51-.33,1.28-.1,1.74.15.16.44.03.43-.19,0-.35.01-.33.03-.53.18-.96.31-2.22.65-2.89Z"/><path class="cls-4" d="m61.73,87.29c-.18-.77-.23-1.35-.31-2.22-.01-.13.04-.28-.06-.38-.12-.13-.36-.03-.35.15.03,1,.1,1.53.26,2.41.04.11.04.26.15.33.18.11.39-.1.31-.29Z"/><path class="cls-4" d="m61.86,88.28c-.34-.09-.48.45-.13.53.34.09.48-.45.13-.53Z"/><path class="cls-4" d="m59.21,81.06c-.18-.71-.76-1.84-.96-2.24-.07-.14-.07-.34-.21-.44-.18-.11-.42.08-.35.28.21.65.62,1.27.78,1.74.15.4.28.8.39,1.21.04.15.23.23.36.14.25-.16.03-.47,0-.69Z"/><path class="cls-4" d="m57.55,80.03c-.16-.27-.32-.54-.49-.81-.19-.24-.3-.59-.56-.74-.19-.05-.35.17-.25.34.33.47.63.95.92,1.44.06.1.2.14.3.08.1-.06.14-.2.08-.3Z"/><path class="cls-4" d="m56.16,77.98c-.34-.09-.48.45-.13.53.34.09.48-.45.13-.53Z"/><path class="cls-4" d="m58.69,83.1c-.49-1.36-1.78-2.49-2.66-3.39-.26-.36-.58-.75-.79-1.01.12-.01.24-.03.37-.04.25,0,.24-.4,0-.39-.22.05-.47.02-.68.11-.44.29.18.79.28.97,1.02,1.53,2.26,2.17,2.95,3.75.11.17.13.45.34.53.41.02.31-.34.2-.53Z"/><path class="cls-4" d="m60.51,81.05c.13-.75.3-1.5.37-2.27,0-.16.09-.36-.04-.49-.13-.14-.39-.03-.38.16-.08,1.03-.3,2-.51,3.15-.04.14.08.28.22.28.34-.06.23-.58.34-.84Z"/><path class="cls-4" d="m52.44,79.02c-.25-.26-.5-.54-.74-.82-.2-.21-.52.12-.31.32.27.28.51.62.82.86.05.03.12.02.17,0,.14-.05.18-.26.07-.36Z"/><path class="cls-4" d="m36.46,59.83c-.2-.77-.6-1.47-.97-2.17-.37-.73-.72-1.49-1.27-2.11-.74-.81-1.56-1.55-2.46-2.18-.14-.11-.33-.25-.49-.1-.16.11-.13.37.03.46.95.65,2.21,1.74,2.86,2.66.69,1.18,1.37,2.36,1.79,3.48.03.38.59.35.51-.05Z"/><path class="cls-4" d="m32.14,55.04c-.55-.38-1.14-.72-1.75-1.02-.22-.06-.45-.27-.68-.17-.17.1-.13.38.06.42.54.17,1.6.8,2.11,1.16.68.56,1.11,1.24,1.57,2.04.07.12.11.28.21.37.14.12.38,0,.37-.19-.41-.99-1.07-1.94-1.9-2.62Z"/><path class="cls-4" d="m38.11,57.82c-.32-.94-.92-1.6-1.41-2.27-.4-.53-.73-1.11-1.2-1.58-.47-.38-1.04-.65-1.61-.83-.35-.17-.65.24-.27.42.66.15,1.52.61,1.86,1.12.6.91,1.62,2.14,1.98,2.91.37.99.75,1.97,1.13,2.95.06.24.43.24.48,0-.2-.92-.69-1.8-.97-2.71Z"/><path class="cls-4" d="m39.74,62.54c-.11-.29-.17-.61-.3-.89-.12-.18-.42-.02-.35.18.11.29.18.61.31.89.04.07.14.09.21.07.1-.03.17-.14.14-.25Z"/><path class="cls-4" d="m38.85,55.42c-.39-.95-1.19-1.68-1.95-2.34-.26-.18-.55-.47-.88-.45-.22.06-.25.37-.06.48,1.15.64,2.25,1.87,2.61,3.08.12.18.41.11.46-.1.02-.23-.11-.45-.18-.66Z"/><path class="cls-4" d="m41.99,59.8c.08-1.31-.23-2.39-.29-3.57.02-1.49-.78-2.82-1.65-3.98-.18-.16-.31-.45-.57-.49-.2,0-.31.27-.16.41.8.84,1.58,2.09,1.82,3.25.03,1.05.36,2.8.38,4.1.01.17-.07.36.06.5.16.17.45.01.42-.22Z"/><path class="cls-4" d="m43.98,57.19c-.03-1.5.03-3.02-.1-4.51-.1-.27-.53-.17-.51.11.14,1.5-.05,3.62.18,4.98.11.12.32.09.4-.06.07-.16.02-.35.03-.52Z"/><path class="cls-4" d="m47.75,53.23c-.04-.16-.28-.19-.36-.04-.54.89-.76,1.93-1.15,2.9-.05.27-.48.82-.03.91.18,0,.21-.2.26-.34.31-.86.66-1.92.95-2.68.06-.25.33-.51.32-.75Z"/><path class="cls-4" d="m64.29,52.64c-1.37.62-2.63,1.4-3.87,2.24-.67.38-1.23.92-1.78,1.45-.07.06-.11.14-.11.23.07.43.47.28.68.03,1.1-1.01,2.41-1.81,3.82-2.67.51-.29,1.05-.51,1.56-.8.07-.04.11-.1.13-.18.07-.24-.22-.45-.43-.32Z"/><path class="cls-4" d="m57.21,57.89c-.37.61-.68,1.28-.95,1.94-.03.2.26.3.36.12.29-.66.63-1.3.97-1.93.04-.21-.27-.31-.37-.12Z"/><path class="cls-4" d="m55.92,60.64c-.15.37-.34.74-.48,1.12-.02.12.11.23.23.19.26-.24.42-.85.59-1.2.03-.19-.25-.28-.34-.11Z"/><path class="cls-4" d="m59.3,53.71c-2.07.85-3.68,2.52-4.74,4.47-.29.75-.44,1.14-.65,1.57-.12.2.13.45.33.32.18-.17.1-.18.22-.33.24-.32.41-.68.57-1.04.73-1.32,1.72-2.68,2.68-3.39.57-.48,1.27-.78,1.89-1.15.17-.2-.05-.52-.3-.44Z"/><path class="cls-4" d="m53.94,60.58c-.02-.17-.28-.18-.32-.02-.03.23-.45.75-.06.82.1,0,.15-.09.17-.17.06-.21.19-.42.21-.64Z"/><path class="cls-4" d="m53.35,61.98c-.34-.09-.48.45-.13.53.34.09.48-.45.13-.53Z"/><path class="cls-4" d="m55.7,53.16c-1.07.99-2.45,1.97-3.25,3.16-.49.91-.93,1.86-1.24,2.63-.07.24-.31.5-.19.75.45.45.57-.27.7-.52.44-1.02.95-2.31,1.64-3.15.86-.92,1.91-1.68,2.78-2.57.12-.26-.25-.51-.45-.3Z"/><path class="cls-4" d="m50.92,60.62c-.34-.09-.48.45-.13.53.34.09.48-.45.13-.53Z"/><path class="cls-4" d="m52.4,52.8c.04-.25-.33-.38-.45-.15-1.62,2.66-3.25,6.02-3.05,8.94.08.15.3.17.42.05.13-.16.09-.41.13-.6.05-1.81.59-3.6,1.38-5.23.45-1.04,1.08-2,1.57-3.01Z"/><path class="cls-4" d="m49.19,62.46c-.08-.21-.42-.14-.41.09.05.27-.14.7.13.86.45.12.28-.69.28-.95Z"/><path class="cls-4" d="m48.03,58.41c.09-1.21.31-2.69.75-4.04.16-.5.37-.99.5-1.5.02-.06,0-.13-.03-.19-.1-.18-.4-.14-.45.07-.59,1.61-1.09,3.25-1.26,4.97-.02.42-.11.87-.06,1.28.02.07.08.12.15.14.44.13.37-.45.4-.73Z"/><path class="cls-4" d="m46.29,60.14c0-.51.04-1.03.08-1.54.01-.13.05-.27.04-.4-.02-.23-.37-.24-.42-.02-.1.68-.15,1.37-.15,2.05.02.16-.05.36.07.5.08.09.24.08.32,0,.13-.16.03-.39.06-.58Z"/><path class="cls-4" d="m46.67,64.79c-.1-.6-.26-1.75-.29-2.56,0-.27-.43-.26-.42,0,.08.9.11,1.87.35,2.73.13.14.4,0,.35-.18Z"/><path class="cls-4" d="m45.34,53.12c-.02-.25-.41-.27-.46-.02-.12.9-.21,1.8-.3,2.7,0,.23.32.31.43.11.12-.78.21-1.87.33-2.78Z"/><path class="cls-4" d="m42.93,59.13c-.28-1.21-.56-2.7-.65-3.93-.04-.65-.1-1.31-.02-1.97,0-.26-.42-.26-.41,0-.12,1.21.04,2.86.26,3.82.14.68.17,1.74.51,2.3.16.1.36-.07.31-.24Z"/><path class="cls-4" d="m43.09,61.49c-.06-.23-.42-.13-.35.1.14.72.29,1.43.43,2.15.04.15.26.18.34.04-.02-.76-.31-1.53-.41-2.29Z"/><path class="cls-4" d="m39.63,57.24c-.01-.29-.44-.29-.38.02.22.81.6,1.57.89,2.36.03.17.27.23.36.07-.1-.83-.68-1.61-.86-2.44Z"/><path class="cls-4" d="m42.34,64.93c-.21-1.21-.66-2.34-1.08-3.49-.09-.18-.09-.43-.25-.57-.14-.08-.32.06-.27.22.39,1.22.95,2.38,1.16,3.65.08.22.04.75.4.6.15-.09.07-.27.04-.41Z"/><path class="cls-4" d="m73.81,83.21c-.24-.93-.54-1.85-.81-2.78-.11-.27-.12-.63-.34-.84-.16-.1-.38.07-.32.26.37,1.07.65,2.17.98,3.25.04.21.12.55.4.41.1-.06.13-.19.09-.3Z"/><path class="cls-4" d="m70.76,82.3c-.07-.26-.48-.15-.4.12,1.28,3.4,2.53,6.82,3.83,10.21.09.12.3.08.33-.07-1.16-3.43-2.52-6.84-3.75-10.26Z"/><path class="cls-4" d="m75.45,93.41c.16.02.31.04.47.07.39-1.37.39-2.87.25-4.28-.24-1.45-.63-2.86-1.04-4.27-.07-.27-.5-.15-.42.12.83,2.84,1.45,5.6.74,8.37Z"/><path class="cls-4" d="m78.04,93.08c.15-1.46.41-2.94.4-4.4-.09-.24-.48-.16-.47.1-.03,1.59-.39,3.37-.39,4.59.24.29.49,0,.46-.3Z"/><path class="cls-4" d="m79.86,84.55c0-.31.06-.63.01-.92-.08-.23-.45-.15-.44.1.03.38-.14.88.03,1.21.28.22.44-.12.4-.38Z"/><path class="cls-4" d="m79.91,94.18c.06.02.11.05.15.1,0,0,.02,0,.02,0,.5-1.9,1.13-3.57,2.55-4.92.21-.2-.01-.57-.28-.48-1.02.79-1.64,1.98-2.14,3.15-.26.67-.47,1.37-.65,2.07.12.02.24.05.35.07Z"/><path class="cls-4" d="m87.38,75.92c-.02-.49.06-1.34-.09-1.75-.12-.13-.36-.03-.35.15.21,1.74-.38,3.33-.84,5.01.02.22.36.24.41.02.35-1.13.7-2.26.87-3.43Z"/><path class="cls-4" d="m90.42,77.31c-.07-.19-.38-.17-.42.03-.15,1.43-.57,2.52-1.26,3.69-.37.85-.67,1.74-1.22,2.5-.3.51-.66,1-.9,1.53-.03.17.16.33.33.28.23-.11.29-.41.44-.6.35-.6.76-1.17,1.1-1.78.49-1.15.73-1.75,1.32-2.93.31-.87.62-1.8.61-2.72Z"/><path class="cls-4" d="m90.68,76.21c.08-.3-.39-.42-.46-.12-.06.53-.19,1.07-.25,1.6,0,.09.08.17.17.19.12.03.25-.05.28-.17.09-.5.18-1,.26-1.5Z"/><path class="cls-4" d="m92.85,79.07c-.71,1.15-1.98,2.2-2.7,3.61-.24.5-.49,1.4-.62,1.69-.7,1.34-1.74,2.49-2.48,3.8.02.39.41.3.53,0,.79-1.25,1.79-2.38,2.43-3.71.33-.88.46-1.48,1.02-2.2.57-.98,1.77-1.81,2.36-3.01.05-.3-.4-.45-.54-.18Z"/><path class="cls-4" d="m86.83,88.99c-.04-.16-.28-.19-.36-.04-.73.99-1.44,2.01-2.18,3-.08.11-.02.28.11.31.08.02.18-.02.22-.09.6-.81,1.18-1.62,1.77-2.44.13-.24.44-.45.44-.73Z"/><path class="cls-4" d="m85.8,82.83c.11-.72.44-1.47.37-2.19-.11-.2-.45-.16-.5.07-.29,1.52-.7,3.46-1.13,4.67-.13.4-.7.91-.68,1.26.06.23.39.27.5.06.93-1.09,1.08-2.54,1.43-3.87Z"/><path class="cls-4" d="m83.3,87.49c-.23-.06-.32.3-.09.36.23.06.32-.3.09-.36Z"/><path class="cls-4" d="m92.19,91.89c-.93.54-1.91,1.02-2.83,1.58-.96.6-1.63,1.04-2.63,1.33-.59.21-1.29.45-1.95.66.36.09.73.18,1.08.3.6-.21,1.2-.43,1.81-.63.92-.35,1.69-.99,2.56-1.44.8-.48,1.65-.87,2.42-1.39.08-.05.17-.12.19-.22.05-.44-.4-.42-.65-.18Z"/><path class="cls-4" d="m93.96,93.47c-.03-.24-.32-.24-.46-.09-1.18.72-2.37,1.67-3.57,2.11-.13.04-.29.04-.36.17,0,.01,0,.03,0,.04.43-.04.87-.09,1.3-.11.78-.4,1.5-.94,2.24-1.39.27-.19.57-.34.81-.55.04-.05.06-.12.04-.18Z"/><path class="cls-4" d="m102.55,90.92c-.12-.24-.36-.07-.48.08-1.27,1.28-2.8,2.2-4.45,3.02-.6.31-1.04.53-1.53.74-.17.09-.4.1-.52.25-.1.16.07.37.25.31,1.61-.66,3.17-1.48,4.62-2.44.75-.49,1.42-1.11,2.06-1.74.06-.06.08-.15.04-.22Z"/><path class="cls-4" d="m98.36,95.16s.03-.02.04-.03c.11-.05.22-.08.33-.11,1.48-.97,3.02-1.91,4.32-3.12.97-.86,1.9-1.9,2.17-3.21.07-.25-.32-.35-.39-.1-.26,1.26-1.13,2.19-2.1,3.06-.91.84-1.82,1.53-2.89,2.17-.63.4-1.22.84-1.83,1.27-.05.03-.07.07-.08.12.14-.02.29-.03.43-.05Z"/><path class="cls-4" d="m97.23,87.28c-.43,1.1-1.08,2.1-1.76,2.95-.1.1-.08.28.05.35.27.13.39-.23.54-.38.63-.83,1.19-1.73,1.56-2.7.15-.25-.25-.48-.39-.22Z"/><path class="cls-4" d="m106.13,86.24c-.04-.16-.25-.24-.39-.15-.13.12-.31.46-.28.63.06.22.38.26.49.06.06-.18.22-.34.18-.54Z"/><path class="cls-4" d="m110.71,84.56c-.06-.25-.43-.3-.56-.07-.24.3-.09.77.33.59.14-.11.26-.34.22-.52Z"/><path class="cls-4" d="m105.22,93.1c.08-.05.16-.1.25-.14,0,0,.01,0,.02-.01h0s.04-.02.07-.03c.07-.02.13-.02.18,0,0,0,.02,0,.03-.01.03-.01.06-.01.09-.01.08-.04.15-.09.22-.12.04-.02.09-.03.14-.03.05-.07.11-.14.16-.21.38-.51.71-1.05.95-1.64.06-.1.05-.23-.03-.32-.11-.16-.38-.14-.48.03-.47,1.08-1.01,1.84-1.78,2.57.06-.02.12-.05.18-.07Z"/><path class="cls-7" d="m116.61,55.29c1.23-.13,2.43-.97,3.22-1.91.85-1.01,1.4-2.23,1.91-3.44.41-1,.8-2.12.77-3.21-.03-1.43-.14-2.87-.58-4.24-.28-.88-.75-1.68-1.2-2.49-.42-.75-.79-1.51-1.3-2.21-1.08-1.47-2.45-2.68-3.75-3.94-1.8-1.76-3.73-3.25-5.76-4.72-2.5-1.81-5.12-3.59-7.94-4.88-1.34-.61-2.74-1.07-4.12-1.56-1.8-.64-3.58-1.28-5.45-1.69-3.55-.78-7.21-1.3-10.84-1.54-2.16-.14-4.25-.22-6.41-.04-3.39.28-6.75.66-10.06,1.5-2.8.71-5.41,1.88-8.01,3.14-.88.43-1.78.82-2.64,1.31-.63.36-1.34.7-1.88,1.19-.65.59-1.18,1.42-1.71,2.11-.34.44-.74.92-.97,1.44-.27.62-.52,1.56-.56,2.25-.06,1.11.98,2.22,1.8,2.86.34.27.88.67,1.32.68,1.08.02,2.42-.89,3.3-1.43.83-.51,1.7-.85,2.59-1.26,1.11-.51,2.34-.69,3.49-1.11,2.59-.95,5.38-1.03,8.1-.88.67.04,1.38.1,2.04.22.76.14,1.47.47,2.21.7,1.11.34,2.1.95,3.15,1.41,1,.44,2.01.85,3.02,1.25.53.21,1.06.48,1.62.63.9.23,1.93.33,2.85.39,1.47.1,3-.24,4.44-.53,1.3-.26,2.63-.1,3.92.18.97.21,1.84.47,2.68,1.01.38.24.74.54,1.13.75.51.27,1.08.44,1.59.72.9.5,1.8.75,2.85.74.92,0,1.81-.02,2.73.05s1.69.28,2.55.5c1.65.41,3.23,1.07,4.66,2.02,1.5,1,2.47,2.46,3.25,4.05.35.72.7,1.42.83,2.22s.37,1.58.42,2.35c.06.89-.1,1.83-.1,2.73,0,.58,0,1.13.13,1.7.15.66.35,1.01,1.04.88"/><path class="cls-7" d="m117.54,55.57c3.12-.5,4.76-3.79,5.6-6.53.92-2.98.01-6.14-1.43-8.77s-3.47-4.71-5.71-6.79c-2.46-2.29-5.23-4.3-8.03-6.15-5.05-3.33-11.01-5.51-16.93-6.73-6.66-1.38-13.4-1.9-20.16-1.12-3.45.4-6.88,1.04-10.13,2.29-2.86,1.1-5.97,2.38-8.53,4.1-1.08.73-1.8,1.87-2.57,2.9-.84,1.13-1.67,2.93-1.06,4.34.75,1.74,2.84,2.99,4.7,3.09,1.15.06,2.24-.71,3.17-1.27,1.42-.86,2.96-1.56,4.56-2.01,1.47-.41,2.89-.95,4.4-1.21,1.89-.31,3.85-.32,5.76-.17s3.59,1.07,5.33,1.86c1.43.65,2.9,1.28,4.37,1.81,2.46.9,5.21,1.14,7.79.68.95-.17,1.88-.42,2.84-.43,1.59-.02,2.86.51,4.17,1.34,1.17.74,2.6,1.36,3.93,1.74,1.4.41,2.68.42,4.12.45,2.56.04,5.14.81,7.17,2.41,2.52,1.98,4.09,5.75,4.03,8.93-.02,1.18-.61,3.56.37,4.53.54.54,1.89.7,2.59.64-.33.03-1.27-.6-1.85-.55l-.09.04,1.4.44c-.99-.66-.58-2.93-.53-3.89.08-1.5-.13-3.05-.59-4.48-.79-2.44-2.42-4.7-4.64-5.99s-4.6-1.95-7.02-2.39c-1.2-.22-2.38-.19-3.6-.23-1.79-.06-3.08-1.15-4.61-1.96-1.93-1.03-4.52-1.59-6.7-1.56-1.49.02-2.92.53-4.41.64-1.97.14-3.61-.38-5.4-1.11-2.55-1.05-4.95-2.36-7.64-3.04s-5.54-.67-8.19-.31-5.64,1.35-8.12,2.56c-.58.28-1.12.61-1.67.94-.65.39-1.37.6-2.01.97l-.34.07c.72.28.91.32.57.1-.06-.14-.49-.37-.61-.47-.59-.51-1.22-1.18-1.44-1.96-.33-1.19.25-2.68.92-3.66.78-1.15,1.66-2.48,2.83-3.26,2.54-1.69,5.61-2.98,8.44-4.07,6.01-2.32,12.96-3,19.35-2.61,7.11.43,14.44,1.79,20.79,5.16,3.15,1.67,6.1,3.81,8.88,6.03,1.31,1.04,2.53,2.16,3.73,3.32,1.3,1.25,2.65,2.49,3.59,4.04,1.67,2.74,2.98,5.75,2.55,9.04-.4,3.03-2.51,7.2-5.81,7.72.3-.05,1.29.64,1.85.55h0Z"/><path class="cls-7" d="m65.73,51.77c-.62.62-1.18,1.1-1.91,1.58-.43.28-.75.65-1.18.92-1.01.61-2.42.77-3.57.88-1.04.1-2.09.02-3.13.12-.51.05-1,.09-1.51.05-.57-.04-1.1-.22-1.67-.31-.35-.05-.69-.07-1.04-.19-.29-.1-.53-.26-.83-.34s-.57-.07-.86-.1c-.44-.05-.86-.19-1.28-.3-1.28-.34-2.66-.45-3.97-.61-.65-.08-1.37-.14-2.03-.12-.26.01-.53.05-.79.07-.6.05-1.19-.06-1.79-.04-.81.03-1.63.12-2.44.19s-1.58.16-2.35.29c-.64.11-1.3.26-1.94.32-.3.03-.6,0-.9.02-.53.03-1.01.18-1.54.12-1.71-.18-3.46-.33-5.08-.93-.67-.25-1.35-.48-2.01-.75-.45-.18-.93-.33-1.28-.68-.88-.87.07-2.22.54-3.05,1.01-1.79,2.27-3.45,3.51-5.08.62-.81,1.3-1.47,2.09-2.11.89-.71,1.72-1.49,2.69-2.1,3.07-1.93,6.4-3.34,9.99-3.91,1.48-.23,2.91-.37,4.4-.24,1.88.15,3.71.59,5.48,1.22,1.35.48,2.63,1.07,3.91,1.74s2.34,1.62,3.55,2.41c1.91,1.25,3.72,2.68,5.26,4.39.48.54,1.16,1.15,1.35,1.86.13.47.17.96.17,1.44,0,.65.03,1.29.04,1.94,0,.3-.07.57-.15.87-.07.24-.39.58-.28.8.39.25.36-1.11.39-1.26.05-.31.13-.47.08-.79-.05-.35-.16-.7-.19-1.06-.06-.61-.06-1.22-.31-1.8-.15-.33-.34-.66-.56-.94-.16-.21-.36-.36-.44-.62.65.17,1.06,1.21,1.37,1.72.46.75.59,1.66.71,2.51.07.51.08.96-.13,1.44-.14.3-.78,1.58-1.25,1.38"/><path class="cls-7" d="m64.77,51.51c-.97.95-2.18,2.05-3.41,2.66-1.5.74-3.38.72-5.01.76-.7.01-1.4.09-2.1.11-.8.03-1.54-.2-2.32-.31.63.09.34.11.01,0-.18-.07-.36-.14-.55-.2-.56-.18-1.11-.28-1.68-.38-2.93-.47-5.69-1.13-8.68-1-1.74.07-3.43.05-5.17.24s-3.32.52-5.02.64c-2.04.14-4.17-.43-6.04-1.18-.91-.36-1.72-.74-1.54-1.83.1-.65.54-1.27.87-1.83,1.7-2.9,3.67-5.59,6.27-7.74,5.51-4.55,13.69-7.3,20.64-4.71,3.49,1.3,6.72,3.55,9.58,5.91,1.25,1.03,3.3,2.61,3.81,4.2.25.75.17,1.63.19,2.41,0,.46.07.95-.02,1.4s-.37.79-.39,1.23c0,.17,1.12.4,1.2.42,1.18.28,1.05-.22,1.15-1.3.07-.81-.1-1.59-.2-2.4-.14-1.14-.71-1.74-1.25-2.68l-1.81-.43c1.23.54,1.78,2.81,1.93,3.97.09.68.09,1.22-.21,1.85-.14.3-.57,1.18-.99,1.14-.4-.04.27.21.31.23.41.16.89.28,1.33.32,1.41.13,1.6-2.32,1.47-3.2-.2-1.31-.8-3.36-2.14-3.95-.25-.11-1.75-.32-1.81-.43.39.68.94,1.23,1.15,2.01.19.69.24,1.53.33,2.24.05.45.07,1.95-.32,2.26l.73.1-.12-.03,1.2.42c.01-.37.23-.65.33-1.01.12-.45.09-.91.08-1.38-.02-.92.08-1.95-.26-2.83-.58-1.47-2.3-2.82-3.47-3.82-2.81-2.4-6.03-4.61-9.44-6.03-3.12-1.29-6.61-2.26-10-2.17-3.77.09-7.5,1.26-10.82,3.01-3.54,1.87-6.26,4.47-8.57,7.71-.91,1.27-2.39,3.02-2.66,4.61s1.76,2.01,2.88,2.42c3.12,1.14,6.17,1.73,9.48,1.56,1.99-.1,3.95-.54,5.94-.71,2.1-.18,4.31-.21,6.41.03,1.33.15,2.6.41,3.91.7.3.07.6.12.9.16-.56-.08.13.04.36.12,1.4.47,3.05.81,4.52.83,2.03.03,4.3,0,6.29-.48,1.79-.42,3.39-1.84,4.69-3.1-.14.14-1.61-.83-1.93-.52h0Z"/><path class="cls-7" d="m37.56,73.07c-.55.9-1.42,2.21-1.19,3.35.26,1.29,1.36,1.98,2.6,2.11,1.35.14,2.67.34,4.04.39,1.83.07,3.67.1,5.5.07.73-.01,1.43-.02,2.16-.11.9-.12,1.81,0,2.72.04,1.15.04,2.3-.08,3.44-.03,1.03.04,2,.29,3.01.46,1.37.22,2.75.33,4.13.47,1.31.12,2.73.22,4.04.08,2.43-.25,4.72-2.1,5.99-4.13.41-.65.61-1.57.59-2.34-.02-1.3-.85-1.94-1.68-2.82-.45-.47-.95-.78-1.56-1.03-.66-.28-1.27-.62-1.91-.92-.77-.37-1.6-.62-2.4-.91-1.23-.45-2.43-.95-3.67-1.36-1.78-.59-3.66-.95-5.47-1.42-.66-.17-1.3-.38-2-.36-1.11.02-2.24.13-3.35.22-2,.15-3.77,1.03-5.67,1.61-1.79.54-3.36,1.38-4.96,2.32-.7.41-1.4.82-1.96,1.43-.39.43-.72.87-1.13,1.28s-.78.99-1.08,1.51c-.24.42-.68.82-.82,1.29"/><path class="cls-7" d="m36.59,72.82c-.72,1.17-1.68,2.6-.97,4,.47.94,1.45,1.34,2.4,1.62,2.75.82,5.8.8,8.65.84,3.67.05,7.33-.3,10.99-.11,1.76.09,3.52.55,5.27.73s3.4.38,5.09.32c2.87-.1,5.81-1.86,7.08-4.5s-.74-4.98-3.12-6.07c-2.86-1.31-5.79-2.53-8.81-3.44-1.53-.46-3.08-.81-4.63-1.19-1.37-.34-2.66-.74-4.08-.69-3.69.13-7.19,1.07-10.56,2.57s-6.44,3.68-7.97,7.08c-.02.04,1.83.75,1.93.52,2.33-5.17,7.89-7.22,12.9-8.83,1.36-.44,2.69-.59,4.11-.69,1.82-.13,3.31.18,5.05.59,3.03.72,6.21,1.73,9.02,3.09,2.1,1.01,4.96,2.4,4.61,5.19-.3,2.34-2.61,4.4-4.67,5.28-1.47.63-3.09.61-4.66.5s-3.25-.25-4.86-.5c-1.15-.18-2.28-.46-3.45-.51-1.6-.07-3.2.02-4.8-.04-1.49-.06-3,.15-4.49.16-1.79.01-3.6,0-5.39-.13-1.44-.11-3.29.06-3.85-1.58-.45-1.32.43-2.62,1.1-3.69-.02.04-1.76-.8-1.93-.52h0Z"/><path class="cls-7" d="m124.46,69.45c.41,1.16.88,2.3.81,3.55-.05.9-.23,1.89-.57,2.73-.28.7-.67,1.14-1.23,1.66-.6.55-1.2,1.15-1.95,1.48-3.95,1.77-8.78.26-12.45-1.5-1.93-.92-3.92-2.06-5.67-3.29s-3.73-2.07-5.75-2.7c-1.68-.52-3.45-.76-5.18-1.09-.65-.13-1.29-.15-1.93-.32-.84-.22-1.61-.48-2.43-.77s-1.23-.46-1.84-1.08c-.35-.36-.78-.7-1.03-1.14-.52-.93-.38-1.88-.17-2.86.45-2.04,2.34-4.13,4.18-5.1,2.21-1.16,4.62-2.13,7.09-2.51,1.14-.17,2.24-.54,3.37-.76.61-.12,1.21-.07,1.82-.07.75,0,1.51-.07,2.25-.04,1.88.07,3.46.51,5.18,1.23s3.56,1.43,5.25,2.38c1.78,1,3.37,2.1,4.93,3.41,1.32,1.1,2.69,2.17,3.78,3.51.56.7,1.09,1.4,1.54,2.17.49.83,1.02,1.58,1.15,2.55s.38,2.31.04,3.3c-.25.74-.49,1.47-.95,2.12-.23.32-.58.49-.8.77-.17.21-.23.46-.46.64-.41.34-1.43,1.04-1.99.93"/><path class="cls-7" d="m123.49,69.19c.57,1.6.99,3.03.68,4.73s-1.19,2.93-2.58,4.02c-3.35,2.65-8.25,1.23-11.67-.41-3.14-1.5-5.84-3.76-9.03-5.12-2.91-1.24-5.98-1.86-9.09-2.39-1.62-.27-3.35-.53-4.6-1.68-1.55-1.44-1.64-3.17-.8-5.05,1.47-3.28,5.03-4.91,8.27-5.91,1.67-.52,3.42-.77,5.11-1.18,1.92-.46,4.37-.5,6.32-.15s3.91,1.38,5.67,2.21,3.49,1.9,5.08,3.1,3.21,2.47,4.56,3.93c1.22,1.31,2.69,3.16,3.15,4.93s.37,3.53-.44,5.14c-.37.73-1.07,1.52-1.65,2.09-.49.47-1.27.93-1.95.91-.09,0,.57.28.64.3.39.12.8.24,1.21.25.6.02,1.14-.31,1.62-.64.33-.23.52-.47.76-.78.31-.39.73-.69,1.01-1.11,1.08-1.57,1.13-3.44.8-5.25s-1.77-3.69-3-5.09c-1.35-1.55-3.05-2.88-4.68-4.12-3.15-2.4-6.78-4.14-10.51-5.45-3.32-1.16-7.22-1.63-10.66-.78-3.88.96-8.32,1.55-11.35,4.44-1.39,1.33-2.5,3.17-2.47,5.16.03,1.55,1.37,2.88,2.72,3.49,3.61,1.62,7.6,1.54,11.3,2.8,2.28.78,4.13,2.08,6.15,3.34,1.67,1.04,3.42,1.98,5.23,2.76,3.47,1.51,7.76,2.87,11.56,1.98,1.82-.43,3.75-1.65,4.64-3.35,1.13-2.18.69-4.43-.09-6.61-.16-.45-1.85-.3-1.93-.52h0Z"/><path class="cls-3" d="m70.47,130.77l-2.69,11.23-3.5-.84,1.85-7.72-2.8-.67-1.68,7.02-3.5-.84,1.68-7.02-6.65-1.6.84-3.51,16.44,3.96Z"/><path class="cls-3" d="m67.15,144.63l-2.69,11.23-3.5-.84,1.85-7.72-2.8-.67-1.76,7.37-3.5-.84,1.76-7.37-3.15-.76-1.93,8.07-3.5-.84,2.77-11.58,16.44,3.96Z"/><path class="cls-3" d="m63.62,159.37l-1.72,7.2c-.67,2.81-3.41,4.57-6.07,3.93-1-.24-1.83-.79-2.47-1.51-1.21.7-2.71,1.01-4.22.64-2.8-.67-4.51-3.51-3.84-6.32l1.89-7.9,16.44,3.96Zm-11.57,5.57l1.05-4.4-3.27-.79-1.05,4.4c-.21.89.3,1.75,1.18,1.97.91.22,1.88-.31,2.08-1.18Zm7.23-2.91l-2.68-.65-.89,3.7c-.21.89.2,1.73.95,1.91s1.52-.38,1.73-1.26l.89-3.7Z"/><path class="cls-3" d="m58.27,181.73c-.67,2.81-3.51,4.55-6.3,3.87-2.21-.53-3.76-2.44-3.96-4.59l-2.98.82c-.87.24-1.35,1.11-1.12,2.01l-3.48.94c-.74-2.8.89-5.67,3.66-6.44l4.56-1.23.36-1.52-6.3-1.52.84-3.51,16.44,3.96-1.72,7.2Zm-2.61-4.54l-3.15-.76-.88,3.7c-.21.89.3,1.75,1.18,1.97.89.21,1.75-.32,1.97-1.21l.88-3.7Z"/><path class="cls-3" d="m55.53,193.19l-9.79-2.36c-1.94-.47-3.87.72-4.34,2.67s.72,3.88,2.66,4.35l9.79,2.36-.84,3.51-9.79-2.36c-3.87-.93-6.25-4.82-5.32-8.7.93-3.88,4.8-6.26,8.67-5.33l9.79,2.36-.84,3.51Z"/><path class="cls-3" d="m45.69,204.92c3.87.93,6.32,4.51,5.48,8-.83,3.46-4.64,5.56-8.51,4.63l-9.79-2.36.84-3.51,3.5.84,1.34-5.61-3.5-.84.84-3.51,9.79,2.36Zm-3.64,2.83l-1.34,5.61,2.8.67c1.94.47,3.8-.42,4.17-1.96.37-1.54-.89-3.18-2.83-3.65l-2.8-.67Z"/><path class="cls-3" d="m46.86,229.4c-.67,2.81-3.51,4.55-6.3,3.87-2.21-.53-3.76-2.44-3.96-4.59l-2.98.82c-.87.24-1.35,1.11-1.12,2.01l-3.48.94c-.74-2.8.89-5.67,3.66-6.44l4.56-1.23.36-1.52-6.3-1.52.84-3.51,16.44,3.96-1.72,7.2Zm-2.61-4.54l-3.15-.76-.88,3.7c-.21.89.3,1.75,1.18,1.97.89.21,1.75-.32,1.97-1.21l.88-3.7Z"/><path class="cls-3" d="m33.91,238.23c1.48-2.56,4.67-3.95,7.89-3.17l3.5.84-.84,3.51-3.5-.84c-1.94-.47-3.82.51-4.22,2.2-.4,1.66.83,3.42,2.77,3.88l3.5.84-.84,3.51-3.5-.84c-3.22-.77-5.44-3.46-5.59-6.42l-6.2-1.49.84-3.51,6.2,1.49Z"/></svg>