<?xml version="1.0" encoding="UTF-8"?><svg xmlns="http://www.w3.org/2000/svg" width="369" height="192" xmlns:xlink="http://www.w3.org/1999/xlink" viewBox="0 0 369 192"><defs><style>.cls-1{fill:url(#linear-gradient);}.cls-1,.cls-2,.cls-3,.cls-4,.cls-5,.cls-6,.cls-7{stroke-width:0px;}.cls-8{isolation:isolate;}.cls-3{fill:url(#linear-gradient-2);}.cls-4{fill:#a69771;}.cls-5{fill:#ffefe1;}.cls-9{mix-blend-mode:multiply;opacity:.51;}.cls-6{fill:#665322;}.cls-7{fill:#828282;}</style><linearGradient id="linear-gradient" x1="157.32" y1="703.43" x2="182.65" y2="795.13" gradientTransform="translate(-722.89 63.35) rotate(-74.79)" gradientUnits="userSpaceOnUse"><stop offset="0" stop-color="#fc0"/><stop offset="1" stop-color="#ff4"/></linearGradient><linearGradient id="linear-gradient-2" x1="49.45" y1="881.03" x2="51.61" y2="830.44" gradientTransform="translate(-814.18 182.24) rotate(-92.65)" gradientUnits="userSpaceOnUse"><stop offset="0" stop-color="#d9c38d"/><stop offset="1" stop-color="#665322"/></linearGradient></defs><g class="cls-8"><g id="Layer_2"><path class="cls-1" d="m12.63,192l356.37-95.02L12.91,0s-28.86,106.35-.28,192Z"/><path class="cls-5" d="m102.54,167.69l266.46-70.71L102.66,24.44s-21.53,79.33-.11,143.25Z"/><path class="cls-6" d="m57.77,71.93c-.08-1.81-.13-3.63-.26-5.43-.11-1.61-.44-3.18-.7-4.77-.34-2.08-.83-4.02-1.54-5.99-.94-2.59-1.98-5.3-3.61-7.55-.82-1.14-1.74-2.42-2.87-3.27-1.42-1.06-3.34-1.52-5.06-1.66-5.33-.44-10.28,2.45-14.32,5.63-2.73,2.14-5.46,4.48-7.81,7.05-1.55,1.69-2.97,3.51-4.37,5.32-2.82,3.63-5.41,7.6-7.61,11.65-.97,1.8-1.46,3.88-2.01,5.83-.63,2.23-.98,4.6-1.34,6.88-.82,5.31-1.01,10.72-.47,16.08.22,2.19.76,4.32,1.26,6.46.64,2.76,1.44,5.45,2.37,8.12,1.6,4.58,3.35,9.02,6.48,12.78,2.71,3.26,5.25,6.93,8.71,9.45,3.05,2.23,7.03,3.64,10.74,4.14,2.11.29,3.96.5,6.04-.17.85-.28,1.6-.69,2.4-1.09.85-.42,1.8-.59,2.68-.94,1.72-.69,2.73-2.24,3.67-3.76.6-.98,1.27-1.94,1.76-2.98,1.01-2.17,1.47-4.56,1.91-6.9.63-3.39,1.22-6.73,1.45-10.17.34-5.07.78-10.11,1.4-15.15.56-4.59,1.16-9.17,1.44-13.78.19-3.17.52-6.37.53-9.55,0-2.29-.15-4.59-.19-6.88-.02-1.26-.02-2.46-.32-3.7-.15-.61-.37-1.2-.53-1.8-.13-.46-.48-.91-.56-1.35"/><path class="cls-6" d="m58.64,71.43c-.39-8.7-1.5-17.91-7.05-25.01-1.17-1.5-2.51-2.61-4.35-3.17s-3.98-.66-5.95-.35c-3.18.51-6,2.06-8.72,3.7-7.26,4.37-13.09,10.75-18,17.57-1.32,1.83-2.56,3.7-3.73,5.63-1.1,1.8-2.24,3.64-2.96,5.63-1.51,4.2-2.28,8.69-2.8,13.12-.55,4.66-.66,9.46-.09,14.12.54,4.46,1.84,8.97,3.27,13.22,1.31,3.89,2.77,7.81,5.02,11.27,1.07,1.65,2.36,3.13,3.59,4.66s2.53,3.15,3.94,4.6c2.86,2.93,6.33,4.93,10.27,6.03,1.95.54,4.01.91,6.03.97,2.18.07,3.9-.63,5.83-1.52,1.42-.66,2.88-1,4.24-1.79,1.21-.7,2.18-1.48,3-2.63,1.16-1.64,2.31-3.43,3.03-5.31.78-2.04,1.17-4.19,1.56-6.33.84-4.54,1.29-9.04,1.65-13.63s.9-9.46,1.48-14.18.97-9.43,1.31-14.17.21-9.17.1-13.79c-.03-1.09-.09-2.16-.37-3.22s-.72-1.94-1.03-2.93c.04.13-1.78.85-1.73,1,.6,1.94,1.31,3.6,1.39,5.68.08,2.27.17,4.55.21,6.82.07,4.33-.33,8.69-.68,13s-1,9.01-1.51,13.51-.85,8.79-1.17,13.2-1.02,8.46-1.94,12.59c-.43,1.96-1.02,3.89-2.04,5.63-.89,1.51-1.81,3.21-3.08,4.44-.11.1-.72.63-.21.27.43-.31-.02-.01-.17.03-.39.11-.78.24-1.16.36-1.02.33-1.92.89-2.91,1.29-1.86.76-3.8.76-5.77.52-3.74-.45-7.42-1.55-10.62-3.57s-5.66-5.08-8.03-8.05-4.62-6.07-6.2-9.71c-3.25-7.54-5.65-15.89-5.88-24.13-.12-4.47.3-8.89,1-13.29.65-4.05,1.53-8.3,3.54-11.91,4.02-7.24,9.09-14.31,15.29-19.84,2.98-2.66,6.18-5.49,9.96-6.93,3.35-1.28,7.47-1.7,10.77,0s5.23,5.75,6.52,8.94c1.57,3.88,2.53,7.88,3.05,12.03.28,2.19.28,4.43.38,6.63-.01-.29,1.75-.68,1.73-1h0Z"/><ellipse class="cls-4" cx="43.19" cy="93.31" rx="47.53" ry="16.35" transform="translate(-50.62 135.41) rotate(-89.33)"/><g class="cls-9"><path class="cls-7" d="m41.23,102.7c.79.1,1.56.28,2.32.5s1.52.42,2.21.78c1.43.75,2.83,1.55,4.22,2.37s2.72,1.74,4.01,2.74c.63.49,1.28.97,1.85,1.53.26.26.44.55.66.84.12.17.68.71.61.94-.2.61.77.88.96.27.23-.72-.35-1.22-.74-1.76-.51-.7-1.03-1.25-1.7-1.8-1.44-1.18-2.94-2.3-4.54-3.27s-3.18-1.87-4.82-2.72c-1.51-.79-3.35-1.21-5.03-1.42-.64-.08-.63.92,0,1h0Z"/></g><g class="cls-9"><path class="cls-7" d="m48.65,103.11c.91.3,1.86.49,2.75.83.84.31,1.66.74,2.47,1.12s1.56.92,2.23,1.5c.34.3.68.61.99.93s.51.69.8,1c.44.48,1.14-.23.71-.71-.31-.34-.54-.74-.86-1.06s-.69-.67-1.06-.98c-.7-.59-1.47-1.16-2.31-1.55s-1.64-.79-2.48-1.13c-.96-.39-1.99-.59-2.98-.92-.61-.2-.88.77-.27.96h0Z"/></g><g class="cls-9"><path class="cls-7" d="m43.03,103.47c1.5.85,2.94,1.8,4.23,2.94s2.68,2.19,3.89,3.41c1.15,1.15,2.18,2.46,3.04,3.85.44.71.84,1.45,1.11,2.25.14.43.25.87.36,1.31s.29.88.32,1.31c.04.64,1.04.64,1,0-.05-.85-.38-1.76-.62-2.57s-.6-1.59-1.02-2.33c-.87-1.51-1.97-2.94-3.17-4.21-1.26-1.33-2.75-2.44-4.11-3.65s-2.91-2.26-4.51-3.17c-.56-.32-1.06.54-.5.86h0Z"/></g><g class="cls-9"><path class="cls-7" d="m41.75,103.06c1.35,1.6,2.82,3.06,4.28,4.55.73.74,1.42,1.52,2.04,2.36s1.12,1.76,1.68,2.64c1.14,1.81,2.31,3.58,3.17,5.54.41.93.69,1.9,1.04,2.85.18.49.34.98.43,1.49.1.58.07,1.12.08,1.7,0,.64,1.01.64,1,0-.01-1.1-.06-2.09-.43-3.15-.35-.99-.66-2.01-1.07-2.98-.86-2.04-2.04-3.9-3.23-5.76s-2.22-3.53-3.69-5.08-3.14-3.16-4.59-4.87c-.42-.49-1.12.22-.71.71h0Z"/></g><g class="cls-9"><path class="cls-7" d="m39.89,102.45c1.25,1.76,2.27,3.65,3.4,5.48s2.34,3.55,3.43,5.38c2.13,3.55,3.78,7.26,4.67,11.31.27,1.2.47,2.38.58,3.61.05.54.11,1.08.08,1.63-.03.47-.19.9-.24,1.36-.07.64.93.63,1,0,.04-.35.18-.69.22-1.05.05-.53.03-1.05-.02-1.59-.09-1.03-.17-2.04-.39-3.05-.45-2.13-.97-4.23-1.77-6.26-1.56-3.93-3.86-7.39-6.12-10.94-1.35-2.11-2.51-4.33-3.96-6.38-.37-.52-1.24-.02-.86.5h0Z"/></g><g class="cls-9"><path class="cls-7" d="m39.43,102.39c.82,2.26,1.49,4.57,2.36,6.82s1.83,4.54,2.58,6.87,1.4,4.76,2.03,7.15,1.31,4.61,1.7,6.97c.23,1.41.32,2.88.12,4.3-.09.66-.29,1.29-.5,1.92-.17.51-.23,1.17-.58,1.59-.41.49.29,1.2.71.71.6-.72.79-1.79,1.05-2.67.35-1.17.46-2.39.43-3.61-.07-2.56-.78-5.04-1.43-7.5s-1.28-4.96-2.02-7.41-1.64-4.86-2.59-7.24c-1.07-2.69-1.9-5.45-2.89-8.17-.22-.6-1.18-.34-.96.27h0Z"/></g><g class="cls-9"><path class="cls-7" d="m39.99,103.01c.32,5,1.3,9.99,2.2,14.92s1.97,10.01,1.81,15.07c-.04,1.32-.17,2.64-.34,3.95s-.43,2.52-1.73,3.06c-.59.24-.33,1.21.27.96.85-.35,1.56-.88,1.93-1.74.46-1.05.53-2.24.66-3.36.3-2.62.3-5.27,0-7.89-.6-5.35-1.79-10.61-2.63-15.92-.47-3-.99-6.01-1.18-9.05-.04-.64-1.04-.64-1,0h0Z"/></g><g class="cls-9"><path class="cls-7" d="m39.24,103.57c.83,4.3,1.19,8.79,1.31,13.17.06,2.23-.09,4.45-.33,6.66-.22,2.04-.57,4.08-1.23,6.03-.35,1.04-.8,2.05-1.36,2.99-.32.53-.67,1.03-1.06,1.49-.25.3-.69.98-1.09,1.06-.63.12-.36,1.08.27.96.79-.15,1.45-1.19,1.9-1.78.63-.82,1.16-1.71,1.59-2.65.89-1.93,1.41-4,1.73-6.1.36-2.33.58-4.71.6-7.07s-.18-4.79-.37-7.18c-.21-2.63-.49-5.26-.99-7.85-.12-.63-1.09-.36-.96.27h0Z"/></g><g class="cls-9"><path class="cls-7" d="m39.88,103.43c-1,4.21-1.86,8.46-3.05,12.63-1.09,3.82-2.2,8.2-5.49,10.74-.5.39,0,1.26.5.86,3.37-2.61,4.59-6.72,5.75-10.65,1.29-4.39,2.2-8.87,3.25-13.32.15-.63-.82-.89-.96-.27h0Z"/></g><g class="cls-9"><path class="cls-7" d="m39.53,101.03c-.56,3.28-1.85,6.53-3.6,9.35-.87,1.4-1.9,2.71-3.02,3.93-.52.56-1.07,1.1-1.66,1.59-.66.55-1.36,1.16-2.11,1.57-.57.31-.06,1.17.5.86.74-.4,1.4-.99,2.06-1.51s1.26-1.1,1.84-1.72c1.15-1.24,2.22-2.59,3.13-4.02,1.86-2.93,3.24-6.35,3.82-9.78.11-.63-.86-.9-.96-.27h0Z"/></g><g class="cls-9"><path class="cls-7" d="m38.76,100.69c-.36,1.24-.8,2.43-1.62,3.44-.93,1.14-1.93,2.24-2.95,3.31-.94.99-1.84,2.02-2.84,2.96-.48.45-.98.87-1.52,1.24s-1.11.65-1.6,1.07.22,1.12.71.71c.53-.44,1.17-.74,1.73-1.14s1.06-.84,1.55-1.31c1.04-1.01,2.01-2.09,3-3.15s2.02-2.15,2.91-3.32c.8-1.04,1.24-2.28,1.6-3.53.18-.62-.79-.88-.96-.27h0Z"/></g><g class="cls-9"><path class="cls-7" d="m37.55,99.51c-1.2,1.49-2.68,2.86-4.34,3.83-.82.48-1.7.94-2.6,1.25-.98.33-2.01.41-3.03.46-.64.03-.64,1.03,0,1,1.05-.05,2.11-.13,3.12-.44s1.96-.81,2.86-1.32c1.79-1.02,3.41-2.47,4.7-4.07.4-.5-.3-1.21-.71-.71h0Z"/></g><g class="cls-9"><path class="cls-7" d="m37.6,98.23c-1.57.95-3.25,1.78-4.99,2.39-.85.3-1.73.5-2.63.54-.45.02-.89-.02-1.33-.07-.26-.03-.79.03-1.01-.13-.52-.38-1.02.48-.5.86.25.18.55.18.85.2.51.04,1.02.13,1.53.15,1.01.03,2.04-.15,3.01-.46,1.94-.61,3.84-1.56,5.58-2.61.55-.33.05-1.2-.5-.86h0Z"/></g><g class="cls-9"><path class="cls-7" d="m36.52,95.12c-1.46.64-3.27,1.2-4.88,1.07s-2.94-1.16-4.29-2.01c-.55-.35-1.05.52-.5.86.77.49,1.47,1.04,2.3,1.42s1.62.66,2.49.72c1.8.14,3.75-.5,5.38-1.2.59-.26.08-1.12-.5-.86h0Z"/></g><g class="cls-9"><path class="cls-7" d="m36.4,92.64c-1.06,1.06-2.77,1.03-4.16.94-1.73-.11-3.41-.44-4.87-1.41-.54-.36-1.04.51-.5.86,1.64,1.09,3.57,1.44,5.5,1.55,1.64.09,3.51-.01,4.74-1.24.46-.45-.25-1.16-.71-.71h0Z"/></g><g class="cls-9"><path class="cls-7" d="m36.47,89.27c-.67.27-1.34.51-2.07.54s-1.52-.07-2.28-.12c-.8-.05-1.61-.06-2.41-.13s-1.59-.24-2.38-.37c-.63-.11-.9.86-.27.96.82.14,1.63.31,2.46.39s1.73.09,2.6.15c.82.06,1.63.17,2.45.11.76-.06,1.46-.29,2.16-.57.59-.23.33-1.2-.27-.96h0Z"/></g><g class="cls-9"><path class="cls-7" d="m36.74,86.97c-1.57-.23-3.1-.7-4.66-.98-.76-.14-1.53-.25-2.3-.24s-1.54.18-2.31.26c-.63.07-.64,1.07,0,1,.77-.09,1.53-.25,2.31-.26s1.48.1,2.2.23c1.51.28,2.98.73,4.49.95.63.09.9-.87.27-.96h0Z"/></g><g class="cls-9"><path class="cls-7" d="m37.09,85.42c-.64-.51-1.28-1.03-2.04-1.38s-1.6-.63-2.43-.86-1.64-.43-2.47-.55c-.41-.06-.83-.09-1.24-.05-.44.04-.84.23-1.27.29-.63.08-.64,1.08,0,1,.38-.05.72-.17,1.09-.25s.76-.06,1.13-.02c.78.09,1.57.31,2.33.51s1.55.44,2.28.77,1.31.77,1.91,1.25c.5.4,1.21-.31.71-.71h0Z"/></g><g class="cls-9"><path class="cls-7" d="m38.46,85.27c-.65-2.03-2.37-3.63-4.04-4.88-1.78-1.34-3.92-2.26-6.11-2.66-.63-.11-.9.85-.27.96,2.01.37,3.93,1.18,5.59,2.36.86.61,1.64,1.32,2.35,2.09.66.71,1.21,1.46,1.51,2.39.19.61,1.16.35.96-.27h0Z"/></g><g class="cls-9"><path class="cls-7" d="m39.35,84.18c-.24-1.39-.53-2.81-1.15-4.08-.55-1.12-1.36-2.11-2.28-2.94-1.02-.93-2.17-1.74-3.36-2.44s-2.38-1.4-3.74-1.4c-.64,0-.64,1,0,1,1.25,0,2.44.77,3.48,1.4s2.11,1.4,3.04,2.25c.82.76,1.52,1.63,2.01,2.63.58,1.19.83,2.55,1.05,3.84.11.63,1.07.36.96-.27h0Z"/></g><g class="cls-9"><path class="cls-7" d="m40.53,82.16c-.3-1.34-.98-2.5-1.71-3.65-.78-1.23-1.62-2.43-2.56-3.55-1.86-2.23-3.96-4.17-6.69-5.26-.6-.24-.86.73-.27.96,2.55,1.02,4.51,2.93,6.25,5,.86,1.03,1.62,2.13,2.34,3.25s1.38,2.21,1.67,3.51c.14.63,1.1.36.96-.27h0Z"/></g><g class="cls-9"><path class="cls-7" d="m41.56,80.5c-.57-3.56-1.67-7.06-3.52-10.17-1.67-2.81-3.78-5.59-6.74-7.12-.57-.3-1.08.57-.5.86,2.87,1.49,4.89,4.21,6.49,6.95,1.75,2.99,2.77,6.34,3.31,9.74.1.63,1.06.36.96-.27h0Z"/></g><g class="cls-9"><path class="cls-7" d="m42.43,80.6c.43-4.32-.63-8.76-2.21-12.77-.78-1.98-1.69-3.94-2.89-5.7-.58-.85-1.2-1.67-1.83-2.48s-1.38-1.51-2.03-2.3c-.41-.5-1.11.21-.71.71.65.8,1.42,1.5,2.05,2.33.59.77,1.17,1.54,1.71,2.34,1.17,1.72,2.07,3.64,2.81,5.58s1.26,3.88,1.69,5.86c.47,2.17.62,4.22.4,6.43-.06.64.94.64,1,0h0Z"/></g><g class="cls-9"><path class="cls-7" d="m42.87,81.03c.85-1.89,1.31-3.78,1.47-5.84.17-2.2.1-4.42-.14-6.61-.46-4.3-1.85-8.41-3.76-12.27-.98-1.97-2.07-3.9-3.66-5.44-.46-.45-1.17.26-.71.71,1.33,1.29,2.28,2.85,3.12,4.49.92,1.78,1.74,3.6,2.39,5.5,1.37,3.97,1.97,8.14,1.82,12.34-.08,2.32-.45,4.5-1.41,6.63-.26.58.6,1.09.86.5h0Z"/></g><g class="cls-9"><path class="cls-7" d="m45,81.23c1.05-1.93,1.36-4.24,1.62-6.4.28-2.36.32-4.75.2-7.12-.24-4.69-1.18-9.31-2.84-13.7-.92-2.41-1.97-4.8-3.3-7.01-.33-.55-1.2-.05-.86.5,2.27,3.75,3.9,8.03,4.91,12.3s1.4,8.97,1.06,13.45c-.1,1.32-.29,2.63-.52,3.94-.21,1.2-.54,2.45-1.12,3.53-.31.57.56,1.07.86.5h0Z"/></g><g class="cls-9"><path class="cls-7" d="m43.28,80.8c1.94-1.52,3.72-3.04,4.97-5.2s2.02-4.57,2.49-6.98.49-5.01.19-7.55c-.29-2.39-.7-4.78-1.38-7.09-.78-2.64-1.91-5.17-3.45-7.46-.36-.53-1.22-.03-.86.5,2.62,3.9,3.91,8.4,4.56,13.01.34,2.43.52,4.85.16,7.29s-1.05,4.87-2.16,7.04c-.59,1.16-1.32,2.27-2.24,3.21s-1.96,1.72-2.99,2.53c-.51.4.21,1.1.71.71h0Z"/></g><g class="cls-9"><path class="cls-7" d="m46.43,80.45c3.27-3.09,5.88-7.05,7.11-11.4.64-2.26.96-4.71,1.09-7.05.06-1.13,0-2.26-.11-3.39-.11-1.02-.3-2.02-.88-2.89-.36-.53-1.22-.03-.86.5.58.86.7,1.87.78,2.88.09,1.13.12,2.24.04,3.37-.16,2.18-.46,4.42-1.08,6.52-1.21,4.11-3.7,7.82-6.8,10.74-.47.44.24,1.15.71.71h0Z"/></g><g class="cls-9"><path class="cls-7" d="m47.73,80.49c2.45-1.96,4.94-4.17,6.64-6.84.83-1.31,1.4-2.73,1.84-4.21.23-.79.42-1.59.54-2.4s.04-1.48-.02-2.26c-.04-.64-1.04-.64-1,0,.05.76.14,1.45.02,2.21s-.31,1.55-.54,2.3c-.43,1.43-1,2.79-1.83,4.04-1.64,2.5-4.04,4.6-6.36,6.45-.5.4.21,1.1.71.71h0Z"/></g><g class="cls-9"><path class="cls-7" d="m51.74,80.28c1.56-1.2,2.86-2.59,4.02-4.17.58-.79,1.1-1.61,1.44-2.53.19-.52.32-1.05.45-1.58s.29-1.05.25-1.59c-.05-.64-1.05-.64-1,0,.04.47-.13.95-.23,1.41s-.23.96-.4,1.42c-.31.86-.82,1.64-1.36,2.37-1.05,1.43-2.25,2.72-3.66,3.81-.5.39,0,1.26.5.86h0Z"/></g><g class="cls-9"><path class="cls-7" d="m54.29,80.89c.96-.95,1.93-1.89,2.74-2.98.4-.53.74-1.1,1.01-1.71s.58-1.3.53-1.96-1.05-.64-1,0c.05.55-.25,1.17-.49,1.67-.27.56-.61,1.09-.98,1.59-.75.98-1.64,1.83-2.51,2.69-.46.45.25,1.16.71.71h0Z"/></g><path class="cls-3" d="m82.66,65.84c-.52.95-1.07,1.84-1.78,2.66-1.11,1.3-2.26,2.66-3.59,3.73-2.97,2.38-7.1,3.37-10.72,4.26-1.98.49-3.92,1.02-5.88,1.58-1.67.48-3.4.71-5.11.99-3.5.58-7.02,1.11-10.57,1.22-1.03.03-2.03.14-3.02.44-1.47.44-2.23,1.49-3.01,2.76-.83,1.35-1.77,2.72-2.38,4.18-.65,1.55-.95,3.37-1.05,5.04s.38,3.18.5,4.77c.09,1.07.21,2.1.6,3.11.28.73.67,1.42,1.05,2.11.53.97,1.21,1.21,2.23,1.57,3,1.06,6.46.76,9.58,1.25,1.76.28,3.52.35,5.29.51,2.24.19,4.49.59,6.68,1.09,4.22.96,8.36,2.67,12.25,4.58,2.47,1.21,4.91,2.47,7.25,3.91.84.52,1.71,1,2.59,1.47.33.18.71.35,1.02.57.13.09.34.37.49.41,1.01.32,1.28-3.63,1.37-4.29.18-1.34-.09-2.65-.24-3.98-.17-1.52-.27-3.09-.21-4.62.05-1.38.04-2.58-.26-3.94-.49-2.24-.89-4.51-1.39-6.75-.96-4.31-1.29-8.6-.87-13.01.28-2.94.48-5.89.66-8.85.06-.91.04-1.82-.02-2.73-.04-.65-.27-1.13-.46-1.75-.24-.8-.88-1.49-1-2.33"/><path class="cls-2" d="m122.62,99.79c.46.41,1.42.84,2.42.84,1.42,0,2.45-.65,2.45-1.66,0-.65-.41-1.27-1.03-1.42l-3-.87c-2.16-.53-3.38-2.67-3.38-4.79,0-3.2,2.66-5.29,5.62-5.29,1.92,0,3.6.82,4.61,1.95l-2.79,2.33c-.31-.36-1.06-.67-1.85-.67-1.18,0-1.99.7-1.99,1.71,0,.65.41,1.27,1.03,1.39l3.03.87c2.16.53,3.38,2.69,3.38,4.81,0,3.15-2.81,5.24-5.98,5.24-2.26,0-4.27-.91-5.38-2.21l2.86-2.24Z"/><path class="cls-2" d="m134.41,86.95h11.52v3.61h-7.92v2.89h7.56v3.61h-7.56v3.25h8.28v3.61h-11.88v-16.95Z"/><path class="cls-2" d="m149.53,86.95h7.39c2.88,0,5.23,2.36,5.23,5.24s-2.35,5.22-5.23,5.22h-3.79v6.49h-3.6v-16.95Zm3.6,3.61v3.25h3.79c.91,0,1.63-.7,1.63-1.61s-.72-1.64-1.63-1.64h-3.79Z"/><path class="cls-2" d="m163.21,86.95h12.96v3.61h-4.68v13.35h-3.6v-13.35h-4.68v-3.61Z"/><path class="cls-2" d="m178.42,86.95h11.52v3.61h-7.92v2.89h7.56v3.61h-7.56v3.25h8.28v3.61h-11.88v-16.95Z"/><path class="cls-2" d="m193.54,86.95h5.14l4.39,12.17,4.44-12.17h5.11v16.95h-3.6v-10.58l-3.84,10.58h-4.2l-3.84-10.51v10.51h-3.6v-16.95Z"/><path class="cls-2" d="m216.2,86.95h7.39c2.88,0,5.23,2.26,5.23,5,0,1.03-.34,1.97-.89,2.77.96,1.01,1.61,2.41,1.61,3.97,0,2.89-2.35,5.22-5.23,5.22h-8.11v-16.95Zm3.6,3.61v2.77h3.79c.91,0,1.63-.6,1.63-1.37s-.72-1.4-1.63-1.4h-3.79Zm4.51,6.37h-4.51v3.37h4.51c.91,0,1.63-.7,1.63-1.61s-.74-1.76-1.63-1.76Z"/><path class="cls-2" d="m231.75,86.95h11.52v3.61h-7.92v2.89h7.56v3.61h-7.56v3.25h8.28v3.61h-11.88v-16.95Z"/><path class="cls-2" d="m254.26,86.95c2.88,0,5.23,2.36,5.23,5.24,0,2.28-1.49,4.23-3.53,4.93l1.49,2.72c.43.79,1.39,1.06,2.21.62l1.73,3.17c-2.54,1.37-5.71.46-7.1-2.07l-2.26-4.16h-1.56v6.49h-3.6v-16.95h7.39Zm-3.79,3.61v3.25h3.79c.91,0,1.63-.7,1.63-1.61s-.72-1.64-1.63-1.64h-3.79Z"/></g></g></svg>