<?xml version="1.0" encoding="UTF-8"?><svg id="Layer_2" xmlns="http://www.w3.org/2000/svg" width="370" height="192" xmlns:xlink="http://www.w3.org/1999/xlink" viewBox="0 0 370 192"><defs><style>.cls-1{fill:url(#linear-gradient);}.cls-1,.cls-2,.cls-3,.cls-4,.cls-5,.cls-6,.cls-7,.cls-8,.cls-9,.cls-10,.cls-11,.cls-12,.cls-13,.cls-14,.cls-15{stroke-width:0px;}.cls-2{fill:url(#linear-gradient-6);}.cls-4{fill:#e0e0e0;}.cls-5{fill:url(#linear-gradient-5);}.cls-6{fill:#d9e021;}.cls-6,.cls-14{opacity:.71;}.cls-7{fill:#418c46;}.cls-8{fill:#588c5c;}.cls-9{fill:#5bab60;}.cls-10{fill:url(#linear-gradient-2);}.cls-11{fill:url(#linear-gradient-3);}.cls-12{fill:#ffefe1;}.cls-13{fill:#dbdbdb;}.cls-14{fill:#8cc63f;}.cls-15{fill:url(#linear-gradient-4);}</style><linearGradient id="linear-gradient" x1="528.14" y1="216.77" x2="553.54" y2="308.74" gradientTransform="translate(-346.19 552.37) rotate(-75.35)" gradientUnits="userSpaceOnUse"><stop offset="0" stop-color="#6c9"/><stop offset="1" stop-color="#9fc"/></linearGradient><linearGradient id="linear-gradient-2" x1="557.49" y1="347.93" x2="520.96" y2="308.53" gradientTransform="translate(-273.9 686.57) rotate(-95.23)" gradientUnits="userSpaceOnUse"><stop offset="0" stop-color="#f5f5f5"/><stop offset="1" stop-color="#703e78"/></linearGradient><linearGradient id="linear-gradient-3" x1="566.55" y1="349.46" x2="600.58" y2="300.07" xlink:href="#linear-gradient-2"/><linearGradient id="linear-gradient-4" x1="572.46" y1="356.06" x2="609.62" y2="373.86" gradientTransform="translate(-273.9 686.57) rotate(-95.23)" gradientUnits="userSpaceOnUse"><stop offset="0" stop-color="#f7f7f7"/><stop offset="1" stop-color="#703e78"/></linearGradient><linearGradient id="linear-gradient-5" x1="564.12" y1="359.93" x2="570.89" y2="406.7" gradientTransform="translate(-273.9 686.57) rotate(-95.23)" gradientUnits="userSpaceOnUse"><stop offset="0" stop-color="#ededed"/><stop offset="1" stop-color="#703e78"/></linearGradient><linearGradient id="linear-gradient-6" x1="518.49" y1="365.89" x2="563.44" y2="352.89" gradientTransform="translate(-273.9 686.57) rotate(-95.23)" gradientUnits="userSpaceOnUse"><stop offset="0" stop-color="#703e78"/><stop offset="1" stop-color="#fff"/></linearGradient></defs><path class="cls-1" d="m13.54,192l356.46-98.5L11.94,0s-27.9,106.63,1.59,192Z"/><path class="cls-12" d="m103.47,166.81l266.53-73.31L102.18,23.56s-20.81,79.54,1.29,143.25Z"/><path class="cls-8" d="m87.77,96.74c-3.51,1.42-7.11,2.65-10.49,4.37-4.41,2.31-8.52,5.15-12.38,8.27-6.71,4.98-11.45,9.86-13.94,18.04-.38,1.16-.45,1.36-.77,2.39-.06.28-.23.57-.14.86.06.39.47.66.86.63.92-.12.83-1.43.99-1.56.38-1.21.66-2.08,1.24-3.59,2.24-6.4,6.26-10.52,11.48-14.49,3.92-3.24,9.39-7.08,13.21-9.03,3.26-1.66,6.72-2.87,10.12-4.22.32-.13.71-.23.85-.58.31-.62-.36-1.37-1.02-1.1Z"/><path class="cls-8" d="m25.55,92.26c1.35,1.08,2.99,1.69,4.55,2.42,1.89.92,3.8,1.78,5.82,2.37,2.37.72,4.84,1.06,7.28,1.49,2.95.6,5.92,1.03,8.91,1.37,4.05.68,8.1,1.39,12.17,1.88,5.37.37,10.76.18,16.07-.68,1.02-.35,4.76-.59,4.38-2-.45-1.12-1.19-.45-1.8-.26-1.37.35-2.35.6-3.26.73-5,.8-10.88.94-15.21.61-3.42-.45-6.84-.94-10.23-1.55-3.06-.55-6.18-.73-9.23-1.37-3.6-.64-7.66-1.22-10.05-2.13-2.56-.97-6.08-2.55-7.89-3.54-.37-.21-.66-.63-1.12-.59-.6.04-.88.87-.39,1.25Z"/><path class="cls-8" d="m48.94,55.14c-.23,11.53,3.79,23.03,10.73,32.21.83,1.05,1.82,1.95,2.78,2.89.87,1.03,2.53,2.58,4.11,3.73,3.24,2.29,6.87,4.07,10.58,5.48,1.84.59,3.76,1.04,5.71.86.51-.03,1.19.01,1.35-.6.2-.52-.29-1.12-.84-1.05-.7.02-1.4.12-2.1.07-.64,0-3.3-.63-4.17-.99-5.48-2.29-10.35-4.9-13.81-8.94-1.89-1.68-3.55-3.84-5.03-6.44-3.11-4.88-5.55-10.89-6.6-16.41-.65-2.75-1.03-5.54-1.06-8.37-.03-.86,0-1.71-.02-2.57-.02-.22-.12-.41-.29-.55-.52-.46-1.42,0-1.33.7Z"/><path class="cls-9" d="m49.25,56.83c-.5.99-.99,1.97-1.61,2.88-.31.46-.61.93-.89,1.41-.38.66-.78,1.31-1.14,1.98s-.78,1.23-1.19,1.85c-.18.28-.3.6-.5.87s-.44.52-.67.77c-1.14,1.26-2.97,1.57-4.54,1.01-.67-.23-1.34-.73-1.8-1.26-.25-.29-.52-.58-.69-.92s-.19-.79-.2-1.18c0-.33-.03-.68.05-1,.1-.42.39-.71.6-1.08.38-.64.78-1.12,1.36-1.58s1.12-.93,1.78-1.26c.71-.36,1.39-.79,2.15-1.04.39-.13.76-.33,1.15-.46s.77-.21,1.15-.35c.71-.25,1.43-.49,2.17-.64.61-.12,1.18-.25,1.77-.44.35-.11.7-.28,1.06-.3"/><path class="cls-9" d="m47.94,56.11c-1.1,2.16-2.45,4.16-3.64,6.27-.28.5-.6.97-.92,1.44-.28.41-.49.9-.79,1.27-.5.63-1.08,1.12-1.86,1.25s-1.58-.05-2.22-.53c-.3-.23-.74-.61-.91-.96-.14-.29-.17-.94-.08-1.25s.45-.71.64-.99c.26-.38.59-.69.94-.98.84-.7,1.78-1.21,2.75-1.69,1.19-.59,2.52-.95,3.78-1.35.62-.19,1.26-.31,1.89-.46.58-.13,1.2-.46,1.78-.54.8-.11,1.48-.66,1.46-1.54-.02-.74-.73-1.57-1.54-1.46-.73.1-1.39.36-2.1.55s-1.4.29-2.09.49c-1.45.43-2.91.9-4.29,1.52s-2.5,1.32-3.62,2.23c-.55.45-1.01.93-1.42,1.51-.39.54-.84,1.15-1.04,1.79-.41,1.31-.18,2.99.65,4.08.91,1.18,2.12,2.13,3.6,2.45,2.75.6,5.29-.78,6.62-3.19.38-.69.87-1.3,1.27-1.98.42-.73.83-1.47,1.26-2.2.84-1.44,1.74-2.8,2.5-4.29.87-1.72-1.75-3.18-2.63-1.45h0Z"/><path class="cls-7" d="m48.68,56.29c-.99.42-2.06.59-3.09.9-.45.13-.89.22-1.35.31-.39.08-.75.22-1.13.31-.93.22-1.85.47-2.79.63-.69.12-1.43.24-2.13.23-.91,0-1.77-.43-2.39-1.1-.56-.61-.93-1.3-1.24-2.07-.52-1.31-.31-2.98.82-3.91.71-.58,1.49-1.03,2.39-1.27,1.01-.27,2.07-.37,3.11-.28.81.07,1.69.27,2.41.67.6.34,1.16.71,1.68,1.15s1.09.93,1.58,1.45c.44.46.98.88,1.48,1.29.17.14.35.26.52.4s.33.18.51.28c.2.11.4.27.65.21"/><path class="cls-7" d="m48.27,54.85c-2.11.84-4.48,1.27-6.69,1.8-1.08.26-2.31.62-3.43.54-.83-.06-1.38-.66-1.77-1.34s-.73-1.48-.51-2.28,1.02-1.29,1.74-1.59c2.02-.85,4.36-.51,6.08.79.98.75,1.79,1.68,2.73,2.47s2.01,1.75,3.33,1.78c1.93.06,1.86-2.94-.07-3h-.23c.25.06.51.12.76.18-1.09-.47-1.96-1.3-2.79-2.13-.98-.98-2.08-1.89-3.29-2.58-2.48-1.41-6.03-1.26-8.49.13-1.2.68-2.16,1.62-2.6,2.94-.39,1.17-.28,2.47.18,3.6.54,1.32,1.32,2.55,2.55,3.32s2.57.78,3.93.58c1.61-.24,3.16-.66,4.74-1.06s3.17-.67,4.67-1.27c.75-.3,1.27-1.02,1.03-1.86-.21-.72-1.1-1.33-1.86-1.03h0Z"/><path class="cls-9" d="m49.78,54.83c-.28-.42-.51-.84-.7-1.31-.22-.55-.48-1.09-.69-1.65-.35-.93-.66-1.88-.83-2.86-.23-1.34-.46-2.68-.48-4.05-.02-1.17,0-2.36.11-3.52.17-1.86.89-3.99,2.49-5.11.59-.41,1.38-.9,2.14-.8.53.07,1.01.2,1.39.6.88.92,1.37,2.29,1.28,3.56-.06.85-.13,1.71-.34,2.54-.23.92-.5,1.82-.77,2.73-.33,1.08-.58,2.18-.91,3.26-.38,1.25-.68,2.53-1.06,3.79-.12.4-.27.79-.39,1.19-.09.31-.13.64-.25.94-.07.18-.11.35-.16.53-.04.12-.12.21-.08.34"/><path class="cls-9" d="m51.06,54.06c-1.82-2.84-2.5-6.51-2.5-9.84,0-1.53,0-3.15.53-4.6.36-.98,1.29-2.48,2.47-2.6,1.33-.13,1.45,2.26,1.39,3.07-.14,1.81-.77,3.5-1.25,5.24s-.98,3.53-1.47,5.3c-.4,1.44-1.11,2.95-1.22,4.43-.06.81.78,1.47,1.54,1.46.87-.01,1.4-.73,1.46-1.54v-.18c-.05.25-.11.51-.17.76.58-1.4.96-2.95,1.36-4.42.47-1.71.95-3.42,1.42-5.12.87-3.11,2.24-6.62.57-9.71-.73-1.34-1.98-2.3-3.55-2.3-1.44,0-2.92.94-3.85,2-2.08,2.36-2.25,5.63-2.22,8.62.04,3.69.9,7.81,2.92,10.95,1.04,1.63,3.62.09,2.58-1.54h0Z"/><path class="cls-7" d="m50.92,54.46c.28-1.8.82-3.51,1.24-5.28.18-.75.31-1.51.49-2.26s.39-1.48.59-2.22c.39-1.48.77-2.95,1.32-4.38.45-1.19.9-2.4,1.65-3.45.53-.74,1.25-1.39,2-1.91.45-.32,1-.59,1.55-.67.52-.08,1.2.04,1.67.28.7.37,1.36.87,1.9,1.45s.9,1.19,1.15,1.94c.39,1.19.03,2.42-.36,3.55-.23.65-.5,1.2-.92,1.75s-.85,1.05-1.3,1.54c-.79.88-1.63,1.73-2.51,2.53-1.07.97-2.23,1.82-3.27,2.82-1.11,1.07-2.15,2.2-3.25,3.28-.57.56-1.19,1.08-1.73,1.68-.22.24-.48.44-.61.74"/><path class="cls-7" d="m52.38,54.81c.34-2.04.97-4.01,1.41-6.03s.96-4.11,1.57-6.14c.56-1.87,1.2-4.08,2.59-5.52.53-.54,1.31-1.32,2.12-1.36.7-.04,1.37.53,1.85.97,3.39,3.16-1.24,7.43-3.6,9.55-1.6,1.44-3.24,2.77-4.75,4.31-1.41,1.44-3.28,2.81-4.35,4.54s1.62,3.09,2.63,1.45c.43-.7,1.22-1.26,1.81-1.82.81-.77,1.57-1.58,2.35-2.37,1.41-1.44,2.96-2.67,4.45-4.01,2.68-2.41,5.79-5.56,5.68-9.46-.1-3.2-3.6-6.84-6.96-6.05-3.73.88-5.43,5.02-6.49,8.26-.69,2.14-1.27,4.35-1.73,6.55s-1.13,4.24-1.49,6.41c-.31,1.89,2.6,2.61,2.92.7h0Z"/><path class="cls-9" d="m50.97,56.76c.93.4,1.77.97,2.68,1.42s1.86.93,2.78,1.41c.56.28,1.13.49,1.7.74.44.2.87.43,1.33.61.93.38,1.93.76,2.92.96,1.09.22,2.3.44,3.4.19.78-.18,1.62-.51,2.19-1.1.62-.64.9-1.51,1.09-2.35.22-.97.35-1.98.04-2.94-.36-1.12-1.02-2.08-1.92-2.82-1.09-.9-2.49-1.25-3.87-1.37-1.09-.09-2.17-.17-3.26-.02-1.2.17-2.43.62-3.48,1.21-1.67.93-3.23,2.05-4.87,3.02-.12.07-.23.14-.35.21s-.2.14-.3.21c-.12.08-.33.24-.48.27"/><path class="cls-9" d="m50.25,58.07c1.6.72,3.13,1.64,4.69,2.44,1.44.73,2.93,1.41,4.43,1.99,2.98,1.17,7.29,2.19,9.77-.57,2.27-2.52,2.07-6.68,0-9.2s-6.11-3.17-9.32-2.71c-2.01.29-3.77,1.19-5.47,2.25-.86.54-1.7,1.1-2.56,1.63-.5.31-1.16.86-1.65,1.06-.75.3-1.27,1.02-1.03,1.86.21.72,1.1,1.33,1.86,1.03.98-.39,1.9-1.07,2.78-1.63,1.23-.78,2.44-1.62,3.73-2.31s2.62-1.01,4.05-1c1.25,0,2.63.07,3.78.58,2.34,1.03,3.11,3.89,1.86,6.08s-5.23.79-6.98.06c-1.39-.58-2.76-1.22-4.11-1.9-1.46-.74-2.89-1.6-4.38-2.28-1.75-.79-3.21,1.83-1.45,2.63h0Z"/><path class="cls-7" d="m50.84,56.77c1.2.51,2.33,1.13,3.45,1.78s2.2,1.19,3.31,1.76c.92.48,1.84.98,2.76,1.46.48.25.96.51,1.45.73s1.01.42,1.47.69c.85.49,1.74,1.02,2.17,1.93.27.57.53,1.14.7,1.74.2.68.17,1.33.22,2.03.05.76-.09,1.58-.4,2.28-.35.79-1.04,1.48-1.85,1.8-.55.22-1.22.2-1.8.19-.63-.01-1.2-.17-1.79-.36-.67-.22-1.32-.5-1.91-.88-.77-.51-1.45-1.18-2.08-1.85s-1.23-1.33-1.74-2.06-.91-1.47-1.32-2.23c-.68-1.25-1.34-2.5-1.92-3.81-.23-.52-.44-1.05-.66-1.57-.18-.42-.38-.82-.53-1.25s-.34-.91-.43-1.39c-.04-.24-.12-.47-.14-.71"/><path class="cls-7" d="m50.12,58.08c1.39.6,2.68,1.36,4,2.09,1.41.79,2.86,1.5,4.29,2.25,1.26.67,2.54,1.26,3.81,1.89.51.25,1.03.54,1.47.91.5.44.75,1.13.96,1.75.37,1.11.52,2.87-.18,3.89s-1.92.92-2.97.65c-2.76-.72-4.86-3.23-6.22-5.62-.84-1.48-1.65-2.99-2.34-4.55-.6-1.36-1.39-2.84-1.6-4.33-.11-.8-.66-1.48-1.54-1.46-.74.02-1.58.73-1.46,1.54.25,1.75.96,3.3,1.64,4.91.74,1.74,1.6,3.41,2.51,5.06,1.74,3.14,4.36,6.14,7.86,7.25,1.65.52,3.7.61,5.2-.38s2.27-2.71,2.35-4.48-.29-3.74-1.25-5.31c-.88-1.45-2.48-2.22-3.97-2.89-1.86-.84-3.64-1.89-5.45-2.82s-3.69-2.13-5.65-2.97c-.74-.32-1.62-.17-2.04.59-.36.66-.16,1.71.59,2.04h0Z"/><path class="cls-7" d="m50.03,128.9c-.84-.65-1.78-1.15-2.64-1.8-.65-.49-1.28-1.02-1.94-1.5-1.36-1-2.8-1.89-4.14-2.91-1.7-1.29-3.5-2.43-5.29-3.58-.71-.46-1.42-.93-2.15-1.36-.59-.35-1.06-.8-1.52-1.31-.94-1.03-1.71-2.06-2.23-3.36-.32-.8-.33-1.71.08-2.48.12-.22.3-.33.49-.49.3-.27.55-.51.93-.66.84-.34,1.84-.66,2.75-.69s1.88-.05,2.81.04c1.28.13,2.42.58,3.55,1.19.89.49,1.7.98,2.29,1.84.79,1.13,1.41,2.35,1.84,3.65,1.02,3.05,2.17,6.04,3.49,8.98.54,1.2,1.09,2.4,1.77,3.53.23.38.43.94.81,1.19"/><path class="cls-7" d="m51.08,127.82c-3.07-2.29-6.27-4.41-9.35-6.69-1.61-1.19-3.29-2.26-4.97-3.34-1.54-.99-2.97-1.84-4.1-3.32-.78-1.03-1.99-2.72-.51-3.61s3.94-.83,5.56-.47,3.34,1.17,4.25,2.51c1.1,1.61,1.61,3.45,2.27,5.27.77,2.14,1.61,4.24,2.53,6.32.48,1.09.97,2.18,1.52,3.23.45.85.9,1.88,1.63,2.53,1.44,1.28,3.54-.86,2.1-2.15-.67-.59-1.11-1.83-1.51-2.63-.53-1.08-1.02-2.18-1.49-3.28-.91-2.16-1.74-4.35-2.49-6.57-.67-1.97-1.51-4.19-3.08-5.63-1.46-1.33-3.58-2.32-5.53-2.62-3.43-.53-9.96.08-9.46,4.97.2,1.97,1.58,3.75,2.88,5.17,1.46,1.59,3.53,2.61,5.33,3.78,2.22,1.43,4.31,3.02,6.49,4.51.96.66,1.87,1.35,2.79,2.06.98.76,2.06,1.37,3.05,2.12.65.49,1.5.6,2.12-.03.51-.51.62-1.64-.03-2.12h0Z"/><path class="cls-9" d="m50.42,129.22c-1.23-.14-2.43-.28-3.67-.19-1.37.1-2.74.25-4.1.37-2.87.26-5.77.54-8.61-.11-1.6-.36-3.15-.94-4.61-1.66-1.55-.77-2.85-1.84-3.88-3.24-.72-.98-1.25-2.28-1.21-3.52.02-.73.29-1.8.9-2.29.5-.4,1.13-.79,1.76-.89,1.01-.16,2.12.03,3.12.18,1.41.22,2.83.63,4.18,1.1,1.93.67,3.67,1.71,5.42,2.75,1.34.79,2.66,1.64,3.96,2.5s2.61,1.91,3.96,2.8c.69.45,1.39.85,2.02,1.39.21.18.44.32.65.49.11.09.19.22.31.3"/><path class="cls-9" d="m50.77,127.76c-2.47-.28-4.78-.19-7.25.05s-5.16.58-7.71.27c-2.31-.28-4.73-1.09-6.69-2.35-1.61-1.04-3.56-3.01-3.26-5.11.35-2.48,4.24-1.3,5.79-.9,2.37.61,4.49,1.63,6.59,2.87s4.18,2.52,6.15,3.95c1.7,1.23,3.63,2.29,5.16,3.73,1.41,1.32,3.51-.83,2.1-2.15s-3.16-2.29-4.74-3.43c-1.91-1.38-3.85-2.7-5.87-3.93-3.92-2.38-8.08-4.37-12.74-4.63-1.93-.11-4,.65-4.92,2.46s-.59,3.8.24,5.48c1.88,3.82,6.34,5.88,10.31,6.71,5.38,1.13,10.76-.74,16.15-.12,1.89.22,2.62-2.7.7-2.92h0Z"/><path class="cls-13" d="m51.54,130.27c1.93,0,1.86-3-.07-3s-1.86,3,.07,3h0Z"/><path class="cls-7" d="m51.39,129.48c-.33,1.11-.75,2.22-.91,3.37-.1.72-.23,1.41-.26,2.15-.03.87-.13,1.74-.18,2.61s-.08,1.67-.11,2.51c-.04,1-.15,1.99-.15,2.98,0,.93.21,1.85.18,2.78-.04,1.02-.2,2.02-.66,2.95-.58,1.18-1.87,1.83-3.16,1.71-1.41-.13-3.04-.72-3.88-1.93-.56-.8-1.01-1.66-1.38-2.57-.23-.58-.4-1.15-.51-1.77-.14-.86-.03-1.7.15-2.54.34-1.62.94-3.21,1.79-4.63.37-.63.83-1.19,1.26-1.77.41-.55.82-1.07,1.32-1.54s1.05-.94,1.59-1.39c.6-.5,1.24-.9,1.88-1.34.76-.52,1.5-1.05,2.23-1.62.33-.26.5-.42.63-.81"/><path class="cls-7" d="m49.93,129.13c-.47,1.54-.89,3.02-1.09,4.62s-.28,3.3-.35,4.94c-.08,1.73-.31,3.51-.17,5.24.11,1.4.45,3.37-.57,4.54-.83.95-2.36.56-3.33.05-1.24-.66-1.95-2.3-2.35-3.59-.91-2.92.85-6.29,2.58-8.55,1.12-1.46,2.47-2.66,4-3.7,1.27-.86,3.27-1.85,3.89-3.32.73-1.76-1.88-3.23-2.63-1.45-.28.67-1.25,1.13-1.83,1.53-.79.56-1.61,1.07-2.37,1.68-1.56,1.24-2.8,2.6-3.98,4.2-2.16,2.93-3.7,7.22-2.42,10.8.57,1.61,1.42,3.39,2.79,4.46,1.27.99,3.09,1.6,4.72,1.46,1.84-.16,3.34-1.32,4.03-3.02.78-1.93.5-3.75.44-5.75-.07-2.3.17-4.69.35-6.99s.55-4.27,1.21-6.44c.56-1.85-2.35-2.54-2.92-.7h0Z"/><path class="cls-9" d="m50.89,129.7c-.31,1.59-.7,3.16-.96,4.76-.12.74-.25,1.49-.32,2.24-.09.93-.09,1.86-.09,2.8,0,1.86.07,3.74.39,5.57.31,1.74.72,3.53,1.53,5.12.64,1.26,1.71,2.39,3.06,2.88s2.78.1,3.77-.87c.46-.45.83-.99,1.2-1.51.32-.45.58-.89.76-1.42.56-1.68.85-3.33.84-5.11-.01-1.45-.31-2.9-.79-4.26-.4-1.13-1.14-2.11-1.84-3.07-.56-.76-1.15-1.48-1.84-2.13-.58-.55-1.19-1.06-1.73-1.65-.78-.85-1.71-1.58-2.32-2.58-.22-.36-.59-.56-.79-.93-.06-.11-.1-.23-.16-.33s-.23-.19-.24-.32"/><path class="cls-9" d="m49.43,129.35c-.43,2.18-.95,4.34-1.23,6.55s-.25,4.62-.07,6.9c.29,3.76,1.09,8.57,4.4,10.9,3.62,2.55,7.55-.06,9-3.7s1.48-8.74-.68-12.31c-1.19-1.98-2.75-3.56-4.39-5.15-1.36-1.32-2.9-2.77-3.83-4.42s-3.52-.15-2.58,1.54c1.88,3.34,5.34,5.47,7.55,8.58,2.43,3.42,2.84,8.93.11,12.35-1.34,1.67-3.18,1.36-4.41-.24s-1.74-4.16-2.02-6.22c-.31-2.28-.37-4.7-.2-6.99s.81-4.74,1.28-7.08c.38-1.89-2.54-2.6-2.92-.7h0Z"/><path class="cls-7" d="m51.97,128.5c.24-.12.45-.1.72-.08.43.03.78.12,1.18.28.47.19.92.38,1.35.66.33.21.66.43.99.65s.62.42.92.65c.4.3.81.56,1.24.81.83.49,1.64,1,2.51,1.42s1.71.71,2.64.77c.8.06,1.6,0,2.38-.23,2.16-.62,4.07-2.54,4.46-4.79.17-.96.11-1.99-.31-2.88-.24-.5-.56-1.08-.93-1.48s-.83-.75-1.31-1.04c-1.08-.65-2.46-.81-3.7-.83s-2.41.17-3.56.52-2.24.94-3.35,1.44c-.9.41-1.76.91-2.57,1.48-.35.25-.72.42-1.08.64-.29.17-.59.39-.87.58-.19.14-.36.3-.54.44-.08.07-.17.11-.23.21"/><path class="cls-7" d="m52.39,129.94c.54-.18,1.39.32,1.85.58.7.39,1.36.87,2.01,1.34,1.37,1,2.91,1.94,4.48,2.6,3.17,1.33,6.88.74,9.24-1.85s2.67-6.13.63-8.87c-2.17-2.91-6.22-3.21-9.51-2.49-1.92.42-3.82,1.36-5.54,2.29-.91.49-1.74,1.09-2.63,1.6-.72.42-1.51.94-2.08,1.55-1.32,1.41.83,3.51,2.15,2.1-.02.02-.31.23.08-.09.12-.1.24-.2.36-.29.24-.18.49-.36.75-.52.64-.4,1.28-.79,1.92-1.19,1.27-.81,2.7-1.48,4.1-2.04,2.24-.89,5.64-1.37,7.59.41s1.26,4.61-.63,6.09c-2.33,1.83-4.95.84-7.22-.5-1.29-.76-2.48-1.63-3.73-2.45s-3.1-1.67-4.64-1.15c-1.83.62-1,3.5.83,2.88h0Z"/><path class="cls-9" d="m52.01,127.53c1.03-.8,2.25-1.28,3.37-1.95.46-.28.86-.63,1.31-.92.47-.31.96-.61,1.46-.87,1.1-.58,2.2-1.21,3.21-1.94.73-.53,1.53-1.02,2.22-1.61.32-.27.64-.57.87-.92.2-.3.37-.68.5-1.01.27-.69.27-1.48.15-2.21-.11-.66-.37-1.34-.86-1.81-.63-.61-1.48-.91-2.33-1.02-.54-.07-1.08-.13-1.62-.08s-1.03.22-1.55.36c-1.24.34-2.49.76-3.47,1.64-.5.44-.98.95-1.38,1.49-.37.5-.65,1.03-.91,1.6-.42.9-.93,1.77-1.27,2.71-.62,1.76-.59,3.63-.61,5.47,0,.49.1,1.01.04,1.5-.02.15-.04.29-.07.44-.02.08-.07.17-.07.26"/><path class="cls-9" d="m52.78,128.82c1.26-.94,2.76-1.48,4.03-2.41,1.42-1.03,3.02-1.76,4.49-2.71,1.36-.87,2.93-1.81,4-3.04s1.54-2.88,1.33-4.48c-.22-1.68-1.04-3.12-2.62-3.86-1.48-.69-3.32-.82-4.9-.42s-3.12.87-4.39,1.84-2.31,2.32-3.03,3.82c-.83,1.71-1.66,3.33-1.89,5.24-.12,1-.15,2-.16,3.01,0,.83.16,1.7-.07,2.5-.52,1.86,2.4,2.56,2.92.7.36-1.27.13-2.66.16-3.97s.13-2.7.66-3.96c.96-2.28,2.16-4.81,4.65-5.71,1.59-.57,5.19-1.59,5.69.92.22,1.13-.18,2.07-1.02,2.81-1,.88-2.2,1.64-3.33,2.33-1.38.84-2.8,1.54-4.11,2.48-1.24.9-2.7,1.41-3.92,2.33-.65.49-.97,1.31-.52,2.06.38.64,1.41,1.01,2.06.52h0Z"/><path class="cls-10" d="m26.79,93.15c-.19.85-.28,1.71-.53,2.55-.2.67-.36,1.34-.48,2.02-.13.78-.28,1.57-.5,2.33-.12.4-.17.8-.26,1.21-.16.7-.37,1.39-.6,2.07-.8,2.4-2.48,4.38-4.27,6.14-.65.63-1.47,1.12-2.27,1.55-.65.36-1.38.72-2.14.71-.32,0-.73.03-1.01-.12-.19-.1-.26-.3-.43-.42-.51-.37-1.2.19-1.58-.41-.13-.21-.22-.45-.37-.65-.1-.13-.22-.17-.33-.28-.48-.44-.25-1.01-.36-1.56-.08-.44-.36-.79-.41-1.23-.05-.54,0-1.06-.05-1.59-.05-.63.19-1.29.41-1.87.39-1.03,1.21-2.01,1.99-2.76,1.05-1.01,2.29-1.76,3.52-2.53s2.62-1.46,3.92-2.16c1.09-.58,2.2-1.13,3.28-1.72.47-.25.92-.55,1.4-.78.26-.12.58-.23.76-.47"/><path class="cls-13" d="m26.75,93.14c-.1.45-.17.91-.26,1.37s-.2.91-.32,1.35-.24.9-.33,1.36-.16.92-.25,1.37-.19.91-.32,1.35-.19.89-.3,1.33-.23.89-.36,1.34-.26.84-.42,1.25c-.6,1.51-1.55,2.87-2.63,4.08-.27.3-.55.6-.83.89s-.56.58-.87.85c-.65.56-1.4.99-2.15,1.39-.39.21-.8.41-1.23.52-.4.11-.82.12-1.23.09-.19-.01-.4-.04-.56-.15-.13-.1-.21-.26-.34-.36-.25-.2-.56-.17-.86-.14-.14.01-.29.02-.43-.02-.18-.06-.28-.2-.37-.35-.1-.18-.18-.37-.3-.53-.12-.15-.29-.23-.42-.37-.25-.28-.23-.66-.24-1.01,0-.18-.01-.36-.06-.54-.05-.19-.13-.36-.2-.54-.09-.2-.16-.41-.18-.63s-.03-.46-.03-.69,0-.47,0-.71-.02-.46.01-.69c.06-.44.21-.86.37-1.28s.35-.77.58-1.13c.95-1.45,2.33-2.53,3.77-3.47.75-.48,1.5-.96,2.28-1.39s1.62-.87,2.43-1.3,1.65-.87,2.48-1.3c.41-.21.83-.43,1.23-.65s.78-.46,1.18-.67c.32-.16.7-.27.92-.55.04-.05-.03-.12-.07-.07-.12.15-.29.25-.47.33-.19.09-.38.17-.56.27-.41.21-.8.46-1.2.68-.84.45-1.7.89-2.55,1.33-1.65.86-3.31,1.72-4.89,2.7-.75.47-1.49.93-2.19,1.47s-1.31,1.11-1.86,1.76c-.27.33-.53.67-.75,1.04s-.38.74-.53,1.13c-.15.42-.29.86-.31,1.31-.01.23.01.45.02.68s0,.47,0,.7,0,.46.05.68c.04.2.13.38.2.56s.16.39.19.59c.02.18.02.36.02.53,0,.35.05.7.32.95.06.06.13.1.19.15.1.07.18.16.24.27.11.17.18.36.29.53.18.27.45.32.76.3.32-.02.67-.07.91.18.11.12.2.27.35.35s.34.11.52.12c.41.03.83.02,1.22-.08.42-.1.82-.29,1.2-.49s.77-.42,1.14-.65.71-.46,1.03-.73.62-.57.91-.87c1.14-1.16,2.2-2.43,2.97-3.86.4-.74.7-1.52.95-2.33.14-.46.28-.92.39-1.39s.17-.91.3-1.35.24-.92.33-1.39.16-.93.25-1.39.21-.92.34-1.37.24-.91.33-1.37.16-.9.26-1.35c.01-.06-.08-.09-.1-.03h0Z"/><path class="cls-11" d="m26.18,93.8c-.8.5-1.65.87-2.52,1.21-1.09.42-2.28.6-3.43.65-.61.03-1.27-.06-1.86-.23-1.15-.34-2.29-.84-3.35-1.39-.93-.49-1.81-1.16-2.62-1.83-.69-.58-1.25-1.25-1.76-1.99-.25-.36-.49-.72-.69-1.11-.15-.3-.36-.58-.48-.89-.09-.22-.12-.47-.18-.7-.08-.3-.21-.65-.15-.97.04-.21.18-.38.18-.6,0-.36-.12-.72-.18-1.07-.04-.24-.09-.52-.03-.76.08-.31.37-.52.57-.76.13-.16.16-.44.36-.51.24-.09.35-.04.43-.33.14-.53.32-1.11.68-1.54.18-.22.3-.3.58-.35.16-.03.31-.09.47-.09.14,0,.29,0,.43-.06.15-.08.14-.21.23-.34.34-.49,1.3-.47,1.81-.43.81.06,1.7.1,2.46.4,1.12.45,2.26.82,3.22,1.59.75.6,1.42,1.32,2.09,2.01.63.65,1.22,1.31,1.76,2.03.96,1.26,1.71,2.6,2.29,4.07.29.73.42,1.48.58,2.24.04.19.13.4.13.59"/><path class="cls-13" d="m26.16,93.76c-.76.48-1.58.84-2.42,1.17s-1.7.52-2.58.62c-.43.05-.88.09-1.31.08s-.88-.08-1.31-.19c-.87-.23-1.72-.58-2.54-.96s-1.59-.8-2.32-1.32-1.4-1.05-1.99-1.69-1.09-1.33-1.52-2.06c-.11-.19-.2-.38-.31-.56s-.23-.37-.31-.57-.13-.43-.18-.65-.12-.41-.16-.62c-.04-.22-.03-.42.06-.63.03-.08.07-.16.09-.24.03-.11.03-.21.02-.32-.04-.43-.2-.85-.23-1.28-.02-.21,0-.41.13-.6.1-.15.24-.28.36-.41.11-.12.17-.24.24-.38.03-.07.07-.13.13-.18s.14-.06.22-.08c.1-.03.19-.07.25-.17.08-.15.11-.34.16-.5.11-.38.26-.76.5-1.08.1-.13.21-.27.36-.34.07-.04.15-.05.23-.07.1-.02.2-.05.31-.07.2-.04.41,0,.6-.08.17-.08.18-.23.28-.37.16-.24.48-.34.75-.38.29-.05.59-.05.89-.03.82.05,1.68.08,2.45.37.38.14.76.3,1.14.45s.78.32,1.16.52.74.43,1.07.7.66.58.98.89c1.26,1.24,2.48,2.53,3.46,4.01.47.7.88,1.45,1.24,2.21.19.4.37.81.51,1.23s.24.85.33,1.28c.05.22.09.43.13.65.04.2.13.39.14.6,0,.06.1.06.1,0,0-.21-.09-.4-.14-.61-.05-.22-.09-.45-.14-.67-.1-.45-.2-.91-.36-1.35-.28-.81-.67-1.6-1.09-2.35s-.91-1.48-1.45-2.17c-.56-.72-1.18-1.39-1.82-2.04s-1.25-1.31-1.96-1.86c-.67-.52-1.45-.86-2.23-1.17-.39-.16-.79-.33-1.19-.46s-.84-.2-1.26-.24c-.39-.04-.77-.07-1.16-.09-.3-.01-.61,0-.9.05-.27.05-.55.16-.72.38-.05.06-.08.14-.11.21-.05.11-.14.17-.26.19-.1.02-.2,0-.3.01-.11,0-.22.04-.32.07-.16.04-.32.05-.47.14s-.25.22-.35.35c-.24.31-.38.69-.5,1.06-.03.09-.06.19-.08.28-.02.09-.04.19-.09.26-.07.1-.22.1-.33.14-.14.05-.21.18-.27.31-.03.06-.06.13-.1.19-.06.08-.13.15-.2.22-.12.12-.24.25-.33.4-.09.17-.11.37-.1.56.03.45.2.88.23,1.33,0,.11,0,.21-.03.32-.03.09-.08.18-.11.28-.07.19-.06.39-.02.59.04.21.11.41.16.62s.09.43.18.64.2.39.31.58.21.39.32.58c.23.39.48.76.75,1.12.5.69,1.07,1.3,1.72,1.84.7.58,1.43,1.13,2.22,1.57s1.64.82,2.49,1.15,1.71.59,2.62.61c.44.01.88-.03,1.31-.08s.89-.12,1.33-.23c.87-.21,1.72-.55,2.53-.94.4-.19.78-.4,1.16-.63.05-.03,0-.12-.05-.09h0Z"/><path class="cls-15" d="m26.7,92.24c-1.42-2.77-2.05-5.83-2.26-8.91-.08-1.17.04-2.31.11-3.47s.27-2.25.58-3.33c.21-.72.5-1.43.89-2.06.32-.51.67-.99,1.22-1.28.22-.11.45-.21.66-.32.19-.1.4-.19.62-.21.21-.02.39.04.59.09.25.07.4-.01.63-.09.18-.06.37-.12.56-.05.2.08.32.27.53.33.19.05.39,0,.59-.02.27-.02.42.06.63.21.12.09.22.21.37.25.19.06.4.05.6.11.37.11.74.23,1.08.43.72.42.94,1.33,1.17,2.07.38,1.26.58,2.65.45,3.97-.07.65-.23,1.3-.34,1.95-.12.73-.33,1.38-.61,2.06-.26.63-.51,1.28-.84,1.87s-.78,1.24-1.22,1.78c-.6.72-1.32,1.35-1.98,2.01-.46.46-.92.92-1.34,1.41-.57.67-1.26,1.22-1.82,1.9"/><path class="cls-13" d="m26.74,92.21c-.74-1.45-1.27-2.99-1.64-4.57-.18-.8-.32-1.61-.43-2.42s-.2-1.63-.21-2.45c-.02-.88.06-1.75.12-2.63s.15-1.72.34-2.56.41-1.63.77-2.39c.16-.35.36-.68.57-1s.45-.59.75-.8c.16-.11.34-.2.51-.28.19-.09.38-.19.57-.27.21-.09.42-.15.65-.12.19.03.37.12.57.11.39-.01.74-.36,1.11-.08.12.09.22.2.36.24.19.06.38.02.57,0s.35,0,.51.09.27.22.42.31c.16.1.36.1.54.13.19.03.38.1.56.16.35.12.72.27.99.53.23.23.39.51.51.81s.21.59.3.89c.11.38.22.76.3,1.15.17.81.25,1.65.21,2.48-.02.44-.08.86-.17,1.29s-.16.84-.23,1.25c-.15.81-.45,1.56-.76,2.32-.16.39-.32.78-.51,1.15s-.41.73-.64,1.07c-.46.69-1,1.32-1.59,1.9s-1.19,1.15-1.77,1.74c-.29.3-.57.63-.86.94s-.56.57-.85.86-.55.55-.8.86c-.04.05.03.12.07.07.53-.64,1.16-1.17,1.71-1.78.58-.64,1.17-1.27,1.8-1.87s1.22-1.15,1.75-1.8,1-1.37,1.36-2.12c.18-.37.33-.75.49-1.13s.31-.77.44-1.17.22-.81.29-1.23.17-.87.25-1.3c.15-.84.16-1.69.07-2.53s-.28-1.58-.51-2.35c-.18-.59-.38-1.23-.87-1.65-.27-.24-.63-.38-.97-.49-.19-.06-.38-.13-.58-.16-.21-.03-.41-.04-.58-.19-.13-.11-.26-.22-.42-.29s-.31-.07-.47-.05c-.21.03-.43.08-.62-.04-.13-.08-.23-.2-.38-.27-.18-.08-.38-.05-.56.01-.17.06-.35.14-.54.13-.21-.02-.4-.11-.61-.12-.2,0-.39.05-.56.13-.2.09-.39.19-.58.28-.18.08-.36.17-.52.28-.29.2-.53.47-.73.76-.47.65-.81,1.39-1.06,2.15-.27.82-.45,1.67-.57,2.53s-.16,1.76-.22,2.63c-.03.44-.04.89-.04,1.33s.04.87.08,1.3c.07.82.18,1.64.32,2.45.28,1.62.73,3.21,1.37,4.72.16.37.33.74.52,1.11.03.06.12,0,.09-.05h0Z"/><path class="cls-5" d="m26.34,93.37c1.26.99,2.6,2.01,4.08,2.66,1.18.52,2.47.88,3.73,1.12s2.56.37,3.84.34c1.07-.03,2.46-.16,3.18-1.07.64-.81,1.09-2.06.79-3.09-.08-.28-.21-.47-.37-.71-.07-.11-.22-.26-.27-.38-.11-.34.24-.76.3-1.09.05-.27.06-.56,0-.83-.03-.13-.06-.25-.04-.39s.07-.13.03-.28c-.08-.24-.34-.33-.45-.54-.09-.18-.05-.45-.04-.64.02-.38.07-.75.01-1.12-.14-.86-.7-1.91-1.45-2.37-.54-.33-1.17-.47-1.78-.57-.57-.09-1.14-.12-1.71.01-.44.1-.79.3-1.19.48-.5.23-.89.59-1.32.94-1.14.93-2.23,1.9-3.23,2.98s-1.98,2.17-2.9,3.33c-.24.3-.45.48-.74.72-.09.07-.28.36-.41.36"/><path class="cls-13" d="m26.3,93.4c1.25.98,2.53,1.97,3.99,2.63s3.14,1.1,4.78,1.33c.84.12,1.69.19,2.55.19.64,0,1.29-.03,1.92-.16.59-.13,1.18-.37,1.59-.82.22-.24.4-.53.55-.83.16-.31.28-.64.35-.98s.1-.67.06-1.01c-.04-.36-.16-.68-.35-.98-.09-.14-.2-.27-.3-.41s-.1-.28-.06-.44.12-.3.19-.45.11-.29.13-.46c.02-.2.03-.4,0-.6-.02-.1-.05-.19-.06-.29-.01-.09,0-.18.03-.26.09-.29-.22-.47-.39-.65-.13-.14-.13-.33-.12-.51.01-.19.02-.39.04-.58.03-.38.01-.74-.09-1.11-.17-.63-.49-1.24-.95-1.7-.51-.52-1.22-.75-1.93-.89-.8-.15-1.65-.22-2.43.07-.17.06-.34.14-.51.22s-.35.16-.52.25c-.33.18-.62.42-.91.66-.62.52-1.25,1.03-1.85,1.58s-1.19,1.14-1.75,1.74-1.15,1.26-1.7,1.9c-.27.32-.55.64-.81.97-.24.3-.48.59-.77.84-.11.09-.22.17-.31.28-.04.05-.09.1-.13.14-.04.04-.09.1-.15.1-.06,0-.06.1,0,.1.12,0,.2-.11.28-.19.04-.05.08-.09.12-.14.05-.05.11-.1.17-.15.13-.11.26-.22.38-.35.13-.14.25-.29.37-.44.52-.65,1.06-1.28,1.62-1.89s1.1-1.23,1.67-1.81,1.16-1.12,1.77-1.65c.3-.26.61-.52.92-.77.29-.24.58-.49.89-.7s.67-.36,1.02-.52c.38-.17.77-.26,1.18-.28s.83.03,1.24.1c.38.06.75.15,1.11.29.32.13.63.3.88.54.24.23.43.49.59.78s.29.59.38.91c.04.16.08.33.1.5.02.21,0,.41,0,.62-.01.19-.03.38-.04.56,0,.16,0,.33.07.47.12.21.53.38.43.67-.06.17-.02.34.01.51.04.2.05.41.03.62-.02.17-.06.32-.13.48-.06.14-.13.28-.18.42-.04.13-.06.28,0,.41.06.14.18.25.26.38.1.15.2.3.28.46s.12.34.15.51c.11.69-.07,1.4-.37,2.02-.15.3-.33.59-.55.84-.2.22-.44.39-.71.52-.56.27-1.2.37-1.81.41-.76.05-1.52.04-2.27-.02-1.65-.13-3.3-.47-4.85-1.02-.75-.27-1.47-.6-2.16-1s-1.33-.86-1.96-1.33c-.31-.23-.61-.47-.91-.7-.05-.04-.12.03-.07.07h0Z"/><path class="cls-2" d="m26.91,93.48c1.42.92,2.88,1.76,4.29,2.69.62.41,1.24.83,1.78,1.34.64.62,1.15,1.4,1.62,2.15.34.54.62,1.04.75,1.67.12.59.13,1.24.14,1.84.01,1.01-.14,2.12-.51,3.06-.23.56-.45,1.44-1.16,1.55-.38.06-.78-.01-1.17-.02s-.58.16-.87.37c-.37.27-.8.57-1.04.98-.16.28-.29.56-.48.82-.29.41-.71.59-1.21.58-1.08-.02-1.8-1.03-2.42-1.79-.54-.67-1.03-1.39-1.36-2.19s-.51-1.67-.65-2.5c-.21-1.27-.13-2.61-.06-3.89.06-1.2.15-2.42.46-3.59.22-.82.54-1.62.75-2.45.08-.33.15-.65.31-.95.05-.09.12-.29.24-.28"/><path class="cls-4" d="m26.88,93.52c1.35.87,2.74,1.68,4.09,2.56.65.42,1.31.85,1.88,1.38s.98,1.1,1.39,1.72.8,1.19,1,1.87c.11.36.15.74.18,1.12s.04.76.04,1.14c0,.74-.08,1.48-.27,2.19-.08.31-.2.61-.31.92-.09.24-.18.49-.3.71s-.28.42-.5.53c-.31.15-.71.1-1.04.07-.18-.01-.37-.03-.55,0-.14.02-.27.07-.39.15-.14.08-.26.18-.39.27-.14.1-.27.2-.4.3-.27.22-.48.46-.65.76-.18.32-.33.67-.6.92-.46.42-1.17.42-1.71.16s-.94-.72-1.31-1.17c-.43-.53-.86-1.07-1.22-1.66-.39-.65-.66-1.35-.84-2.09s-.33-1.5-.38-2.26-.02-1.6.01-2.39.07-1.59.16-2.37.25-1.58.49-2.35c.12-.38.25-.75.36-1.12s.21-.75.31-1.12c.05-.18.1-.35.19-.52.04-.08.11-.29.22-.3.06,0,.06-.1,0-.1-.12,0-.19.12-.24.22-.07.14-.14.28-.19.43-.13.37-.2.76-.31,1.14-.24.79-.53,1.55-.71,2.36s-.26,1.61-.32,2.42-.1,1.63-.11,2.44.03,1.61.16,2.41.3,1.52.59,2.24.67,1.33,1.13,1.93c.2.26.4.51.6.76s.39.47.62.68c.43.41.96.72,1.57.72.29,0,.59-.08.83-.25.29-.2.46-.5.63-.8.09-.17.17-.34.28-.49s.23-.28.37-.4c.26-.23.54-.44.83-.63.13-.08.27-.15.42-.18.19-.03.4,0,.6.01.33.02.71.06,1.02-.08.47-.22.67-.77.83-1.22.11-.3.23-.59.32-.89.1-.36.18-.73.23-1.1.1-.75.1-1.52.05-2.27-.02-.38-.06-.76-.16-1.13-.09-.35-.23-.68-.41-.99s-.38-.63-.57-.93-.42-.63-.65-.93c-.46-.6-1.01-1.11-1.63-1.56-.66-.48-1.35-.91-2.03-1.34s-1.41-.87-2.11-1.3c-.34-.21-.69-.43-1.03-.65-.05-.04-.1.05-.05.09h0Z"/><path class="cls-6" d="m25.69,94.42c-.21,0-.33-.46-.18-.67-.15.19-.11.65.18.67Z"/><path class="cls-6" d="m25.57,95.17c.02.38.61.33.58-.04-.02-.38-.61-.33-.58.04Z"/><path class="cls-6" d="m25.87,94.39c.02.38.61.33.58-.04-.02-.38-.61-.33-.58.04Z"/><path class="cls-6" d="m26.13,93.73c.02.38.61.33.58-.04-.02-.38-.61-.33-.58.04Z"/><path class="cls-6" d="m26.72,93.73c.02.38.61.33.58-.04-.02-.38-.61-.33-.58.04Z"/><path class="cls-6" d="m26.61,94.86c.02.38.61.33.58-.04-.02-.38-.61-.33-.58.04Z"/><path class="cls-6" d="m25.68,94.68c.02.38.61.33.58-.04-.02-.38-.61-.33-.58.04Z"/><path class="cls-6" d="m25.01,93.83c.02.38.61.33.58-.04-.02-.38-.61-.33-.58.04Z"/><path class="cls-6" d="m25.45,93.25c.02.38.61.33.58-.04-.02-.38-.61-.33-.58.04Z"/><path class="cls-6" d="m25.77,93.92c.02.38.61.33.58-.04-.02-.38-.61-.33-.58.04Z"/><path class="cls-6" d="m25.77,94.46c.02.38.61.33.58-.04-.02-.38-.61-.33-.58.04Z"/><path class="cls-6" d="m25.38,94.92c.01.24.39.21.37-.03-.01-.24-.39-.21-.37.03Z"/><path class="cls-6" d="m24.57,94.83c.02.38.61.33.58-.04-.02-.38-.61-.33-.58.04Z"/><path class="cls-6" d="m24.38,93.89c.02.38.61.33.58-.04-.02-.38-.61-.33-.58.04Z"/><path class="cls-6" d="m24.73,93.05c.02.38.61.33.58-.04-.02-.38-.61-.33-.58.04Z"/><path class="cls-6" d="m25.83,92.79c.02.38.61.33.58-.04-.02-.38-.61-.33-.58.04Z"/><path class="cls-6" d="m26.42,93.92c.02.38.61.33.58-.04-.02-.38-.61-.33-.58.04Z"/><path class="cls-6" d="m25.43,94.81c.02.38.61.33.58-.04-.02-.38-.61-.33-.58.04Z"/><path class="cls-6" d="m24.96,93.83c.02.38.61.33.58-.04-.02-.38-.61-.33-.58.04Z"/><path class="cls-6" d="m25.52,92.92c.02.38.61.33.58-.04-.02-.38-.61-.33-.58.04Z"/><path class="cls-6" d="m26.44,93c.02.38.61.33.58-.04-.02-.38-.61-.33-.58.04Z"/><path class="cls-6" d="m26.61,92.45c.02.38.61.33.58-.04-.02-.38-.61-.33-.58.04Z"/><path class="cls-6" d="m25.77,92.1c.02.38.61.33.58-.04-.02-.38-.61-.33-.58.04Z"/><path class="cls-6" d="m24.93,92.34c.02.38.61.33.58-.04-.02-.38-.61-.33-.58.04Z"/><path class="cls-6" d="m24.4,93.03c.02.38.61.33.58-.04-.02-.38-.61-.33-.58.04Z"/><path class="cls-6" d="m24.62,94.78c.02.38.61.33.58-.04-.02-.38-.61-.33-.58.04Z"/><path class="cls-6" d="m25.03,95.22c.02.38.61.33.58-.04-.02-.38-.61-.33-.58.04Z"/><path class="cls-6" d="m25.2,94.67c.02.38.61.33.58-.04-.02-.38-.61-.33-.58.04Z"/><path class="cls-6" d="m24.98,94.64c.02.38.61.33.58-.04-.02-.38-.61-.33-.58.04Z"/><path class="cls-6" d="m24.93,94.69c.02.38.61.33.58-.04-.02-.38-.61-.33-.58.04Z"/><path class="cls-6" d="m25.18,94.99c.02.38.61.33.58-.04-.02-.38-.61-.33-.58.04Z"/><path class="cls-6" d="m25.43,94.22c.02.38.61.33.58-.04-.02-.38-.61-.33-.58.04Z"/><path class="cls-6" d="m24.9,94.91c.02.38.61.33.58-.04-.02-.38-.61-.33-.58.04Z"/><path class="cls-6" d="m24.05,94.4c.02.38.61.33.58-.04-.02-.38-.61-.33-.58.04Z"/><path class="cls-6" d="m23.45,93.7c.02.38.61.33.58-.04-.02-.38-.61-.33-.58.04Z"/><path class="cls-6" d="m23.62,92.62c.02.38.61.33.58-.04-.02-.38-.61-.33-.58.04Z"/><path class="cls-6" d="m24.29,91.75c.02.38.61.33.58-.04-.02-.38-.61-.33-.58.04Z"/><path class="cls-6" d="m25.64,91.31c.02.38.61.33.58-.04-.02-.38-.61-.33-.58.04Z"/><path class="cls-6" d="m26.44,91.77c.02.38.61.33.58-.04-.02-.38-.61-.33-.58.04Z"/><path class="cls-6" d="m26.88,92.48c.02.38.61.33.58-.04-.02-.38-.61-.33-.58.04Z"/><path class="cls-6" d="m27.03,93.59c.02.38.61.33.58-.04-.02-.38-.61-.33-.58.04Z"/><path class="cls-6" d="m27.09,92.46c.02.38.61.33.58-.04-.02-.38-.61-.33-.58.04Z"/><path class="cls-6" d="m26.71,91.8c.02.38.61.33.58-.04-.02-.38-.61-.33-.58.04Z"/><path class="cls-6" d="m26.29,91.41c.3.09.42-.38.11-.44-.3-.09-.42.38-.11.44Z"/><path class="cls-6" d="m24.96,91.85c.02.28.46.25.43-.03-.02-.28-.46-.25-.43.03Z"/><path class="cls-6" d="m24.09,93.11c.02.38.61.33.58-.04-.02-.38-.61-.33-.58.04Z"/><path class="cls-6" d="m23.39,94.25c.02.38.61.33.58-.04-.02-.38-.61-.33-.58.04Z"/><path class="cls-6" d="m22.99,94.6c.02.38.61.33.58-.04-.02-.38-.61-.33-.58.04Z"/><path class="cls-6" d="m23.16,93.46c.02.38.61.33.58-.04-.02-.38-.61-.33-.58.04Z"/><path class="cls-6" d="m23.9,92.16c.02.38.61.33.58-.04-.02-.38-.61-.33-.58.04Z"/><path class="cls-6" d="m24.84,91.33c.02.38.61.33.58-.04-.02-.38-.61-.33-.58.04Z"/><path class="cls-6" d="m25.49,90.84c.02.38.61.33.58-.04-.02-.38-.61-.33-.58.04Z"/><path class="cls-6" d="m26.27,91.14c.02.38.61.33.58-.04-.02-.38-.61-.33-.58.04Z"/><path class="cls-6" d="m26.96,92.15c.09.38.69.19.55-.17-.09-.38-.69-.19-.55.17Z"/><path class="cls-6" d="m27.13,93.74c-.13.46.14.82.51.52.1-.17.15-.45.05-.63-.14-.22-.52-.15-.56.12Z"/><path class="cls-6" d="m26.55,95.49c-.32.07-.18.57.13.46.32-.07.18-.57-.13-.46Z"/><path class="cls-6" d="m24.64,95.63c.02.38.61.33.58-.04-.02-.38-.61-.33-.58.04Z"/><path class="cls-6" d="m23.73,95.07c.02.38.61.33.58-.04-.02-.38-.61-.33-.58.04Z"/><path class="cls-6" d="m23.79,93.46c.02.39.64.35.61-.04-.02-.39-.64-.35-.61.04Z"/><path class="cls-6" d="m24.34,91.48c.02.35.57.31.54-.04-.02-.35-.57-.31-.54.04Z"/><path class="cls-6" d="m25.35,90.42c.02.38.61.33.58-.04-.02-.38-.61-.33-.58.04Z"/><path class="cls-6" d="m26.23,91.33c0,.42.65.4.62-.02,0-.42-.65-.4-.62.02Z"/><path class="cls-6" d="m26.25,91.83c-.42.25,0,.9.4.62.42-.25,0-.9-.4-.62Z"/><path class="cls-6" d="m25.06,92.11c.03.53.86.46.81-.06-.03-.53-.86-.46-.81.06Z"/><path class="cls-6" d="m24.76,92.58c-.26.29.01.75.38.54.5-.4,0-1.03-.38-.54Z"/><path class="cls-6" d="m24.4,94c.08.14.11.32.26.41.22.17.57-.04.54-.31-.06-.17-.05-.33-.31-.53-.27-.14-.6.15-.48.43Z"/><path class="cls-6" d="m25.38,92.62c-.17.3.07.61-.04.77,0,.01,0,.02,0,.03-.04.12-.09.25,0,.37.12.18.4.16.49-.04.2-.35.2-1.58-.44-1.13Z"/><path class="cls-6" d="m24.83,91.84c.09.34.61.17.5-.16-.09-.34-.61-.17-.5.16Z"/><path class="cls-6" d="m24.87,91.8c-.33.1-.16.62.17.5.33-.1.16-.62-.17-.5Z"/><path class="cls-6" d="m23.96,92.36c-.08.44-.13.3-.34.72-.06.16-.14.35-.04.51.12.18.41.16.5-.04.08-.22.04-.11.13-.25.22-.26.41-.6.38-.95-.05-.34-.57-.33-.63,0Z"/><path class="cls-6" d="m23.24,94.42c.02.38.61.33.58-.04-.02-.38-.61-.33-.58.04Z"/><path class="cls-6" d="m24.3,95.29c.02.29.48.26.45-.03-.02-.29-.48-.26-.45.03Z"/><path class="cls-6" d="m23.63,94.7c.17.25.55-.02.38-.26-.16-.28-.58,0-.38.26Z"/><path class="cls-6" d="m23.65,93.04c.02.38.61.33.58-.04-.02-.38-.61-.33-.58.04Z"/><path class="cls-6" d="m24.03,91.24c.02.38.61.33.58-.04-.02-.38-.61-.33-.58.04Z"/><path class="cls-6" d="m24.78,90.63c.02.38.61.33.58-.04-.02-.38-.61-.33-.58.04Z"/><path class="cls-6" d="m25.89,90.71c.24.39.84,0,.58-.37-.24-.39-.84,0-.58.37Z"/><path class="cls-6" d="m26.9,91.84c.02.26.43.23.41-.03-.02-.26-.43-.23-.41.03Z"/><path class="cls-6" d="m26.87,92.87c-.16.44.43.71.58.24.16-.44-.43-.71-.58-.24Z"/><path class="cls-6" d="m26.14,93.81c-.41.2-.04.83.33.56.41-.2.04-.83-.33-.56Z"/><path class="cls-6" d="m24.78,95.1c.53.08.58-.74.05-.72-.53-.06-.58.73-.05.72Z"/><path class="cls-6" d="m23.55,93.12c.02.39.64.35.61-.04-.01-.41-.66-.36-.61.04Z"/><path class="cls-6" d="m24.29,91.59c.02.43.69.38.66-.05-.02-.43-.69-.38-.66.05Z"/><path class="cls-6" d="m25.53,90.62c.02.38.61.33.58-.04-.02-.38-.61-.33-.58.04Z"/><path class="cls-6" d="m26.8,91.09c.02.38.61.33.58-.04-.02-.38-.61-.33-.58.04Z"/><path class="cls-6" d="m26.59,92.24c.02.37.6.32.57-.04-.02-.37-.6-.32-.57.04Z"/><path class="cls-6" d="m25.67,91.39c.44,0,.41-.69-.03-.66-.44,0-.41.69.03.66Z"/><path class="cls-6" d="m24.44,91.58c-.15.07-.32.23-.2.4.15.21.48.02.54-.18.04-.19-.19-.34-.34-.22Z"/><path class="cls-6" d="m23.23,92.67c-.14.53.65.73.77.2.14-.53-.65-.73-.77-.2Z"/><path class="cls-6" d="m23.23,94.69c.02.36.59.32.56-.04-.02-.36-.59-.32-.56.04Z"/><path class="cls-6" d="m25.04,95.76c.52,0,.46-.79-.05-.74-.48.03-.42.78.05.74Z"/><path class="cls-6" d="m27.07,94.39c.02.35.58.31.55-.04-.02-.35-.58-.31-.55.04Z"/><path class="cls-6" d="m26.76,92.33c.02.38.61.33.58-.04-.02-.38-.61-.33-.58.04Z"/><path class="cls-6" d="m25.99,90.95c.02.38.61.33.58-.04-.02-.38-.61-.33-.58.04Z"/><path class="cls-6" d="m24.85,90.93c-.2.36.37.65.55.29.2-.36-.37-.65-.55-.29Z"/><path class="cls-6" d="m23.76,93.03c.02.38.61.33.58-.04-.02-.38-.61-.33-.58.04Z"/><path class="cls-6" d="m24.52,93.83c.29.17.54-.3.23-.44-.29-.17-.54.3-.23.44Z"/><path class="cls-6" d="m25.55,92.61c-.07.35.48.46.54.11.08-.35-.48-.46-.54-.11Z"/><path class="cls-6" d="m25.4,91.22c.02.33.54.29.51-.04-.02-.33-.54-.29-.51.04Z"/><path class="cls-14" d="m24.46,93.61c.02.38.61.33.58-.04-.02-.38-.61-.33-.58.04Z"/><path class="cls-14" d="m24.58,93.81c.02.38.61.33.58-.04-.02-.38-.61-.33-.58.04Z"/><path class="cls-14" d="m25.16,93.71c.01.25.41.22.38-.03-.01-.25-.41-.22-.38.03Z"/><path class="cls-14" d="m25.59,93.08c.02.38.61.33.58-.04-.02-.38-.61-.33-.58.04Z"/><path class="cls-14" d="m25.41,92.24c.02.38.61.33.58-.04-.02-.38-.61-.33-.58.04Z"/><path class="cls-14" d="m24.75,92.14c.02.38.61.33.58-.04-.02-.38-.61-.33-.58.04Z"/><path class="cls-14" d="m24.32,92.66c.02.38.61.33.58-.04-.02-.38-.61-.33-.58.04Z"/><path class="cls-14" d="m24.37,93.24c.02.38.61.33.58-.04-.02-.38-.61-.33-.58.04Z"/><path class="cls-14" d="m24.57,92.53c.02.38.61.33.58-.04-.02-.38-.61-.33-.58.04Z"/><path class="cls-14" d="m25.18,92.74c.02.38.61.33.58-.04-.02-.38-.61-.33-.58.04Z"/><path class="cls-14" d="m24.95,93.14c.02.38.61.33.58-.04-.02-.38-.61-.33-.58.04Z"/><path class="cls-14" d="m24.77,93.3c-.14.22.23.4.33.16.11-.21-.23-.38-.33-.16Z"/><path class="cls-14" d="m24.57,94.25c.02.38.61.33.58-.04-.02-.38-.61-.33-.58.04Z"/><path class="cls-14" d="m25.38,93.74c.02.38.61.33.58-.04-.02-.38-.61-.33-.58.04Z"/><path class="cls-14" d="m25.33,93.16c.02.38.61.33.58-.04-.02-.38-.61-.33-.58.04Z"/><path class="cls-14" d="m25.38,93.58c.02.29.47.26.45-.03-.02-.29-.47-.26-.45.03Z"/><path class="cls-14" d="m24.16,93.85c.02.38.61.33.58-.04-.02-.38-.61-.33-.58.04Z"/><path class="cls-14" d="m23.87,93.02c.02.38.61.33.58-.04-.02-.38-.61-.33-.58.04Z"/><path class="cls-14" d="m24.4,91.79c.02.38.61.33.58-.04-.02-.38-.61-.33-.58.04Z"/><path class="cls-14" d="m25.43,91.91c.02.38.61.33.58-.04-.02-.38-.61-.33-.58.04Z"/><path class="cls-14" d="m25.81,92.52c.02.38.61.33.58-.04-.02-.38-.61-.33-.58.04Z"/><path class="cls-14" d="m25.63,93.06c-.42.11-.23.77.19.62.42-.11.23-.77-.19-.62Z"/><path class="cls-14" d="m24.59,93.39c.02.38.62.34.59-.04-.02-.38-.62-.34-.59.04Z"/><path class="cls-14" d="m24.6,92.79c.02.38.61.33.58-.04-.02-.38-.61-.33-.58.04Z"/><path class="cls-14" d="m25.13,92.16c.02.38.61.33.58-.04-.02-.38-.61-.33-.58.04Z"/><path class="cls-14" d="m25.64,92.49c.02.38.61.33.58-.04-.02-.38-.61-.33-.58.04Z"/><path class="cls-14" d="m25.17,94.31c-.25.37.24.75.48.36.25-.37-.24-.75-.48-.36Z"/><path class="cls-14" d="m24.17,94.01c.02.38.61.33.58-.04-.02-.38-.61-.33-.58.04Z"/><path class="cls-14" d="m24.18,92.89c.02.38.61.33.58-.04-.02-.38-.61-.33-.58.04Z"/><path class="cls-14" d="m24.67,91.77c.02.38.61.33.58-.04-.02-.38-.61-.33-.58.04Z"/><path class="cls-14" d="m25.67,92.21c.02.38.61.33.58-.04-.02-.38-.61-.33-.58.04Z"/><path class="cls-14" d="m25.77,91.56c.02.38.61.33.58-.04-.02-.38-.61-.33-.58.04Z"/><path class="cls-3" d="m109.64,88.9h5.15l4.41,12.17,4.45-12.17h5.13v16.95h-3.61v-10.58l-3.85,10.58h-4.21l-3.85-10.51v10.51h-3.61v-16.95Z"/><path class="cls-3" d="m131.86,95.76c0-3.99,2.91-7.21,6.5-7.21s6.5,3.22,6.5,7.21v10.1h-3.61v-3.61h-5.78v3.61h-3.61v-10.1Zm3.61,2.89h5.78v-2.89c0-2-1.3-3.61-2.89-3.61s-2.89,1.61-2.89,3.61v2.89Z"/><path class="cls-3" d="m155.4,88.9c2.89,0,5.25,2.36,5.25,5.24,0,2.28-1.49,4.23-3.54,4.93l1.49,2.72c.43.79,1.4,1.06,2.22.62l1.73,3.17c-2.55,1.37-5.73.46-7.13-2.07l-2.26-4.16h-1.57v6.49h-3.61v-16.95h7.42Zm-3.8,3.61v3.25h3.8c.92,0,1.64-.7,1.64-1.61s-.72-1.64-1.64-1.64h-3.8Z"/><path class="cls-3" d="m174.76,93.13c-.87-.63-1.93-.99-3.08-.99-2.89,0-5.22,2.36-5.22,5.24s2.34,5.22,5.22,5.22c1.32,0,2.55-.48,3.47-1.3l3.01,2.12c-1.61,1.71-3.9,2.79-6.45,2.79-4.89,0-8.84-3.94-8.84-8.83s3.95-8.85,8.84-8.85c2.29,0,4.33.87,5.92,2.28l-2.87,2.31Z"/><path class="cls-3" d="m191.27,98.64h-7.58v7.21h-3.61v-16.95h3.61v6.13h7.58v-6.13h3.61v16.95h-3.61v-7.21Z"/></svg>