<?xml version="1.0" encoding="UTF-8"?><svg id="Layer_2" xmlns="http://www.w3.org/2000/svg" width="370" height="192" xmlns:xlink="http://www.w3.org/1999/xlink" viewBox="0 0 370 192"><defs><style>.cls-1{fill:url(#linear-gradient);}.cls-1,.cls-2,.cls-3,.cls-4,.cls-5,.cls-6,.cls-7,.cls-8,.cls-9,.cls-10{stroke-width:0px;}.cls-2,.cls-11{fill:#3d2e40;}.cls-3,.cls-12{fill:#7a5580;}.cls-13{stroke:#703e78;}.cls-13,.cls-12,.cls-11,.cls-14{stroke-miterlimit:10;}.cls-13,.cls-10{fill:#703e78;}.cls-12{stroke:#7a5580;}.cls-11{stroke:#3d2e40;}.cls-5{fill:#4f2e54;}.cls-14{stroke:#29162b;}.cls-14,.cls-9{fill:#29162b;}.cls-6{fill:#418c46;}.cls-7{fill:#ffefe1;}.cls-8{fill:#206925;}</style><linearGradient id="linear-gradient" x1="470.37" y1="269.39" x2="495.75" y2="361.28" gradientTransform="translate(-399.07 464.8) rotate(-72.75)" gradientUnits="userSpaceOnUse"><stop offset="0" stop-color="#d33"/><stop offset="1" stop-color="#f66"/></linearGradient></defs><path class="cls-1" d="m9.76,192l360.24-82.27L16.9,0S-15.79,105.32,9.76,192Z"/><path class="cls-7" d="m100.67,170.91l269.33-61.18L105.89,27.65s-24.39,78.56-5.23,143.25Z"/><path class="cls-6" d="m7.55,95.91c4.72-.26,10.04-.52,14.51,1.29,4.19,1.69,7.65,4.64,10.38,8.18s4.34,7.6,6.4,11.5c.99,1.87,2.26,3.7,3.87,5.08.87.74,1.86,1.41,2.85,1.98.78.45,1.81.56,2.52,1.06,1.57,1.12,3.01-1.52,1.45-2.63-.75-.53-1.72-.61-2.52-1.06-1.02-.58-2.01-1.26-2.84-2.09-1.66-1.65-2.74-3.75-3.71-5.86-1.9-4.16-4.16-8.06-7.1-11.58s-6.86-6.18-11.05-7.67c-4.63-1.65-9.99-1.46-14.83-1.19-1.92.11-1.86,3.11.07,3h0Z"/><path class="cls-6" d="m20.19,96.7c5.74,1.43,11.64.59,17.01-1.76,2.72-1.19,5.42-2.34,8.19-3.4,1.4-.54,2.84-.97,4.32-1.25,1.38-.26,2.99-.56,4.39-.3,1.89.34,2.61-2.57.7-2.92-2.74-.5-5.92.17-8.55.99s-5.46,1.91-8.01,3.12c-5.53,2.61-11.27,4.13-17.35,2.61-1.87-.47-2.58,2.45-.7,2.92h0Z"/><path class="cls-6" d="m16.47,90.89c.71-1.59,1.13-3.21.25-4.84-.66-1.22-1.57-2.33-2.37-3.47-.92-1.32-1.95-2.56-2.86-3.9-1.51-2.23-1.81-5.07-1.83-7.7,0-1.17.03-2.34.05-3.52,0-.43-.02-.85-.04-1.27-.01-.19-.08-.45-.02-.64.26.56.42,1.16.58,1.75.08.31.32,1.39.7,1.49.27-.53.39-1.11.59-1.66.25-.7.47-1.4.46-2.16,0-.72-.03-1.5-.15-2.21-.09-.55-.3-1.09-.35-1.65.7.57,1.07,1.42,1.74,2.02.08.07.6.56.8.49.28-.09.21-.84.2-.98-.08-1.32-.57-2.48-1.03-3.7-.07-.17-.76-1.45-.64-1.59.34.26.49.58.77.91.3.37.77.72,1.19.93s1.06.67,1.33.11c.33-.69.22-1.65.23-2.4.01-.65-.11-1.3-.13-1.95-.03-.58-.19-1.13-.21-1.71-.02-.43-.1-.83-.19-1.25-.07-.31-.12-.69-.29-.97-.13-.22-.49-.58-.34-.86.25.26.33.62.5.92.29.53.53,1,.73,1.56.49,1.38,1.03,2.72,1.65,4.04.83,1.79,1.27,3.73,1.78,5.62.35,1.3.79,2.57,1.09,3.88.35,1.57.54,3.19.66,4.79.2,2.77.18,5.59,0,8.36-.12,1.84-.62,3.54-1.41,5.19-.67,1.4-1.53,2.67-2.32,4-.26.44-.54.87-.76,1.32-.11.23-.34.56-.36.81"/><path class="cls-6" d="m17.34,90.39c.43-1.01.82-2.09.73-3.21-.1-1.22-.81-2.25-1.49-3.22-1.37-1.94-2.91-3.78-4.21-5.77-1.19-1.82-1.64-3.96-1.78-6.11-.08-1.19-.06-2.38-.03-3.58s-.1-2.32-.03-3.45l-1.73,1c.33.8.48,2.73,1.27,3.23.08.05,1.67-.87,1.73-1,.51-1.17,1.02-2.54,1.05-3.82s-.3-2.56-.5-3.86l-1.73,1c.64.59,1.54,2.5,2.54,2.51.34,0,1.5-.74,1.72-.99.68-.81-.06-2.63-.36-3.48-.2-.57-.42-1.12-.68-1.67-.15-.31-.46-.78-.42-1.14l-1.73,1c.77.74,1.84,2.49,3.14,2.14.52-.14,1.58-.73,1.88-1.19.36-.56.24-1.44.23-2.07-.01-.9-.07-1.81-.18-2.71-.1-.84-.18-1.7-.35-2.52-.11-.54-.69-1.32-.63-1.83l-1.73,1c.95,1.34,1.4,3.02,2.01,4.53.68,1.66,1.45,3.26,1.94,4.99,1.03,3.57,2.1,7.11,2.41,10.83s.56,7.75-.37,11.3c-.42,1.62-1.15,3.12-2.01,4.55-.8,1.34-2.03,2.78-2.44,4.3.12-.45,1.6-.53,1.73-1,.4-1.45,1.56-2.83,2.33-4.1.9-1.5,1.68-3.05,2.13-4.75.93-3.56.67-7.67.37-11.3s-1.38-7.26-2.41-10.83c-.48-1.67-1.2-3.19-1.86-4.79s-1.1-3.33-2.09-4.73c.02.03-1.72.86-1.73,1-.06.49.48,1.16.59,1.66.2.88.29,1.79.39,2.69.15,1.28.68,3.87-.22,4.98l1.73-1c-1.23.4-2.41-1.47-3.12-2.15-.02-.02-1.72.89-1.73,1-.08.65.8,2,1.02,2.6.28.78,1.2,2.96.45,3.68l1.73-1c-1.08-.14-1.82-1.84-2.54-2.51-.03-.03-1.74.94-1.73,1,.2,1.31.54,2.52.5,3.86s-.54,2.65-1.05,3.82l1.73-1c-.79-.5-.94-2.45-1.27-3.23.05.12-1.72.8-1.73,1-.06,1.06.06,2.16.03,3.23-.03,1.2-.05,2.4.02,3.59.12,2.21.56,4.43,1.79,6.31s2.75,3.72,4.09,5.6c.69.96,1.43,1.98,1.59,3.19s-.24,2.34-.71,3.42c.21-.48,1.52-.5,1.73-1h0Z"/><path class="cls-6" d="m10.43,95.11c7.23-1.26,14.43-4.82,19.67-9.96,2.66-2.61,4.62-5.62,6.57-8.77s4.89-5.82,8.11-7.89c1.62-1.05.09-3.62-1.54-2.58-3.07,1.97-5.95,4.37-8.09,7.35-1.08,1.51-1.94,3.16-2.96,4.71s-2.13,2.91-3.37,4.21c-5.03,5.3-12.05,8.81-19.22,10.06-1.9.33-1.05,3.21.83,2.88h0Z"/><path class="cls-6" d="m16.07,90.55c.58,0,1.16-1,1.73-1-.58,0-1.16,1-1.73,1h0Z"/><path class="cls-8" d="m15.15,50.76c.78,1.19,1.31,2.49,1.73,3.85.27.9.49,1.81.74,2.71s.52,1.74.68,2.63c.45,2.44.96,4.87,1.5,7.29s.99,4.57,1.22,6.91c.16,1.7.12,3.41.03,5.12-.09,1.57-.21,3.13-.59,4.66-.43,1.73-1.21,3.26-2.14,4.78-.39.63-.69,1.31-1.08,1.92-.06.09-.34.37-.16.46.12-.32.23-.45.48-.68.32-.3.55-.71.82-1.05,1.21-1.54,2.68-2.79,4.09-4.13,1.3-1.24,2.48-2.61,3.76-3.87s2.45-2.39,3.56-3.69c1.31-1.53,4.2-4.47,4.86-6.71-.15-.18-2.56,3.23-2.72,3.37-.46.4-1.15.71-1.59,1.1.27-.71.62-1.39.97-2.06.25-.48.55-.94.78-1.43.33-.69.54-1.44.78-2.16.48-1.43.63-2.96.73-4.46.05-.81-.07-1.61-.03-2.41-.04.95-.49,1.97-.88,2.81-.23.5-.46,1.01-.72,1.5-.07.13-.28.69-.43.67-.24-.89-.2-1.82-.3-2.72-.06-.58-.16-1.16-.36-1.71-.18-.48-.45-.92-.7-1.37-.29-.53-.54-1.05-.88-1.55-.13-.2-.3-.69-.6-.65.07.47.23.91.28,1.38.05.5.03,1.08,0,1.58s-.11,1.03-.27,1.52c-.06.2-.11.53-.3.65-.35-.57-.4-1.32-.5-1.96-.19-1.13-.4-2.21-.84-3.27-.7-1.71-2.02-2.98-2.94-4.55.11.37.17.75.22,1.14.06.49.2,1.03.17,1.52s-.18.96-.32,1.43c-.1.37-.16.83-.34,1.18-.23-.09-.19-.45-.23-.66-.06-.34-.16-.68-.25-1.02-.21-.78-.47-1.54-.85-2.26s-.83-1.31-1.48-1.84c-.74-.6-1.48-1.22-2.29-1.73-.51-.32-.99-.69-1.54-.93-.35-.16-.74-.37-1-.67-.1-.12-.11-.17-.23-.23-.07-.04-.24-.04-.3-.07-.21-.09-.36-.25-.53-.4"/><path class="cls-8" d="m14.28,51.26c1.78,2.82,2.61,6.43,3.24,9.68.72,3.73,1.66,7.42,2.28,11.16.59,3.52.61,7.17.09,10.71-.25,1.71-.78,3.33-1.58,4.86-.41.78-.88,1.52-1.31,2.3-.18.32-.93,1.27-.81,1.61-.04-.11,1.64-.8,1.73-1,.29-.63.87-1.18,1.3-1.73.64-.83,1.38-1.57,2.13-2.29,1.52-1.45,3.02-2.9,4.46-4.42,2.53-2.67,5.19-5.19,7.49-8.07.2-.25,2.55-3.4,2.15-3.62-.2-.11-1.61.89-1.84,1.07-.71.6-1.25,1.52-1.8,2.26-.23.31-.45.67-.71.95-.46.48-1.13.78-1.66,1.19l1.73-1c.81-2.01,1.96-3.77,2.59-5.86.66-2.21.61-4.38.64-6.65,0,.34-1.7.63-1.73,1-.1,1.01-.46,1.9-.88,2.81-.26.58-.58,1.8-1.13,2.15l1.7-.98c-.36-1.59-.13-3.27-.8-4.79-.27-.61-.64-1.21-.97-1.8-.23-.42-.56-1.27-1.05-1.42-.13-.04-1.74.97-1.73,1,.28,1.4.75,3.91-.3,5.13l1.73-1c-.78-1.61-.63-3.56-1.34-5.23s-2-3.01-2.94-4.55c.02.03-1.76.9-1.73,1,.47,1.85.42,3.47-.27,5.27l1.73-1c-.29-.31-.28-.93-.39-1.34-.15-.57-.32-1.13-.53-1.68-.48-1.24-1.18-2.18-2.21-3.02s-2-1.58-3.1-2.2c-.57-.32-1-.65-1.51-1.01-.32-.22-.63-.28-.95-.56-.16-.15-1.59,1.13-1.73,1,.31.28.65.34.95.56.45.33.8.63,1.31.91,1.18.63,2.27,1.45,3.3,2.3.97.8,1.65,1.66,2.13,2.83.25.6.44,1.23.6,1.86.11.43.08,1.02.39,1.34.02.02,1.68-.87,1.73-1,.69-1.79.74-3.41.27-5.27l-1.73,1c.94,1.54,2.25,2.87,2.94,4.55s.56,3.63,1.34,5.23c-.02-.04,1.61-.86,1.73-1,1.05-1.22.58-3.75.3-5.13l-1.73,1c.46.13.72.84.94,1.22.37.65.77,1.31,1.08,1.99.69,1.52.45,3.21.8,4.79-.02-.08,1.54-.88,1.7-.98.5-.32.77-1.3,1.01-1.81.48-1.03.94-2.05,1.05-3.19l-1.73,1c-.03,2.27.03,4.45-.64,6.65s-1.79,3.85-2.59,5.86c.15-.37,1.39-.74,1.73-1,.53-.41,1.2-.7,1.66-1.19.29-.31.53-.7.78-1.04.54-.73,1.08-1.64,1.79-2.22l-1.7.98s-.31.88-.36.97c-.2.41-.44.79-.69,1.17-.58.86-1.24,1.67-1.91,2.46-1.47,1.71-2.98,3.39-4.59,4.97-1.82,1.8-3.53,3.71-5.41,5.46-.93.86-1.86,1.72-2.7,2.67-.62.71-1.48,1.57-1.87,2.43l1.73-1c-.13-.35.63-1.28.81-1.61.42-.77.9-1.51,1.31-2.3.76-1.46,1.29-3,1.55-4.63.58-3.6.54-7.36-.06-10.94s-1.55-7.27-2.24-10.92c-.63-3.33-1.46-7.03-3.28-9.92-.02-.03-1.73,1.01-1.73,1h0Z"/><ellipse class="cls-9" cx="42.17" cy="129.15" rx="3.36" ry="3.6" transform="translate(-6.65 2.36) rotate(-2.98)"/><ellipse class="cls-9" cx="52.45" cy="129.26" rx="3.36" ry="3.6" transform="translate(-6.64 2.9) rotate(-2.98)"/><ellipse class="cls-9" cx="46.69" cy="118.35" rx="3.36" ry="3.6" transform="translate(-6.08 2.58) rotate(-2.98)"/><ellipse class="cls-9" cx="62.97" cy="117.5" rx="2.88" ry="2.64" transform="translate(-6.11 3.48) rotate(-3.02)"/><ellipse class="cls-9" cx="65.37" cy="128.26" rx="3.75" ry="3.28" transform="translate(-6.65 3.62) rotate(-3.01)"/><ellipse class="cls-9" cx="66.96" cy="141.86" rx="3.59" ry="3.36" transform="translate(-7.4 3.73) rotate(-3.03)"/><ellipse class="cls-9" cx="74.82" cy="132.96" rx="3.59" ry="3.36" transform="translate(-6.92 4.14) rotate(-3.03)"/><ellipse class="cls-9" cx="57.14" cy="139.82" rx="3.67" ry="3.84" transform="translate(-7.15 3.14) rotate(-2.96)"/><ellipse class="cls-2" cx="46.06" cy="133.19" rx="3.67" ry="3.84" transform="translate(-6.82 2.56) rotate(-2.96)"/><ellipse class="cls-2" cx="49.76" cy="112.69" rx="3.67" ry="3.84" transform="translate(-5.76 2.72) rotate(-2.96)"/><ellipse class="cls-2" cx="52.17" cy="123.76" rx="3.36" ry="3.05" transform="translate(-6.45 2.92) rotate(-3.02)"/><ellipse class="cls-2" cx="60.35" cy="120.96" rx="3.44" ry="3.32" transform="translate(-6.36 3.39) rotate(-3.05)"/><ellipse class="cls-2" cx="61.79" cy="131.73" rx="3.44" ry="3.32" transform="translate(-6.93 3.48) rotate(-3.05)"/><ellipse class="cls-2" cx="62.62" cy="141.45" rx="3.44" ry="3.32" transform="translate(-7.45 3.54) rotate(-3.05)"/><ellipse class="cls-2" cx="70.33" cy="137.36" rx="3.44" ry="3.32" transform="translate(-7.22 3.94) rotate(-3.05)"/><ellipse class="cls-2" cx="58.41" cy="113.17" rx="3.44" ry="3.32" transform="translate(-5.95 3.27) rotate(-3.05)"/><ellipse class="cls-5" cx="50.34" cy="137.61" rx="3.44" ry="3.32" transform="translate(-7.26 2.88) rotate(-3.05)"/><ellipse class="cls-5" cx="47.15" cy="127.08" rx="3.44" ry="3.32" transform="translate(-6.7 2.69) rotate(-3.05)"/><ellipse class="cls-5" cx="52.32" cy="118.06" rx="3.44" ry="3.32" transform="translate(-6.22 2.96) rotate(-3.05)"/><ellipse class="cls-5" cx="60.24" cy="115.98" rx="3.44" ry="3.32" transform="translate(-6.09 3.37) rotate(-3.05)"/><ellipse class="cls-5" cx="64.77" cy="122.84" rx="3.44" ry="3.32" transform="translate(-6.45 3.63) rotate(-3.05)"/><ellipse class="cls-5" cx="75.08" cy="138.07" rx="3.44" ry="3.32" transform="translate(-7.25 4.2) rotate(-3.05)"/><ellipse class="cls-5" cx="68.69" cy="132.01" rx="3.04" ry="3.32" transform="translate(-6.77 3.75) rotate(-2.98)"/><ellipse class="cls-5" cx="58.17" cy="128.31" rx="3.04" ry="3.32" transform="translate(-6.6 3.2) rotate(-2.98)"/><ellipse class="cls-5" cx="54.55" cy="134.06" rx="3.04" ry="3.32" transform="translate(-6.9 3.02) rotate(-2.98)"/><ellipse class="cls-5" cx="69.33" cy="142.5" rx="3.04" ry="3.32" transform="translate(-7.32 3.8) rotate(-2.98)"/><ellipse class="cls-5" cx="71.4" cy="125.82" rx="3.04" ry="3.32" transform="translate(-6.45 3.89) rotate(-2.98)"/><ellipse class="cls-5" cx="54.83" cy="113.36" rx="3.04" ry="3.32" transform="translate(-5.82 3.01) rotate(-2.98)"/><ellipse class="cls-5" cx="68.2" cy="119.33" rx="3.2" ry="3.32" transform="translate(-6.07 3.68) rotate(-2.96)"/><ellipse class="cls-5" cx="61.83" cy="137.01" rx="3.2" ry="3.32" transform="translate(-6.99 3.37) rotate(-2.96)"/><ellipse class="cls-5" cx="76.39" cy="126.41" rx="3.2" ry="3.32" transform="translate(-6.42 4.11) rotate(-2.96)"/><ellipse class="cls-10" cx="50.05" cy="132.07" rx="3.2" ry="3.32" transform="translate(-6.75 2.76) rotate(-2.96)"/><ellipse class="cls-10" cx="48.71" cy="121.85" rx="3.2" ry="3.32" transform="translate(-6.22 2.68) rotate(-2.96)"/><ellipse class="cls-10" cx="56.94" cy="118.78" rx="3.2" ry="3.32" transform="translate(-6.05 3.1) rotate(-2.96)"/><ellipse class="cls-10" cx="61.27" cy="126.34" rx="3.2" ry="3.32" transform="translate(-6.44 3.33) rotate(-2.96)"/><ellipse class="cls-10" cx="65.99" cy="136.79" rx="3.2" ry="3.32" transform="translate(-6.97 3.59) rotate(-2.96)"/><ellipse class="cls-10" cx="58.48" cy="134.08" rx="3.2" ry="3.32" transform="translate(-6.84 3.2) rotate(-2.96)"/><ellipse class="cls-10" cx="71.82" cy="129.11" rx="3.2" ry="3.32" transform="translate(-6.57 3.88) rotate(-2.96)"/><ellipse class="cls-10" cx="68.44" cy="122.63" rx="3.2" ry="3.32" transform="translate(-6.24 3.69) rotate(-2.96)"/><ellipse class="cls-13" cx="55.53" cy="123.58" rx="3.2" ry="3.32" transform="translate(-6.3 3.03) rotate(-2.96)"/><ellipse class="cls-3" cx="56.67" cy="130.78" rx="3.2" ry="3.32" transform="translate(-6.67 3.1) rotate(-2.96)"/><ellipse class="cls-3" cx="65.86" cy="133.22" rx="2.63" ry="2.86" transform="translate(-6.84 3.61) rotate(-2.98)"/><ellipse class="cls-3" cx="72.18" cy="134.24" rx="2.63" ry="2.86" transform="translate(-6.88 3.94) rotate(-2.98)"/><ellipse class="cls-3" cx="68.95" cy="124.79" rx="2.63" ry="2.86" transform="translate(-6.4 3.75) rotate(-2.98)"/><ellipse class="cls-3" cx="55.01" cy="124.57" rx="2.63" ry="2.86" transform="translate(-6.4 3.03) rotate(-2.98)"/><ellipse class="cls-12" cx="55.01" cy="124.57" rx="2.63" ry="2.86" transform="translate(-6.4 3.03) rotate(-2.98)"/><ellipse class="cls-9" cx="40.2" cy="66.9" rx="3.25" ry="2.99" transform="translate(-15.36 12.08) rotate(-14.38)"/><ellipse class="cls-9" cx="49.7" cy="63.93" rx="3.25" ry="2.99" transform="translate(-14.32 14.35) rotate(-14.38)"/><ellipse class="cls-9" cx="47.13" cy="74.18" rx="3.25" ry="2.99" transform="translate(-16.95 14.03) rotate(-14.38)"/><ellipse class="cls-9" cx="62.43" cy="70.28" rx="2.79" ry="2.19" transform="translate(-15.45 17.63) rotate(-14.32)"/><ellipse class="cls-9" cx="61.92" cy="61.09" rx="3.64" ry="2.72" transform="translate(-13.18 17.21) rotate(-14.32)"/><ellipse class="cls-9" cx="59.95" cy="49.88" rx="3.48" ry="2.79" transform="translate(-10.48 16.38) rotate(-14.33)"/><ellipse class="cls-9" cx="69.48" cy="54.71" rx="3.48" ry="2.79" transform="translate(-11.38 18.89) rotate(-14.33)"/><ellipse class="cls-9" cx="51.36" cy="54.26" rx="3.56" ry="3.19" transform="translate(-11.85 14.44) rotate(-14.36)"/><ellipse class="cls-2" cx="42.78" cy="62.61" rx="3.56" ry="3.19" transform="translate(-14.19 12.57) rotate(-14.36)"/><ellipse class="cls-2" cx="51.4" cy="77.8" rx="3.56" ry="3.19" transform="translate(-17.69 15.18) rotate(-14.36)"/><ellipse class="cls-2" cx="50.83" cy="68.36" rx="3.25" ry="2.53" transform="translate(-15.33 14.7) rotate(-14.32)"/><ellipse class="cls-2" cx="59.12" cy="68.28" rx="3.33" ry="2.76" transform="translate(-15.06 16.76) rotate(-14.33)"/><ellipse class="cls-2" cx="57.73" cy="59.35" rx="3.33" ry="2.76" transform="translate(-12.9 16.14) rotate(-14.33)"/><ellipse class="cls-2" cx="56.03" cy="51.43" rx="3.33" ry="2.76" transform="translate(-10.99 15.47) rotate(-14.33)"/><ellipse class="cls-2" cx="64.21" cy="52.49" rx="3.33" ry="2.76" transform="translate(-11 17.53) rotate(-14.33)"/><ellipse class="cls-2" cx="59.3" cy="74.98" rx="3.33" ry="2.76" transform="translate(-16.72 17.01) rotate(-14.33)"/><ellipse class="cls-5" cx="45.62" cy="57.91" rx="3.33" ry="2.76" transform="translate(-12.92 13.1) rotate(-14.33)"/><ellipse class="cls-5" cx="45.34" cy="67.15" rx="3.33" ry="2.76" transform="translate(-15.21 13.31) rotate(-14.33)"/><ellipse class="cls-5" cx="52.42" cy="72.83" rx="3.33" ry="2.76" transform="translate(-16.4 15.24) rotate(-14.33)"/><ellipse class="cls-5" cx="60.28" cy="72.25" rx="3.33" ry="2.76" transform="translate(-16.01 17.17) rotate(-14.33)"/><ellipse class="cls-5" cx="62.74" cy="65.55" rx="3.33" ry="2.76" transform="translate(-14.27 17.57) rotate(-14.33)"/><ellipse class="cls-5" cx="68.43" cy="50.59" rx="3.33" ry="2.76" transform="translate(-10.39 18.52) rotate(-14.33)"/><ellipse class="cls-5" cx="64.05" cy="57.19" rx="2.94" ry="2.76" transform="translate(-12.22 17.74) rotate(-14.42)"/><ellipse class="cls-5" cx="55.24" cy="63.07" rx="2.94" ry="2.76" transform="translate(-13.96 15.74) rotate(-14.42)"/><ellipse class="cls-5" cx="50.43" cy="59.54" rx="2.94" ry="2.76" transform="translate(-13.23 14.43) rotate(-14.42)"/><ellipse class="cls-5" cx="61.97" cy="48.71" rx="2.94" ry="2.76" transform="translate(-10.17 16.96) rotate(-14.42)"/><ellipse class="cls-5" cx="68.13" cy="61.32" rx="2.94" ry="2.76" transform="translate(-13.12 18.89) rotate(-14.42)"/><ellipse class="cls-5" cx="55.94" cy="75.84" rx="2.94" ry="2.76" transform="translate(-17.12 16.31) rotate(-14.42)"/><ellipse class="cls-5" cx="66.81" cy="67.36" rx="3.1" ry="2.76" transform="translate(-14.62 18.67) rotate(-14.36)"/><ellipse class="cls-5" cx="56.42" cy="55.16" rx="3.1" ry="2.76" transform="translate(-11.92 15.72) rotate(-14.36)"/><ellipse class="cls-5" cx="72.61" cy="59.45" rx="3.1" ry="2.76" transform="translate(-12.48 19.86) rotate(-14.36)"/><ellipse class="cls-10" cx="46.76" cy="62.38" rx="3.1" ry="2.76" transform="translate(-14.01 13.54) rotate(-14.36)"/><ellipse class="cls-10" cx="48.11" cy="70.85" rx="3.1" ry="2.76" transform="translate(-16.07 14.14) rotate(-14.36)"/><ellipse class="cls-10" cx="56.52" cy="70.96" rx="3.1" ry="2.76" transform="translate(-15.83 16.23) rotate(-14.36)"/><ellipse class="cls-10" cx="58.61" cy="63.76" rx="3.1" ry="2.76" transform="translate(-13.98 16.53) rotate(-14.36)"/><ellipse class="cls-10" cx="60.33" cy="54.17" rx="3.1" ry="2.76" transform="translate(-11.55 16.65) rotate(-14.36)"/><ellipse class="cls-10" cx="54.06" cy="58.43" rx="3.1" ry="2.76" transform="translate(-12.8 15.23) rotate(-14.36)"/><ellipse class="cls-10" cx="67.69" cy="58.6" rx="3.1" ry="2.76" transform="translate(-12.42 18.62) rotate(-14.36)"/><ellipse class="cls-10" cx="66.2" cy="64.68" rx="3.1" ry="2.76" transform="translate(-13.97 18.44) rotate(-14.36)"/><ellipse class="cls-13" cx="53.99" cy="67.56" rx="3.1" ry="2.76" transform="translate(-15.07 15.5) rotate(-14.36)"/><ellipse class="cls-3" cx="53.22" cy="61.55" rx="3.1" ry="2.76" transform="translate(-13.6 15.12) rotate(-14.36)"/><ellipse class="cls-3" cx="61.12" cy="57.03" rx="2.54" ry="2.37" transform="translate(-12.26 17) rotate(-14.4)"/><ellipse class="cls-3" cx="66.72" cy="54.45" rx="2.54" ry="2.37" transform="translate(-11.45 18.31) rotate(-14.4)"/><ellipse class="cls-3" cx="66.12" cy="62.83" rx="2.54" ry="2.37" transform="translate(-13.55 18.42) rotate(-14.4)"/><ellipse class="cls-3" cx="53.26" cy="66.92" rx="2.54" ry="2.37" transform="translate(-14.97 15.35) rotate(-14.4)"/><ellipse class="cls-12" cx="53.26" cy="66.92" rx="2.54" ry="2.37" transform="translate(-14.97 15.35) rotate(-14.4)"/><ellipse class="cls-14" cx="54.03" cy="77.13" rx="2.54" ry="2.37" transform="translate(-17.49 15.87) rotate(-14.4)"/><ellipse class="cls-14" cx="61.71" cy="73.76" rx="2.54" ry="2.37" transform="translate(-16.41 17.67) rotate(-14.4)"/><ellipse class="cls-11" cx="57.57" cy="75.08" rx="2.54" ry="2.37" transform="translate(-16.87 16.68) rotate(-14.4)"/><ellipse class="cls-9" cx="51.42" cy="81.07" rx="3.66" ry="3.86" transform="translate(-44.51 84.62) rotate(-59.74)"/><ellipse class="cls-9" cx="61.97" cy="86.4" rx="3.66" ry="3.86" transform="translate(-43.89 96.38) rotate(-59.74)"/><ellipse class="cls-9" cx="51.11" cy="93.3" rx="3.66" ry="3.86" transform="translate(-55.23 90.42) rotate(-59.74)"/><ellipse class="cls-9" cx="67.34" cy="102.67" rx="2.69" ry="3.31" transform="translate(-55.25 109.53) rotate(-59.94)"/><ellipse class="cls-9" cx="74.7" cy="94.13" rx="3.34" ry="4.32" transform="translate(-44.19 111.67) rotate(-59.96)"/><ellipse class="cls-9" cx="82.53" cy="82.58" rx="3.42" ry="4.13" transform="translate(-30.28 112.64) rotate(-59.94)"/><ellipse class="cls-9" cx="86.5" cy="94.83" rx="3.42" ry="4.13" transform="translate(-38.91 122.19) rotate(-59.94)"/><ellipse class="cls-9" cx="71.57" cy="79.26" rx="3.91" ry="4.23" transform="translate(-32.92 101.29) rotate(-59.83)"/><ellipse class="cls-2" cx="57.23" cy="79.44" rx="3.91" ry="4.23" transform="translate(-40.21 88.99) rotate(-59.83)"/><ellipse class="cls-2" cx="51.65" cy="100.07" rx="3.91" ry="4.23" transform="translate(-60.82 94.44) rotate(-59.83)"/><ellipse class="cls-2" cx="59.17" cy="91.26" rx="3.11" ry="3.86" transform="translate(-49.45 96.77) rotate(-59.95)"/><ellipse class="cls-2" cx="66.25" cy="98.13" rx="3.39" ry="3.95" transform="translate(-51.87 106.27) rotate(-59.92)"/><ellipse class="cls-2" cx="72.63" cy="89.08" rx="3.39" ry="3.95" transform="translate(-40.86 107.28) rotate(-59.92)"/><ellipse class="cls-2" cx="77.91" cy="80.66" rx="3.39" ry="3.95" transform="translate(-30.94 107.65) rotate(-59.92)"/><ellipse class="cls-2" cx="83.92" cy="88.46" rx="3.39" ry="3.95" transform="translate(-34.69 116.74) rotate(-59.92)"/><ellipse class="cls-2" cx="60.72" cy="104.2" rx="3.39" ry="3.95" transform="translate(-59.89 104.51) rotate(-59.92)"/><ellipse class="cls-5" cx="63.62" cy="77.67" rx="3.39" ry="3.95" transform="translate(-35.48 93.79) rotate(-59.92)"/><ellipse class="cls-5" cx="55.56" cy="85.59" rx="3.39" ry="3.95" transform="translate(-46.35 90.76) rotate(-59.92)"/><ellipse class="cls-5" cx="56.72" cy="96.54" rx="3.39" ry="3.95" transform="translate(-55.25 97.23) rotate(-59.92)"/><ellipse class="cls-5" cx="63.86" cy="102.61" rx="3.39" ry="3.95" transform="translate(-56.94 106.44) rotate(-59.92)"/><ellipse class="cls-5" cx="71.62" cy="98.75" rx="3.39" ry="3.95" transform="translate(-49.73 111.23) rotate(-59.92)"/><ellipse class="cls-5" cx="89.1" cy="90.32" rx="3.39" ry="3.95" transform="translate(-33.71 122.15) rotate(-59.92)"/><ellipse class="cls-5" cx="79.8" cy="92.47" rx="3.39" ry="3.49" transform="translate(-40.36 114.39) rotate(-59.55)"/><ellipse class="cls-5" cx="67.38" cy="90.28" rx="3.39" ry="3.49" transform="translate(-44.6 102.6) rotate(-59.55)"/><ellipse class="cls-5" cx="66.3" cy="83.13" rx="3.39" ry="3.49" transform="translate(-38.97 98.15) rotate(-59.55)"/><ellipse class="cls-5" cx="85.24" cy="83.24" rx="3.39" ry="3.49" transform="translate(-29.72 114.53) rotate(-59.55)"/><ellipse class="cls-5" cx="79.75" cy="99.54" rx="3.39" ry="3.49" transform="translate(-46.48 117.84) rotate(-59.55)"/><ellipse class="cls-5" cx="57.14" cy="102.14" rx="3.39" ry="3.49" transform="translate(-59.87 99.63) rotate(-59.55)"/><ellipse class="cls-5" cx="73.52" cy="103.76" rx="3.39" ry="3.68" transform="translate(-53.13 115.19) rotate(-59.84)"/><ellipse class="cls-5" cx="75.08" cy="84.29" rx="3.39" ry="3.68" transform="translate(-35.52 106.85) rotate(-59.84)"/><ellipse class="cls-5" cx="85.12" cy="101.64" rx="3.39" ry="3.68" transform="translate(-45.53 124.16) rotate(-59.84)"/><ellipse class="cls-10" cx="60.79" cy="82.57" rx="3.39" ry="3.68" transform="translate(-41.14 93.65) rotate(-59.84)"/><ellipse class="cls-10" cx="54.76" cy="91.18" rx="3.39" ry="3.68" transform="translate(-51.59 92.71) rotate(-59.84)"/><ellipse class="cls-10" cx="61.77" cy="98.32" rx="3.39" ry="3.68" transform="translate(-54.27 102.33) rotate(-59.84)"/><ellipse class="cls-10" cx="69.64" cy="93.72" rx="3.39" ry="3.68" transform="translate(-46.38 106.84) rotate(-59.84)"/><ellipse class="cls-10" cx="79.22" cy="86.68" rx="3.39" ry="3.68" transform="translate(-35.53 111.63) rotate(-59.84)"/><ellipse class="cls-10" cx="70.31" cy="85.19" rx="3.39" ry="3.68" transform="translate(-38.67 103.18) rotate(-59.84)"/><ellipse class="cls-10" cx="81.68" cy="96.76" rx="3.39" ry="3.68" transform="translate(-43.02 118.77) rotate(-59.84)"/><ellipse class="cls-10" cx="75.28" cy="100.88" rx="3.39" ry="3.68" transform="translate(-49.77 115.28) rotate(-59.84)"/><ellipse class="cls-13" cx="62.52" cy="93.19" rx="3.39" ry="3.68" transform="translate(-49.47 100.42) rotate(-59.84)"/><ellipse class="cls-3" cx="66.96" cy="87.24" rx="3.39" ry="3.68" transform="translate(-42.11 101.3) rotate(-59.84)"/><ellipse class="cls-3" cx="77.47" cy="89.87" rx="2.91" ry="3.02" transform="translate(-39.24 111.25) rotate(-59.62)"/><ellipse class="cls-3" cx="84.38" cy="92.28" rx="2.91" ry="3.02" transform="translate(-37.9 118.41) rotate(-59.62)"/><ellipse class="cls-3" cx="76.77" cy="99.19" rx="2.91" ry="3.02" transform="translate(-47.62 115.26) rotate(-59.62)"/><ellipse class="cls-3" cx="62.44" cy="92.02" rx="2.91" ry="3.02" transform="translate(-48.52 99.36) rotate(-59.62)"/><ellipse class="cls-12" cx="62.44" cy="92.02" rx="2.91" ry="3.02" transform="translate(-48.52 99.36) rotate(-59.62)"/><path class="cls-4" d="m116.64,106.69c.07.84.75,1.44,1.61,1.44.91,0,1.64-.7,1.64-1.61v-12.27h3.61v12.27c0,2.89-2.36,5.22-5.24,5.22-2.52,0-4.64-1.8-5.12-4.19l3.51-.87Z"/><path class="cls-4" d="m130.47,94.25v10.11c0,2,1.61,3.61,3.61,3.61s3.61-1.61,3.61-3.61v-10.11h3.61v10.11c0,3.99-3.22,7.22-7.21,7.22s-7.21-3.22-7.21-7.22v-10.11h3.61Z"/><path class="cls-4" d="m144.68,94.25h3.61v13.35h7.21v3.61h-10.82v-16.96Z"/><path class="cls-4" d="m159.25,104.82c-2.84-.84-4.93-3.63-4.93-6.95v-3.61h3.61v3.61c0,2,1.4,3.61,3.13,3.61s3.13-1.61,3.13-3.61v-3.61h3.61v3.61c0,3.32-2.09,6.11-4.93,6.95v6.4h-3.61v-6.4Z"/></svg>