<?xml version="1.0" encoding="UTF-8"?><svg id="Layer_2" xmlns="http://www.w3.org/2000/svg" width="370" height="192" xmlns:xlink="http://www.w3.org/1999/xlink" viewBox="0 0 370 192"><defs><style>.cls-1{fill:#e61c1c;stroke:#e61c1c;}.cls-1,.cls-2,.cls-3,.cls-4,.cls-5{stroke-miterlimit:10;}.cls-2{fill:#db3d3d;stroke:#db3d3d;}.cls-6{fill:url(#linear-gradient);}.cls-6,.cls-7,.cls-8,.cls-9,.cls-10,.cls-11{stroke-width:0px;}.cls-3{fill:red;stroke:red;}.cls-8{fill:#366139;}.cls-9{fill:#588c5c;}.cls-10{fill:#5bab60;}.cls-11{fill:#ffefe1;}.cls-4{fill:#c1272d;stroke:#c1272d;}.cls-5{fill:#c41b1b;stroke:#c41b1b;}</style><linearGradient id="linear-gradient" x1="439.95" y1="299.5" x2="465.34" y2="391.41" gradientTransform="translate(-415.19 431.78) rotate(-73.4)" gradientUnits="userSpaceOnUse"><stop offset="0" stop-color="#fc0"/><stop offset="1" stop-color="#ff6"/></linearGradient></defs><path class="cls-6" d="m10.65,192l359.35-86.38L15.58,0s-31.49,105.65-4.93,192Z"/><path class="cls-11" d="m101.32,169.87l268.68-64.25L104.9,26.62s-23.49,78.81-3.58,143.25Z"/><path class="cls-10" d="m18.56,143.69c1.8.96,3.57,2.12,5.56,2.67,1.29.36,2.61.63,3.95.72,1.43.1,3.05-.01,4.44-.36s2.5-1.09,3.67-1.79c.58-.35,1.18-.66,1.74-1.05s1.04-.79,1.62-1.1c.43-.22.85-.4,1.27-.64.31-.18.59-.24.94-.31.46-.09.91-.19,1.37-.28-1.18.29-1.72.34-2.32.29-.9-.08-1.25-.55-2.12-.81-.66-.2-1.28-.5-1.94-.71-.74-.24-1.52-.38-2.3-.41-1.6-.06-3.32.13-4.84.6-1.12.35-2.23.76-3.31,1.2-.63.25-1.24.5-1.89.7-.47.15-.89.36-1.35.52-.3.11-.61.14-.92.21-.37.07-.72.21-1.1.26-.41.05-.84.06-1.25.13-.21.03-1.01.29-1.2.16"/><path class="cls-10" d="m17.69,144.19c2.32,1.25,4.48,2.49,7.08,3.04,2.46.51,5.27.64,7.66-.26,1.58-.59,3.02-1.59,4.46-2.44.69-.41,1.4-.8,2.06-1.26.06-.04.69-.53.33-.28-.29.13-.19.09.28-.14l.69-.35c.63-.23,1.34-.31,2-.45l1.73-1c-.81.19-1.66.4-2.5.26-.91-.15-1.86-.73-2.72-1.06-2.39-.9-4.71-1.07-7.23-.52-2.32.5-4.58,1.51-6.79,2.37-.93.36-1.88.64-2.86.8-.64.1-1.82.45-2.45.29-.47-.12-1.28,1.12-1.73,1,.6.15,1.63-.19,2.24-.27.98-.12,1.98-.39,2.91-.75,2.25-.88,4.58-1.92,6.95-2.43s4.75-.44,7.04.45c.89.34,1.82.89,2.74,1.11s1.82-.03,2.68-.23c.62-.15,1.12-.87,1.73-1-1.18.25-2.11.5-3.18,1.03-.7.35-1.37.74-2.04,1.14-.85.5-1.62,1.11-2.47,1.62-.34.21-.69.41-1.04.61-.62.36.74-.31-.36.19-.37.17-.73.34-1.12.46-2.31.73-4.93.61-7.27.12-2.61-.55-4.76-1.79-7.08-3.04-.32-.17-1.44,1.16-1.73,1h0Z"/><path class="cls-10" d="m51.99,159.18c-1.5-1.62-3.25-3.18-4.27-5-.67-1.18-1.23-2.39-1.56-3.64-.36-1.33-.5-2.85-.3-4.17s.94-2.41,1.62-3.55c.34-.57.63-1.15,1.02-1.7.37-.53.81-1.03,1.1-1.59.21-.41.36-.82.59-1.23.17-.3.2-.57.22-.89.03-.43.08-.86.12-1.29-.17,1.12-.14,1.63.03,2.19.25.84.89,1.13,1.37,1.92.36.6.84,1.16,1.22,1.76.42.67.74,1.39.9,2.11.34,1.49.4,3.1.07,4.56-.24,1.07-.58,2.13-.94,3.18-.21.6-.42,1.2-.56,1.81-.11.45-.3.86-.43,1.3-.08.29-.08.58-.1.88-.03.35-.15.69-.14,1.04,0,.39.06.79.05,1.18,0,.19-.2.96,0,1.13"/><path class="cls-10" d="m52.86,158.68c-1.5-1.59-3.17-3.09-4.27-5s-1.9-4.06-1.95-6.3,1.08-4,2.2-5.91c.55-.94,1.3-1.75,1.77-2.74.51-1.07.67-1.93.79-3.11-.04.38-1.68.59-1.73,1-.11.78-.21,1.6.1,2.35.36.87,1.25,1.73,1.8,2.5,1.41,1.97,2.08,4.02,1.88,6.47-.19,2.22-1.12,4.43-1.78,6.54-.3.95-.54,1.88-.57,2.89-.01.44.06.87.03,1.32-.02.34-.15.68.02.99,0,0,1.75-.97,1.73-1-.24-.45-.04-1.6-.04-2.11-.01-.99.2-1.99.51-2.92.71-2.14,1.64-4.44,1.84-6.7s-.4-4.43-1.77-6.33c-.31-.44-.59-.91-.93-1.33-.31-.38-.7-.7-.92-1.15-.39-.78-.27-1.68-.16-2.52l-1.73,1c-.11,1.11-.25,1.94-.72,2.96s-1.18,1.79-1.74,2.72c-1.16,1.94-2.35,3.74-2.3,6.08.05,2.18.8,4.24,1.86,6.13,1.11,1.99,2.82,3.53,4.37,5.18.11.12,1.64-1.1,1.73-1h0Z"/><path class="cls-10" d="m25.88,127.41c1.1,1.69,2.07,3.54,3.52,4.96.94.92,1.94,1.78,3.05,2.49,1.18.76,2.62,1.42,3.98,1.77s2.66.22,4,.15c.66-.03,1.33-.03,1.99-.1.63-.07,1.27-.21,1.91-.2.47,0,.92.05,1.39.03.35,0,.62.07.95.17.43.14.87.26,1.31.39-1.15-.3-1.64-.51-2.13-.84-.74-.5-.81-1.07-1.44-1.71-.47-.49-.86-1.04-1.33-1.54-.52-.56-1.13-1.05-1.78-1.44-1.35-.8-2.9-1.45-4.44-1.75-1.12-.22-2.27-.37-3.41-.5-.66-.08-1.3-.14-1.95-.27-.47-.09-.94-.1-1.41-.17-.31-.05-.6-.16-.89-.25-.36-.11-.72-.15-1.07-.29-.38-.15-.75-.34-1.13-.47-.19-.07-1-.21-1.11-.42"/><path class="cls-10" d="m25.01,127.91c1.17,1.83,2.22,3.72,3.8,5.24s3.45,2.82,5.55,3.61,4.36.61,6.59.48c1.08-.07,2.11-.26,3.2-.23s1.94.28,2.95.57l1.73-1c-.73-.2-1.5-.39-2.13-.84-.75-.53-1.25-1.47-1.85-2.17-1.63-1.89-3.38-3.16-5.79-3.92-2.26-.72-4.72-.87-7.06-1.18-.97-.13-1.9-.3-2.84-.6-.5-.16-.95-.42-1.45-.57-.33-.1-.7-.14-.97-.38-.15-.14-1.61,1.12-1.73,1,.24.22.56.26.86.36.47.15.91.38,1.38.54.92.32,1.87.52,2.84.64,2.39.29,4.93.46,7.24,1.19s4.1,1.94,5.66,3.77c.6.7,1.12,1.64,1.84,2.21.65.52,1.48.74,2.27.95.46.12,1.3-1.13,1.73-1-.95-.28-1.79-.54-2.78-.57-1.09-.03-2.1.13-3.18.21-2.28.18-4.61.35-6.79-.46-2.04-.76-3.83-1.99-5.41-3.47s-2.73-3.48-3.94-5.37c-.02-.04-1.72,1.01-1.73,1h0Z"/><path class="cls-10" d="m34.56,119.31c1.18,1.76,2.25,3.71,3.75,5.11.97.9,2.01,1.73,3.13,2.36,1.2.68,2.64,1.21,3.98,1.4,1.29.18,2.6-.17,3.89-.46.64-.14,1.28-.24,1.92-.43s1.22-.44,1.84-.53c.46-.07.9-.09,1.35-.18.34-.07.61-.02.93.05.43.09.86.17,1.29.24-1.13-.16-1.62-.32-2.12-.62-.75-.45-.86-1.09-1.51-1.73-.49-.48-.91-1.05-1.39-1.55-.54-.55-1.16-1.03-1.82-1.37-1.36-.7-2.92-1.19-4.43-1.3-1.1-.08-2.23-.07-3.34-.04-.64.02-1.27.04-1.91,0-.46-.03-.92.03-1.38.02-.3,0-.59-.09-.88-.15-.35-.07-.71-.06-1.05-.16-.38-.11-.75-.27-1.13-.36-.19-.05-.99-.09-1.1-.31"/><path class="cls-10" d="m33.69,119.81c1.17,1.76,2.2,3.64,3.75,5.11s3.49,2.78,5.63,3.43,4.17.14,6.33-.32c1.06-.23,2.06-.66,3.14-.81,1.17-.16,2.08-.06,3.24.16l1.73-1c-.83-.13-1.75-.26-2.41-.83s-1.22-1.48-1.81-2.16c-1.56-1.79-3.38-2.9-5.73-3.39s-4.66-.25-6.93-.24c-.95,0-1.86-.05-2.79-.25-.49-.11-.95-.32-1.45-.42-.33-.07-.7-.05-.96-.29-.17-.15-1.59,1.13-1.73,1,.24.21.56.21.86.27.47.09.91.29,1.38.4.92.22,1.86.3,2.79.29,2.32-.04,4.82-.24,7.1.23s4.11,1.52,5.61,3.25c.61.7,1.15,1.54,1.81,2.18s1.63.8,2.52.94c.52.08,1.24-1.09,1.73-1-1.09-.2-1.97-.31-3.07-.17s-2.06.55-3.11.79c-2.21.5-4.29,1.03-6.53.36-2.08-.63-3.89-1.83-5.48-3.29s-2.69-3.43-3.9-5.24c-.03-.05-1.72,1.02-1.73,1h0Z"/><path class="cls-10" d="m66.18,147.33c-2.05-.78-4.31-1.42-5.97-2.55-1.08-.73-2.06-1.54-2.84-2.46-.83-.98-1.52-2.2-1.8-3.39-.28-1.15.04-2.39.3-3.62.12-.61.2-1.21.38-1.82.17-.59.42-1.18.5-1.76.05-.43.05-.83.13-1.27.06-.32-.01-.56-.1-.84-.12-.38-.24-.76-.35-1.14.24,1,.45,1.42.82,1.83.55.61,1.28.6,2.03,1.09.57.37,1.24.65,1.82,1.01.65.4,1.22.89,1.64,1.43.87,1.12,1.51,2.46,1.71,3.81.15.99.21,2.02.23,3.04.02.59.03,1.17.11,1.74.06.42.02.84.05,1.26.02.27.14.52.22.78.1.31.1.64.24.93.15.32.35.64.47.97.06.17.15.88.41.95"/><path class="cls-10" d="m67.05,146.83c-1.93-.72-3.98-1.28-5.73-2.39s-3.31-2.54-4.26-4.38c-.47-.91-.77-1.88-.72-2.91.06-1.09.36-2.18.56-3.24s.63-1.96.74-2.99c.05-.45.15-.93.09-1.38-.07-.51-.3-1.05-.45-1.55.04.14-1.78.82-1.73,1,.19.74.41,1.53,1.03,2.03.37.3.84.41,1.26.6.46.21.88.49,1.33.73,1.92,1.02,3.29,2.34,4.04,4.42s.6,4.37.73,6.49c.06,1,.17,1.98.6,2.9.14.3.3.58.4.9.09.28.1.6.37.78s1.49-1.16,1.73-1c-.24-.16-.27-.44-.35-.7-.11-.35-.26-.65-.42-.98-.43-.92-.55-1.9-.6-2.9-.12-2.11,0-4.48-.73-6.49s-2.13-3.4-4.04-4.42c-.45-.24-.87-.52-1.33-.73-.43-.19-.89-.3-1.26-.6-.63-.5-.85-1.29-1.03-2.03l-1.73,1c.14.46.35.94.43,1.41s-.02,1.02-.07,1.51c-.11,1.03-.54,1.98-.74,2.99s-.47,2.05-.55,3.08c-.09,1.1.2,2.11.7,3.08.94,1.84,2.53,3.28,4.26,4.38s3.8,1.67,5.73,2.39c.12.05.75-.42.87-.49s.74-.55.86-.51h0Z"/><path class="cls-10" d="m43.51,112.33c1.15,1.29,2.25,2.75,3.62,3.7.89.62,1.82,1.16,2.8,1.54,1.04.41,2.27.67,3.36.66s2.07-.45,3.07-.84c.5-.19,1-.35,1.49-.58s.93-.5,1.41-.65c.36-.11.71-.18,1.07-.31.26-.09.49-.09.75-.07.36.02.71.03,1.07.04-.93,0-1.34-.07-1.78-.25-.66-.28-.82-.78-1.42-1.22-.45-.33-.85-.75-1.3-1.09-.5-.38-1.06-.69-1.63-.89-1.18-.41-2.49-.62-3.71-.52-.9.07-1.8.21-2.69.37-.51.09-1.02.19-1.54.23-.38.03-.73.14-1.11.18-.24.03-.48,0-.73-.02-.29-.01-.58.04-.87,0-.32-.05-.64-.13-.95-.16-.16-.01-.8.05-.92-.12"/><path class="cls-10" d="m42.65,112.83c1.14,1.29,2.2,2.69,3.62,3.7s3.13,1.84,4.93,2.11,3.37-.39,5.05-1.02c.82-.31,1.58-.78,2.43-1.03.92-.27,1.66-.3,2.62-.26l1.73-1c-.65,0-1.32,0-1.91-.32-.66-.35-1.24-1.1-1.82-1.58-1.49-1.26-3.05-1.97-5.02-2.08-1.82-.11-3.66.37-5.46.62-.86.12-1.69.23-2.56.14-.36-.04-.71-.14-1.07-.16-.28-.02-.57.04-.81-.12-.26-.17-1.5,1.16-1.73,1,.37.25,1.28.19,1.72.25.87.12,1.72.03,2.58-.1,1.82-.28,3.74-.75,5.6-.64s3.48.74,4.9,1.97c.59.51,1.17,1.22,1.82,1.63.6.38,1.35.38,2.03.38.23,0,.67-.38.87-.49s.64-.52.86-.51c-.9-.03-1.62-.02-2.49.23s-1.59.69-2.41,1.01c-1.72.67-3.33,1.35-5.2,1.08-1.75-.26-3.35-1.02-4.79-2.02s-2.57-2.46-3.75-3.79c-.1-.11-1.65,1.09-1.73,1h0Z"/><path class="cls-10" d="m68.32,136.45c.61-1.77,1.44-3.6,1.6-5.33.11-1.12.12-2.22-.05-3.26-.18-1.11-.61-2.26-1.22-3.14-.6-.85-1.58-1.37-2.52-1.93-.47-.28-.9-.58-1.4-.83-.47-.23-1-.42-1.42-.72-.31-.22-.57-.45-.89-.66-.24-.15-.36-.33-.49-.56-.18-.3-.37-.59-.55-.89.52.74.68,1.12.74,1.6.09.71-.31,1.17-.4,1.94-.07.58-.25,1.18-.34,1.76-.1.65-.09,1.3.03,1.89.26,1.21.77,2.41,1.55,3.33.57.68,1.2,1.32,1.85,1.93.37.36.75.7,1.08,1.09.24.28.54.5.79.77.16.17.27.39.39.6.15.24.36.44.48.7.13.29.23.6.38.87.07.14.49.62.39.82"/><path class="cls-10" d="m69.18,135.95c.63-1.8,1.44-3.58,1.62-5.5s.02-3.92-.93-5.65c-.81-1.48-2.39-2.26-3.8-3.08-.7-.41-1.47-.66-2.12-1.14-.35-.25-.76-.5-1.03-.84s-.46-.74-.69-1.1l-1.73,1c.38.55.78,1.16.76,1.85-.01.41-.19.77-.3,1.16-.12.41-.16.84-.25,1.26-.4,1.9-.26,3.62.73,5.33.89,1.54,2.37,2.67,3.57,3.94.59.63,1.15,1.19,1.58,1.95.2.35.3.74.51,1.09.14.24.36.44.33.73,0-.09.77-.43.87-.49.11-.07.85-.38.86-.51.02-.27-.15-.45-.29-.66-.2-.33-.31-.69-.48-1.03-.4-.77-.97-1.35-1.56-1.97-1.24-1.29-2.76-2.48-3.67-4.04-.95-1.64-1.16-3.35-.76-5.18.1-.47.15-.95.28-1.41.1-.35.26-.67.29-1.04.07-.75-.34-1.38-.75-1.97-.03-.05-1.72,1.02-1.73,1,.49.78.87,1.3,1.6,1.86.66.5,1.4.76,2.12,1.16,1.45.82,3.09,1.64,3.92,3.15.92,1.68,1.1,3.61.94,5.48-.16,1.98-.98,3.81-1.63,5.66.05-.14.73-.41.87-.49.17-.1.8-.32.86-.51h0Z"/><path class="cls-10" d="m66.69,111.61c-.26,1.62-.7,3.34-.59,4.81.07.95.22,1.86.52,2.68.32.87.85,1.71,1.5,2.27s1.55.72,2.43.93c.44.11.85.24,1.31.32s.91.09,1.31.22c.29.1.55.23.86.31.23.06.35.18.5.33.2.2.4.4.6.59-.55-.48-.74-.75-.87-1.12-.18-.56.09-1.05.06-1.71-.02-.5.05-1.04.03-1.54-.01-.57-.11-1.1-.3-1.55-.39-.93-1.01-1.78-1.8-2.34-.58-.41-1.22-.77-1.86-1.11-.37-.2-.74-.38-1.08-.62-.25-.17-.53-.27-.79-.43-.17-.1-.28-.25-.42-.39-.16-.16-.37-.27-.51-.45-.15-.2-.28-.43-.45-.62-.08-.09-.51-.38-.46-.58"/><path class="cls-10" d="m65.82,112.11c-.5,2.97-1.21,6.22.66,8.9.39.56.88,1.03,1.51,1.31.67.29,1.41.41,2.11.6.79.21,1.63.23,2.4.5.3.11.66.19.92.37.3.2.56.54.82.79l1.73-1c-.46-.41-.89-.84-.93-1.49-.02-.34.09-.69.11-1.03.03-.4,0-.8.03-1.19.06-1.52-.36-2.87-1.43-3.98s-2.5-1.67-3.75-2.4c-.57-.33-1.12-.66-1.56-1.18-.18-.21-.3-.47-.5-.67-.16-.16-.39-.28-.4-.52,0,.06-.79.44-.87.49-.1.05-.87.41-.86.51.01.23.21.34.36.49.21.21.35.48.54.71.43.52.99.85,1.56,1.18,1.25.72,2.74,1.35,3.75,2.4,1.06,1.11,1.49,2.46,1.43,3.98-.02.36,0,.73-.02,1.09s-.14.75-.12,1.13c.03.64.48,1.09.93,1.49.16.14,1.6-1.12,1.73-1-.25-.24-.49-.54-.76-.74s-.65-.3-.98-.41c-.74-.27-1.54-.27-2.3-.47-.71-.19-1.45-.31-2.13-.59s-1.18-.75-1.6-1.35c-1.88-2.67-1.16-5.94-.66-8.9-.02.11-.76.43-.87.49-.13.07-.84.36-.86.51h0Z"/><path class="cls-10" d="m65.52,110.47c-1.58-.43-3.31-.74-4.63-1.45-.85-.47-1.64-.99-2.29-1.61-.69-.67-1.29-1.52-1.59-2.38s-.14-1.78-.05-2.71c.05-.46.06-.91.14-1.38.08-.45.23-.91.24-1.35,0-.32-.02-.62,0-.95.02-.24-.05-.41-.14-.62-.12-.27-.23-.55-.34-.82.25.73.44,1.02.75,1.3.45.41.99.35,1.59.66.45.23.97.39,1.43.61.52.25.97.57,1.33.94.73.77,1.3,1.71,1.55,2.71.18.73.3,1.49.4,2.24.06.44.11.87.21,1.29.07.31.07.62.13.93.04.2.14.38.22.56.1.22.12.46.25.67.14.23.3.45.42.69.06.12.18.64.38.68"/><path class="cls-10" d="m66.38,109.97c-1.46-.39-2.99-.65-4.35-1.31s-2.71-1.66-3.57-2.97c-.4-.62-.7-1.3-.75-2.04s.09-1.54.15-2.3c.07-.8.33-1.59.34-2.39,0-.37.05-.79-.03-1.15-.09-.38-.3-.76-.45-1.11.03.08-1.77.89-1.73,1,.2.56.44,1.15.98,1.47.3.17.64.22.97.33.34.12.66.29,1,.43,1.49.61,2.59,1.47,3.32,2.95s.74,3.14,1.01,4.68c.13.71.24,1.4.58,2.05.14.26.33.49.45.76.1.21.12.49.35.6.09.05.77-.43.87-.49s.77-.56.86-.51c-.21-.11-.24-.35-.33-.55-.11-.26-.27-.48-.42-.73-.36-.62-.5-1.33-.61-2.02-.25-1.58-.33-3.35-1.04-4.8s-1.77-2.33-3.21-2.91c-.37-.15-.72-.34-1.1-.47-.29-.1-.61-.14-.89-.29-.59-.31-.84-.92-1.06-1.51l-1.73,1c.14.33.33.67.42,1.02s.06.76.06,1.13c0,.81-.27,1.59-.33,2.39s-.2,1.54-.17,2.31.33,1.49.75,2.15c.83,1.29,2.12,2.24,3.48,2.92s2.95.96,4.44,1.36c.15.04.73-.41.87-.49s.71-.55.86-.51h0Z"/><path class="cls-9" d="m43.15,143.12c3.45-2.03,6.78-4.29,9.48-7.29s4.72-6.64,6.7-10.09c2.22-3.88,3.79-8.08,6.01-11.96,2.02-3.54,4.5-6.77,7.56-9.47,1.69-1.49,3.64-2.68,5.58-3.8s4.03-2.68,6.19-3.17c1.89-.43,1.05-3.31-.83-2.88s-3.65,1.63-5.29,2.56c-1.81,1.03-3.61,2.08-5.33,3.26-3.32,2.3-6.25,5.33-8.38,8.76-1.1,1.77-2.25,3.47-3.26,5.31-1.08,1.98-1.95,4.09-2.93,6.12-1.88,3.89-4.1,7.66-6.57,11.21-2.69,3.85-6.47,6.53-10.47,8.88-1.67.98-.13,3.56,1.54,2.58h0Z"/><path class="cls-9" d="m55.19,90.85c3.84,3.64,8.6,6.02,13.8,7.02,2.68.51,5.42.64,8.14.49,1.25-.07,2.49-.18,3.73-.33,1.16-.15,2.26-.55,3.43-.68,1.91-.2,1.85-3.2-.07-3-2.1.22-4.1.81-6.23.96-2.63.18-5.24.17-7.85-.28-4.85-.84-9.27-2.94-12.85-6.33-1.4-1.33-3.5.82-2.1,2.15h0Z"/><path class="cls-8" d="m55.15,88.58c-1.2.45-2.36.89-3.62,1.16s-2.45.09-3.67-.34c-1.1-.38-2.24-1.14-3.03-2s-1.34-2.03-2.08-2.99c-1.37-1.78-3.17-3.67-5.13-4.79-1.44-.82-4.48-2.24-5.9-.72-1.32,1.41.83,3.51,2.15,2.1-.27.29-.6.03-.28.28.08.06.57.16.59.16.52.17,1.04.36,1.53.59,1,.46,1.77,1.23,2.57,1.98.84.79,1.67,1.6,2.34,2.55s1.22,1.99,2,2.87c1.58,1.79,3.85,2.82,6.14,3.3,2.52.53,4.9-.38,7.23-1.25,1.8-.67.98-3.56-.83-2.88h0Z"/><path class="cls-8" d="m41.83,85.46c-.56.21-1.13.4-1.71.55-.27.07-.54.14-.82.19-.12.02-.24.05-.35.07-.08.01-.16.03-.24.04.18-.03.19-.03.02,0-.57.07-1.11.11-1.69.06s-1.17-.12-1.71.03c-.76.2-1.28,1.1-1.03,1.86s1.05,1.24,1.86,1.03c-.42.11-.15.03.02.04.1,0,.19.02.29.02.3.01.59.04.89.06.56.04,1.12-.04,1.68-.12,1.24-.18,2.45-.49,3.62-.93.73-.28,1.3-1.05,1.03-1.86-.24-.72-1.07-1.32-1.86-1.03h0Z"/><path class="cls-8" d="m46.72,88.84c-1.61-1.36-1.42-3.65-1.03-5.56.44-2.18.9-4.34,1.1-6.56s-.12-4.16-.74-6.33c-.51-1.81-.68-3.93-2.36-5.1-1.58-1.1-3.02,1.53-1.45,2.63-.62-.43.07.23.2.49.24.49.32,1.06.44,1.59.24,1.08.63,2.11.86,3.19.44,2.08.01,4.38-.36,6.44-.68,3.75-2.15,8.48,1.25,11.37,1.47,1.24,3.57-.9,2.1-2.15h0Z"/><path class="cls-8" d="m57.33,89.05c-.68-1.82-1.25-3.64-1.48-5.58s-.11-3.91.1-5.89.61-3.89.64-5.87.39-3.71.05-5.6-3.22-1.05-2.88.83c.17.92.02,1.81-.07,2.73-.1.99-.05,1.98-.11,2.97-.11,1.95-.51,3.9-.7,5.85-.39,3.97.19,7.67,1.58,11.39.67,1.8,3.56.98,2.88-.83h0Z"/><path class="cls-8" d="m55.97,77.44c.11-.4.4-.77.76-1.16.45-.5.9-1,1.37-1.48.94-.97,2.08-1.71,3.05-2.64s1.74-1.86,2.59-2.83c.45-.52.9-1.06,1.24-1.67.14-.25.27-.49.42-.74.06-.09.1-.18.15-.28l.05-.11c.13-.24.05-.16-.24.23.74-.32.9-1.42.52-2.06-.46-.77-1.31-.85-2.06-.52-.62.27-.88.99-1.2,1.53s-.53.93-.9,1.37c-.92,1.07-1.82,2.15-2.86,3.11s-2.26,1.8-3.26,2.88-2.14,2.18-2.54,3.66c-.51,1.86,2.41,2.57,2.92.7h0Z"/><path class="cls-8" d="m41.92,106.53c.58-.79,1.01-1.74,1.14-2.72.08-.66.08-1.26-.05-1.92-.09-.46-.31-.88-.41-1.34-.17-.77-1.12-1.27-1.86-1.03-.81.27-1.21,1.04-1.03,1.86.11.5.35.96.44,1.46l-.06-.38c.04.33.05.66.01.99l.04-.39c-.05.38-.14.74-.28,1.1l.15-.37c-.18.46-.43.88-.72,1.28-.21.29-.22.82-.13,1.14.1.35.38.73.72.9s.76.26,1.14.13c.4-.14.65-.38.9-.72h0Z"/><path class="cls-8" d="m33.14,101.54c1.99.35,4,.77,6.03.79s3.82-.45,5.52-1.57c1.58-1.05,2.96-2.59,3.86-4.26.46-.85.88-1.73,1.09-2.68.09-.41.15-.81.26-1.22.05-.21.13-.41.18-.62.03-.13.21-.75.1-.42.26-.77-.37-1.63-1.11-1.81-.84-.2-1.55.34-1.81,1.11-.04.11-.16.69-.09.47.04-.14-.09.2-.09.21-.12.35-.19.74-.26,1.11-.15.74-.34,1.36-.69,2.04-.7,1.34-1.69,2.65-2.96,3.49-.56.37-1.16.76-1.81.94-.77.22-1.61.23-2.4.21-1.73-.04-3.42-.41-5.12-.7-.8-.14-1.61.29-1.81,1.11-.18.75.31,1.67,1.11,1.81h0Z"/><ellipse class="cls-3" cx="39.45" cy="112.02" rx="5.92" ry="4.81" transform="translate(-75.07 143.47) rotate(-85.96)"/><ellipse class="cls-3" cx="28.9" cy="99.28" rx="5.35" ry="4.87" transform="translate(-19.55 7.93) rotate(-11.71)"/><circle class="cls-3" cx="15.36" cy="86.76" r="7.31"/><ellipse class="cls-1" cx="29.22" cy="76.42" rx="6.54" ry="7.79" transform="translate(-14.91 7.53) rotate(-11.72)"/><ellipse class="cls-1" cx="43.39" cy="52.35" rx="7.18" ry="6.82" transform="translate(-9.72 9.9) rotate(-11.71)"/><ellipse class="cls-1" cx="57.41" cy="60.99" rx="6.08" ry="5.84" transform="translate(-11.18 12.92) rotate(-11.71)"/><ellipse class="cls-2" cx="31.3" cy="53.45" rx="7.53" ry="6.68" transform="translate(-10.2 7.47) rotate(-11.71)"/><ellipse class="cls-2" cx="63.08" cy="50.06" rx="5.71" ry="7.15" transform="translate(-8.85 13.85) rotate(-11.71)"/><ellipse class="cls-3" cx="38.57" cy="62.39" rx="5.64" ry="6.75" transform="translate(-30.71 38.3) rotate(-39.1)"/><ellipse class="cls-4" cx="54.67" cy="50.08" rx="6.94" ry="7.31" transform="translate(-15.67 26.64) rotate(-24.06)"/><ellipse class="cls-4" cx="28.71" cy="64.43" rx="6.15" ry="7.1" transform="translate(-12.49 7.17) rotate(-11.72)"/><circle class="cls-4" cx="68.43" cy="60.97" r="6.05"/><ellipse class="cls-4" cx="29.25" cy="88.21" rx="6.4" ry="7.23" transform="translate(-17.3 7.78) rotate(-11.72)"/><circle class="cls-4" cx="30.25" cy="116.46" r="6.5"/><ellipse class="cls-1" cx="23.74" cy="108.4" rx="6.77" ry="6.42" transform="translate(-21.51 7.07) rotate(-11.71)"/><ellipse class="cls-2" cx="51.27" cy="58.35" rx="6.63" ry="6.12" transform="translate(-10.78 11.62) rotate(-11.71)"/><ellipse class="cls-2" cx="17.55" cy="70.88" rx="7.1" ry="7.64" transform="translate(-53.13 52.52) rotate(-61.53)"/><ellipse class="cls-2" cx="14.61" cy="100.45" rx="7.46" ry="6.47" transform="translate(-53.73 25.39) rotate(-34.04)"/><ellipse class="cls-5" cx="22.34" cy="93.97" rx="6.25" ry="5.97" transform="translate(-18.61 6.49) rotate(-11.71)"/><ellipse class="cls-5" cx="37.31" cy="69.89" rx="4.07" ry="4.7" transform="translate(-13.41 9.03) rotate(-11.72)"/><ellipse class="cls-5" cx="21.91" cy="77.88" rx="5.39" ry="6.31" transform="translate(-58.85 82.7) rotate(-77.7)"/><ellipse class="cls-5" cx="43.34" cy="41.62" rx="6.39" ry="7.54" transform="translate(-6.55 75.1) rotate(-77.7)"/><path class="cls-9" d="m34.96,143.15c-1.5.27-3,.53-4.51.69-3.61.24-8.3.07-12.26-.47,5.09,1.38,10.54,1.81,15.82.73,2.75-.46,5.54-.97,8.06-2.21.48-.27.99-.53,1.43-.84-.59.29-1.21.52-1.83.75-2.04.63-4.48,1.05-6.71,1.34Z"/><path class="cls-9" d="m28.26,130.49c1.39,1.29,3.1,2.22,4.81,3.03,2,.88,4.07,1.67,6.23,2.08,2.02.4,4.1.42,6.14.66.47.04,1.27.14,1.53.23-.62-.3-1.33-.39-2-.55-2.13-.47-4.1-.66-6.03-1.17-2.43-.6-5.12-1.66-7.06-2.66-1.21-.67-2.49-1.25-3.55-2.15-.67-.61-1.69-1.81-2.46-2.63.78,1.05,1.45,2.24,2.4,3.17Z"/><path class="cls-9" d="m49.67,139.83c-1.66,3.81-2.68,8.35-1.05,12.34.48,1.05,1.16,1.99,1.75,2.98.72,1.37,1.46,2.76,1.91,4.23-.28-1.62-.8-2.86-1.33-4.24-.46-1.03-1.08-1.99-1.54-3.02-1.55-3.63-.68-8,.46-12.03.22-.7.46-1.48.67-2.13-.31.62-.6,1.25-.87,1.88Z"/><path class="cls-9" d="m35.84,120.28c1.34.88,2.93,2.08,3.92,2.94.84.68,1.24,1.17,2.19,1.75,3.66,2.51,8.4,2.4,12.57,1.48-1.56.18-3.07.19-4.66.04-2.5-.11-4.96-.61-6.96-1.84-.97-.53-1.8-1.26-2.68-1.93-1.22-.93-2.52-1.76-3.89-2.44-.63-.35-1.3-.62-1.9-.94.45.34.94.61,1.41.93Z"/><path class="cls-9" d="m57.73,139.02c1.25,3.1,4,5.27,6.73,7.05.48.32.97.65,1.47.92-.67-.51-1.24-1.04-1.9-1.58-2.08-1.81-4.33-3.88-5.45-6.39-.57-1.2-.88-2.62-1.13-4.16-.34-1.64-.29-3.15-.08-4.85-.85,2.87-.66,6.21.37,9.02Z"/><path class="cls-9" d="m64.65,128.45c1.73,2.06,3.31,3.83,3.62,6.49.09.43.07.89.08,1.32.12-.67.14-1.33.08-1.93,0-2.82-2.3-5.17-3.96-7.39-1.12-1.54-2.14-4.06-2.26-6.37-.27,2.82.68,5.67,2.44,7.88Z"/><path class="cls-9" d="m66.61,112.66c.1,1.09.26,2.17.39,3.25.27,1.47.64,3.2,1.99,4.06,1.51.93,3.38,1.66,4.62,2.78.41.41.91.85,1.3,1.22-.52-.64-1-1.33-1.58-1.91-1.3-1.18-2.89-1.94-4.3-2.97-1.47-1.55-1.73-5.19-2.57-7.86.13.49.11.94.15,1.43Z"/><path class="cls-9" d="m57.85,99.01c.48,2.36.71,4.81,1.95,6.93,1.17,1.97,3.26,3.79,5.57,4.16-1.62-.47-2.74-1.58-3.83-2.83-1.87-2.24-2.48-4.99-3.37-7.72-.13-.4-.34-.89-.57-1.16.11.2.2.42.25.62Z"/><path class="cls-9" d="m45.19,112.71c1.74.86,3.21,2.18,4.98,2.98,3.68,1.49,7.6-.1,11.33.02-3.95-.45-7.97.6-11.53-.86-1.38-.62-3.05-1.72-4.73-2.29-.34-.14-.84-.38-1.11-.38.39.09.7.35,1.05.54Z"/><path class="cls-7" d="m112,99.17c0-3.99,2.91-7.21,6.49-7.21s6.49,3.22,6.49,7.21v10.1h-3.61v-3.61h-5.77v3.61h-3.61v-10.1Zm3.61,2.89h5.77v-2.89c0-2-1.3-3.61-2.89-3.61s-2.89,1.61-2.89,3.61v2.89Z"/><path class="cls-7" d="m128.11,92.32h7.41c2.89,0,5.24,2.36,5.24,5.24s-2.36,5.22-5.24,5.22h-3.8v6.49h-3.61v-16.95Zm3.61,3.61v3.25h3.8c.91,0,1.64-.7,1.64-1.61s-.72-1.64-1.64-1.64h-3.8Z"/><path class="cls-7" d="m150.67,92.32c2.89,0,5.24,2.36,5.24,5.24,0,2.28-1.49,4.23-3.54,4.93l1.49,2.72c.43.79,1.39,1.06,2.21.62l1.73,3.17c-2.55,1.37-5.72.46-7.12-2.07l-2.26-4.16h-1.56v6.49h-3.61v-16.95h7.41Zm-3.8,3.61v3.25h3.8c.91,0,1.64-.7,1.64-1.61s-.72-1.64-1.64-1.64h-3.8Z"/><path class="cls-7" d="m158.85,92.32h3.61v16.95h-3.61v-16.95Z"/><path class="cls-7" d="m165.97,92.32h3.61v13.35h7.21v3.61h-10.82v-16.95Z"/></svg>