<?xml version="1.0" encoding="UTF-8"?><svg id="Layer_2" xmlns="http://www.w3.org/2000/svg" width="370" height="192" xmlns:xlink="http://www.w3.org/1999/xlink" viewBox="0 0 370 192"><defs><style>.cls-1{fill:#46854a;}.cls-1,.cls-2,.cls-3,.cls-4,.cls-5,.cls-6,.cls-7{stroke-width:0px;}.cls-2{fill:url(#linear-gradient);}.cls-4{fill:#8cc63f;opacity:.42;}.cls-5{fill:#588c5c;}.cls-6{fill:#ffefe1;}.cls-7{fill:#47a64e;}</style><linearGradient id="linear-gradient" x1="486.29" y1="313" x2="511.68" y2="404.94" gradientTransform="translate(-436.19 478.73) rotate(-74.22)" gradientUnits="userSpaceOnUse"><stop offset="0" stop-color="#69f"/><stop offset="1" stop-color="#9cf"/></linearGradient></defs><path class="cls-2" d="m11.8,192l358.2-91.44L14.01,0s-29.99,106.06-2.21,192Z"/><path class="cls-6" d="m102.18,168.59l267.82-68.04L103.73,25.34s-22.37,79.12-1.55,143.25Z"/><path class="cls-1" d="m85.64,95.13c-1.11-.02-2.11.03-3.2-.18-.96-.19-1.92-.31-2.88-.51-2.3-.47-4.56-1.18-6.78-1.92-1.85-.62-3.72-1.18-5.58-1.78-2.36-.77-4.72-1.23-7.17-1.66-2.78-.48-5.57-.87-8.36-1.3-2.33-.36-4.67-.37-7.01-.55-1.47-.11-3-.12-4.28-.93-.8-.5-1.59-.99-2.4-1.47-.85-.51-1.34-1.24-2-1.97-.88-.98-1.89-1.84-2.79-2.79-.41-.43-.84-.85-1.27-1.26-.6-.59-1.38-.99-2.06-1.48-.95-.69-2.03-1.04-2.94-1.79-.39-.32-.82-.54-1.22-.84-.56-.41-.98-1.01-1.43-1.53-.39-.45-.54-.85-.72-1.42-.24-.75-.66-1.38-1.04-2.08-.5-.92-.72-1.88-.98-2.88-.19-.73-.56-1.39-.71-2.13-.28-1.35-.26-2.96-.19-4.33s-.34-2.72-.7-4.09c-.51-1.92.03-3.64.2-5.54.09-.96.42-1.86.4-2.84-.02-.72-.12-1.51-.22-2.23-.03-.25-.07-.38-.15-.61-.2-.59-.25-1.01-.33-1.63-.1-.69-.24-1.4-.39-2.08-.2-.92-.4-1.84-.61-2.75-.11-.45-.24-1.07-.04-1.52.31.37.27.95.37,1.4.11.47.28.94.47,1.39.25.6.53,1.2.81,1.79.36.78.9,1.39,1.37,2.11s1.05,1.28,1.61,1.95c.6.71,1.03,1.53,1.64,2.24.96,1.12,2.02,2.25,3.15,3.2,1.33,1.11,2.92,1.95,4.48,2.69,1.12.54,2.17,1.07,3.4,1.33.93.2,1.92.12,2.84.35s2.08.36,2.97.75c1.03.45,1.8,1.06,2.52,1.91.34.41.69.75,1.12,1.08.53.41.89.87,1.35,1.34.86.88,2.01,1.33,2.9,2.19,1.02.98,1.84,1.94,2.58,3.14.34.55.57,1.16.89,1.72.43.75,1.1,1.34,1.74,1.91,2,1.79,4.54,2.77,6.28,4.89s2.14,5.22,2.33,7.92c.09,1.26.29,2.46.87,3.58.49.93,1.02,1.88,1.7,2.69.51.6,1.08,1.12,1.63,1.68.68.7,1.9,1.47,2.86,1.59"/><path class="cls-1" d="m86.51,94.63c-7.4-.08-14.03-3.42-21.1-5.15-3.46-.85-7.02-1.33-10.54-1.86s-7-.68-10.54-.99c-1.68-.15-2.86-.72-4.27-1.59-.75-.46-1.51-.86-2.14-1.49-.59-.58-1.08-1.25-1.66-1.84-1.13-1.15-2.26-2.35-3.46-3.42-1.29-1.15-2.85-1.87-4.29-2.78-1.27-.8-2.46-1.67-3.36-2.87-.43-.57-.58-1.14-.85-1.79-.31-.73-.77-1.38-1.1-2.11-.37-.8-.53-1.65-.78-2.49-.21-.72-.55-1.4-.71-2.13-.41-1.75-.07-3.51-.21-5.27-.16-2.06-1.04-3.82-.84-5.93.18-1.85.75-3.75.75-5.6s-.52-3.56-.83-5.3c-.16-.88-.36-1.75-.55-2.62-.21-.94-.6-1.94-.35-2.89l-1.73,1c.31.55.3,1.15.47,1.75s.43,1.19.69,1.76c.57,1.27,1.27,2.42,2.11,3.53.74.98,1.58,1.86,2.29,2.88.82,1.19,1.82,2.26,2.86,3.26,2.07,1.97,4.68,3.39,7.32,4.44,2.35.93,5.01.59,7.37,1.58,2.23.93,3.61,3.24,5.44,4.74,1.01.83,2.12,1.41,3.04,2.37s1.75,2.04,2.36,3.24c1.2,2.37,3.16,3.72,5.33,5.17s3.97,3.11,4.77,5.7c.85,2.77.36,5.86,1.64,8.48,1.17,2.39,3.41,5.44,6.19,5.96.51.09,1.24-1.09,1.73-1-2.55-.48-4.62-3.12-5.81-5.26-1.3-2.33-1.14-4.76-1.58-7.31s-1.57-4.88-3.74-6.55c-1.95-1.51-4.27-2.59-5.85-4.55-.77-.96-1.16-2.18-1.89-3.18-.78-1.09-1.7-2.14-2.8-2.92s-1.96-1.47-2.89-2.38c-.87-.85-1.75-1.83-2.69-2.59-2.03-1.64-4.69-1.55-7.12-1.97-1.28-.22-2.45-.8-3.6-1.36-1.31-.63-2.62-1.3-3.79-2.16-2.59-1.9-4.26-4.53-6.31-6.92-.94-1.1-1.78-2.33-2.39-3.64-.3-.64-.6-1.28-.82-1.95s-.22-1.46-.58-2.1c.03.06-1.69.83-1.73,1-.37,1.42.45,3.28.74,4.68.32,1.58.72,3.2.89,4.8.38,3.43-1.26,6.74-.38,10.17.44,1.69.56,3.19.53,4.92-.01.88,0,1.77.16,2.63s.54,1.68.79,2.54.42,1.68.78,2.49c.28.6.66,1.15.94,1.75s.43,1.3.8,1.87c.42.64,1.03,1.32,1.63,1.8,1.19.93,2.53,1.59,3.8,2.39,1.52.95,2.75,2.04,4,3.31,2.31,2.33,4.48,5.01,7.61,6.29,1.39.57,3.02.53,4.49.63,1.87.12,3.75.17,5.6.42,3.55.48,7.12,1.03,10.64,1.7,8.03,1.54,15.49,5.64,23.79,5.73.58,0,1.17-1.01,1.73-1h0Z"/><path class="cls-5" d="m85.22,94.78c-.76.55-1.55.66-2.44.9s-1.69.49-2.56.67c-.96.21-1.91.5-2.89.6-1.5.16-3.06.25-4.53.62-1.07.27-2.11.65-3.19.88s-1.84.79-2.82,1.22c-1.96.85-3.61,2.16-5.59,2.99-.89.37-1.73.88-2.66,1.16-.73.22-1.43.38-2.17.52-1.84.37-3.75.56-5.64.4-1.74-.15-3.43.19-5.16.05-.69-.06-1.41-.19-2.1-.13-.98.09-1.96.42-2.92.61-1.96.41-4.32.5-6.08,1.48s-3.73,1.59-5.51,2.56c-1.25.68-2.44,1.44-3.64,2.21-1.4.89-2.98,1.89-4.01,3.21-.8,1.03-1.64,2.15-2.09,3.38-.68,1.86-.62,3.8-.34,5.73.08.57.09,1.08.25,1.62s.27,1.09.37,1.65.03,1,.03,1.57.15,1.16.21,1.72c.07.73-.09,1.44,0,2.16.09.79.38,1.46.66,2.2.51,1.33,1.33,2.2,2.29,3.22s1.69,2.19,2.91,2.96c.46.29.89.4,1.4.57.42.14.79.45,1.2.57-.48-1-1.84-1.51-2.7-2.12-.43-.31-.87-.56-1.33-.83-.88-.51-1.3-1.27-1.67-2.2-.44-1.13-.41-1.91.31-2.91s1.11-2.1,2.18-2.8,2.42-1.31,3.7-1.67c1.39-.4,2.73-.22,4.15-.12,1.16.08,2.46.37,3.6.06.69-.19,1.38-.46,2.05-.72.62-.25,1.03-.65,1.56-1.02.61-.43,1.34-.71,1.94-1.15.39-.28.68-.61,1.11-.84,1.03-.55,2.43-.09,3.56-.04,2.19.1,4.26-1.75,5.61-3.3.87-1,1.62-2.13,1.94-3.44.27-1.09.49-2.14.9-3.19.75-1.91,2.34-3.23,3.12-5.09.55-1.31,1.09-2.58,1.84-3.8.35-.58.64-1.19.98-1.76s.88-1.01,1.32-1.53c.9-1.04,1.89-2.16,2.94-3.05.96-.82,2.21-2.28,3.55-2.26"/><path class="cls-5" d="m84.38,95.26c1.36-.87.49-.4,0-.27-.39.1-.78.2-1.17.3-.85.23-1.69.45-2.54.65-1.89.44-3.76.56-5.67.86-3.19.5-6.24,1.66-9.06,3.22-2.67,1.49-5.25,3.07-8.28,3.72-1.85.39-3.72.61-5.61.53-2.02-.09-4.04.17-6.05-.02-1.64-.15-3.01.2-4.61.53s-3.41.44-5.03,1.02-3.07,1.42-4.6,2.09c-1.27.55-2.46,1.2-3.66,1.89-2.43,1.4-5.22,2.83-7.18,4.88-1.17,1.22-2.25,2.78-2.74,4.4-.57,1.88-.39,3.81-.14,5.72.11.83.33,1.62.49,2.44.18.95.08,1.89.2,2.84.12,1.02,0,2.02.12,3.02.09.88.45,1.79.83,2.58.77,1.63,2.19,2.92,3.37,4.27s2.61,2.01,4.27,2.66c.17.07,1.69-1.07,1.73-1-.69-1.18-2.23-1.85-3.35-2.55-1.37-.85-2.45-1.92-2.62-3.63-.13-1.32,1.13-2.99,1.96-3.95.18-.21.76-.8.15-.36.45-.33,1.13-.54,1.66-.73.91-.33,1.82-.54,2.79-.56,1.93-.03,4.01.64,5.91.19,1.25-.3,2.39-.87,3.5-1.51.32-.18.64-.36.94-.57.35-.23.81-.7.17-.25.21-.15.5-.27.73-.41,1.06-.6,1.98-1.34,3.01-1.98l-1.7.98c1.61-.69,3.33.27,5-.24,1.05-.32,2.04-.98,2.98-1.55,1.33-.81,2.49-1.93,3.43-3.16,1.25-1.64,1.47-3.42,2.1-5.33.59-1.81,1.83-3.11,2.81-4.7s1.64-3.53,2.59-5.21,2.17-3.09,3.52-4.52c.64-.68,1.34-1.29,2.03-1.92.27-.25.58-.49.83-.75.45-.34.39-.33-.18.05.21-.07.44-.11.66-.1.61-.05,1.14-.96,1.73-1-1.06.08-2.03.78-2.92,1.32-1.32.81-2.52,1.99-3.59,3.1-1.34,1.38-2.69,2.79-3.62,4.47s-1.62,3.38-2.49,5.05-2.28,2.98-2.95,4.77c-.73,1.94-.87,3.91-2.14,5.62-.96,1.3-2.23,2.75-3.59,3.01-1.52.28-3.08-.55-4.54.15-.48.23-.95.53-1.41.81-.18.11-.38.22-.55.34-.12.09-.31.2-.4.32-.31.42.74-.37,0,.11-1.16.74-2.35,1.49-3.52,2.21l1.7-.98c-1.52.72-2.96,1.11-4.64.96s-3.38-.46-5.03-.13c-2.01.4-3.98,1.55-5.69,2.66-1.02.66-1.53,1.63-2.17,2.63-.81,1.25-.99,2.16-.37,3.55,1.09,2.48,4.28,2.6,5.56,4.81l1.73-1c-1.35-.53-2.73-1.05-3.76-2.11s-2.15-2.27-3.06-3.48-1.62-2.84-1.66-4.36c-.05-1.65,0-3.37-.21-5.02s-.72-3.31-.8-5.05.19-3.56,1.08-5.15c1.84-3.28,5.25-5.63,8.61-7.19,1.46-.68,2.94-1.28,4.38-1.99,1.55-.77,3.22-.98,4.91-1.26s3.24-.91,4.9-.82c1.84.1,3.64.02,5.48.03,3.56.03,7.02.01,10.32-1.54,2.42-1.14,4.68-2.51,7.08-3.68,1.8-.88,3.67-1.44,5.62-1.92s4.15-.46,6.19-.93c1.73-.4,3.57-.75,5.24-1.35.95-.35,1.85-.94,2.7-1.49-.4.26-1.16.63-1.67.96h0Z"/><path class="cls-7" d="m87.81,94.97c-2.36.42-4.76.88-7.16.98-2.7.12-5.37.45-8.06.05-.82-.12-1.66-.24-2.48-.43s-1.69-.28-2.48-.56c-1.34-.48-2.64-1.02-3.93-1.62-1.41-.65-2.92-1.07-4.46-1.27s-2.94-.81-4.51-.92c-.49-.03-.94-.07-1.42-.2-.57-.15-1.12-.11-1.69-.21-.53-.1-1-.29-1.55-.32-.75-.04-1.25-.21-1.94-.53-2-.95-3.63-2.17-5.92-2.37-.72-.06-1.39-.04-2.09.1-.43.09-.8.31-1.22.4-.24.05-.42,0-.64.1-.18.09-.31.24-.5.32-.37.16-.81.24-1.2.37-.42.14-.86.26-1.29.32-.68.09-1.39.3-2.08.27-.5-.02-.97-.23-1.44-.37-.88-.26-1.64-.26-2.54-.09s-1.9.78-2.67,1.32-1.7,1.14-2.59,1.57c-.55.27-.96.42-1.47.8-.55.41-1,.87-1.5,1.34-1.47,1.39-2.76,2.67-3.59,4.56-.23.52-.56.92-.87,1.39-.39.59-.66,1.25-1.03,1.85-.52.83-1.25,1.56-1.86,2.34-.82,1.05-1.57,2.14-2.33,3.24s-1.72,2.18-2.17,3.42c-.26.73-.48,1.49-.77,2.21-.22.54-.39,1.69-.85,2.06.27-1.21.78-2.11,1.32-3.18.68-1.32,1.21-2.72,2.22-3.84s2.15-2.01,3.45-2.67c.51-.26,1.09-.36,1.63-.49.86-.22,1.73-.46,2.62-.55,1.6-.16,3.1.01,4.58.68.47.21.94.53,1.44.66.69.18,1.17.2,1.8.55,1.02.56,2.43.77,3.58,1,1.43.29,2.73.07,4.08-.44.94-.35,1.8-.97,2.74-1.36,1.15-.48,2.38-.77,3.6-.96,1.88-.29,3.65.26,5.41.79.82.25,1.44.41,2.24.03.3-.14.5-.39.77-.55.33-.2.78-.2,1.17-.24,1.06-.11,1.73-.19,2.58-.83.33-.25.71-.41,1.02-.68.7-.6,1.24-1.28,2.07-1.73s1.76-.91,2.65-1.3c1.1-.49,2.28-.77,3.4-1.22,1.79-.72,3.79-.85,5.67-1.19,2.79-.5,5.78-1.38,8.65-1.11"/><path class="cls-7" d="m88.67,94.47c-7.8,1.4-15.81,2.09-23.24-1.19-1.68-.74-3.29-1.35-5.11-1.63s-3.47-.79-5.26-.99c-1.62-.18-3.34-.42-4.92-.8-1.67-.39-3.12-1.57-4.7-2.2-.89-.36-1.82-.58-2.78-.62-1.06-.04-1.88.28-2.89.53-1.06.26-1.91.82-2.85,1.41l1.7-.98c-1.08.39-2.19.65-3.31.83-1.21.19-1.97-.12-3.13-.35-1.81-.36-3.29.39-4.8,1.27-1.25.73-2.44,1.52-3.71,2.21s-2.35,1.42-3.4,2.43c-1.51,1.44-2.76,2.84-3.73,4.7-1.06,2.01-2.35,3.8-3.75,5.57s-2.84,3.65-3.97,5.58c-.6,1.01-.92,2.19-1.3,3.3-.24.7-.34,1.5-.85,2.06l1.73-1c.53-2.05,1.66-4.27,2.81-6.05.58-.9,1.34-1.67,2.17-2.34l.32-.25c.71-.52.83-.59.35-.22.55-.18,1.11-.3,1.67-.44,2.29-.56,4.56-.75,6.77.24.86.39,1.64.63,2.53.92.97.31,1.82.78,2.83,1,2.07.46,3.96.56,5.94-.31,2.27-1,4.29-2.18,6.86-2.23,1.07-.02,2.13.2,3.16.48s2.13.85,3.18.56,2.03-1.08,2.88-1.7l-1.73,1c1.02-.39,2.15-.21,3.16-.69.61-.29,1.2-.66,1.77-1.01.9-.55,1.66-1.13,2.44-1.84.09-.08.56-.4.57-.5-.74.38-.91.47-.49.25.12-.07.25-.13.38-.19.75-.38,1.52-.75,2.31-1.05,1.31-.5,2.68-1.02,4.04-1.38s2.79-.5,4.19-.73c2.95-.5,5.84-1.37,8.86-1.15.56.04,1.19-1.04,1.73-1-2.72-.2-5.34.47-7.98.98-1.25.24-2.51.39-3.76.61-1.34.25-2.57.72-3.86,1.15-1.89.63-3.68,1.43-5.41,2.43-1.64.94-2.95,2.21-4.5,3.27l1.61-.94c-1.11.62-2.41.33-3.51.89-.81.41-1.51.95-2.28,1.43l1.7-.98c-1.11.42-2.04.02-3.12-.29-1.17-.33-2.37-.63-3.6-.61-2.03.04-4.05.74-5.82,1.69-2.37,1.28-4.4,1.43-6.99.86-1.01-.22-1.86-.69-2.83-1s-1.81-.61-2.74-1c-3.55-1.5-7.59-.24-10.73,1.63-1.48.88-2.87,2-3.82,3.46-1.15,1.78-2.29,4-2.81,6.05.09-.36,1.45-.69,1.73-1,.56-.6.67-1.53.94-2.28.42-1.18.75-2.36,1.43-3.43,1.34-2.08,2.84-4.16,4.44-6.05s2.47-3.98,3.72-5.98c1.14-1.82,2.96-3.65,4.73-4.87l-.42.26c-1.16.68.11.02.28-.06.23-.12.46-.25.69-.38.55-.31,1.1-.63,1.65-.96s1.1-.8,1.7-1.1c.84-.42,2.02-.44,2.91-.26.99.2,1.68.54,2.71.42s1.98-.36,2.94-.65c1.09-.34,2.05-.93,3-1.55l-1.7.98c2.09-.48,3.83-.91,5.94-.16,1.85.66,3.49,2.1,5.45,2.42,3.88.63,7.85,1.07,11.66,2.1,2.19.59,4.16,1.78,6.31,2.48,1.86.61,3.96.93,5.91,1.1,4.71.43,9.64-.32,14.26-1.15.62-.11,1.12-.89,1.73-1h0Z"/><path class="cls-4" d="m25.62,58.72c1.38,2.75,3.12,5.33,5.17,7.62,1.76,2.01,3.81,3.74,5.67,5.65,2.36,2.5,5.07,4.66,7.79,6.75,2.91,2.31,6.09,4.22,9.31,6.06,4.54,2.84,9.16,4.83,14.56,6.17-2.24-.91-4.96-2.06-6.8-3.04-3.21-1.73-6.25-3.74-9.39-5.58-6.11-3.58-11.36-7.93-16.04-12.75-3.46-3.09-6.74-7.06-8.88-10.62-.71-1.19-1.51-2.33-2.18-3.54-.9-1.66-1.49-3.47-2.14-5.23.52,2.99,1.41,5.88,2.93,8.51Z"/><path class="cls-4" d="m51.92,70.88c.41,2.24.57,4.53,1.15,6.74.15.94.25,1.89.65,2.77.29.98,1.21,2.25,1.97,3.42.98,1.14,2.2,2.07,3.34,3.04-.96-1.05-1.98-2.09-2.85-3.22-.52-.98-1.5-2.61-1.74-3.3-.34-.82-.55-1.78-.72-2.86-.61-1.88-.78-3.85-1.39-5.73-.21-.82-.44-1.88-.71-2.55.17.55.16,1.13.29,1.69Z"/><path class="cls-4" d="m41.88,61.54c.02,1.56-.22,3.15.19,4.68.37,1.12.99,2.14,1.29,3.25.23,2.44,1.11,4.77,2.22,6.94,1.52,2.19,3.24,4.28,5.21,6.09-1.77-2-3.24-4.2-4.58-6.27-1.04-2.36-1.75-4.13-2.11-6.79-.31-1.12-.98-2.17-1.46-3.27-.34-.89-.43-1.87-.45-2.82-.1-1.09-.15-2.49-.39-3.4.07.52.07,1.05.08,1.58Z"/><path class="cls-4" d="m33.48,58.64c.22.54.27,1.15.52,1.69.12.87.23,1.74.38,2.61,0,0,0,0,0,0,.01.13-.07.25-.13.42-.22.9.17,1.84.28,2.73.41,1.52.88,3.06,1.82,4.35-1.01-2.05-1.38-4.56-1.6-6.71,0-.14.06-.25.13-.44.15-.46-.09-.94-.18-1.4-.13-.57-.2-1.16-.38-1.72-.31-.52-.4-1.15-.73-1.66-.2-.33-.39-.7-.54-1.03.13.39.26.78.44,1.15Z"/><path class="cls-4" d="m29.58,74.35c.94.19,1.71.77,2.57,1.13.43.11.89.03,1.34.05.66-.01,1.24.28,1.91.34.49.21,1.3.36,1.93.3.62.03,1.33.01,1.87,0,1.62.45,3.31,1.23,4.96,1.79-1.09-.58-2.09-1.07-3.1-1.61-.6-.29-1.23-.56-1.88-.74-.33-.02-.59.03-.95-.01-.64-.07-1.47,0-2-.12-1.12-.29-2.21-.56-3.38-.4-.53.12-1.03-.1-1.49-.34-.64-.29-1.34-.44-2.03-.52-.21-.02-.58-.1-.66-.16.26.19.6.22.9.31Z"/><path class="cls-4" d="m37.39,80.99c.48.11.92.34,1.4.48.28.13.6.09.89.16.83.32,1.66.66,2.55.79.34.08.83.07,1.06.06.69.14,1.65.28,2.45.37.25.03.63-.04.73-.13.77-.03,1.73-.19,2.58-.16,1.28.09,2.44.75,3.61,1.23-1.05-.65-2.11-1.4-3.34-1.67-.76-.15-1.54-.08-2.31-.06-.39-.03-.75.02-1,.12-.73-.05-1.85-.25-2.7-.36-.63.09-1.54-.1-2.33-.25-.1,0-.98-.3-1.35-.32-.62.07-1.22-.1-1.83-.23-.11-.02-.59-.08-.4-.04Z"/><path class="cls-4" d="m62.09,103.38c-.77.51-2.16,1.26-3.2,1.88-.96.39-2,.75-2.68,1.03-1.3.51-1.78.65-3.11,1.08-1.43.57-1.44.58-2.73.99-1.57.66-3.11,1.4-4.29,1.72-1.72.62-3.38,1.37-5.11,1.99-1.36.51-2.64,1.21-4.02,1.65-3.18,1-7.89,3.72-10.93,6.33-2.18,1.77-4.16,3.58-5.45,5.74-.55,1.09-1.2,2.21-1.27,3.45.07,1.26.7,2.74.89,3.8-.02-1.42-.53-2.7-.29-4.06,1.29-3.47,3.98-5.43,6.84-7.77,3.56-2.94,7.43-5.19,11.55-6.51,3.29-1.42,6.66-2.72,9.59-3.73,1.07-.39,2.09-.91,3.15-1.33.15-.05.55-.18.67-.23.78-.25,1.51-.63,2.28-.9,1.27-.34,3.19-1.28,4.86-2.04,1.5-.87,2.92-1.93,4.26-3.04,1.36-1.26,2.51-2.74,3.72-4.14-1.56,1.38-2.99,2.94-4.74,4.08Z"/><path class="cls-4" d="m49.72,110.56c-.49.72-1.24,1.67-1.16,2.75.01.18.06.35.13.51,0,.01,0,.03,0,.04.09.15-.13,1.37-.16,1.44-.09.34-.29.81-.37.88-.8.87-1.64,1.89-1.73,3.1-.06.31-.17.61-.21.93-.04.17-.3.69-.22.6.43-.6.67-1.3.88-2,.18-.32.4-.64.63-.93.43-.51.78-.88,1.27-1.33.51-.81.8-1.81.79-2.77-.02-.21-.12-.4-.11-.44-.01-.05-.02-.11-.02-.15-.04-.66.42-1.18.76-2.03,0-.01,0-.01,0-.02.01-.02.02-.04.04-.06.22-.21.41-.44.62-.67.76-.75,2.16-1.36,3.23-1.96-1.55.48-3.19.92-4.36,2.11Z"/><path class="cls-4" d="m41.3,112.92c-.51.42-1.03.61-1.6.81-.28.09-.53.5-.64.65-.52.56-1.4,1.16-1.73,1.98-.29.49-.65.93-.91,1.44-.16.35-.23.74-.31,1.11.02-.11.05-.2,0-.03-.17.3-.69,1.03-.88,1.92-.24.66-1.02,1.57-1.56,2.48-.52.87-.84,1.57-1.66,2.28-.22.28-.42.57-.73.77-.89.64-1.6,1.56-2.26,2.39.69-.66,1.37-1.34,2.18-1.87.37-.24.81-.43,1.08-.8.43-.38.96-.78,1.34-1.26.27-.38.49-.8.8-1.15.61-.87,1.3-1.47,1.77-2.48.24-.87.53-1.06.99-1.94.13-.67.26-1.01.81-1.84.4-.6.4-.9.73-1.27.09-.1,1.16-1.23,1.3-1.61.48-.2,1.32-.71,1.79-1.23,1.07-.8,2.25-1.44,3.36-2.18-1.3.61-2.67,1.08-3.88,1.84Z"/><path class="cls-4" d="m26.8,116.65c-2.28-.17-4.2,1.24-6.15,2.2-.12.06-.26.12-.36.17.45-.11.89-.28,1.33-.44,1.28-.37,3.25-1.34,4.42-1.34.78-.09,1.69.02,2.6.03.96-.06,1.9-.33,2.77-.74-1.51.51-3.07.33-4.61.13Z"/><path class="cls-4" d="m36.9,109.91c-1.22.37-2.33,1-3.54,1.35-1.19.38-2.46.5-3.68.56,1.43.14,2.89.14,4.3-.21,1.69-.43,3.94-1.29,5-1.19.48.01,1.22.05,1.55,0,.74-.01,1.47.18,2.2.21.67.08,1.34.23,2.02.24.41-.02.8-.12,1.21-.13.53-.07,1.06-.1,1.55-.12-.35-.05-.7-.09-1.05-.12-.59-.04-1.19-.03-1.77-.08-.79-.15-2.03-.52-2.52-.57-1.71-.37-3.57-.51-5.25.05Z"/><path class="cls-4" d="m55.28,97.75c1.4-.07,2.8-.26,4.16-.6-1.4.02-2.84.22-4.16.6Z"/><path class="cls-4" d="m63.38,96.12c-1.53-.02-3.05-.1-4.58-.18-2.38.14-3.6.28-5.58.21-1.6-.14-3.21-.28-4.82-.4-.96-.13-1.92-.33-2.9-.36-2.76-.17-4.44-.01-7.02.03-3.67.27-7.29.86-10.8,1.99-3.02.77-5.9,1.97-8.61,3.51-1.97,1.14-3.83,2.3-5.63,4.18-.76.92-1.56,2.07-2.16,2.97.93-1.02,1.8-2.11,2.86-2.99,2.18-1.65,4.25-2.66,6.52-3.69,2.51-1.1,4.21-1.83,6.83-2.52,2.38-.7,4.79-1.31,7.24-1.68,3.01-.31,5.13-.44,7.59-.47,1.62-.08,3.75-.02,5.84.28,2,.05,3.99.31,5.99.3,1.13-.08,1.59-.16,2.61-.19.94-.18,1.88-.38,2.84-.36,1.38,0,2.4-.11,3.66-.18,1.6.05,3.19-.11,4.77-.37-1.56.09-3.11.13-4.66-.08Z"/><path class="cls-4" d="m36.16,97.02c-.76.01-2.41.3-2.96.53-.72.23-1.38.62-2.08.91-.67.42-1.28,1.16-1.66,1.54-.47.45-.87,1.08-1.16,1.59-.47.79-1.22,1.35-1.92,1.9.97-.48,1.94-1.03,2.55-1.95.18-.19.43-.51.64-.76.53-.46,1.19-1.21,1.85-1.69.57-.25,1.5-.76,2.22-1.03.1-.06,1.18-.38,1.75-.58.5-.14,1.3-.35,1.88-.53-.37.02-.73.05-1.1.08Z"/><path class="cls-4" d="m58.96,96.86c-.65.04-1.65.24-2.12.25-1.15.04-2.83.48-3.83,1.37-.68.79-1.5,1.52-1.96,2.47-.19.58-.13,1.21-.2,1.81-.21.73-.76,1.31-1.21,1.91.62-.6,1.42-1.18,1.61-2.07.07-.51.13-.68.24-1.2,0-.11.13-.31.26-.48.32-.4.75-.74,1.1-1.12.55-.51.85-.87,1.51-1.22.96-.42,1.4-.61,2.55-.82,1.28-.29,2.52-.71,3.82-.94-.59,0-1.19.02-1.78.04Z"/><path class="cls-4" d="m40.27,92.33c.36.23.71.49,1.07.73.33.44.73.97,1.17,1.37.52.52,1.24.74,1.91,1,.82.31,1.66.6,2.53.7.61.07,1.22.17,1.83.2.92-.12,1.83-.38,2.7-.68-.93.14-1.88.3-2.82.26-1.87-.39-3.98-1-5.57-1.84-.52-.4-.91-.78-1.36-1.27-.26-.23-.61-.32-.91-.5-.54-.28-1.19-.45-1.73-.65.38.24.79.43,1.17.67Z"/><path class="cls-4" d="m49.03,96.97c-1.76-.03-3.54.03-5.21.63-.5.17-.7.44-1.13.65-.65.26-1.17.71-1.71,1.14-.42.3-.58.81-.92,1.18-.74.85-1.74,1.57-2.68,2.23,1.24-.61,2.56-1.26,3.44-2.36.2-.29.48-.54.63-.62.56-.37.92-.65,1.55-.9.47-.22.69-.5,1.12-.67.73-.26,1.95-.7,3.18-.89.79-.14,1.69-.21,2.4-.46-.22.03-.44.06-.67.07Z"/><path class="cls-4" d="m32.9,95.32c-1.72-.05-3.42.24-4.99.33-.86.01-1.27-.09-2.05-.41-.95-.33-2-.75-2.67-1.52.52.89,1.51,1.49,2.42,1.94.94.59,2.02.78,3.12.71,1.3-.06,2.74-.27,4.37-.4.57,0,1.48.15,2.16.08.79-.17,1.62-.31,2.39-.47-.86.02-1.75.05-2.55.1-.78-.08-1.46-.32-2.18-.35Z"/><path class="cls-4" d="m54.28,94.04c.81.29,1.65.44,2.44.8.86.34,1.15.42,1.8.89,0,0,0,0,.01.01.21.26.52.4.81.55,1.02.34,1.68.4,2.39.59,1.33.08,2.02,0,3.28-.11,2.07-.16,3.89-.28,6.25-.52.54-.04,1.12-.1,1.63-.19-.87.02-1.73-.06-2.59-.08-2.55-.1-5.09-.24-7.64-.3-1.19-.04-1.4-.3-2.72-.47-.57-.12-.73-.58-2.13-.97-1.04-.3-2.09-.51-3.16-.62-1.14-.24-2.19-.77-3.3-1.12.99.49,1.9,1.14,2.93,1.54Z"/><path class="cls-3" d="m113.09,102.92c.07.84.75,1.44,1.61,1.44.91,0,1.64-.7,1.64-1.61v-12.26h3.61v12.26c0,2.89-2.36,5.22-5.25,5.22-2.53,0-4.64-1.8-5.12-4.18l3.51-.87Z"/><path class="cls-3" d="m122.81,97.35c0-3.99,2.91-7.21,6.5-7.21s6.5,3.22,6.5,7.21v10.1h-3.61v-3.61h-5.77v3.61h-3.61v-10.1Zm3.61,2.89h5.77v-2.89c0-2-1.3-3.61-2.89-3.61s-2.89,1.61-2.89,3.61v2.89Z"/><path class="cls-3" d="m142.54,94.41v13.03h-3.61v-16.95h5.46l6.81,12.58v-12.58h3.61v16.95h-5.2l-7.07-13.03Z"/><path class="cls-3" d="m162.15,90.49v10.1c0,2,1.61,3.61,3.61,3.61s3.61-1.61,3.61-3.61v-10.1h3.61v10.1c0,3.99-3.22,7.21-7.22,7.21s-7.22-3.22-7.22-7.21v-10.1h3.61Z"/><path class="cls-3" d="m175.87,97.35c0-3.99,2.91-7.21,6.5-7.21s6.5,3.22,6.5,7.21v10.1h-3.61v-3.61h-5.77v3.61h-3.61v-10.1Zm3.61,2.89h5.77v-2.89c0-2-1.3-3.61-2.89-3.61s-2.89,1.61-2.89,3.61v2.89Z"/><path class="cls-3" d="m199.4,90.49c2.89,0,5.25,2.36,5.25,5.24,0,2.28-1.49,4.23-3.54,4.93l1.49,2.72c.43.79,1.4,1.06,2.21.62l1.73,3.17c-2.55,1.37-5.73.46-7.12-2.07l-2.26-4.16h-1.56v6.49h-3.61v-16.95h7.41Zm-3.8,3.61v3.25h3.8c.92,0,1.64-.7,1.64-1.61s-.72-1.64-1.64-1.64h-3.8Z"/><path class="cls-3" d="m211.02,101.05c-2.84-.84-4.93-3.63-4.93-6.95v-3.61h3.61v3.61c0,2,1.4,3.61,3.13,3.61s3.13-1.61,3.13-3.61v-3.61h3.61v3.61c0,3.32-2.09,6.11-4.93,6.95v6.4h-3.61v-6.4Z"/></svg>