<?xml version="1.0" encoding="UTF-8"?><svg id="Layer_2" xmlns="http://www.w3.org/2000/svg" width="370" height="192" xmlns:xlink="http://www.w3.org/1999/xlink" viewBox="0 0 370 192"><defs><style>.cls-1{fill:url(#linear-gradient);}.cls-1,.cls-2,.cls-3,.cls-4,.cls-5{stroke-width:0px;}.cls-3{fill:#418c46;}.cls-6{fill:#fa9f37;stroke:#fa9f37;}.cls-6,.cls-7,.cls-8,.cls-9{stroke-miterlimit:10;}.cls-7{fill:#ed8713;stroke:#ed8713;}.cls-4{fill:#ffefe1;}.cls-5{fill:#206925;}.cls-8{fill:#de830b;stroke:#de830b;}.cls-9{fill:#fac337;stroke:#fac337;}</style><linearGradient id="linear-gradient" x1="563.27" y1="202.11" x2="588.66" y2="294.03" gradientTransform="translate(-353.22 580.8) rotate(-73.88)" gradientUnits="userSpaceOnUse"><stop offset="0" stop-color="#8fad71"/><stop offset="1" stop-color="#9c6"/></linearGradient></defs><path class="cls-1" d="m11.31,192l358.69-89.32L14.66,0s-30.62,105.89-3.35,192Z"/><path class="cls-4" d="m101.82,169.13l268.18-66.45L104.22,25.88s-22.84,78.99-2.4,143.25Z"/><path class="cls-3" d="m73.81,88.27c-.98-1.14-1.61-2.34-2.2-3.72-.86-1.99-1.64-4.03-2.38-6.07-1.42-3.93-2.54-8.03-3.27-12.15-.33-1.87-.56-3.78-.64-5.68s.13-3.93.11-5.88c-.01-1.73-.02-3.34.22-5.06.17-1.18.48-2.19.77-3.33.39-1.52,1.2-5.51,3.6-4.92.46.11.62.51.83.89.28.51.63.96.85,1.51.76,1.9.6,4.13.98,6.12.46,2.39.53,4.79.8,7.21.17,1.53.17,3.06.26,4.6.08,1.37.24,2.73.3,4.1.05,1.23-.03,2.46.03,3.68.06,1.16.3,2.29.41,3.44.1.99-.02,1.97.03,2.96.04.8.12,1.6.17,2.39.17,2.56.29,5.15.03,7.7-.07.66-.05,1.39.04,2.05.08.55.35,1.02.39,1.6-.49.08-.77-.61-1.03-.91-.54-.63-1.09-.96-1.19-1.85"/><path class="cls-3" d="m74.67,87.77c-2.1-2.53-3.14-5.87-4.26-8.91-1.19-3.21-2.19-6.49-2.95-9.83s-1.37-7.02-1.3-10.59-.18-7.12.58-10.5c.43-1.91.81-4.35,1.97-5.98.06-.09.46-.46.47-.55l-.97.56c.15-.04.29-.06.44-.07.52.23.79.12,1.17.67.98,1.41,1.43,2.91,1.62,4.6.37,3.35.78,6.68,1.12,10.03.17,1.69.21,3.38.31,5.08s.3,3.34.32,5.02c.01,1.97.16,3.82.38,5.77.2,1.75.09,3.54.22,5.31.15,2.08.27,4.17.2,6.26-.03.91-.17,1.82-.17,2.74,0,1,.32,1.86.47,2.83l1.73-1c-.58-.05-.8-.63-1.14-1.04-.49-.59-.92-.93-1.07-1.72.04.2-1.78.77-1.73,1,.15.79.58,1.13,1.07,1.72.33.4.57,1,1.14,1.04.16.01,1.74-.94,1.73-1-.13-.82-.43-1.57-.46-2.42-.04-.89.09-1.78.14-2.67.1-1.93.01-3.86-.11-5.78-.12-1.81-.12-3.61-.21-5.41s-.47-3.47-.47-5.25c0-7.32-.84-14.68-1.78-21.93-.2-1.54-.67-2.9-1.57-4.19-.68-.97-1.57-.68-2.45-.19-.62.35-1.33.67-1.82,1.19-.71.75-1.06,1.84-1.35,2.81-.86,2.96-1.38,5.86-1.39,8.95,0,3.9-.23,7.68.38,11.55.65,4.15,1.73,8.25,3.12,12.22,1.25,3.58,2.43,7.7,4.89,10.66.08.1,1.67-1.07,1.73-1h0Z"/><path class="cls-3" d="m59.37,81.46c-1.2-.78-2.07-1.71-2.94-2.79-1.26-1.57-2.46-3.21-3.62-4.86-2.23-3.18-4.21-6.58-5.81-10.1-.73-1.6-1.37-3.25-1.86-4.93s-.73-3.56-1.17-5.31c-.39-1.54-.74-3-.88-4.59-.1-1.1-.02-2.08.02-3.18.05-1.46-.04-5.23,2.42-5.3.47-.01.72.31,1,.59.39.38.82.71,1.15,1.14,1.15,1.52,1.48,3.55,2.28,5.25.97,2.04,1.55,4.17,2.34,6.28.5,1.33.83,2.7,1.25,4.06.37,1.21.83,2.39,1.18,3.61.32,1.09.51,2.21.83,3.3.31,1.03.79,1.98,1.15,2.99.31.87.41,1.77.67,2.65.22.71.46,1.4.69,2.11.73,2.26,1.4,4.55,1.71,6.9.08.61.26,1.25.49,1.83.19.48.56.83.73,1.34-.46.19-.87-.36-1.19-.57-.66-.43-1.27-.6-1.55-1.37"/><path class="cls-3" d="m60.23,80.96c-2.64-1.8-4.47-4.7-6.29-7.27s-3.48-5.26-4.91-8.07-2.67-5.64-3.36-8.66c-.35-1.56-.63-3.13-1.01-4.68-.41-1.66-.76-3.33-.76-5.05,0-1.84-.18-4.34.66-6.04.09-.17.22-.33.3-.51.35-.76.63.59-.72.29.59.13.73-.15,1.3.31,1.12.91,1.9,2.03,2.43,3.37,1.11,2.8,2.18,5.61,3.17,8.45,1.09,3.12,2.23,6.34,3.02,9.55.43,1.75.97,3.35,1.6,5.03s.97,3.48,1.53,5.18,1.08,3.48,1.44,5.27c.17.85.23,1.73.46,2.57s.69,1.47,1.02,2.24l1.73-1c-.6.08-.99-.44-1.47-.74-.56-.36-.98-.57-1.27-1.2.02.03-1.76.94-1.73,1,.29.61.73.85,1.27,1.2.48.3.87.82,1.47.74.18-.02,1.74-.99,1.73-1-.31-.71-.75-1.3-.97-2.05-.2-.67-.26-1.36-.38-2.05-.32-1.87-.85-3.7-1.42-5.51-.5-1.59-.9-3.18-1.37-4.77-.51-1.73-1.29-3.3-1.71-5.07-.81-3.42-1.97-6.85-3.15-10.16-1.05-2.97-2.13-5.93-3.32-8.84-.52-1.27-1.29-2.32-2.36-3.19-.83-.67-1.57-.22-2.36.23-.62.36-1.31.66-1.74,1.26-.58.82-.71,1.95-.78,2.92-.22,3.02-.03,5.86.69,8.81.81,3.31,1.36,6.54,2.7,9.7,1.49,3.5,3.37,6.84,5.49,10s4.24,6.66,7.32,8.76c.25.17,1.5-1.16,1.73-1h0Z"/><path class="cls-3" d="m43.92,72.3c-1.48-.25-2.71-.78-4.03-1.46-1.91-.98-3.79-2.05-5.64-3.15-3.57-2.12-7-4.55-10.14-7.25-1.43-1.23-2.8-2.54-4.05-3.95s-2.36-3.09-3.6-4.58c-1.09-1.32-2.11-2.55-3-4.02-.61-1.01-1-1.98-1.49-3.04-.65-1.42-2.52-4.98-.3-6.05.43-.21.8,0,1.2.15.54.21,1.09.34,1.6.62,1.78.98,3.05,2.79,4.59,4.07,1.86,1.55,3.41,3.34,5.13,5.03,1.09,1.07,2.05,2.24,3.08,3.37.92,1,1.9,1.94,2.8,2.96.81.91,1.52,1.9,2.33,2.8.77.85,1.66,1.57,2.47,2.38.7.7,1.22,1.53,1.88,2.25.53.59,1.09,1.15,1.63,1.73,1.74,1.86,3.45,3.77,4.85,5.89.36.55.83,1.09,1.32,1.54.4.38.91.56,1.3.98-.33.37-.97.02-1.37-.05-.82-.14-1.45-.05-2.08-.67"/><path class="cls-3" d="m44.79,71.8c-2.19-.42-4.12-1.48-6.06-2.54s-4.02-2.27-5.96-3.52c-3.86-2.49-7.6-5.32-10.8-8.63-1.56-1.61-2.82-3.43-4.21-5.18s-2.9-3.45-3.93-5.48c-.7-1.37-1.41-2.83-1.92-4.29-.43-1.23-.79-2.82.41-3.73l-1.47.86.24-.13-.26.14c.87-.18,2.02.36,2.8.77s1.47,1.03,2.11,1.65c1.37,1.33,2.78,2.61,4.15,3.94,3.03,2.94,5.85,6.09,8.73,9.17,1.43,1.53,2.62,3.25,4.17,4.68s2.7,2.99,4.11,4.46,2.9,3.08,4.2,4.76c.58.75,1.08,1.56,1.66,2.31.29.37.6.75.96,1.05.09.08,1.42.91,1.1,1.1l1.7-.98c-.55.04-1.09-.19-1.63-.26-.63-.09-1.08-.18-1.58-.6-.19-.16-1.56,1.14-1.73,1,.54.45,1.07.51,1.74.62.46.07,1.03.35,1.49.24.64-.15,1.36-.77,1.92-1.12l.03-.02c-.62-.55-1.31-.94-1.87-1.56s-1.01-1.38-1.52-2.07c-1.06-1.45-2.25-2.81-3.47-4.13s-2.41-2.64-3.57-4.01-2.52-2.36-3.63-3.69c-2.32-2.78-4.76-5.52-7.29-8.11s-4.97-4.77-7.39-7.23c-1.17-1.18-2.28-2.09-3.85-2.67-.55-.2-1.05-.48-1.64-.28-.45.15-.9.51-1.31.74-.75.44-1.33.86-1.44,1.8-.12,1.09.34,2.24.76,3.22,1.26,2.94,2.74,5.49,4.77,7.97,2.28,2.77,4.29,5.6,6.97,8.03,3.06,2.77,6.43,5.23,9.94,7.4,1.7,1.05,3.44,2.05,5.19,3s3.61,1.93,5.66,2.32c.5.1,1.25-1.09,1.73-1h0Z"/><path class="cls-3" d="m49.89,75.15c-1.17-.52-2.33-.77-3.63-.96-1.89-.28-3.81-.49-5.72-.67-3.69-.35-7.48-.44-11.22-.24-1.7.09-3.41.26-5.09.54-1.73.29-3.43.79-5.14,1.13-1.52.3-2.94.58-4.4,1.06-1.01.33-1.84.74-2.79,1.16-1.27.56-4.63,1.86-3.71,3.52.18.32.56.37.92.46.49.12.95.29,1.46.36,1.79.22,3.72-.29,5.53-.37,2.18-.09,4.3-.46,6.46-.7,1.37-.15,2.71-.42,4.08-.63,1.21-.19,2.44-.31,3.65-.51,1.09-.18,2.15-.46,3.24-.63,1.03-.16,2.06-.19,3.09-.31.89-.1,1.73-.37,2.61-.5.71-.11,1.42-.19,2.13-.3,2.28-.33,4.57-.7,6.77-1.34.57-.17,1.21-.28,1.81-.33.5-.04.96.08,1.47,0-.01-.38-.66-.45-.97-.59-.65-.29-1.03-.63-1.82-.54"/><path class="cls-3" d="m50.76,74.65c-2.89-1.21-6.26-1.34-9.35-1.63-3.4-.31-6.82-.42-10.24-.29s-6.55.65-9.81,1.41c-1.57.36-3.16.62-4.71,1.04-1.42.39-2.72.97-4.06,1.56-1.41.62-2.8,1.32-4.09,2.17-.58.38-1.36.95-1.33,1.74.04,1.14,2.13,1.32,2.99,1.38,1.62.11,3.24-.29,4.86-.39,1.7-.11,3.38-.3,5.07-.52,3.19-.41,6.41-.81,9.58-1.38,3.46-.61,6.93-1.16,10.41-1.64,1.82-.25,3.63-.53,5.42-.94.89-.21,1.77-.51,2.67-.67.8-.15,1.58-.07,2.38-.12.18-.01,1.74-.99,1.73-1-.26-.67-2.16-1.15-2.8-1.14-.59.02-1.15.99-1.73,1,.65-.02,2.54.47,2.8,1.14l1.73-1c-1.47.1-2.71.2-4.16.57s-3,.66-4.52.9c-2.77.43-5.52.91-8.31,1.2-1.47.16-2.89.54-4.35.78-1.59.26-3.19.43-4.78.7-2.87.48-5.81.89-8.72,1.08-1.47.09-2.93.34-4.4.42-.66.04-1.32.03-1.98-.1-.51-.1-1.52-.26-1.89-.63-.61-.6-.11-1.41.39-1.88.06-.06.36-.24.42-.33-.28.51-1.09.56-.23.15.43-.2.86-.39,1.3-.58,2.75-1.21,5.45-1.81,8.36-2.47s5.97-1.25,9.06-1.41c3.58-.19,7.17-.11,10.73.2,3.23.28,6.81.4,9.83,1.67.38.16,1.37-1.15,1.73-1h0Z"/><path class="cls-3" d="m65.78,85.29c-1.29-.47-2.57-.68-4.01-.81-2.09-.2-4.2-.34-6.31-.44-4.07-.2-8.25-.14-12.37.21-1.87.16-3.76.4-5.61.74-1.9.36-3.77.93-5.66,1.34-1.67.36-3.23.7-4.84,1.24-1.11.37-2.02.81-3.07,1.27-1.4.61-5.09,2.05-4.07,3.68.2.31.62.35,1.02.42.54.1,1.05.25,1.62.3,1.98.15,4.1-.44,6.1-.59,2.4-.18,4.73-.64,7.12-.96,1.51-.2,2.99-.53,4.49-.8,1.34-.24,2.69-.41,4.02-.66,1.2-.22,2.37-.55,3.57-.76,1.13-.2,2.27-.27,3.4-.43.98-.14,1.9-.44,2.87-.61.78-.14,1.57-.25,2.35-.38,2.51-.42,5.03-.89,7.45-1.62.63-.19,1.33-.33,1.99-.41.55-.06,1.06.04,1.62-.06-.01-.38-.74-.43-1.08-.55-.71-.26-1.14-.59-2.01-.47"/><path class="cls-3" d="m66.65,84.79c-3.31-1.15-7.1-1.1-10.56-1.26-3.65-.17-7.3-.13-10.94.13s-7.37.94-11.04,1.84c-1.65.41-3.32.71-4.95,1.17s-3.06,1.1-4.56,1.75c-1.58.69-3.16,1.46-4.58,2.44-.56.39-1.35,1-1.2,1.78.23,1.17,2.77,1.14,3.65,1.13,1.62-.02,3.21-.41,4.81-.57,1.89-.2,3.77-.43,5.65-.72,3.47-.53,6.96-1.08,10.41-1.73,3.9-.74,7.8-1.48,11.72-2.11,2.04-.33,4.08-.69,6.09-1.19.87-.22,1.73-.51,2.61-.71.95-.21,1.87-.17,2.83-.26.18-.02,1.73-1,1.73-1-.2-.45-.82-.46-1.25-.62-.65-.24-1.13-.45-1.85-.41-.6.04-1.14.96-1.73,1,.71-.04,1.19.17,1.85.41.43.16,1.05.17,1.25.62l1.73-1c-1.6.16-2.95.3-4.52.73-1.69.46-3.4.81-5.13,1.11-3.18.57-6.35,1.1-9.55,1.59-1.66.26-3.28.72-4.94,1s-3.29.53-4.92.84c-3.24.61-6.54,1.11-9.82,1.42-1.61.15-3.2.51-4.81.6-.71.04-1.4,0-2.11-.13-.53-.1-1.47-.13-1.82-.59-.49-.65.1-1.39.59-1.82.55-.49,1.41-.59-.29.08.25-.1.49-.25.74-.36.43-.2.87-.38,1.31-.57,3.06-1.34,6.1-2.05,9.33-2.85s6.49-1.46,9.85-1.75c3.8-.33,7.62-.4,11.43-.25s7.75.07,11.27,1.29c.42.15,1.33-1.14,1.73-1h0Z"/><path class="cls-5" d="m43.96,73.53c3.69,2.45,7.55,4.63,11.2,7.14s7.22,4.69,11.02,6.74,7.69,3.99,11.72,5.42c1.92.68,3.96,1.15,5.94,1.6,1,.22,2.01.33,3.03.39.79.05,1.77-.05,2.49.21l-.94-.69.1.15,1.25-2.27h-.11c.49.36.99.72,1.48,1.08l-.03-.12c-.51-1.86-3.4-1.03-2.88.83l.03.12c.18.67.81,1.06,1.48,1.08h.11c1.12.04,1.84-1.35,1.25-2.26-.92-1.43-3.28-1.05-4.75-1.16-2.03-.15-4.12-.81-6.07-1.36-4.25-1.18-8.35-3.36-12.23-5.43s-7.75-4.44-11.44-6.97-7.51-4.69-11.2-7.14c-1.61-1.07-3.05,1.57-1.45,2.63h0Z"/><path class="cls-5" d="m26.66,137.04c2.66-4.36,6.09-8.2,9.59-11.9s7.12-7.07,11.03-10.22c8.09-6.52,17.3-11.54,27.05-15.11,2.76-1.01,5.61-1.77,8.45-2.54,1.48-.4,2.97-.81,4.47-1.15,1.29-.29,2.61-.37,3.66-1.23,1.49-1.23-.67-3.31-2.15-2.1.2-.16-.74.11-.96.16-.7.15-1.39.29-2.09.46-1.34.33-2.67.68-4,1.04-2.68.73-5.38,1.45-7.99,2.39-4.97,1.8-9.89,4-14.53,6.51-8.99,4.86-17.06,11.38-24.16,18.71-4.03,4.16-7.97,8.56-10.99,13.51-1.01,1.65,1.62,3.1,2.63,1.45h0Z"/><ellipse class="cls-7" cx="65.1" cy="117.31" rx="7.93" ry="6.85" transform="translate(-62.44 158.95) rotate(-79.06)"/><ellipse class="cls-8" cx="54.63" cy="108.55" rx="7.93" ry="6.85" transform="translate(-62.32 141.57) rotate(-79.06)"/><ellipse class="cls-8" cx="54.63" cy="108.55" rx="7.93" ry="6.85" transform="translate(-62.32 141.57) rotate(-79.06)"/><ellipse class="cls-8" cx="25.36" cy="128.19" rx="7.93" ry="6.85" transform="translate(-105.31 128.76) rotate(-79.06)"/><ellipse class="cls-8" cx="39.67" cy="112.54" rx="8.49" ry="8.28" transform="translate(-78.39 129.86) rotate(-78.93)"/><ellipse class="cls-8" cx="39.67" cy="112.54" rx="8.49" ry="8.28" transform="translate(-78.39 129.86) rotate(-78.93)"/><ellipse class="cls-7" cx="40.9" cy="101.25" rx="6.85" ry="7.94" transform="translate(-62.29 136.96) rotate(-87.09)"/><ellipse class="cls-7" cx="17.38" cy="116.24" rx="5.4" ry="6.88" transform="translate(-99.6 127.69) rotate(-87.09)"/><ellipse class="cls-7" cx="41.07" cy="130.93" rx="6.06" ry="5.4" transform="translate(-95.87 122.07) rotate(-68.88)"/><ellipse class="cls-7" cx="60.96" cy="96.09" rx="5.4" ry="6.06" transform="translate(-46.05 134.78) rotate(-77.49)"/><ellipse class="cls-7" cx="28.76" cy="143.9" rx="6.06" ry="5.4" transform="translate(-116.21 121.12) rotate(-69.77)"/><ellipse class="cls-8" cx="32.03" cy="130.79" rx="4.96" ry="4.07" transform="translate(-42.23 18.46) rotate(-19.71)"/><ellipse class="cls-8" cx="48.97" cy="134.69" rx="6.86" ry="4.88" transform="translate(-93.31 117.47) rotate(-63.12)"/><ellipse class="cls-8" cx="32.03" cy="130.79" rx="4.96" ry="4.07" transform="translate(-42.23 18.46) rotate(-19.71)"/><ellipse class="cls-6" cx="27.01" cy="118.46" rx="7.53" ry="5.56" transform="translate(-38.38 16.06) rotate(-19.72)"/><ellipse class="cls-6" cx="52.92" cy="97.98" rx="7.53" ry="5.56" transform="translate(-29.95 23.6) rotate(-19.72)"/><ellipse class="cls-6" cx="56.26" cy="127.24" rx="7.53" ry="5.57" transform="translate(-70.67 70.27) rotate(-41.98)"/><ellipse class="cls-6" cx="68.28" cy="104.01" rx="7.53" ry="5.57" transform="translate(-52.04 72.35) rotate(-41.98)"/><ellipse class="cls-6" cx="66.23" cy="105.98" rx="7.53" ry="5.7" transform="translate(-53.89 71.49) rotate(-41.97)"/><ellipse class="cls-6" cx="19.03" cy="140.33" rx="7.53" ry="5.7" transform="translate(-88.97 48.73) rotate(-41.97)"/><ellipse class="cls-6" cx="38.57" cy="138.99" rx="7.53" ry="5.7" transform="translate(-105.26 128.15) rotate(-70.18)"/><ellipse class="cls-6" cx="48.1" cy="122.01" rx="7.53" ry="5.7" transform="translate(-82.99 125.88) rotate(-70.18)"/><ellipse class="cls-6" cx="30.32" cy="105.82" rx="6.12" ry="5.21" transform="translate(-47.98 28.44) rotate(-29.35)"/><ellipse class="cls-6" cx="30.32" cy="105.82" rx="6.12" ry="5.21" transform="translate(-47.98 28.44) rotate(-29.35)"/><ellipse class="cls-9" cx="18.21" cy="128.41" rx="6.93" ry="5.54" transform="translate(-110.11 109.62) rotate(-73.6)"/><ellipse class="cls-9" cx="57.81" cy="118.3" rx="6.93" ry="5.54" transform="translate(-72 140.35) rotate(-73.6)"/><ellipse class="cls-9" cx="46.87" cy="109.62" rx="6.12" ry="7.56" transform="translate(-67.69 142.61) rotate(-82.91)"/><ellipse class="cls-9" cx="36.65" cy="122.41" rx="5.54" ry="6.94" transform="translate(-89.35 143.68) rotate(-82.91)"/><ellipse class="cls-9" cx="29.22" cy="137.92" rx="6.93" ry="5.54" transform="translate(-89.97 62.63) rotate(-45.76)"/><ellipse class="cls-9" cx="58.44" cy="100.9" rx="6.93" ry="5.54" transform="translate(-43.36 44.04) rotate(-30.73)"/><ellipse class="cls-9" cx="27.46" cy="112.21" rx="6.93" ry="5.54" transform="translate(-53.49 29.79) rotate(-30.73)"/><ellipse class="cls-9" cx="27.46" cy="112.21" rx="6.93" ry="5.54" transform="translate(-53.49 29.79) rotate(-30.73)"/><path class="cls-2" d="m110.14,96.54c0-3.99,2.91-7.21,6.5-7.21s6.5,3.22,6.5,7.21v10.1h-3.61v-3.61h-5.78v3.61h-3.61v-10.1Zm3.61,2.89h5.78v-2.89c0-2-1.3-3.61-2.89-3.61s-2.89,1.61-2.89,3.61v2.89Z"/><path class="cls-2" d="m129.86,89.69v10.1c0,2,1.61,3.61,3.61,3.61s3.61-1.61,3.61-3.61v-10.1h3.61v10.1c0,3.99-3.22,7.21-7.22,7.21s-7.22-3.22-7.22-7.21v-10.1h3.61Z"/><path class="cls-2" d="m156.02,106.14c-1.16.55-2.45.87-3.83.87-4.88,0-8.83-3.94-8.83-8.83s3.95-8.85,8.83-8.85c2.48,0,4.72,1.03,6.33,2.67l-2.41,2.74c-.96-1.11-2.38-1.8-3.95-1.8-2.89,0-5.22,2.36-5.22,5.24s2.33,5.22,5.22,5.22c1.49,0,2.86-.62,3.83-1.64v-1.61h-3.25v-3.61h6.86v9.23h-2.89l-.7.36Z"/><path class="cls-2" d="m166.41,89.69v10.1c0,2,1.61,3.61,3.61,3.61s3.61-1.61,3.61-3.61v-10.1h3.61v10.1c0,3.99-3.22,7.21-7.22,7.21s-7.22-3.22-7.22-7.21v-10.1h3.61Z"/><path class="cls-2" d="m182.62,102.53c.46.41,1.42.84,2.43.84,1.42,0,2.45-.65,2.45-1.66,0-.65-.41-1.27-1.04-1.42l-3.01-.87c-2.17-.53-3.39-2.67-3.39-4.79,0-3.2,2.67-5.29,5.63-5.29,1.93,0,3.61.82,4.62,1.95l-2.79,2.33c-.31-.36-1.06-.67-1.85-.67-1.18,0-2,.7-2,1.71,0,.65.41,1.27,1.03,1.4l3.03.87c2.17.53,3.39,2.69,3.39,4.81,0,3.15-2.82,5.24-5.99,5.24-2.26,0-4.28-.91-5.39-2.21l2.86-2.24Z"/><path class="cls-2" d="m192.99,89.69h12.99v3.61h-4.69v13.35h-3.61v-13.35h-4.69v-3.61Z"/></svg>