<?xml version="1.0" encoding="UTF-8"?><svg id="Layer_2" xmlns="http://www.w3.org/2000/svg" width="370" height="192" xmlns:xlink="http://www.w3.org/1999/xlink" viewBox="0 0 370 192"><defs><style>.cls-1{fill:#d42222;}.cls-1,.cls-2,.cls-3,.cls-4,.cls-5,.cls-6,.cls-7,.cls-8,.cls-9{stroke-width:0px;}.cls-2{fill:url(#linear-gradient);}.cls-4{fill:#418c46;}.cls-5{fill:#588c5c;}.cls-6{fill:#5bab60;}.cls-7{fill:#c41b1b;}.cls-8{fill:#ffefe1;}.cls-9{fill:#206925;}</style><linearGradient id="linear-gradient" x1="491.22" y1="290.9" x2="516.6" y2="382.81" gradientTransform="translate(-421.8 483.12) rotate(-73.37)" gradientUnits="userSpaceOnUse"><stop offset="0" stop-color="#69c"/><stop offset="1" stop-color="#9cf"/></linearGradient></defs><path class="cls-2" d="m10.6,192l359.4-86.18L15.64,0s-31.55,105.64-5.04,192Z"/><path class="cls-8" d="m101.29,169.92l268.71-64.1L104.95,26.67s-23.53,78.8-3.66,143.25Z"/><path class="cls-4" d="m44.54,114.32c-2.84-1.44-5.64-2.88-8.05-4.99s-4.29-4.41-6.04-7.01c-1.59-2.36-3.08-4.81-5-6.92-.94-1.04-2-1.96-3.16-2.74s-2.54-1.79-3.89-2.02c-1.89-.33-2.61,2.59-.7,2.92,1.14.2,2.55,1.28,3.47,1.96,1.11.83,2.1,1.86,2.96,2.94,1.82,2.26,3.27,4.81,4.96,7.16s3.73,4.58,6.01,6.47c2.43,2.01,5.19,3.45,7.99,4.87,1.72.87,3.18-1.75,1.45-2.63h0Z"/><path class="cls-4" d="m20.66,94.49c2.64.4,5.23.1,7.6-1.17s4.57-3.35,6.51-5.31,3.77-4.07,5.48-6.25,3.4-4.37,6.22-4.66c1.91-.2,1.85-3.2-.07-3-5.53.57-8.24,5.77-11.62,9.53s-7.74,8.81-13.42,7.95c-1.89-.29-2.61,2.63-.7,2.92h0Z"/><path class="cls-1" d="m43.76,116.33c-.64.96-1.19,1.95-1.75,2.95-.52.94-.63,1.89-.65,2.95s-.12,2.03-.14,3.05.14,2.02.14,3.04c0,.59-.02,1.05.18,1.63.34.95.97,1.9,1.58,2.7s1.29,1.57,2.03,2.3c.63.62,1.2,1.3,1.88,1.87,2.13,1.77,4.63,3.02,7.19,4.02,1.04.4,2.06.78,3.13,1.08,1.35.38,2.66.83,4.05,1.07,2.14.37,4.37.22,6.53.12,2.77-.13,5.55-.24,8.24-.98.91-.25,1.78-.61,2.67-.93s1.65-.67,2.42-1.15,1.3-1.04,1.86-1.72c.69-.85,1.5-1.61,2.19-2.46,1.41-1.73,1.87-3.89,2.12-6.06.09-.75.14-1.5.16-2.26s.2-1.48.23-2.22c.03-.82-.21-1.69-.43-2.47-.31-1.12-1-2.11-1.41-3.2-1.14-3.03-2.91-5.85-4.87-8.41-.89-1.16-1.79-2.31-2.83-3.34-1.37-1.35-2.82-2.67-4.35-3.85-1.38-1.06-2.82-2.05-4.33-2.9-.86-.48-1.72-.86-2.68-1.11-.91-.23-1.82-.32-2.75-.43-3.18-.35-6.55-.79-9.71-.07-1.21.28-2.37.8-3.35,1.56-.62.47-1.16,1.06-1.67,1.64s-1.02,1.11-1.46,1.71c-.96,1.33-1.53,2.93-2.16,4.43-.66,1.55-1.07,3.13-1.47,4.77-.27,1.08-.53,2.14-.68,3.24"/><path class="cls-1" d="m42.44,115.61c-1.34,2.05-2.48,3.98-2.58,6.47s-.31,5.05.06,7.5,2.26,4.48,3.86,6.13c1.75,1.81,3.55,3.39,5.76,4.61s4.75,2.25,7.23,2.98c2.64.78,5.15,1.42,7.92,1.41,5.25-.01,10.51-.36,15.4-2.41,2.33-.98,3.66-2.5,5.33-4.31s2.75-3.78,3.22-6.22c.21-1.11.33-2.24.4-3.36.08-1.3.37-2.66.22-3.96-.27-2.4-1.53-4.62-2.5-6.8-2.07-4.65-5.31-8.94-9.06-12.37s-7.75-6.5-12.72-7.07c-5.52-.64-11.86-1.53-16.1,2.91-1.93,2.03-3.16,4.09-4.23,6.66-1.16,2.79-1.99,5.77-2.45,8.76-.29,1.89,2.62,2.61,2.92.7.35-2.26.9-4.57,1.66-6.73.69-1.95,1.49-4.11,2.83-5.71s2.66-3.05,4.66-3.65c2.22-.67,4.65-.54,6.94-.34,2.14.19,4.54.24,6.54,1.1s3.81,2.18,5.47,3.5c3.46,2.73,6.38,5.97,8.75,9.69,1.21,1.9,2.03,3.9,2.97,5.93.44.95.9,1.82,1.16,2.85.29,1.14.11,2.11.01,3.27-.18,2.11-.19,4.3-1.06,6.27-.76,1.74-2.4,3.37-3.74,4.69-1.45,1.43-3.86,2.13-5.79,2.64-2.26.6-4.61.72-6.94.83s-4.75.35-7.07-.09c-2.2-.41-4.43-1.13-6.51-1.93-4.61-1.77-8.9-4.65-11.5-8.96-.68-1.13-.63-2.11-.71-3.38s-.07-2.45,0-3.7c.06-1.04-.05-2.16.34-3.15.45-1.15,1.25-2.27,1.93-3.31,1.05-1.62-1.58-3.06-2.63-1.45h0Z"/><path class="cls-1" d="m47.08,76.68c.62.71,1.26,1.4,1.9,2.08.46.49.81,1.02,1.21,1.56.56.78,1.32,1.4,2,2.08.83.83,1.64,1.69,2.64,2.33,2.05,1.31,4.58,1.9,6.92,2.44,2.97.69,5.98.72,8.88-.3,2.55-.9,4.85-2.66,6.93-4.34,2.34-1.88,4.87-3.67,6.74-6.04,1.57-1.98,2.87-4.17,4.01-6.42.71-1.41,1.14-2.88,1.47-4.43.36-1.71.69-3.49.83-5.24.1-1.31,0-2.55-.14-3.85-.12-1.16-.16-2.33-.25-3.49-.16-2.05-.77-3.93-1.41-5.87-.39-1.18-1.5-2.2-2.47-2.94s-2.19-1.21-3.39-1.62c-1.28-.44-2.57-.8-3.87-1.17s-2.54-.71-3.9-.83c-1.81-.16-3.59-.29-5.4-.1-1.48.15-2.97.36-4.43.61-3.1.55-6.18,1.51-9.13,2.6-1.27.47-2.52.95-3.71,1.59-1.66.89-3.11,2.04-4.57,3.22-2.36,1.9-4.81,3.82-6.11,6.65-.6,1.3-1,2.69-1.53,4.02-.56,1.41-1.19,2.77-1,4.33.36,2.95,2,5.35,3.77,7.65.65.84,1.35,1.61,2.07,2.38.59.63,1.09,1.3,1.65,1.96.39.46.89.8,1.26,1.27.16.2.34.64.61.69"/><path class="cls-1" d="m46.04,77.75c1.8,2.03,3.49,4.12,5.41,6.04s4.1,3.22,6.77,4.03c5.22,1.58,10.61,2.02,15.52-.74,2.38-1.34,4.45-3.16,6.58-4.84s4.1-3.39,5.71-5.57,3.09-4.54,4.11-7.05c1.08-2.64,1.58-5.57,1.88-8.39s-.04-5.85-.35-8.67c-.28-2.47-.88-5.63-2.46-7.62s-3.92-3.11-6.35-3.91c-2.68-.88-5.41-1.7-8.23-1.94-5.77-.5-11.62.72-17.06,2.58-2.67.92-5.34,1.9-7.68,3.51-2.12,1.46-4.21,3.12-6.07,4.89-2.1,2-3.36,4.27-4.33,6.98-.49,1.37-1.14,2.71-1.5,4.12s-.24,2.83.14,4.23c.76,2.78,2.5,5.21,4.3,7.4.97,1.19,2.03,2.3,3.02,3.48.4.48.89.86,1.3,1.33s.6.9,1.17,1.2c1.71.88,3.17-1.74,1.45-2.63.1.05-.37-.55-.53-.72-.33-.35-.71-.64-1.03-1-.82-.91-1.59-1.87-2.41-2.79-1.53-1.7-3.03-3.64-3.94-5.76-.4-.93-.75-2.01-.72-3.03.03-1.16.57-2.26.99-3.32.81-2.09,1.4-4.23,2.86-5.98s3.18-3.04,4.89-4.4c1.94-1.54,3.95-2.8,6.28-3.7,4.73-1.82,9.69-3.22,14.77-3.53,2.53-.15,5.09.09,7.53.77,2.26.62,4.8,1.14,6.83,2.36,2.18,1.31,2.82,3.28,3.4,5.63s.66,5.07.81,7.55c.29,4.99-1.28,9.98-3.84,14.19s-6.16,7.05-9.99,9.97c-2.18,1.66-4.51,3.11-7.26,3.57s-5.32-.1-7.9-.77-4.65-1.68-6.57-3.59-3.61-4.01-5.41-6.04c-1.28-1.45-3.37.71-2.1,2.15h0Z"/><path class="cls-7" d="m44.59,134.51c.29.36.57.72.91,1.03s.7.59,1.08.86c.56.41,1.16.76,1.76,1.1.34.19.77.23,1.14.13s.73-.38.9-.72c.36-.73.15-1.63-.59-2.04-.62-.35-1.23-.71-1.81-1.13l.32.24c-.5-.37-.95-.79-1.34-1.28l.24.31-.03-.04c-.1-.18-.23-.32-.4-.43-.15-.14-.33-.22-.54-.27-.35-.08-.81-.03-1.12.17-.33.22-.61.54-.69.94-.07.35-.06.82.17,1.12h0Z"/><path class="cls-7" d="m52.25,139.49c.65.33,1.34.55,2.03.79.59.2,1.2.34,1.82.42.4.05.76.04,1.12-.17.32-.19.62-.57.69-.94s.04-.79-.17-1.12-.55-.64-.94-.69c-.98-.13-1.92-.42-2.84-.78l.37.15c-.22-.08-.43-.18-.63-.28-.35-.18-.76-.24-1.14-.13-.35.1-.73.38-.9.72-.35.71-.16,1.65.59,2.04h0Z"/><path class="cls-7" d="m60.99,141.94c.26-.01.52,0,.78.03l-.39-.04c.61.07,1.22.18,1.84.18.52,0,1.04-.06,1.56-.02.35.03.8-.21,1.04-.45.26-.27.45-.71.43-1.08s-.16-.78-.45-1.04l-.32-.24c-.24-.13-.49-.19-.76-.19-.73-.05-1.45.06-2.17-.02l.39.04c-.67-.07-1.33-.21-2-.17-.38.02-.77.18-1.04.45s-.45.71-.43,1.08c.05.8.7,1.5,1.54,1.46h0Z"/><path class="cls-7" d="m68.94,142.39c1.03.1,2.06-.09,3.08-.23.2,0,.38-.04.56-.13.19-.06.35-.17.48-.32.26-.27.45-.71.43-1.08s-.16-.78-.45-1.04-.69-.48-1.08-.43c-1.02.15-2.05.33-3.08.23-.35-.03-.8.21-1.04.45-.26.27-.45.71-.43,1.08s.16.78.45,1.04l.32.24c.24.13.49.19.76.19h0Z"/><path class="cls-7" d="m76.64,141.19c.73-.06,1.46-.17,2.17-.35s1.34-.48,1.99-.79l-.35.15c.07-.03.14-.05.22-.07l-.38.06s.07,0,.11,0c.35.03.8-.21,1.04-.45.26-.27.45-.71.43-1.08s-.16-.78-.45-1.04l-.32-.24c-.24-.13-.49-.19-.76-.19-.59-.06-1.13.33-1.65.55l.35-.15c-.64.27-1.31.45-2,.56l.38-.06c-.28.04-.57.08-.85.1-.39.03-.76.17-1.04.45-.26.27-.45.71-.43,1.08s.16.78.45,1.04.68.46,1.08.43h0Z"/><path class="cls-7" d="m81.81,133.9s-.09.04-.13.06l.35-.15c-.38.17-.77.32-1.17.43-.19.05-.36.14-.5.27-.17.11-.3.26-.39.44-.11.18-.16.37-.17.57-.04.19-.02.38.04.57l.15.35c.14.23.33.41.56.55l.37.15c.26.06.51.05.77-.02.58-.14,1.12-.4,1.66-.64.18-.1.32-.23.43-.4.14-.15.22-.33.27-.54.05-.19.06-.39.01-.58-.01-.19-.07-.37-.18-.54l-.24-.31c-.2-.19-.43-.32-.7-.39l-.39-.04c-.26,0-.51.08-.73.21h0Z"/><path class="cls-7" d="m75.07,135.32c-.7.23-1.44.3-2.16.46-.19.05-.36.14-.5.27-.17.11-.3.26-.39.44-.18.32-.25.79-.13,1.14s.36.72.72.9l.37.15c.26.06.51.05.77-.02.72-.15,1.46-.23,2.16-.46.37-.12.71-.37.9-.72.18-.32.25-.79.13-1.14s-.36-.72-.72-.9-.76-.25-1.14-.13h0Z"/><path class="cls-7" d="m67.01,135.6c-.76.04-1.52,0-2.28-.04-.36-.02-.79.2-1.04.45-.15.14-.26.31-.31.51-.09.18-.13.37-.11.57.03.38.16.78.45,1.04l.32.24c.24.13.49.19.76.19.76.04,1.52.08,2.28.04.38-.02.76-.17,1.04-.45.15-.14.26-.31.31-.51.09-.18.13-.37.11-.57-.03-.38-.16-.78-.45-1.04s-.68-.45-1.08-.43h0Z"/><path class="cls-7" d="m59.46,134.43c-.72-.13-1.41-.35-2.12-.49-.38-.07-.78-.03-1.12.17-.18.1-.32.23-.43.4-.14.15-.22.33-.27.54-.07.37-.04.79.17,1.12s.54.61.94.69c.71.14,1.41.36,2.12.49.39.07.77.03,1.12-.17.18-.1.32-.23.43-.4.14-.15.22-.33.27-.54.07-.37.04-.79-.17-1.12s-.54-.62-.94-.69h0Z"/><path class="cls-7" d="m52.19,131.31c-.36-.19-.72-.4-1.06-.63-.18-.11-.37-.16-.57-.17-.19-.04-.38-.02-.57.04-.19.05-.36.14-.5.27-.17.11-.3.26-.39.44l-.15.37c-.06.26-.05.51.02.77l.15.35c.14.23.33.41.56.55.34.23.69.44,1.06.63.18.11.37.16.57.17.19.04.38.02.57-.04.19-.05.36-.14.5-.27.17-.11.3-.26.39-.44l.15-.37c.06-.26.05-.51-.02-.77l-.15-.35c-.14-.23-.33-.41-.56-.55h0Z"/><path class="cls-7" d="m46.54,127.27c-.71-.54-1.35-1.16-1.9-1.86l.24.31s-.07-.09-.11-.14c-.1-.18-.23-.32-.4-.43-.15-.14-.33-.22-.54-.27-.19-.05-.39-.06-.58-.01-.19.01-.37.07-.54.18-.33.22-.61.54-.69.94l-.04.39c0,.26.08.51.21.73.36.48.74.94,1.16,1.36.34.34.7.65,1.08.94.14.15.31.26.51.31.18.09.37.13.57.11.2,0,.38-.04.56-.13.19-.06.35-.17.48-.32.26-.29.45-.68.43-1.08l-.06-.38c-.07-.25-.2-.47-.39-.66h0Z"/><path class="cls-7" d="m45.94,124.86c.48.59,1.07,1.09,1.58,1.65.14.15.31.26.51.31.18.09.37.13.57.11.2,0,.38-.04.56-.13.19-.06.35-.17.48-.32l.24-.32c.13-.24.19-.49.19-.76l-.06-.38c-.07-.25-.2-.47-.39-.66-.51-.57-1.1-1.06-1.58-1.65-.14-.15-.31-.26-.51-.31-.18-.09-.37-.13-.57-.11-.2,0-.38.04-.56.13-.19.06-.35.17-.48.32l-.24.32c-.13.24-.19.49-.19.76l.06.38c.07.25.2.47.39.66h0Z"/><path class="cls-7" d="m51.31,129.91c1.58.82,3.17,1.6,4.85,2.21.33.12.83,0,1.12-.17.32-.19.62-.57.69-.94s.04-.79-.17-1.12c-.23-.36-.54-.55-.94-.69-.19-.07-.37-.14-.55-.21l.37.15c-1.35-.53-2.64-1.19-3.92-1.85-.7-.36-1.67-.15-2.04.59s-.16,1.65.59,2.04h0Z"/><path class="cls-7" d="m60.22,132.98c.55.32,1.1.65,1.72.8.29.07.58.11.87.17s.59.12.88.19c.37.08.79.03,1.12-.17s.62-.57.69-.94.04-.79-.17-1.12-.54-.6-.94-.69c-.35-.08-.71-.16-1.06-.23-.33-.07-.67-.1-.99-.22l.37.15c-.37-.14-.71-.36-1.05-.56s-.78-.23-1.14-.13-.73.38-.9.72c-.37.75-.14,1.61.59,2.04h0Z"/><path class="cls-7" d="m67.37,135.13c1.4.44,2.91.36,4.35.31.38-.01.77-.18,1.04-.45s.45-.71.43-1.08c-.05-.8-.7-1.49-1.54-1.46-.91.03-1.81.07-2.72-.02l.39.04c-.42-.05-.84-.13-1.25-.25-.35-.11-.81-.01-1.12.17-.32.19-.62.57-.69.94-.16.84.3,1.56,1.11,1.81h0Z"/><path class="cls-7" d="m76.57,134.88c.55-.04,1.11-.13,1.65-.26.19-.05.36-.14.5-.27.17-.11.3-.26.39-.44.11-.18.16-.37.17-.57.04-.19.02-.38-.04-.57l-.15-.35c-.14-.23-.33-.41-.56-.55l-.37-.15c-.26-.06-.51-.05-.77.02-.22.05-.44.1-.67.13l.38-.06c-.2.03-.4.05-.6.07-.2,0-.38.04-.56.13-.19.06-.35.17-.48.32-.15.14-.26.31-.31.51-.09.18-.13.37-.11.57l.06.38c.07.25.2.47.39.66l.32.24c.24.13.49.19.76.19h0Z"/><path class="cls-7" d="m55.82,102.12c.76-.02,1.52-.04,2.28.04.2,0,.38-.04.56-.13.19-.06.35-.17.48-.32.15-.14.26-.31.31-.51.09-.18.13-.37.11-.57-.03-.38-.16-.78-.45-1.04l-.32-.24c-.24-.13-.49-.19-.76-.19-.76-.08-1.52-.05-2.28-.04-.38,0-.77.18-1.04.45-.15.14-.26.31-.31.51-.09.18-.13.37-.11.57.03.38.16.78.45,1.04s.67.44,1.08.43h0Z"/><path class="cls-7" d="m62.23,102.56c1.03.32,2.05.7,3.11.91.38.08.78.03,1.12-.17s.62-.57.69-.94.04-.79-.17-1.12-.54-.61-.94-.69c-1.06-.21-2.08-.59-3.11-.91-.35-.11-.81-.01-1.12.17-.32.19-.62.57-.69.94s-.04.79.17,1.12c.23.35.54.57.94.69h0Z"/><path class="cls-7" d="m69.04,104.95c.18.07.37.14.55.21l-.37-.15c.61.24,1.2.5,1.77.84s1.11.71,1.68,1.04c.68.39,1.68.13,2.04-.59s.14-1.62-.59-2.04c-.67-.38-1.29-.83-1.97-1.2-.76-.42-1.59-.71-2.41-1.03-.32-.13-.84,0-1.12.17-.32.19-.62.57-.69.94s-.04.79.17,1.12l.24.31c.2.19.43.32.7.39h0Z"/><path class="cls-7" d="m75.89,109.25c1.05,1.01,2.08,2.05,3.09,3.1.26.28.71.44,1.08.43s.79-.18,1.04-.45c.56-.62.56-1.51-.03-2.12-1.01-1.05-2.04-2.09-3.09-3.1-.28-.27-.69-.44-1.08-.43-.36,0-.79.18-1.04.45-.26.29-.45.68-.43,1.08s.16.76.45,1.04h0Z"/><path class="cls-7" d="m81.82,116.56s.05.06.08.09l-.24-.31c.27.35.49.74.71,1.13.11.19.22.38.33.56.18.29.39.56.61.83.14.15.31.26.51.31.18.09.37.13.57.11.36,0,.79-.18,1.04-.45.26-.29.45-.68.43-1.08l-.06-.38c-.07-.25-.2-.47-.39-.66l-.03-.03.24.31c-.28-.36-.51-.76-.73-1.16-.29-.51-.6-.97-.97-1.42-.14-.15-.31-.26-.51-.31-.18-.09-.37-.13-.57-.11-.36,0-.79.18-1.04.45-.26.29-.45.68-.43,1.08l.06.38c.07.25.2.47.39.66h0Z"/><path class="cls-7" d="m84.2,122.59c.1.45.18.9.25,1.36l-.06-.38c.04.26.08.53.12.79,0,.2.04.38.13.56.06.19.17.35.32.48.14.15.31.26.51.31.18.09.37.13.57.11.38-.03.78-.16,1.04-.45l.24-.32c.13-.24.19-.49.19-.76-.12-.85-.24-1.69-.42-2.53-.05-.19-.14-.36-.27-.5-.11-.17-.26-.3-.44-.39-.32-.18-.79-.25-1.14-.13s-.72.36-.9.72l-.15.37c-.06.26-.05.51.02.77h0Z"/><path class="cls-7" d="m84.34,128.14c-.19.7-.34,1.41-.49,2.12-.08.38-.03.78.17,1.12.1.18.23.32.4.43.15.14.33.22.54.27.37.07.79.04,1.12-.17s.61-.54.69-.94c.15-.71.3-1.42.49-2.12.1-.36.02-.8-.17-1.12-.1-.18-.23-.32-.4-.43-.15-.14-.33-.22-.54-.27-.37-.07-.79-.04-1.12.17s-.58.54-.69.94h0Z"/><path class="cls-7" d="m57.24,105.56c1.05.04,2.1.02,3.15-.03.38-.02.77-.17,1.04-.45s.45-.71.43-1.08-.16-.78-.45-1.04-.68-.45-1.08-.43c-1.05.05-2.1.07-3.15.03-.36-.01-.79.2-1.04.45-.26.27-.45.71-.43,1.08s.16.78.45,1.04c.31.28.67.41,1.08.43h0Z"/><path class="cls-7" d="m65.12,106.4c.98.29,1.95.59,2.93.89.35.11.81.01,1.12-.17.32-.19.62-.57.69-.94s.04-.79-.17-1.12c-.23-.35-.54-.57-.94-.69-.98-.3-1.95-.6-2.93-.89-.35-.1-.81-.01-1.12.17s-.62.57-.69.94-.04.79.17,1.12c.23.35.54.57.94.69h0Z"/><path class="cls-7" d="m72.14,110.15c.81.64,1.63,1.26,2.39,1.96.29.27.68.44,1.08.43.36,0,.79-.18,1.04-.45.26-.29.45-.68.43-1.08-.03-.38-.16-.77-.45-1.04-.76-.69-1.59-1.31-2.39-1.96-.14-.15-.31-.26-.51-.31-.18-.09-.37-.13-.57-.11-.36,0-.79.18-1.04.45-.26.29-.45.68-.43,1.08.03.37.15.8.45,1.04h0Z"/><path class="cls-7" d="m77.66,115.61c.39.52.73,1.08,1,1.67.1.18.23.32.4.43.15.14.33.22.54.27.19.05.39.06.58.01.19-.01.37-.07.54-.18.33-.22.61-.54.69-.94l.04-.39c0-.26-.08-.51-.21-.73-.28-.59-.62-1.14-1-1.67-.1-.18-.23-.32-.4-.43-.15-.14-.33-.22-.54-.27-.19-.05-.39-.06-.58-.01-.19.01-.37.07-.54.18-.33.22-.61.54-.69.94l-.04.39c0,.26.08.51.21.73h0Z"/><path class="cls-7" d="m80.4,121.86c.13.43.27.86.39,1.29.05.19.14.36.27.5.11.17.26.3.44.39.18.11.37.16.57.17.19.04.38.02.57-.04l.35-.15c.23-.14.41-.33.55-.56l.15-.37c.06-.26.05-.51-.02-.77-.12-.44-.26-.86-.39-1.29-.05-.19-.14-.36-.27-.5-.11-.17-.26-.3-.44-.39-.18-.11-.37-.16-.57-.17-.19-.04-.38-.02-.57.04l-.35.15c-.23.14-.41.33-.55.56l-.15.37c-.06.26-.05.51.02.77h0Z"/><path class="cls-7" d="m80.67,126.48c-.04.33-.08.67-.09,1.01s.05.67.12.99c.05.19.14.36.27.5.11.17.26.3.44.39.18.11.37.16.57.17.19.04.38.02.57-.04l.35-.15c.23-.14.41-.33.55-.56l.15-.37c.06-.26.05-.51-.02-.77-.01-.05-.02-.11-.03-.16l.06.38c-.05-.33-.03-.66,0-.99l-.04.39s0-.06.01-.09c.05-.19.06-.39.01-.58-.01-.19-.07-.37-.18-.54-.1-.18-.23-.32-.4-.43-.15-.14-.33-.22-.54-.27l-.39-.04c-.26,0-.51.08-.73.21l-.31.24c-.19.2-.32.43-.39.7h0Z"/><path class="cls-7" d="m55.58,109.24c.85-.11,1.7-.29,2.55-.21l-.39-.04h.05c.19.06.39.06.58.02.19-.01.37-.07.54-.18.32-.19.62-.57.69-.94s.04-.79-.17-1.12l-.24-.31c-.2-.19-.43-.32-.7-.39-.34-.04-.68-.07-1.02-.07-.22,0-.43.02-.64.05-.44.05-.88.13-1.32.18-.2,0-.38.04-.56.13-.19.06-.35.17-.48.32-.26.27-.45.71-.43,1.08s.16.78.45,1.04.69.48,1.08.43h0Z"/><path class="cls-7" d="m61.8,108.98c.74.18,1.47.35,2.22.5.38.08.78.03,1.12-.17.18-.1.32-.23.43-.4.14-.15.22-.33.27-.54.07-.37.04-.79-.17-1.12s-.54-.61-.94-.69c-.74-.15-1.48-.33-2.22-.5-.37-.09-.79-.02-1.12.17-.18.1-.32.23-.43.4-.14.15-.22.33-.27.54-.07.37-.04.79.17,1.12s.54.59.94.69h0Z"/><path class="cls-7" d="m68.15,111.3c.23.08.47.16.7.25l-.37-.15c.5.19.98.41,1.47.63.18.11.37.16.57.17.19.04.38.02.57-.04.35-.1.73-.38.9-.72s.26-.76.13-1.14c-.12-.36-.36-.74-.72-.9-.83-.37-1.67-.74-2.54-1.02-.19-.05-.39-.06-.58-.01-.19.01-.37.07-.54.18-.18.1-.32.23-.43.4-.14.15-.22.33-.27.54-.07.37-.04.79.17,1.12l.24.31c.2.19.43.32.7.39h0Z"/><path class="cls-7" d="m73.54,115.11c.12.14.23.29.35.43l-.24-.31c.35.45.69.91,1.02,1.38.1.18.23.32.4.43.15.14.33.22.54.27.19.05.39.06.58.01.19-.01.37-.07.54-.18.33-.22.61-.54.69-.94.07-.37.05-.8-.17-1.12-.51-.73-1.05-1.43-1.61-2.12-.14-.15-.31-.26-.51-.31-.18-.09-.37-.13-.57-.11-.2,0-.38.04-.56.13-.19.06-.35.17-.48.32-.26.29-.45.68-.43,1.08l.06.38c.07.25.2.47.39.66h0Z"/><path class="cls-7" d="m75.8,119.98c.18.59.34,1.19.51,1.79.05.19.14.36.27.5.11.17.26.3.44.39.18.11.37.16.57.17.19.04.38.02.57-.04.37-.12.72-.36.9-.72s.24-.75.13-1.14c-.17-.6-.33-1.2-.51-1.79-.11-.37-.37-.71-.72-.9-.18-.11-.37-.16-.57-.17-.19-.04-.38-.02-.57.04-.37.12-.72.36-.9.72s-.25.75-.13,1.14h0Z"/><path class="cls-7" d="m51.53,120.89c.91.54,1.82,1.08,2.73,1.62.32.19.78.23,1.14.13s.73-.38.9-.72.26-.76.13-1.14-.36-.69-.72-.9c-.91-.54-1.82-1.08-2.73-1.62-.32-.19-.78-.23-1.14-.13s-.73.38-.9.72-.26.76-.13,1.14.36.69.72.9h0Z"/><path class="cls-7" d="m58.6,124.26c.49.17.97.35,1.46.54l-.37-.15c.55.21,1.1.42,1.65.64l-.37-.15c.33.13.66.27.97.44.69.38,1.68.14,2.04-.59s.15-1.63-.59-2.04c-.66-.37-1.39-.6-2.1-.88l.37.15c-.78-.31-1.56-.62-2.35-.89-.33-.12-.83,0-1.12.17-.32.19-.62.57-.69.94s-.04.79.17,1.12c.23.36.54.55.94.69h0Z"/><path class="cls-7" d="m65.23,126.63l2.52.36c.19.05.39.06.58.01.19-.01.37-.07.54-.18.32-.19.62-.57.69-.94s.04-.79-.17-1.12-.54-.64-.94-.69l-2.52-.36c-.19-.05-.39-.06-.58-.01-.19.01-.37.07-.54.18-.32.19-.62.57-.69.94s-.04.79.17,1.12.54.64.94.69h0Z"/><path class="cls-7" d="m73.77,128.92c-.63-.05-1.26-.07-1.9-.08-.2,0-.38.04-.56.13-.19.06-.35.17-.48.32-.15.14-.26.31-.31.51-.09.18-.13.37-.11.57.03.38.16.78.45,1.04s.67.43,1.08.43c.63,0,1.27.03,1.9.08.2,0,.38-.04.56-.13.19-.06.35-.17.48-.32.15-.14.26-.31.31-.51.09-.18.13-.37.11-.57-.03-.38-.16-.78-.45-1.04l-.32-.24c-.24-.13-.49-.19-.76-.19h0Z"/><path class="cls-7" d="m65.11,128.17c-.83-.23-1.65-.48-2.47-.73-.35-.11-.81-.01-1.12.17-.32.19-.62.57-.69.94s-.04.79.17,1.12c.23.35.54.57.94.69.82.25,1.64.5,2.47.73.36.1.8.02,1.12-.17s.62-.57.69-.94.04-.79-.17-1.12-.54-.58-.94-.69h0Z"/><path class="cls-7" d="m56.23,125.01c-1.05-.57-2.09-1.18-3.08-1.86-.3-.21-.81-.22-1.14-.13-.35.1-.73.38-.9.72s-.26.76-.13,1.14l.15.35c.14.23.33.41.56.55.99.68,2.02,1.29,3.08,1.86.34.18.77.24,1.14.13s.73-.38.9-.72.26-.76.13-1.14-.36-.7-.72-.9h0Z"/><path class="cls-7" d="m54.98,112.11c.3.02.59.03.89.06.12.01.26.01.38.03-.33-.05.04,0,.12.01.56.07,1.12.15,1.68.26,1.1.21,2.18.48,3.24.82.75.24,1.66-.35,1.81-1.11.16-.85-.31-1.55-1.11-1.81-2.3-.73-4.67-1.15-7.08-1.27-.79-.04-1.52.77-1.46,1.54.06.86.7,1.42,1.54,1.46h0Z"/><path class="cls-7" d="m64.44,114.6s.09.03.13.05l-.37-.15c.86.34,1.68.75,2.45,1.27.3.2.8.23,1.14.13.35-.1.73-.38.9-.72s.26-.76.13-1.14l-.15-.35c-.14-.23-.33-.41-.56-.55-.92-.62-1.92-1.07-2.95-1.46-.19-.05-.39-.06-.58-.01-.19.01-.37.07-.54.18-.32.19-.62.57-.69.94s-.04.79.17,1.12l.24.31c.2.19.43.32.7.39h0Z"/><path class="cls-7" d="m70.16,118.07c.05.06.09.12.14.18l-.24-.31c.71.9,1.37,1.85,2.02,2.8.23.33.54.59.94.69.35.08.81.03,1.12-.17.33-.22.61-.54.69-.94.07-.37.05-.8-.17-1.12-.76-1.12-1.55-2.22-2.4-3.28-.23-.28-.74-.43-1.08-.43-.36,0-.79.18-1.04.45-.26.29-.45.68-.43,1.08l.06.38c.07.25.2.47.39.66h0Z"/><path class="cls-7" d="m52.15,115.92c1.26.29,2.53.57,3.78.91.76.21,1.66-.33,1.81-1.11.16-.82-.3-1.59-1.11-1.81-1.25-.34-2.52-.62-3.78-.91-.37-.09-.79-.02-1.12.17s-.62.57-.69.94c-.15.79.29,1.62,1.11,1.81h0Z"/><path class="cls-7" d="m59.58,117.92c.63.25,1.27.49,1.91.73l-.37-.15c.86.33,1.71.69,2.52,1.13.69.37,1.68.14,2.04-.59s.15-1.64-.59-2.04c-1.39-.75-2.89-1.26-4.36-1.83l.37.15-.07-.03c-.39-.15-.72-.25-1.14-.13-.35.1-.73.38-.9.72s-.26.76-.13,1.14c.12.35.36.76.72.9h0Z"/><path class="cls-7" d="m66.45,121.27c.77.45,1.62.75,2.41,1.18s1.53.96,2.27,1.48c.3.21.81.22,1.14.13.35-.1.73-.38.9-.72s.26-.76.13-1.14c-.13-.4-.37-.66-.72-.9-.74-.52-1.48-1.04-2.27-1.48s-1.63-.73-2.41-1.18c-.68-.4-1.68-.13-2.04.59s-.14,1.61.59,2.04h0Z"/><path class="cls-7" d="m68.7,131.12c1.21.36,2.48.46,3.7.81.75.22,1.66-.34,1.81-1.11.16-.83-.3-1.58-1.11-1.81-1.22-.35-2.49-.45-3.7-.81-.75-.22-1.66.34-1.81,1.11-.16.83.3,1.57,1.11,1.81h0Z"/><path class="cls-7" d="m74.99,126.36c.52.39,1.01.77,1.42,1.28l-.24-.31c.35.45.7.91,1,1.39s.57.99.85,1.49c.38.69,1.39.96,2.06.52s.93-1.32.52-2.06c-.44-.79-.87-1.59-1.42-2.32-.33-.44-.65-.9-1.03-1.29-.32-.32-.69-.59-1.05-.86-.34-.25-.64-.44-1.08-.43-.36,0-.79.18-1.04.45-.26.29-.45.68-.43,1.08.02.36.15.81.45,1.04h0Z"/><path class="cls-7" d="m71.56,128.2c.91.26,1.82.53,2.72.82.34.11.82,0,1.12-.17.32-.19.62-.57.69-.94s.04-.79-.17-1.12c-.23-.35-.54-.56-.94-.69-.9-.28-1.81-.56-2.72-.82-.35-.1-.81-.02-1.12.17s-.62.57-.69.94-.04.79.17,1.12c.23.35.54.58.94.69h0Z"/><path class="cls-7" d="m83.09,136.38c.47-.12.9-.28,1.34-.48.34-.15.65-.35.99-.5l-.35.15s.07-.03.11-.04c.19-.05.36-.14.5-.27.17-.11.3-.26.39-.44.11-.18.16-.37.17-.57.04-.19.02-.38-.04-.57-.12-.37-.36-.72-.72-.9-.34-.17-.78-.27-1.14-.13-.31.13-.63.26-.92.42-.2.1-.39.22-.59.31l.35-.15c-.3.13-.61.21-.92.29-.37.1-.72.39-.9.72-.11.18-.16.37-.17.57-.04.19-.02.38.04.57.12.37.36.72.72.9s.75.23,1.14.13h0Z"/><path class="cls-7" d="m63.28,87.56c.43-.08.86-.16,1.3-.23l-.38.06c.23-.04.46-.07.69-.1.2,0,.38-.04.56-.13.19-.06.35-.17.48-.32.15-.14.26-.31.31-.51.09-.18.13-.37.11-.57-.03-.38-.16-.78-.45-1.04l-.32-.24c-.24-.13-.49-.19-.76-.19-.79.1-1.58.23-2.37.39-.19.05-.36.14-.5.27-.17.11-.3.26-.39.44-.11.18-.16.37-.17.57-.04.19-.02.38.04.57.12.37.36.72.72.9l.37.15c.26.06.51.05.77-.02h0Z"/><path class="cls-7" d="m69.27,86.46c1.18-.35,2.3-.91,3.35-1.55.33-.21.6-.55.69-.94.08-.35.03-.81-.17-1.12-.22-.33-.54-.61-.94-.69s-.78-.04-1.12.17c-.6.37-1.22.71-1.87,1l.35-.15c-.37.16-.74.29-1.12.41s-.71.38-.9.72-.25.79-.13,1.14.36.72.72.9.75.24,1.14.13h0Z"/><path class="cls-7" d="m77.29,81.27c.41-.33.8-.69,1.16-1.07.45-.47.84-.98,1.22-1.51.11-.18.16-.37.17-.57.04-.19.02-.38-.04-.57-.1-.35-.38-.73-.72-.9s-.76-.26-1.14-.13l-.35.15c-.23.14-.41.33-.55.56-.02.03-.05.06-.07.1l.24-.32c-.6.8-1.29,1.52-2.07,2.16-.15.14-.26.31-.31.51-.09.18-.13.37-.11.57,0,.36.18.79.45,1.04.29.26.68.45,1.08.43l.38-.06c.25-.07.47-.2.66-.39h0Z"/><path class="cls-7" d="m83.63,74.75c.1-.14.21-.29.31-.43l-.24.32c.78-1.04,1.61-2.06,2.22-3.22.18-.35.24-.76.13-1.14-.1-.35-.38-.73-.72-.9-.72-.35-1.65-.16-2.04.59-.36.69-.8,1.32-1.26,1.94l.24-.32c-.42.57-.85,1.13-1.27,1.71-.21.29-.22.81-.13,1.14.1.35.38.73.72.9s.76.26,1.14.13l.35-.15c.23-.14.41-.33.55-.56h0Z"/><path class="cls-7" d="m88.15,66.6c.54-1.51,1.1-3.13.9-4.76-.05-.4-.15-.75-.45-1.04-.27-.26-.71-.45-1.08-.43s-.78.16-1.04.45-.48.69-.43,1.08.05.82,0,1.22l.04-.39c-.13,1.09-.5,2.13-.86,3.15-.12.33,0,.83.17,1.12.19.32.57.62.94.69s.79.04,1.12-.17c.36-.23.55-.54.69-.94h0Z"/><path class="cls-7" d="m89.14,55.17c-.03-1.1-.1-2.2-.14-3.3-.01-.38-.18-.77-.45-1.04s-.71-.45-1.08-.43-.78.16-1.04.45-.44.68-.43,1.08c.04,1.1.11,2.2.14,3.3.01.38.18.77.45,1.04s.71.45,1.08.43.78-.16,1.04-.45.44-.67.43-1.08h0Z"/><path class="cls-7" d="m83.34,48.25l-.32,2.26c-.05.19-.06.39-.01.58.01.19.07.37.18.54.1.18.23.32.4.43.15.14.33.22.54.27.37.07.79.04,1.12-.17s.64-.54.69-.94l.32-2.26c.05-.19.06-.39.01-.58-.01-.19-.07-.37-.18-.54-.1-.18-.23-.32-.4-.43-.15-.14-.33-.22-.54-.27-.37-.07-.79-.04-1.12.17s-.64.54-.69.94h0Z"/><path class="cls-7" d="m82.71,57.04c-.22.62-.43,1.23-.63,1.86-.05.19-.06.39-.01.58.01.19.07.37.18.54.1.18.23.32.4.43.15.14.33.22.54.27.37.07.79.04,1.12-.17l.31-.24c.19-.2.32-.43.39-.7.2-.62.41-1.24.63-1.86.05-.19.06-.39.01-.58-.01-.19-.07-.37-.18-.54-.1-.18-.23-.32-.4-.43-.15-.14-.33-.22-.54-.27-.37-.07-.79-.04-1.12.17l-.31.24c-.19.2-.32.43-.39.7h0Z"/><path class="cls-7" d="m80.02,64.42c-.55.72-1.09,1.45-1.6,2.2-.11.18-.16.37-.17.57-.04.19-.02.38.04.57.05.19.14.36.27.5.11.17.26.3.44.39.35.17.76.26,1.14.13l.35-.15c.23-.14.41-.33.55-.56.3-.44.61-.87.92-1.3l-.24.32c.14-.19.29-.39.44-.58.15-.14.26-.31.31-.51.09-.18.13-.37.11-.57,0-.2-.04-.38-.13-.56-.06-.19-.17-.35-.32-.48-.29-.26-.68-.45-1.08-.43l-.38.06c-.25.07-.47.2-.66.39h0Z"/><path class="cls-7" d="m76.18,71.29c-.11.17-.23.33-.35.49l.24-.32c-.73.98-1.58,1.88-2.42,2.77-.27.28-.44.69-.43,1.08,0,.36.18.79.45,1.04.29.26.68.45,1.08.43s.76-.16,1.04-.45c1.08-1.14,2.12-2.29,3.01-3.58.21-.3.22-.81.13-1.14-.1-.35-.38-.73-.72-.9s-.76-.26-1.14-.13l-.35.15c-.23.14-.41.33-.55.56h0Z"/><path class="cls-7" d="m69.39,77.96c-1,.71-2.07,1.29-3.2,1.78l.35-.15c-.12.05-.24.1-.36.15-.38.16-.69.34-.9.72-.18.32-.25.79-.13,1.14s.36.72.72.9c.33.16.78.28,1.14.13,1.37-.57,2.7-1.22,3.91-2.08.33-.24.59-.53.69-.94.08-.35.03-.81-.17-1.12-.22-.33-.54-.61-.94-.69-.37-.07-.8-.05-1.12.17h0Z"/><path class="cls-7" d="m61.46,80.54c-1.42.07-2.85.13-4.27.13-.79,0-1.52.74-1.46,1.54s.7,1.46,1.54,1.46c1.43,0,2.85-.06,4.27-.13.78-.04,1.52-.71,1.46-1.54s-.7-1.51-1.54-1.46h0Z"/><path class="cls-7" d="m58.36,78.47c1.08.1,2.15-.03,3.2-.27.36-.08.72-.4.9-.72s.25-.79.13-1.14-.36-.72-.72-.9-.74-.22-1.14-.13c-.26.06-.51.11-.77.15l.38-.06c-.68.1-1.37.12-2.05.06-.35-.03-.8.21-1.04.45-.26.27-.45.71-.43,1.08s.16.78.45,1.04l.32.24c.24.13.49.19.76.19h0Z"/><path class="cls-7" d="m66.57,76.03c.94-.67,1.87-1.34,2.75-2.08.15-.14.26-.31.31-.51.09-.18.13-.37.11-.57,0-.36-.18-.79-.45-1.04-.29-.26-.68-.45-1.08-.43l-.38.06c-.25.07-.47.2-.66.39-.19.16-.38.31-.57.47l.31-.24c-.61.48-1.25.93-1.88,1.38-.18.1-.32.23-.43.4-.14.15-.22.33-.27.54-.08.35-.03.81.17,1.12.22.33.54.61.94.69.37.07.8.05,1.12-.17h0Z"/><path class="cls-7" d="m74.48,70.17c.48-.44.97-.87,1.4-1.36.52-.59.94-1.25,1.4-1.88l-.24.32c.11-.15.23-.3.34-.44.26-.32.44-.66.43-1.08,0-.36-.18-.79-.45-1.04-.29-.26-.68-.45-1.08-.43-.37.03-.79.15-1.04.45-.47.57-.87,1.18-1.31,1.78l.24-.32c-.53.72-1.18,1.3-1.83,1.91-.28.26-.44.72-.43,1.08s.18.79.45,1.04c.63.56,1.5.55,2.12-.03h0Z"/><path class="cls-7" d="m80.16,61.38c.43-.78.73-1.62,1.05-2.45l-.15.37c.06-.15.12-.3.18-.44.11-.18.16-.37.17-.57.04-.19.02-.38-.04-.57-.1-.35-.38-.73-.72-.9s-.76-.26-1.14-.13c-.35.12-.75.36-.9.72s-.29.75-.44,1.13l.15-.37c-.23.6-.48,1.2-.79,1.77-.19.34-.23.77-.13,1.14s.38.73.72.9.76.26,1.14.13.7-.36.9-.72h0Z"/><path class="cls-7" d="m82.63,54.19c.08-.19.16-.38.23-.57.02-.07.05-.13.07-.2.04-.14.07-.28.09-.42.05-.19.06-.39.01-.58-.01-.19-.07-.37-.18-.54-.1-.18-.23-.32-.4-.43-.15-.14-.33-.22-.54-.27l-.39-.04c-.26,0-.51.08-.73.21l-.31.24c-.19.2-.32.43-.39.7-.03.23-.09.45-.17.67l.15-.37c-.02.05-.04.1-.06.15-.11.18-.16.37-.17.57-.04.19-.02.38.04.57.05.19.14.36.27.5.11.17.26.3.44.39l.37.15c.26.06.51.05.77-.02l.35-.15c.23-.14.41-.33.55-.56h0Z"/><path class="cls-7" d="m53.89,74.61c1.22-.62,2.48-1.2,3.57-2.05.18-.1.32-.23.43-.4.14-.15.22-.33.27-.54.08-.35.03-.81-.17-1.12-.22-.33-.54-.61-.94-.69-.35-.07-.82-.06-1.12.17-1.09.85-2.35,1.43-3.57,2.05-.33.17-.61.59-.69.94s-.03.81.17,1.12c.22.33.54.61.94.69s.76.01,1.12-.17h0Z"/><path class="cls-7" d="m62.2,69.95c1.29-.78,2.45-1.75,3.65-2.65.33-.25.59-.52.69-.94.08-.35.03-.81-.17-1.12-.22-.33-.54-.61-.94-.69-.36-.07-.81-.06-1.12.17-1.21.9-2.36,1.87-3.65,2.65-.33.2-.6.56-.69.94-.08.35-.03.81.17,1.12.44.68,1.34.95,2.06.52h0Z"/><path class="cls-7" d="m70.53,63.46c.57-.44,1.12-.9,1.65-1.4.44-.42.87-.84,1.31-1.27.27-.27.44-.71.43-1.08s-.18-.79-.45-1.04c-.29-.26-.68-.45-1.08-.43s-.75.17-1.04.45c-.84.81-1.66,1.64-2.57,2.36l.31-.24s-.05.04-.08.06c-.18.1-.32.23-.43.4-.14.15-.22.33-.27.54-.08.35-.03.81.17,1.12.22.33.54.61.94.69.36.07.82.06,1.12-.17h0Z"/><path class="cls-7" d="m78.11,56.46c.44-.5.87-1.01,1.31-1.52.15-.14.26-.31.31-.51.09-.18.13-.37.11-.57,0-.2-.04-.38-.13-.56-.06-.19-.17-.35-.32-.48l-.32-.24c-.24-.13-.49-.19-.76-.19l-.38.06c-.25.07-.47.2-.66.39-.44.51-.87,1.01-1.31,1.52-.15.14-.26.31-.31.51-.09.18-.13.37-.11.57,0,.2.04.38.13.56.06.19.17.35.32.48l.32.24c.24.13.49.19.76.19l.38-.06c.25-.07.47-.2.66-.39h0Z"/><path class="cls-7" d="m70.43,65.34c-.37.29-.74.58-1.1.87l.31-.24c-1.01.79-2.02,1.57-3.13,2.22-.68.4-.96,1.38-.52,2.06s1.34.95,2.06.52c1.44-.85,2.75-1.92,4.06-2.96l-.31.24c.06-.04.11-.09.17-.13.33-.26.59-.51.69-.94.08-.35.03-.81-.17-1.12-.22-.33-.54-.61-.94-.69-.35-.07-.82-.06-1.12.17h0Z"/><path class="cls-7" d="m60.4,71.83c-.27.14-.54.26-.81.38l.35-.15c-.62.27-1.25.49-1.89.7-.37.12-.71.37-.9.72-.18.32-.25.79-.13,1.14s.36.72.72.9.76.25,1.14.13c1.05-.34,2.08-.73,3.06-1.23.33-.17.61-.59.69-.94s.03-.81-.17-1.12c-.22-.33-.54-.61-.94-.69s-.75-.01-1.12.17h0Z"/><path class="cls-7" d="m54.88,69.48c.91-.77,1.83-1.53,2.75-2.29.28-.23.43-.74.43-1.08s-.18-.79-.45-1.04c-.29-.26-.68-.45-1.08-.43l-.38.06c-.25.07-.47.2-.66.39-.93.75-1.84,1.52-2.75,2.29-.28.24-.44.73-.43,1.08s.18.79.45,1.04c.29.26.68.45,1.08.43l.38-.06c.25-.07.47-.2.66-.39h0Z"/><path class="cls-7" d="m60.86,64.77c1.86-1.4,3.79-2.71,5.78-3.93.67-.41.97-1.37.52-2.06s-1.34-.96-2.06-.52c-1.99,1.22-3.92,2.53-5.78,3.93-.33.25-.59.52-.69.94-.08.35-.03.81.17,1.12.41.62,1.39,1.02,2.06.52h0Z"/><path class="cls-7" d="m71.75,54.76c.3-.18.58-.37.86-.58.37-.28.74-.57,1.08-.89.15-.14.26-.31.31-.51.09-.18.13-.37.11-.57,0-.2-.04-.38-.13-.56-.06-.19-.17-.35-.32-.48l-.32-.24c-.24-.13-.49-.19-.76-.19l-.38.06c-.25.07-.47.2-.66.39-.2.19-.41.37-.63.54l.31-.24c-.32.25-.65.48-1,.69-.18.1-.32.23-.43.4-.14.15-.22.33-.27.54-.05.19-.06.39-.01.58.01.19.07.37.18.54.22.33.54.61.94.69s.78.04,1.12-.17h0Z"/><path class="cls-7" d="m78.45,49.5c.43-.31.89-.58,1.36-.82.22-.11.45-.22.67-.32.15-.07.13-.06-.06.02.07-.03.13-.06.2-.08.12-.05.24-.09.35-.14,1-.36,2.05-.59,3.05-.96.73-.27,1.3-1.05,1.03-1.86-.24-.72-1.07-1.32-1.86-1.03-1.03.39-2.12.61-3.15,1-1.1.41-2.18.93-3.14,1.6-.64.45-.99,1.34-.52,2.06.42.64,1.37,1,2.06.52h0Z"/><path class="cls-7" d="m76.79,44.23c1.93,0,1.86-3-.07-3s-1.86,3,.07,3h0Z"/><path class="cls-7" d="m75.64,42.12c-1.45.64-2.85,1.37-4.2,2.21-.67.41-.97,1.37-.52,2.06s1.34.96,2.06.52c1.35-.83,2.75-1.56,4.2-2.21.33-.15.61-.6.69-.94s.03-.81-.17-1.12c-.22-.33-.54-.61-.94-.69l-.39-.04c-.26,0-.51.08-.73.21h0Z"/><path class="cls-7" d="m67.71,48.42c-1.11.82-2.22,1.65-3.19,2.63-.27.27-.44.7-.43,1.08,0,.36.18.79.45,1.04.29.26.68.45,1.08.43s.75-.17,1.04-.45c.52-.52,1.09-1,1.67-1.46l-.31.24c.4-.32.81-.62,1.22-.93.18-.1.32-.23.43-.4.14-.15.22-.33.27-.54.08-.35.03-.81-.17-1.12-.22-.33-.54-.61-.94-.69-.36-.07-.81-.06-1.12.17h0Z"/><path class="cls-7" d="m60.5,55.35c-.88.86-1.84,1.63-2.67,2.54-.27.3-.44.68-.43,1.08,0,.36.18.79.45,1.04.29.26.68.45,1.08.43.38-.03.77-.16,1.04-.45.82-.92,1.79-1.68,2.67-2.54.27-.27.44-.7.43-1.08,0-.36-.18-.79-.45-1.04-.29-.26-.68-.45-1.08-.43s-.75.17-1.04.45h0Z"/><path class="cls-7" d="m53.89,61.07c-.84.53-1.64,1.12-2.43,1.72-.18.1-.32.23-.43.4-.14.15-.22.33-.27.54-.08.35-.03.81.17,1.12.22.33.54.61.94.69.36.07.81.06,1.12-.17.79-.6,1.59-1.2,2.43-1.72.33-.21.6-.55.69-.94.08-.35.03-.81-.17-1.12-.22-.33-.54-.61-.94-.69s-.78-.04-1.12.17h0Z"/><path class="cls-7" d="m53.33,60.63c.82-.88,1.73-1.68,2.55-2.56.27-.29.44-.69.43-1.08,0-.36-.18-.79-.45-1.04-.29-.26-.68-.45-1.08-.43s-.77.16-1.04.45c-.82.88-1.73,1.68-2.55,2.56-.27.29-.44.69-.43,1.08,0,.36.18.79.45,1.04.29.26.68.45,1.08.43s.77-.16,1.04-.45h0Z"/><path class="cls-7" d="m60.52,53.62c.53-.48,1.07-.96,1.63-1.4l-.31.24c.4-.31.81-.61,1.25-.87.33-.2.6-.56.69-.94.08-.35.03-.81-.17-1.12-.22-.33-.54-.61-.94-.69s-.78-.04-1.12.17c-1.16.7-2.18,1.61-3.18,2.51-.28.25-.44.72-.43,1.08s.18.79.45,1.04c.29.26.68.45,1.08.43s.73-.18,1.04-.45h0Z"/><path class="cls-7" d="m66.75,47.33c.28-.24.56-.47.85-.7l-.31.24c1.01-.79,2.08-1.51,3.19-2.14.68-.39.96-1.39.52-2.06s-1.33-.93-2.06-.52c-1.55.88-2.99,1.92-4.35,3.08-.28.24-.44.73-.43,1.08s.18.79.45,1.04c.29.26.68.45,1.08.43s.72-.19,1.04-.45h0Z"/><path class="cls-7" d="m62.62,42.24c-1.49.74-2.84,1.69-4.15,2.7-.33.26-.59.51-.69.94-.08.35-.03.81.17,1.12.22.33.54.61.94.69.36.07.82.06,1.12-.17,1.31-1.01,2.66-1.96,4.15-2.7.33-.16.61-.59.69-.94s.03-.81-.17-1.12c-.22-.33-.54-.61-.94-.69s-.75-.01-1.12.17h0Z"/><path class="cls-7" d="m54.19,49.24c-1.37,1.27-2.64,2.62-3.96,3.94-.55.56-.57,1.59.03,2.12s1.53.57,2.12-.03c1.31-1.32,2.59-2.68,3.96-3.94.58-.53.56-1.6-.03-2.12-.63-.56-1.5-.55-2.12.03h0Z"/><path class="cls-7" d="m46.33,57.97c-.88,1.36-1.73,2.74-2.53,4.14-.39.68-.13,1.68.59,2.04s1.62.14,2.04-.59c.8-1.41,1.64-2.79,2.53-4.14.2-.31.23-.8.13-1.14s-.38-.73-.72-.9c-.77-.38-1.58-.12-2.04.59h0Z"/><path class="cls-7" d="m48.01,66.09c.58-.84,1.17-1.68,1.7-2.56.19-.32.23-.78.13-1.14s-.38-.73-.72-.9-.76-.26-1.14-.13-.69.36-.9.72c-.53.88-1.11,1.72-1.7,2.56-.21.3-.22.81-.13,1.14.1.35.38.73.72.9s.76.26,1.14.13l.35-.15c.23-.14.41-.33.55-.56h0Z"/><path class="cls-7" d="m45.85,58.13c.28-.48.56-.96.86-1.43.15-.24.3-.48.46-.72.08-.11.15-.22.23-.33.04-.05.08-.11.12-.16l-.12.16s.06-.08.09-.12c.7-.91,1.48-1.75,2.3-2.55.56-.55.57-1.59-.03-2.12s-1.53-.57-2.12.03c-.84.83-1.64,1.7-2.36,2.64-.77,1.01-1.41,2.09-2.06,3.18-.4.68-.12,1.69.59,2.04.75.37,1.61.14,2.04-.59h0Z"/><path class="cls-7" d="m53.47,48.17c1.05-.58,2.08-1.19,3.06-1.88.33-.24.59-.53.69-.94.08-.35.03-.81-.17-1.12-.22-.33-.54-.61-.94-.69-.37-.07-.8-.05-1.12.17-.98.69-2.01,1.3-3.06,1.88-.33.19-.6.57-.69.94s-.03.81.17,1.12c.46.7,1.32.93,2.06.52h0Z"/><path class="cls-7" d="m44.4,54.15c.55-.53,1.13-1.04,1.73-1.51l-.31.24c.11-.09.23-.18.34-.26.18-.1.32-.23.43-.4.14-.15.22-.33.27-.54.05-.19.06-.39.01-.58-.01-.19-.07-.37-.18-.54-.22-.33-.54-.61-.94-.69l-.39-.04c-.26,0-.51.08-.73.21-.83.63-1.63,1.29-2.38,2.02-.15.14-.26.31-.31.51-.09.18-.13.37-.11.57,0,.2.04.38.13.56.06.19.17.35.32.48.29.26.68.45,1.08.43s.75-.17,1.04-.45h0Z"/><path class="cls-7" d="m67.25,57.41l.54-.41c.18-.1.32-.23.43-.4.14-.15.22-.33.27-.54.05-.19.06-.39.01-.58-.01-.19-.07-.37-.18-.54l-.24-.31c-.2-.19-.43-.32-.7-.39l-.39-.04c-.26,0-.51.08-.73.21l-.54.41c-.18.1-.32.23-.43.4-.14.15-.22.33-.27.54-.05.19-.06.39-.01.58.01.19.07.37.18.54l.24.31c.2.19.43.32.7.39l.39.04c.26,0,.51-.08.73-.21h0Z"/><path class="cls-5" d="m44.9,106.29c1.28-1.45,2.25-3.19,3.68-4.48,1.39-1.26,3.01-2.19,4.61-3.1.83-.47,1.69-.86,2.46-1.45.59-.45,1.16-.93,1.7-1.44.61-.58,1.2-1.18,1.82-1.75.11-.1.42-.49.6-.47-.13.38-.47.63-.73.9-.55.57-1.05,1.17-1.63,1.7-.55.5-1.14.96-1.65,1.52-.52.57-.96,1.2-1.36,1.88-.47.78-.92,1.58-1.45,2.32-.43.6-.88,1.19-1.34,1.78-.83,1.07-1.8,1.77-2.92,2.43-.7.41-1.48.52-2.22.82-.28.11-.74.47-1.05.24-.12-.1-.19-.18-.24-.34-.04-.13-.02-.27-.04-.39-.02-.1-.11-.28-.22-.33"/><path class="cls-5" d="m45.77,105.79c1.05-1.21,1.89-2.58,2.97-3.77,1.29-1.42,2.96-2.47,4.64-3.38,1.18-.64,2.4-1.29,3.46-2.13.7-.55,1.34-1.15,1.98-1.77.53-.51,1.06-1.2,1.69-1.59l-1.7.98c.25-.06-.33.58-.42.68-.31.32-.61.65-.92.97-.64.69-1.35,1.28-2.04,1.92-1.41,1.31-2.18,3.06-3.27,4.61-.54.77-1.11,1.56-1.73,2.27-.29.33-.61.63-.94.91-.15.12-.3.24-.46.36-.12.09-.72.38-.76.51.06-.2,1.39-.69.44-.36-.21.07-.42.13-.62.19-.44.14-.84.37-1.26.5-.9.29-.6-.69-1.03-1.07-.16-.15-1.59,1.13-1.73,1,.38.35.1,1.07.75,1.13.26.03.57-.21.79-.31.44-.19.92-.29,1.37-.45,1.19-.41,2.35-1.17,3.39-1.88,1.37-.92,2.32-2.16,3.28-3.48s1.7-2.95,2.81-4.23c.52-.6,1.14-1.1,1.73-1.63.64-.58,1.19-1.24,1.79-1.85.18-.19.49-.4.58-.65.11-.32-.08-.12-.27-.02-.52.27-1.12.57-1.59.93-1.24.96-2.25,2.24-3.48,3.23-.21.17-.43.31-.64.48-.69.57.95-.49.12-.05-.23.12-.45.25-.68.37-.74.41-1.46.83-2.19,1.26-1.51.88-3.03,1.79-4.3,3-1.34,1.28-2.28,2.91-3.5,4.31.41-.47,1.32-.52,1.73-1h0Z"/><path class="cls-5" d="m45.61,107.08c.72.56,1.37,1.19,2.04,1.83.67.64,1.34,1.26,1.88,2.04,1.24,1.79,1.86,4.12,2.53,6.19.68,2.08,1.59,3.98,2.68,5.84.33.57.66,1.12,1.05,1.64.31.42.72.72,1.05,1.11-.28-.23-.51-.54-.77-.8-.57-.55-1.18-1.02-1.9-1.26-1.53-.51-3.15-.36-4.71-.44-2.09-.11-4.31-.41-6.31-1.26-1.37-.58-2.83-1.13-4.1-1.96-.31-.2-.89-.55-1.13-.89-.26-.38.01-.83.16-1.16.87-1.94,2.22-3.51,3.17-5.38.37-.74.63-1.55.96-2.32.33-.77.73-1.47,1.24-2.11.37-.48.77-.92,1.24-1.28.13-.1.33-.19.41-.36"/><path class="cls-5" d="m44.75,107.58c1.39,1.1,2.9,2.41,3.93,3.87s1.6,3.27,2.15,4.98,1.18,3.47,2.01,5.11c.43.85.89,1.68,1.39,2.49s1.12,1.48,1.77,2.19l1.73-1c-1.07-.98-1.85-1.91-3.33-2.24s-3.15-.18-4.71-.3c-3.19-.23-6.26-1.2-9.05-2.76-.53-.3-1.16-.62-1.59-1.06-.52-.52-.28-.98,0-1.57.66-1.39,1.56-2.63,2.37-3.94.85-1.38,1.28-2.89,2.02-4.31.33-.63.73-1.22,1.19-1.76.4-.47,1-.81,1.36-1.29-.36.49-1.36.5-1.73,1-.33.45-.88.75-1.26,1.18-.47.53-.88,1.11-1.21,1.73-.76,1.4-1.18,2.94-2.01,4.31s-1.71,2.55-2.38,3.93c-.27.55-.62,1.1-.16,1.64.41.48,1.14.84,1.68,1.14,2.74,1.53,5.76,2.5,8.89,2.75,1.56.12,3.17-.03,4.71.28s2.38,1.23,3.5,2.27c.14.13,1.63-1.11,1.73-1-.61-.67-1.2-1.27-1.69-2.05s-.97-1.64-1.4-2.48c-.87-1.69-1.51-3.45-2.08-5.26-.53-1.67-1.08-3.38-2.06-4.85s-2.59-2.87-4.01-4c-.2-.16-1.55,1.14-1.73,1h0Z"/><path class="cls-5" d="m36.78,119.7c.35.77.72,1.43,1.31,2.04.46.48.92.94,1.33,1.45.38.47.75.95,1.12,1.42.75.95,1.33,1.97,1.76,3.11.44,1.18.71,2.43,1.03,3.64.57,2.12,1.26,4.27,2.46,6.13.46.71.93,1.43,1.5,2.05.19.21.39.41.62.58.13.1.34.19.42.34-.46-.18-.86-.63-1.25-.93-.77-.59-1.55-1.16-2.3-1.77-1.6-1.3-3.37-2.38-4.94-3.71-.74-.63-1.47-1.33-2.09-2.07s-1.13-1.63-1.51-2.53c-.36-.84-.64-1.77-.8-2.67-.17-.93-.17-1.9-.18-2.84,0-1.22.03-2.41.55-3.54.14-.31.28-.63.43-.94.08-.16.18-.45.35-.53.4-.2.61.4.73.65.4.84.98,1.54,1.57,2.25"/><path class="cls-5" d="m35.92,120.2c.86,1.83,2.41,3.19,3.65,4.77,1.33,1.7,2.04,3.54,2.57,5.61s1.03,3.96,1.9,5.8c.42.88.93,1.72,1.49,2.52s1.24,1.38,1.94,2.06l1.73-1c-.92-.47-1.75-1.3-2.57-1.93-1-.76-1.97-1.54-2.99-2.27-1.88-1.35-3.83-2.71-5.25-4.57s-2.15-4.22-2.24-6.53c-.05-1.17-.09-2.4.15-3.55.17-.81.55-2.1,1.17-2.69l-1.73,1c.53-.11.69.6.89.96.39.7.9,1.33,1.41,1.94.08.1,1.67-1.07,1.73-1-.48-.57-.95-1.15-1.33-1.79-.16-.27-.4-1.1-.79-1.15-.45-.06-1.55.73-1.89,1.02-.82.7-1.2,2.4-1.31,3.41-.17,1.57-.14,3.3.19,4.85.7,3.24,2.65,5.63,5.23,7.61,1.22.94,2.52,1.79,3.73,2.74.65.51,1.29,1.01,1.94,1.51s1.21,1.07,1.91,1.43c.24.12,1.58-1.15,1.73-1-.66-.64-1.29-1.15-1.83-1.91s-1.09-1.63-1.52-2.5c-.92-1.89-1.46-3.94-1.98-5.97s-1.19-3.81-2.46-5.46-2.88-3.03-3.76-4.91c.02.04-1.76.93-1.73,1h0Z"/><path class="cls-6" d="m44.38,105.91c.37-.95.85-1.72,1.64-2.29.43-.31.92-.57,1.43-.71.44-.12.91-.11,1.36-.09,2.26.1,4.43,1.15,6.47,2.26.46.25.92.51,1.35.84.5.38.94.84,1.45,1.22.77.57,1.59,1.03,2.44,1.38.65.27,1.32.43,2.01.42.23,0,.44-.04.66-.1.09-.02.29-.05.36-.16-.41-.07-.89.06-1.29.1-.74.07-1.46.14-2.19.3-1.35.29-2.63.89-3.93,1.34-1.38.48-2.85.72-4.29.94-.87.13-1.75.27-2.63.34-.76.07-1.53.04-2.29.05-1.33.02-2.65.04-3.98,0-.4-.01-1-.07-1.32-.41-.38-.4.1-1.22.26-1.57.36-.79.81-1.55,1.26-2.28.38-.62.88-1.11,1.29-1.7.23-.33.35-.71.53-1.07.05-.09.1-.31.22-.34"/><path class="cls-6" d="m45.25,105.41c.18-.45.38-.89.66-1.29.12-.17.25-.33.39-.48.07-.08.58-.5.16-.23s.31-.04.46-.07c.23-.03.46-.04.68-.03.55,0,1.11.07,1.65.17,2.15.42,4.38,1.48,6.18,2.7s3.08,2.68,5.21,3.15c1.5.33,2.53-.34,3.74-1.13l.03-.02c-2.67-.16-5.13.99-7.6,1.8-2.59.85-5.54,1.25-8.26,1.26-1.38,0-2.76.04-4.14.02-.94-.02-2.39-.03-1.95-1.36.37-1.12,1.08-2.26,1.74-3.22.34-.48.77-.9,1.09-1.4.28-.44.39-1.03.75-1.41-.44.46-1.29.53-1.73,1-.33.34-.43.87-.67,1.28-.33.55-.8,1-1.17,1.52-.66.93-1.29,2.03-1.69,3.1-.49,1.3.66,1.45,1.7,1.47,1.45.03,2.9,0,4.34-.02,2.66-.01,5.54-.4,8.07-1.2,1.33-.42,2.59-1.03,3.94-1.37.6-.15,1.21-.25,1.82-.32.35-.04.7-.07,1.05-.11.15-.02.86.02.84.03l1.7-.98c-2.04.52-4.23-.74-5.74-2.02-1.81-1.54-3.96-2.73-6.23-3.46-1.82-.58-3.59-.76-5.28.2-1.56.89-2.78,1.65-3.49,3.39.2-.48,1.53-.5,1.73-1h0Z"/><path class="cls-6" d="m37.55,117.78c.56-.8,1.17-1.49,1.81-2.21.27-.3.46-.56.88-.55.48.02.96.33,1.36.65,1.8,1.46,3.22,3.91,3.64,6.29.16.92.31,1.85.57,2.74.12.41.28.84.45,1.24s.41.68.67,1.01c.47.6.92,1.19,1.48,1.71.17.16.35.3.5.48.08.1.21.36.35.39-.08-.28-.41-.53-.61-.71-.47-.42-.96-.77-1.49-1.08-.63-.37-1.28-.71-1.93-1.04-.69-.35-1.4-.55-2.12-.77-.73-.22-1.46-.48-2.19-.69-.66-.19-1.31-.38-1.95-.66-.92-.41-1.93-.88-2.61-1.73-.21-.26-.39-.52-.5-.85s-.14-.97-.16-1.32c-.03-.67.22-1.21.56-1.73.68-1.05,1.63-1.82,2.49-2.68"/><path class="cls-6" d="m38.41,117.28c.35-.49.73-.97,1.12-1.43.36-.42.71-.95,1.19-1.24l-1.7.98c1.29-.43,2.76,1.5,3.41,2.39.89,1.23,1.56,2.65,1.87,4.14s.43,3.26,1.26,4.64c.39.66.94,1.28,1.45,1.85.27.3.58.56.86.85.17.18.29.43.5.56.12.07,1.71-1.04,1.73-1-.33-.71-1.26-1.28-1.91-1.67-.89-.55-1.85-1.08-2.82-1.46-1.85-.72-3.85-1.06-5.66-1.86-.78-.35-1.58-.74-2.2-1.34-.69-.68-.92-1.4-.96-2.35-.09-1.96,1.78-3.32,3.04-4.57-.45.45-1.27.54-1.73,1-1.26,1.25-3.12,2.61-3.04,4.57.04.9.23,1.6.88,2.26s1.46,1.06,2.28,1.43c1.82.8,3.81,1.14,5.66,1.86.98.38,1.93.92,2.82,1.46.65.4,1.58.96,1.91,1.67l1.73-1c-.3-.17-.59-.63-.84-.87-.36-.35-.69-.72-1.01-1.11-.73-.9-1.25-1.72-1.58-2.84-.31-1.05-.42-2.13-.66-3.19-.22-.99-.6-1.95-1.09-2.84s-1.08-1.7-1.8-2.41c-.59-.59-1.5-1.49-2.4-1.15-1.76.65-2.99,2.2-4.04,3.67.14-.19.66-.37.87-.49.23-.13.7-.29.86-.51h0Z"/><path class="cls-5" d="m49.81,82.81c1.33,1.01,2.5,2.39,3.9,3.21,1.37.8,2.83,1.21,4.27,1.62.75.21,1.49.33,2.22.67.56.26,1.11.55,1.65.88.61.37,1.2.78,1.82,1.14.1.06.44.34.57.28-.19-.32-.51-.47-.77-.65-.56-.39-1.09-.81-1.66-1.15-.54-.32-1.11-.59-1.63-.97-.54-.39-1.02-.87-1.5-1.4-.55-.61-1.09-1.24-1.67-1.79-.48-.45-.96-.88-1.45-1.31-.9-.78-1.8-1.17-2.82-1.48-.63-.19-1.25-.07-1.89-.14-.24-.03-.68-.24-.85.08-.07.13-.1.22-.1.39,0,.14.06.26.06.39,0,.1-.02.3-.08.38"/><path class="cls-5" d="m48.95,83.31c1.09.84,2.02,1.86,3.12,2.69s2.49,1.38,3.84,1.79,2.75.66,4.02,1.31c.68.35,1.32.76,1.96,1.17.36.23,1.03.85,1.48.84.21,0,1.68-1.07,1.73-1-.48-.65-1.44-1.16-2.12-1.6-.78-.51-1.62-.88-2.34-1.48s-1.36-1.4-2.02-2.11c-.71-.77-1.5-1.49-2.3-2.16-.65-.54-1.39-.94-2.19-1.22-.9-.32-1.79-.23-2.71-.37-.62-.09-1.25.47-1.76.77-.25.15-.52.25-.61.55-.1.34.11.64-.04.98.08-.16.71-.4.87-.49.19-.11.77-.3.86-.51.21-.44-.14-.88.23-1.28l-1.73,1c.24-.09.44,0,.68.03.38.05.76.02,1.15.04.69.03,1.34.25,1.96.53,1.39.62,2.56,1.76,3.6,2.84s1.96,2.32,3.3,3.11c.59.35,1.2.66,1.76,1.06s1.3.77,1.7,1.32l1.73-1c-.42.01-1.03-.55-1.37-.77-.64-.41-1.28-.83-1.96-1.18-1.31-.68-2.74-.94-4.14-1.37-1.32-.4-2.63-.9-3.75-1.72s-2.1-1.89-3.22-2.76c-.21-.16-1.54,1.15-1.73,1h0Z"/><path class="cls-5" d="m50.16,81.85c.41-.75.75-1.54,1.1-2.35.35-.81.71-1.59.93-2.5.5-2.08.4-4.48.41-6.65,0-2.18.23-4.26.6-6.36.11-.64.23-1.26.4-1.88.13-.5.37-.89.53-1.37-.15.3-.25.67-.39.99-.3.69-.65,1.32-1.14,1.76-1.04.94-2.31,1.26-3.48,1.79-1.56.71-3.18,1.65-4.5,3.04-.9.95-1.87,1.91-2.64,3.07-.19.29-.54.78-.64,1.18-.11.44.21.79.41,1.07,1.13,1.6,2.55,2.71,3.73,4.22.47.6.86,1.3,1.3,1.94.44.64.92,1.19,1.46,1.66.4.35.81.65,1.26.86.13.06.3.09.4.23"/><path class="cls-5" d="m51.03,81.35c.81-1.51,1.62-3.18,2.04-4.85.44-1.78.42-3.66.41-5.48-.01-3.64.23-7.35,1.53-10.78-.18.48-1.52.51-1.73,1-.29.66-.5,1.35-.89,1.96-.19.29-.4.53-.64.79-.35.28-.39.32-.12.12l-.33.14c-1.08.33-2.14.92-3.12,1.47-2.17,1.22-3.96,2.57-5.65,4.42-.63.69-2.19,2.19-2.04,3.25.08.57.78,1.25,1.13,1.66.48.57,1.01,1.1,1.52,1.63,1.04,1.08,1.85,2.22,2.69,3.46.42.62.88,1.2,1.43,1.7s1.21.77,1.79,1.21c.22.16,1.54-1.15,1.73-1-.52-.4-1.14-.64-1.65-1.09-.56-.49-1.04-1.05-1.46-1.66-.89-1.28-1.71-2.49-2.8-3.62-.82-.86-2.25-1.98-2.6-3.16-.31-1.03,1.26-2.57,1.87-3.25.94-1.05,1.92-2.1,3.07-2.92.65-.42.78-.51.37-.26-.32.18-.28.17.1-.03.42-.18.82-.38,1.24-.55.56-.23,1.12-.44,1.65-.71.78-.4,1.57-.84,2.29-1.33,1.2-.81,1.59-1.95,2.15-3.22l-1.73,1c-1.29,3.43-1.54,7.14-1.53,10.78,0,1.82.04,3.7-.41,5.48-.42,1.67-1.23,3.34-2.04,4.85.26-.49,1.46-.49,1.73-1h0Z"/><path class="cls-5" d="m40.34,72.35c.07-.83.2-1.57.49-2.33.23-.59.47-1.16.66-1.78.17-.56.34-1.12.51-1.68.34-1.13.53-2.28.57-3.48.04-1.25-.06-2.53-.11-3.78-.09-2.19-.09-4.45.37-6.58.17-.81.36-1.63.64-2.4.09-.26.2-.5.33-.73.08-.13.21-.28.24-.45-.3.3-.5.85-.72,1.25-.44.79-.9,1.56-1.32,2.36-.9,1.71-1.98,3.25-2.85,4.99-.41.81-.79,1.7-1.08,2.59s-.46,1.88-.53,2.86c-.07.91-.06,1.88.04,2.79.1.93.33,1.87.56,2.76.29,1.17.62,2.3,1.29,3.23.19.26.37.52.56.78.1.13.25.37.4.41.35.08.36-.56.39-.84.1-.92.37-1.75.64-2.61"/><path class="cls-5" d="m41.21,71.85c.19-1.88,1-3.57,1.53-5.37.62-2.09.76-4.1.66-6.27-.18-4.06-.12-7.81,1.5-11.58-.2.46-1.4.58-1.73,1-.92,1.17-1.53,2.7-2.25,4-.78,1.42-1.68,2.77-2.43,4.2-1.42,2.71-2.11,5.57-1.77,8.64.16,1.44.52,2.92,1,4.28.22.64,1.16,2.93,1.98,2.86.38-.03,1.4-.68,1.66-.95.24-.25.24-.51.29-.85.15-.9.37-1.74.64-2.61-.15.46-1.58.52-1.73,1-.23.71-.46,1.42-.58,2.16-.07.42-.03.91-.28,1.26l1.73-1c-.55.1-1.31-1.38-1.53-1.8-.52-.98-.77-2.09-1.03-3.16-.53-2.18-.68-4.42-.24-6.63s1.55-4.2,2.69-6.11c.65-1.08,1.26-2.17,1.87-3.27.54-.98,1.03-2.13,1.72-3.02l-1.73,1c-1.62,3.77-1.69,7.52-1.5,11.58.1,2.17-.04,4.18-.66,6.27-.53,1.8-1.34,3.5-1.53,5.37.04-.38,1.69-.6,1.73-1h0Z"/><path class="cls-6" d="m49.51,83.33c.51.8,1.07,1.4,1.81,1.71.41.17.84.28,1.26.26.37-.02.72-.16,1.06-.31,1.69-.75,3.09-2.39,4.37-4.04.29-.38.57-.76.82-1.19.29-.51.51-1.08.8-1.59.45-.77.95-1.44,1.52-2.03.43-.45.9-.8,1.42-.99.17-.06.35-.09.53-.1.08,0,.23-.03.31.05-.3.19-.69.2-1.01.28-.58.15-1.15.29-1.74.35-1.1.11-2.22-.08-3.32-.13-1.17-.06-2.35.14-3.5.35-.7.13-1.4.25-2.09.44-.59.16-1.17.41-1.75.62-1.01.37-2.02.73-3.03,1.15-.3.13-.75.36-.91.78-.19.5.38,1.14.58,1.42.47.65,1,1.25,1.52,1.82.44.49.94.8,1.4,1.25.25.25.44.58.67.87.06.08.16.27.25.26"/><path class="cls-6" d="m48.65,83.83c1.04,1.57,2.56,2.45,4.38,1.54,1.23-.61,2.5-1.34,3.52-2.27,1.37-1.25,2.69-2.83,3.5-4.51.42-.88.9-1.7,1.53-2.45.29-.35.61-.64.93-.95.37-.29.11-.14-.79.45l.26-.07c.21-.01.36-.06.57.01l1.73-1c-2.44,1.14-5.11.29-7.66.55-2.71.28-5.19,1.11-7.72,2.08-.88.34-1.67.74-2.49,1.21-.67.39-1.5.77-1.11,1.68s1.32,1.83,2,2.55c.37.39.81.7,1.2,1.06s.67,1,1.11,1.31c.24.17,1.51-1.15,1.73-1-.35-.25-.54-.71-.83-1.03-.33-.36-.74-.64-1.1-.96-.73-.66-1.37-1.47-1.95-2.26-.21-.29-.49-.61-.55-.97-.03-.19.04-.31.07-.49.04-.1.11-.19.19-.26l-1.06.58c.17.02.74-.3.9-.37.25-.1.5-.19.76-.29.55-.21,1.11-.4,1.66-.61,2-.75,4.26-1.27,6.41-1.31s4.56.51,6.7-.49c.3-.14.58-.33.87-.49.12-.07.73-.55.86-.51-.58-.2-1.22.22-1.71.5-.57.33-1.18.63-1.71,1.03-1.55,1.17-2.12,2.96-3.13,4.52-.51.78-1.11,1.51-1.72,2.21-.32.37-.65.73-1,1.07-.26.25-.91.6-1.08.91.14-.26.98-.44.18-.17-.22.08-.44.14-.67.15-.43.02-.87-.09-1.26-.26-.8-.34-1.34-1-1.81-1.71-.03-.05-1.72,1.02-1.73,1h0Z"/><path class="cls-6" d="m41.4,73.96c.62.6,1.25,1.09,1.92,1.59.28.21.49.4.81.27.36-.16.65-.6.87-1.01,1.01-1.92,1.49-4.67,1.22-7.08-.1-.92-.22-1.86-.24-2.79,0-.43,0-.89.04-1.32s.15-.77.26-1.16c.21-.71.41-1.4.7-2.06.09-.2.19-.39.26-.6.04-.12.07-.41.17-.47,0,.3-.18.63-.29.86-.25.54-.54,1.02-.87,1.47-.39.53-.8,1.05-1.21,1.55-.44.54-.93.93-1.42,1.35-.5.43-.99.88-1.5,1.3-.45.37-.91.74-1.32,1.2-.6.66-1.25,1.4-1.57,2.41-.09.31-.17.62-.17.96s.13.97.21,1.31c.14.65.47,1.09.85,1.49.77.8,1.69,1.26,2.55,1.84"/><path class="cls-6" d="m40.53,74.46c.4.38.83.74,1.26,1.09.3.23.76.73,1.14.79.59.09,1.42-.64,1.89-.92,1.44-.85,1.9-3.08,2.15-4.61.35-2.16-.09-4.21-.13-6.37-.02-1.06.14-1.99.45-3,.16-.52.33-1.03.55-1.53.15-.34.24-.77.43-1.08l-1.73,1c-.1.78-.64,1.58-1.08,2.21-.51.72-1.06,1.46-1.68,2.1-1.29,1.31-2.88,2.31-4.1,3.7-1.14,1.29-1.69,2.61-1.3,4.31s2.06,2.53,3.42,3.42c.26.17,1.49-1.16,1.73-1-1.32-.87-2.98-1.67-3.4-3.33s.13-3.1,1.28-4.41,2.72-2.34,4-3.6c.63-.62,1.18-1.36,1.7-2.08.47-.66,1.06-1.5,1.16-2.32-.01.1-.77.43-.87.49-.22.13-.72.29-.86.51-.27.43-.45,1.09-.63,1.58-.26.68-.5,1.41-.66,2.13-.35,1.53-.05,3.16.1,4.7s.06,2.95-.27,4.39c-.27,1.2-.68,2.77-1.65,3.6l1.3-.76-.18.1.43-.24c-.54.11-.96-.37-1.36-.68-.48-.37-.93-.76-1.37-1.17-.15-.14-1.6,1.12-1.73,1h0Z"/><path class="cls-4" d="m19.91,92.52c.4-1.68.5-3.35-.65-4.78-.87-1.07-1.97-1.98-2.96-2.95-1.15-1.12-2.39-2.14-3.52-3.28-1.89-1.89-2.72-4.62-3.23-7.19-.23-1.14-.4-2.3-.6-3.45-.07-.42-.17-.83-.28-1.24-.05-.18-.16-.43-.14-.62.36.49.62,1.05.89,1.6.14.29.57,1.3.96,1.32.16-.56.17-1.16.27-1.73.12-.74.2-1.46.05-2.2-.14-.7-.31-1.46-.56-2.13-.19-.52-.5-1.01-.65-1.55.79.42,1.31,1.19,2.08,1.65.09.05.69.43.87.33.26-.14.05-.86.01-1-.32-1.28-1.02-2.32-1.69-3.43-.1-.16-1.01-1.27-.92-1.44.38.19.59.47.92.74.37.3.88.56,1.34.69s1.16.46,1.32-.14c.2-.74-.09-1.66-.22-2.39-.11-.64-.35-1.25-.49-1.88-.13-.56-.39-1.07-.52-1.63-.1-.42-.25-.79-.42-1.19-.12-.29-.25-.65-.46-.89-.16-.19-.58-.47-.49-.78.29.21.44.54.66.81.38.46.71.88,1.01,1.39.73,1.26,1.51,2.47,2.36,3.65,1.15,1.59,1.94,3.41,2.78,5.17.58,1.2,1.26,2.37,1.79,3.59.64,1.47,1.12,3.02,1.53,4.56.72,2.67,1.22,5.43,1.55,8.17.22,1.82.05,3.57-.41,5.34-.39,1.5-1,2.9-1.53,4.34-.17.47-.37.95-.5,1.44-.06.24-.23.61-.2.86"/><path class="cls-4" d="m20.78,92.02c.53-2.41.11-4.1-1.64-5.85s-3.61-3.28-5.34-5c-1.59-1.59-2.48-3.63-3.03-5.79-.28-1.08-.47-2.18-.66-3.27-.2-1.19-.55-2.39-.71-3.58l-1.73,1c.47.72.97,2.58,1.85,2.92.12.05,1.7-.88,1.73-1,.28-1.24.52-2.67.32-3.93s-.77-2.44-1.21-3.68l-1.73,1c.81.5,1.9,2.08,2.95,1.98.35-.03,1.53-.72,1.72-.99.58-.83-.58-2.63-1-3.34-.3-.52-.62-1.02-.97-1.5-.21-.28-.6-.67-.62-1.03l-1.73,1c.93.6,2.08,1.91,3.34,1.59.53-.14,1.73-.78,1.97-1.29.31-.65-.08-1.73-.22-2.39-.16-.77-.38-1.54-.61-2.29-.25-.8-.49-1.63-.82-2.4-.21-.5-.92-1.16-.96-1.67l-1.73,1c1.18,1.14,1.93,2.7,2.81,4.06.97,1.5,2.02,2.91,2.83,4.52,1.64,3.24,3.34,6.46,4.33,9.97s1.93,7.26,1.82,10.83c-.06,1.82-.51,3.58-1.14,5.29-.53,1.46-1.47,3.1-1.59,4.66.03-.36,1.7-.61,1.73-1,.12-1.49,1-3.06,1.51-4.45.63-1.71,1.12-3.46,1.21-5.28.18-3.63-.83-7.58-1.81-11.05s-2.64-6.58-4.23-9.77c-.8-1.61-1.83-3.04-2.81-4.54-.93-1.41-1.7-3.05-2.93-4.24-.02-.02-1.74.92-1.73,1,.04.49.68,1.04.89,1.52.36.82.61,1.7.88,2.56.39,1.26,1.38,3.66.71,4.91l1.61-.94c-1.01.55-2.64-1.13-3.33-1.58-.07-.04-1.74.94-1.73,1,.04.65,1.16,1.81,1.48,2.35.42.71,1.73,2.67,1.12,3.51l1.73-1c-1.08.06-2.12-1.46-2.95-1.98-.1-.06-1.73,1.01-1.73,1,.44,1.24.99,2.36,1.21,3.68s-.03,2.69-.32,3.93l1.73-1c-.86-.34-1.38-2.22-1.85-2.92.02.03-1.75.89-1.73,1,.14,1.12.48,2.25.67,3.37s.38,2.21.65,3.3c.55,2.23,1.44,4.34,3.08,5.99s3.5,3.19,5.19,4.85c.77.75,1.54,1.55,1.87,2.6.35,1.11.16,2.29-.08,3.4.1-.43,1.63-.55,1.73-1h0Z"/><path class="cls-9" d="m11.14,53.53c.99,1.02,1.75,2.19,2.41,3.44.43.83.82,1.67,1.23,2.51.4.81.83,1.6,1.16,2.45.89,2.3,1.85,4.58,2.82,6.85.92,2.15,1.82,4.28,2.48,6.53.48,1.63.76,3.31.98,5,.2,1.55.38,3.1.29,4.66-.1,1.77-.58,3.42-1.2,5.07-.26.68-.43,1.4-.7,2.08-.04.1-.27.42-.08.48.06-.33.14-.48.34-.76.25-.35.41-.79.61-1.18.89-1.73,2.1-3.22,3.23-4.8,1.04-1.46,1.94-3.01,2.96-4.49.97-1.4,1.95-2.79,2.8-4.27,1-1.74,3.28-5.15,3.5-7.46-.18-.15-1.91,3.63-2.04,3.8-.37.47-.99.91-1.35,1.37.13-.75.34-1.47.56-2.19.16-.52.36-1.02.5-1.54.19-.73.26-1.5.36-2.25.2-1.49.07-3.01-.11-4.49-.1-.8-.36-1.56-.48-2.35.14.93-.11,2.02-.34,2.91-.14.53-.26,1.07-.43,1.6-.05.15-.15.73-.3.73-.4-.82-.53-1.74-.8-2.61-.17-.55-.37-1.11-.67-1.61-.26-.44-.61-.82-.94-1.21-.38-.46-.72-.92-1.14-1.35-.17-.17-.42-.62-.71-.53.16.44.39.85.53,1.3.15.48.23,1.05.29,1.55s.08,1.03.02,1.54c-.02.21,0,.54-.17.69-.44-.49-.63-1.21-.86-1.82-.39-1.07-.8-2.08-1.43-3.04-1.01-1.54-2.53-2.54-3.73-3.9.18.34.31.7.42,1.07.15.46.39.97.45,1.45s0,.97-.04,1.46c-.03.38,0,.84-.11,1.21-.25-.05-.27-.4-.35-.6-.12-.32-.28-.64-.43-.95-.35-.72-.75-1.42-1.25-2.05-.52-.65-1.06-1.13-1.79-1.52-.83-.45-1.68-.91-2.56-1.27-.56-.22-1.09-.49-1.67-.62-.38-.09-.79-.23-1.11-.47-.12-.1-.14-.14-.27-.18-.07-.02-.24,0-.31,0-.22-.04-.4-.18-.59-.29"/><path class="cls-9" d="m10.28,54.03c2.27,2.43,3.75,5.8,4.97,8.86,1.39,3.51,3,6.94,4.31,10.48,1.23,3.33,1.94,6.9,2.08,10.45.07,1.72-.15,3.4-.64,5.05-.25.84-.58,1.65-.85,2.49-.11.34-.68,1.42-.49,1.73-.03-.05,1.69-.84,1.73-1,.17-.67.63-1.31.95-1.94.47-.93,1.05-1.79,1.65-2.64,1.21-1.7,2.41-3.39,3.54-5.15,1.95-3.03,4.03-5.94,5.74-9.12.2-.38,2-3.87,1.53-4.11-.18-.09-1.63.88-1.79,1.04-.63.62-.97,1.75-1.35,2.53-.18.37-.33.78-.55,1.13-.36.57-.96.97-1.41,1.48l1.73-1c.43-2.2,1.27-4.19,1.47-6.44s-.27-4.25-.64-6.4c.04.23-1.76.73-1.73,1,.1,1.07-.13,2.08-.39,3.11-.14.56-.23,1.72-.68,2.13l1.73-1c-.63-1.43-.7-3.05-1.57-4.38-.4-.61-.92-1.18-1.39-1.74-.31-.37-.77-1.14-1.29-1.19-.17-.02-1.73,1.01-1.73,1,.53,1.33,1.47,3.67.66,5.07l1.73-1c-1.08-1.4-1.29-3.37-2.28-4.87s-2.52-2.57-3.73-3.9c-.05-.05-1.73,1.01-1.73,1,.8,1.71,1.05,3.33.72,5.2l1.73-1c-.32-.23-.39-.72-.56-1.08-.24-.52-.5-1.04-.8-1.53-.68-1.13-1.52-1.99-2.68-2.63s-2.48-1.3-3.81-1.71c-.54-.17-.95-.42-1.45-.64-.35-.16-.67-.15-1.03-.37-.28-.17-1.47,1.16-1.73,1,.33.2.65.2.97.34.45.2.81.46,1.3.62,1.4.44,2.74,1.06,4.02,1.77,1.09.61,1.91,1.4,2.57,2.46.31.49.58,1.01.83,1.54.19.4.27.98.63,1.24.05.04,1.71-.89,1.73-1,.34-1.87.08-3.49-.72-5.2l-1.73,1c1.21,1.33,2.73,2.39,3.73,3.9s1.2,3.46,2.28,4.87c0,0,1.65-.86,1.73-1,.81-1.4-.14-3.74-.66-5.07l-1.73,1c.53.05.98.81,1.29,1.19.47.56.99,1.13,1.39,1.74.87,1.33.95,2.95,1.57,4.38-.02-.04,1.6-.87,1.73-1,.45-.41.54-1.57.68-2.13.26-1.04.48-2.04.39-3.11l-1.73,1c.37,2.15.83,4.2.64,6.4s-1.04,4.25-1.47,6.44c.07-.34,1.47-.71,1.73-1,.45-.5,1.05-.91,1.41-1.48.24-.38.41-.83.61-1.24.34-.7.72-1.94,1.34-2.46l-1.73,1c.15,0-.54,2.08-.64,2.3-.4.95-.9,1.86-1.41,2.76-1.12,1.95-2.29,3.87-3.56,5.72-1.45,2.1-2.76,4.29-4.27,6.34-.74,1.01-1.5,2.03-2.14,3.11-.48.81-1.15,1.81-1.38,2.72l1.73-1c-.19-.32.38-1.37.49-1.73.27-.83.6-1.65.85-2.49.47-1.57.7-3.17.65-4.82-.1-3.62-.84-7.29-2.09-10.69s-2.87-6.82-4.22-10.25c-1.23-3.13-2.74-6.6-5.06-9.09-.11-.12-1.64,1.1-1.73,1h0Z"/><path class="cls-3" d="m119.91,105.65c.07.84.75,1.44,1.61,1.44.91,0,1.64-.7,1.64-1.61v-12.26h3.61v12.26c0,2.89-2.36,5.22-5.24,5.22-2.52,0-4.64-1.8-5.12-4.18l3.51-.87Z"/><path class="cls-3" d="m133.74,93.22v10.1c0,2,1.61,3.61,3.61,3.61s3.61-1.61,3.61-3.61v-10.1h3.61v10.1c0,3.99-3.22,7.21-7.21,7.21s-7.21-3.22-7.21-7.21v-10.1h3.61Z"/><path class="cls-3" d="m151.56,97.14v13.03h-3.61v-16.95h5.46l6.81,12.58v-12.58h3.61v16.95h-5.19l-7.07-13.03Z"/><path class="cls-3" d="m167.56,93.22h11.54v3.61h-7.94v2.89h7.58v3.61h-7.58v3.25h8.3v3.61h-11.9v-16.95Z"/></svg>