<?xml version="1.0" encoding="UTF-8"?><svg id="Layer_2" xmlns="http://www.w3.org/2000/svg" width="370" height="192" xmlns:xlink="http://www.w3.org/1999/xlink" viewBox="0 0 370 192"><defs><style>.cls-1{fill:url(#linear-gradient);}.cls-1,.cls-2,.cls-3,.cls-4,.cls-5,.cls-6,.cls-7,.cls-8,.cls-9,.cls-10{stroke-width:0px;}.cls-2{fill:url(#linear-gradient-6);}.cls-4{fill:url(#linear-gradient-5);}.cls-5{fill:url(#linear-gradient-2);}.cls-6{fill:#946747;}.cls-7{fill:url(#linear-gradient-3);}.cls-8{fill:#ffefe1;}.cls-9{fill:#db8344;}.cls-10{fill:url(#linear-gradient-4);}</style><linearGradient id="linear-gradient" x1="443.73" y1="287.03" x2="469.12" y2="378.94" gradientTransform="translate(-404.05 439.3) rotate(-73.45)" gradientUnits="userSpaceOnUse"><stop offset="0" stop-color="#369"/><stop offset="1" stop-color="#69c"/></linearGradient><linearGradient id="linear-gradient-2" x1="494.54" y1="407.43" x2="483.56" y2="391.48" gradientTransform="translate(-312.9 608.11) rotate(-91.64)" gradientUnits="userSpaceOnUse"><stop offset="0" stop-color="#e0a275"/><stop offset="1" stop-color="#ed8713"/></linearGradient><linearGradient id="linear-gradient-3" x1="469.58" y1="388.47" x2="460.59" y2="375.42" xlink:href="#linear-gradient-2"/><linearGradient id="linear-gradient-4" x1="479.99" y1="368.9" x2="477.22" y2="351.1" xlink:href="#linear-gradient-2"/><linearGradient id="linear-gradient-5" x1="509.05" y1="399.1" x2="507.33" y2="371.48" gradientTransform="translate(-312.9 608.11) rotate(-91.64)" gradientUnits="userSpaceOnUse"><stop offset="0" stop-color="#e0a275"/><stop offset="1" stop-color="#ed8713"/></linearGradient><linearGradient id="linear-gradient-6" x1="527.68" y1="405.91" x2="535.29" y2="389.2" xlink:href="#linear-gradient-5"/></defs><path class="cls-1" d="m10.71,192l359.29-86.68L15.48,0s-31.4,105.68-4.77,192Z"/><path class="cls-8" d="m101.37,169.8l268.63-64.47L104.83,26.55s-23.42,78.83-3.46,143.25Z"/><path class="cls-9" d="m37.59,142.64c-1.21.9-2.32,1.63-3.77,2.05-1.36.4-2.73.43-4.13.36-1.83-.1-3.76-.37-5.47-1.07s-3.02-2.19-4.39-3.35c-2.57-2.18-4.95-4.47-6.79-7.32-1.03-1.58-1.59-3.29-2.11-5.08-.72-2.46-1.25-4.98-1.84-7.47-.49-2.07-.84-4.08-.97-6.2-.15-2.46.13-4.84.44-7.27.63-4.97,1.8-9.75,3.68-14.41,1.56-3.87,4.22-7.18,7.51-9.74,1.97-1.54,4.8-2.87,7.33-2.82,1.32.03,2.63.23,3.9.58,1.9.52,3.37,1.73,4.64,3.2,2.84,3.28,5.1,7.21,6.59,11.26,1.1,3.01,2.53,6.07,2.99,9.27s.49,6.2-.06,9.4c-.32,1.89-.59,3.79-.91,5.68-.36,2.11-.83,4.19-1.14,6.3-.63,4.29-1.54,8.67-2.86,12.81-.56,1.74-1.83,4.03-3.46,5.03-1.16.71-2.52.79-3.76,1.26"/><path class="cls-9" d="m37.08,141.78c-2.31,1.7-4.51,2.43-7.4,2.27-2.64-.14-5.18-.64-7.23-2.41-3.81-3.29-8.16-6.77-9.93-11.65-.92-2.55-1.5-5.22-2.11-7.86s-1.23-5.32-1.34-8.07c-.22-5.48.95-11.3,2.55-16.52s3.74-9.35,7.72-12.81,9.58-4.96,13.91-1.55c1.93,1.52,3.43,3.74,4.71,5.8,1.39,2.24,2.49,4.6,3.41,7.06.98,2.61,2.12,5.18,2.67,7.93s.61,5.62.3,8.38c-.36,3.11-.93,6.25-1.52,9.32s-1,6.1-1.61,9.13-1.16,6.07-2.39,8.79c-.5,1.1-1.17,2.22-2.1,3.01-1.12.96-2.66,1.06-4.01,1.53-1.21.42-.69,2.36.53,1.93s2.5-.58,3.64-1.17c1.03-.53,1.84-1.39,2.52-2.32,1.64-2.27,2.3-5.11,2.96-7.79.75-3.04,1.26-6.12,1.76-9.21s1.14-6.26,1.64-9.41.9-6.06.67-9.19-1.02-5.97-2.13-8.87c-2.08-5.42-4.28-10.68-8.26-15.03-3.6-3.93-9.37-4.76-14.12-2.5s-8.41,6.75-10.42,11.4c-2.42,5.6-3.65,11.66-4.26,17.7s.9,12.55,2.63,18.56c.89,3.1,2.18,5.73,4.26,8.21s4.5,4.52,6.89,6.58,5.14,2.75,8.22,2.97c3.36.24,6.12-.53,8.83-2.52,1.03-.75.03-2.49-1.01-1.73h0Z"/><path class="cls-9" d="m63.94,130.68c.44,1.84.92,3.65.7,5.56-.17,1.5-.51,3.13-1.09,4.53-.53,1.29-1.33,2.38-2.31,3.36-1.25,1.25-2.69,1.7-4.41,1.97s-3.8.2-5.38-.81c-1.44-.92-2.27-2.27-3.04-3.78-1.03-2.02-1.8-4.12-1.97-6.39s.12-4.37.62-6.49c.7-2.99,2.32-6.4,5.32-7.69,1-.43,2.28-.6,3.36-.37,1.52.32,2.85,1.4,3.94,2.45,1.92,1.84,3.45,4.43,4.13,7.01.11.41.26.8.39,1.19.09.27-.24,1.59.04,1.76"/><path class="cls-9" d="m62.97,130.95c.6,2.53.9,4.76.3,7.33-.51,2.18-1.55,4.42-3.44,5.74-1.68,1.17-4.33,1.51-6.3,1.06-2.22-.51-3.42-2.36-4.38-4.27-2.17-4.34-2.24-9.14-.63-13.7,1.31-3.72,4.98-7.44,8.98-4.62,2.01,1.42,3.58,3.51,4.59,5.73.43.95,1.02,2.27,1.1,3.3.05.66-.28,1.36.17,1.96.77,1.01,2.5.02,1.73-1.01-.04-.05.11-.73.11-.95,0-.5-.16-.89-.31-1.37-.4-1.27-.8-2.5-1.42-3.69-1.19-2.28-2.95-4.39-5.1-5.82-4.57-3.03-9.36.34-11.27,4.71-2.25,5.13-2.27,11,.15,16.05,1.06,2.22,2.44,4.36,4.83,5.3s5.3.63,7.58-.33c2.53-1.07,4.3-3.59,5.16-6.12.48-1.43.79-2.98.88-4.49.1-1.81-.36-3.6-.78-5.35-.3-1.25-2.23-.72-1.93.53h0Z"/><path class="cls-9" d="m77.82,111.7c.09,2.36.08,4.75-.49,7.06-.44,1.76-1.33,3.83-2.91,4.86-.74.48-1.68.92-2.58.89-1.04-.03-2.08-.43-2.99-.92-.82-.45-1.58-.99-2.37-1.49-.85-.54-1.68-1.03-2.37-1.76-1.88-2-3.43-4.79-3.91-7.52-.12-.68-.22-1.38-.21-2.07.01-.74.17-1.54.23-2.28.09-1.03.34-2.34.98-3.19,1.47-1.97,3.48-3.65,5.68-4.76,1.03-.52,2.16-.95,3.27-1.25,1.62-.43,2.93-.32,4.36.58,1.66,1.04,2.47,2.69,2.99,4.54.46,1.63.8,3.37.74,5.07-.05,1.29-.11,2.53-.07,3.83"/><path class="cls-9" d="m76.82,111.7c.12,3.55.32,9.38-3.41,11.35-2.25,1.19-4.38-.49-6.23-1.69s-3.26-2.52-4.39-4.47c-1-1.73-1.71-3.72-1.8-5.74-.08-1.91.17-4.32,1.42-5.83,1.32-1.59,2.95-2.91,4.78-3.87,1.64-.86,3.94-1.89,5.81-1.25,2.25.77,3.16,2.98,3.7,5.1.68,2.67.4,5.25.45,7.96.03,1.29,2.03,1.29,2,0-.06-2.98.19-5.79-.58-8.72-.58-2.21-1.57-4.32-3.57-5.58-4.25-2.69-10.15.92-13.17,4.02-.76.78-1.53,1.64-1.97,2.64-.49,1.12-.58,2.31-.72,3.51-.31,2.62.14,5.08,1.25,7.47,1.01,2.19,2.51,4.28,4.51,5.67s4.65,3.42,7.32,3.22,4.47-2.3,5.42-4.53c1.24-2.92,1.28-6.15,1.18-9.27-.04-1.28-2.04-1.29-2,0h0Z"/><path class="cls-9" d="m63.97,79.9c-.25-2.14-.5-4.3-1.04-6.39-.46-1.76-1.04-3.48-1.65-5.19-1.17-3.29-3.24-6.42-6.32-8.24-1.24-.73-2.79-1.6-4.28-1.44-1.31.14-2.34.77-3.33,1.62-2.64,2.28-4.01,5.77-5.13,9-1.06,3.04-1.46,6.08-1.82,9.27-.34,3-.56,6.06-.29,9.08.23,2.61.49,5.23.99,7.8.39,2.02,1.04,3.98,1.69,5.93.61,1.85,1.47,3.46,2.94,4.76.72.64,1.46,1.24,2.31,1.69.91.48,1.88.78,2.87,1.06,2.15.61,4.19.52,6.21-.46,2.32-1.12,4.36-2.93,5.62-5.2,1.51-2.72,1.66-5.88,1.83-8.92.1-1.91.13-3.85.09-5.76-.03-1.48-.24-2.93-.36-4.4-.1-1.28-.04-2.57-.27-3.84-.08-.47-.17-.93-.3-1.39-.06-.22-.17-.42-.14-.65"/><path class="cls-9" d="m64.97,79.9c-.94-8.02-3.03-17.87-11.15-21.57s-12.68,9.39-13.73,15.24c-1.71,9.45-1.41,19.3,1.86,28.4,1.36,3.79,4.21,6.48,8.06,7.66,4.09,1.24,7.9.17,11.02-2.7,3.54-3.24,4.26-7.67,4.51-12.25.15-2.79.23-5.6-.04-8.38-.13-1.38-.23-2.74-.3-4.12s-.48-2.62-.62-3.95-2.14-1.28-2,0c.09.78.35,1.52.48,2.3.19,1.18.14,2.38.23,3.57.16,2.12.39,4.2.38,6.32,0,3.71.14,8.05-1.42,11.51-1.42,3.16-4.82,6.13-8.4,6.29s-7.49-1.94-9.24-5.12c-.91-1.66-1.42-3.6-1.94-5.42-.6-2.1-.95-4.24-1.2-6.4-.49-4.21-.57-8.29-.1-12.51.43-3.88,1.13-7.58,2.54-11.23,1.11-2.87,3.09-7.13,6.47-7.83,2-.42,4.35,1.21,5.78,2.48s2.58,2.92,3.43,4.66c1.97,4.06,2.86,8.61,3.38,13.06.15,1.26,2.15,1.28,2,0h0Z"/><path class="cls-9" d="m77.04,76.15c-.95,2.33-2.09,4.91-4.93,5.21-.99.11-2.02.02-2.98-.22-1.18-.3-2.13-1.05-2.98-1.88-1.67-1.63-3.03-3.28-4.05-5.38s-1.58-4.17-1.84-6.42c-.4-3.47-.3-6.9.66-10.27.59-2.07,1.45-3.96,2.77-5.66,1.12-1.45,2.51-3.06,4.12-3.98,1.71-.98,3.94-1.8,5.92-1.45,2.86.5,4.45,2.85,5.74,5.22.97,1.77,1.9,3.44,2.27,5.44.5,2.7.24,5.28.04,7.99-.17,2.3-.36,4.58-1.07,6.79-.56,1.77-1.25,3.33-2.23,4.91s-1.8,3.68-3.51,4.67c-.49.28-1.07.62-1.65.64-.9.04-1.88-.28-2.73-.53"/><path class="cls-9" d="m76.07,75.88c-1.02,2.49-2.22,4.68-5.25,4.51s-5.31-2.87-6.87-5.27c-3.51-5.4-3.78-13.14-1.6-19.09,1.03-2.82,3.08-5.76,5.62-7.42s5.74-2.38,8.14-.26c.9.8,1.56,1.82,2.15,2.85.8,1.39,1.63,2.84,2.14,4.37,1.06,3.22.58,6.79.31,10.09-.3,3.71-1.19,7.05-3.08,10.27-.68,1.16-1.26,2.47-2.16,3.48-.48.54-1.13,1.04-1.83,1.25-.89.26-1.91-.15-2.77-.41-1.24-.36-1.77,1.57-.53,1.93,1.63.48,3.11.85,4.69.04,1.39-.7,2.34-1.86,3.13-3.17,1.91-3.2,3.61-6.44,4.2-10.17s1.07-8.25.4-12.17c-.32-1.85-1.12-3.53-2-5.17-.78-1.45-1.6-2.93-2.73-4.14-2.44-2.6-5.81-2.89-9.01-1.57s-5.9,4.2-7.55,7.3c-1.89,3.56-2.54,7.72-2.4,11.71s.95,7.78,3.06,11.1,5.02,6.44,9.13,6.44c3.78,0,5.47-2.86,6.75-5.99.49-1.19-1.45-1.71-1.93-.53h0Z"/><ellipse class="cls-6" cx="33.13" cy="114.29" rx="9.17" ry="27.36" transform="translate(-11.93 4.16) rotate(-6.09)"/><ellipse class="cls-6" cx="59.77" cy="134.1" rx="5.1" ry="9.17" transform="translate(-13.88 7.09) rotate(-6.09)"/><ellipse class="cls-6" cx="56.05" cy="85.11" rx="6.54" ry="20.82" transform="translate(-8.71 6.42) rotate(-6.09)"/><ellipse class="cls-6" cx="74.62" cy="66.06" rx="14.61" ry="6.54" transform="translate(1.22 133.46) rotate(-84.08)"/><ellipse class="cls-6" cx="73.45" cy="111.48" rx="4.29" ry="11.82" transform="translate(-17.54 13.78) rotate(-9.58)"/><path class="cls-5" d="m71.19,112.23c-.23-.74-.26-1.48-.08-2.22.26-.51.6-.96,1.03-1.36.81-.81,1.82-1.47,2.72-2.2,2.41-1.96,4.78-4.06,6.52-6.52,1.49-2.11,2.74-4.48,3.7-6.8.37-.89.67-1.82,1.25-2.63.39-.55,1.01-1.49,1.75-1.73.97.41,1.15,1.94,1.31,2.75.4,2.08-.2,4.29-.8,6.32-.4,1.36-1.05,2.62-1.79,3.86-.68,1.13-1.31,2.35-2.15,3.39-1.33,1.64-2.93,3.25-4.6,4.63-1.23,1.02-2.43,2.07-3.93,2.78-.92.43-1.93.82-2.98.52-.87-.25-1.75-.92-1.77-1.73"/><path class="cls-7" d="m67.31,123.47c-.26-.14-.52-.28-.75-.45-.11-.09-.23-.17-.34-.25-.21.06-.43,0-.59-.17-.08-.08-.15-.16-.22-.24-.19-.11-.35-.26-.45-.48-.17-.1-.33-.21-.46-.35-.1-.07-.19-.15-.26-.25-.02-.02-.04-.04-.07-.06-.59,1.21-1.27,2.4-2.03,3.51-1.41,2.05-3.32,3.79-5.27,5.41-.73.61-1.54,1.16-2.2,1.83-.35.33-.63.71-.83,1.13-.15.62-.13,1.23.06,1.84l.15-.79c.01.68.72,1.23,1.43,1.44.85.25,1.66-.07,2.41-.43,1.21-.59,2.18-1.46,3.17-2.31,1.34-1.14,2.64-2.48,3.71-3.84.68-.86,1.19-1.87,1.74-2.81.47-.81.89-1.65,1.21-2.52-.14-.06-.28-.15-.41-.22Z"/><path class="cls-10" d="m58.82,106.74c-.36.3-.69.6-1.1.82-.77.4-1.51.8-2.36,1.03-1.1.3-2.19.61-3.35.64-.47.01-.91-.05-1.38-.12-.27-.04-.52-.06-.78-.13-.04-.01-.09-.03-.13-.04-.65.3-1.31.58-1.97.86-3.36,1.41-6.94,1.37-10.42,2.15-1.85.41-3.78.75-5.58,1.36-.99.33-2,.71-2.14,1.93-.04.4-.16.79-.11,1.19.06.57.26,1.12.34,1.69.17,1.18.18,2.32.48,3.49.22.86.59,1.64.92,2.45.29.72.76,1.05,1.44,1.35,3.25,1.43,7.24.86,10.54.08,6.76-1.6,12.81-6.1,17.26-11.7-.02-.94.03-1.84-.05-2.78-.11-1.35-.44-3.31-1.47-4.37-.04.03-.09.07-.13.11Z"/><path class="cls-4" d="m54.1,99.39c3.57-.43,7.17-.78,10.73-1.28,2.99-.42,5.81-1.28,8.73-2.02,2.57-.66,5.11-1.25,7.57-2.25,1.85-.76,3.88-1.59,5.55-2.72,2.68-1.81,3.84-5.03,3.33-8.22-.25-1.57-.72-3.1-1-4.67-.1-.57-.14-1.41-.43-1.91-.79.44-1.36,1.2-2.11,1.72-1.48,1.02-3.49,1.62-5.2,2.05-3.8.96-7.58,1.22-11.48,1.45-2.46.15-4.94.21-7.4.27-2,.05-3.91-.15-5.9-.21-1-.03-1.99.02-2.99.04-.66.02-1.35,0-1.94.36-.93.57-1.24,1.45-1.24,2.5.02,2.06.34,4.26.8,6.27s1.05,4,1.93,5.96c.34.76.62,1.82,1.23,2.45"/><path class="cls-2" d="m70.12,67.54c-.66-3.69-.93-7.88.78-11.4.44-.91,2.22.14,2.85.43,2.57,1.19,4.53,3.34,6.3,5.39s3.31,4.15,4.61,6.47c.98,1.76,2.12,3.49,2.91,5.34.5,1.17.99,2.3,1.21,3.55.06.33.09.67.17,1,.05.21.19.46.19.68.02.58-.47,1.09-.94,1.38-.77.49-1.61.91-2.45,1.26-.7.29-1.82.71-2.6.48-1.26-.36-1.99-2.07-2.68-3-1.35-1.82-2.81-3.64-4.4-5.28-1.17-1.21-2.52-2.25-3.76-3.4-.7-.65-1.31-1.4-1.82-2.19-.25-.39-.59-.71-.55-1.2"/><path class="cls-3" d="m115.91,89.7h6.78c4.88,0,8.85,3.75,8.85,8.49s-3.97,8.46-8.85,8.46h-6.78v-16.95Zm3.61,3.61v9.74h3.15c2.89,0,5.24-2.12,5.24-4.86s-2.36-4.88-5.24-4.88h-3.15Z"/><path class="cls-3" d="m134.17,89.7h11.54v3.61h-7.94v2.89h7.58v3.61h-7.58v3.25h8.3v3.61h-11.9v-16.95Z"/><path class="cls-3" d="m160.48,93.93c-.87-.63-1.92-.99-3.08-.99-2.89,0-5.22,2.36-5.22,5.24s2.33,5.22,5.22,5.22c1.32,0,2.55-.48,3.46-1.3l3.01,2.12c-1.61,1.71-3.9,2.79-6.44,2.79-4.88,0-8.83-3.94-8.83-8.83s3.94-8.85,8.83-8.85c2.28,0,4.33.87,5.92,2.28l-2.86,2.31Z"/><path class="cls-3" d="m165.8,89.7h11.54v3.61h-7.94v2.89h7.58v3.61h-7.58v3.25h8.3v3.61h-11.9v-16.95Z"/><path class="cls-3" d="m180.95,89.7h5.15l4.4,12.17,4.45-12.17h5.12v16.95h-3.61v-10.58l-3.85,10.58h-4.21l-3.85-10.51v10.51h-3.61v-16.95Z"/><path class="cls-3" d="m203.66,89.7h7.41c2.89,0,5.24,2.26,5.24,5,0,1.03-.34,1.97-.89,2.77.96,1.01,1.61,2.4,1.61,3.97,0,2.89-2.36,5.22-5.24,5.22h-8.13v-16.95Zm3.61,3.61v2.77h3.8c.91,0,1.64-.6,1.64-1.37s-.72-1.4-1.64-1.4h-3.8Zm4.52,6.37h-4.52v3.37h4.52c.91,0,1.64-.7,1.64-1.61s-.75-1.76-1.64-1.76Z"/><path class="cls-3" d="m219.24,89.7h11.54v3.61h-7.94v2.89h7.58v3.61h-7.58v3.25h8.3v3.61h-11.9v-16.95Z"/><path class="cls-3" d="m241.8,89.7c2.89,0,5.24,2.36,5.24,5.24,0,2.28-1.49,4.23-3.54,4.93l1.49,2.72c.43.79,1.39,1.06,2.21.62l1.73,3.17c-2.55,1.37-5.72.46-7.12-2.07l-2.26-4.16h-1.56v6.49h-3.61v-16.95h7.41Zm-3.8,3.61v3.25h3.8c.91,0,1.63-.7,1.63-1.61s-.72-1.64-1.63-1.64h-3.8Z"/></svg>