<?xml version="1.0" encoding="UTF-8"?><svg id="Layer_2" xmlns="http://www.w3.org/2000/svg" width="370" height="192" xmlns:xlink="http://www.w3.org/1999/xlink" viewBox="0 0 370 192"><defs><style>.cls-1{fill:url(#linear-gradient);}.cls-1,.cls-2,.cls-3,.cls-4,.cls-5{stroke-width:0px;}.cls-3{fill:#418c46;}.cls-4{fill:#ffefe1;}.cls-5{fill:#206925;}</style><linearGradient id="linear-gradient" x1="578.21" y1="290.8" x2="603.61" y2="382.78" gradientTransform="translate(-429.19 583.27) rotate(-75.5)" gradientUnits="userSpaceOnUse"><stop offset="0" stop-color="#669"/><stop offset="1" stop-color="#99c"/></linearGradient></defs><path class="cls-1" d="m13.78,192l356.22-99.46L11.67,0s-27.62,106.71,2.11,192Z"/><path class="cls-4" d="m103.65,166.57l266.35-74.03L101.98,23.32s-20.6,79.6,1.67,143.25Z"/><path class="cls-5" d="m87.02,89.75c-16.02,4.95-33.22,5.82-49.65,2.49-4.65-.94-9.22-2.22-13.68-3.81-1.22-.43-1.74,1.5-.53,1.93,16,5.69,33.35,7.24,50.12,4.63,4.83-.75,9.6-1.86,14.27-3.31,1.23-.38.7-2.31-.53-1.93h0Z"/><path class="cls-5" d="m24.25,89c-.18-.78-.46-1.42-.85-2.1-.22-.39-.4-.82-.61-1.22-.51-.98-1.26-1.86-2.07-2.61-.43-.4-.95-.69-1.43-1.01-.28-.19-.54-.39-.8-.6-.07-.1-.16-.16-.27-.18.23.58.64,1.07.86,1.65.17.47.14.88.11,1.35-.12-.03-.2-.15-.28-.23-.26-.26-.51-.54-.77-.79-.55-.54-1.07-1.14-1.66-1.63-.54-.45-1.13-.86-1.75-1.19-.23-.12-.46-.22-.7-.32-.09-.04-.2-.11-.3-.1.26.51.68.93.86,1.49.1.32.17.65.25.97.04.17.16.44,0,.58-.32-.11-.57-.37-.84-.58-.57-.46-1.13-.91-1.77-1.26-.42-.23-.84-.42-1.3-.54-.18-.05-.35-.09-.53-.16-.08.14.15.36.23.47.19.28.31.54.39.86.03.11.19.44.05.55-.16.14-.54.04-.72,0-.76-.11-1.48-.19-2.22-.42-.38-.12-.73-.28-1.08-.46-.12-.06-.35-.23-.49-.12,0,.11.13.19.19.26.14.15.26.29.44.41.48.31.94.61,1.38.96s.95.7,1.41,1.07c.17.13.36.26.49.42.09.11.13.22.2.33.16.25.59.4.23.66-.25.19-.64.34-.94.43-.26.08-.88.02-1.08.24.44.13.9.06,1.36.04.27-.01.56-.05.82-.12.24-.07.43-.19.7-.2.23,0,.46,0,.68.05.29.06.57.05.81.27.22.2.48.39.48.72,0,.47-.53.8-.87,1.04-.26.19-.54.36-.86.44-.18.04-.37.03-.54.1.19.19.69.16.93.2.52.09,1.05.14,1.58.23.56.09,1.06.21,1.63.11.45-.08.88-.31,1.34-.26.32.04.78.12.95.42.25.42.01.91-.34,1.17-.42.31-1.02.47-1.51.64-.22.08-.57.1-.72.29-.02.33,1.04.33,1.24.34.65.05,1.26-.01,1.9-.1,1.5-.2,3.11-.12,4.47-.88.21-.12.45-.21.63-.37.15-.14.18-.26.26-.44.18-.41.16-.67-.14-1.03"/><path class="cls-5" d="m25.55,88.25c-.2-.8-.53-1.5-.92-2.22-.41-.77-.75-1.55-1.28-2.25s-1.11-1.33-1.79-1.83c-.31-.23-.65-.43-.98-.65-.34-.23-.69-.63-1.07-.78-.22-.09-2.57,1.55-2.6,1.5.22.49.53.92.75,1.41.24.53.25,1.03.22,1.6l2.6-1.5c-.95-.59-1.66-1.72-2.5-2.47-.79-.71-1.9-1.58-2.97-1.8-.28-.06-2.55,1.58-2.6,1.5.28.5.66.94.86,1.49.15.41.44,1.14.26,1.56l2.6-1.5c-.76-.35-1.37-1.06-2.07-1.52-.75-.49-1.52-.74-2.36-1.02-.18-.06-2.6,1.39-2.6,1.5.02.59.96,1.23.67,1.89l2.6-1.5c-.59.24-1.71-.11-2.31-.25-.41-.09-.8-.21-1.18-.37-.31-.13-.67-.44-1.02-.37-.27.06-2.6,1.49-2.6,1.5.31.67,1.22,1.03,1.79,1.46.67.5,1.48.98,2.05,1.59.2.21.32.47.54.67.43.39-.75.74.99-.25.95-.46,1.2-.61.76-.46-.06.03-.13.04-.2.05-.75.08-1.18.3-1.83.68-.46.26-.91.52-1.36.79-.25.15-.53.21-.14.31.76.21,1.64-.14,2.36-.3.66-.15,1.76,0,2.11.68s-.48,1.16-.96,1.49l.17-.11-.21.12,2.42-1.39c-.33.15-.64.19-.99.27-.43.1-.93.52-1.31.74-.14.08-1.18.83-1.29.76.41.25,1.09.23,1.56.3.63.09,1.28.25,1.92.28.74.04,2.75-.87,3.04.35.06.26-.06.41-.13.63-.55.68-.03.41,1.57-.8-.13.05-.26.09-.4.14-.39.13-.77.21-1.14.4-.65.33-1.28.73-1.91,1.1-.24.14-.76.3-.55.58.34.46,2.34.17,2.72.12,1.23-.14,2.53-.15,3.73-.49,1.12-.32,2.15-1.01,3.15-1.59.78-.45,2.03-1.11,1.27-2.17-.07-.1-2.55,1.56-2.6,1.5.4.56.23,1.21-.32,1.61l2.55-1.48c-1.56.84-3.14.88-4.86,1.08-.71.08-1.4.13-2.11.09-.21-.01-1.36-.08-.88-.45l-2.6,1.5c.99-.38,1.89-.67,2.82-1.2.62-.35,2.52-1.05,2.28-2.06-.29-1.21-2.3-.32-3.04-.35-.64-.03-1.29-.19-1.92-.28-.47-.07-1.15-.05-1.56-.3l-2.6,1.5c1.11-.25,1.97-.81,2.95-1.39.54-.32,1.6-.78,1.84-1.41.39-1.02-1.19-1.39-1.89-1.31-.52.05-.99.27-1.52.32-.23.02-.45.04-.68.04-.16,0-.87.06-.54-.16l-2.6,1.5c.39-.12.8-.1,1.19-.23s.77-.37,1.14-.58,2.4-1.06,2.24-1.61c-.06-.2-.51-.66-.66-.81-.38-.37-.86-.66-1.28-.98-.46-.34-.9-.7-1.38-1.02-.39-.26-.9-.53-1.1-.98l-2.6,1.5c.35-.07.7.24,1.02.37.48.21.98.34,1.5.43.76.14,1.58.4,2.28.03.52-.28,1.02-.58,1.52-.87.21-.12.73-.3.82-.53.24-.63-.68-1.27-.7-1.83l-2.6,1.5c.84.29,1.61.53,2.36,1.02.71.46,1.31,1.17,2.07,1.52.16.07,1.14-.64,1.31-.74.27-.16,1.16-.47,1.29-.76.18-.42-.11-1.13-.26-1.56-.2-.54-.58-.99-.86-1.49l-2.6,1.5c1.07.22,2.18,1.09,2.97,1.8.83.75,1.55,1.88,2.5,2.47.1.06,2.59-1.37,2.6-1.5.03-.56.01-1.07-.22-1.6-.22-.49-.54-.92-.75-1.41l-2.6,1.5c.34.14.62.47.93.69.33.23.67.43.99.66.73.52,1.37,1.2,1.91,1.91.5.67.83,1.4,1.21,2.13s.77,1.49.98,2.34c-.06-.24,2.67-1.22,2.6-1.5h0Z"/><path class="cls-3" d="m65.24,98.55c1.26,1.67,2.19,3.53,3.1,5.4.46.96.8,1.93,1.13,2.94.4,1.21.82,2.42,1.19,3.65.33,1.09.57,2.22.88,3.32.24.87.52,1.72.57,2.62.02.34-.05,1.05.17,1.35s.41-.15.62-.24c.37.16.39.88.45,1.2.13.69.17,1.32.13,2.02-.05.81-.03,1.65.01,2.46.03.64.07,1.42.36,1.99.35.06.53-.43.7-.66.32.03.51.99.57,1.23.27.96.43,1.97.65,2.94.25,1.08.35,2.21.35,3.31,0,.88-.27,2.02.15,2.82.34-.05.53-.29.73-.57.12-.16.27-.55.48-.59.18.21.19.56.22.82.05.43.07.87.11,1.31.06.79.21,1.58.31,2.37.08.6.26,1.17.35,1.76.06.42.12.84.22,1.26.04.17.29,1.21.51.91.13-.18.18-.74.25-.96.24-.76.51-1.52.74-2.29.51-1.71.85-3.4.89-5.18.04-1.93-.04-3.85-.2-5.77-.28-3.26-.61-6.51-1.38-9.69-.82-3.37-2.23-6.62-3.88-9.66-1.15-2.12-2.35-4.18-4.03-5.92-1.39-1.44-2.86-2.78-4.78-3.44-.31-.11-.62-.2-.93-.3-.2-.06-.44-.35-.65-.31-.01.08.02.15.09.19"/><path class="cls-3" d="m63.94,99.3c2.22,3.01,3.6,6.42,4.77,9.93.57,1.71,1.01,3.43,1.48,5.17.23.86.52,1.71.6,2.61.05.5-.15,1.43.41,1.66.17.07,1.13-.64,1.31-.74.42-.24.91-.46,1.29-.76.14-.11.27-.22.41-.33l-2.6,1.5c.68.57.61,2.21.59,3.01-.03,1.22-.1,2.48.09,3.69.07.43.08.94.54.92.27-.02.7-.39.94-.53.79-.46,1.61-.79,2.1-1.58l-2.6,1.5c.77.38.9,2.63,1.04,3.33.35,1.69.59,3.3.47,5.04-.02.31-.19,1.8.2,1.94.25.09,1.07-.54,1.26-.65.52-.3,1.11-.57,1.59-.93.4-.31.56-.8.96-1.08l-2.6,1.5c.33.63.27,1.43.33,2.13.08.94.21,1.89.38,2.81.16.85.29,1.74.5,2.58.08.32.15.76.41.96.06-.03.12-.06.18-.1.7-.39,1.49-.75,2.14-1.23.58-.43.55-.94.77-1.64.67-2.17,1.35-4.28,1.46-6.57.25-4.85-.32-10.02-1.32-14.77s-2.9-8.85-5.28-12.83c-1.11-1.86-2.42-3.54-4.02-5.01-.77-.71-1.61-1.36-2.54-1.85-.8-.41-1.82-.87-2.68-1.09-.25-.06-2.57,1.56-2.6,1.5l.09.19s2.64-1.42,2.6-1.5l-.09-.19-2.6,1.5c.8.2,1.74.63,2.5,1,.83.41,1.58.94,2.28,1.54,1.52,1.31,2.83,2.83,3.92,4.51,2.23,3.46,4.08,7.32,5.23,11.28,1.21,4.17,1.63,8.61,1.87,12.93.12,2.15.18,4.34-.2,6.47-.18,1.02-.45,2.03-.76,3.02-.28.9-.47,1.93-.84,2.78l2.42-1.4s-.79-3.39-.82-3.58c-.18-.92-.3-1.88-.38-2.81-.06-.69,0-1.5-.33-2.13,0,0-2.38,1.35-2.6,1.5-.38.27-.55.74-.91,1.05l2.6-1.5c-.81.3-.48-1.87-.46-2.37.05-1.07-.04-2.14-.24-3.19s-.4-2.01-.64-2.99c-.12-.47-.2-1.4-.68-1.64-.19-.09-2.46,1.28-2.6,1.5-.15.23-.27.42-.47.61l2.6-1.5c-.75.15-.65-3.27-.63-3.8.02-1,.32-3.1-.55-3.83-.13-.11-2.37,1.32-2.6,1.5-.14.11-.28.22-.41.33l2.6-1.5c-.53-.22-.36-.96-.38-1.44-.05-.9-.33-1.76-.57-2.62-.49-1.8-.95-3.6-1.54-5.38-1.17-3.52-2.55-6.93-4.77-9.93-.08-.11-2.55,1.57-2.6,1.5h0Z"/><path class="cls-3" d="m51.89,100.66c-.38.9-.74,1.7-1.27,2.51-.46.71-.89,1.38-1.42,2.04-1.02,1.26-1.91,2.64-2.76,4.02s-1.55,2.93-2.08,4.48c-.28.81-.56,1.6-.65,2.46-.06.54-.17,1.21.29,1.61.15.13.32.22.51.28.15,0,.28.05.4.14.24.23.11.83.07,1.11-.16,1.3-.59,2.49-1.08,3.69-.19.46-1.94,3.54-1.05,3.71.32-.04.61-.14.89-.31.44-.23.86-.51,1.26-.82.33-.28.65-.57.94-.89.11-.17.26-.25.44-.24.14.23.03.51,0,.76-.05.41-.11.82-.19,1.23-.19,1.06-.28,2.12-.47,3.18s-.36,2-.83,2.95c-.21.42-.44.83-.65,1.26-.18.37-.41.76-.23,1.15.7,0,1.31-.43,1.88-.8.67-.43,1.18-.97,1.75-1.52.27-.24.53-.49.8-.73.18-.19.38-.34.62-.44.39,0,.33,1.15.35,1.39.07.76,0,1.45-.1,2.2-.04.34-.28,1.06-.08,1.34.27.38.96-.05,1.23-.18.51-.23,1.02-.42,1.49-.71.15-.09.59-.51.81-.38.3.17.27,1.01.27,1.28,0,.51-.08,1.02-.09,1.53,0,.64-.03,1.25-.11,1.88-.09.8-.21,1.52-.46,2.28-.1.3-.23.54-.36.83-.1.21-.1.44-.19.66.31.16,1.79-2.48,1.87-2.62.4-.69.77-1.4,1.16-2.1.56-1,1.15-1.99,1.63-3.03.87-1.9,1.62-3.92,1.93-6s.29-4.26,0-6.37-.93-4.18-2.04-6.04c-.59-.99-1.22-2.02-1.91-2.95-.43-.58-.99-1.06-1.4-1.65-.36-.53-.74-1.27-.96-1.88-.32-.87-.49-1.79-.78-2.67-.17-.53-.31-1.06-.38-1.61-.11-.89.13-1.9.26-2.8.07-.46.1-.93.18-1.39.04-.22.2-.51-.01-.7"/><path class="cls-3" d="m50.59,101.41c-1.52,3.57-4.32,6.32-6.12,9.74-.89,1.7-1.76,3.65-2.04,5.55-.11.71-.23,1.58.5,1.99s.88.35.74,1.36c-.2,1.44-.67,2.86-1.31,4.17-.34.69-1.29,2.08-1.07,2.88.24.88,1.96-.42,2.43-.69,1.38-.79,2.54-1.56,3.7-2.67l-2.6,1.5c.54-.11.27.56.22.91-.08.49-.16.98-.24,1.48-.14.91-.24,1.82-.39,2.73-.18,1.02-.39,2.02-.83,2.95-.25.53-1.42,2.18-.68,2.38.44.12,1.24-.48,1.62-.7.66-.37,1.31-.75,1.95-1.14,1.33-.81,2.37-1.92,3.54-2.95l-2.21,1.29.33-.19-.39.21c.55.22.39,1.8.37,2.27-.02.72-.8,2.94.42,2.75.87-.13,1.86-.83,2.63-1.27.83-.47,1.68-.93,2.46-1.49l-2.55,1.48c.72-.36.65.76.65,1.19-.02,1.13-.07,2.29-.2,3.41-.1.93-.28,1.83-.62,2.7-.24.61-.71,1.29.14.82,1.11-.61,2.18-1.08,2.9-2.14s1.34-2.26,1.97-3.4c2.2-4.03,4.03-7.94,4.02-12.63s-1.42-8.61-4.18-12.18c-.71-.92-1.5-1.67-2.02-2.73s-.78-2.31-1.13-3.47c-.32-1.09-.47-2.07-.31-3.2.09-.63.19-1.26.27-1.89.06-.44.29-.98.08-1.39.02.03-2.63,1.43-2.6,1.5.31.63-.15,1.98-.26,2.68-.16,1.04-.25,1.98-.01,3.02.42,1.79.9,3.81,1.97,5.34.58.83,1.33,1.52,1.9,2.37s1.13,1.72,1.62,2.61c1.01,1.83,1.59,3.83,1.86,5.89.57,4.38-.21,8.57-2.14,12.53-.81,1.65-1.75,3.27-2.67,4.86-.47.81-.94,1.85-1.66,2.46l2.55-1.48c-.09.05.4-1.3.46-1.47.21-.61.32-1.25.41-1.89.18-1.32.3-2.77.25-4.1-.04-1.11-.39-1.05-1.21-.58s-1.69.92-2.46,1.49l2.42-1.4c-.49.28-2.16,1.36-2.58.69-.19-.3.06-.9.11-1.23.12-.74.12-1.46.1-2.2-.01-.35.08-1.27-.35-1.39-.14-.04-.59.33-.72.4-.53.3-1.05.6-1.58.91-.71.41-1.28.94-1.87,1.5-.34.33-1.03.76-1.28,1.16l.4-.26c.54-.27.54-.34,0-.21.02-.46.03-.69.23-1.15.51-1.14,1.05-2.1,1.32-3.34.28-1.34.41-2.7.63-4.05.07-.41.42-1.45.22-1.8-.17-.3-.28-.11-.57.02-.75.34-1.66.83-2.31,1.35-.39.31-.77.73-1.13,1.08-.91.87.72-.59.76-.43,0-.03-.38.14-.42.02-.18-.53-.08-.91.13-1.47.59-1.58,1.43-2.97,1.86-4.62.17-.66.65-2.02-.02-2.47-.4-.27-.77-.16-.98-.75-.18-.48-.05-1.12.03-1.61.51-2.87,2.05-5.61,3.63-8.01s3.38-4.43,4.5-7.07c-.1.23-1.07.6-1.31.74-.27.16-1.17.47-1.29.76h0Z"/><path class="cls-3" d="m39.57,94.43c-1.47.02-2.9.12-4.33.44-.73.16-1.46.36-2.16.61-.65.23-1.35.43-1.98.72-.46.21-.87.49-1.3.76-.4.25-.83.45-1.21.73-.28.23-.54.49-.77.78-.32.34-.62.69-.9,1.06-.38.54-.68,1.11-.95,1.71-.66,1.49-1,3.05-1.2,4.66-.09.74-.08,1.48-.17,2.21-.07.54-.12,1.07-.19,1.61-.12.97-.24,1.9-.25,2.88,0,.41-.01.81-.02,1.22,0,.44-.09.86-.1,1.29.14-.19.29-.62.36-.77.42-.87.82-1.75,1.19-2.64.93-2.2,1.95-4.36,3.02-6.5.93-1.87,2-3.7,3.28-5.36.83-1.08,1.9-2.17,3.1-2.84.7-.39,1.34-.87,1.99-1.34.28-.2.58-.37.87-.55.24-.15.44-.38.7-.49.36-.15.75-.23,1.11-.38.22-.09.57-.28.82-.24"/><path class="cls-3" d="m40.87,93.68c-2.99.05-6.18.55-8.86,1.96-.54.29-1.07.61-1.6.91-.3.17-.6.35-.9.52s-1.39.82-.03.04.17-.1-.13.07c-.36.21-.73.42-1.09.63-.44.26-.87.5-1.25.85-2.23,2.05-3.22,5.03-3.55,7.97s-.54,6.13-.74,9.21c0-.13,1.16-.65,1.31-.74.32-.18,1.1-.44,1.29-.76,1.02-1.74,1.68-3.76,2.51-5.6.99-2.18,2-4.36,3.19-6.43,1.07-1.87,2.31-3.77,3.96-5.17,1.41-1.2,3.16-2,4.61-3.15l-.64.38.24-.14-1.96,1.12c.6-.22,1.29-.56,1.93-.61.38-.03.98-.55,1.31-.74s.91-.73,1.29-.76c-1.13.09-2.27.79-3.24,1.35s-1.9,1.15-2.82,1.78c-.2.14-.4.29-.6.43-.13.09-1.3.88-.49.37-.49.31-1.01.57-1.49.9-1.04.71-1.91,1.65-2.67,2.65-1.76,2.32-3.06,4.92-4.3,7.54-1.18,2.48-2.05,5.22-3.44,7.59l2.6-1.5c.08-1.25.08-2.52.19-3.77.12-1.32.34-2.64.44-3.96.19-2.53.58-5.07,1.9-7.3.29-.49.64-.93,1.02-1.35.18-.21.45-.43.61-.66.46-.7-1.54.76-.64.22.58-.34,1.17-.67,1.75-1.01.15-.09.31-.18.46-.28,1.21-.73-1.53.68-.77.51,1.24-.28,2.41-.86,3.66-1.13,1.43-.31,2.88-.41,4.33-.44.35,0,1-.56,1.31-.74s.94-.76,1.29-.76h0Z"/><path class="cls-3" d="m51.33,88.74c-.12-1.47-.09-3.03-.46-4.46-.22-.87-.63-1.74-.98-2.56-.41-.98-.85-1.94-1.26-2.92-.48-1.14-1.09-2.23-1.52-3.4s-.7-2.47-.99-3.72c-.36-1.52-.67-3.04-.54-4.62.1-1.22.32-2.44.61-3.62.2-.81.43-1.63.88-2.34.25.04.03,3.33.03,3.67.01,1.14.33,2.93,1.5,3.44.19-.21.06-.51.04-.76-.06-.65-.05-1.28-.01-1.92.1-1.76.24-3.45.86-5.12.66-1.78,1.6-3.4,2.71-4.94.52-.73,1.11-1.8,1.93-2.23.06.22-.13.48-.2.68-.16.42-.27.87-.35,1.31-.06.35-.1.71-.15,1.06-.02.17-.24.9.02,1.04.55-.35.93-.82,1.28-1.36.67-1.03,1.15-2.18,1.84-3.21.74-1.1,1.64-2.07,2.52-3.06.27-.31,1.01-1.46,1.5-1.23.09.68-.29,1.29-.28,1.96.02.78,1.03.25,1.47.1,1.1-.38,2.2-.44,3.32-.69.82-.18,1.51-.55,2.19-1.02.31-.21.67-.47.93-.74.17-.18.3-.45.45-.65.31-.42.61-.86.9-1.3.15.17-.03.52-.1.74-.25.82-.72,1.57-1.09,2.34-1.66,3.49-3.29,7.01-4.83,10.56-.76,1.75-1.47,3.52-2.24,5.27-.7,1.59-1.53,3.07-2.34,4.6-1.54,2.9-2.91,5.92-4.11,8.98-.64,1.64-1.49,3.24-2.06,4.9-.22.66-.49,1.33-.68,2s-.21,1.38-.45,2.06c-.17.47-.22.9-.23,1.39"/><path class="cls-3" d="m52.63,87.99c-.09-1.19-.09-2.4-.28-3.59s-.67-2.32-1.15-3.44c-.95-2.23-2.15-4.43-2.92-6.73-1.45-4.32-2.29-9.73.09-13.9l-2.6,1.5c.23.2.12.95.12,1.21,0,.68-.05,1.36-.07,2.04-.05,1.38.15,3.13,1.49,3.86.15.08,2.51-1.3,2.6-1.5.22-.5,0-1.18,0-1.72,0-.76.05-1.52.12-2.27.13-1.45.39-2.86.93-4.22.51-1.28,1.18-2.49,1.93-3.64.69-1.05,1.42-2.41,2.5-3.1l-2.55,1.47c-.12.85-.51,1.65-.63,2.53-.06.43-.32,1.19-.04,1.57.04.05,2.39-1.35,2.6-1.5,1.59-1.15,2.16-3.19,3.24-4.75.59-.85,1.27-1.61,1.95-2.38.48-.54.92-1.28,1.54-1.67l-2.55,1.47c.99-.3-.95,2.8,1.02,2.24,1.5-.43,3.18-.56,4.63-1.13,1.15-.45,2.24-1.19,3.29-1.82,1.35-.82,2.13-1.84,3-3.15l-2.6,1.5c.19.69-.5,1.73-.79,2.31-.42.83-.82,1.67-1.22,2.51-.89,1.9-1.77,3.8-2.63,5.71-1.66,3.69-3.06,7.52-4.95,11.1s-3.6,7.12-5.11,10.84c-.72,1.78-1.56,3.49-2.2,5.3-.56,1.57-1.14,3.37-1.22,5.05,0-.12,1.16-.65,1.31-.74.16-.09,1.28-.57,1.29-.76.08-1.68.66-3.47,1.22-5.05.64-1.81,1.49-3.52,2.2-5.3,1.5-3.73,3.23-7.29,5.11-10.84s3.29-7.41,4.95-11.1c.86-1.91,1.74-3.82,2.63-5.71.4-.84.8-1.68,1.22-2.51.3-.6.98-1.62.79-2.31.05.19-2.41,1.21-2.6,1.5-.36.55-.72,1.11-1.11,1.63-.16.22-.34.38-.52.59-.46.34-.43.34.11,0,.5-.26.58-.32.24-.18-.59.05-1.24.3-1.85.4-.7.12-1.39.23-2.07.46-.87.29-1.63.61-1.39-.69.06-.36.47-1.3.03-1.4-.2-.05-.71.34-.83.42-.7.4-1.5.76-2.14,1.26-.74.58-1.36,1.54-1.97,2.24-.9,1.04-1.67,2.12-2.33,3.32s-1.19,2.36-2.29,3.15l2.6-1.5c-.28-.39-.02-1.13.04-1.57.12-.87.51-1.67.63-2.53-.02.12-1.04.58-1.13.64-.47.27-.96.54-1.42.83-.93.59-1.48,1.55-2.1,2.44-.87,1.25-1.65,2.55-2.26,3.95s-.91,2.73-1.06,4.19c-.08.82-.14,1.64-.15,2.46,0,.6.23,1.41,0,1.96l2.6-1.5c-1.34-.73-1.53-2.48-1.49-3.86.02-.64.06-1.28.07-1.91,0-.28.13-1.12-.11-1.34-.07-.06-2.48,1.3-2.6,1.5-2.38,4.17-1.54,9.58-.09,13.9.77,2.3,1.96,4.5,2.92,6.73.48,1.12.96,2.22,1.15,3.44s.19,2.39.28,3.59c-.03-.41,2.63-1.05,2.6-1.5h0Z"/><path class="cls-3" d="m67.84,86.37c.52-.8.88-1.51,1.16-2.42.2-.64.45-1.27.64-1.91.28-.93.33-1.85.49-2.8s.32-1.85.53-2.76c.5-2.12.92-4.25,1.56-6.34.2-.67.34-1.36.53-2.03.06-.2.09-.67.28-.82.31.45.3,1.15.44,1.66.47.16.96-2.17,1.07-2.51.45-1.37,1.21-2.69,1.81-3.99.26-.57.61-1.09.92-1.63s.54-1.08.82-1.62c.37-.72.85-1.39,1.27-2.09.26.05-.07.99-.02,1.18.18-.09.31-.23.39-.43.16-.23.35-.43.57-.61.32-.32.62-.69.89-1.06s.48-.75.83-1.08c.29-.27.57-.53.83-.83.2-.23.44-.39.65-.61s.42-.48.62-.72c.3-.36.59-.73.87-1.11-.15.58-.22,1.15-.31,1.74-.21,1.35-.51,2.7-.77,4.04-1.28,6.44-4.16,12.5-7.6,18.07-.61.99-1.22,1.99-1.94,2.91-.59.75-1.23,1.46-1.82,2.2s-1.17,1.56-1.82,2.3c-.5.57-1.07,1.1-1.47,1.75-.27.43-.69.71-1.05,1.07"/><path class="cls-3" d="m69.14,85.62c1.86-2.97,2.03-6.34,2.77-9.67.39-1.74.77-3.49,1.23-5.22.23-.86.48-1.7.7-2.56.13-.5.18-1.2.49-1.63l-2.6,1.5c.19.38.28,1.59.59,1.64.38.05,1.57-.89,1.91-1.09.97-.57,1.16-1.19,1.45-2.28.44-1.61,1.22-3.11,1.97-4.6.92-1.82,1.95-3.6,3.01-5.34l-2.6,1.5c.25.27-.01.85-.02,1.18,0-.29,2.28-1.26,2.6-1.5,1.09-.81,1.75-2.21,2.68-3.19,1.03-1.08,2.06-2.07,2.97-3.27l-2.6,1.5c-.73,3.23-1.1,6.5-2.06,9.68s-2.24,6.18-3.75,9.1-3.08,5.83-5.11,8.34c-1.88,2.32-3.67,4.92-5.86,6.95.71-.66,1.88-.83,2.6-1.5,2.19-2.03,3.98-4.63,5.86-6.95,2.04-2.51,3.64-5.48,5.11-8.34s2.8-5.96,3.75-9.1,1.33-6.46,2.06-9.68c-.04.18-1.13.63-1.31.74-.36.21-1.04.43-1.29.76-.9,1.2-1.94,2.19-2.97,3.27-.93.98-1.59,2.38-2.68,3.19l2.6-1.5c0-.34.27-.91.02-1.18-.03-.04-2.48,1.3-2.6,1.5-1.4,2.31-2.69,4.69-3.88,7.12-.43.88-.82,1.77-1.08,2.72-.14.53-.29,1.65-.8,1.97l2.55-1.47c-.15,0-.42-1.44-.54-1.66.03.06-2.44,1.28-2.6,1.5-.31.43-.36,1.13-.49,1.63-.22.86-.47,1.71-.7,2.56-.46,1.73-.84,3.48-1.23,5.22-.74,3.33-.91,6.7-2.77,9.67.17-.28,1.01-.57,1.31-.74.33-.19,1.09-.44,1.29-.76h0Z"/><path class="cls-5" d="m44.31,93.75c-1.47-.71-2.83-1.64-3.96-2.82-1.6-1.66-2.98-3.59-4.14-5.57-1.07-1.84-1.87-3.78-2.63-5.76-.94-2.41-1.61-4.86-2.01-7.41-.3-1.93-.52-3.88-.74-5.82-.21-1.82-.22-3.7-.12-5.53.1-1.93.4-3.85.73-5.75.08-.47.17-.93.24-1.4,0-.02.15-.63.06-.73-.46.73-.82,1.51-1.17,2.3s-.63,1.59-.98,2.38c-.48,1.1-1.13,2.14-1.78,3.15-.29.44-.58.89-.9,1.31-.06.08-.15.25-.26.25-.23-.52-.46-1.07-.62-1.62-.1-.35-.22-.74-.27-1.1-.17,1.12-.27,2.24-.13,3.36.18,1.48.35,2.94,1.04,4.29.12.23.23.45.35.68.12.21.19.43.22.67-.06.47-.85.32-1.15.28-.67-.11-1.22-.41-1.66-.92-.18-.2-.33-.51-.54-.67.29.53.52,1.08.78,1.62.38.8.83,1.56,1.26,2.33.47.85.87,1.75,1.42,2.57.33.46.66.91,1,1.35.36.51.72,1.01,1.08,1.52.11.15,1.21,1.3.77,1.6-.4.27-1.32-.13-1.64-.26-1.04-.41-1.93-1.08-2.63-1.93-.22-.29-.44-.58-.66-.87-.03-.16-.11-.25-.23-.26.36.9.81,1.72,1.34,2.54.29.44.6.87.9,1.31.32.46.59.96.91,1.41.62.88,1.29,1.74,2.08,2.46.53.48,1.07.96,1.61,1.44.33.3.77.57.87,1.01-.19.16-.42.2-.67.1-.45-.12-.88-.29-1.3-.5-.61-.28-1.21-.64-1.85-.85.1.32.3.56.52.81.4.45.84.89,1.28,1.31.81.79,1.72,1.44,2.65,2.08.63.44,1.29.83,1.93,1.27.58.4,1.14.81,1.74,1.18,1.09.69,2.18,1.35,3.32,1.93.95.48,1.86.95,2.89,1.25.29.08.57.04.86.1.15.03.38-.02.47.13"/><path class="cls-5" d="m45.61,93c-6.58-3.27-10.21-11.24-12-18.02-.99-3.74-1.53-7.8-1.65-11.66-.07-2.04.04-4.09.32-6.11.13-.96.29-1.91.46-2.86.11-.61.42-1.5.3-2.14.05.27-2.39,1.16-2.6,1.5-.94,1.55-1.49,3.25-2.25,4.89-.38.82-.84,1.6-1.32,2.37-.37.59-.89,1.72-1.49,2.1l2.55-1.47c-.38-.88-.72-1.77-.88-2.72.06.36-2.53,1.06-2.6,1.5-.25,1.74-.19,3.4.12,5.12.13.72.31,1.44.6,2.12.11.26,1.05,1.71.68,1.93l2.42-1.39c-1.45.26-2.21-.7-3.1-1.61-.1-.1-2.58,1.54-2.6,1.5,1.15,2.22,2.14,4.63,3.58,6.69.65.93,1.33,1.88,2.02,2.78.27.35,1.07,1.05.71,1.52l2.6-1.5c-.84.33-2.1-.41-2.77-.85-.51-.33-.97-.74-1.37-1.2-.28-.32-.65-1.09-1.02-1.27-.2-.1-2.58,1.55-2.6,1.5.84,1.99,2.13,3.84,3.39,5.59.64.89,1.36,1.69,2.17,2.42.7.64,1.77,1.28,2.16,2.17l2.6-1.5c-1.07.5-2.79-.87-3.81-1.25-.22-.08-2.58,1.55-2.6,1.5.55,1.27,2,2.39,3.08,3.22,1.33,1.03,2.78,1.9,4.16,2.86,1.28.88,2.63,1.7,4.01,2.41.73.38,1.46.76,2.23,1.05.69.27,1.56.2,2.19.52.14.07,1.15-.65,1.31-.74s1.16-.83,1.29-.76c-.64-.33-1.49-.25-2.19-.52s-1.37-.61-2.03-.96c-1.45-.74-2.86-1.59-4.2-2.51s-2.71-1.76-3.99-2.73c-1.14-.86-2.66-2.01-3.24-3.35l-2.6,1.5c1.02.38,2.74,1.75,3.81,1.25.26-.12,2.63-1.43,2.6-1.5-.39-.89-1.46-1.53-2.16-2.17-.81-.74-1.52-1.53-2.17-2.42-1.26-1.74-2.54-3.6-3.39-5.59l-2.6,1.5c.28.14.47.59.67.84.34.44.7.84,1.13,1.2.69.57,1.52,1.03,2.38,1.27.76.21,1.14-.06,1.79-.43.39-.22,1.72-.7,1.88-1.16s-.55-1.09-.8-1.41c-.7-.9-1.37-1.84-2.02-2.78-1.44-2.05-2.44-4.47-3.58-6.69l-2.6,1.5c.79.81,1.55,1.85,2.87,1.65.43-.07.81-.36,1.19-.58.48-.27,1.28-.54,1.64-.96.4-.45.13-.75-.14-1.3-.39-.8-.7-1.56-.89-2.43-.4-1.85-.47-3.68-.2-5.56l-2.6,1.5c.17.95.5,1.84.88,2.72-.01-.02,2.34-1.33,2.55-1.47.52-.33.88-1.08,1.21-1.59.53-.82,1.05-1.66,1.49-2.54.87-1.75,1.43-3.61,2.44-5.29l-2.6,1.5c.12.64-.19,1.52-.3,2.14-.17.95-.33,1.9-.46,2.86-.26,1.95-.37,3.92-.32,5.88.1,3.93.65,8.09,1.66,11.89,1.8,6.77,5.41,14.74,12,18.02.15.07,1.15-.65,1.31-.74s1.15-.83,1.29-.76h0Z"/><path class="cls-5" d="m41.98,94.66c-1.44.11-2.82.25-4.2.71-1.19.4-2.31.9-3.44,1.45-.58.29-1.19.56-1.75.89-.69.39-1.33.88-1.95,1.36-1.23.96-2.15,2.27-2.88,3.63-.86,1.58-1.68,3.18-2.13,4.93-.27,1.04-.46,2.1-.69,3.14-.19.85-.38,1.69-.52,2.55s-.34,1.75-.51,2.63c-.14.71-.2,1.44-.29,2.15-.06.48-.11.98-.12,1.46,0,.15-.06.72.08.83.37-.25.49-.78.62-1.18s.28-.77.37-1.16c.14-.56.22-1.13.36-1.69.29-1.21.67-2.37,1.22-3.49.2-.42.42-.84.62-1.26.1-.21.23-.68.51-.75.37.64.52,1.4.69,2.11.18.75.32,1.51.51,2.26.15.06.23-.13.3-.23.29-.41.46-.96.55-1.45.2-1.1-.28-2.21-.37-3.31-.07-.9-.12-1.81-.06-2.7.04-.54.13-1.07.26-1.59.06-.22.09-.52.3-.64.55.77.85,1.72,1.26,2.56.22.46.47.91.72,1.35.12.21.24.53.49.59.3-.61-.03-1.49-.16-2.1-.2-.94-.37-1.84-.41-2.8s-.07-1.97.14-2.91c.09-.41.23-.81.43-1.18.06-.22.19-.33.39-.33.42.47.64,1.1.95,1.65.18.32.36.65.54.97.08.25.23.41.47.47.27-.33.33-.78.37-1.2.06-.53.08-1.06.13-1.59.11-1.08.38-2.17,1.03-3.06.46-.63,1.02-1.22,1.64-1.7.44-.34.99-.56,1.52-.73.48-.15.94-.33,1.42-.48.27-.08.54-.12.82-.19.29-.07.55-.17.85-.21.41-.06.83-.09,1.25-.14.18-.02.36-.03.53-.08.07-.02.11-.05.18-.04"/><path class="cls-5" d="m43.28,93.91c-3.35.26-6.28,1.36-9.22,2.95-2.49,1.34-5.07,2.77-6.72,5.14-2.11,3.04-3.02,6.39-3.79,9.95-.36,1.65-.7,3.31-.98,4.97-.14.82-.23,1.66-.31,2.49-.05.49-.2,1.28.03,1.75-.02-.05,2.4-1.31,2.6-1.5,1.1-1.09,1.14-3.29,1.53-4.7.25-.89.56-1.76.94-2.6.25-.54.63-1.84,1.18-2.2l-2.55,1.47c.38.74.56,1.53.74,2.34.1.45.19.91.3,1.36.09.39,0,.58.36.61.34.03,1.35-.76,1.63-.93.39-.22.79-.4,1.07-.74,1.1-1.39.35-3.23.18-4.76-.14-1.27-.46-3.91.5-4.93l-2.6,1.5c.53.81.84,1.7,1.26,2.56.3.62.63,1.56,1.21,1.94.11.07,2.54-1.32,2.6-1.5.23-.73,0-1.39-.16-2.1-.19-.84-.34-1.7-.4-2.57-.1-1.57-.1-3.18.69-4.58l-2.6,1.5c.79-.26,1.43,2.64,2.21,3,.2.09,2.46-1.27,2.6-1.5.57-.93.4-2.14.56-3.19.2-1.32.71-2.43,1.61-3.42.17-.18.42-.36.56-.56.32-.27.18-.21-.44.2-.72.36-.79.42-.19.19.55-.15,1.07-.38,1.62-.53,1.14-.3,2.29-.36,3.43-.61.94-.21,1.67-1.3,2.6-1.5-1.59.35-3.13.5-4.69,1.03-1.35.46-2.54,1.14-3.75,1.88s-2.4,1.86-2.95,3.24c-.59,1.49-.13,3.42-.96,4.77l2.6-1.5c-.95-.44-1.21-3.11-2.21-3-.32.04-.86.48-1.13.64-.41.24-1.1.49-1.44.85-.95,1-.79,3.11-.73,4.36.05.95.2,1.88.41,2.8.16.72.39,1.37.16,2.1l2.6-1.5c-.57-.37-.93-1.34-1.21-1.94-.41-.86-.73-1.76-1.26-2.56,0,0-2.42,1.31-2.6,1.5-.97,1.02-.64,3.67-.5,4.93.19,1.8.8,3.29-.3,4.94l2.6-1.5c-.36.1-.58-1.77-.69-2.21-.17-.74-.34-1.44-.69-2.11,0,0-2.34,1.33-2.55,1.47-.5.32-.71,1.11-.96,1.62-.44.91-.83,1.82-1.12,2.79-.46,1.53-.47,3.97-1.65,5.15l2.6-1.5c-.39-.83.03-2.29.13-3.16.18-1.46.51-2.91.78-4.35.54-2.85,1.06-5.77,2.33-8.4.6-1.23,1.24-2.49,2.06-3.59.42-.57.9-1.1,1.43-1.57.26-.22.53-.43.8-.63.63-.47.8-.18-.38.11.75-.18,1.57-.78,2.28-1.09s1.43-.61,2.17-.85c1.36-.44,2.78-.6,4.2-.71.91-.07,1.71-1.43,2.6-1.5h0Z"/><path class="cls-5" d="m47.93,94.59c1.31-1,2.32-2.11,3.02-3.62.93-1.99,1.57-3.97,1.94-6.14.4-2.36.32-4.68.31-7.06-.01-3.61.58-7.3,1.72-10.71,1.08-3.24,2.24-6.3,4.47-8.93.81-.95,1.6-1.92,2.43-2.84s1.78-1.78,2.71-2.64c1.58-1.46,3.3-2.95,4.24-4.93.46-.97.91-1.97,1.24-2.99.17-.51.17-.98.19-1.51-.13,1.32-.37,2.75-.78,4.01-.63,1.93-1.39,3.79-1.78,5.79-.08.39-.42,1.36.04,1.59.33.16.63-.11.89-.31.36-.29.66-.63.94-1,.12-.16.31-.58.5-.6-.18.64-.46,1.24-.67,1.87-.26.75-.46,1.5-.79,2.23-.77,1.74-2,3.06-3.29,4.43-.21.22-.61.54-.33.86.33.37,1.31.09,1.62-.02.52-.18,1.04-.4,1.54-.63.26-.12.5-.35.81-.33.1.81-.51,1.65-.98,2.27-.54.72-1.2,1.34-1.86,1.96-.83.78-1.71,1.47-2.57,2.21-.21.18-1.29.93-1.12,1.33.19.43,1.35.17,1.63.11.58-.13,1.12-.4,1.69-.53.33-.07.59-.09.85-.32.35-.31.69-1.31,1.14-1.41-.34,1.04-1.01,2.02-1.51,3-.35.68-.71,1.35-1.22,1.93s-1.16,1.02-1.72,1.49c-1.02.86-2.12,1.68-3.07,2.61-.61.59-1.17,1.24-1.78,1.84-.54.53-1.03.98-1.49,1.57-.58.74-1.29,1.35-1.87,2.07-.51.64-.84,1.47-1.23,2.2-.15.28-.23.56-.33.85-.07.22-.2.38-.29.58-.13.28-.17.56-.29.85-.09.22-.27.42-.3.66"/><path class="cls-5" d="m49.23,93.84c2.91-2.29,4.22-5.77,4.88-9.32.75-3.97.15-8.03.68-12.02.49-3.67,1.6-7.32,3.14-10.68s4.24-6.51,7.02-9.1c2.98-2.77,6.37-5.84,6.55-10.23,0,.12-1.17.66-1.31.74-.18.1-1.27.56-1.29.76-.22,2.02-.73,3.86-1.39,5.77-.52,1.51-1.3,3.26-1.36,4.88s1.87.05,2.49-.31c.42-.24.84-.47,1.22-.77.56-.45.88-1.2,1.44-1.6l-2.6,1.5c-.54,1.72-1.09,3.61-2.02,5.16-.47.79-1.05,1.51-1.65,2.2-.39.44-1.25,1.02-1.43,1.57-.5,1.45,2.87-.06,3.17-.19.17-.07.65-.44.81-.33.17.12-.15.93-.19,1.04-.33.78-.94,1.48-1.51,2.09-1.2,1.27-2.56,2.36-3.9,3.47-.24.2-1.09.75-.92,1.17s1.07.22,1.38.16c1.3-.24,2.52-.72,3.66-1.37.53-.3,1.22-.59,1.68-1,.42-.37.6-.95,1-1.35l-2.55,1.48s-.48,1.31-.56,1.46c-.27.49-.55.98-.81,1.48-.42.79-.84,1.56-1.48,2.2-1.55,1.55-3.46,2.7-4.99,4.28s-2.9,3.01-4.3,4.57-2.12,3.7-2.82,5.59c.08-.22,1.09-.61,1.31-.74.25-.15,1.18-.48,1.29-.76.68-1.83,1.4-3.93,2.69-5.44,1.4-1.64,2.93-3.17,4.43-4.72s3.29-2.7,4.85-4.15c.71-.66,1.16-1.48,1.62-2.32.53-.99,1.12-1.94,1.51-3l-.05.02c-.8.39-1.61.86-2.36,1.34-.69.44-.88,1.26-1.55,1.68l2.55-1.47c-.77.24-2.78,1.23-3.61.78-.95-.51,1.24-1.9,1.63-2.23,1.32-1.1,2.69-2.23,3.72-3.62.27-.37,1.11-1.43.87-1.96-.16-.36-.86.18-1.19.37l.39-.21c-.63.29-2.24,1.22-2.98.77-.8-.48,1.02-1.9,1.37-2.3,1.82-2.1,2.72-4.59,3.54-7.21-.06.2-1.1.62-1.31.74-.43.25-.89.48-1.29.76-.65.46-1.04,1.3-1.71,1.81l2.6-1.5c-1.05.5-.85-.65-.71-1.28.23-1.06.51-2.09.85-3.12.76-2.29,1.51-4.46,1.77-6.87l-2.6,1.5c-.15,3.75-2.77,6.75-5.38,9.16-2.83,2.61-5.71,5.46-7.55,8.88-1.71,3.19-2.89,6.85-3.54,10.41-.72,3.99-.25,7.98-.69,11.99s-1.83,8.34-5.12,10.93c.78-.61,1.82-.89,2.6-1.5h0Z"/><path class="cls-5" d="m56.69,95.23c-1.24.87-2.38,1.84-3.41,2.96-1.24,1.36-1.7,3.38-2.08,5.14s.38,3.56.52,5.37c.12,1.49.13,2.98.23,4.47.11,1.71.51,3.33,1.03,4.96,1.02,3.14,2.59,6.11,3.35,9.34.28,1.21.47,2.42.36,3.67-.08,1.01-.22,2.01-.4,3.01-.43,2.42-1.65,4.65-2.91,6.7-.46.74-.93,1.47-1.38,2.22-.18.3-.4.61-.5.94,1.28-.43,2.35-1.27,3.24-2.28,1.23-1.38,2.51-2.41,3.11-4.23.23-.71.4-1.42.7-2.11.19-.45.26-.76.77-.6.59.18.9,1,1.1,1.52.19.49.18,1.15.46,1.59.57-.32.73-1.13.9-1.72.29-.99.49-2.01.43-3.06-.09-1.77-.48-3.47-.89-5.18-.04-.18-.25-.64-.18-.82.16-.4.72-.26,1.03-.13.92.36,1.67,1.12,2.24,1.91.25.35.47.92.82,1.15.65-1.92-.45-4.15-1.4-5.76-.57-.97-1.12-1.87-1.95-2.63-.27-.24-.99-.71-1.1-1.11.68-.38,1.52-.4,2.27-.25.39.08.76.2,1.12.36.18.15.38.22.6.22-.31-.57-.79-.93-1.3-1.31-.77-.58-1.46-1.27-2.2-1.89-1.42-1.19-2.9-2.31-4.34-3.48s-2.85-2.51-3.7-4.28c-.47-.98-.91-1.92-1.29-2.94s-.43-1.95-.59-2.97c-.06-.4.11-.66.12-1.05.02-.59.18-1.09.29-1.67"/><path class="cls-5" d="m55.39,95.98c-1.68,1.2-3.52,2.6-4.42,4.51s-1.39,4.18-1.02,6.28c.22,1.23.46,2.42.53,3.68s.08,2.63.2,3.94c.24,2.51,1.08,4.92,2.01,7.25s1.86,4.46,2.38,6.82.33,4.75-.22,7.08-1.68,4.3-2.89,6.25c-.48.78-1.39,1.77-1.63,2.66-.16.58-.14.23.24.18.08-.01.29-.13.41-.19.38-.18.74-.4,1.11-.61.77-.44,1.56-.87,2.3-1.37.98-.68,1.75-1.59,2.56-2.45.77-.82,1.52-1.65,1.97-2.69.43-.98.5-2.45,1.25-3.26l-2.6,1.5c1.41-.44,1.65,2.37,2,3.09,0-.02,2.39-1.34,2.6-1.5,1.36-1.07,1.43-3.97,1.28-5.5-.11-1.11-.32-2.2-.56-3.29-.12-.52-.68-1.69-.31-2.16l-2.6,1.5c.8-.3,1.74.46,2.28.97.67.63,1,1.54,1.67,2.13.05.05,2.55-1.32,2.6-1.5.55-1.99-.32-3.89-1.3-5.59-.47-.82-.97-1.65-1.61-2.35-.48-.53-1.22-.9-1.54-1.55l-2.6,1.5c.68-.31,1.34-.39,2.08-.28.68.1,1.25.5,1.9.61.3.05,2.53-1.6,2.6-1.5-.57-.89-1.48-1.42-2.26-2.1s-1.53-1.34-2.32-1.98c-1.66-1.34-3.43-2.58-4.93-4.1s-2.4-3.35-3.16-5.3c-.81-2.07-.8-3.99-.34-6.13-.04.17-1.13.63-1.31.74-.21.12-1.24.52-1.29.76-.46,2.14-.47,4.05.34,6.13.76,1.94,1.68,3.8,3.16,5.3s3.28,2.76,4.93,4.1c.79.64,1.55,1.31,2.32,1.98s1.7,1.21,2.26,2.1l2.6-1.5c-.65-.12-1.22-.51-1.9-.61-.74-.11-1.4-.03-2.08.28-.26.12-2.62,1.45-2.6,1.5.29.6.94.93,1.4,1.4.71.73,1.24,1.63,1.75,2.5.98,1.7,1.85,3.61,1.3,5.59l2.6-1.5c-1.08-.95-1.72-3.16-3.51-3.18-.52,0-.97.36-1.4.61-.36.21-1.4.6-1.64.96-.31.48.14,1.42.26,1.93.25,1.08.47,2.18.59,3.29.17,1.6.16,4.62-1.26,5.73l2.6-1.5c-.51-1.04-.62-3.8-2.39-2.88-.66.34-1.67.75-2.19,1.27-.69.7-.79,2.01-1.12,2.91-.71,1.91-2.5,3.73-4.05,5.03-.29.25-1.09.74.14.01l.61-.36c-.36.24-.46.23-.31-.02,0-.39.68-1.19.89-1.52.68-1.11,1.39-2.19,2.01-3.34,1.2-2.22,1.86-4.48,2.14-6.99s-.31-5.09-1.2-7.54-1.98-4.74-2.7-7.21c-.77-2.66-.76-5.31-.96-8.05-.11-1.52-.61-3-.66-4.52-.05-1.18.3-2.41.65-3.53.82-2.65,2.76-4.35,4.96-5.93-.81.58-1.79.92-2.6,1.5h0Z"/><path class="cls-5" d="m58.16,95.22c.48-.06.91-.24,1.3-.53l.79-.52c.85-.54,1.69-1.02,2.45-1.68,1.86-1.6,3.53-3.48,4.97-5.47.7-.97,1.29-2.02,1.91-3.04s1.23-1.99,1.79-3.03c1.12-2.12,2.31-4.22,3.25-6.43.58-1.38,1.08-2.79,1.61-4.19.76-2,1.62-3.91,2.67-5.79.9-1.62,1.81-3.24,2.63-4.9.59-1.18,1.22-2.35,1.77-3.55.62-1.35,1.3-2.73,1.67-4.18.15-.59.27-1.18.35-1.78.03-.21-.04-.79.14-.91.03.51-.14,1.05-.18,1.56-.08.98-.12,2.03-.01,3,.11,1.06.38,2.15.7,3.17.14.45.3.88.49,1.31.08.19.18.5.37.61.24-.19.25-.8.33-1.07.08-.3.11-.66.24-.95.19.47.09,1.08.12,1.57.04.68.11,1.26-.08,1.93-.44,1.58-1.52,3.13-2.52,4.39-.47.6-1.14,1-1.6,1.59-.51.64.34.51.71.42.77-.18,1.56-.4,2.29-.69.39-.16.76-.34,1.13-.55.14-.16.31-.23.51-.21-.06.46-.42.8-.69,1.15-.41.53-.79,1.07-1.25,1.56s-.98,1-1.52,1.4c-.47.35-1.01.49-1.49.81-.25.17-.84.54-.79.9.07.49,1.11.42,1.35.4.78-.08,1.54-.32,2.28-.55.39-.12.93-.4,1.34-.32,0,.41-.28.81-.48,1.15-.37.61-.79,1.09-1.33,1.56-1.1.95-2.13,1.96-3.36,2.75-.51.33-1.02.66-1.53,1-.1.06-1.03.6-1,.89.04.33.89.15,1.11.25,0,.19-.13.34-.24.47-.23.29-.54.55-.82.79-.62.52-1.29.86-2.03,1.15-1.49.57-2.97,1.15-4.4,1.87-1.07.54-2.16,1.08-3.2,1.68-.56.32-.51.99-1.08,1.28"/><path class="cls-5" d="m56.86,95.97c1.24-.24,2.44-1.11,3.49-1.76,1.42-.89,2.89-1.77,4.14-2.9,3-2.71,5.13-5.96,7.19-9.39s3.83-6.95,5.21-10.65,3.28-7.31,5.19-10.93c1.04-1.98,2.05-3.98,2.98-6.01.47-1.03.91-2.06,1.2-3.16.15-.58.29-1.19.35-1.78.03-.32-.02-.62.14-.91l-2.6,1.5c-.04,1.7-.38,3.3-.14,5.02.19,1.32.51,3.65,1.5,4.64.05.05,2.47-1.3,2.6-1.5.37-.55.36-1.39.56-2.02l-2.6,1.5c.46,1.84.12,3.8-.79,5.44-.48.85-1.05,1.71-1.69,2.45-.27.31-1.78,1.39-1.74,1.82.07.8,3.17-.49,3.57-.68,1.2-.56,2.46-1.25,3.52-2.03l-2.6,1.5c.69-.09-.44,1.15-.66,1.44-.45.59-.91,1.16-1.43,1.69-.22.22-.6.44-.77.71.44-.71,2.22-1.22.98-.56-.6.32-1.19.68-1.78,1.02-.42.24-2.11,1-1.7,1.67.51.84,3.16-.2,3.71-.38.23-.08.6-.3.85-.26.52.07.28.34.06.79-.33.67-.84,1.27-1.39,1.77-1.32,1.24-2.71,2.37-4.23,3.36-.25.16-2.06,1.1-1.73,1.54.31.41,1.06-.32.96.38-.07.5-1.25,1.22-1.63,1.47l.38-.23c.41-.24,1.89-1,.6-.5-.37.15-.74.29-1.11.43-.67.26-1.33.54-1.98.83-1.2.54-2.38,1.15-3.54,1.78-.91.49-1.81,1.01-2.7,1.54-.28.16-.64.33-.87.57-.34.35-.44.79-.85,1.09.81-.58,1.79-.92,2.6-1.5.48-.34.62-.91,1.08-1.28l-1.64.96c2.84-1.62,6.01-2.51,8.84-4.14,1.04-.6,2.16-1.16,3-2.04.08-.08.6-.55.5-.75-.04-.08-.58-.03-.63-.04-.54-.13-.55-.27-.14-.66.98-.93,2.35-1.48,3.41-2.33,1.22-.99,2.62-2.06,3.46-3.41.06-.1.65-1.01.48-1.15-.18-.15-.87.15-1.02.2-.84.27-1.71.59-2.6.66-1.26.1-1.72-.5-.56-1.3l-.38.23c-2.83,1.67-1.13.71-.45.33.56-.32,1.12-.64,1.67-.97,1.04-.63,1.91-1.46,2.67-2.41.38-.47.85-.97,1.16-1.49.29-.48.35-.66-.19-.48-.89.28-1.89,1.02-2.65,1.58l2.42-1.4c-.78.43-1.61.72-2.46.95-.28.08-1.05.4-1.37.26-.75-.32,1.29-1.85,1.61-2.25,1.79-2.22,3.08-4.82,2.36-7.73.07.27-2.48,1.12-2.6,1.5-.2.63-.19,1.46-.56,2.02l2.6-1.5c-.47-.47-.66-1.31-.86-1.93-.28-.88-.51-1.79-.64-2.71-.25-1.72.09-3.32.14-5.02,0,.12-1.17.66-1.31.74-.31.18-1.11.44-1.29.76-.17.3-.11.59-.14.91-.07.6-.2,1.2-.35,1.78-.31,1.17-.79,2.27-1.29,3.36-.93,2.03-1.95,4.04-2.99,6.01s-2.26,4-3.23,6.1-1.66,4.2-2.5,6.3c-1.66,4.15-3.97,8.04-6.3,11.83-1.15,1.87-2.52,3.6-4.05,5.18-.8.83-1.64,1.64-2.57,2.32-.56.4-1.16.75-1.73,1.12l-.79.52c1.79-.85,2.21-1.16,1.25-.94-.93.18-1.68,1.33-2.6,1.5h0Z"/><path class="cls-5" d="m61.47,95.77c.97.49,1.93.96,2.85,1.54.8.51,1.44,1.07,2.06,1.79.95,1.12,1.87,2.24,2.69,3.46,1.03,1.54,2.13,3.06,3.08,4.65,2.06,3.45,3.92,7.08,5.39,10.83.82,2.08,1.22,4.25,1.54,6.46.14.94.28,1.89.38,2.84s.05,1.95.05,2.94c0,1.34.09,2.65-.06,3.99-.16,1.52-.3,3.03-.44,4.55-.05.58-.14,1.16-.21,1.74-.03.23-.21.95-.07,1.17.19.29.54-.03.7-.2.52-.58.81-1.31,1.24-1.95.25-.37.49-.74.69-1.15.33-.69.46-1.43.55-2.18.18-1.58.28-3.21.35-4.8.04-1,0-1.99-.13-2.99-.06-.45-.15-.91-.07-1.37.78.46,1.29,1.45,1.79,2.19.42.62.75,1.25.97,1.97.09.3.13.78.41.97.15-.15.21-.34.16-.57,0-.58-.02-1.16-.05-1.73-.07-1.75-.17-3.43-.68-5.12-.47-1.54-1.06-3.04-1.86-4.44-.27-.47-.56-.94-.87-1.39-.16-.15-.2-.31-.14-.49.32-.13.73.11,1.02.23.98.41,1.85,1.11,2.64,1.81.61.55,1.2,1.11,1.67,1.79.15.22.57,1.18.88,1.02-.05-.98-.42-1.98-.75-2.89-.5-1.4-1.24-2.73-2.08-3.95-.44-.68-.96-1.3-1.55-1.85-.49-.42-.99-.82-1.51-1.2-.37-.3-.74-.59-1.14-.85-.26-.03-.37-.15-.34-.34.83-.1,1.56.18,2.35.43.63.2,1.26.37,1.91.48.07-.46-1.1-1.79-1.19-1.9-.82-1.07-1.76-2.18-2.78-3.06-1.28-1.12-2.75-1.86-4.21-2.7.07-.3.67-.27.89-.27.74-.02,1.45.17,2.17.29.95.17,1.9.29,2.84.47.52.1,1.13.29,1.66.21,1.34-.21-.76-2.1-1.1-2.45-1.37-1.4-3.19-2.35-5.04-2.94-.78-.25-1.59-.49-2.39-.65s-1.59-.22-2.39-.32c-1.73-.22-3.35-.81-5.05-1.15-.68-.13-1.35-.26-2.03-.38-.46-.08-.92-.14-1.35-.32-.6-.25-1.06-.57-1.55-.99"/><path class="cls-5" d="m60.17,96.52c2.14,1.07,3.93,2.15,5.47,4.01s2.98,3.98,4.34,6.06c2.69,4.12,5.21,8.76,6.7,13.46s1.85,9.74,1.51,14.52c-.17,2.31-.39,4.64-.72,6.93-.11.74-.17,1.2.64.87.76-.31,1.65-.84,2.31-1.33.78-.59,1.17-1.6,1.68-2.4.78-1.23,1.04-2.42,1.19-3.86s.24-2.86.28-4.3-.3-2.77-.2-4.14l-2.6,1.5c.87.61,1.45,1.6,2,2.5.48.79.58,1.98,1.17,2.63.03.04,2.48-1.3,2.6-1.5.5-.83.11-2.55.06-3.49-.08-1.33-.25-2.65-.63-3.94-.33-1.12-.75-2.22-1.25-3.27-.28-.58-.59-1.14-.92-1.69-.25-.41-.72-.87-.69-1.35l-2.6,1.5c1.44-.1,2.99,1.41,3.97,2.32.54.5,1.05,1.03,1.45,1.65.19.3.38.91.8.88.27-.01,2.61-1.37,2.6-1.5-.22-2.3-1.33-4.56-2.58-6.47-.62-.95-1.3-1.8-2.17-2.53-.49-.41-1-.8-1.51-1.19-.33-.25-1.01-.52-1.1-.9l-2.6,1.5c1.45-.07,2.84.65,4.26.91.22.04,2.61-1.39,2.6-1.5-.04-.62-.61-1.19-.98-1.66-.58-.73-1.16-1.47-1.8-2.15-.76-.82-1.59-1.55-2.52-2.17-.52-.35-1.06-.66-1.6-.97-.28-.16-1.35-.61-1.18-.86l-2.6,1.5c1.21-.54,3.15.19,4.39.39,1.39.22,2.66.76,3.94.04.55-.31,2.2-.86,2.17-1.63-.03-.72-1.19-1.6-1.67-2.06-2.57-2.44-6.02-3.3-9.43-3.74-1.87-.24-3.65-.85-5.5-1.22-1.74-.35-3.32-.47-4.73-1.65-.28-.23-2.35,1.71-2.6,1.5,1.77,1.49,4.14,1.47,6.31,2.01,1.22.31,2.43.65,3.68.83s2.41.28,3.6.61c2.16.59,4.27,1.47,5.92,3.01.4.37,2.47,2.15,1.65,2.66l2.55-1.47c-1,.27-2.29-.24-3.29-.4-1.19-.19-2.46-.56-3.68-.52-.61.02-1,.28-1.52.58-.23.13-1.92.86-1.89,1.19.01.17,1.27.72,1.46.82.48.28.96.56,1.42.87.93.62,1.76,1.35,2.52,2.17.64.69,1.22,1.42,1.8,2.15.37.46.94,1.04.98,1.66l2.6-1.5c-1.42-.27-2.8-.99-4.26-.91-.26.01-2.62,1.43-2.6,1.5.1.38.77.65,1.1.9.51.38,1.03.77,1.51,1.19.87.74,1.55,1.58,2.17,2.53,1.24,1.91,2.35,4.18,2.58,6.47l2.6-1.5c-.43.02-.61-.58-.8-.88-.4-.62-.91-1.15-1.45-1.65-.97-.9-2.54-2.41-3.97-2.32-.29.02-2.58,1.3-2.6,1.5-.03.44.35.81.58,1.18.34.54.65,1.1.93,1.67.55,1.11,1,2.28,1.34,3.47s.53,2.45.61,3.7c.07.96.47,2.87-.04,3.72l2.6-1.5c-.59-.65-.7-1.85-1.17-2.63-.55-.9-1.12-1.88-2-2.5-.09-.06-2.59,1.36-2.6,1.5-.08,1.23.22,2.47.21,3.71,0,1.41-.12,2.84-.24,4.25-.12,1.3-.23,2.6-.88,3.77-.53.96-1.12,2.15-1.92,2.9l2.6-1.5c-.9.43-.43-1.16-.37-1.59.14-1.04.23-2.08.32-3.13.21-2.26.32-4.45.32-6.72,0-4.52-.67-9.11-2.41-13.31s-3.91-8.31-6.46-12.09c-1.26-1.86-2.52-3.71-3.98-5.43s-3.22-2.68-5.19-3.67c-.14-.07-1.15.65-1.31.74s-1.15.83-1.29.76h0Z"/><path class="cls-2" d="m116.69,91v13.03h-3.61v-16.95h5.47l6.81,12.58v-12.58h3.61v16.95h-5.2l-7.08-13.03Z"/><path class="cls-2" d="m140.81,86.72c4.89,0,8.86,3.97,8.86,8.85s-3.97,8.83-8.86,8.83-8.84-3.94-8.84-8.83,3.95-8.85,8.84-8.85Zm-.02,14.07c2.89,0,5.25-2.33,5.25-5.22s-2.36-5.24-5.25-5.24-5.22,2.36-5.22,5.24,2.34,5.22,5.22,5.22Z"/><path class="cls-2" d="m150.77,87.08h3.88l4.6,12.24,4.6-12.24h3.83l-6.33,16.95h-4.21l-6.36-16.95Z"/><path class="cls-2" d="m169.4,87.08h11.56v3.61h-7.95v2.89h7.58v3.61h-7.58v3.25h8.31v3.61h-11.92v-16.95Z"/><path class="cls-2" d="m184.57,87.08h5.15l4.41,12.17,4.45-12.17h5.13v16.95h-3.61v-10.58l-3.85,10.58h-4.21l-3.85-10.51v10.51h-3.61v-16.95Z"/><path class="cls-2" d="m207.29,87.08h7.42c2.89,0,5.25,2.26,5.25,5,0,1.03-.34,1.97-.89,2.77.96,1.01,1.61,2.4,1.61,3.97,0,2.89-2.36,5.22-5.25,5.22h-8.14v-16.95Zm3.61,3.61v2.77h3.8c.92,0,1.64-.6,1.64-1.37s-.72-1.4-1.64-1.4h-3.8Zm4.53,6.37h-4.53v3.37h4.53c.92,0,1.64-.7,1.64-1.61s-.75-1.76-1.64-1.76Z"/><path class="cls-2" d="m222.89,87.08h11.56v3.61h-7.95v2.89h7.58v3.61h-7.58v3.25h8.31v3.61h-11.92v-16.95Z"/><path class="cls-2" d="m245.47,87.08c2.89,0,5.25,2.36,5.25,5.24,0,2.28-1.49,4.23-3.54,4.93l1.49,2.72c.43.79,1.4,1.06,2.22.62l1.73,3.17c-2.55,1.37-5.73.46-7.13-2.07l-2.26-4.16h-1.57v6.49h-3.61v-16.95h7.42Zm-3.8,3.61v3.25h3.8c.92,0,1.64-.7,1.64-1.61s-.72-1.64-1.64-1.64h-3.8Z"/></svg>