<?xml version="1.0" encoding="UTF-8"?><svg id="Layer_2" xmlns="http://www.w3.org/2000/svg" width="370" height="192" xmlns:xlink="http://www.w3.org/1999/xlink" viewBox="0 0 370 192"><defs><style>.cls-1{fill:url(#linear-gradient);}.cls-1,.cls-2,.cls-3,.cls-4,.cls-5,.cls-6,.cls-7,.cls-8{stroke-width:0px;}.cls-2{fill:#d9c38d;}.cls-4{fill:#ab8830;}.cls-5{fill:url(#linear-gradient-2);}.cls-6{fill:#ffefe1;}.cls-7{fill:#694e0a;}.cls-8{fill:#6e5518;}</style><linearGradient id="linear-gradient" x1="555.74" y1="188.51" x2="581.13" y2="280.41" gradientTransform="translate(-341.92 574.42) rotate(-73.4)" gradientUnits="userSpaceOnUse"><stop offset="0" stop-color="#96c"/><stop offset="1" stop-color="#c9f"/></linearGradient><linearGradient id="linear-gradient-2" x1="605.68" y1="337.34" x2="604.55" y2="305.93" gradientTransform="translate(-299.79 705.65) rotate(-89.32)" gradientUnits="userSpaceOnUse"><stop offset="0" stop-color="#d9c38d"/><stop offset="1" stop-color="#694e0a"/></linearGradient></defs><path class="cls-1" d="m10.64,192l359.36-86.36L15.59,0s-31.49,105.65-4.94,192Z"/><path class="cls-6" d="m101.32,169.88l268.68-64.23L104.91,26.63s-23.49,78.81-3.59,143.25Z"/><path class="cls-5" d="m24.97,111.88c.41,2.15-2.36,4.82-1.75,6.93s1.78,4.38,2.86,6.29c.85,1.49,1.65,4.87,3.1,5.85.84.57,5.05-1.43,6.1-1.6,1.54-.25,2.81-1.44,4.31-1.84.98-.26,2.94-1,3.8-.13s1.23,2,1.92,2.97c.51.71.95,1.47,1.33,2.25,1.13,2.31,2.35,4.56,3.4,6.91.45.99.95,1.97,1.6,2.84s.97,1.76,1.63,2.54c.89,1.04,1.97,1.51,3.3,1.71,2.53.37,5.03-.22,6.8-2.11.64-.68,1.09-1.43,1.64-2.18.67-.91,1.42-1.76,2.06-2.7.73-1.08,1.34-2.22,1.87-3.41s1.22-2.38,1.81-3.58c.45-.92,1-1.79,1.43-2.72.29-.62.55-1.23.95-1.79.25-.35.54-.66.91-.89.49-.31,1.01-.32,1.54-.5,1.3-.43,2.63-1.04,3.86-1.66,1.73-.87,3.75-2.19,4.6-4.05,1.21-2.68,1.42-5.51,1.72-8.39.11-1,.08-2.02-.17-2.99-.33-1.3-.18-2.63-.36-3.94-.16-1.19-.53-2.37-.81-3.53s-.5-2.38-.74-3.59c-.26-1.3-.54-2.49-.57-3.82-.05-2.1-.13-4.17-.1-6.28.01-.84.08-1.68-.02-2.53-.18-1.48-.79-3.09-1.25-4.5-.98-2.96-1.71-6.1-3.14-8.88-1.26-2.46-3-4.94-4.8-6.94-.24-.27-.5-.52-.78-.75-1.16-.93-2.53-1.61-3.82-2.36s-2.6-1.17-4-1.47c-2.82-.61-5.72-.34-8.59-.14-1.32.09-2.63.3-3.9.64s-2.51.75-3.76,1.15c-1,.32-1.99.67-3,.96-1.32.39-2.61.87-3.85,1.47-1.47.71,5.48,19.63-5.86,2.25-.22-.34-.61-.51-1.01-.44-3.46.6-8.38,1.35-10.22,5.12-1.68,3.44-1.66,7.65-2.33,11.35-1.02,5.59-1.73,11.53-.98,17.19.65,4.9-.53,10.83.75,15.6.67,2.48,1.51,5.32,2.77,7.58.56,1,.18,2.47.94,3.32.29.33.44,1.27.73,1.6.21.24,2.02-1.63,2.01-1.26"/><path class="cls-2" d="m24.01,111.63c.29,2.23-1.72,3.95-1.83,6.12-.06,1.22.66,2.56,1.15,3.64.61,1.33,1.38,2.58,2.02,3.89.8,1.66,1.18,3.83,2.55,5.15.97.94,2.63,1.03,3.87.7,1.7-.45,3.35-1.13,5.03-1.64,1.2-.36,2.2-1.16,3.37-1.58.48-.17.99-.31,1.49-.43.32-.08.67-.11.99-.2.41,0,.44-.03.08-.07-.47-.14-.39.04.22.53,1.8,2.47,3.11,5.34,4.48,8.05.7,1.39,1.33,2.81,2.02,4.21.62,1.25,1.44,2.38,2.16,3.57,2.24,3.71,8.46,4.54,11.87,1.98,1.12-.85,1.83-2.04,2.66-3.15.9-1.2,1.86-2.33,2.62-3.63s1.28-2.62,1.95-3.91c.75-1.44,1.54-2.86,2.26-4.31.54-1.07.96-2.42,2.05-3.07.68-.41,1.64-.51,2.37-.79.67-.26,1.33-.55,1.98-.85,2.36-1.11,4.77-2.46,5.82-4.98.58-1.39.9-2.87,1.12-4.36.24-1.59.51-3.28.47-4.9-.04-1.45-.42-2.87-.49-4.33-.08-1.6-.47-3.08-.86-4.63-.75-2.98-1.32-6.01-1.4-9.08s.34-6.41-.54-9.42c-.82-2.82-1.71-5.67-2.71-8.43-1.07-2.96-2.69-5.68-4.63-8.15-3.16-4.02-8.16-6.42-13.21-7.02-3.06-.36-6.42-.17-9.46.36s-6.14,1.73-9.13,2.69c-.6.19-1.19.4-1.77.64-.4.16-1.23.35-1.52.68-.14.16-.14.36-.17.57-.09.8.14,1.68.26,2.46.3,1.79.93,3.82.71,5.65-.03.26-.14.46-.2.7-.02.08-.21.11-.21.15-.05.18,1.65.73,1.29.33-.08-.09-.22-.14-.31-.22-1.13-1.09-2.08-2.28-3-3.56-.76-1.06-1.39-2.37-2.26-3.33-.53-.59-1.38-.79-2.15-.92-.83-.15-1.67.1-2.48.25-1.14.22-2.28.47-3.38.84-1.9.64-3.75,1.67-4.83,3.41-1.5,2.41-1.8,5.48-2.14,8.23-.76,6.2-2.13,12.27-1.72,18.56.1,1.45.33,2.89.4,4.35.07,1.57.03,3.15-.01,4.72-.07,2.88-.17,5.83.54,8.65.32,1.3.71,2.59,1.14,3.86.5,1.46,1.3,2.79,1.82,4.22.2.57.19,1.17.3,1.76.11.62.35.93.63,1.46.46.87.35,1.4,1.34,1.7.59.18,1.05.36,1.6.07.44-.23,1.03-1.12,1.55-1.14l-1.89-.53.02.04c.19.46,1.83.27,1.93.52l-.02-.04c-.14-.33-1.57-.55-1.89-.53-.72.03-1.22,1.15-1.94,1.32l1.63.39-.06-.02.26.14c-.23-.35-.31-.74-.48-1.11-.19-.43-.5-.78-.64-1.23-.32-1.02-.26-1.97-.75-2.94-1.09-2.17-1.83-4.48-2.47-6.82-1.28-4.71-.41-9.57-.71-14.37-.16-2.57-.51-5.08-.45-7.67s.34-5.31.74-7.94.81-5,1.13-7.52c.29-2.33.64-4.71,1.66-6.85.92-1.93,2.61-3.16,4.57-3.92,1.81-.7,4.04-1.33,5.99-1.37l-.95-.18.28.08-.91-.32c.77.48,1.32,1.72,1.84,2.47s1.03,1.49,1.58,2.21c.6.8,1.22,1.61,1.95,2.3.49.46.98.73,1.63.93.37.11,1.26.48,1.66.21.67-.46.29-2.15.21-2.78-.19-1.46-.5-2.91-.71-4.37-.08-.55-.19-1.13-.16-1.68.04-.65.2-.68.84-.97,2.21-.98,4.59-1.61,6.89-2.35,2.14-.69,4.27-1.32,6.52-1.53,2.57-.23,5.26-.48,7.82-.09s5.39,1.99,7.3,3.64c1.69,1.47,3.04,3.51,4.21,5.41s2.04,3.8,2.73,5.86,1.32,4.24,2.02,6.34.9,3.9.87,6.07c-.03,2.34-.09,4.79.18,7.12.25,2.11.73,4.27,1.23,6.33.27,1.1.61,2.19.78,3.31s.09,2.2.23,3.29c.13,1.02.41,1.96.38,3-.03,1.19-.2,2.39-.35,3.57-.26,2.07-.61,4.33-1.68,6.16-.9,1.54-2.49,2.59-4.04,3.41-1.12.59-2.28,1.13-3.47,1.57-.83.31-1.79.37-2.5.93s-1.06,1.36-1.43,2.12c-.5,1.05-1.08,2.06-1.6,3.09-.96,1.89-1.82,3.86-2.87,5.7s-2.42,3.42-3.65,5.1c-1.3,1.78-3.01,2.96-5.25,3.21-1.07.12-2.14.13-3.03-.53-1-.74-1.46-1.86-2.12-2.87-2.39-3.68-3.77-7.92-6.1-11.63-.54-.86-1.06-1.72-1.58-2.59-.37-.6-.75-1.18-1.41-1.48-1.13-.52-2.45-.68-3.66-.42-1.72.37-3.07,1.23-4.67,1.9-1.21.5-2.56.83-3.8,1.27-.62.22-1.23.44-1.87.6-.25.06-.54.07-.78.15-.72.25.93-1.33.94.27,0-.09-.43-.45-.49-.53-.94-1.22-1.36-2.82-1.96-4.22-.73-1.71-1.77-3.28-2.5-5-.77-1.81-1.13-3.08-.34-4.92.57-1.34,1.49-2.71,1.29-4.23-.05-.37-1.92-.42-1.93-.52h0Z"/><path class="cls-8" d="m42.12,117.12c1.2-.38,2.5-.61,3.61-.56,1.03.1,3.46.65,4.22,1.2,1.15.88,2.01,2.07,3.25,2.83.73.35,1.4.86,2.24.94,2.72.4,5.31-1.03,6.6-2.73.49-.46,1.42-.88,2.31-1.25.37-.19.84-.27,1.17-.52.19-.19.06-.53-.2-.59-.35-.04-.32.07-.74.2-1.09.45-2.27.86-3.13,1.65-1.09,1.43-3.01,2.53-4.86,2.55-.61.01-1.41-.09-1.56-.16-.75-.41-1.58-.76-2.01-1.15-1.25-1.15-2.38-2.5-4.06-3.13-.92-.38-1.94-.67-2.94-.73-.89-.01-1.76.2-2.61.44-.29.11-.68.13-.89.36-.16.23-.68.73-.39.65"/><path class="cls-8" d="m65.8,81.53c-2.02,1.49-3.08,4.17-3.94,6.09-.67,1.4-2.1,3.07-2.74,4.08-1.05,1.1-2.13,1.48-3.6,1.45-1.27-.06-2.3-.22-3.36-.36-.39.02-.45.64-.06.74,3.01.52,6.36.97,8.14-2.12.73-1.08,1.62-2.06,2.19-3.23.84-1.81,1.6-3.76,2.87-5.16,1.27-1.48,3.35-2.03,5.09-2.21,2.73-.25,5.59.99,7.41,2.9.74.76,1.55,1.74,1.99,2.38.59,1.07,1.29,2.07,2.08,3.01.41.53.83,1.04,1.27,1.55,0-.19.02-.37.02-.56,0-.19,0-.38,0-.57-.93-1.13-1.78-2.15-2.46-3.36-1.32-2.11-3.12-4.04-5.37-5.16-1.23-.52-2.56-.86-3.89-.99-1.96.04-3.99.46-5.64,1.55Z"/><path class="cls-8" d="m84.18,99.17c-.05-.02-.1-.06-.14-.13,0,0,0-.02-.01-.03-.09-.02-.16-.09-.18-.21-.02-.14-.04-.27-.07-.41-.54.77-1.07,1.55-1.49,2.39-.62,1.66-1.7,2.8-2.97,4.34-1.14,1.07-3.1,1.84-4.54,1.43-1.59-.29-2.46-1.81-4.03-2.81-.98-.47-1.96-1.09-3.06-1.19-.9-.09-1.8.16-2.64.46-.24.13-.61.15-.71.44-.09.29.25.56.51.4.79-.39,2.4-.74,3.12-.53.88.24,2.62,1.09,3.24,1.67,1.06,1.08,2.24,2.17,3.8,2.38,1.63.25,3.31-.48,4.59-1.46.83-.82,1.52-1.8,2.27-2.7.89-1.25,1.07-2.32,1.98-3.55.11-.17.23-.33.34-.5Z"/><path class="cls-4" d="m33.32,120.13c-1.08,1.15-1.96,2.54-2.23,4.12-.23,2.2-.09,4.45.4,6.61.1.42.76.25.65-.17-.54-2.82-.97-6.3.58-8.68.55-.79.9-1.17,1.51-1.9.04-.05.06-.07.05-.06.15-.2,0-.53-.26-.52-.32.03-.47.42-.7.62Z"/><path class="cls-4" d="m38.97,112.38c-1.7.91-3.4,1.88-4.78,3.25-1.19,1.13-1.89,2.37-2.87,3.53-.62.78-1.34,1.5-1.78,2.41-.47,1.1-.52,2.34-.64,3.52.01.72-.22,1.99-.02,2.59.15.16.44.05.44-.18.08-1.99.07-3.77.65-5.58.26-.61.89-1.41,1.45-2.02.96-1.13,1.74-2.32,2.6-3.31,1.2-1.29,2.35-2.11,3.87-2.99.53-.29,1.05-.6,1.58-.88.06-.03.1-.09.12-.16.05-.42-.36-.38-.61-.19Z"/><path class="cls-4" d="m28.94,116.39c-1.49,1.42-2.98,3.16-3.77,5.07-.04.24-.2.5-.13.73.09.16.35.13.39-.05.18-.88.56-1.55,1.1-2.28.81-1.12,1.6-2.14,2.62-3.12.15-.14,0-.41-.2-.36Z"/><path class="cls-4" d="m42.99,105.58c-2.69.51-5.4,1.09-7.97,2.05-2.92,1.55-5.59,3.56-7.95,5.87-.98.94-1.9,1.99-2.51,3.21-.39.88-.92,1.92-1.1,3.04.02.25.4.28.47.04.41-1.61.98-3,2.05-4.37,1.57-1.88,3.46-3.51,5.31-4.83,1.32-.94,2.67-1.87,4.14-2.58,1.77-.62,4.34-1.27,6.43-1.7.64-.12,1.29-.24,1.94-.37.06-.02.12-.06.15-.11.19-.61-.64-.28-.95-.25Z"/><path class="cls-4" d="m23.52,110.74c-.25.33-.58.61-.73.97,0,.18.23.28.35.15,1.45-2.07,3.88-3.32,6.28-4.11.2-.05.2-.35,0-.4-2.16.61-4.36,1.72-5.91,3.39Z"/><path class="cls-4" d="m27.45,103.93c-.81.26-1.62.53-2.41.88-.27.17-.69.2-.88.46-.06.17.15.34.31.24,1.19-.54,2.15-.9,3.44-1.28.13-.03.2-.19.13-.31-.14-.22-.4-.03-.59.01Z"/><path class="cls-4" d="m20.77,93.35c1.8,1.62,3.89,2.94,6.1,3.93,1.26.44,2.58.66,3.88.96,6.41,1.42,13.06,1.31,19.53.34.48-.11,1.18-.13,1.55-.4.21-.72-.89-.17-1.22-.16-6.29.95-13.32,1.1-19.6-.31-1.31-.29-2.65-.53-3.92-.95-1.08-.45-2.6-1.33-3.77-2.12-.85-.58-1.57-1.17-2.23-1.74-.26-.13-.53.24-.31.45Z"/><path class="cls-4" d="m22.59,88.89c1.08,2,3.02,3.47,5.03,4.46,2.05.78,4.14,1.54,6.29,2.01.16,0,.26-.21.18-.35-.14-.19-.44-.16-.64-.24-3.35-.98-6.66-1.78-9.08-4.3-.57-.55-1.01-1.11-1.36-1.81-.14-.27-.57-.03-.41.23Z"/><path class="cls-4" d="m31.44,103.75c-.55.19-1.19.26-1.69.54-.09.14.05.33.21.28,1.64-.52,3.33-.89,5-1.29.12-.03.18-.17.12-.27-.04-.07-.13-.11-.21-.09-1.15.27-2.29.54-3.43.83Z"/><path class="cls-4" d="m22.3,82.87c1.16,2.46,3.29,4.26,5.66,5.49.23.05.35-.3.15-.41-.78-.5-1.8-1.08-2.45-1.55-.97-.84-1.79-1.74-2.44-2.79-.24-.28-.42-.91-.67-1.06-.18-.06-.36.16-.26.33Z"/><path class="cls-4" d="m29.72,89.28c3.47,2.92,7.96,4.37,12.39,5,.18-.01.26-.25.13-.37-.12-.11-.31-.08-.47-.12-3.64-.58-7.11-1.67-10.16-3.65-.63-.4-1.07-.78-1.64-1.22-.21-.11-.43.2-.25.36Z"/><path class="cls-4" d="m36.9,96.43c.92.21,1.86.29,2.8.38.16,0,.35.09.48-.02.07-.07.07-.19,0-.26-.64-.17-1.77-.17-2.22-.27-.37-.03-.75-.21-1.11-.17-.14.07-.11.29.04.33Z"/><path class="cls-4" d="m23.08,72.86c1.62,2.08,3.21,4.35,5.27,5.98.2,0,.32-.26.17-.4-1.33-1.24-2.53-2.6-3.65-4.02-.48-.63-.96-1.27-1.44-1.9-.04-.05-.11-.07-.17-.07-.21,0-.33.27-.18.41Z"/><path class="cls-4" d="m24.55,69.86c1.88,2.3,3.6,5.21,5.57,7.67,3.34,4.06,7.17,7.71,11.54,10.65.13.08.31,0,.35-.14.06-.28-.31-.38-.48-.54-4.81-3.31-8.98-7.49-12.48-12.15-1.18-1.72-2.71-4.02-4.17-5.82-.2-.21-.54.11-.33.32Z"/><path class="cls-4" d="m22.2,78.58c2.4,2.02,4.76,4.32,7.64,5.58.18-.04.22-.31.06-.41-1.53-.77-3.32-2.07-4.46-2.97-.99-.86-1.97-1.74-2.98-2.57-.22-.11-.43.2-.25.37Z"/><path class="cls-4" d="m34.89,87.86c3.33,1.76,6.3,4.5,10.03,5.32.22-.14.06-.4-.16-.42-1.14-.42-2.08-.73-3.07-1.23-2-1.1-3.86-2.46-5.84-3.6-.3-.13-.58-.41-.9-.44-.17.04-.21.28-.05.37Z"/><path class="cls-4" d="m31.89,85.56c0,.25.38.25.38,0,0-.25-.38-.25-.38,0Z"/><path class="cls-4" d="m31.09,85.06c.36.25.69.56,1.08.74.11.03.23-.06.26-.17.06-.23-.21-.32-.36-.44-.28-.17-.52-.44-.82-.57-.25-.05-.38.32-.16.44Z"/><path class="cls-4" d="m30.22,80.75c.75.81,1.5,1.63,2.27,2.41.11.16.39.09.38-.11-.67-.92-1.61-1.71-2.35-2.6-.19-.2-.51.1-.31.3Z"/><path class="cls-4" d="m47.71,94.57c1.58.26,3.18.22,4.78.32.12,0,.22-.12.19-.24-.02-.08-.1-.14-.18-.14-1.37-.07-2.74-.09-4.1-.22-.19-.01-.41-.08-.65-.09-.2.01-.22.32-.03.37Z"/><path class="cls-4" d="m29.02,66.16c.69,1.87,1.4,3.73,2.44,5.44.42.74.83,1.48,1.2,2.25.05.1.1.21.21.24.21.07.41-.18.3-.37-.83-1.77-1.95-3.39-2.7-5.21-.24-.53-.66-1.8-1-2.56-.15-.22-.52-.04-.44.21Z"/><path class="cls-4" d="m28.53,69.15c.29,1.39,1.03,2.63,1.82,3.79.08.15.32.12.36-.04-.38-.86-1.18-1.84-1.46-2.72-.21-.37-.2-.93-.42-1.24-.14-.09-.34.06-.29.22Z"/><path class="cls-4" d="m33.24,76.69c1.65,1.84,3.52,3.55,5.48,5.03.18,0,.29-.24.16-.36-1.41-1.2-2.84-2.38-4.15-3.69-.45-.39-.83-1.06-1.33-1.34-.19,0-.29.24-.16.37Z"/><path class="cls-4" d="m37.06,74.59c.8,1.56,1.95,2.99,3.2,4.23.6.54,1.14,1.22,1.85,1.61.18,0,.28-.22.15-.35-1.97-1.61-3.62-3.5-4.8-5.59-.1-.18-.4-.11-.39.1Z"/><path class="cls-4" d="m32.31,65.68c.48,1.05,1.06,2.05,1.65,3.04.12.24.35.57.54.21-.32-.9-1-1.72-1.4-2.61-.2-.3-.25-.75-.54-.95-.18-.06-.35.16-.25.32Z"/><path class="cls-4" d="m47.61,107.47c-2.19,1.24-4.32,2.57-6.35,4.05-.3.16-.03.63.26.46,1.44-1.04,2.91-2.04,4.43-2.94.6-.43,1.55-.78,2.03-1.28.07-.21-.18-.4-.37-.29Z"/><path class="cls-4" d="m55.79,103.93c-1.85.83-3.67,1.71-5.45,2.67-.1.06-.24.09-.27.22-.05.16.14.32.29.23,1.83-1.08,3.9-1.86,5.72-2.89.05-.16-.14-.31-.29-.23Z"/><path class="cls-4" d="m64.84,99.33c-2.02.86-3.98,1.87-5.92,2.91-.24.18-.59.27-.77.52-.05.15.13.3.27.21,2.13-1.24,4.36-2.32,6.61-3.31,2.1-.75,4.87-1.51,7.24-2.11.1-.03.22-.03.28-.13.08-.13-.05-.32-.2-.27-2.53.64-5.06,1.29-7.52,2.18Z"/><path class="cls-4" d="m36.49,118.33c0,.17.22.27.34.15.13-.16.47-.39.2-.58-.19-.13-.51.27-.54.43Z"/><path class="cls-4" d="m42.21,113.46c-.3.23-.61.46-.91.69,0,0,0,0,.02-.02-.3.25-.7.43-.93.73-.06.18.15.34.31.25.59-.42,1.17-.86,1.74-1.3.15-.07.18-.29.03-.38-.08-.05-.19-.04-.25.03Z"/><path class="cls-4" d="m53.04,106.53c-.97.45-1.88,1.01-2.8,1.56-1.37.85-2.89,1.41-4.17,2.4-.81.57-1.65,1.11-2.46,1.69-.13.15.07.39.24.28,1.25-.81,2.44-1.7,3.7-2.49,1.08-.56,2.18-1.1,3.22-1.74.8-.5,1.61-.97,2.46-1.37.09-.05.12-.17.07-.25-.05-.09-.17-.12-.25-.07Z"/><path class="cls-4" d="m58.74,104.31c-.07.03-.16.06-.18.15-.05.14.13.28.26.2.17-.09.55-.18.36-.43-.13-.13-.3.02-.43.08Z"/><path class="cls-4" d="m53.15,113.92c-.63.46-1.25.93-1.86,1.41-.2.19.1.5.3.3.35-.28,1.03-.8,1.21-.94.33-.26.68-.49,1-.76.09-.1.03-.29-.1-.32-.22-.03-.36.21-.54.3Z"/><path class="cls-4" d="m58.08,110.29c-.64.41-1.28.83-1.91,1.27-.29.21-.6.41-.87.63-.03.04-.05.09-.04.14,0,.13.17.21.29.15.89-.64,1.8-1.26,2.72-1.85.11-.06.13-.21.04-.3-.06-.06-.16-.08-.23-.03Z"/><path class="cls-4" d="m59.6,109.45c-.12.14.06.36.22.26.67-.32,1.34-.64,2.02-.96.13-.07.11-.28-.04-.32-.75.24-1.49.67-2.2,1.02Z"/><path class="cls-4" d="m55.02,115.93c-.09.17.16.34.29.2.13-.14.49-.29.31-.51-.2-.17-.46.18-.6.31Z"/><path class="cls-4" d="m58.66,112.93c-.29.25-.57.52-.85.79-.17.17.09.44.26.27.28-.3.62-.54.89-.85.04-.08,0-.19-.07-.23-.07-.04-.17-.03-.22.03Z"/><path class="cls-4" d="m60.02,111.79c0,.35.55.36.55,0,0-.35-.55-.36-.55,0Z"/><path class="cls-4" d="m23.62,99.36c-.15.08-.12.31.04.36,1.39.21,2.79.36,4.19.57.31-.02,1.75.46,1.41-.17-1.7-.34-3.49-.47-5.22-.73-.03,0-.06,0-.09-.01-.11,0-.22-.06-.32,0Z"/><path class="cls-4" d="m32.32,100.1c-.19.03-.43-.06-.59.05-.11.1-.03.29.12.29,3.24-.04,6.49.19,9.72-.12.19,0,.27-.26.1-.36-3.1.2-6.23.14-9.34.14Z"/><path class="cls-4" d="m49.87,99.21c-.5.09-1.45.21-1.74.24-.93.12-1.86.2-2.78.32-.18.06-.13.36.07.35,1.43-.16,2.87-.29,4.3-.51.25-.1,1.05,0,.9-.41-.17-.21-.51,0-.74,0Z"/><path class="cls-4" d="m36.4,105.02c-.25.06-.15.45.1.38,1.79-.76,3.82-1.11,5.24-1.63.09-.14-.05-.34-.22-.29-1.73.43-3.46.89-5.12,1.54Z"/><path class="cls-4" d="m44.86,102.55c-.17.07-.41.05-.53.19-.09.14.05.33.21.28.5-.14,1.02-.24,1.51-.4.11-.07.1-.25-.02-.31-.38-.05-.79.17-1.17.23Z"/><path class="cls-4" d="m49.82,101.36c-.27.11-.62.1-.84.28-.09.13.05.32.2.27,1.04-.27,2.05-.64,3.09-.9.11-.03.17-.17.11-.27-.04-.07-.13-.11-.2-.09-.79.2-1.57.46-2.36.7Z"/><path class="cls-4" d="m61.68,98.03c-.93.28-1.89.46-2.83.72-.95.29-1.92.55-2.86.85-.16.11-.03.37.15.32,2.03-.62,4.08-1.14,6.14-1.66.2-.05.66-.02.53-.35-.23-.24-.83.08-1.13.11Z"/><path class="cls-4" d="m68.54,96.32c-.46.18-1.03.22-1.44.49-.1.15.06.35.23.3,1.46-.45,2.92-.93,4.39-1.36.12-.03.18-.18.12-.29-.04-.08-.14-.12-.22-.09-1.04.28-2.06.63-3.08.94Z"/><path class="cls-4" d="m44.13,95.69c-.17.09-.14.37.05.42,1.91.4,3.86.67,5.81.8.98.06,1.97.29,2.96.11.93-.22,1.67-.32,2.55-.38.14-.05.16-.26.03-.34-.15-.06-.32,0-.47,0-.8.03-1.61.25-2.36.36-2.61-.03-5.42-.48-7.84-.87-.24-.02-.49-.17-.72-.09Z"/><path class="cls-4" d="m58.16,95.92c-.15.1-.03.34.14.29.28-.05.58-.04.84-.13.11-.07.07-.26-.05-.29-.3.02-.64.04-.93.13Z"/><path class="cls-4" d="m65.42,93.64c-1.23.15-2.1.27-3.42.35-.72.09-1.5.03-2.18.24-.14.13-.04.39.16.39,2.06-.21,4.29-.29,6.1-.64.08-.08.09-.23,0-.31-.18-.14-.45-.01-.66-.03Z"/><path class="cls-4" d="m70.79,92.74c-.22.06-.13.41.09.35.89-.16,1.79-.33,2.68-.5.15-.03.18-.25.05-.33-.93.05-1.88.35-2.82.48Z"/><path class="cls-4" d="m60.34,85.33c-.48.39-1.01.73-1.38,1.24-.31.52-.87,1.43-1.12,1.71-.53.67-.87,1.12-1.4,1.73-.12.16-.33.28-.37.49,0,.18.23.28.35.15,1.12-1.28,2.02-2.37,2.88-3.85.26-.46,1.23-.93,1.44-1.36,0-.23-.29-.27-.41-.1Z"/><path class="cls-4" d="m59.32,84.19c-.77,1.26-1.78,2.47-2.19,3.9.01.2.33.23.37.03.45-1.34,1.45-2.53,2.18-3.8.04-.2-.26-.31-.36-.13Z"/><path class="cls-4" d="m60.31,80.94c-.8.78-1.6,1.58-2.24,2.5-.51.78-1.02,1.57-1.4,2.42-.04.21.27.32.37.13.9-1.84,2.07-3.38,3.56-4.76.19-.18-.1-.48-.29-.29Z"/><path class="cls-4" d="m61.82,79.82c-.1.2.18.39.34.23.12-.1.33-.2.25-.39-.13-.29-.47,0-.59.16Z"/><path class="cls-4" d="m67.04,76.23c-1.1.58-2.18,1.22-3.19,1.93-.15.17.08.43.27.31,1.98-1.34,3.92-2.57,6.23-3.06.16-.11.03-.38-.16-.32-1.09.25-2.18.56-3.15,1.13Z"/><path class="cls-4" d="m61.5,83.03c-.18.23-.61.56-.6.84.04.18.3.21.39.06.2-.28.4-.51.72-.82.06-.06.08-.15.05-.23-.15-.3-.42,0-.56.15Z"/><path class="cls-4" d="m65.59,79.63c-.51.34-1,.72-1.48,1.11-.2.19.1.49.29.3.5-.42.88-.67,1.46-1.1.06-.06.06-.16.02-.23-.06-.1-.19-.14-.28-.08Z"/><path class="cls-4" d="m67.12,78.8c-.27.07-.16.48.11.41.84-.27,1.7-.48,2.56-.7.17-.04.21-.29.05-.37-.91.05-1.83.43-2.72.66Z"/><path class="cls-4" d="m56.67,91.34c-.19.23-.53.38-.63.66,0,.17.22.27.34.15.25-.24,2.97-2.68,1.95-2.65-.57.57-1.01,1.27-1.67,1.84Z"/><path class="cls-4" d="m57.11,75.74c-.2.13.03.43.2.26.2-.13-.03-.43-.2-.26Z"/><path class="cls-4" d="m59.9,74.58c-1.49.69-2.87,1.59-4.28,2.42-.26.15-.03.56.23.41,1.08-.65,2.16-1.31,3.26-1.92.32-.22.91-.34,1.12-.64.06-.19-.16-.37-.33-.26Z"/><path class="cls-4" d="m62.33,73.49c-.26.06-.15.46.1.39.86-.34,1.72-.67,2.62-.88.15-.05.36-.01.45-.15.06-.09.02-.22-.07-.27-1.06.02-2.1.57-3.11.91Z"/><path class="cls-4" d="m67.36,72.74c2.75-.08,5.4.71,7.99,1.87.19.14.48-.01.31-.24-1.52-.66-3.07-1.32-4.71-1.61-.28-.12-4.68-.78-3.59-.02Z"/><path class="cls-4" d="m57.71,60.24c1.72,1.39,3.85,3.06,5.93,3.08.35-.3-.06-.52-.37-.53-1.23-.11-2.58-.85-3.78-1.75-.61-.42-1.02-.78-1.53-1.16-.22-.11-.43.2-.25.37Z"/><path class="cls-4" d="m64.85,64.14c.26.13.43-.28.16-.37-.26-.13-.43.28-.16.37Z"/><path class="cls-4" d="m66.68,64.67c0,.22.34.22.34,0,0-.22-.34-.22-.34,0Z"/><path class="cls-4" d="m69.27,65.46c.44.07.89.16,1.33.21.05,0,.09-.03.12-.07.08-.09.03-.26-.09-.29-.42-.07-.84-.14-1.26-.21-.22-.07-.33.29-.1.35Z"/><path class="cls-4" d="m59.35,62.9c1.2,1.68,2.75,3.1,4.54,4.15.65.48,1.43.69,2.19.96.06.03.14.02.19-.01.25-.18,0-.42-.07-.41-2.26-.85-4.15-2.26-5.81-4.18-.32-.3-.39-.62-.75-.89-.21-.07-.41.18-.29.37Z"/><path class="cls-4" d="m67.21,68.33c.22.11.37-.24.13-.31-.22-.11-.37.24-.13.31Z"/><path class="cls-4" d="m69.53,68.76c0,.35.55.36.55,0,0-.35-.55-.36-.55,0Z"/><path class="cls-4" d="m58.75,66.18c.69.89,1.45,1.78,2.39,2.41.78.54,2.11.95,2.58,1.15.2.04.36-.2.26-.38-.11-.15-.32-.19-.48-.28-1.09-.44-1.81-.65-2.7-1.45-.6-.6-1.25-1.29-1.63-1.81-.22-.2-.58.1-.42.36Z"/><path class="cls-4" d="m64.43,69.85c0,.35.55.36.55,0,0-.35-.55-.36-.55,0Z"/><path class="cls-4" d="m58.36,68.38c-.21.05-.25.35-.06.45,1.43.93,2.99,2.09,4.72,2.21.35-.3-.05-.51-.35-.54-1.18-.24-2.07-.81-3.17-1.47-.32-.2-.63-.41-.94-.63-.06-.03-.13-.04-.19-.03Z"/><path class="cls-4" d="m64.06,71.23c0,.35.55.36.55,0,0-.35-.55-.36-.55,0Z"/><path class="cls-4" d="m58.08,70.79c-.18.1-.15.39.05.44.87.32,1.75.67,2.68.77.72,0,2.03.21,2.25.15.11-.06.16-.22.09-.33-.17-.21-.52-.14-.76-.2-1.02-.1-1.76-.03-2.67-.35-.49-.15-.98-.31-1.46-.5-.06-.02-.13,0-.18.02Z"/><path class="cls-4" d="m63.91,71.15c-.27.09-.19.53.1.53.79,0,1.58.01,2.37.07.14,0,.28.05.41,0,.18-.06.23-.31.09-.44-.26-.17-.64-.08-.94-.13-.67-.02-1.37-.08-2.04-.02Z"/><path class="cls-4" d="m58.65,78.51c-.7.55-1.4,1.13-2,1.78-.12.24.22.47.4.28.76-.71,1.62-1.51,2.33-1.95.17-.14.44-.19.52-.4.04-.13-.04-.28-.17-.32-.36,0-.77.42-1.08.61Z"/><path class="cls-4" d="m65.09,74.86c-.69.1-1.41.17-2.03.53-.6.39-1.44.73-1.92,1.23-.06.2.17.39.35.28.71-.44,1.63-1.05,2.21-1.28.5-.21,1.08-.17,1.58-.34.21-.14.04-.49-.2-.42Z"/><path class="cls-4" d="m66.87,74.7c-.08.12.05.29.19.25,1.37-.27,3.27-.14,4.57.1.23.01.85.29.74-.15-1.1-.38-2.39-.4-3.57-.45-.55.04-1.47.02-1.93.25Z"/><path class="cls-4" d="m77.52,123.17c-.74.79-1.41,1.71-1.63,2.79-.26.99-.66,1.96-.94,2.94.02.31.5.35.57.05.47-1.12.87-2.74,1.2-3.6.37-.82.76-1.24,1.27-1.88.14-.28-.27-.54-.47-.3Z"/><path class="cls-4" d="m76.13,122.97c-.2.1-.26.36-.39.53-.37.59-.68,1.22-.91,1.87-.03.13-.12.3.02.39.1.09.28.03.32-.1.21-.76.61-1.45,1.04-2.17.06-.13.2-.24.16-.39-.02-.1-.14-.17-.24-.14Z"/><path class="cls-4" d="m79.73,118.24c-.11.04-.17.16-.25.23-.61.59-1.1,1.39-1.5,1.84-.51.62-1.03,1.25-1.46,1.92-.04.21.27.32.37.13.79-1.09,1.66-2.11,2.42-3.19.19-.27.53-.46.64-.76,0-.11-.11-.2-.22-.17Z"/><path class="cls-4" d="m81.17,116.58c-.17.16.09.43.25.26.2-.27.56-.47.69-.77-.14-.55-.74.37-.94.51Z"/><path class="cls-4" d="m75.47,119.85c-.16.06-.22.25-.33.38-.57,1.06-1.25,2.08-1.66,3.22-.08.26.33.38.41.12.39-1.08,1.23-2.4,1.84-3.48.03-.14-.12-.28-.26-.24Z"/><path class="cls-4" d="m78.14,117.03c-.31.37-.66.7-.99,1.04-.23.26-.48.52-.68.8-.02.04-.02.09,0,.13.04.11.2.14.28.06.54-.68,1.2-1.26,1.76-1.92.15-.14.35-.4.03-.47-.18.02-.26.25-.39.36Z"/><path class="cls-4" d="m79.31,115.61c0,.35.55.36.55,0,0-.35-.55-.36-.55,0Z"/><path class="cls-4" d="m80.41,114.63c-.23.09-.11.43.12.32.23-.09.11-.43-.12-.32Z"/><path class="cls-4" d="m70.65,106.44c.65.66,1.22,1.04,1.84,1.54.23.24,1.11.93,1.76.93.09.02.19,0,.24-.08.17-.23-.1-.4-.31-.4-.31-.06-.44-.11-.7-.28-.45-.32-1.35-1.1-1.69-1.35-.32-.2-.68-.71-.96-.79-.21,0-.33.27-.18.42Z"/><path class="cls-4" d="m74.83,108.83c0,.35.55.36.55,0,0-.35-.55-.36-.55,0Z"/><path class="cls-4" d="m75.43,108.86c-.1.1-.03.28.11.28.61.06,1.23.1,1.84.08.12,0,.21-.12.18-.23-.02-.08-.09-.14-.17-.14-.41.02-.81.01-1.22,0-.24.02-.52-.1-.74,0Z"/><path class="cls-4" d="m81.22,108.28c-.51.23-1.16.13-1.63.41-.09.14.05.33.21.28.81-.11,1.68-.32,2.28-.62.29-.11.59-.19.87-.32.13-.09.09-.31-.06-.35-.57.08-1.19.43-1.67.6Z"/><path class="cls-4" d="m71.68,110.39c1.15.73,2.43,1.2,3.78,1.34.09,0,.17-.08.2-.16.07-.28-.24-.31-.44-.34-.46-.09-.85-.12-1.21-.2-.72-.25-1.1-.44-1.76-.79-.17-.06-.32-.26-.51-.23-.17.04-.21.29-.05.38Z"/><path class="cls-4" d="m76.07,111.54c0,.35.55.36.55,0,0-.35-.55-.36-.55,0Z"/><path class="cls-4" d="m77.12,111.4c0,.35.55.36.55,0,0-.35-.55-.36-.55,0Z"/><path class="cls-4" d="m79.05,110.92c-.28.05-.64.03-.87.22-.08.13.05.31.2.27.41-.15.9-.09,1.19-.22.07-.06.07-.18,0-.25-.15-.12-.36,0-.53-.01Z"/><path class="cls-4" d="m73.64,112.74c-.5-.11-.73-.22-1.08-.39-.28-.06-.43.36-.18.5.97.62,2.45.57,3.31.45.51-.07,1.32.03,1.72-.31.12-.18-.07-.44-.28-.38-.34.09-.32.06-.52.09-.98.05-2.23.22-2.96.04Z"/><path class="cls-4" d="m80.67,111.51c-.71.36-1.26.53-2.09.82-.12.04-.28.03-.35.15-.1.15.06.36.23.31.97-.27,1.46-.46,2.28-.81.1-.06.25-.1.28-.23.06-.2-.19-.36-.35-.24Z"/><path class="cls-4" d="m81.6,111.15c0,.35.55.36.55,0,0-.35-.55-.36-.55,0Z"/><path class="cls-4" d="m75.2,115.43c-.65.34-1.61,1.17-1.96,1.46-.12.1-.32.15-.37.31-.06.2.17.39.35.28.59-.36,1.09-.9,1.51-1.17.35-.24.71-.46,1.08-.67.14-.07.17-.28.05-.39-.21-.2-.46.08-.67.17Z"/><path class="cls-4" d="m74.59,117.29c-.22.22-.45.44-.67.67-.19.24-.51.43-.59.72,0,.19.25.31.39.16.38-.43.78-.83,1.19-1.23.09-.08.09-.23,0-.31-.08-.09-.23-.09-.31,0Z"/><path class="cls-4" d="m72.92,119.12c0,.35.55.36.55,0,0-.35-.55-.36-.55,0Z"/><path class="cls-4" d="m77.31,115.46c-1.2.8-2,2.31-2.67,3.39-.29.33-.59.74-.8,1.01-.04-.12-.08-.23-.12-.35-.06-.25-.45-.14-.38.1.1.21.13.45.26.63.38.36.72-.36.88-.5,1.25-1.35,1.59-2.71,2.96-3.75.14-.15.41-.23.43-.45-.07-.4-.4-.23-.56-.07Z"/><path class="cls-4" d="m74.88,114.16c-.76.05-1.53.06-2.29.17-.16.04-.37,0-.46.15-.1.16.06.39.25.33,1.02-.16,2.01-.17,3.18-.24.14,0,.26-.14.22-.28-.14-.32-.61-.09-.89-.13Z"/><path class="cls-4" d="m74.8,122.51c-.2.31-.41.61-.62.91-.15.25.24.48.38.23.21-.33.49-.64.65-1,.01-.06,0-.12-.04-.16-.08-.13-.29-.11-.37.02Z"/><path class="cls-4" d="m59.88,142.57c-.7.38-1.29.92-1.88,1.45-.63.54-1.28,1.05-1.76,1.73-.62.91-1.14,1.89-1.54,2.91-.07.16-.16.38.02.51.14.13.39.04.44-.14.41-1.08,1.17-2.56,1.92-3.41.99-.95,1.97-1.89,2.97-2.56.37-.12.2-.66-.16-.49Z"/><path class="cls-4" d="m56.24,147.9c-.24.63-.44,1.28-.58,1.94-.01.22-.15.5,0,.7.13.15.4.04.4-.16.04-.56.4-1.75.63-2.33.39-.79.95-1.38,1.62-2.01.1-.1.25-.17.31-.3.09-.17-.09-.37-.27-.32-.86.63-1.64,1.5-2.1,2.47Z"/><path class="cls-4" d="m57.54,141.43c-.84.53-1.34,1.27-1.88,1.9-.42.51-.91.97-1.26,1.54-.26.54-.39,1.16-.43,1.76-.09.39.39.58.47.16,0-.68.24-1.63.65-2.08.75-.8,1.7-2.08,2.36-2.61.87-.59,1.74-1.19,2.61-1.79.22-.12.13-.47-.12-.47-.85.41-1.59,1.09-2.41,1.58Z"/><path class="cls-4" d="m61.76,138.74c-.26.17-.55.31-.8.51-.14.16.07.41.26.3.26-.18.55-.32.79-.51.05-.06.06-.15.02-.22-.05-.09-.18-.13-.27-.08Z"/><path class="cls-4" d="m55.03,141.27c-.83.6-1.35,1.55-1.82,2.45-.12.3-.33.65-.24.96.1.2.42.16.48-.06.35-1.27,1.29-2.63,2.38-3.26.14-.16,0-.43-.2-.43-.23.04-.41.21-.61.33Z"/><path class="cls-4" d="m58.56,137.18c-1.29.23-2.27.78-3.4,1.12-1.46.33-2.56,1.42-3.48,2.54-.12.21-.37.41-.34.67.05.2.34.24.44.06.63-.98,1.66-2.03,2.74-2.53,1.01-.27,2.64-1,3.89-1.32.16-.05.37-.02.47-.18.12-.2-.09-.44-.31-.36Z"/><path class="cls-4" d="m55.56,135.85c-1.45.38-2.94.68-4.36,1.15-.24.16-.04.55.23.47,1.42-.49,3.53-.8,4.8-1.33.09-.14,0-.34-.15-.38-.17-.03-.34.06-.51.09Z"/><path class="cls-4" d="m50.83,133.1c-.15.08-.12.32.04.36.99.31,2.06.29,3.09.44.28-.02.91.28.89-.19-.05-.18-.25-.16-.39-.18-.91-.1-2.02-.2-2.83-.3-.26,0-.57-.21-.8-.14Z"/><path class="cls-4" d="m46.38,117.11c.93,1.19,1.98,2.24,3.09,3.25.53.56,1.18.98,1.82,1.4.07.05.17.08.25.05.41-.17.16-.53-.13-.67-1.24-.84-2.33-1.92-3.49-3.11-.4-.43-.74-.9-1.14-1.33-.05-.05-.13-.09-.2-.09-.25-.01-.39.32-.21.49Z"/><path class="cls-4" d="m53.14,122.79c.68.22,1.4.36,2.11.48.2-.01.23-.33.03-.38-.71-.13-1.42-.31-2.11-.49-.21.01-.24.34-.03.39Z"/><path class="cls-4" d="m56.12,123.4c.4.06.8.16,1.2.2.12,0,.2-.16.13-.27-.29-.2-.93-.21-1.3-.29-.19.01-.21.31-.03.35Z"/><path class="cls-4" d="m48.59,121.73c1.31,1.82,3.31,3,5.45,3.58.8.11,1.22.16,1.68.27.22.07.4-.23.23-.39-.21-.14-.2-.05-.37-.14-.37-.16-.76-.25-1.15-.31-1.46-.4-3.01-1.05-3.92-1.83-.6-.44-1.05-1.06-1.57-1.57-.23-.12-.5.17-.36.4Z"/><path class="cls-4" d="m56.52,125.35c-.16.06-.11.32.06.32.23-.02.84.27.82-.13-.02-.1-.12-.13-.21-.13-.22,0-.45-.08-.67-.05Z"/><path class="cls-4" d="m58.01,125.59c0,.35.55.36.55,0,0-.35-.55-.36-.55,0Z"/><path class="cls-4" d="m48.89,125.37c1.21.82,2.49,1.93,3.83,2.43,1,.27,2.03.48,2.85.59.25,0,.56.18.78,0,.33-.55-.4-.49-.67-.56-1.09-.19-2.47-.39-3.45-.87-1.09-.62-2.08-1.47-3.15-2.11-.29-.06-.44.37-.18.51Z"/><path class="cls-4" d="m57.27,128.29c0,.35.55.36.55,0,0-.35-.55-.36-.55,0Z"/><path class="cls-4" d="m49.31,128.67c-.26.02-.29.41-.04.48,2.96.96,6.61,1.77,9.41.89.12-.12.1-.34-.05-.42-.19-.08-.42,0-.62,0-1.77.37-3.64.26-5.4-.12-1.12-.2-2.2-.58-3.3-.83Z"/><path class="cls-4" d="m59.46,129.54c-.19.13-.04.44.18.38.25-.11.71-.03.8-.33.02-.47-.74-.11-.99-.05Z"/><path class="cls-4" d="m55.79,131.62c-1.2.2-2.69.33-4.11.21-.53-.04-1.05-.13-1.58-.14-.07,0-.13.02-.18.07-.16.14-.04.43.17.42,1.71.2,3.41.3,5.13.07.42-.08.87-.1,1.26-.24.06-.04.1-.11.1-.18.03-.46-.53-.26-.8-.22Z"/><path class="cls-4" d="m57.88,132.91c-.5.12-1.01.21-1.52.28-.13.02-.27.02-.4.05-.22.07-.15.42.08.42.68-.06,1.36-.18,2.03-.33.15-.06.37-.04.47-.19.06-.1.03-.25-.08-.31-.19-.09-.39.06-.58.08Z"/><path class="cls-4" d="m62.32,131.45c-.56.23-1.64.66-2.42.88-.26.06-.16.48.11.41.86-.29,1.79-.54,2.57-.98.11-.16-.08-.39-.26-.3Z"/><path class="cls-4" d="m51.28,135.47c-.24.08-.16.46.09.46.9-.09,1.8-.22,2.69-.34.22-.05.22-.38,0-.44-.79.06-1.87.23-2.78.33Z"/><path class="cls-4" d="m57.69,136.42c-1.11.56-2.49,1.18-3.67,1.55-.63.19-1.25.41-1.91.48-.26.06-.15.47.1.4,1.2-.17,2.77-.7,3.66-1.14.63-.29,1.66-.57,2.12-1.04.06-.17-.15-.34-.31-.24Z"/><path class="cls-4" d="m59.94,135.71c-.21.12-.02.44.18.32.67-.3,1.32-.62,1.99-.92.14-.07.11-.3-.04-.34-.73.2-1.42.66-2.13.94Z"/><path class="cls-4" d="m56.63,140.08c-.28.08-.18.5.11.37.74-.41,1.38-.96,2.08-1.42.16-.07.16-.32-.02-.36-.78.29-1.4,1.04-2.17,1.41Z"/><path class="cls-4" d="m63.47,135.65c-1.13.49-2.12,1.19-3.14,1.87-.16.13-.4.19-.5.37-.05.15.13.3.27.22,1.09-.67,2.09-1.48,3.28-1.98.19-.13.72-.22.49-.53-.13-.13-.28,0-.41.05Z"/><path class="cls-4" d="m73.87,100.69c-.85.45-1.67.96-2.51,1.44-.24.17-.59.27-.74.52-.06.18.16.36.32.26.95-.61,1.96-1.14,2.93-1.72.19-.09.51-.24.31-.49-.08-.09-.22-.08-.31-.01Z"/><path class="cls-4" d="m73.7,103.87c-.24.13-.03.5.21.37,3.01-2.04,6.04-4.06,9.03-6.12.1-.11,0-.31-.14-.3-3.07,1.94-6.06,4.05-9.1,6.06Z"/><path class="cls-4" d="m83.41,96.7c-.02-.16-.04-.31-.04-.47-1.42-.06-2.89.29-4.22.76-1.35.57-2.64,1.29-3.91,2.01-.24.13-.03.52.21.38,2.56-1.47,5.11-2.72,7.96-2.67Z"/><path class="cls-4" d="m82.47,94.26c-1.45.2-2.95.28-4.37.64-.22.14-.04.51.21.43,1.56-.35,3.36-.41,4.56-.69.23-.3-.12-.47-.4-.38Z"/><path class="cls-4" d="m73.75,94.48c-.3.08-.62.09-.9.21-.2.14-.04.48.2.4.36-.12.88-.07,1.17-.31.15-.33-.22-.4-.46-.3Z"/><path class="cls-4" d="m83.11,92.17c0-.06.02-.12.06-.17,0,0,0-.02,0-.03-1.97-.04-3.73-.27-5.39-1.34-.24-.16-.55.14-.4.39,1.01.81,2.31,1.14,3.57,1.35.71.09,1.44.14,2.17.15-.01-.12,0-.25,0-.36Z"/><path class="cls-4" d="m63.61,89.16c-.47.13-1.32.25-1.68.5-.1.15.06.35.23.3,1.64-.61,3.32-.41,5.07-.35.21-.07.14-.41-.08-.4-1.18-.08-2.37-.16-3.54-.05Z"/><path class="cls-4" d="m64.24,85.86c-.17.11-.08.41.13.4,1.43-.19,2.59-.03,3.88.36.92.16,1.85.25,2.72.6.56.17,1.12.41,1.7.52.18,0,.29-.23.19-.38-.16-.2-.47-.19-.69-.29-.67-.2-1.31-.47-1.99-.65-1.24-.21-1.87-.3-3.16-.6-.92-.1-1.89-.18-2.79.04Z"/><path class="cls-4" d="m63.11,85.87c-.31,0-.32.48,0,.48.53-.06,1.08-.06,1.61-.13.09-.03.15-.12.15-.21,0-.13-.1-.24-.23-.24-.51.03-1.02.05-1.52.1Z"/><path class="cls-4" d="m65.39,83.09c1.29.42,2.61,1.42,4.14,1.79.54.12,1.47.15,1.79.21,1.47.37,2.83,1.12,4.27,1.53.37-.11.19-.47-.12-.52-1.4-.48-2.73-1.19-4.18-1.5-.94-.11-1.55-.11-2.38-.48-1.09-.33-2.17-1.3-3.47-1.6-.31.02-.34.49-.05.57Z"/><path class="cls-4" d="m76.44,86.64c-.15.08-.12.32.04.36,1.14.48,2.29.93,3.43,1.42.12.06.27-.05.27-.18,0-.09-.06-.17-.14-.19-.92-.4-1.86-.78-2.79-1.15-.27-.07-.54-.33-.81-.26Z"/><path class="cls-4" d="m70.7,89.08c-.72.06-1.53-.08-2.21.15-.17.16-.05.47.19.47,1.54-.07,3.53-.13,4.81,0,.42.03,1.05.47,1.38.37.21-.11.17-.44-.06-.5-1.27-.66-2.72-.46-4.1-.49Z"/><path class="cls-4" d="m75.81,90.43c0,.24.37.24.37,0,0-.24-.37-.24-.37,0Z"/><path class="cls-4" d="m78,80.73c.75.78,1.44,1.62,2.2,2.4.81.8,1.39,1.34,1.91,2.26.34.53.74,1.15,1.09,1.74,0-.38,0-.75.04-1.12-.35-.54-.7-1.07-1.04-1.61-.55-.82-1.35-1.42-2-2.16-.65-.67-1.23-1.41-1.92-2.04-.07-.07-.15-.14-.26-.13-.44.05-.32.49-.03.67Z"/><path class="cls-4" d="m79.13,78.64c-.22.09-.16.36.02.47.98.98,2.18,1.92,2.89,2.99.07.11.11.27.25.31.01,0,.03,0,.04,0-.14-.41-.29-.82-.41-1.24-.57-.67-1.27-1.24-1.88-1.86-.25-.22-.47-.47-.73-.66-.05-.03-.13-.03-.18,0Z"/><path class="cls-4" d="m74.63,70.86c-.21.17.02.37.19.45,1.54.94,2.79,2.22,3.97,3.63.44.51.76.89,1.08,1.32.13.14.19.36.37.44.18.06.34-.15.25-.31-1.02-1.42-2.18-2.74-3.46-3.94-.66-.62-1.41-1.13-2.17-1.61-.07-.04-.17-.04-.23.01Z"/><path class="cls-4" d="m79.74,73.95s-.03-.02-.04-.04c-.07-.09-.13-.19-.18-.3-1.29-1.22-2.56-2.5-4.05-3.48-1.07-.75-2.29-1.41-3.63-1.37-.26,0-.26.4,0,.4,1.29-.04,2.4.59,3.47,1.34,1.02.69,1.91,1.42,2.78,2.32.53.52,1.1,1,1.66,1.49.04.04.09.05.14.05-.05-.14-.1-.27-.15-.41Z"/><path class="cls-4" d="m72.35,76.9c1.17.16,2.3.57,3.29,1.03.12.08.29,0,.33-.13.07-.29-.32-.32-.5-.44-.95-.42-1.96-.75-2.99-.9-.28-.08-.4.35-.12.43Z"/><path class="cls-4" d="m69.25,68.46c-.15.08-.18.3-.06.42.14.1.52.2.68.12.2-.11.16-.43-.06-.49-.19-.01-.39-.14-.57-.05Z"/><path class="cls-4" d="m66.54,64.38c-.23.12-.19.49.07.56.34.16.77-.1.49-.46-.14-.11-.39-.18-.56-.1Z"/><path class="cls-4" d="m76.14,67.74c-.07-.06-.13-.14-.19-.21,0,0,0,0-.02-.01h0s-.03-.04-.05-.06c-.04-.06-.05-.12-.04-.17,0,0-.01-.02-.02-.03-.02-.03-.03-.06-.03-.09-.06-.06-.12-.12-.17-.19-.03-.04-.05-.08-.06-.13-.08-.04-.16-.08-.24-.11-.58-.25-1.19-.45-1.82-.54-.11-.03-.24,0-.31.1-.13.15-.05.41.14.46,1.16.21,2.03.55,2.92,1.14-.04-.05-.08-.1-.11-.15Z"/><path class="cls-7" d="m36.7,65.47c-.41-1.17-1.51-2.15-2.61-2.7-1.18-.6-2.5-.85-3.79-1.06-1.07-.17-2.25-.28-3.31,0-1.38.36-2.76.81-3.99,1.55-.79.48-1.46,1.13-2.14,1.75-.63.58-1.29,1.12-1.84,1.78-1.17,1.4-2.03,3.02-2.96,4.57-1.29,2.16-2.29,4.39-3.24,6.72-1.18,2.86-2.3,5.83-2.88,8.88-.28,1.44-.4,2.92-.55,4.38-.2,1.9-.41,3.79-.37,5.71.07,3.64.42,7.34,1.04,10.93.37,2.14.78,4.19,1.46,6.26,1.07,3.24,2.22,6.43,3.82,9.46,1.35,2.57,3.1,4.84,4.93,7.07.63.76,1.22,1.55,1.9,2.26.5.53.99,1.14,1.6,1.56.73.5,1.65.82,2.46,1.18.51.23,1.07.51,1.63.61.67.12,1.64.14,2.32.02,1.1-.2,1.93-1.47,2.36-2.43.18-.39.45-1.01.35-1.44-.24-1.06-1.43-2.15-2.16-2.88-.69-.69-1.23-1.46-1.83-2.23-.76-.96-1.22-2.12-1.9-3.14-1.53-2.3-2.26-5-2.75-7.7-.12-.66-.22-1.37-.26-2.04-.04-.77.11-1.55.16-2.32.07-1.16.43-2.26.64-3.41.19-1.07.35-2.16.51-3.24.08-.57.22-1.15.23-1.72.02-.93-.13-1.95-.29-2.87-.25-1.46-.93-2.87-1.55-4.2-.56-1.21-.71-2.54-.74-3.87-.02-.99.03-1.91.35-2.85.15-.43.35-.84.46-1.28.14-.56.17-1.15.33-1.71.28-.99.3-1.93.05-2.95-.22-.89-.44-1.76-.59-2.67s-.12-1.71-.11-2.6c.01-1.7.29-3.41.87-5.01.62-1.7,1.82-2.98,3.18-4.12.61-.51,1.22-1.02,1.96-1.33s1.45-.73,2.18-.96c.86-.27,1.81-.33,2.68-.54.56-.13,1.1-.27,1.62-.52.61-.3.9-.58.61-1.22"/><path class="cls-7" d="m37.67,65.73c-1.02-2.46-3.7-3.35-6.09-3.89-2.84-.65-5.26-.72-8,.41s-5.25,3.63-6.84,6.13c-1.83,2.87-3.38,5.88-4.69,9.02s-2.56,6.38-3.14,9.75-.91,6.79-.83,10.13c.17,6.92,1.3,13.72,3.7,20.22,1.2,3.25,2.64,6.39,4.62,9.24,1.72,2.46,3.64,5.13,5.86,7.17.89.82,2.03,1.22,3.12,1.7s2.27.93,3.5,1.09c.9.12,2,.21,2.83-.24,1-.53,1.9-1.97,2.11-3.08s-.82-2.14-1.55-2.89c-1.15-1.17-2.26-2.41-3.1-3.82-1.64-2.75-3.03-5.39-3.72-8.55-.34-1.57-.59-3.1-.44-4.7s.52-3.18.8-4.79c.57-3.28,1-6.32-.26-9.51-.74-1.88-1.55-3.42-1.64-5.48-.04-.83-.04-1.67.12-2.49.17-.86.58-1.65.77-2.51s.41-1.7.45-2.54c.06-.97-.22-1.87-.44-2.8-.43-1.84-.54-3.68-.36-5.56.34-3.6,1.95-6.41,4.92-8.48,1.47-1.03,3.21-1.59,4.96-1.9.94-.17,3.66-.47,3.17-1.94-.15-.45-1.86-.31-1.93-.52.46,1.37-1.67,1.64-2.63,1.83-1.34.26-2.5.51-3.74,1.09-2.26,1.05-4.45,2.79-5.56,5.08-1.26,2.58-1.49,5.97-.98,8.77.26,1.44.84,2.84.64,4.33s-.71,2.81-1.09,4.24c-.36,1.33-.3,2.85-.09,4.21.23,1.5.97,2.77,1.52,4.16s.81,2.76.9,4.2-.26,2.95-.49,4.39c-.47,2.94-1.32,5.75-.84,8.74s1.29,5.62,2.82,8.1c.72,1.17,1.32,2.38,2.15,3.47.73.96,1.52,1.81,2.35,2.68.94.98,1.7,1.92,1.15,3.28-.37.92-.99,2.01-1.91,2.48-1.38.71-2.88,0-4.15-.6s-2.18-1.64-3.09-2.7c-2.02-2.35-3.99-4.81-5.57-7.48-3.1-5.25-5.04-11.4-6.02-17.38-.52-3.14-.83-6.32-.93-9.51s.24-6.22.63-9.3c.86-6.8,4.04-13.49,7.55-19.3,1.55-2.57,3.81-5.19,6.54-6.56,1.55-.78,3.41-1.38,5.16-1.27,2.38.15,4.88,1.03,5.85,3.37.19.46,1.83.27,1.93.52h0Z"/><path class="cls-7" d="m45.19,115.91c.75.46,1.35.89,1.98,1.5.37.35.81.58,1.17.94.83.85,1.32,2.18,1.7,3.28.34.99.51,2.03.85,3.03.16.48.32.96.4,1.46.09.57.04,1.13.09,1.7.03.36.1.69.06,1.05-.03.3-.13.57-.13.89s.07.57.1.87c.05.44.02.88,0,1.32-.03,1.32.18,2.7.34,4.01.08.65.18,1.37.36,2,.07.25.17.5.26.75.19.58.22,1.18.39,1.76.22.78.5,1.56.75,2.33s.52,1.51.83,2.23c.25.6.56,1.21.77,1.82.1.28.14.59.23.87.16.51.41.94.48,1.47.22,1.71.49,3.46.29,5.18-.08.71-.15,1.43-.25,2.14-.07.49-.1.98-.36,1.41-.64,1.07-2.18.45-3.09.18-1.98-.57-3.89-1.4-5.77-2.24-.93-.42-1.74-.93-2.54-1.55-.9-.7-1.85-1.33-2.67-2.14-2.6-2.54-4.75-5.46-6.14-8.83-.57-1.39-1.04-2.75-1.27-4.24-.29-1.87-.29-3.75-.09-5.63.15-1.43.42-2.82.77-4.22s1.03-2.66,1.51-4.02c.76-2.15,1.74-4.26,3.04-6.15.41-.6.85-1.4,1.5-1.75.43-.23.9-.39,1.36-.5.63-.15,1.25-.33,1.87-.49.29-.08.57-.06.88-.05.25,0,.66.25.84.09.15-.44-1.16-.1-1.31-.08-.31.03-.49-.02-.79.1-.33.13-.64.32-.98.44-.58.2-1.18.34-1.68.72-.29.22-.56.49-.79.77-.16.2-.27.43-.5.57.02-.67.93-1.31,1.35-1.74.62-.62,1.47-.96,2.28-1.28.48-.19.92-.3,1.43-.21.33.06,1.72.39,1.64.89"/><path class="cls-7" d="m44.25,115.68c1.31.83,2.96,1.94,3.78,3.28s1.2,3.02,1.62,4.57.7,2.81.79,4.38c.04.69-.1,1.34-.07,2.03.05,1.02.04,2.06.12,3.08.24,3.42,1.08,6.74,2.2,9.97.52,1.51,1.19,2.95,1.68,4.47.55,1.7.83,3.43.84,5.24,0,1.36-.02,3.34-.53,4.63-.76,1.91-3.76.18-5.01-.34-3.25-1.35-6.07-3.19-8.47-5.79s-4.17-5.41-5.35-8.63c-1.27-3.44-1.32-7.13-.69-10.72.35-1.95.97-3.71,1.7-5.54.69-1.74,1.31-3.48,2.22-5.13.67-1.21,1.51-3,2.79-3.66.84-.44,2.1-.77,3.03-.9.59-.08,1.14.15,1.72.03l.04-.02c0-.83-2.49-.72-3.04-.65-.92.12-1.58.42-2.46.74-1.14.41-1.63,1.11-2.48,1.91l1.93.52c.17-.86,1.1-1.6,1.78-2.1.43-.32,2.84-1.7,2.98-.75.05.38,1.92.41,1.93.52-.14-.99-2.8-1.39-3.61-1.44-1.68-.11-4.67,1.51-5.02,3.25-.03.13,1.77.67,1.93.52.45-.43.78-.97,1.29-1.34.55-.4,1.22-.54,1.84-.79.55-.23,1.02-.39,1.61-.46.19-.02.89-.13.72-.16l-1.4-.44c.52.42-.41.07-.74.05-1.01-.06-2.15.34-3.1.64-1.52.47-2.21,1.61-3.02,2.9-.99,1.58-1.77,3.28-2.42,5.03s-1.46,3.49-1.88,5.36c-.88,3.93-1.04,8.07.33,11.91,1.16,3.26,3.02,6.2,5.34,8.75,2.54,2.79,5.55,4.7,9.01,6.13,1.49.62,3.01,1.14,4.57,1.59.87.25,2.14.73,3.05.38,1.32-.5,1.18-3.14,1.28-4.31.16-1.87.06-4.1-.59-5.87-1.31-3.58-2.78-7.15-3.56-10.9-.44-2.09-.46-4.19-.54-6.3-.02-.52-.14-1.01-.1-1.53.03-.47.11-.89.08-1.37-.06-1.01-.06-2-.35-2.97-.57-1.88-.93-3.9-1.87-5.65-.84-1.57-2.55-2.74-4.03-3.67-.49-.31-1.59-.27-1.88-.45h0Z"/><path class="cls-7" d="m72.5,138.4c1,.33,2.48.87,3.54.38,1.2-.56,1.61-1.79,1.45-3.03-.18-1.35-.29-2.68-.56-4.03-.36-1.8-.76-3.6-1.22-5.38-.19-.71-.36-1.39-.62-2.08-.33-.85-.42-1.77-.6-2.66-.23-1.13-.61-2.22-.84-3.35-.2-1.01-.18-2.02-.26-3.04-.11-1.38-.32-2.76-.51-4.13-.19-1.3-.43-2.71-.87-3.96-.81-2.31-3.15-4.11-5.42-4.88-.73-.25-1.67-.23-2.42-.03-1.26.32-1.69,1.28-2.35,2.29-.35.55-.54,1.11-.64,1.76-.11.71-.3,1.38-.45,2.08-.17.84-.22,1.7-.32,2.55-.15,1.3-.35,2.59-.46,3.9-.15,1.88-.07,3.79-.1,5.67-.01.69-.06,1.36.11,2.03.28,1.08.65,2.15.99,3.21.61,1.92,1.89,3.44,2.89,5.15.94,1.62,2.13,2.96,3.42,4.3.56.58,1.13,1.18,1.85,1.57.51.28,1.01.5,1.51.81s1.15.53,1.72.7c.47.14.96.47,1.44.5"/><path class="cls-7" d="m71.99,138.36c1.92.64,5.31,1.93,6.31-.72.53-1.4-.02-3.34-.25-4.76-.29-1.81-.71-3.61-1.16-5.38s-1.02-3.42-1.36-5.18-.95-3.35-1.08-5.1-.25-3.31-.48-4.96c-.26-1.85-.45-3.86-1.29-5.55-1.17-2.34-3.61-3.87-6.07-4.56-1.08-.31-2.26-.53-3.37-.21-1.25.35-2.02,1.53-2.58,2.64-.69,1.37-.91,3.27-1.09,4.78-.22,1.88-.51,3.76-.63,5.65s-.07,3.74-.08,5.61.62,3.58,1.26,5.24,1.79,3.2,2.75,4.74,2.15,2.99,3.45,4.33c2.02,2.1,5.07,3.48,7.92,4.02,1.21.23-.6-.37-.93-.43.54.1-.55-.25-.7-.31-.74-.28-1.4-.64-2.1-1.01-1.35-.72-2.33-1.79-3.34-2.91-1.82-2.02-3.47-4.52-4.69-6.95-.64-1.28-1.07-2.74-1.44-4.12s-.23-2.92-.23-4.38c0-3.02.34-5.96.69-8.96.26-2.28.69-5.1,2.45-6.75.51-.48,1.23-.75,1.93-.77s1.17.25,1.78.62c1.16.72,2.22,1.69,2.91,2.89,1.37,2.39,1.52,5.72,1.78,8.41.13,1.31.1,2.65.37,3.94.3,1.43.72,2.82,1,4.26.29,1.53.86,3,1.24,4.51.41,1.63.79,3.28,1.08,4.94.25,1.41.69,3.15.48,4.58-.26,1.79-1.84,2.51-3.51,1.96-.34-.11-.97-.41-1.33-.32-.3.07.14.17.31.23h0Z"/><path class="cls-7" d="m48.63,54.51c1.03-.67,2.03-1.39,3.26-1.62.89-.16,1.89-.22,2.79-.08.75.11,1.27.39,1.9.81.68.45,1.4.9,1.9,1.56,2.65,3.44,2.31,8.5,1.45,12.49-.45,2.1-1.09,4.31-1.87,6.3s-1.14,4.12-1.28,6.24c-.11,1.76.07,3.54.15,5.3.03.66.16,1.3.14,1.96-.02.87-.09,1.69-.17,2.55s-.16,1.31-.62,2.04c-.26.43-.5.93-.87,1.27-.78.72-1.74.81-2.74.83-2.09.03-4.57-1.32-5.94-2.88-1.65-1.88-3.16-4.01-4.1-6.33-.44-1.07-1.05-2.06-1.53-3.11-.26-.56-.35-1.16-.5-1.76-.18-.73-.42-1.45-.56-2.19-.37-1.85-.32-3.49-.01-5.34s.56-3.8,1.09-5.68c.56-1.97,1.25-3.78,2.16-5.61.76-1.54,1.48-3.13,2.53-4.5.55-.71,1.1-1.39,1.75-2.01.69-.67,1.29-1.36,2.21-1.72s2.16-.91,3.19-.81c.77.07,1.54.14,2.28.43.36.15.61.45.94.6.25.11.5.12.73.3.42.33,1.35,1.15,1.37,1.72"/><path class="cls-7" d="m49.6,54.77c1.52-1,2.94-1.75,4.81-1.76,1.76-.01,3.36,2.02,4.06,3.47,1.3,2.71,1.29,5.88.88,8.79-.48,3.4-1.72,6.47-2.7,9.73-1.08,3.59-.94,7.34-.62,11.03.26,2.94.03,7.75-3.91,7.84-3.58.08-6.37-4.4-7.81-7.15-1.63-3.1-3.16-6.39-3.5-9.92-.17-1.83.13-3.61.42-5.42.3-1.9.67-3.76,1.27-5.59,1.21-3.7,2.99-7.63,5.71-10.47,1.4-1.46,3.17-2.76,5.29-2.83,1.29-.05,3.53,1.15,3.82,2.53.09.41,1.9.37,1.93.52-.28-1.32-1.73-1.85-2.74-2.47-1.24-.76-2.98-1.05-4.42-1.12-4.26-.18-7.33,4.15-9.01,7.51-1.02,2.03-1.97,4.08-2.65,6.26-.71,2.28-1.09,4.67-1.42,7.03s-.05,4.39.53,6.63,1.57,4.19,2.57,6.26c1.58,3.27,4.03,6.64,7.53,7.95,3,1.12,6.96,1.6,8.08-2.25.56-1.93.28-4.09.18-6.06-.13-2.38-.25-4.72.12-7.09s1.29-4.42,1.97-6.66c.59-1.94,1.07-3.92,1.34-5.93.53-3.93.31-8.94-3.28-11.42-1.33-.92-2.75-1.49-4.36-1.67-2.34-.27-4.09.49-6,1.74.26-.17,1.48.81,1.93.52h0Z"/><path class="cls-3" d="m120.89,92.84h11.54v3.61h-7.94v2.89h7.21v3.61h-7.21v6.85h-3.61v-16.95Z"/><path class="cls-3" d="m135.16,92.84h11.54v3.61h-7.94v2.89h7.58v3.61h-7.58v3.25h8.3v3.61h-11.9v-16.95Z"/><path class="cls-3" d="m150.31,92.84h7.41c2.89,0,5.24,2.26,5.24,5,0,1.03-.34,1.97-.89,2.77.96,1.01,1.61,2.4,1.61,3.97,0,2.89-2.36,5.22-5.24,5.22h-8.13v-16.95Zm3.61,3.61v2.77h3.8c.91,0,1.64-.6,1.64-1.37s-.72-1.4-1.64-1.4h-3.8Zm4.52,6.37h-4.52v3.37h4.52c.91,0,1.64-.7,1.64-1.61s-.75-1.76-1.64-1.76Z"/><path class="cls-3" d="m173.3,92.84c2.89,0,5.24,2.36,5.24,5.24,0,2.28-1.49,4.23-3.53,4.93l1.49,2.72c.43.79,1.4,1.06,2.21.62l1.73,3.17c-2.55,1.37-5.72.46-7.12-2.07l-2.26-4.16h-1.56v6.49h-3.61v-16.95h7.41Zm-3.8,3.61v3.25h3.8c.91,0,1.64-.7,1.64-1.61s-.72-1.64-1.64-1.64h-3.8Z"/><path class="cls-3" d="m185.09,92.84v10.1c0,2,1.61,3.61,3.61,3.61s3.61-1.61,3.61-3.61v-10.1h3.61v10.1c0,3.99-3.22,7.21-7.21,7.21s-7.21-3.22-7.21-7.21v-10.1h3.61Z"/><path class="cls-3" d="m198.8,99.7c0-3.99,2.91-7.21,6.49-7.21s6.49,3.22,6.49,7.21v10.1h-3.61v-3.61h-5.77v3.61h-3.61v-10.1Zm3.61,2.89h5.77v-2.89c0-2-1.3-3.61-2.89-3.61s-2.89,1.61-2.89,3.61v2.89Z"/><path class="cls-3" d="m222.32,92.84c2.89,0,5.24,2.36,5.24,5.24,0,2.28-1.49,4.23-3.54,4.93l1.49,2.72c.43.79,1.39,1.06,2.21.62l1.73,3.17c-2.55,1.37-5.72.46-7.12-2.07l-2.26-4.16h-1.56v6.49h-3.61v-16.95h7.41Zm-3.8,3.61v3.25h3.8c.91,0,1.64-.7,1.64-1.61s-.72-1.64-1.64-1.64h-3.8Z"/><path class="cls-3" d="m233.94,103.4c-2.84-.84-4.93-3.63-4.93-6.95v-3.61h3.61v3.61c0,2,1.39,3.61,3.13,3.61s3.13-1.61,3.13-3.61v-3.61h3.61v3.61c0,3.32-2.09,6.11-4.93,6.95v6.4h-3.61v-6.4Z"/></svg>