<svg width="73" height="61" viewBox="0 0 73 61" fill="none" xmlns="http://www.w3.org/2000/svg">
<path fill-rule="evenodd" clip-rule="evenodd" d="M3.49744 3.98659e-07C2.56986 3.98659e-07 1.68027 0.321356 1.02438 0.893373C0.368479 1.46539 0 2.24121 0 3.05017C0 3.85912 0.368479 4.63494 1.02438 5.20696C1.68027 5.77897 2.56986 6.10033 3.49744 6.10033H5.14823C5.91567 6.10019 6.66185 6.3202 7.27175 6.72643C7.88166 7.13267 8.32143 7.70257 8.52326 8.3483L9.9782 13.0029L17.4872 37.0076V42.7023C17.4872 44.8191 18.3091 46.7651 19.6906 48.3146C18.7018 49.2868 18.0143 50.4633 17.6934 51.7323C17.3725 53.0014 17.4288 54.3209 17.8569 55.5656C18.2851 56.8104 19.0709 57.939 20.1398 58.8445C21.2087 59.7499 22.5252 60.4021 23.9643 60.7391C25.4034 61.0761 26.9175 61.0868 28.3626 60.7701C29.8078 60.4534 31.1362 59.8198 32.2217 58.9296C33.3073 58.0393 34.1139 56.9219 34.565 55.6833C35.0162 54.4448 35.0969 53.1262 34.7995 51.8528H45.6416C45.3699 53.0171 45.414 54.2207 45.7704 55.3676C46.1267 56.5144 46.7854 57.5728 47.694 58.4582C48.6025 59.3437 49.7358 60.0317 51.0033 60.4674C52.2708 60.9031 53.6376 61.0745 54.9945 60.9678C56.3514 60.8612 57.661 60.4794 58.8188 59.8531C59.9765 59.2267 60.9505 58.3731 61.6628 57.3602C62.3752 56.3474 62.8063 55.2034 62.9218 54.0195C63.0372 52.8355 62.8339 51.6444 62.3279 50.5412C62.6917 50.0838 62.9051 49.5483 62.9449 48.9927C62.9846 48.437 62.8493 47.8825 62.5535 47.3892C62.2577 46.8959 61.8127 46.4826 61.2668 46.1941C60.7209 45.9055 60.0948 45.7528 59.4565 45.7525H27.983C27.0554 45.7525 26.1658 45.4311 25.51 44.8591C24.8541 44.2871 24.4856 43.5113 24.4856 42.7023V39.6521H60.2854C61.8202 39.6524 63.3126 39.2124 64.5324 38.3999C65.7522 37.5875 66.6318 36.4477 67.0354 35.1562L72.7537 16.8552C73.0368 15.9497 73.0764 14.9994 72.8696 14.0783C72.6627 13.1573 72.215 12.2903 71.5612 11.5447C70.9074 10.7992 70.0651 10.1954 69.1 9.78008C68.1349 9.36482 67.0729 9.14936 65.9967 9.15049H16.0253L15.2733 6.74086C14.6672 4.80425 13.3476 3.0952 11.5179 1.87709C9.68828 0.658985 7.45008 -0.000591971 5.14823 3.98659e-07H3.49744ZM54.2103 51.8528C53.7465 51.8528 53.3017 52.0135 52.9738 52.2995C52.6458 52.5855 52.4616 52.9734 52.4616 53.3779C52.4616 53.7824 52.6458 54.1703 52.9738 54.4563C53.3017 54.7423 53.7465 54.903 54.2103 54.903C54.6741 54.903 55.1189 54.7423 55.4468 54.4563C55.7748 54.1703 55.959 53.7824 55.959 53.3779C55.959 52.9734 55.7748 52.5855 55.4468 52.2995C55.1189 52.0135 54.6741 51.8528 54.2103 51.8528ZM60.2819 33.5518H23.6567L17.9314 15.2508H66.0002L60.2819 33.5518ZM26.2308 51.8528C25.767 51.8528 25.3222 52.0135 24.9943 52.2995C24.6663 52.5855 24.4821 52.9734 24.4821 53.3779C24.4821 53.7824 24.6663 54.1703 24.9943 54.4563C25.3222 54.7423 25.767 54.903 26.2308 54.903C26.6946 54.903 27.1394 54.7423 27.4673 54.4563C27.7953 54.1703 27.9795 53.7824 27.9795 53.3779C27.9795 52.9734 27.7953 52.5855 27.4673 52.2995C27.1394 52.0135 26.6946 51.8528 26.2308 51.8528Z" fill="black"/>
</svg>
