<svg width="91" height="82" viewBox="0 0 91 82" fill="none" xmlns="http://www.w3.org/2000/svg">
<path fill-rule="evenodd" clip-rule="evenodd" d="M41.7085 13.8785C34.0596 14.7555 27.0683 18.224 22.1556 23.5792C17.2429 28.9343 14.7773 35.7741 15.2602 42.7084C15.743 49.6428 19.138 56.1513 24.755 60.911C30.372 65.6708 37.7896 68.3247 45.5002 68.3333C52.8886 68.3332 60.0231 65.9034 65.5647 61.5C71.1063 57.0965 74.674 51.0221 75.5984 44.4167H45.5002C44.4946 44.4167 43.5301 44.0567 42.819 43.416C42.108 42.7752 41.7085 41.9062 41.7085 41V13.8785ZM49.2918 13.8785V37.5833H75.5984C74.7544 31.5618 71.7114 25.9644 66.9487 21.6727C62.186 17.381 55.9742 14.639 49.2918 13.8785ZM7.5835 41C7.5835 22.1298 24.5588 6.83334 45.5002 6.83334C66.4415 6.83334 83.4168 22.1298 83.4168 41C83.4168 59.8703 66.4415 75.1667 45.5002 75.1667C24.5588 75.1667 7.5835 59.8703 7.5835 41Z" fill="black"/>
</svg>
